<?xml version="1.0" encoding="UTF-8" standalone="no"?>
<svg
   xmlns:dc="http://purl.org/dc/elements/1.1/"
   xmlns:cc="http://creativecommons.org/ns#"
   xmlns:rdf="http://www.w3.org/1999/02/22-rdf-syntax-ns#"
   xmlns:svg="http://www.w3.org/2000/svg"
   xmlns="http://www.w3.org/2000/svg"
   xmlns:sodipodi="http://sodipodi.sourceforge.net/DTD/sodipodi-0.dtd"
   xmlns:inkscape="http://www.inkscape.org/namespaces/inkscape"
   width="620.79999mm"
   height="311.37mm"
   viewBox="0 0 620.79999 311.37"
   version="1.1"
   id="svg21767"
   inkscape:version="1.0.2-2 (e86c870879, 2021-01-15)"
   sodipodi:docname="Figure10.26a.svg">
  <defs
     id="defs21761">
    <pattern
       id="EMFhbasepattern"
       patternUnits="userSpaceOnUse"
       width="6"
       height="6"
       x="0"
       y="0" />
  </defs>
  <sodipodi:namedview
     id="base"
     pagecolor="#ffffff"
     bordercolor="#666666"
     borderopacity="1.0"
     inkscape:pageopacity="0.0"
     inkscape:pageshadow="2"
     inkscape:zoom="0.35"
     inkscape:cx="1173.1654"
     inkscape:cy="588.41575"
     inkscape:document-units="mm"
     inkscape:current-layer="layer1"
     inkscape:document-rotation="0"
     showgrid="false"
     fit-margin-top="0"
     fit-margin-left="0"
     fit-margin-right="0"
     fit-margin-bottom="0"
     inkscape:window-width="1258"
     inkscape:window-height="1040"
     inkscape:window-x="182"
     inkscape:window-y="0"
     inkscape:window-maximized="0" />
  <metadata
     id="metadata21764">
    <rdf:RDF>
      <cc:Work
         rdf:about="">
        <dc:format>image/svg+xml</dc:format>
        <dc:type
           rdf:resource="http://purl.org/dc/dcmitype/StillImage" />
        <dc:title></dc:title>
      </cc:Work>
    </rdf:RDF>
  </metadata>
  <g
     inkscape:label="Capa 1"
     inkscape:groupmode="layer"
     id="layer1"
     transform="translate(204.56667,7.5183333)">
    <path
       style="fill:#ffffff;fill-opacity:1;fill-rule:evenodd;stroke:none;stroke-width:0.264583"
       d="M -204.56667,-7.5183333 V 303.85167 h 620.8 V -7.5183333 Z"
       id="path22333" />
    <path
       style="fill:#ffffff;fill-opacity:1;fill-rule:evenodd;stroke:none;stroke-width:0.264583"
       d="M -123.73333,15.761667 V 266.66835 H 357.38666 V 15.761667 Z"
       id="path22335" />
    <path
       style="fill:none;stroke:#262626;stroke-width:0.222292px;stroke-linecap:butt;stroke-linejoin:round;stroke-miterlimit:4;stroke-dasharray:none;stroke-opacity:1"
       d="M -123.73333,266.66835 H 357.38666"
       id="path22337" />
    <path
       style="fill:none;stroke:#262626;stroke-width:0.222292px;stroke-linecap:butt;stroke-linejoin:round;stroke-miterlimit:4;stroke-dasharray:none;stroke-opacity:1"
       d="M -123.73333,15.761667 H 357.38666"
       id="path22339" />
    <path
       style="fill:none;stroke:#262626;stroke-width:0.222292px;stroke-linecap:butt;stroke-linejoin:round;stroke-miterlimit:4;stroke-dasharray:none;stroke-opacity:1"
       d="m -123.08667,266.66835 v -4.8096"
       id="path22341" />
    <path
       style="fill:none;stroke:#262626;stroke-width:0.222292px;stroke-linecap:butt;stroke-linejoin:round;stroke-miterlimit:4;stroke-dasharray:none;stroke-opacity:1"
       d="m -54.337917,266.66835 v -4.8096"
       id="path22343" />
    <path
       style="fill:none;stroke:#262626;stroke-width:0.222292px;stroke-linecap:butt;stroke-linejoin:round;stroke-miterlimit:4;stroke-dasharray:none;stroke-opacity:1"
       d="m 14.390623,266.66835 v -4.8096"
       id="path22345" />
    <path
       style="fill:none;stroke:#262626;stroke-width:0.222292px;stroke-linecap:butt;stroke-linejoin:round;stroke-miterlimit:4;stroke-dasharray:none;stroke-opacity:1"
       d="m 83.119153,266.66835 v -4.8096"
       id="path22347" />
    <path
       style="fill:none;stroke:#262626;stroke-width:0.222292px;stroke-linecap:butt;stroke-linejoin:round;stroke-miterlimit:4;stroke-dasharray:none;stroke-opacity:1"
       d="m 151.84772,266.66835 v -4.8096"
       id="path22349" />
    <path
       style="fill:none;stroke:#262626;stroke-width:0.222292px;stroke-linecap:butt;stroke-linejoin:round;stroke-miterlimit:4;stroke-dasharray:none;stroke-opacity:1"
       d="m 220.57625,266.66835 v -4.8096"
       id="path22351" />
    <path
       style="fill:none;stroke:#262626;stroke-width:0.222292px;stroke-linecap:butt;stroke-linejoin:round;stroke-miterlimit:4;stroke-dasharray:none;stroke-opacity:1"
       d="m 289.30479,266.66835 v -4.8096"
       id="path22353" />
    <path
       style="fill:none;stroke:#262626;stroke-width:0.222292px;stroke-linecap:butt;stroke-linejoin:round;stroke-miterlimit:4;stroke-dasharray:none;stroke-opacity:1"
       d="m -123.08667,15.761667 v 4.829791"
       id="path22355" />
    <path
       style="fill:none;stroke:#262626;stroke-width:0.222292px;stroke-linecap:butt;stroke-linejoin:round;stroke-miterlimit:4;stroke-dasharray:none;stroke-opacity:1"
       d="m -54.337917,15.761667 v 4.829791"
       id="path22357" />
    <path
       style="fill:none;stroke:#262626;stroke-width:0.222292px;stroke-linecap:butt;stroke-linejoin:round;stroke-miterlimit:4;stroke-dasharray:none;stroke-opacity:1"
       d="m 14.390623,15.761667 v 4.829791"
       id="path22359" />
    <path
       style="fill:none;stroke:#262626;stroke-width:0.222292px;stroke-linecap:butt;stroke-linejoin:round;stroke-miterlimit:4;stroke-dasharray:none;stroke-opacity:1"
       d="m 83.119153,15.761667 v 4.829791"
       id="path22361" />
    <path
       style="fill:none;stroke:#262626;stroke-width:0.222292px;stroke-linecap:butt;stroke-linejoin:round;stroke-miterlimit:4;stroke-dasharray:none;stroke-opacity:1"
       d="m 151.84772,15.761667 v 4.829791"
       id="path22363" />
    <path
       style="fill:none;stroke:#262626;stroke-width:0.222292px;stroke-linecap:butt;stroke-linejoin:round;stroke-miterlimit:4;stroke-dasharray:none;stroke-opacity:1"
       d="m 220.57625,15.761667 v 4.829791"
       id="path22365" />
    <path
       style="fill:none;stroke:#262626;stroke-width:0.222292px;stroke-linecap:butt;stroke-linejoin:round;stroke-miterlimit:4;stroke-dasharray:none;stroke-opacity:1"
       d="m 289.30479,15.761667 v 4.829791"
       id="path22367" />
    <text
       xml:space="preserve"
       style="font-style:normal;font-variant:normal;font-weight:400;font-size:11.9559px;line-height:125%;font-family:Arial;text-align:start;letter-spacing:0px;word-spacing:0px;text-anchor:start;fill:#000000;fill-opacity:1;stroke:none;stroke-width:0.264583"
       x="-126.32"
       y="281.21832"
       id="text22373"><tspan
         sodipodi:role="line"
         x="-126.32"
         y="281.21832"
         id="tspan22371"
         style="stroke-width:0.264583"><tspan
           dx="0"
           dy="0"
           style="font-style:normal;font-variant:normal;font-weight:400;font-size:11.9559px;font-family:Arial;fill:#262626;stroke-width:0.264583"
           id="tspan22369">0</tspan></tspan></text>
    <text
       xml:space="preserve"
       style="font-style:normal;font-variant:normal;font-weight:400;font-size:11.9559px;line-height:125%;font-family:Arial;text-align:start;letter-spacing:0px;word-spacing:0px;text-anchor:start;fill:#000000;fill-opacity:1;stroke:none;stroke-width:0.264583"
       x="-57.449997"
       y="281.21832"
       id="text22379"><tspan
         sodipodi:role="line"
         x="-57.449997"
         y="281.21832"
         id="tspan22377"
         style="stroke-width:0.264583"><tspan
           dx="0"
           dy="0"
           style="font-style:normal;font-variant:normal;font-weight:400;font-size:11.9559px;font-family:Arial;fill:#262626;stroke-width:0.264583"
           id="tspan22375">1</tspan></tspan></text>
    <text
       xml:space="preserve"
       style="font-style:normal;font-variant:normal;font-weight:400;font-size:11.9559px;line-height:125%;font-family:Arial;text-align:start;letter-spacing:0px;word-spacing:0px;text-anchor:start;fill:#000000;fill-opacity:1;stroke:none;stroke-width:0.264583"
       x="11.096663"
       y="281.21832"
       id="text22385"><tspan
         sodipodi:role="line"
         x="11.096663"
         y="281.21832"
         id="tspan22383"
         style="stroke-width:0.264583"><tspan
           dx="0"
           dy="0"
           style="font-style:normal;font-variant:normal;font-weight:400;font-size:11.9559px;font-family:Arial;fill:#262626;stroke-width:0.264583"
           id="tspan22381">2</tspan></tspan></text>
    <text
       xml:space="preserve"
       style="font-style:normal;font-variant:normal;font-weight:400;font-size:11.9559px;line-height:125%;font-family:Arial;text-align:start;letter-spacing:0px;word-spacing:0px;text-anchor:start;fill:#000000;fill-opacity:1;stroke:none;stroke-width:0.264583"
       x="79.96666"
       y="281.21832"
       id="text22391"><tspan
         sodipodi:role="line"
         x="79.96666"
         y="281.21832"
         id="tspan22389"
         style="stroke-width:0.264583"><tspan
           dx="0"
           dy="0"
           style="font-style:normal;font-variant:normal;font-weight:400;font-size:11.9559px;font-family:Arial;fill:#262626;stroke-width:0.264583"
           id="tspan22387">3</tspan></tspan></text>
    <text
       xml:space="preserve"
       style="font-style:normal;font-variant:normal;font-weight:400;font-size:11.9559px;line-height:125%;font-family:Arial;text-align:start;letter-spacing:0px;word-spacing:0px;text-anchor:start;fill:#000000;fill-opacity:1;stroke:none;stroke-width:0.264583"
       x="148.51332"
       y="281.21832"
       id="text22397"><tspan
         sodipodi:role="line"
         x="148.51332"
         y="281.21832"
         id="tspan22395"
         style="stroke-width:0.264583"><tspan
           dx="0"
           dy="0"
           style="font-style:normal;font-variant:normal;font-weight:400;font-size:11.9559px;font-family:Arial;fill:#262626;stroke-width:0.264583"
           id="tspan22393">4</tspan></tspan></text>
    <text
       xml:space="preserve"
       style="font-style:normal;font-variant:normal;font-weight:400;font-size:11.9559px;line-height:125%;font-family:Arial;text-align:start;letter-spacing:0px;word-spacing:0px;text-anchor:start;fill:#000000;fill-opacity:1;stroke:none;stroke-width:0.264583"
       x="217.38335"
       y="281.21832"
       id="text22403"><tspan
         sodipodi:role="line"
         x="217.38335"
         y="281.21832"
         id="tspan22401"
         style="stroke-width:0.264583"><tspan
           dx="0"
           dy="0"
           style="font-style:normal;font-variant:normal;font-weight:400;font-size:11.9559px;font-family:Arial;fill:#262626;stroke-width:0.264583"
           id="tspan22399">5</tspan></tspan></text>
    <text
       xml:space="preserve"
       style="font-style:normal;font-variant:normal;font-weight:400;font-size:11.9559px;line-height:125%;font-family:Arial;text-align:start;letter-spacing:0px;word-spacing:0px;text-anchor:start;fill:#000000;fill-opacity:1;stroke:none;stroke-width:0.264583"
       x="285.92999"
       y="281.21832"
       id="text22409"><tspan
         sodipodi:role="line"
         x="285.92999"
         y="281.21832"
         id="tspan22407"
         style="stroke-width:0.264583"><tspan
           dx="0"
           dy="0"
           style="font-style:normal;font-variant:normal;font-weight:400;font-size:11.9559px;font-family:Arial;fill:#262626;stroke-width:0.264583"
           id="tspan22405">6</tspan></tspan></text>
    <text
       xml:space="preserve"
       style="font-style:normal;font-variant:normal;font-weight:400;font-size:13.2622px;line-height:125%;font-family:Arial;text-align:start;letter-spacing:0px;word-spacing:0px;text-anchor:start;fill:#000000;fill-opacity:1;stroke:none;stroke-width:0.264583"
       x="74.146683"
       y="300.94165"
       id="text22419"><tspan
         sodipodi:role="line"
         x="74.146683"
         y="300.94165"
         id="tspan22417"
         style="stroke-width:0.264583"><tspan
           dx="0"
           dy="0"
           style="font-style:normal;font-variant:normal;font-weight:400;font-size:13.2622px;font-family:Arial;fill:#262626;stroke-width:0.264583"
           id="tspan22411">Flow, Q [m</tspan><tspan
           dx="0.97210461"
           dy="-6.4666667"
           style="font-style:normal;font-variant:normal;font-weight:400;font-size:10.666px;font-family:Arial;fill:#262626;stroke-width:0.264583"
           id="tspan22413">3</tspan><tspan
           dx="0"
           dy="6.4666667"
           style="font-style:normal;font-variant:normal;font-weight:400;font-size:13.2622px;font-family:Arial;fill:#262626;stroke-width:0.264583"
           id="tspan22415">/h]</tspan></tspan></text>
    <path
       style="fill:none;stroke:#262626;stroke-width:0.222292px;stroke-linecap:butt;stroke-linejoin:round;stroke-miterlimit:4;stroke-dasharray:none;stroke-opacity:1"
       d="M -123.73333,266.66835 V 15.761667"
       id="path22421" />
    <path
       style="fill:none;stroke:#262626;stroke-width:0.222292px;stroke-linecap:butt;stroke-linejoin:round;stroke-miterlimit:4;stroke-dasharray:none;stroke-opacity:1"
       d="M 357.38666,266.66835 V 15.761667"
       id="path22423" />
    <path
       style="fill:none;stroke:#262626;stroke-width:0.222292px;stroke-linecap:butt;stroke-linejoin:round;stroke-miterlimit:4;stroke-dasharray:none;stroke-opacity:1"
       d="m -123.73333,266.66835 h 4.82979"
       id="path22425" />
    <path
       style="fill:none;stroke:#262626;stroke-width:0.222292px;stroke-linecap:butt;stroke-linejoin:round;stroke-miterlimit:4;stroke-dasharray:none;stroke-opacity:1"
       d="m -123.73333,183.04625 h 4.82979"
       id="path22427" />
    <path
       style="fill:none;stroke:#262626;stroke-width:0.222292px;stroke-linecap:butt;stroke-linejoin:round;stroke-miterlimit:4;stroke-dasharray:none;stroke-opacity:1"
       d="m -123.73333,99.403957 h 4.82979"
       id="path22429" />
    <path
       style="fill:none;stroke:#262626;stroke-width:0.222292px;stroke-linecap:butt;stroke-linejoin:round;stroke-miterlimit:4;stroke-dasharray:none;stroke-opacity:1"
       d="m -123.73333,15.761667 h 4.82979"
       id="path22431" />
    <path
       style="fill:none;stroke:#262626;stroke-width:0.222292px;stroke-linecap:butt;stroke-linejoin:round;stroke-miterlimit:4;stroke-dasharray:none;stroke-opacity:1"
       d="m 357.38666,266.66835 h -4.80957"
       id="path22433" />
    <path
       style="fill:none;stroke:#262626;stroke-width:0.222292px;stroke-linecap:butt;stroke-linejoin:round;stroke-miterlimit:4;stroke-dasharray:none;stroke-opacity:1"
       d="m 357.38666,183.04625 h -4.80957"
       id="path22435" />
    <path
       style="fill:none;stroke:#262626;stroke-width:0.222292px;stroke-linecap:butt;stroke-linejoin:round;stroke-miterlimit:4;stroke-dasharray:none;stroke-opacity:1"
       d="m 357.38666,99.403957 h -4.80957"
       id="path22437" />
    <path
       style="fill:none;stroke:#262626;stroke-width:0.222292px;stroke-linecap:butt;stroke-linejoin:round;stroke-miterlimit:4;stroke-dasharray:none;stroke-opacity:1"
       d="m 357.38666,15.761667 h -4.80957"
       id="path22439" />
    <text
       xml:space="preserve"
       style="font-style:normal;font-variant:normal;font-weight:400;font-size:11.9559px;line-height:125%;font-family:Arial;text-align:start;letter-spacing:0px;word-spacing:0px;text-anchor:start;fill:#000000;fill-opacity:1;stroke:none;stroke-width:0.264583"
       x="-140.54668"
       y="270.87167"
       id="text22445"><tspan
         sodipodi:role="line"
         x="-140.54668"
         y="270.87167"
         id="tspan22443"
         style="stroke-width:0.264583"><tspan
           dx="0"
           dy="0"
           style="font-style:normal;font-variant:normal;font-weight:400;font-size:11.9559px;font-family:Arial;fill:#262626;stroke-width:0.264583"
           id="tspan22441">10</tspan></tspan></text>
    <text
       xml:space="preserve"
       style="font-style:normal;font-variant:normal;font-weight:400;font-size:11.9559px;line-height:125%;font-family:Arial;text-align:start;letter-spacing:0px;word-spacing:0px;text-anchor:start;fill:#000000;fill-opacity:1;stroke:none;stroke-width:0.264583"
       x="-140.54668"
       y="187.12834"
       id="text22451"><tspan
         sodipodi:role="line"
         x="-140.54668"
         y="187.12834"
         id="tspan22449"
         style="stroke-width:0.264583"><tspan
           dx="0"
           dy="0"
           style="font-style:normal;font-variant:normal;font-weight:400;font-size:11.9559px;font-family:Arial;fill:#262626;stroke-width:0.264583"
           id="tspan22447">15</tspan></tspan></text>
    <text
       xml:space="preserve"
       style="font-style:normal;font-variant:normal;font-weight:400;font-size:11.9559px;line-height:125%;font-family:Arial;text-align:start;letter-spacing:0px;word-spacing:0px;text-anchor:start;fill:#000000;fill-opacity:1;stroke:none;stroke-width:0.264583"
       x="-140.54668"
       y="103.70834"
       id="text22457"><tspan
         sodipodi:role="line"
         x="-140.54668"
         y="103.70834"
         id="tspan22455"
         style="stroke-width:0.264583"><tspan
           dx="0"
           dy="0"
           style="font-style:normal;font-variant:normal;font-weight:400;font-size:11.9559px;font-family:Arial;fill:#262626;stroke-width:0.264583"
           id="tspan22453">20</tspan></tspan></text>
    <text
       xml:space="preserve"
       style="font-style:normal;font-variant:normal;font-weight:400;font-size:11.9559px;line-height:125%;font-family:Arial;text-align:start;letter-spacing:0px;word-spacing:0px;text-anchor:start;fill:#000000;fill-opacity:1;stroke:none;stroke-width:0.264583"
       x="-140.54668"
       y="19.965002"
       id="text22463"><tspan
         sodipodi:role="line"
         x="-140.54668"
         y="19.965002"
         id="tspan22461"
         style="stroke-width:0.264583"><tspan
           dx="0"
           dy="0"
           style="font-style:normal;font-variant:normal;font-weight:400;font-size:11.9559px;font-family:Arial;fill:#262626;stroke-width:0.264583"
           id="tspan22459">25</tspan></tspan></text>
    <text
       xml:space="preserve"
       style="font-style:normal;font-variant:normal;font-weight:400;font-size:13.2622px;line-height:125%;font-family:Arial;text-align:start;letter-spacing:0px;word-spacing:0px;text-anchor:start;fill:#000000;fill-opacity:1;stroke:none;stroke-width:0.264583"
       transform="rotate(-90)"
       x="-176.78168"
       y="-144.75"
       id="text22489"><tspan
         sodipodi:role="line"
         x="-176.78168"
         y="-144.75"
         id="tspan22487"
         style="stroke-width:0.264583"><tspan
           dx="0"
           dy="0"
           style="font-style:normal;font-variant:normal;font-weight:400;font-size:13.2622px;font-family:Arial;fill:#262626;stroke-width:0.264583"
           id="tspan22465">H</tspan><tspan
           dx="0"
           dy="0"
           style="font-style:normal;font-variant:normal;font-weight:400;font-size:13.2622px;font-family:Arial;fill:#262626;stroke-width:0.264583"
           id="tspan22467">e</tspan><tspan
           dx="0"
           dy="0"
           style="font-style:normal;font-variant:normal;font-weight:400;font-size:13.2622px;font-family:Arial;fill:#262626;stroke-width:0.264583"
           id="tspan22469">a</tspan><tspan
           dx="0"
           dy="0"
           style="font-style:normal;font-variant:normal;font-weight:400;font-size:13.2622px;font-family:Arial;fill:#262626;stroke-width:0.264583"
           id="tspan22471">d</tspan><tspan
           dx="0"
           dy="0"
           style="font-style:normal;font-variant:normal;font-weight:400;font-size:13.2622px;font-family:Arial;fill:#262626;stroke-width:0.264583"
           id="tspan22473">,</tspan><tspan
           dx="0"
           dy="0"
           style="font-style:normal;font-variant:normal;font-weight:400;font-size:13.2622px;font-family:Arial;fill:#262626;stroke-width:0.264583"
           id="tspan22475"> </tspan><tspan
           dx="0"
           dy="0"
           style="font-style:normal;font-variant:normal;font-weight:400;font-size:13.2622px;font-family:Arial;fill:#262626;stroke-width:0.264583"
           id="tspan22477">H</tspan><tspan
           dx="0"
           dy="0"
           style="font-style:normal;font-variant:normal;font-weight:400;font-size:13.2622px;font-family:Arial;fill:#262626;stroke-width:0.264583"
           id="tspan22479"> </tspan><tspan
           dx="0"
           dy="0"
           style="font-style:normal;font-variant:normal;font-weight:400;font-size:13.2622px;font-family:Arial;fill:#262626;stroke-width:0.264583"
           id="tspan22481">[</tspan><tspan
           dx="0"
           dy="0"
           style="font-style:normal;font-variant:normal;font-weight:400;font-size:13.2622px;font-family:Arial;fill:#262626;stroke-width:0.264583"
           id="tspan22483">m</tspan><tspan
           dx="0"
           dy="0"
           style="font-style:normal;font-variant:normal;font-weight:400;font-size:13.2622px;font-family:Arial;fill:#262626;stroke-width:0.264583"
           id="tspan22485">]</tspan></tspan></text>
    <path
       style="fill:#000000;fill-opacity:1;fill-rule:nonzero;stroke:none;stroke-width:0.264583"
       d="m -122.25813,18.328125 c 0.88917,0 1.61667,0.727501 1.61667,1.616668 v 0 c 0,0.909375 -0.7275,1.616665 -1.61667,1.616665 -0.88916,0 -1.61666,-0.70729 -1.61666,-1.616665 0,-0.889167 0.7275,-1.616668 1.61666,-1.616668 z m 0,-0.202083 c -1.01041,0 -1.81874,0.808333 -1.81874,1.818751 0,1.010417 0.80833,1.838957 1.81874,1.838957 1.01042,0 1.83896,-0.82854 1.83896,-1.838957 v 0 c 0,-1.010418 -0.82854,-1.818751 -1.83896,-1.818751 z"
       id="path22491" />
    <path
       style="fill:#000000;fill-opacity:1;fill-rule:nonzero;stroke:none;stroke-width:0.264583"
       d="m -52.620207,36.394375 c 0.88917,0 1.61666,0.727501 1.61666,1.616668 v 0 c 0,0.909375 -0.72749,1.616665 -1.61666,1.616665 -0.90938,0 -1.61667,-0.70729 -1.61667,-1.616665 0,-0.889167 0.70729,-1.616668 1.61667,-1.616668 z m 0,-0.202083 c -1.01042,0 -1.83896,0.808333 -1.83896,1.818751 0,1.010417 0.82854,1.838957 1.83896,1.838957 1.01041,0 1.81875,-0.82854 1.81875,-1.838957 v 0 c 0,-1.010418 -0.80834,-1.818751 -1.81875,-1.818751 z"
       id="path22493" />
    <path
       style="fill:#000000;fill-opacity:1;fill-rule:nonzero;stroke:none;stroke-width:0.264583"
       d="m 15.279793,60.826251 c 0.88917,0 1.61666,0.727499 1.61666,1.616665 v 0 c 0,0.889167 -0.72749,1.616668 -1.61666,1.616668 -0.88917,0 -1.61667,-0.727501 -1.61667,-1.616668 0,-0.889166 0.7275,-1.616665 1.61667,-1.616665 z m 0,-0.222292 c -1.01042,0 -1.83896,0.82854 -1.83896,1.838957 0,1.010418 0.82854,1.83896 1.83896,1.83896 1.01042,0 1.83896,-0.828542 1.83896,-1.83896 v 0 c 0,-1.010417 -0.82854,-1.838957 -1.83896,-1.838957 z"
       id="path22495" />
    <path
       style="fill:#000000;fill-opacity:1;fill-rule:nonzero;stroke:none;stroke-width:0.264583"
       d="m 83.321243,85.581459 c 0.88916,0 1.61669,0.727498 1.61669,1.616665 v 0 c 0,0.889167 -0.72753,1.616668 -1.61669,1.616668 -0.88916,0 -1.61665,-0.727501 -1.61665,-1.616668 0,-0.889167 0.72749,-1.616665 1.61665,-1.616665 z m 0,-0.222292 c -1.01041,0 -1.83896,0.828542 -1.83896,1.838957 0,1.010417 0.82855,1.83896 1.83896,1.83896 1.01042,0 1.83896,-0.828543 1.83896,-1.83896 v 0 c 0,-1.010415 -0.82854,-1.838957 -1.83896,-1.838957 z"
       id="path22497" />
    <path
       style="fill:#000000;fill-opacity:1;fill-rule:nonzero;stroke:none;stroke-width:0.264583"
       d="m 153.16124,119.69313 c 0.88916,0 1.61668,0.7275 1.61668,1.61667 v 0 c 0,0.90937 -0.72752,1.61666 -1.61668,1.61666 -0.90937,0 -1.61666,-0.70729 -1.61666,-1.61666 0,-0.88917 0.70729,-1.61667 1.61666,-1.61667 z m 0,-0.20209 c -1.01042,0 -1.83896,0.80834 -1.83896,1.81876 0,1.03062 0.82854,1.83895 1.83896,1.83895 1.01042,0 1.81875,-0.80833 1.81875,-1.83895 v 0 c 0,-1.01042 -0.80833,-1.81876 -1.81875,-1.81876 z"
       id="path22499" />
    <path
       style="fill:#000000;fill-opacity:1;fill-rule:nonzero;stroke:none;stroke-width:0.264583"
       d="m 218.93938,167.20292 c 0.88916,0 1.61666,0.7275 1.61666,1.61667 v 0 c 0,0.88916 -0.7275,1.61666 -1.61666,1.61666 -0.9094,0 -1.61668,-0.7275 -1.61668,-1.61666 0,-0.88917 0.70728,-1.61667 1.61668,-1.61667 z m 0,-0.20208 c -1.03063,0 -1.83896,0.80833 -1.83896,1.81875 0,1.01041 0.80833,1.83896 1.83896,1.83896 1.01042,0 1.81875,-0.82855 1.81875,-1.83896 v 0 c 0,-1.01042 -0.80833,-1.81875 -1.81875,-1.81875 z"
       id="path22501" />
    <path
       style="fill:#000000;fill-opacity:1;fill-rule:nonzero;stroke:none;stroke-width:0.264583"
       d="m 289.64833,240.98355 c 0.90937,0 1.61665,0.70729 1.61665,1.61666 v 0 c 0,0.88917 -0.70728,1.61667 -1.61665,1.61667 -0.88916,0 -1.61666,-0.7275 -1.61666,-1.61667 0,-0.90937 0.7275,-1.61666 1.61666,-1.61666 z m 0,-0.2223 c -1.01042,0 -1.81875,0.80834 -1.81875,1.83896 0,1.01042 0.80833,1.81875 1.81875,1.81875 1.01041,0 1.83896,-0.80833 1.83896,-1.81875 v 0 c 0,-1.03062 -0.82855,-1.83896 -1.83896,-1.83896 z"
       id="path22503" />
    <path
       style="fill:none;stroke:#000000;stroke-width:1.29333px;stroke-linecap:butt;stroke-linejoin:round;stroke-miterlimit:4;stroke-dasharray:none;stroke-opacity:1"
       d="m -122.25813,24.289584 0.42438,0.02021 0.40417,0.04041 0.40416,0.04042 0.42438,0.04041 0.40416,0.04042 0.42438,0.02021 0.40417,0.04041 0.40416,0.04042 0.42438,0.04041 0.40416,0.04042 0.40417,0.04042 0.42438,0.04042 0.40416,0.04042 0.42438,0.04041 0.40417,0.04042 0.40416,0.04042 0.42438,0.04042 0.40416,0.04042 0.42438,0.04041 0.40417,0.04042 0.40416,0.04042 0.42438,0.04042 0.40416,0.04042 0.40417,0.04042 0.42438,0.06063 0.40416,0.04041 0.42438,0.04042 0.40416,0.04042 0.40417,0.04042 0.42438,0.06062 0.40416,0.04042 0.42438,0.04042 0.40416,0.06062 0.40417,0.04042 0.42438,0.04042 0.40416,0.06063 0.40417,0.04042 0.42437,0.04042 0.40417,0.06062 0.42437,0.04042 0.40417,0.06062 0.40417,0.04042 0.42437,0.06062 0.40417,0.04042 0.42437,0.06062 0.40417,0.04042 0.40416,0.06062 0.42438,0.04042 0.40417,0.06062 0.40416,0.04042 0.42438,0.06062 0.40416,0.06062 0.42438,0.04042 0.40417,0.06062 0.404163,0.06063 0.42438,0.04042 0.40416,0.06063 0.40417,0.06062 0.42438,0.06063 0.40416,0.04041 0.42438,0.06063 0.40416,0.06062 0.40417,0.06062 0.42438,0.06063 0.40416,0.06062 0.42438,0.04042 0.40417,0.06062 0.40416,0.06062 0.42438,0.06063 0.40416,0.06062 0.40417,0.06063 0.42438,0.06062 0.40416,0.06062 0.42438,0.06063 0.40416,0.06062 0.40417,0.06063 0.42438,0.06062 0.40416,0.06062 0.42438,0.08083 0.40416,0.06063 0.40417,0.06062 0.42438,0.06063 0.40416,0.06062 0.40417,0.06062 0.42437,0.08084 0.40417,0.06062 0.42438,0.06062 0.40416,0.06063 0.40417,0.08083 0.42437,0.06062 0.40417,0.06063 0.42437,0.08083 0.40417,0.06062 0.40417,0.06063 0.42437,0.08083 0.40417,0.06062 0.40417,0.08083 0.42437,0.06063 0.40417,0.08083 0.42437,0.06062 0.40417,0.08084 0.40417,0.06062 0.42437,0.08083 0.40417,0.06062 0.42437,0.08084 0.40417,0.06062 0.40417,0.08083 0.42437,0.08083 0.40417,0.06063 0.40416,0.08083 0.42438,0.08083 0.40417,0.06063 0.42437,0.08083 0.40417,0.08083 0.40416,0.06062 0.42438,0.08083 0.40417,0.08084 0.40416,0.08083 0.42438,0.08083 0.40416,0.06062 0.42438,0.08084 0.40417,0.08083 0.40416,0.08083 0.42438,0.08083 0.40417,0.08083 0.42437,0.08083 0.40417,0.08084 0.40416,0.08083 0.42438,0.08083 0.40417,0.08083 0.40416,0.08083 0.42438,0.08084 0.40416,0.08083 0.42438,0.08083 0.40417,0.08083 0.40416,0.08083 0.42438,0.08083 0.40416,0.08084 0.42438,0.101042 0.40417,0.08083 0.40416,0.08083 0.42438,0.08083 0.40416,0.08083 0.40417,0.101042 0.42438,0.08084 0.40416,0.08083 0.42438,0.101042 0.40416,0.08083 0.40417,0.08083 0.42437,0.101041 0.40417,0.08083 0.42438,0.08083 0.40416,0.101042 0.40417,0.08084 0.42437,0.101039 0.40417,0.08084 0.40417,0.101042 0.42437,0.08083 0.40417,0.101042 0.42437,0.08083 0.40417,0.101042 0.40417,0.08083 0.42437,0.101041 0.40417,0.08083 0.40417,0.101042 0.42437,0.101042 0.40417,0.08083 0.42437,0.101042 0.40417,0.101042 h 0.0202 l 0.38396,0.101042 0.42437,0.08084 0.40417,0.101042 0.42437,0.101042 0.40417,0.101039 0.40417,0.08084 0.42437,0.101042 0.40417,0.101042 0.40416,0.101041 0.42438,0.101042 0.40417,0.101042 0.42437,0.08083 0.40417,0.101041 0.40417,0.101042 0.42437,0.101042 0.40417,0.101042 0.42437,0.101041 0.40417,0.101042 0.40417,0.101042 0.42437,0.101042 0.40417,0.101041 0.40416,0.121248 0.42438,0.101042 0.40417,0.101042 0.42437,0.101041 0.40417,0.101042 0.40416,0.101042 0.42438,0.101042 0.40417,0.12125 0.42437,0.101042 0.40417,0.101042 0.40416,0.101041 0.42438,0.121251 0.40416,0.101042 0.40417,0.101041 0.42438,0.121248 0.40416,0.101042 0.42438,0.101042 0.40416,0.12125 0.40417,0.101042 0.42438,0.101042 0.40416,0.121251 0.40417,0.101041 0.42437,0.121251 0.40417,0.101042 0.42438,0.121248 0.40416,0.101041 0.40417,0.121251 0.42437,0.101042 0.40417,0.12125 0.42438,0.121251 0.40416,0.101042 0.40417,0.121248 0.42437,0.101041 0.40417,0.121251 0.40417,0.12125 0.42437,0.101042 0.40417,0.121251 0.42438,0.121248 0.40416,0.12125 0.40417,0.101042 0.42437,0.121251 0.40417,0.12125 0.42438,0.121248 0.40416,0.121251 0.40417,0.101042 0.42437,0.12125 0.40417,0.121251 0.40417,0.121248 0.42437,0.12125 0.40417,0.121251 0.42437,0.121251 0.40417,0.12125 0.40417,0.121248 0.42437,0.121251 0.40417,0.12125 0.42437,0.121251 0.40417,0.121248 0.40417,0.121251 0.42437,0.12125 0.40417,0.121251 0.40417,0.141457 0.42437,0.12125 0.40417,0.121251 0.42437,0.12125 0.40417,0.121248 0.40417,0.121251 0.42437,0.141459 0.40417,0.121248 0.40416,0.121251 0.42438,0.141459 0.40416,0.121251 0.42438,0.121248 0.40417,0.141459 0.40416,0.121251 0.42438,0.121248 0.40416,0.14146 0.42438,0.12125 0.40417,0.141457 0.40416,0.121251 0.42438,0.12125 0.40416,0.141457 0.40417,0.121251 0.4243803,0.141459 0.40416,0.141457 0.42438,0.121251 0.40416,0.141459 0.40417,0.121251 0.42438,0.141456 0.40416,0.121251 0.42438,0.141457 0.40416,0.141459 0.40417,0.121251 0.42438,0.141457 0.40416,0.141459 0.40417,0.141457 0.42438,0.121251 0.40416,0.141459 0.42438,0.141457 0.40416,0.14146 0.40417,0.141456 0.42438,0.121251 0.40416,0.141459 0.42438,0.141457 0.40416,0.14146 0.40417003,0.141459 0.42438,0.141457 0.40416,0.14146 0.40417,0.141456 0.42437,0.14146 0.40416997,0.141457 0.42438,0.141459 0.40416,0.14146 0.40417,0.141456 0.42437,0.14146 0.40417,0.141457 0.40417,0.141459 0.42437,0.141457 0.40417,0.14146 0.42437,0.141456 0.40417,0.161669 0.40417,0.141457 0.42437,0.141459 0.40417,0.14146 0.42437,0.141456 0.40417,0.161666 0.40417,0.14146 0.42437,0.141459 0.40417,0.161666 0.40416,0.141459 0.42438,0.141457 0.40417,0.161666 0.4243697,0.141459 0.40417,0.14146 0.40416,0.161665 0.42438,0.14146 0.40417,0.161666 0.42437,0.141456 0.40417,0.161669 0.40416,0.141457 0.42438,0.161668 0.40417,0.141457 0.40416,0.161668 0.42438,0.141457 0.36375,0.14146 0.0404,0.02021 0.42438,0.161666 0.40417,0.14146 0.40416,0.161665 0.42438,0.161666 0.40417,0.141459 0.42437,0.161666 0.40417,0.161669 0.40416,0.141456 0.42438,0.161666 0.40417,0.161668 0.40416,0.161666 0.42438,0.161668 0.40416,0.141457 0.42438,0.161666 0.40417,0.161668 0.40416,0.161666 0.42438,0.161668 0.40416,0.161666 0.40417,0.161666 0.42438,0.161668 0.40416,0.161666 0.42438,0.161666 0.40416,0.161668 0.40417,0.161666 0.42438,0.161665 0.40416,0.161669 0.42438,0.161665 0.40416,0.161669 0.40417,0.161666 0.42437,0.161665 0.40417,0.161669 0.40417,0.161665 0.42437,0.161666 0.40417,0.181877 0.42437,0.161666 0.40417,0.161666 0.40417,0.161668 0.42437,0.181875 0.40417,0.161665 0.42437,0.161666 0.40417,0.161668 0.40417,0.181875 0.42437,0.161666 0.40417,0.181877 0.40417,0.161666 0.42437,0.161665 0.40417,0.181875 0.42437,0.161668 0.40417,0.181875 0.40417,0.161666 0.42437,0.181874 0.40417,0.161668 0.42437,0.181875 0.40417,0.161666 0.40417,0.181874 0.42437,0.161669 0.40417,0.181874 0.40416,0.161666 0.42438,0.181877 0.40417,0.181875 0.42437,0.161666 0.40417,0.181874 0.40417,0.181875 0.42437,0.181877 0.40417,0.161666 0.42437,0.181874 0.40417,0.181875 0.40417,0.181874 0.42437,0.161669 0.40417,0.181874 0.40416,0.181875 0.42438,0.181874 0.40417,0.181875 0.42437,0.181877 0.40417,0.181875 0.40416,0.181874 0.42438,0.161666 0.40417,0.181875 0.40416,0.181877 0.42438,0.181875 0.40416,0.181874 0.42438,0.181875 0.40416,0.181874 0.40417,0.202084 0.42438,0.181874 0.40416,0.181875 0.42438,0.181877 0.40416,0.181875 0.40417,0.181874 0.42438,0.181875 0.40416,0.202083 0.40417,0.181875 0.42437,0.181875 0.40417,0.181874 0.42438,0.181877 0.40416,0.202084 0.40417,0.181874 0.42437,0.181875 0.40417,0.202083 0.42438,0.181875 0.40416,0.181875 0.40417,0.202083 0.42437,0.181875 0.40417,0.202083 0.40417,0.181875 0.42437,0.202083 0.40417,0.181875 0.42438,0.181877 0.40416,0.202083 0.40418,0.202084 0.42436,0.181874 0.40418,0.202084 0.42436,0.181874 0.40418,0.202084 0.40415,0.181875 0.42439,0.202083 0.40415,0.202083 0.40418,0.181875 0.42437,0.202083 0.40417,0.202084 0.42437,0.181875 0.40418,0.202083 0.40415,0.202083 0.42439,0.202084 0.40415,0.202083 0.40418,0.181875 0.42436,0.202083 0.40418,0.202084 0.42437,0.202083 0.40417,0.202084 0.40415,0.202083 0.4244,0.202084 0.40415,0.181874 0.42439,0.202084 0.40415,0.202083 0.40418,0.202084 0.42436,0.202083 0.40418,0.202084 0.40415,0.202083 0.42439,0.202083 0.40415,0.22229 0.4244,0.202084 0.40415,0.202083 0.40417,0.202084 0.42437,0.202083 0.40418,0.202083 0.42436,0.202084 0.40418,0.222292 0.40415,0.202084 0.42439,0.202083 0.40415,0.202084 0.40418,0.202083 0.42437,0.22229 0.40417,0.202083 0.42437,0.202084 0.40418,0.222292 0.40417,0.202083 0.42437,0.202084 0.40415,0.222292 0.42439,0.202084 0.40415,0.222289 0.40418,0.202084 0.42437,0.222292 0.40417,0.202084 0.40418,0.202083 0.0404,0.02021 0.38397,0.202083 0.40417,0.22229 0.42437,0.202084 0.40418,0.222292 0.40415,0.202083 0.42436,0.222293 0.40418,0.202083 0.40418,0.222293 0.42436,0.222289 0.40418,0.202084 0.42437,0.222292 0.40417,0.222292 0.40415,0.202084 0.4244,0.222289 0.40415,0.222293 0.42436,0.222292 0.40418,0.222292 0.40418,0.202084 0.42436,0.22229 0.40418,0.222292 0.40415,0.222292 0.42439,0.222293 0.40415,0.222289 0.42439,0.222293 0.40416,0.202083 0.40417,0.222292 0.42437,0.222293 0.40418,0.222289 0.42436,0.222293 0.40418,0.222289 0.40415,0.22229 0.42439,0.22229 0.40415,0.24251 0.40418,0.22229 0.42437,0.22229 0.40417,0.22229 0.42437,0.22229 0.40418,0.22229 0.40415,0.22229 0.42439,0.24251 0.404147,0.22229 0.42439,0.22229 0.40415,0.22229 0.40418,0.22229 0.42436,0.2425 0.40418,0.22229 0.40415,0.2223 0.42439,0.24249 0.40416,0.2223 0.42439,0.22229 0.40415,0.2425 0.40418,0.22229 0.42436,0.2425 0.40418,0.22229 0.40415,0.2425 0.42439,0.22229 0.40415,0.2425 0.42439,0.22229 0.40416,0.24251 0.40417,0.22229 0.42437,0.2425 0.40418,0.22229 0.42436,0.242503 0.40418,0.22229 0.40415,0.2425 0.42439,0.2425 0.40415,0.22229 0.40418,0.2425 0.42436,0.2425 0.40418,0.2425 0.42437,0.22229 0.40417,0.2425 0.40418,0.2425 0.42437,0.2425 0.40415,0.2223 0.42439,0.24249 0.40415,0.24251 0.40418,0.24249 0.42436,0.24251 0.40418,0.24249 0.40418,0.24251 0.42436,0.24249 0.40418,0.24251 0.42437,0.22229 0.40417,0.2425 0.40416,0.2425 0.42436,0.2425 0.40418,0.26271 0.42436,0.24249 0.40418,0.24251 0.40418,0.24249 0.42436,0.24251 0.40418,0.24249 0.40415,0.24251 0.42439,0.24249 0.40415,0.2425 0.42437,0.26271 0.40418,0.2425 0.40418,0.2425 0.42436,0.2425 0.40418,0.26271 0.40415,0.2425 0.42439,0.2425 0.40415,0.26271 0.42439,0.2425 0.40415,0.2425 0.40418,0.26271 0.42437,0.2425 0.40417,0.2425 0.42437,0.26271 0.40418,0.2425 0.40415,0.2627 0.42439,0.2425 0.40415,0.26271 0.40418,0.2425 0.42436,0.26271 0.40418,0.2425 0.42437,0.26271 0.40417,0.2425 0.40415,0.26271 0.4244,0.26271 0.40415,0.2425 0.42439,0.2627 0.40415,0.26271 0.40418,0.2425 0.42436,0.26271 0.40418,0.26271 0.40415,0.2425 0.42439,0.26271 0.40415,0.26271 0.4244,0.2627 0.40415,0.26271 0.40417,0.2425 0.42437,0.26271 0.40418,0.26271 0.42436,0.26271 0.40418,0.26271 0.40415,0.26271 0.42439,0.2627 0.40415,0.26271 0.40418,0.26271 0.42437,0.26271 0.40417,0.26271 0.42437,0.26271 0.40418,0.2627 0.40415,0.26271 0.42439,0.26271 0.40415,0.26271 0.40418,0.26271 0.42436,0.26271 0.40418,0.2627 0.42437,0.26271 0.40417,0.28292 0.40418,0.26271 0.42437,0.2627 0.40415,0.26271 0.42439,0.28292 0.40415,0.26271 0.40418,0.26271 0.42436,0.26271 0.40418,0.28291 0.40418,0.26271 0.42436,0.26271 0.40418,0.28292 0.42437,0.2627 0.40417,0.28292 0.40415,0.26271 0.42437,0.26271 0.40418,0.28291 0.2627,0.16167 0.16166,0.10104 0.40418,0.28292 0.40418,0.26271 0.42436,0.28291 0.40418,0.26271 0.40415,0.28292 0.42439,0.28292 0.40415,0.2627 0.42437,0.28292 0.40418,0.26271 0.40417,0.28292 0.42437,0.28291 0.40418,0.26271 0.42436,0.28292 0.40418,0.28291 0.40415,0.28292 0.42439,0.26271 0.40415,0.28291 0.40418,0.28292 0.42437,0.28292 0.40417,0.28291 0.42437,0.26271 0.40418,0.28292 0.40415,0.28292 0.42439,0.28291 0.40415,0.28292 0.42439,0.28292 0.40415,0.28291 0.40418,0.28292 0.42436,0.28292 0.40418,0.28291 0.40415,0.28292 0.42439,0.28292 0.40416,0.28291 0.42439,0.28292 0.40415,0.28292 0.40418,0.28291 0.42436,0.28292 0.40418,0.30313 0.40415,0.28291 0.42439,0.28292 0.40415,0.28291 0.42439,0.28292 0.40416,0.30313 0.40417,0.28291 0.42437,0.28292 0.40418,0.28292 0.42436,0.30312 0.40418,0.28292 0.40415,0.28292 0.42439,0.30312 0.40415,0.28292 0.40418,0.28291 0.42436,0.30313 0.40418,0.28291 0.42437,0.30313 0.40417,0.28292 0.40416,0.30312 0.42439,0.28292 0.40415,0.30312 0.42439,0.28292 0.40415,0.30312 0.40418,0.28292 0.42436,0.30313 0.40418,0.28291 0.40418,0.30313 0.42436,0.30312 0.40416,0.28292 0.42439,0.30312 0.40415,0.30313 0.40418,0.28292 0.42436,0.30312 0.40418,0.30313 0.42436,0.30312 0.40418,0.28292 0.40418,0.30312 0.42436,0.30313 0.40418,0.30312 0.40415,0.30313 0.42437,0.30312 0.40417,0.30313 0.42437,0.28291 0.40418,0.30313 0.40418,0.30313 0.42436,0.30312 0.40418,0.30313 0.40415,0.30312 0.42439,0.30313 0.40415,0.30312 0.42437,0.30313 0.40417,0.30312 0.40418,0.30312 0.42437,0.30313 0.40417,0.32333 0.42437,0.30313 0.40418,0.30312 0.40415,0.30313 0.42439,0.30312 0.40415,0.30313 0.40418,0.32333 0.42436,0.30313 0.40418,0.30312 0.42437,0.30313 0.40417,0.32333 0.40415,0.30313 0.4244,0.30312 0.40415,0.32333 0.42439,0.30313 0.40415,0.30312 0.40418,0.32334 0.42436,0.30312 0.40418,0.32334 0.40415,0.30312 0.42439,0.32333 0.40415,0.30313 0.4244,0.30312 0.40415,0.32334 0.40417,0.32333 0.42437,0.30313 0.40418,0.32333 0.42436,0.30312 0.40418,0.32334 0.40415,0.30312 0.42439,0.32334 0.40415,0.32333 0.40418,0.30312 0.42437,0.32334 0.40417,0.32333 0.42437,0.32333 0.40418,0.30313 0.40415,0.32333 0.42439,0.32334 0.40415,0.32333 0.40418,0.30312 0.42436,0.32334 0.40418,0.32333 0.42437,0.32333 0.40417,0.32334 0.40415,0.32333 0.4244,0.32333 0.40415,0.32334 0.42439,0.32333 0.40415,0.32333 0.40418,0.32334 0.42436,0.32333 0.40418,0.32333 0.40418,0.32334 0.42436,0.32333 0.40415,0.32333 0.4244,0.32334 0.40415,0.32333 0.40417,0.32333 0.42437,0.32334 0.40418,0.32333 0.42436,0.34354 0.40418,0.32333 0.40418,0.32334 0.42436,0.32333 0.40418,0.34354 0.40415,0.32334 0.14147,0.10104 0.2829,0.22229 0.40417,0.32333 0.42437,0.34355 0.40418,0.32333 0.40417,0.32333 0.42437,0.34354 0.40418,0.32334 0.42436,0.34354 0.40418,0.32333 0.40415,0.32334 0.42437,0.34354 0.40417,0.32333 0.40418,0.34354 0.42437,0.32333 0.40417,0.34355 0.42437,0.34354 0.40418,0.32333 0.40415,0.34354 0.42439,0.32334 0.40415,0.34354 0.40418,0.34354 0.42436,0.32333 0.40418,0.34354 0.42436,0.34355 0.40418,0.32333 0.40415,0.34354 0.42439,0.34354 0.40416,0.34354 0.42439,0.32334 0.40415,0.34354 0.40418,0.34354 0.42436,0.34354 0.40418,0.34355 0.40415,0.32333 0.42439,0.34354 0.40415,0.34354 0.42439,0.34354 0.40416,0.34355 0.40417,0.34354 0.42437,0.34354 0.40418,0.34354 0.42436,0.34354 0.40418,0.34354 0.40415,0.34355 0.42439,0.34354 0.40415,0.34354 0.40418,0.34354 0.42436,0.34354 0.40418,0.36375 0.42437,0.34354 0.40417,0.34354 0.40416,0.34355 0.42439,0.34354 0.40415,0.36375 0.42439,0.34354 0.40415,0.34354 0.40418,0.34354 0.42436,0.36375 0.40418,0.34354 0.40415,0.34355 0.42439,0.36375 0.40416,0.34354 0.42439,0.34354 0.40415,0.36375 0.40418,0.34354 0.42436,0.36375 0.40418,0.34354 0.40418,0.34354 0.42436,0.36375 0.40415,0.34355 0.42439,0.36375 0.40415,0.34354 0.40418,0.36375 0.42437,0.36375 0.40417,0.34354 0.42437,0.36375 0.40418,0.34354 0.40418,0.36375 0.42436,0.36375 0.40418,0.34354 0.40415,0.36375 0.42436,0.36375 0.40418,0.36375 0.42437,0.34354 0.40417,0.36376 0.40418,0.36374 0.42437,0.36375 0.40417,0.34355 0.42437,0.36375 0.40418,0.36375 0.40415,0.36375 0.42436,0.36375 0.40418,0.36375 0.40418,0.36375 0.42436,0.36375 0.40418,0.36375 0.42437,0.36375 0.40417,0.36375 0.40415,0.36375 0.4244,0.36375 0.40415,0.36375 0.42439,0.36375 0.40415,0.36375 0.40418,0.36375 0.42436,0.36375 0.40418,0.36375 0.40415,0.36375 0.42439,0.36375 0.40415,0.38395 0.4244,0.36376 0.40415,0.36375 0.40417,0.36374 0.42437,0.38396 0.40418,0.36375 0.40415,0.36375 0.42439,0.36375 0.40415,0.38396 0.42439,0.36375 0.40415,0.36375 0.40418,0.38396 0.42437,0.36375 0.40417,0.38396 0.42437,0.36375 0.40418,0.38396 0.40415,0.36375 0.42439,0.36375 0.40415,0.38396 0.40418,0.36374 0.42436,0.38396 0.40418,0.38396 0.42437,0.36375 0.40417,0.38396 0.40415,0.36375 0.4244,0.38396 0.40415,0.38396 0.42439,0.36375 0.40415,0.38396 0.40418,0.38395 0.42436,0.36375 0.40418,0.38396 0.40415,0.38396 0.42439,0.38396 0.40415,0.36375 0.4244,0.38396 0.40415,0.38396 0.40417,0.38395 0.42437,0.38396 0.40418,0.38396 0.42436,0.36375 0.40418,0.38396 0.40415,0.38396 0.42439,0.38396 0.40415,0.38395 0.40418,0.38396 0.42437,0.38396 0.40417,0.38396 0.42437,0.38396 0.40418,0.38396 0.40417,0.38395 0.42437,0.38396 0.40418,0.38396 0.42436,0.40417 0.40415,0.38396 0.40418,0.38395 0.42437,0.38396 0.40417,0.38396 0.40418,0.38396 0.42437,0.40416 0.40417,0.38396 0.42437,0.38396 0.40418,0.38396 0.40415,0.40417"
       id="path22505" />
    <path
       style="fill:#000000;fill-opacity:1;fill-rule:nonzero;stroke:none;stroke-width:0.264583"
       d="m -116.59979,183.67271 h 0.40417 2.1825 l -0.0202,-1.29333 h -2.1825 -0.40417 z m 3.88,-0.0202 3.395,-0.0202 1.77833,-0.0202 -0.0202,-1.29334 -1.77833,0.0202 -3.395,0.0202 z m 6.46667,-0.0404 2.58666,-0.0404 -0.0202,-1.29333 -2.58666,0.0404 z m 3.87999,-0.0404 5.173333,-0.0808 -0.0202,-1.29334 -5.173343,0.0808 z m 6.466673,-0.10104 h 0.32333 l 2.26334,-0.0404 -0.0202,-1.29333 -2.26334,0.0404 h -0.32334 z m 3.88,-0.0606 3.33437,-0.0606 1.83896,-0.0404 -0.0202,-1.29333 -1.85916,0.0404 -3.31417,0.0606 z m 6.46666,-0.12125 2.58667,-0.0606 -0.0202,-1.29333 -2.58666,0.0606 z m 3.88,-0.0808 5.17334,-0.14146 -0.0404,-1.29333 -5.17333,0.14146 z m 6.46667,-0.16167 0.26271,-0.0202 2.32396,-0.0606 -0.0404,-1.29333 -2.32396,0.0606 -0.2627,0.0202 z m 3.88,-0.12125 3.25354,-0.10104 1.9198,-0.0606 -0.0404,-1.29334 -1.91979,0.0606 -3.25354,0.10104 z m 6.46667,-0.20208 2.58667,-0.0808 -0.0404,-1.29334 -2.58667,0.0808 z m 3.88,-0.12125 5.17333,-0.20208 -0.0606,-1.29334 -5.15313,0.20209 z m 6.46667,-0.2425 h 0.20208 l 2.38458,-0.10104 -0.0606,-1.29333 -2.38459,0.10104 h -0.20208 z m 3.88,-0.16167 3.19291,-0.12125 1.98042,-0.10104 -0.0606,-1.29333 -1.98041,0.10104 -3.19292,0.12125 z m 6.46666,-0.28291 2.56646,-0.10104 -0.0404,-1.29334 -2.58666,0.10104 z m 3.88,-0.16167 5.15313,-0.26271 -0.0606,-1.29333 -5.17333,0.26271 z m 6.44646,-0.32333 h 0.16167 l 2.425,-0.12125 -0.0606,-1.29334 -2.44521,0.12125 h -0.14146 z m 3.88,-0.20209 3.1525,-0.16166 2.02083,-0.12125 -0.0808,-1.29334 -2.02083,0.12125 -3.13229,0.16167 z m 6.46667,-0.34354 2.56646,-0.16166 -0.0606,-1.27313 -2.58667,0.14146 z m 3.85979,-0.22229 5.17333,-0.32333 -0.0808,-1.27313 -5.15313,0.30313 z m 6.46666,-0.38396 0.10105,-0.0202 2.48562,-0.16166 -0.0808,-1.29334 -2.48563,0.16167 -0.10104,0.0202 z m 3.8800103,-0.26271 3.09187,-0.20208 2.06125,-0.14146 -0.0808,-1.27312 -2.06125,0.14145 -3.11209,0.18188 z m 6.44645,-0.42437 2.58667003,-0.18188 -0.10104,-1.27312 -2.56646003,0.16167 z m 3.88,-0.26271 5.15313,-0.36375 -0.10104,-1.29333 -5.15312997,0.36375 z m 6.44646,-0.46479 h 0.0808 l 2.5058397,-0.20208 -0.1010397,-1.29334 -2.50584,0.20209 h -0.0808 z m 3.8597897,-0.30313 3.09188,-0.22229 2.08146,-0.16166 -0.10105,-1.29334 -2.08145,0.16167 -3.07167,0.2425 z m 6.46667,-0.485 2.56646,-0.22229 -0.10104,-1.27312 -2.58667,0.20208 z m 3.85979,-0.32333 5.15313,-0.42438 -0.10104,-1.29333 -5.15313,0.42438 z m 6.44646,-0.54562 h 0.0808 l 2.50584,-0.2223 -0.12125,-1.27312 -2.50584,0.20208 -0.0606,0.0202 z m 3.85979,-0.32334 3.09188,-0.28291 2.06125,-0.18188 -0.10104,-1.29333 -2.08146,0.20208 -3.07167,0.26271 z m 6.44646,-0.58604 2.58667,-0.22229 -0.12125,-1.29334 -2.58667,0.2223 z m 3.85979,-0.34354 5.15313,-0.50521 -0.12125,-1.27313 -5.15313,0.485 z m 6.44646,-0.62646 h 0.0808 l 2.50584,-0.2425 -0.14146,-1.29333 -2.48563,0.2425 h -0.0808 z m 3.85979,-0.38396 3.11208,-0.30312 2.04105,-0.20209 -0.14146,-1.29333 -2.04104,0.20208 -3.09188,0.32334 z m 6.44646,-0.64667 2.56645,-0.2627 -0.14144,-1.29334 -2.56647,0.26271 z m 3.85979,-0.40416 5.13292,-0.54563 -0.14145,-1.29333 -5.13292,0.56583 z m 6.42625,-0.68709 0.12126,-0.0202 2.4452,-0.26271 -0.14147,-1.29334 -2.4452,0.28292 h -0.12126 z m 3.8598,-0.42437 3.13229,-0.34354 2.00062,-0.2425 -0.14147,-1.27313 -2.00062,0.22229 -3.13229,0.34355 z m 6.42625,-0.7275 2.56646,-0.30312 -0.14147,-1.27313 -2.56646,0.28292 z m 3.8598,-0.44458 5.13291,-0.60625 -0.14147,-1.29334 -5.15313,0.60625 z m 6.42622,-0.76792 0.1819,-0.0202 2.38456,-0.28292 -0.16166,-1.29333 -2.38458,0.30313 -0.18188,0.0202 z m 3.83961,-0.46479 3.21313,-0.40417 1.91979,-0.2425 -0.16169,-1.27312 -1.91979,0.2425 -3.21313,0.38396 z m 6.426227,-0.80834 2.56645,-0.32333 -0.16166,-1.27312 -2.566457,0.32333 z m 3.85979,-0.48499 5.11273,-0.66688 -0.16169,-1.27312 -5.13291,0.66687 z m 6.40604,-0.82855 0.28292,-0.0404 2.28354,-0.30313 -0.18188,-1.29333 -2.28354,0.32333 -0.2627,0.0202 z m 3.83961,-0.52541 3.31414,-0.44459 1.81877,-0.2425 -0.18187,-1.29333 -1.81877,0.26271 -3.29396,0.44458 z m 6.40603,-0.86896 2.56646,-0.34354 -0.18187,-1.29334 -2.54627,0.36375 z m 3.8598,-0.52542 5.1127,-0.7275 -0.18187,-1.29333 -5.11271,0.7275 z m 6.40604,-0.90937 0.38396,-0.0606 2.16228,-0.32333 -0.18187,-1.27313 -2.16228,0.32334 -0.38397,0.0404 z m 3.83958,-0.56584 3.41521,-0.5052 1.69749,-0.24251 -0.18187,-1.29333 -1.69749,0.26271 -3.43543,0.50521 z m 6.38582,-0.94979 2.56646,-0.38396 -0.20209,-1.27312 -2.54624,0.38396 z m 3.83958,-0.56583 0.0808,-0.0202 5.03188,-0.76792 -0.18188,-1.27312 -5.05206,0.76791 h -0.0606 z m 6.40604,-0.99021 0.54563,-0.0808 2.00064,-0.32334 -0.20209,-1.27312 -2.00062,0.32333 -0.54562,0.0808 z m 3.81939,-0.60625 3.59707,-0.56583 1.51564,-0.2425 -0.20209,-1.27313 -1.51561,0.2425 -3.59709,0.56583 z m 6.40604,-1.01042 2.54625,-0.42437 -0.20209,-1.27313 -2.56646,0.42438 z m 3.81937,-0.62645 0.24252,-0.0404 4.87018,-0.78813 -0.22227,-1.29333 -4.85,0.80833 -0.24252,0.0404 z m 6.38582,-1.05084 0.74772,-0.12125 1.79855,-0.30312 -0.20208,-1.27313 -1.81875,0.30313 -0.74771,0.12125 z m 3.8194,-0.64667 3.79915,-0.64666 1.31355,-0.22229 -0.2223,-1.27313 -1.31353,0.22229 -3.77896,0.64667 z m 6.38582,-1.09125 2.54625,-0.44458 -0.22228,-1.27312 -2.54625,0.44458 z m 3.81937,-0.66687 0.46479,-0.0808 4.62772,-0.80834 -0.2223,-1.27312 -4.6277,0.80833 -0.46479,0.0808 z m 6.36563,-1.11146 0.96999,-0.18187 1.59647,-0.28292 -0.24249,-1.27312 -1.57625,0.28291 -0.97002,0.18188 z m 3.81937,-0.68708 4.04167,-0.7275 1.05085,-0.20209 -0.22231,-1.27312 -1.07103,0.20208 -4.02146,0.7275 z m 6.36564,-1.17208 2.54624,-0.4648 -0.22227,-1.27312 -2.54628,0.46479 z m 3.81936,-0.7073 0.7275,-0.12125 4.36502,-0.82854 -0.24252,-1.27312 -4.36499,0.82854 -0.70728,0.12125 z m 6.36564,-1.19229 1.23269,-0.2425 1.31355,-0.2425 -0.24249,-1.27312 -1.31355,0.2425 -1.23272,0.2425 z m 3.81937,-0.7275 4.28416,-0.82854 0.78814,-0.16167 -0.24252,-1.27312 -0.78811,0.16167 -4.30438,0.82854 z m 6.34542,-1.23271 2.52603,-0.50521 -0.24249,-1.27312 -2.52603,0.50521 z m 3.79915,-0.7477 1.01042,-0.20209 4.06188,-0.80833 -0.24249,-1.27313 -4.06188,0.80834 -1.01042,0.20208 z m 6.34542,-1.27313 1.55605,-0.30312 0.9902,-0.20209 -0.26271,-1.27312 -0.9902,0.20208 -1.53583,0.30312 z m 3.79918,-0.76792 4.6277,-0.94979 0.44458,-0.10104 -0.26271,-1.25292 -0.44458,0.0808 -4.6075,0.94979 z m 6.34543,-1.31354 2.52603,-0.52541 -0.26271,-1.25292 -2.52606,0.52541 z m 3.79915,-0.78812 1.35395,-0.28292 3.71835,-0.78813 -0.28292,-1.25291 -3.69813,0.78812 -1.35396,0.28292 z m 6.32521,-1.33375 1.89957,-0.40417 0.64667,-0.14146 -0.28292,-1.25292 -0.62645,0.12125 -1.89958,0.40417 z m 3.79917,-0.80834 4.99145,-1.09125 h 0.0606 l -0.26273,-1.27312 -0.0808,0.0202 -4.97126,1.07104 z m 6.32521,-1.37416 2.52603,-0.56584 -0.28292,-1.25291 -2.52603,0.54562 z m 3.77894,-0.82854 1.75813,-0.38396 3.29396,-0.74771 -0.26271,-1.25292 -3.31417,0.7275 -1.73791,0.38396 z m 6.32521,-1.41459 2.30375,-0.52542 0.22231,-0.0404 -0.28292,-1.25292 -0.22231,0.0404 -2.30375,0.52542 z m 3.77896,-0.84875 5.05209,-1.15187 -0.28292,-1.27313 -5.05208,1.15188 z m 6.305,-1.455 2.52605,-0.56583 -0.28291,-1.27313 -2.52606,0.58605 z m 3.79918,-0.86896 2.18249,-0.50521 -0.30313,-1.25291 -2.1825,0.50521 z m -410.35042,47.69167 5.17334,-0.0202 -0.0202,-1.29333 -5.17334,0.0202 z"
       id="path22507" />
    <path
       style="fill:none;stroke:#000000;stroke-width:0.222292px;stroke-linecap:butt;stroke-linejoin:round;stroke-miterlimit:4;stroke-dasharray:none;stroke-opacity:1"
       d="m 55.716663,67.495 -9.05333,6.143334"
       id="path22509" />
    <path
       style="fill:none;stroke:#000000;stroke-width:0.222292px;stroke-linecap:butt;stroke-linejoin:round;stroke-miterlimit:4;stroke-dasharray:none;stroke-opacity:1"
       d="m 43.430003,170.63834 -4.85,8.40666"
       id="path22511" />
    <path
       style="fill:none;stroke:#ffffff;stroke-width:0.222292px;stroke-linecap:butt;stroke-linejoin:miter;stroke-miterlimit:10;stroke-dasharray:none;stroke-opacity:1"
       d="M 56.666463,69.758333 V 53.591667 h 61.453517 v 16.166666 z"
       id="path22513" />
    <text
       xml:space="preserve"
       style="font-style:normal;font-variant:normal;font-weight:400;font-size:10.3518px;line-height:125%;font-family:Arial;text-align:start;letter-spacing:0px;word-spacing:0px;text-anchor:start;fill:#000000;fill-opacity:1;stroke:none;stroke-width:0.264583"
       x="58.949997"
       y="64.584999"
       id="text22519"><tspan
         sodipodi:role="line"
         x="58.949997"
         y="64.584999"
         id="tspan22517"
         style="stroke-width:0.264583"><tspan
           dx="0"
           dy="0"
           style="font-style:normal;font-variant:normal;font-weight:400;font-size:10.3518px;font-family:Arial;fill:#000000;stroke-width:0.264583"
           id="tspan22515">Pump curve</tspan></tspan></text>
    <path
       style="fill:none;stroke:#ffffff;stroke-width:0.222292px;stroke-linecap:butt;stroke-linejoin:miter;stroke-miterlimit:10;stroke-dasharray:none;stroke-opacity:1"
       d="M -12.526877,197.79834 V 183.895 h 68.24354 v 13.90334 z"
       id="path22521" />
    <text
       xml:space="preserve"
       style="font-style:normal;font-variant:normal;font-weight:400;font-size:10.3518px;line-height:125%;font-family:Arial;text-align:start;letter-spacing:0px;word-spacing:0px;text-anchor:start;fill:#000000;fill-opacity:1;stroke:none;stroke-width:0.264583"
       x="-10.243333"
       y="194.88834"
       id="text22527"><tspan
         sodipodi:role="line"
         x="-10.243333"
         y="194.88834"
         id="tspan22525"
         style="stroke-width:0.264583"><tspan
           dx="0"
           dy="0"
           style="font-style:normal;font-variant:normal;font-weight:400;font-size:10.3518px;font-family:Arial;fill:#000000;stroke-width:0.264583"
           id="tspan22523">System curve</tspan></tspan></text>
    <path
       style="fill:none;stroke:#ffffff;stroke-width:0.222292px;stroke-linecap:butt;stroke-linejoin:miter;stroke-miterlimit:10;stroke-dasharray:none;stroke-opacity:1"
       d="m -11.880207,210.73167 v -13.90333 h 68.24354 v 13.90333 z"
       id="path22529" />
    <text
       xml:space="preserve"
       style="font-style:normal;font-variant:normal;font-weight:400;font-size:10.3518px;line-height:125%;font-family:Arial;text-align:start;letter-spacing:0px;word-spacing:0px;text-anchor:start;fill:#000000;fill-opacity:1;stroke:none;stroke-width:0.264583"
       x="-9.5966654"
       y="211.05501"
       id="text22539"><tspan
         sodipodi:role="line"
         x="-9.5966654"
         y="211.05501"
         id="tspan22537"
         style="stroke-width:0.264583"><tspan
           dx="0"
           dy="0"
           style="font-style:normal;font-variant:normal;font-weight:400;font-size:10.3518px;font-family:Arial;fill:#000000;stroke-width:0.264583"
           id="tspan22531">(15+0.04Q</tspan><tspan
           dx="0"
           dy="-5.1733332"
           style="font-style:normal;font-variant:normal;font-weight:400;font-size:8.40052px;font-family:Arial;fill:#000000;stroke-width:0.264583"
           id="tspan22533">2</tspan><tspan
           dx="0"
           dy="5.1733332"
           style="font-style:normal;font-variant:normal;font-weight:400;font-size:10.3518px;font-family:Arial;fill:#000000;stroke-width:0.264583"
           id="tspan22535">)</tspan></tspan></text>
    <path
       style="fill:none;stroke:#ffffff;stroke-width:0.222292px;stroke-linecap:butt;stroke-linejoin:miter;stroke-miterlimit:10;stroke-dasharray:none;stroke-opacity:1"
       d="M 178.2398,52.944999 V 36.778333 h 91.52353 v 16.166666 z"
       id="path22541" />
    <text
       xml:space="preserve"
       style="font-style:normal;font-variant:normal;font-weight:400;font-size:10.3518px;line-height:125%;font-family:Arial;text-align:start;letter-spacing:0px;word-spacing:0px;text-anchor:start;fill:#000000;fill-opacity:1;stroke:none;stroke-width:0.264583"
       x="180.52333"
       y="47.771667"
       id="text22547"><tspan
         sodipodi:role="line"
         x="180.52333"
         y="47.771667"
         id="tspan22545"
         style="stroke-width:0.264583"><tspan
           dx="0"
           dy="0"
           style="font-style:normal;font-variant:normal;font-weight:400;font-size:10.3518px;font-family:Arial;fill:#000000;stroke-width:0.264583"
           id="tspan22543">Data points</tspan></tspan></text>
    <path
       style="fill:none;stroke:#000000;stroke-width:1.29333px;stroke-linecap:butt;stroke-linejoin:round;stroke-miterlimit:10;stroke-dasharray:none;stroke-opacity:1"
       d="m 160.8,63.291668 h 13.90333"
       id="path22549" />
    <path
       style="fill:none;stroke:#ffffff;stroke-width:0.222292px;stroke-linecap:butt;stroke-linejoin:miter;stroke-miterlimit:10;stroke-dasharray:none;stroke-opacity:1"
       d="M 177.91645,70.728333 V 54.561667 h 91.52356 v 16.166666 z"
       id="path22551" />
    <text
       xml:space="preserve"
       style="font-style:normal;font-variant:normal;font-weight:400;font-size:10.3518px;line-height:125%;font-family:Arial;text-align:start;letter-spacing:0px;word-spacing:0px;text-anchor:start;fill:#000000;fill-opacity:1;stroke:none;stroke-width:0.264583"
       x="180.2"
       y="65.555"
       id="text22557"><tspan
         sodipodi:role="line"
         x="180.2"
         y="65.555"
         id="tspan22555"
         style="stroke-width:0.264583"><tspan
           dx="0"
           dy="0"
           style="font-style:normal;font-variant:normal;font-weight:400;font-size:10.3518px;font-family:Arial;fill:#000000;stroke-width:0.264583"
           id="tspan22553">Model</tspan></tspan></text>
    <path
       style="fill:none;stroke:#ffffff;stroke-width:0.222292px;stroke-linecap:butt;stroke-linejoin:miter;stroke-miterlimit:10;stroke-dasharray:none;stroke-opacity:1"
       d="M 178.56312,86.895002 V 70.728333 h 91.52356 v 16.166669 z"
       id="path22559" />
    <text
       xml:space="preserve"
       style="font-style:normal;font-variant:normal;font-weight:400;font-size:10.3518px;line-height:125%;font-family:Arial;text-align:start;letter-spacing:0px;word-spacing:0px;text-anchor:start;fill:#000000;fill-opacity:1;stroke:none;stroke-width:0.264583"
       x="180.84666"
       y="81.721664"
       id="text22571"><tspan
         sodipodi:role="line"
         x="180.84666"
         y="81.721664"
         id="tspan22569"
         style="stroke-width:0.264583"><tspan
           dx="0"
           dy="0"
           style="font-style:normal;font-variant:normal;font-weight:400;font-size:10.3518px;font-family:Arial;fill:#000000;stroke-width:0.264583"
           id="tspan22561">k</tspan><tspan
           dx="0"
           dy="5.1733332"
           style="font-style:normal;font-variant:normal;font-weight:400;font-size:8.40052px;font-family:Arial;fill:#000000;stroke-width:0.264583"
           id="tspan22563">H</tspan><tspan
           dx="0"
           dy="0"
           style="font-style:normal;font-variant:normal;font-weight:400;font-size:8.40052px;font-family:Arial;fill:#000000;stroke-width:0.264583"
           id="tspan22565">0</tspan><tspan
           dx="0"
           dy="-5.1733332"
           style="font-style:normal;font-variant:normal;font-weight:400;font-size:10.3518px;font-family:Arial;fill:#000000;stroke-width:0.264583"
           id="tspan22567">=24.495</tspan></tspan></text>
    <path
       style="fill:none;stroke:#ffffff;stroke-width:0.222292px;stroke-linecap:butt;stroke-linejoin:miter;stroke-miterlimit:10;stroke-dasharray:none;stroke-opacity:1"
       d="M 177.59313,104.355 V 88.188333 h 91.52353 V 104.355 Z"
       id="path22573" />
    <text
       xml:space="preserve"
       style="font-style:normal;font-variant:normal;font-weight:400;font-size:10.3518px;line-height:125%;font-family:Arial;text-align:start;letter-spacing:0px;word-spacing:0px;text-anchor:start;fill:#000000;fill-opacity:1;stroke:none;stroke-width:0.264583"
       x="179.87666"
       y="99.181664"
       id="text22585"><tspan
         sodipodi:role="line"
         x="179.87666"
         y="99.181664"
         id="tspan22583"
         style="stroke-width:0.264583"><tspan
           dx="0"
           dy="0"
           style="font-style:normal;font-variant:normal;font-weight:400;font-size:10.3518px;font-family:Arial;fill:#000000;stroke-width:0.264583"
           id="tspan22575">k</tspan><tspan
           dx="0"
           dy="5.1733332"
           style="font-style:normal;font-variant:normal;font-weight:400;font-size:8.40052px;font-family:Arial;fill:#000000;stroke-width:0.264583"
           id="tspan22577">H</tspan><tspan
           dx="0"
           dy="0"
           style="font-style:normal;font-variant:normal;font-weight:400;font-size:8.40052px;font-family:Arial;fill:#000000;stroke-width:0.264583"
           id="tspan22579">1</tspan><tspan
           dx="0"
           dy="-5.1733332"
           style="font-style:normal;font-variant:normal;font-weight:400;font-size:10.3518px;font-family:Arial;fill:#000000;stroke-width:0.264583"
           id="tspan22581">=-0.343</tspan></tspan></text>
    <path
       style="fill:none;stroke:#ffffff;stroke-width:0.222292px;stroke-linecap:butt;stroke-linejoin:miter;stroke-miterlimit:10;stroke-dasharray:none;stroke-opacity:1"
       d="m 177.59313,123.10834 v -16.16667 h 91.52353 v 16.16667 z"
       id="path22587" />
    <text
       xml:space="preserve"
       style="font-style:normal;font-variant:normal;font-weight:400;font-size:10.3518px;line-height:125%;font-family:Arial;text-align:start;letter-spacing:0px;word-spacing:0px;text-anchor:start;fill:#000000;fill-opacity:1;stroke:none;stroke-width:0.264583"
       x="179.87666"
       y="117.935"
       id="text22599"><tspan
         sodipodi:role="line"
         x="179.87666"
         y="117.935"
         id="tspan22597"
         style="stroke-width:0.264583"><tspan
           dx="0"
           dy="0"
           style="font-style:normal;font-variant:normal;font-weight:400;font-size:10.3518px;font-family:Arial;fill:#000000;stroke-width:0.264583"
           id="tspan22589">k</tspan><tspan
           dx="0"
           dy="5.1733332"
           style="font-style:normal;font-variant:normal;font-weight:400;font-size:8.40052px;font-family:Arial;fill:#000000;stroke-width:0.264583"
           id="tspan22591">H</tspan><tspan
           dx="0"
           dy="0"
           style="font-style:normal;font-variant:normal;font-weight:400;font-size:8.40052px;font-family:Arial;fill:#000000;stroke-width:0.264583"
           id="tspan22593">2</tspan><tspan
           dx="0"
           dy="-5.1733332"
           style="font-style:normal;font-variant:normal;font-weight:400;font-size:10.3518px;font-family:Arial;fill:#000000;stroke-width:0.264583"
           id="tspan22595">=-0.295</tspan></tspan></text>
    <path
       style="fill:none;stroke:#000000;stroke-width:0.222292px;stroke-linecap:butt;stroke-linejoin:round;stroke-miterlimit:10;stroke-dasharray:none;stroke-opacity:1"
       d="m 168.88334,44.538335 v -0.181878 l -0.0202,-0.181874 -0.0404,-0.202084 -0.0606,-0.181874 -0.0606,-0.181875 -0.10104,-0.161666 -0.10104,-0.161668 -0.10105,-0.161666 -0.14145,-0.141459 -0.14147,-0.141457 -0.14144,-0.12125 -0.16169,-0.101042 -0.16166,-0.101042 -0.18188,-0.06062 -0.18187,-0.08083 -0.18188,-0.04042 -0.18187,-0.04042 h -0.20209 -0.18187 -0.20209 l -0.18188,0.04042 -0.18187,0.04042 -0.18188,0.08083 -0.18187,0.06062 -0.16166,0.101042 -0.16166,0.101042 -0.16166,0.12125 -0.12126,0.141457 -0.14145,0.141459 -0.10104,0.161666 -0.10105,0.161668 -0.10104,0.161666 -0.0606,0.181875 -0.0606,0.181874 -0.0404,0.202084 -0.0202,0.181874 -0.0202,0.181878 0.0202,0.202083 0.0202,0.181875 0.0404,0.202083 0.0606,0.181875 0.0606,0.181874 0.10104,0.161666 0.10105,0.161668 0.10104,0.161666 0.14145,0.14146 0.12126,0.141456 0.16166,0.121251 0.16166,0.101042 0.16166,0.08083 0.18187,0.08083 0.18188,0.08084 0.18187,0.04042 0.18188,0.04042 h 0.20209 0.18187 0.20209 l 0.18187,-0.04042 0.18188,-0.04042 0.18187,-0.08084 0.18188,-0.08083 0.16166,-0.08083 0.16169,-0.101042 0.14144,-0.121251 0.14147,-0.141456 0.14145,-0.14146 0.10105,-0.161666 0.10104,-0.161668 0.10104,-0.161666 0.0606,-0.181874 0.0606,-0.181875 0.0404,-0.202083 0.0202,-0.181875 z"
       id="path22601" />
  </g>
</svg>
