<?xml version="1.0" encoding="UTF-8" standalone="no"?>
<svg
   xmlns:dc="http://purl.org/dc/elements/1.1/"
   xmlns:cc="http://creativecommons.org/ns#"
   xmlns:rdf="http://www.w3.org/1999/02/22-rdf-syntax-ns#"
   xmlns:svg="http://www.w3.org/2000/svg"
   xmlns="http://www.w3.org/2000/svg"
   xmlns:sodipodi="http://sodipodi.sourceforge.net/DTD/sodipodi-0.dtd"
   xmlns:inkscape="http://www.inkscape.org/namespaces/inkscape"
   width="620.79999mm"
   height="311.37mm"
   viewBox="0 0 620.79999 311.37"
   version="1.1"
   id="svg8"
   inkscape:version="1.0.2-2 (e86c870879, 2021-01-15)"
   sodipodi:docname="Figure10.9.svg">
  <defs
     id="defs2">
    <pattern
       id="EMFhbasepattern"
       patternUnits="userSpaceOnUse"
       width="6"
       height="6"
       x="0"
       y="0" />
  </defs>
  <sodipodi:namedview
     id="base"
     pagecolor="#ffffff"
     bordercolor="#666666"
     borderopacity="1.0"
     inkscape:pageopacity="0.0"
     inkscape:pageshadow="2"
     inkscape:zoom="0.35"
     inkscape:cx="1741.7368"
     inkscape:cy="1631.2729"
     inkscape:document-units="mm"
     inkscape:current-layer="layer1"
     inkscape:document-rotation="0"
     showgrid="false"
     fit-margin-top="0"
     fit-margin-left="0"
     fit-margin-right="0"
     fit-margin-bottom="0"
     inkscape:window-width="1258"
     inkscape:window-height="1040"
     inkscape:window-x="182"
     inkscape:window-y="0"
     inkscape:window-maximized="0" />
  <metadata
     id="metadata5">
    <rdf:RDF>
      <cc:Work
         rdf:about="">
        <dc:format>image/svg+xml</dc:format>
        <dc:type
           rdf:resource="http://purl.org/dc/dcmitype/StillImage" />
        <dc:title></dc:title>
      </cc:Work>
    </rdf:RDF>
  </metadata>
  <g
     inkscape:label="Capa 1"
     inkscape:groupmode="layer"
     id="layer1"
     transform="translate(355.00119,283.44095)">
    <path
       style="fill:#ffffff;fill-opacity:1;fill-rule:evenodd;stroke:none;stroke-width:0.264583"
       d="M -355.00119,-283.44095 V 27.929048 h 620.8 V -283.44095 Z"
       id="path836" />
    <path
       style="fill:#ffffff;fill-opacity:1;fill-rule:evenodd;stroke:none;stroke-width:0.264583"
       d="M -274.16786,-260.16095 V -6.3442824 h 481.12 V -260.16095 Z"
       id="path838" />
    <path
       style="fill:none;stroke:#000000;stroke-width:0.222292px;stroke-linecap:butt;stroke-linejoin:round;stroke-miterlimit:4;stroke-dasharray:none;stroke-opacity:1"
       d="m -274.16786,-6.3442824 h 481.12"
       id="path840" />
    <path
       style="fill:none;stroke:#000000;stroke-width:0.222292px;stroke-linecap:butt;stroke-linejoin:round;stroke-miterlimit:4;stroke-dasharray:none;stroke-opacity:1"
       d="m -274.16786,-260.16095 h 481.12"
       id="path842" />
    <path
       style="fill:none;stroke:#000000;stroke-width:0.222292px;stroke-linecap:butt;stroke-linejoin:round;stroke-miterlimit:4;stroke-dasharray:none;stroke-opacity:1"
       d="M -274.16786,-6.3442824 V -11.153882"
       id="path844" />
    <path
       style="fill:none;stroke:#000000;stroke-width:0.222292px;stroke-linecap:butt;stroke-linejoin:round;stroke-miterlimit:4;stroke-dasharray:none;stroke-opacity:1"
       d="M -173.93452,-6.3442824 V -11.153882"
       id="path846" />
    <path
       style="fill:none;stroke:#000000;stroke-width:0.222292px;stroke-linecap:butt;stroke-linejoin:round;stroke-miterlimit:4;stroke-dasharray:none;stroke-opacity:1"
       d="M -73.70119,-6.3442824 V -11.153882"
       id="path848" />
    <path
       style="fill:none;stroke:#000000;stroke-width:0.222292px;stroke-linecap:butt;stroke-linejoin:round;stroke-miterlimit:4;stroke-dasharray:none;stroke-opacity:1"
       d="M 26.53213,-6.3442824 V -11.153882"
       id="path850" />
    <path
       style="fill:none;stroke:#000000;stroke-width:0.222292px;stroke-linecap:butt;stroke-linejoin:round;stroke-miterlimit:4;stroke-dasharray:none;stroke-opacity:1"
       d="M 126.76548,-6.3442824 V -11.153882"
       id="path852" />
    <path
       style="fill:none;stroke:#000000;stroke-width:0.222292px;stroke-linecap:butt;stroke-linejoin:round;stroke-miterlimit:4;stroke-dasharray:none;stroke-opacity:1"
       d="m -274.16786,-260.16095 v 4.82979"
       id="path854" />
    <path
       style="fill:none;stroke:#000000;stroke-width:0.222292px;stroke-linecap:butt;stroke-linejoin:round;stroke-miterlimit:4;stroke-dasharray:none;stroke-opacity:1"
       d="m -173.93452,-260.16095 v 4.82979"
       id="path856" />
    <path
       style="fill:none;stroke:#000000;stroke-width:0.222292px;stroke-linecap:butt;stroke-linejoin:round;stroke-miterlimit:4;stroke-dasharray:none;stroke-opacity:1"
       d="m -73.70119,-260.16095 v 4.82979"
       id="path858" />
    <path
       style="fill:none;stroke:#000000;stroke-width:0.222292px;stroke-linecap:butt;stroke-linejoin:round;stroke-miterlimit:4;stroke-dasharray:none;stroke-opacity:1"
       d="m 26.53213,-260.16095 v 4.82979"
       id="path860" />
    <path
       style="fill:none;stroke:#000000;stroke-width:0.222292px;stroke-linecap:butt;stroke-linejoin:round;stroke-miterlimit:4;stroke-dasharray:none;stroke-opacity:1"
       d="m 126.76548,-260.16095 v 4.82979"
       id="path862" />
    <text
       xml:space="preserve"
       style="font-style:normal;font-variant:normal;font-weight:400;font-size:11.9559px;line-height:125%;font-family:Arial;text-align:start;letter-spacing:0px;word-spacing:0px;text-anchor:start;fill:#000000;fill-opacity:1;stroke:none;stroke-width:0.264583"
       x="-277.40118"
       y="8.2057152"
       id="text868"><tspan
         sodipodi:role="line"
         x="-277.40118"
         y="8.2057152"
         id="tspan866"
         style="stroke-width:0.264583"><tspan
           dx="0"
           dy="0"
           style="font-style:normal;font-variant:normal;font-weight:400;font-size:11.9559px;font-family:Arial;fill:#000000;stroke-width:0.264583"
           id="tspan864">0</tspan></tspan></text>
    <text
       xml:space="preserve"
       style="font-style:normal;font-variant:normal;font-weight:400;font-size:11.9559px;line-height:125%;font-family:Arial;text-align:start;letter-spacing:0px;word-spacing:0px;text-anchor:start;fill:#000000;fill-opacity:1;stroke:none;stroke-width:0.264583"
       x="-177.16785"
       y="8.2057152"
       id="text874"><tspan
         sodipodi:role="line"
         x="-177.16785"
         y="8.2057152"
         id="tspan872"
         style="stroke-width:0.264583"><tspan
           dx="0"
           dy="0"
           style="font-style:normal;font-variant:normal;font-weight:400;font-size:11.9559px;font-family:Arial;fill:#000000;stroke-width:0.264583"
           id="tspan870">5</tspan></tspan></text>
    <text
       xml:space="preserve"
       style="font-style:normal;font-variant:normal;font-weight:400;font-size:11.9559px;line-height:125%;font-family:Arial;text-align:start;letter-spacing:0px;word-spacing:0px;text-anchor:start;fill:#000000;fill-opacity:1;stroke:none;stroke-width:0.264583"
       x="-80.491211"
       y="8.2057152"
       id="text880"><tspan
         sodipodi:role="line"
         x="-80.491211"
         y="8.2057152"
         id="tspan878"
         style="stroke-width:0.264583"><tspan
           dx="0"
           dy="0"
           style="font-style:normal;font-variant:normal;font-weight:400;font-size:11.9559px;font-family:Arial;fill:#000000;stroke-width:0.264583"
           id="tspan876">10</tspan></tspan></text>
    <text
       xml:space="preserve"
       style="font-style:normal;font-variant:normal;font-weight:400;font-size:11.9559px;line-height:125%;font-family:Arial;text-align:start;letter-spacing:0px;word-spacing:0px;text-anchor:start;fill:#000000;fill-opacity:1;stroke:none;stroke-width:0.264583"
       x="19.742126"
       y="8.2057152"
       id="text886"><tspan
         sodipodi:role="line"
         x="19.742126"
         y="8.2057152"
         id="tspan884"
         style="stroke-width:0.264583"><tspan
           dx="0"
           dy="0"
           style="font-style:normal;font-variant:normal;font-weight:400;font-size:11.9559px;font-family:Arial;fill:#000000;stroke-width:0.264583"
           id="tspan882">15</tspan></tspan></text>
    <text
       xml:space="preserve"
       style="font-style:normal;font-variant:normal;font-weight:400;font-size:11.9559px;line-height:125%;font-family:Arial;text-align:start;letter-spacing:0px;word-spacing:0px;text-anchor:start;fill:#000000;fill-opacity:1;stroke:none;stroke-width:0.264583"
       x="119.97549"
       y="8.2057152"
       id="text892"><tspan
         sodipodi:role="line"
         x="119.97549"
         y="8.2057152"
         id="tspan890"
         style="stroke-width:0.264583"><tspan
           dx="0"
           dy="0"
           style="font-style:normal;font-variant:normal;font-weight:400;font-size:11.9559px;font-family:Arial;fill:#000000;stroke-width:0.264583"
           id="tspan888">20</tspan></tspan></text>
    <text
       xml:space="preserve"
       style="font-style:normal;font-variant:normal;font-weight:400;font-size:13.2622px;line-height:125%;font-family:Arial;text-align:start;letter-spacing:0px;word-spacing:0px;text-anchor:start;fill:#000000;fill-opacity:1;stroke:none;stroke-width:0.264583"
       x="-48.157837"
       y="24.049038"
       id="text898"><tspan
         sodipodi:role="line"
         x="-48.157837"
         y="24.049038"
         id="tspan896"
         style="stroke-width:0.264583"><tspan
           dx="0"
           dy="0"
           style="font-style:normal;font-variant:normal;font-weight:400;font-size:13.2622px;font-family:Arial;fill:#000000;stroke-width:0.264583"
           id="tspan894">Hour</tspan></tspan></text>
    <path
       style="fill:none;stroke:#000000;stroke-width:0.222292px;stroke-linecap:butt;stroke-linejoin:round;stroke-miterlimit:4;stroke-dasharray:none;stroke-opacity:1"
       d="M -274.16786,-6.3442824 V -260.16095"
       id="path900" />
    <path
       style="fill:none;stroke:#000000;stroke-width:0.222292px;stroke-linecap:butt;stroke-linejoin:round;stroke-miterlimit:4;stroke-dasharray:none;stroke-opacity:1"
       d="M 206.95214,-6.3442824 V -260.16095"
       id="path902" />
    <path
       style="fill:none;stroke:#000000;stroke-width:0.222292px;stroke-linecap:butt;stroke-linejoin:round;stroke-miterlimit:4;stroke-dasharray:none;stroke-opacity:1"
       d="m -274.16786,-6.3442824 h 4.82979"
       id="path904" />
    <path
       style="fill:none;stroke:#000000;stroke-width:0.222292px;stroke-linecap:butt;stroke-linejoin:round;stroke-miterlimit:4;stroke-dasharray:none;stroke-opacity:1"
       d="m -274.16786,-48.640332 h 4.82979"
       id="path906" />
    <path
       style="fill:none;stroke:#000000;stroke-width:0.222292px;stroke-linecap:butt;stroke-linejoin:round;stroke-miterlimit:4;stroke-dasharray:none;stroke-opacity:1"
       d="m -274.16786,-90.936372 h 4.82979"
       id="path908" />
    <path
       style="fill:none;stroke:#000000;stroke-width:0.222292px;stroke-linecap:butt;stroke-linejoin:round;stroke-miterlimit:4;stroke-dasharray:none;stroke-opacity:1"
       d="m -274.16786,-133.25262 h 4.82979"
       id="path910" />
    <path
       style="fill:none;stroke:#000000;stroke-width:0.222292px;stroke-linecap:butt;stroke-linejoin:round;stroke-miterlimit:4;stroke-dasharray:none;stroke-opacity:1"
       d="m -274.16786,-175.54866 h 4.82979"
       id="path912" />
    <path
       style="fill:none;stroke:#000000;stroke-width:0.222292px;stroke-linecap:butt;stroke-linejoin:round;stroke-miterlimit:4;stroke-dasharray:none;stroke-opacity:1"
       d="m -274.16786,-217.8447 h 4.82979"
       id="path914" />
    <path
       style="fill:none;stroke:#000000;stroke-width:0.222292px;stroke-linecap:butt;stroke-linejoin:round;stroke-miterlimit:4;stroke-dasharray:none;stroke-opacity:1"
       d="m -274.16786,-260.16095 h 4.82979"
       id="path916" />
    <path
       style="fill:none;stroke:#000000;stroke-width:0.222292px;stroke-linecap:butt;stroke-linejoin:round;stroke-miterlimit:4;stroke-dasharray:none;stroke-opacity:1"
       d="m 206.95214,-6.3442824 h -4.80957"
       id="path918" />
    <path
       style="fill:none;stroke:#000000;stroke-width:0.222292px;stroke-linecap:butt;stroke-linejoin:round;stroke-miterlimit:4;stroke-dasharray:none;stroke-opacity:1"
       d="m 206.95214,-48.640332 h -4.80957"
       id="path920" />
    <path
       style="fill:none;stroke:#000000;stroke-width:0.222292px;stroke-linecap:butt;stroke-linejoin:round;stroke-miterlimit:4;stroke-dasharray:none;stroke-opacity:1"
       d="m 206.95214,-90.936372 h -4.80957"
       id="path922" />
    <path
       style="fill:none;stroke:#000000;stroke-width:0.222292px;stroke-linecap:butt;stroke-linejoin:round;stroke-miterlimit:4;stroke-dasharray:none;stroke-opacity:1"
       d="m 206.95214,-133.25262 h -4.80957"
       id="path924" />
    <path
       style="fill:none;stroke:#000000;stroke-width:0.222292px;stroke-linecap:butt;stroke-linejoin:round;stroke-miterlimit:4;stroke-dasharray:none;stroke-opacity:1"
       d="m 206.95214,-175.54866 h -4.80957"
       id="path926" />
    <path
       style="fill:none;stroke:#000000;stroke-width:0.222292px;stroke-linecap:butt;stroke-linejoin:round;stroke-miterlimit:4;stroke-dasharray:none;stroke-opacity:1"
       d="m 206.95214,-217.8447 h -4.80957"
       id="path928" />
    <path
       style="fill:none;stroke:#000000;stroke-width:0.222292px;stroke-linecap:butt;stroke-linejoin:round;stroke-miterlimit:4;stroke-dasharray:none;stroke-opacity:1"
       d="m 206.95214,-260.16095 h -4.80957"
       id="path930" />
    <text
       xml:space="preserve"
       style="font-style:normal;font-variant:normal;font-weight:400;font-size:11.9559px;line-height:125%;font-family:Arial;text-align:start;letter-spacing:0px;word-spacing:0px;text-anchor:start;fill:#000000;fill-opacity:1;stroke:none;stroke-width:0.264583"
       x="-294.21454"
       y="-2.1409645"
       id="text936"><tspan
         sodipodi:role="line"
         x="-294.21454"
         y="-2.1409645"
         id="tspan934"
         style="stroke-width:0.264583"><tspan
           dx="0"
           dy="0"
           style="font-style:normal;font-variant:normal;font-weight:400;font-size:11.9559px;font-family:Arial;fill:#000000;stroke-width:0.264583"
           id="tspan932">0.6</tspan></tspan></text>
    <text
       xml:space="preserve"
       style="font-style:normal;font-variant:normal;font-weight:400;font-size:11.9559px;line-height:125%;font-family:Arial;text-align:start;letter-spacing:0px;word-spacing:0px;text-anchor:start;fill:#000000;fill-opacity:1;stroke:none;stroke-width:0.264583"
       x="-294.21454"
       y="-44.497623"
       id="text942"><tspan
         sodipodi:role="line"
         x="-294.21454"
         y="-44.497623"
         id="tspan940"
         style="stroke-width:0.264583"><tspan
           dx="0"
           dy="0"
           style="font-style:normal;font-variant:normal;font-weight:400;font-size:11.9559px;font-family:Arial;fill:#000000;stroke-width:0.264583"
           id="tspan938">0.7</tspan></tspan></text>
    <text
       xml:space="preserve"
       style="font-style:normal;font-variant:normal;font-weight:400;font-size:11.9559px;line-height:125%;font-family:Arial;text-align:start;letter-spacing:0px;word-spacing:0px;text-anchor:start;fill:#000000;fill-opacity:1;stroke:none;stroke-width:0.264583"
       x="-294.21454"
       y="-86.854286"
       id="text948"><tspan
         sodipodi:role="line"
         x="-294.21454"
         y="-86.854286"
         id="tspan946"
         style="stroke-width:0.264583"><tspan
           dx="0"
           dy="0"
           style="font-style:normal;font-variant:normal;font-weight:400;font-size:11.9559px;font-family:Arial;fill:#000000;stroke-width:0.264583"
           id="tspan944">0.8</tspan></tspan></text>
    <text
       xml:space="preserve"
       style="font-style:normal;font-variant:normal;font-weight:400;font-size:11.9559px;line-height:125%;font-family:Arial;text-align:start;letter-spacing:0px;word-spacing:0px;text-anchor:start;fill:#000000;fill-opacity:1;stroke:none;stroke-width:0.264583"
       x="-294.21454"
       y="-128.88762"
       id="text954"><tspan
         sodipodi:role="line"
         x="-294.21454"
         y="-128.88762"
         id="tspan952"
         style="stroke-width:0.264583"><tspan
           dx="0"
           dy="0"
           style="font-style:normal;font-variant:normal;font-weight:400;font-size:11.9559px;font-family:Arial;fill:#000000;stroke-width:0.264583"
           id="tspan950">0.9</tspan></tspan></text>
    <text
       xml:space="preserve"
       style="font-style:normal;font-variant:normal;font-weight:400;font-size:11.9559px;line-height:125%;font-family:Arial;text-align:start;letter-spacing:0px;word-spacing:0px;text-anchor:start;fill:#000000;fill-opacity:1;stroke:none;stroke-width:0.264583"
       x="-284.19119"
       y="-171.24429"
       id="text960"><tspan
         sodipodi:role="line"
         x="-284.19119"
         y="-171.24429"
         id="tspan958"
         style="stroke-width:0.264583"><tspan
           dx="0"
           dy="0"
           style="font-style:normal;font-variant:normal;font-weight:400;font-size:11.9559px;font-family:Arial;fill:#000000;stroke-width:0.264583"
           id="tspan956">1</tspan></tspan></text>
    <text
       xml:space="preserve"
       style="font-style:normal;font-variant:normal;font-weight:400;font-size:11.9559px;line-height:125%;font-family:Arial;text-align:start;letter-spacing:0px;word-spacing:0px;text-anchor:start;fill:#000000;fill-opacity:1;stroke:none;stroke-width:0.264583"
       x="-294.21454"
       y="-213.60095"
       id="text966"><tspan
         sodipodi:role="line"
         x="-294.21454"
         y="-213.60095"
         id="tspan964"
         style="stroke-width:0.264583"><tspan
           dx="0"
           dy="0"
           style="font-style:normal;font-variant:normal;font-weight:400;font-size:11.9559px;font-family:Arial;fill:#000000;stroke-width:0.264583"
           id="tspan962">1.1</tspan></tspan></text>
    <text
       xml:space="preserve"
       style="font-style:normal;font-variant:normal;font-weight:400;font-size:11.9559px;line-height:125%;font-family:Arial;text-align:start;letter-spacing:0px;word-spacing:0px;text-anchor:start;fill:#000000;fill-opacity:1;stroke:none;stroke-width:0.264583"
       x="-294.21454"
       y="-255.95761"
       id="text972"><tspan
         sodipodi:role="line"
         x="-294.21454"
         y="-255.95761"
         id="tspan970"
         style="stroke-width:0.264583"><tspan
           dx="0"
           dy="0"
           style="font-style:normal;font-variant:normal;font-weight:400;font-size:11.9559px;font-family:Arial;fill:#000000;stroke-width:0.264583"
           id="tspan968">1.2</tspan></tspan></text>
    <text
       xml:space="preserve"
       style="font-style:normal;font-variant:normal;font-weight:400;font-size:13.2622px;line-height:125%;font-family:Arial;text-align:start;letter-spacing:0px;word-spacing:0px;text-anchor:start;fill:#000000;fill-opacity:1;stroke:none;stroke-width:0.264583"
       transform="rotate(-90)"
       x="72.304283"
       y="-304.56119"
       id="text1014"><tspan
         sodipodi:role="line"
         x="72.304283"
         y="-304.56119"
         id="tspan1012"
         style="stroke-width:0.264583"><tspan
           dx="0"
           dy="0"
           style="font-style:normal;font-variant:normal;font-weight:400;font-size:13.2622px;font-family:Arial;fill:#000000;stroke-width:0.264583"
           id="tspan974">L</tspan><tspan
           dx="0"
           dy="0"
           style="font-style:normal;font-variant:normal;font-weight:400;font-size:13.2622px;font-family:Arial;fill:#000000;stroke-width:0.264583"
           id="tspan976">o</tspan><tspan
           dx="0"
           dy="0"
           style="font-style:normal;font-variant:normal;font-weight:400;font-size:13.2622px;font-family:Arial;fill:#000000;stroke-width:0.264583"
           id="tspan978">a</tspan><tspan
           dx="0"
           dy="0"
           style="font-style:normal;font-variant:normal;font-weight:400;font-size:13.2622px;font-family:Arial;fill:#000000;stroke-width:0.264583"
           id="tspan980">d</tspan><tspan
           dx="0"
           dy="0"
           style="font-style:normal;font-variant:normal;font-weight:400;font-size:13.2622px;font-family:Arial;fill:#000000;stroke-width:0.264583"
           id="tspan982"> </tspan><tspan
           dx="0"
           dy="0"
           style="font-style:normal;font-variant:normal;font-weight:400;font-size:13.2622px;font-family:Arial;fill:#000000;stroke-width:0.264583"
           id="tspan984">p</tspan><tspan
           dx="0"
           dy="0"
           style="font-style:normal;font-variant:normal;font-weight:400;font-size:13.2622px;font-family:Arial;fill:#000000;stroke-width:0.264583"
           id="tspan986">o</tspan><tspan
           dx="0"
           dy="0"
           style="font-style:normal;font-variant:normal;font-weight:400;font-size:13.2622px;font-family:Arial;fill:#000000;stroke-width:0.264583"
           id="tspan988">w</tspan><tspan
           dx="0"
           dy="0"
           style="font-style:normal;font-variant:normal;font-weight:400;font-size:13.2622px;font-family:Arial;fill:#000000;stroke-width:0.264583"
           id="tspan990">e</tspan><tspan
           dx="0"
           dy="0"
           style="font-style:normal;font-variant:normal;font-weight:400;font-size:13.2622px;font-family:Arial;fill:#000000;stroke-width:0.264583"
           id="tspan992">r</tspan><tspan
           dx="0"
           dy="0"
           style="font-style:normal;font-variant:normal;font-weight:400;font-size:13.2622px;font-family:Arial;fill:#000000;stroke-width:0.264583"
           id="tspan994">,</tspan><tspan
           dx="0"
           dy="0"
           style="font-style:normal;font-variant:normal;font-weight:400;font-size:13.2622px;font-family:Arial;fill:#000000;stroke-width:0.264583"
           id="tspan996"> </tspan><tspan
           dx="0"
           dy="0"
           style="font-style:normal;font-variant:normal;font-weight:400;font-size:13.2622px;font-family:Arial;fill:#000000;stroke-width:0.264583"
           id="tspan998">P</tspan><tspan
           dx="0.85418987"
           dy="6.4666667"
           style="font-style:normal;font-variant:normal;font-weight:400;font-size:10.666px;font-family:Arial;fill:#000000;stroke-width:0.264583"
           id="tspan1000">L</tspan><tspan
           dx="0"
           dy="-6.4666667"
           style="font-style:normal;font-variant:normal;font-weight:400;font-size:13.2622px;font-family:Arial;fill:#000000;stroke-width:0.264583"
           id="tspan1002"> </tspan><tspan
           dx="0"
           dy="0"
           style="font-style:normal;font-variant:normal;font-weight:400;font-size:13.2622px;font-family:Arial;fill:#000000;stroke-width:0.264583"
           id="tspan1004">[</tspan><tspan
           dx="0"
           dy="0"
           style="font-style:normal;font-variant:normal;font-weight:400;font-size:13.2622px;font-family:Arial;fill:#000000;stroke-width:0.264583"
           id="tspan1006">k</tspan><tspan
           dx="0"
           dy="0"
           style="font-style:normal;font-variant:normal;font-weight:400;font-size:13.2622px;font-family:Arial;fill:#000000;stroke-width:0.264583"
           id="tspan1008">W</tspan><tspan
           dx="0"
           dy="0"
           style="font-style:normal;font-variant:normal;font-weight:400;font-size:13.2622px;font-family:Arial;fill:#000000;stroke-width:0.264583"
           id="tspan1010">]</tspan></tspan></text>
    <path
       style="fill:#000000;fill-opacity:1;fill-rule:nonzero;stroke:none;stroke-width:0.264583"
       d="m -251.53452,-104.41533 h 1.29333 v -1.29333 h -1.29333 z m 2.58666,0 h 1.29334 v -1.29333 h -1.29334 z m 2.58667,0 h 1.29333 v -1.29333 h -1.29333 z m 2.58667,0 h 1.29333 v -1.29333 h -1.29333 z m 2.58666,0 h 1.29334 v -1.29333 h -1.29334 z m 2.58667,0 h 1.29333 v -1.29333 h -1.29333 z m 2.58667,0 h 1.29333 v -1.29333 h -1.29333 z m 2.58666,0 h 1.29334 v -1.29333 h -1.29334 z m 2.58667,0 h 1.29333 v -1.29333 h -1.29333 z m 2.58667,0 h 1.29333 v -1.29333 h -1.29333 z m 2.58666,0 h 1.29334 v -1.29333 h -1.29334 z m 2.58667,0 h 1.29333 v -1.29333 h -1.29333 z m 2.58667,0 h 1.29333 v -1.29333 h -1.29333 z m 2.58666,0 h 1.29334 v -1.29333 h -1.29334 z m 2.58667,0 h 1.29333 v -1.29333 h -1.29333 z m 2.58667,0 h 1.29333 v -1.29333 h -1.29333 z m 2.58666,0 h 1.29334 v -1.29333 h -1.29334 z m 2.58667,0 h 1.29333 v -1.29333 h -1.29333 z m 2.58667,0 h 1.29333 v -1.29333 h -1.29333 z m 2.58666,0 h 1.29334 v -1.29333 h -1.29334 z m 2.58667,0 h 1.29333 v -1.29333 h -1.29333 z m 2.58667,0 h 1.29333 v -1.29333 h -1.29333 z m 2.58666,0 h 0.64667 0.64667 v -1.29333 h -0.64667 -0.64667 z m 2.58667,0 h 1.29333 v -1.29333 h -1.29333 z m 2.58667,0 h 1.29333 v -1.29333 h -1.29333 z m 2.58666,0 h 1.29334 v -1.29333 h -1.29334 z m 2.58667,0 h 1.29333 v -1.29333 h -1.29333 z m 2.58667,0 h 1.29333 v -1.29333 h -1.29333 z m 2.58666,0 h 1.29334 v -1.29333 h -1.29334 z m 2.58667,0 h 1.29333 v -1.29333 h -1.29333 z m 2.58667,0 h 1.29333 v -1.29333 h -1.29333 z m 2.58666,0 h 1.29334 v -1.29333 h -1.29334 z m 2.58667,0 h 1.29333 v -1.29333 h -1.29333 z m 2.58667,0 h 1.29333 v -1.29333 h -1.29333 z m 2.58666,0 h 1.29334 v -1.29333 h -1.29334 z m 2.58667,0 h 1.29333 v -1.29333 h -1.29333 z m 2.58667,0 h 1.29333 v -1.29333 h -1.29333 z m 2.58666,0 h 1.29334 v -1.29333 h -1.29334 z m 2.58667,0 h 1.29333 v -1.29333 h -1.29333 z m 2.58667,0 h 1.29333 v -1.29333 h -1.29333 z m 2.58666,0 h 1.29334 v -1.29333 h -1.29334 z m 2.58667,0 h 1.29333 v -1.29333 h -1.29333 z m 2.58667,0 h 1.29333 v -1.29333 h -1.29333 z m 2.58666,0 h 1.29334 v -1.29333 h -1.29334 z m 2.58667,0 h 1.29333 v -1.29333 h -1.29333 z m 2.58667,0 h 1.29333 v -1.29333 h -1.29333 z m 2.58666,0 h 1.29334 v -1.29333 h -1.29334 z m 2.58667,0 h 1.29333 v -1.29333 h -1.29333 z m 2.58667,0 h 1.29333 v -1.29333 h -1.29333 z m 2.58666,0 h 1.29334 v -1.29333 h -1.29334 z m 2.58667,0 h 1.29333 v -1.29333 h -1.29333 z m 2.58667,0 h 1.29333 v -1.29333 h -1.29333 z m 2.58666,0 h 1.29334 v -1.29333 h -1.29334 z m 2.58667,0 h 0.64667 0.64666 v -1.29333 h -0.64666 -0.64667 z m 2.58667,0 h 1.29333 v -1.29333 h -1.29333 z m 2.58666,0 h 1.29334 v -1.29333 h -1.29334 z m 2.58667,0 h 1.29333 v -1.29333 h -1.29333 z m 2.58667,0 h 1.29333 v -1.29333 h -1.29333 z m 2.58666,0 h 1.29334 v -1.29333 h -1.29334 z m 2.58667,0 h 1.29333 v -1.29333 h -1.29333 z m 2.58667,0 h 1.29333 v -1.29333 h -1.29333 z m 2.58666,0 h 1.29334 v -1.29333 h -1.29334 z m 2.58667,0 h 1.29332 v -1.29333 h -1.29332 z m 2.58666,0 h 1.29334 v -1.29333 h -1.29334 z m 2.58667,0 h 1.29334 v -1.29333 h -1.29334 z m 2.58667,0 h 1.29334 v -1.29333 h -1.29334 z m 2.58668,0 h 1.29333 v -1.29333 h -1.29333 z m 2.58664,0 h 1.29334 v -1.29333 h -1.29334 z m 2.58667,0 h 1.29334 v -1.29333 h -1.29334 z m 2.58668,0 h 1.29333 v -1.29333 h -1.29333 z m 2.58667,0 h 1.29334 v -1.29333 h -1.29334 z m 2.58667,0 h 1.29331 v -1.29333 h -1.29331 z m 2.58665,0 h 1.29333 v -1.29333 h -1.29333 z m 2.58667,0 h 1.29334 v -1.29333 h -1.29334 z m 2.58667,0 h 1.29334 v -1.29333 h -1.29334 z m 2.58668,0 h 1.29333 v -1.29333 h -1.29333 z m 2.58664,0 h 1.29334 v -1.29333 h -1.29334 z m 2.58667,0 h 1.29334 v -1.29333 h -1.29334 z m 2.58668,0 h 1.29333 v -1.29333 h -1.29333 z m 2.58667,0 h 1.29334 v -1.29333 h -1.29334 z m 2.58667,0 h 1.29331 v -1.29333 h -1.29331 z m 2.58665,0 h 1.29333 v -1.29333 h -1.29333 z m 2.58667,0 h 1.29334 v -1.29333 h -1.29334 z m 2.58667,0 h 1.29334 v -1.29333 h -1.29334 z m 2.58668,0 h 0.64666 0.64667 v -1.29333 h -0.64667 -0.64666 z m 2.58664,0 h 1.29334 v -1.29333 h -1.29334 z m 2.58667,0 h 1.29334 v -1.29333 h -1.29334 z m 2.58668,0 h 1.29333 v -1.29333 h -1.29333 z m 2.58667,0 h 1.29334 v -1.29333 h -1.29334 z m 2.58667,0 h 1.29331 v -1.29333 h -1.29331 z m 2.58665,0 h 1.29333 v -1.29333 h -1.29333 z m 2.58667,0 h 1.29334 v -1.29333 h -1.29334 z m 2.58667,0 h 1.29334 v -1.29333 h -1.29334 z m 2.58668,0 h 1.2933295 v -1.29333 H -10.97451 Z m 2.5866395,0 h 1.29334 v -1.29333 h -1.29334 z m 2.58667,0 h 1.29334 v -1.29333 h -1.29334 z m 2.58668,0 h 1.29333 v -1.29333 h -1.29333 z m 2.58667002,0 h 1.29333 v -1.29333 h -1.29333 z m 2.58666998,0 h 1.29331 v -1.29333 h -1.29331 z m 2.58665,0 h 1.29333 v -1.29333 h -1.29333 z m 2.58667,0 h 1.29334 v -1.29333 h -1.29334 z m 2.58667,0 H 11.01215 v -1.29333 H 9.7188095 Z m 2.5866705,0 h 1.29334 v -1.29333 h -1.29334 z m 2.58665,0 h 1.29334 v -1.29333 h -1.29334 z m 2.58667,0 h 1.29334 v -1.29333 H 17.4788 Z m 2.58668,0 h 1.29333 v -1.29333 h -1.29333 z m 2.58667,0 h 1.29333 v -1.29333 h -1.29333 z m 2.58667,0 h 1.29331 v -1.29333 h -1.29331 z m 2.58665,0 h 1.29333 v -1.29333 h -1.29333 z m 2.58667,0 h 1.29334 v -1.29333 h -1.29334 z m 2.58667,0 h 1.29334 v -1.29333 h -1.29334 z m 2.58667,0 h 1.29334 v -1.29333 h -1.29334 z m 2.58665,0 h 1.29334 v -1.29333 h -1.29334 z m 2.58667,0 h 1.29334 v -1.29333 H 40.7588 Z m 2.58668,0 h 1.29333 v -1.29333 h -1.29333 z m 2.58667,0 h 0.64667 0.64666 v -1.29333 h -0.64666 -0.64667 z m 2.58667,0 h 1.29331 v -1.29333 h -1.29331 z m 2.58665,0 h 1.29333 v -1.29333 h -1.29333 z m 2.58667,0 h 1.29334 v -1.29333 h -1.29334 z m 2.58667,0 h 1.29334 v -1.29333 h -1.29334 z m 2.58667,0 h 1.29334 v -1.29333 h -1.29334 z m 2.58668,0 h 1.29331 v -1.29333 h -1.29331 z m 2.58664,0 h 1.29334 v -1.29333 H 64.0388 Z m 2.58667,0 h 1.29334 v -1.29333 h -1.29334 z m 2.58668,0 h 1.29333 v -1.29333 h -1.29333 z m 2.58667,0 h 1.29334 v -1.29333 h -1.29334 z m 2.58665,0 h 1.29333 v -1.29333 h -1.29333 z m 2.58667,0 h 1.29333 v -1.29333 h -1.29333 z m 2.58667,0 h 1.29334 v -1.29333 h -1.29334 z m 2.58667,0 h 1.29334 v -1.29333 h -1.29334 z m 2.58668,0 h 1.29331 v -1.29333 h -1.29331 z m 2.58664,0 h 1.29334 v -1.29333 H 87.3188 Z m 2.58667,0 h 1.29334 v -1.29333 h -1.29334 z m 2.58668,0 h 1.29333 v -1.29333 h -1.29333 z m 2.58667,0 h 1.29334 v -1.29333 h -1.29334 z m 2.58665,0 h 1.29333 v -1.29333 h -1.29333 z m 2.58667,0 h 1.29333 v -1.29333 h -1.29333 z m 2.58667,0 h 1.29334 v -1.29333 h -1.29334 z m 2.58667,0 h 1.29334 v -1.29333 h -1.29334 z m 2.58668,0 h 1.29331 v -1.29333 h -1.29331 z m 2.58664,0 h 1.29334 v -1.29333 h -1.29334 z m 2.58667,0 h 1.29334 v -1.29333 h -1.29334 z m 2.58668,0 h 1.29333 v -1.29333 h -1.29333 z m 2.58667,0 h 1.29334 v -1.29333 h -1.29334 z m 2.58665,0 h 1.29333 v -1.29333 h -1.29333 z m 2.58667,0 h 1.29333 v -1.29333 h -1.29333 z m 2.58667,0 h 0.64667 0.64667 v -1.29333 h -0.64667 -0.64667 z m 2.58667,0 h 1.29334 v -1.29333 h -1.29334 z m 2.58668,0 h 1.2933 v -1.29333 h -1.2933 z m 2.58664,0 h 1.29334 v -1.29333 h -1.29334 z m 2.58667,0 h 1.29334 v -1.29333 h -1.29334 z m 2.58668,0 h 1.29333 v -1.29333 h -1.29333 z m 2.58667,0 h 1.29333 v -1.29333 h -1.29333 z m 2.58664,0 h 1.29334 v -1.29333 h -1.29334 z m 2.58668,0 h 1.29333 v -1.29333 h -1.29333 z m 2.58667,0 h 1.29334 v -1.29333 h -1.29334 z m 2.58667,0 h 1.29334 v -1.29333 h -1.29334 z m 2.58667,0 h 1.29331 v -1.29333 h -1.29331 z m 2.58665,0 h 1.29334 v -1.29333 h -1.29334 z m 2.58667,0 h 1.29334 v -1.29333 h -1.29334 z m 2.58668,0 h 1.29333 v -1.29333 h -1.29333 z m 2.58667,0 h 1.29333 v -1.29333 h -1.29333 z m 2.58664,0 h 1.29334 v -1.29333 h -1.29334 z m 2.58668,0 h 1.29333 v -1.29333 h -1.29333 z m 2.58667,0 h 1.29334 v -1.29333 h -1.29334 z m 2.58667,0 h 1.29334 v -1.29333 h -1.29334 z m 2.58667,0 h 1.29331 v -1.29333 h -1.29331 z m 2.58665,0 h 1.29334 v -1.29333 h -1.29334 z m 2.58667,0 h 1.29334 v -1.29333 h -1.29334 z m 2.58668,0 h 1.29333 v -1.29333 h -1.29333 z m 2.58667,0 h 1.29333 v -1.29333 h -1.29333 z m 2.58664,0 h 1.29334 v -1.29333 h -1.29334 z m 2.58668,0 h 1.29333 v -1.29333 h -1.29333 z m 2.58667,0 h 1.29334 v -1.29333 h -1.29334 z m 2.58667,0 h 1.29334 v -1.29333 h -1.29334 z m 2.58667,0 h 1.29331 v -1.29333 h -1.29331 z m 2.58665,0 h 1.29334 v -1.29333 h -1.29334 z m 2.58667,0 h 0.64667 v -1.29333 h -0.64667 z m -460.42666,0 h 1.29333 v -1.29333 h -1.29333 z"
       id="path1016" />
    <path
       style="fill:none;stroke:#000000;stroke-width:1.29333px;stroke-linecap:butt;stroke-linejoin:miter;stroke-miterlimit:10;stroke-dasharray:none;stroke-opacity:1"
       d="m -254.12119,-158.63428 h 20.04667 v 8.46729 h 20.04666 v 25.38167 h 20.04667 v 16.91437 h 20.04667 v 0 h 20.04666 v 8.467288 h 20.04667 v -8.467288 h 20.04667 v -25.38167 h 20.04666 v -25.38166 h 20.04667 v 42.31625 h 20.04666 v 33.828748 h 20.04668 v 16.93458 h 20.04666 v 8.44708 H 6.4854695 v 8.46729 H 26.53213 v 0 h 20.04669 v 0 h 20.04665 v 8.4673 h 20.04666 v 0 h 20.04669 v -16.93459 h 20.04666 v -25.38166 h 20.04666 v -33.828748 h 20.04668 v -59.23063 h 20.04666 v -25.38167 h 20.04666 v 8.46729"
       id="path1018" />
    <path
       style="fill:#000000;fill-opacity:1;fill-rule:nonzero;stroke:none;stroke-width:0.264583"
       d="m -247.65452,-115.67137 h 2.58666 v -1.29333 h -2.58666 z m 3.88,0 h 5.17333 v -1.29333 h -5.17333 z m 6.46666,0 h 2.58667 v -1.29333 h -2.58667 z m 2.58667,0 v 5.17334 h 1.29333 v -5.17334 z m 0,6.46667 v 2.58667 h 1.29333 v -2.58667 z m 0,3.88 v 5.17333 h 1.29333 v -5.17333 z m 1.19229,6.567708 h 2.58667 v -1.293338 h -2.58667 z m 3.88,0 h 5.17334 v -1.293338 h -5.17334 z m 6.46667,0 h 2.58666 v -1.293338 h -2.58666 z m 3.88,0 h 5.17333 v -1.293338 h -5.17333 z m 6.46667,0 h 2.58666 v -1.293338 h -2.58666 z m 3.87999,0 h 5.17334 v -1.293338 h -5.17334 z m 6.46667,0 h 2.58667 v -1.293338 h -2.58667 z m 3.88,0 h 4.62771 v -0.64667 h -0.64667 v 0.54563 h 1.29334 v -0.54563 l -0.64667,-0.646668 h -4.62771 z m 3.98104,1.19229 v 2.58667 h 1.29334 v -2.58667 z m 0,3.88 v 5.17333 h 1.29334 v -5.17333 z m 0,6.46667 v 2.58666 h 1.29334 v -2.58666 z m 0,3.88 v 0.84875 l 0.64667,0.64666 h 4.32458 v -1.29333 h -4.32458 v 0.64667 h 0.64667 v -0.84875 z m 6.26459,1.49541 h 2.58666 v -1.29333 h -2.58666 z m 3.88,0 h 5.17333 v -1.29333 h -5.17333 z m 6.46666,0 h 2.58667 v -1.29333 h -2.58667 z m 3.88,0 h 0.20209 v -0.64666 h -0.64667 v 4.97125 h 1.29333 v -4.97125 l -0.64666,-0.64667 h -0.20209 z m -0.44458,5.61792 v 2.20271 l 0.64667,0.64667 h 0.38396 v -1.29334 h -0.38396 v 0.64667 h 0.64666 v -2.20271 z m 2.32396,2.84938 h 5.17333 v -1.29334 h -5.17333 z m 6.46666,0 h 2.58667 v -1.29334 h -2.58667 z m 3.88001,0 h 5.17333 v -1.29334 h -5.17333 z m 6.46666,0 h 1.55604 1.03063 v -1.29334 h -1.03063 -1.55604 z m 3.88,0 h 5.17334 v -1.29334 h -5.17334 z m 6.46667,0 h 2.58666 v -1.29334 h -2.58666 z m 3.88,0 h 5.17333 v -1.29334 h -5.17333 z m 6.46667,0 h 0.90937 1.67729 v -1.29334 h -1.67729 -0.90937 z m 3.87999,0 h 5.17334 v -1.29334 h -5.17334 z m 6.46667,0 h 2.58667 v -1.29334 h -2.58667 z m 3.88,0 h 5.17333 v -1.29334 h -5.17333 z m 6.46667,0 h 0.26271 2.32396 v -1.29334 h -2.32396 -0.26271 z m 3.88,0 h 5.17333 v -1.29334 h -5.17333 z m 6.46666,0 h 2.58667 v -1.29334 h -2.58667 z m 3.88001,0 h 5.17333 v -1.29334 h -5.17333 z m 6.72937,-1.03063 v -2.58667 h -1.29333 v 2.58667 z m 0,-3.88 v -5.17333 h -1.29333 v 5.17333 z m 0,-6.46667 v -2.58666 h -1.29333 v 2.58666 z m 0,-3.88 v -5.17333 h -1.29333 v 5.17333 z m 0,-6.46666 v -2.58667 h -1.29333 v 2.58667 z m 0,-3.88 v -5.173338 h -1.29333 v 5.173338 z m 0,-6.466668 v -2.425 h -0.64667 v 0.64667 h 0.16167 v -1.29334 h -0.16167 l -0.64666,0.64667 v 2.425 z m 0.80833,-1.77833 h 5.17333 v -1.29334 h -5.17333 z m 6.46666,0 h 2.58667 v -1.29334 h -2.58667 z m 3.88001,0 h 5.17335 v -1.29334 h -5.17335 z m 6.46666,0 h 1.77834 l 0.64667,-0.64667 v -0.80833 h -1.29334 v 0.80833 h 0.64667 v -0.64667 h -1.77834 z m 2.42501,-2.74834 v -5.17333 h -1.29334 v 5.17333 z m 0,-6.46666 v -2.58667 h -1.29334 v 2.58667 z m 0,-3.88 v -5.17334 h -1.29334 v 5.17334 z m 0,-6.46667 v -2.58667 h -1.29334 v 2.58667 z m 0,-3.88 v -5.17333 h -1.29334 v 5.17333 z m 0,-6.46667 v -2.58666 h -1.29334 v 2.58666 z m 0,-3.88 v -5.17333 h -1.29334 v 5.17333 z m 0,-6.46666 v -2.58667 h -1.29334 v 2.58667 z m 0.54562,-2.04105 h 5.17335 v -1.29333 h -5.17335 z m 6.46666,0 h 2.58667 v -1.29333 h -2.58667 z m 3.88,0 h 5.17335 v -1.29333 h -5.17335 z m 6.46669,0 h 2.04102 0.54562 v -1.29333 h -0.54562 -2.04102 z m 3.87998,0 h 5.17334 v -1.29333 h -5.17334 z m 6.46668,0 h 2.58665 v -1.29333 h -2.58665 z m 3.87998,0 h 5.17335 v -1.29333 h -5.17335 z m 6.46668,0 h 1.39438 l 0.64667,-0.64666 v -1.19229 h -1.29333 v 1.19229 h 0.64666 v -0.64667 h -1.39438 z m 2.04105,-3.13229 v -5.17333 h -1.29333 v 5.17333 z m -0.16169,-5.335 h 2.58668 v -1.29333 h -2.58668 z m 3.88001,0 h 5.17335 v -1.29333 h -5.17335 z m 6.46666,0 h 2.58667 v -1.29333 h -2.58667 z m 3.88001,0 h 5.17334 v -1.29333 h -5.17334 z m 6.46668,0 h 2.5866395 v -1.29333 H -12.42951 Z m 3.8799795,0 h 5.17335 v -1.29333 h -5.17335 z m 6.46668,0 h 2.58665002 v -1.29333 H -2.0828505 Z m 3.87998,0 h 4.68834 v -0.64666 h -0.64667 v 0.485 h 1.29334 v -0.485 l -0.64667,-0.64667 h -4.68834 z m 4.04167,1.13167 v 2.58667 h 1.29334 v -2.58667 z m 0,3.88 v 5.17333 h 1.29334 v -5.17333 z m 0,6.46667 v 2.58666 h 1.29334 v -2.58666 z m 0,3.88 v 5.17333 h 1.29334 v -5.17333 z m 0,6.46666 v 2.58667 h 1.29334 v -2.58667 z m 1.61669,3.55667 H 12.62881 v -1.29333 H 7.4554895 Z m 6.4666505,0 h 2.58667 v -1.29333 h -2.58667 z m 3.88001,0 h 5.17332 v -1.29333 h -5.17332 z m 6.46666,0 h 2.26332 v -0.64667 h -0.64664 v 0.32334 h 1.29331 v -0.32334 l -0.64667,-0.64666 h -2.26332 z m 1.61668,0.97 v 5.17333 h 1.29331 v -5.17333 z m 0,6.46667 v 0.38396 l 0.64664,0.64666 h 2.22292 v -1.29333 h -2.22292 v 0.64667 h 0.64667 v -0.38396 z m 4.1629,1.03062 h 5.17335 v -1.29333 h -5.17335 z m 6.46668,0 h 2.58665 v -1.29333 h -2.58665 z m 3.87998,0 h 5.17335 v -1.29333 h -5.17335 z m 5.5371,-0.38396 v 2.58667 h 1.29333 v -2.58667 z m 0,3.88 v 4.32459 l 0.64667,0.64666 h 0.86894 v -1.29333 h -0.86894 v 0.64667 h 0.64666 v -4.32459 z m 2.80895,4.97125 h 2.58667 v -1.29333 H 48.7411 Z m 3.88001,0 h 5.17331 v -1.29333 h -5.17331 z m 6.46665,0 h 2.58667 v -1.29333 h -2.58667 z m 3.88001,0 h 3.6577 v -0.64666 h -0.64666 v 1.49541 h 1.29333 v -1.49541 l -0.64667,-0.64667 h -3.6577 z m 3.01104,2.14209 v 2.58666 h 1.29333 v -2.58666 z m 0,3.88 v 5.17333 h 1.29333 v -5.17333 z m 0,6.46666 v 2.58667 h 1.29333 v -2.58667 z m 0.76792,4.425628 h 5.17332 v -1.293338 h -5.17332 z m 6.46666,0 h 2.58667 v -1.293338 h -2.58667 z m 3.88001,0 h 5.17332 v -1.293338 H 77.0934 Z m 6.46665,0 h 2.58667 v -1.293338 h -2.58667 z m 2.46542,0.10104 v 5.17333 h 1.29333 v -5.17333 z m 0,6.46667 v 2.58666 h 1.29333 v -2.58666 z m 0,3.88 v 5.17333 h 1.29333 v -5.17333 z m 0,6.46666 v 2.58667 h 1.29333 v -2.58667 z m 0,3.88 v 3.94063 l 0.64666,0.64667 h 1.25294 v -1.29334 h -1.25294 v 0.64667 h 0.64667 v -3.94063 z m 3.19293,4.5873 h 2.58665 v -1.29334 H 89.2184 Z m 3.87999,0 h 5.17334 v -1.29334 h -5.17334 z m 6.46668,0 h 2.58664 v -1.29334 h -2.58664 z m 3.87998,0 h 3.27377 v -0.64667 h -0.64667 v 1.87937 h 1.29334 v -1.87937 l -0.64667,-0.64667 h -3.27377 z m 2.6271,2.52604 v 2.58666 h 1.29334 v -2.58666 z m 0,3.88 v 5.17333 h 1.29334 v -5.17333 z m 0,6.46666 v 2.58667 h 1.29334 v -2.58667 z m 1.13165,4.04167 h 5.17335 v -1.29333 h -5.17335 z m 6.46668,0 h 2.58667 v -1.29333 h -2.58667 z m 3.87998,0 h 5.17335 v -1.29333 h -5.17335 z m 6.46669,0 h 2.58667 v -1.29333 h -2.58667 z m 3.88,0 h 5.17332 v -1.29333 h -5.17332 z m 6.46666,0 h 2.58667 v -1.29333 h -2.58667 z m 3.88001,0 h 5.17332 v -1.29333 h -5.17332 z m 6.46665,0 h 2.10167 l 0.64667,-0.64667 v -0.485 h -1.29334 v 0.485 h 0.64667 v -0.64666 h -2.10167 z m 2.74834,-2.425 v -5.17333 h -1.29334 v 5.17333 z m 0,-6.46667 v -2.58666 h -1.29334 v 2.58666 z m 0,-3.88 v -4.78937 h -0.64667 v 0.64667 h 0.38396 v -1.29334 h -0.38396 l -0.64667,0.64667 v 4.78937 z m 1.03063,-4.1427 h 2.58667 v -1.29334 h -2.58667 z m 3.88001,0 h 5.17331 v -1.29334 h -5.17331 z m 6.46665,0 h 2.58667 v -1.29334 h -2.58667 z m 3.88001,0 h 4.14271 l 0.64664,-0.64667 v -1.03063 h -1.29331 v 1.03063 h 0.64667 v -0.64667 h -4.14271 z m 4.78935,-2.97063 v -2.58667 h -1.29331 v 2.58667 z m 0,-3.88 v -5.17333 h -1.29331 v 5.17333 z m 0,-6.46667 v -2.58666 h -1.29331 v 2.58666 z m 0,-3.88 v -5.17333 h -1.29331 v 5.17333 z m 0,-6.46666 v -2.36438 h -0.64664 v 0.64667 h 0.22228 v -1.293338 h -0.22228 l -0.64667,0.646668 v 2.36438 z m 0.86898,-1.71771 h 5.17334 v -1.293338 h -5.17334 z m 6.46665,0 h 2.58667 v -1.293338 h -2.58667 z m 3.88001,0 h 5.17334 v -1.293338 h -5.17334 z m 6.46668,0 h 1.7177 l 0.64667,-0.64667 v -0.868958 h -1.29334 v 0.868958 h 0.64667 v -0.646668 h -1.7177 z m 2.36437,-2.808958 v -5.17333 h -1.29334 v 5.17333 z m 0,-6.46667 v -2.58666 h -1.29334 v 2.58666 z m 0,-3.88 v -5.17333 h -1.29334 v 5.17333 z m 0,-6.46666 v -2.58667 h -1.29334 v 2.58667 z m 0,-3.88 v -5.17334 h -1.29334 v 5.17334 z m 0,-6.46667 v -2.58667 h -1.29334 v 2.58667 z m 0,-3.88 v -0.64667 h -0.64667 v 0.64667 h 4.52665 v -1.29333 h -4.52665 l -0.64667,0.64666 v 0.64667 z m 5.17332,0 h 2.58667 v -1.29333 h -2.58667 z m 3.88001,0 h 5.17334 v -1.29333 h -5.17334 z m 6.46665,0 h 2.58667 v -1.29333 h -2.58667 z m -457.19332,16.93458 h 5.17333 v -1.29333 h -5.17333 z"
       id="path1020" />
    <path
       style="fill:#ffffff;fill-opacity:1;fill-rule:evenodd;stroke:none;stroke-width:0.264583"
       d="m 21.35881,-234.29429 v 45.26667 h 107.02333 v -45.26667 z"
       id="path1022" />
    <text
       xml:space="preserve"
       style="font-style:normal;font-variant:normal;font-weight:400;font-size:10.9967px;line-height:125%;font-family:Arial;text-align:start;letter-spacing:0px;word-spacing:0px;text-anchor:start;fill:#000000;fill-opacity:1;stroke:none;stroke-width:0.264583"
       x="43.668823"
       y="-222.33095"
       id="text1028"><tspan
         sodipodi:role="line"
         x="43.668823"
         y="-222.33095"
         id="tspan1026"
         style="stroke-width:0.264583"><tspan
           dx="0"
           dy="0"
           style="font-style:normal;font-variant:normal;font-weight:400;font-size:10.9967px;font-family:Arial;fill:#000000;stroke-width:0.264583"
           id="tspan1024">Constant profile</tspan></tspan></text>
    <path
       style="fill:#000000;fill-opacity:1;fill-rule:nonzero;stroke:none;stroke-width:0.264583"
       d="m 32.41276,-225.66533 h 1.29334 v -1.29333 h -1.29334 z m 2.58667,0 h 1.29334 v -1.29333 h -1.29334 z m 2.58667,0 h 1.29334 v -1.29333 H 37.5861 Z m 2.58668,0 h 1.29333 v -1.29333 h -1.29333 z m -10.34667,0 h 1.29331 v -1.29333 h -1.29331 z"
       id="path1030" />
    <text
       xml:space="preserve"
       style="font-style:normal;font-variant:normal;font-weight:400;font-size:10.9967px;line-height:125%;font-family:Arial;text-align:start;letter-spacing:0px;word-spacing:0px;text-anchor:start;fill:#000000;fill-opacity:1;stroke:none;stroke-width:0.264583"
       x="43.668823"
       y="-207.78094"
       id="text1036"><tspan
         sodipodi:role="line"
         x="43.668823"
         y="-207.78094"
         id="tspan1034"
         style="stroke-width:0.264583"><tspan
           dx="0"
           dy="0"
           style="font-style:normal;font-variant:normal;font-weight:400;font-size:10.9967px;font-family:Arial;fill:#000000;stroke-width:0.264583"
           id="tspan1032">Profile 1</tspan></tspan></text>
    <path
       style="fill:none;stroke:#000000;stroke-width:1.29333px;stroke-linecap:butt;stroke-linejoin:round;stroke-miterlimit:10;stroke-dasharray:none;stroke-opacity:1"
       d="M 29.82611,-211.66095 H 42.73924"
       id="path1038" />
    <text
       xml:space="preserve"
       style="font-style:normal;font-variant:normal;font-weight:400;font-size:10.9967px;line-height:125%;font-family:Arial;text-align:start;letter-spacing:0px;word-spacing:0px;text-anchor:start;fill:#000000;fill-opacity:1;stroke:none;stroke-width:0.264583"
       x="43.668823"
       y="-193.23096"
       id="text1044"><tspan
         sodipodi:role="line"
         x="43.668823"
         y="-193.23096"
         id="tspan1042"
         style="stroke-width:0.264583"><tspan
           dx="0"
           dy="0"
           style="font-style:normal;font-variant:normal;font-weight:400;font-size:10.9967px;font-family:Arial;fill:#000000;stroke-width:0.264583"
           id="tspan1040">Profile 2</tspan></tspan></text>
    <path
       style="fill:#000000;fill-opacity:1;fill-rule:nonzero;stroke:none;stroke-width:0.264583"
       d="m 36.29277,-196.34303 h 2.58667 v -1.29334 h -2.58667 z m 3.88001,0 h 2.56646 v -1.29334 h -2.56646 z m -10.34667,0 h 5.17332 v -1.29334 h -5.17332 z"
       id="path1046" />
    <path
       style="fill:none;stroke:#ffffff;stroke-width:0.222292px;stroke-linecap:butt;stroke-linejoin:miter;stroke-miterlimit:10;stroke-dasharray:none;stroke-opacity:1"
       d="m 21.35881,-189.02762 v -45.26667 h 107.02333 v 45.26667 z"
       id="path1048" />
  </g>
</svg>
