<?xml version="1.0" encoding="UTF-8" standalone="no"?>
<svg
   xmlns:dc="http://purl.org/dc/elements/1.1/"
   xmlns:cc="http://creativecommons.org/ns#"
   xmlns:rdf="http://www.w3.org/1999/02/22-rdf-syntax-ns#"
   xmlns:svg="http://www.w3.org/2000/svg"
   xmlns="http://www.w3.org/2000/svg"
   xmlns:sodipodi="http://sodipodi.sourceforge.net/DTD/sodipodi-0.dtd"
   xmlns:inkscape="http://www.inkscape.org/namespaces/inkscape"
   width="118.01414mm"
   height="107.04037mm"
   viewBox="0 0 118.01414 107.04037"
   version="1.1"
   id="svg18254"
   inkscape:version="1.0.2-2 (e86c870879, 2021-01-15)"
   sodipodi:docname="Figure10.22b.svg">
  <defs
     id="defs18248">
    <clipPath
       id="clip0">
      <rect
         x="232"
         y="188"
         width="478"
         height="437"
         id="rect18817" />
    </clipPath>
  </defs>
  <sodipodi:namedview
     id="base"
     pagecolor="#ffffff"
     bordercolor="#666666"
     borderopacity="1.0"
     inkscape:pageopacity="0.0"
     inkscape:pageshadow="2"
     inkscape:zoom="0.35"
     inkscape:cx="460.16169"
     inkscape:cy="927.99528"
     inkscape:document-units="mm"
     inkscape:current-layer="layer1"
     inkscape:document-rotation="0"
     showgrid="false"
     fit-margin-top="0"
     fit-margin-left="0"
     fit-margin-right="0"
     fit-margin-bottom="0"
     inkscape:window-width="1258"
     inkscape:window-height="1040"
     inkscape:window-x="78"
     inkscape:window-y="0"
     inkscape:window-maximized="0" />
  <metadata
     id="metadata18251">
    <rdf:RDF>
      <cc:Work
         rdf:about="">
        <dc:format>image/svg+xml</dc:format>
        <dc:type
           rdf:resource="http://purl.org/dc/dcmitype/StillImage" />
        <dc:title></dc:title>
      </cc:Work>
    </rdf:RDF>
  </metadata>
  <g
     inkscape:label="Capa 1"
     inkscape:groupmode="layer"
     id="layer1"
     transform="translate(15.917782,97.365419)">
    <path
       d="m -1.5238233,-3.6604135 2.72e-5,-87.9300365 h -0.2645833 l -2.73e-5,87.9300365 z m 0.92606808,-87.5770825 -1.05833198,-2.116666 -1.0583347,2.116666 z"
       id="path18822"
       style="stroke-width:0.264583" />
    <path
       d="M -1.656115,-3.7927052 H 99.767671 v 0.2645833 H -1.656115 Z m 101.070832,-0.9260416 2.116663,1.0583333 -2.116663,1.0583333 z"
       id="path18824"
       style="stroke-width:0.264583" />
    <text
       font-family="'Cambria Math', 'Cambria Math_MSFontService', sans-serif"
       font-weight="400"
       font-size="9.78958px"
       id="text18826"
       x="95.738861"
       y="7.8489614"
       style="stroke-width:0.264583">Q</text>
    <path
       d="M -1.7884067,-33.690621 C 16.601458,-34.710326 35.028364,-35.705953 48.774526,-44.713957 62.520424,-53.721696 71.622355,-70.693659 80.761592,-87.665621"
       stroke="#000000"
       stroke-width="1.5875"
       stroke-linejoin="round"
       stroke-miterlimit="10"
       fill="none"
       fill-rule="evenodd"
       id="path18828" />
    <path
       d="m 66.341801,-65.440621 c 0,-0.949854 0.710671,-1.719792 1.5875,-1.719792 0.876829,0 1.5875,0.769938 1.5875,1.719792 0,0.949854 -0.710671,1.719792 -1.5875,1.719792 -0.876829,0 -1.5875,-0.769938 -1.5875,-1.719792 z"
       stroke="#000000"
       stroke-linejoin="round"
       stroke-miterlimit="10"
       fill-rule="evenodd"
       id="path18830"
       style="stroke-width:0.264583" />
    <path
       d="M 67.929301,-64.249996 V -1.5437469"
       stroke="#000000"
       stroke-width="0.352777"
       stroke-linejoin="round"
       stroke-miterlimit="10"
       stroke-dasharray="1.41111, 1.05833"
       fill="none"
       fill-rule="evenodd"
       id="path18832" />
    <path
       d="m 0.46055164,-33.55833 -4.49791664,2.8e-5"
       stroke="#000000"
       stroke-linejoin="round"
       stroke-miterlimit="10"
       stroke-dasharray="1.05833, 0.79375"
       fill="none"
       fill-rule="evenodd"
       id="path18834"
       style="stroke-width:0.264583" />
    <text
       font-family="'Cambria Math', 'Cambria Math_MSFontService', sans-serif"
       font-weight="400"
       font-size="9.78958px"
       id="text18842"
       x="61.225819"
       y="7.0552111"
       style="stroke-width:0.264583">Q<tspan
   font-size="7.14375px"
   x="67.977982"
   y="9.1718779"
   id="tspan18836"
   style="stroke-width:0.0700043">NOM</tspan><tspan
   font-size="9.78958px"
   x="82.764435"
   y="-46.126038"
   id="tspan18838"
   style="stroke-width:0.0700043">H</tspan><tspan
   font-size="7.14375px"
   x="89.555283"
   y="-44.009373"
   id="tspan18840"
   style="stroke-width:0.0700043">f</tspan></text>
    <path
       d="m -1.656115,-65.572913 h 82.45713"
       stroke="#000000"
       stroke-width="0.176389"
       stroke-miterlimit="8"
       stroke-dasharray="0.705556, 0.529167"
       fill="none"
       fill-rule="evenodd"
       id="path18844" />
    <path
       d="m -1.656115,-33.55833 h 82.45713"
       stroke="#000000"
       stroke-width="0.176389"
       stroke-miterlimit="8"
       stroke-dasharray="0.705556, 0.529167"
       fill="none"
       fill-rule="evenodd"
       id="path18846" />
    <path
       d="m 79.39449,-65.398023 v 31.723806 h -0.176212 v -31.723806 z m -1.399116,2.071952 1.31101,-2.247106 1.31101,2.247106 c 0.02434,0.04207 0.01032,0.09604 -0.03175,0.12065 -0.04207,0.02461 -0.09604,0.01032 -0.12065,-0.03175 l -1.23481,-2.116667 h 0.1524 l -1.23481,2.116667 c -0.02434,0.04207 -0.07858,0.05636 -0.12065,0.03175 -0.04207,-0.02461 -0.05609,-0.07858 -0.03175,-0.12065 z m 2.62202,27.579902 -1.31101,2.247106 -1.310746,-2.247106 c -0.02461,-0.04207 -0.01032,-0.09631 0.03175,-0.12065 0.04207,-0.02461 0.09604,-0.01032 0.120386,0.03175 l 1.23481,2.116666 h -0.1524 l 1.23481,-2.116666 c 0.02461,-0.04207 0.07858,-0.05636 0.12065,-0.03175 0.04207,0.02434 0.05609,0.07858 0.03175,0.12065 z"
       id="path18848"
       style="stroke-width:0.264583" />
    <path
       d="m -3.5081983,-33.822913 c 0,-1.022879 0.7699375,-1.852083 1.7197916,-1.852083 0.94985418,0 1.71979168,0.829204 1.71979168,1.852083 0,1.022879 -0.7699375,1.852083 -1.71979168,1.852083 -0.9498541,0 -1.7197916,-0.829204 -1.7197916,-1.852083 z"
       stroke="#000000"
       stroke-linejoin="round"
       stroke-miterlimit="10"
       fill-rule="evenodd"
       id="path18850"
       style="stroke-width:0.264583" />
    <text
       font-family="'Cambria Math', 'Cambria Math_MSFontService', sans-serif"
       font-weight="400"
       font-size="9.78958px"
       id="text18860"
       x="-5.3330293"
       y="7.5843778"
       style="stroke-width:0.264583">0<tspan
   font-size="9.78958px"
   x="2.3510787"
   y="-90.840622"
   id="tspan18852"
   style="stroke-width:0.0700043">H</tspan><tspan
   font-size="7.14375px"
   x="9.1420603"
   y="-88.988541"
   id="tspan18854"
   style="stroke-width:0.0700043">D</tspan><tspan
   font-size="9.78958px"
   x="-16.49617"
   y="-32.63229"
   id="tspan18856"
   style="stroke-width:0.0700043">H</tspan><tspan
   font-size="7.14375px"
   x="-9.7051897"
   y="-30.515621"
   id="tspan18858"
   style="stroke-width:0.0700043">S</tspan></text>
  </g>
</svg>
