<?xml version="1.0" encoding="UTF-8" standalone="no"?>
<!-- Created with Inkscape (http://www.inkscape.org/) -->

<svg
   version="1.1"
   id="svg4052"
   xml:space="preserve"
   width="671.28003"
   height="923.97601"
   viewBox="0 0 671.28003 923.97601"
   sodipodi:docname="sunpath - solar_path_latitude.svg"
   inkscape:version="1.2.1 (9c6d41e410, 2022-07-14)"
   inkscape:export-filename="sunpath - solar_path_latitude.png"
   inkscape:export-xdpi="300"
   inkscape:export-ydpi="300"
   xmlns:inkscape="http://www.inkscape.org/namespaces/inkscape"
   xmlns:sodipodi="http://sodipodi.sourceforge.net/DTD/sodipodi-0.dtd"
   xmlns="http://www.w3.org/2000/svg"
   xmlns:svg="http://www.w3.org/2000/svg"
   xmlns:rdf="http://www.w3.org/1999/02/22-rdf-syntax-ns#"
   xmlns:cc="http://creativecommons.org/ns#"
   xmlns:dc="http://purl.org/dc/elements/1.1/"><metadata
     id="metadata4058"><rdf:RDF><cc:Work
         rdf:about=""><dc:format>image/svg+xml</dc:format><dc:type
           rdf:resource="http://purl.org/dc/dcmitype/StillImage" /><dc:title /></cc:Work></rdf:RDF></metadata><defs
     id="defs4056"><clipPath
       clipPathUnits="userSpaceOnUse"
       id="clipPath4068"><path
         d="M 0,692.982 H 503.46 V 0 H 0 Z"
         id="path4066"
         inkscape:connector-curvature="0" /></clipPath><clipPath
       clipPathUnits="userSpaceOnUse"
       id="clipPath4076"><path
         d="m 210.288,650.382 h 78.717 v -24.138 h -78.717 z"
         id="path4074"
         inkscape:connector-curvature="0" /></clipPath><clipPath
       clipPathUnits="userSpaceOnUse"
       id="clipPath4112"><path
         d="M 0,692.982 H 503.46 V 0 H 0 Z"
         id="path4110"
         inkscape:connector-curvature="0" /></clipPath><clipPath
       clipPathUnits="userSpaceOnUse"
       id="clipPath4330"><path
         d="M 0,692.982 H 503.46 V 0 H 0 Z"
         id="path4328"
         inkscape:connector-curvature="0" /></clipPath><clipPath
       clipPathUnits="userSpaceOnUse"
       id="clipPath4394"><path
         d="M 0,692.982 H 503.46 V 0 H 0 Z"
         id="path4392"
         inkscape:connector-curvature="0" /></clipPath><clipPath
       clipPathUnits="userSpaceOnUse"
       id="clipPath4440"><path
         d="M 0,692.982 H 503.46 V 0 H 0 Z"
         id="path4438"
         inkscape:connector-curvature="0" /></clipPath><clipPath
       clipPathUnits="userSpaceOnUse"
       id="clipPath4476"><path
         d="M 0,692.982 H 503.46 V 0 H 0 Z"
         id="path4474"
         inkscape:connector-curvature="0" /></clipPath><clipPath
       clipPathUnits="userSpaceOnUse"
       id="clipPath4536"><path
         d="M 0,692.982 H 503.46 V 0 H 0 Z"
         id="path4534"
         inkscape:connector-curvature="0" /></clipPath><clipPath
       clipPathUnits="userSpaceOnUse"
       id="clipPath4564"><path
         d="M 0,692.982 H 503.46 V 0 H 0 Z"
         id="path4562"
         inkscape:connector-curvature="0" /></clipPath><clipPath
       clipPathUnits="userSpaceOnUse"
       id="clipPath4620"><path
         d="M 73.6188,292.697 H 151.209 V 285.52 H 73.6188 Z"
         id="path4618"
         inkscape:connector-curvature="0" /></clipPath><clipPath
       clipPathUnits="userSpaceOnUse"
       id="clipPath4640"><path
         d="m 73.6573,329.418 h 77.6107 v -77.61 H 73.6573 Z"
         id="path4638"
         inkscape:connector-curvature="0" /></clipPath><clipPath
       clipPathUnits="userSpaceOnUse"
       id="clipPath4746"><path
         d="m 73.8918,159.11 h 77.5902 v -7.177 H 73.8918 Z"
         id="path4744"
         inkscape:connector-curvature="0" /></clipPath><clipPath
       clipPathUnits="userSpaceOnUse"
       id="clipPath4766"><path
         d="M 73.9303,195.832 H 151.541 V 118.221 H 73.9303 Z"
         id="path4764"
         inkscape:connector-curvature="0" /></clipPath><clipPath
       clipPathUnits="userSpaceOnUse"
       id="clipPath4870"><path
         d="m 212.132,160.522 h 77.591 v -7.176 h -77.591 z"
         id="path4868"
         inkscape:connector-curvature="0" /></clipPath><clipPath
       clipPathUnits="userSpaceOnUse"
       id="clipPath4890"><path
         d="m 212.113,194.075 h 77.629 v -77.628 h -77.629 z"
         id="path4888"
         inkscape:connector-curvature="0" /></clipPath><clipPath
       clipPathUnits="userSpaceOnUse"
       id="clipPath4968"><path
         d="m 348.38,161.162 h 77.59 v -7.177 h -77.59 z"
         id="path4966"
         inkscape:connector-curvature="0" /></clipPath><clipPath
       clipPathUnits="userSpaceOnUse"
       id="clipPath5016"><path
         d="m 348.37,194.93 h 77.609 V 117.32 H 348.37 Z"
         id="path5014"
         inkscape:connector-curvature="0" /></clipPath><clipPath
       clipPathUnits="userSpaceOnUse"
       id="clipPath5096"><path
         d="m 348.107,294.749 h 77.59 v -7.177 h -77.59 z"
         id="path5094"
         inkscape:connector-curvature="0" /></clipPath><clipPath
       clipPathUnits="userSpaceOnUse"
       id="clipPath5136"><path
         d="m 348.097,328.516 h 77.609 v -77.609 h -77.609 z"
         id="path5134"
         inkscape:connector-curvature="0" /></clipPath><clipPath
       clipPathUnits="userSpaceOnUse"
       id="clipPath5236"><path
         d="m 211.399,295.221 h 77.591 v -7.177 h -77.591 z"
         id="path5234"
         inkscape:connector-curvature="0" /></clipPath><clipPath
       clipPathUnits="userSpaceOnUse"
       id="clipPath5256"><path
         d="m 211.38,328.774 h 77.629 V 251.145 H 211.38 Z"
         id="path5254"
         inkscape:connector-curvature="0" /></clipPath></defs><sodipodi:namedview
     pagecolor="#ffffff"
     bordercolor="#666666"
     borderopacity="1"
     objecttolerance="10"
     gridtolerance="10"
     guidetolerance="10"
     inkscape:pageopacity="0"
     inkscape:pageshadow="2"
     inkscape:window-width="1920"
     inkscape:window-height="1017"
     id="namedview4054"
     showgrid="false"
     inkscape:zoom="1.0216716"
     inkscape:cx="378.79099"
     inkscape:cy="433.60313"
     inkscape:window-x="-8"
     inkscape:window-y="-8"
     inkscape:window-maximized="1"
     inkscape:current-layer="g4060"
     inkscape:pagecheckerboard="0"
     inkscape:showpageshadow="2"
     inkscape:deskcolor="#d1d1d1" /><g
     id="g4060"
     inkscape:groupmode="layer"
     inkscape:label="Aurora Project_figures"
     transform="matrix(1.3333333,0,0,-1.3333333,0,923.976)">









<g
   id="g838"><text
     transform="scale(1,-1)"
     style="font-variant:normal;font-weight:bold;font-stretch:normal;font-size:15px;font-family:Calibri;-inkscape-font-specification:Calibri-Bold;writing-mode:lr-tb;fill:#5fa1d8;fill-opacity:1;fill-rule:nonzero;stroke:none"
     id="text4088-7"
     y="-624.50397"
     inkscape:export-filename="D:\OneDrive - Universidad Politécnica de Madrid\01-IES\2022 libro PV - Marta\figures\solar_path_latitude.png"
     inkscape:export-xdpi="300"
     inkscape:export-ydpi="300"
     x="228.0845"><tspan
       x="228.0845 235.50951 243.80901 253.94901 261.92902 265.93399 273.86902"
       y="-624.50397"
       sodipodi:role="line"
       id="tspan4086-0">TROPICS</tspan></text><path
     d="m 317.4144,486.75059 h -126.137 v 126.137 h 126.137 z"
     style="fill:#2c4f97;fill-opacity:1;fill-rule:nonzero;stroke:none"
     id="path4714"
     inkscape:connector-curvature="0" /><g
     id="g4720"
     transform="translate(256.4908,586.78379)"><path
       d="M 0,0 C 0.535,-0.051 0.927,-0.525 0.876,-1.06 0.825,-1.594 0.35,-1.987 -0.184,-1.936 -0.719,-1.885 -1.111,-1.41 -1.06,-0.876 -1.009,-0.341 -0.535,0.051 0,0"
       style="fill:#ebd742;fill-opacity:1;fill-rule:nonzero;stroke:none"
       id="path4722"
       inkscape:connector-curvature="0" /></g><g
     id="g4724"
     transform="translate(238.8513,586.78379)"><path
       d="M 0,0 C 0.535,-0.051 0.927,-0.525 0.876,-1.06 0.825,-1.594 0.35,-1.987 -0.184,-1.936 -0.719,-1.885 -1.111,-1.41 -1.06,-0.876 -1.009,-0.341 -0.534,0.051 0,0"
       style="fill:#ebd742;fill-opacity:1;fill-rule:nonzero;stroke:none"
       id="path4726"
       inkscape:connector-curvature="0" /></g><g
     id="g4728"
     transform="translate(254.7205,581.14559)"><path
       d="M 0,0 C 0.392,-0.037 0.679,-0.385 0.642,-0.777 0.604,-1.169 0.257,-1.456 -0.135,-1.419 -0.527,-1.381 -0.814,-1.033 -0.777,-0.642 -0.74,-0.25 -0.392,0.037 0,0"
       style="fill:#ebd742;fill-opacity:1;fill-rule:nonzero;stroke:none"
       id="path4730"
       inkscape:connector-curvature="0" /></g><g
     id="g4732"
     transform="translate(258.699,589.25179)"><path
       d="M 0,0 -0.509,0.101 C -2.971,-3.087 -4.986,-9.995 -6.175,-19.072 h 0.511 C -4.461,-9.91 -2.43,-2.945 0,0"
       style="fill:#ebd742;fill-opacity:1;fill-rule:nonzero;stroke:none"
       id="path4734"
       inkscape:connector-curvature="0" /></g><g
     id="g4736"
     transform="translate(239.6013,587.38939)"><path
       d="M 0,0 -0.701,-0.274 C -2.437,-4.022 -3.85,-9.928 -4.757,-17.21 h 0.548 C -3.254,-9.726 -1.771,-3.635 0,0"
       style="fill:#ebd742;fill-opacity:1;fill-rule:nonzero;stroke:none"
       id="path4738"
       inkscape:connector-curvature="0" /></g><g
     id="g4740"
     transform="translate(140.2114,393.90459)"><g
       id="g4742" /><g
       id="g4754"><g
         clip-path="url(#clipPath4746)"
         id="g4752"
         style="opacity:0.699997"><g
           transform="translate(151.4822,155.5217)"
           id="g4750"><path
             d="m 0,0 c 0,-1.982 -17.369,-3.588 -38.795,-3.588 -21.426,0 -38.795,1.606 -38.795,3.588 0,1.982 17.369,3.588 38.795,3.588 C -17.369,3.588 0,1.982 0,0"
             style="fill:#b9def3;fill-opacity:1;fill-rule:nonzero;stroke:none"
             id="path4748"
             inkscape:connector-curvature="0" /></g></g></g></g><g
     id="g4756"
     transform="translate(237.077,581.10329)"><path
       d="M 0,0 C 0.368,-0.035 0.639,-0.362 0.603,-0.731 0.568,-1.099 0.241,-1.369 -0.127,-1.334 -0.495,-1.299 -0.766,-0.972 -0.731,-0.603 -0.695,-0.235 -0.368,0.035 0,0"
       style="fill:#ebd742;fill-opacity:1;fill-rule:nonzero;stroke:none"
       id="path4758"
       inkscape:connector-curvature="0" /></g><g
     id="g4760"
     transform="translate(140.2114,393.90459)"><g
       id="g4762" /><g
       id="g4774"><g
         clip-path="url(#clipPath4766)"
         id="g4772"
         style="opacity:0.639999"><g
           transform="translate(151.4861,159.0676)"
           id="g4770"><path
             d="m 0,0 c 1.127,-21.401 -15.308,-39.664 -36.709,-40.792 -21.402,-1.127 -39.665,15.308 -40.792,36.709 -1.127,21.402 15.308,39.665 36.709,40.792 C -19.391,37.837 -1.127,21.401 0,0"
             style="fill:#5fa1d8;fill-opacity:1;fill-rule:nonzero;stroke:none"
             id="path4768"
             inkscape:connector-curvature="0" /></g></g></g></g><g
     id="g4776"
     transform="translate(268.6581,578.11779)"><path
       d="M 0,0 C 1.547,0.083 2.868,-1.103 2.951,-2.65 3.034,-4.197 1.848,-5.518 0.301,-5.601 -1.246,-5.684 -2.567,-4.498 -2.65,-2.951 -2.733,-1.404 -1.547,-0.083 0,0"
       style="fill:#ebd742;fill-opacity:1;fill-rule:nonzero;stroke:none"
       id="path4778"
       inkscape:connector-curvature="0" /></g><g
     id="g4780"
     transform="translate(266.883,585.07179)"><path
       d="M 0,0 C 1.008,0.054 1.869,-0.719 1.923,-1.727 1.977,-2.734 1.204,-3.595 0.196,-3.65 -0.812,-3.704 -1.673,-2.931 -1.727,-1.923 -1.781,-0.915 -1.008,-0.054 0,0"
       style="fill:#ebd742;fill-opacity:1;fill-rule:nonzero;stroke:none"
       id="path4782"
       inkscape:connector-curvature="0" /></g><g
     id="g4784"
     transform="translate(261.5501,592.52929)"><path
       d="M 0,0 C 0.75,0.04 1.391,-0.535 1.431,-1.285 1.472,-2.035 0.896,-2.676 0.146,-2.716 -0.604,-2.757 -1.245,-2.181 -1.285,-1.431 -1.326,-0.681 -0.75,-0.04 0,0"
       style="fill:#ebd742;fill-opacity:1;fill-rule:nonzero;stroke:none"
       id="path4786"
       inkscape:connector-curvature="0" /></g><g
     id="g4788"
     transform="translate(270.0754,568.01979)"><path
       d="M 0,0 C 1.803,0.097 3.344,-1.286 3.441,-3.089 3.538,-4.893 2.154,-6.433 0.351,-6.53 -1.452,-6.627 -2.992,-5.244 -3.089,-3.441 -3.186,-1.637 -1.803,-0.097 0,0"
       style="fill:#ebd742;fill-opacity:1;fill-rule:nonzero;stroke:none"
       id="path4790"
       inkscape:connector-curvature="0" /></g><g
     id="g4792"
     transform="translate(261.3076,590.78019)"><path
       d="m 0,0 c 1.437,0 2.799,-1.369 4.019,-3.805 l 0.473,0.082 C 3.149,-1.02 1.627,0.5 0,0.5 c -1.091,0 -2.134,-0.687 -3.108,-1.948 l 0.509,-0.101 C -1.773,-0.548 -0.902,0 0,0"
       style="fill:#ebd742;fill-opacity:1;fill-rule:nonzero;stroke:none"
       id="path4794"
       inkscape:connector-curvature="0" /></g><g
     id="g4796"
     transform="translate(266.2263,586.14449)"><path
       d="m 0,0 h -0.508 c 2.988,-6.701 5.029,-19.979 5.029,-35.237 0,-21.986 -4.235,-39.872 -9.44,-39.872 -0.892,0 -1.755,0.537 -2.574,1.519 l -0.534,-0.071 c 0.975,-1.261 2.018,-1.948 3.108,-1.948 5.574,0 9.94,17.733 9.94,40.372 C 5.021,-19.917 3.02,-6.852 0,0"
       style="fill:#ebd742;fill-opacity:1;fill-rule:nonzero;stroke:none"
       id="path4798"
       inkscape:connector-curvature="0" /></g><g
     id="g4800"
     transform="translate(262.9834,589.00539)"><path
       d="M 0,0 2.944,0.405 V -2.861 Z"
       style="fill:#ebd742;fill-opacity:1;fill-rule:nonzero;stroke:none"
       id="path4802"
       inkscape:connector-curvature="0" /></g><g
     id="g4804"
     transform="translate(244.9639,588.91539)"><path
       d="M 0,0 2.944,0.405 V -2.861 Z"
       style="fill:#ebd742;fill-opacity:1;fill-rule:nonzero;stroke:none"
       id="path4806"
       inkscape:connector-curvature="0" /></g><g
     id="g4808"
     transform="translate(251.969,556.67729)"><path
       d="m 0,0 h -0.195 v -0.079 c 0,-0.769 0,-1.537 0.001,-2.306 0,-0.177 -0.068,-0.312 -0.234,-0.383 -0.25,-0.108 -0.518,0.074 -0.519,0.352 -0.002,0.688 -0.001,1.375 -0.001,2.063 0,0.203 0,0.407 0.001,0.61 0.002,0.623 0.481,1.113 1.103,1.119 0.646,0.006 1.292,0.006 1.938,0 0.622,-0.006 1.101,-0.493 1.104,-1.119 0.003,-0.885 10e-4,-1.77 0,-2.656 0,-0.199 -0.114,-0.35 -0.289,-0.389 C 2.738,-2.827 2.56,-2.749 2.488,-2.59 2.46,-2.53 2.446,-2.458 2.446,-2.391 2.443,-1.618 2.444,-0.846 2.444,-0.073 V 0 H 2.248 v -0.088 c 0,-2.197 0,-4.394 -0.001,-6.591 0,-0.067 -0.003,-0.136 -0.02,-0.2 C 2.164,-7.119 1.928,-7.272 1.674,-7.245 1.438,-7.219 1.248,-7.017 1.232,-6.776 1.23,-6.74 1.23,-6.704 1.23,-6.669 c 0,1.253 0,2.505 0,3.758 v 0.084 H 1.021 v -0.074 c 0,-1.271 0,-2.541 0,-3.812 0,-0.243 -0.132,-0.437 -0.344,-0.508 C 0.354,-7.33 0.02,-7.101 0.004,-6.759 0.002,-6.729 0.003,-6.7 0.003,-6.67 0.002,-4.475 0.001,-2.28 0,-0.085 0,-0.058 0,-0.031 0,0"
       style="fill:#ffffff;fill-opacity:1;fill-rule:nonzero;stroke:none"
       id="path4810"
       inkscape:connector-curvature="0" /></g><g
     id="g4812"
     transform="translate(252.2284,559.14879)"><path
       d="M 0,0 C 0.002,0.48 0.389,0.864 0.869,0.862 1.349,0.86 1.734,0.471 1.733,-0.008 1.731,-0.484 1.339,-0.873 0.862,-0.871 0.384,-0.87 -0.002,-0.479 0,0"
       style="fill:#ffffff;fill-opacity:1;fill-rule:nonzero;stroke:none"
       id="path4814"
       inkscape:connector-curvature="0" /></g><g
     id="g4816"
     transform="translate(247.7195,585.92359)"><path
       d="m 0,0 c 2.793,-6.944 4.727,-20.183 4.727,-34.993 0,-21.748 -4.17,-40.122 -9.106,-40.122 -1.314,0 -2.573,1.312 -3.714,3.632 l -0.707,0.285 c 1.317,-2.824 2.816,-4.417 4.421,-4.417 5.387,0 9.606,17.844 9.606,40.622 0,15.231 -1.887,28.245 -4.748,35.204 z"
       style="fill:#ebd742;fill-opacity:1;fill-rule:nonzero;stroke:none"
       id="path4818"
       inkscape:connector-curvature="0" /></g><g
     id="g4820"
     transform="translate(238.8967,587.08739)"><path
       d="m 0,0 0.701,0.274 c 1.149,2.358 2.417,3.692 3.742,3.692 1.174,0 2.303,-1.049 3.344,-2.924 L 8.212,1.33 C 7.06,3.354 5.788,4.466 4.443,4.466 2.83,4.466 1.322,2.855 0,0"
       style="fill:#ebd742;fill-opacity:1;fill-rule:nonzero;stroke:none"
       id="path4822"
       inkscape:connector-curvature="0" /></g><g
     id="g4824"
     transform="translate(250.6386,578.11779)"><path
       d="M 0,0 C 1.547,0.083 2.868,-1.103 2.951,-2.65 3.034,-4.197 1.848,-5.518 0.301,-5.601 -1.246,-5.684 -2.567,-4.498 -2.65,-2.951 -2.733,-1.404 -1.547,-0.083 0,0"
       style="fill:#ebd742;fill-opacity:1;fill-rule:nonzero;stroke:none"
       id="path4826"
       inkscape:connector-curvature="0" /></g><g
     id="g4828"
     transform="translate(248.8635,584.99709)"><path
       d="M 0,0 C 1.008,0.054 1.869,-0.719 1.923,-1.727 1.977,-2.734 1.204,-3.595 0.196,-3.65 -0.812,-3.704 -1.673,-2.931 -1.727,-1.923 -1.781,-0.915 -1.008,-0.054 0,0"
       style="fill:#ebd742;fill-opacity:1;fill-rule:nonzero;stroke:none"
       id="path4830"
       inkscape:connector-curvature="0" /></g><g
     id="g4832"
     transform="translate(243.5306,592.45459)"><path
       d="m 0,0 c 0.75,0.04 1.391,-0.535 1.431,-1.285 0.041,-0.75 -0.535,-1.391 -1.285,-1.432 -0.75,-0.04 -1.391,0.536 -1.431,1.286 C -1.326,-0.681 -0.75,-0.04 0,0"
       style="fill:#ebd742;fill-opacity:1;fill-rule:nonzero;stroke:none"
       id="path4834"
       inkscape:connector-curvature="0" /></g><g
     id="g4836"
     transform="translate(252.0529,568.01979)"><path
       d="M 0,0 C 1.803,0.097 3.344,-1.286 3.441,-3.089 3.538,-4.893 2.154,-6.433 0.351,-6.53 -1.452,-6.627 -2.993,-5.244 -3.089,-3.441 -3.186,-1.637 -1.803,-0.097 0,0"
       style="fill:#ebd742;fill-opacity:1;fill-rule:nonzero;stroke:none"
       id="path4838"
       inkscape:connector-curvature="0" /></g></g><g
   id="g714"><text
     transform="scale(1,-1)"
     style="font-variant:normal;font-weight:bold;font-stretch:normal;font-size:15px;font-family:Calibri;-inkscape-font-specification:Calibri-Bold;writing-mode:lr-tb;fill:#5fa1d8;fill-opacity:1;fill-rule:nonzero;stroke:none"
     id="text4088-6"
     y="-290.49249"
     inkscape:export-filename="D:\OneDrive - Universidad Politécnica de Madrid\01-IES\2022 libro PV - Marta\figures\solar_path_latitude.png"
     inkscape:export-xdpi="300"
     inkscape:export-ydpi="300"
     x="-50.031918"><tspan
       x="199.82312 209.28812 213.29312 222.84811 232.31311 235.70309 242.0481 249.95761 257.3826 261.3876 268.81262 278.6076 288.05762 295.2291"
       sodipodi:role="line"
       id="tspan4086-3">HIGH LATITUDES</tspan></text><path
     d="m 314.43615,152.94914 h -126.137 v 126.137 h 126.137 z"
     style="fill:#2c4f97;fill-opacity:1;fill-rule:nonzero;stroke:none"
     id="path4718"
     inkscape:connector-curvature="0" /><g
     id="g4962"
     transform="translate(-135.80685,59.89314)"><g
       id="g4964" /><g
       id="g4976"><g
         clip-path="url(#clipPath4968)"
         id="g4974"
         style="opacity:0.699997"><g
           transform="translate(425.97,157.5737)"
           id="g4972"><path
             d="m 0,0 c 0,-1.982 -17.369,-3.588 -38.795,-3.588 -21.426,0 -38.795,1.606 -38.795,3.588 0,1.982 17.369,3.588 38.795,3.588 C -17.369,3.588 0,1.982 0,0"
             style="fill:#b9def3;fill-opacity:1;fill-rule:nonzero;stroke:none"
             id="path4970"
             inkscape:connector-curvature="0" /></g></g></g></g><g
     id="g4978"
     transform="translate(287.30695,232.10504)"><path
       d="M 0,0 2.163,-2.037 -0.379,-4.088 Z"
       style="fill:#ebd742;fill-opacity:1;fill-rule:nonzero;stroke:none"
       id="path4980"
       inkscape:connector-curvature="0" /></g><g
     id="g4982"
     transform="translate(281.50205,235.76464)"><path
       d="m 0,0 c 0.296,-0.448 0.173,-1.051 -0.276,-1.347 -0.448,-0.296 -1.051,-0.172 -1.346,0.276 -0.296,0.448 -0.173,1.051 0.275,1.347 C -0.899,0.571 -0.296,0.448 0,0"
       style="fill:#ebd742;fill-opacity:1;fill-rule:nonzero;stroke:none"
       id="path4984"
       inkscape:connector-curvature="0" /></g><g
     id="g4986"
     transform="translate(270.42955,249.49604)"><path
       d="m 0,0 c 0.296,-0.448 0.173,-1.051 -0.276,-1.347 -0.448,-0.296 -1.051,-0.172 -1.346,0.276 -0.296,0.448 -0.173,1.051 0.275,1.347 C -0.899,0.571 -0.296,0.448 0,0"
       style="fill:#ebd742;fill-opacity:1;fill-rule:nonzero;stroke:none"
       id="path4988"
       inkscape:connector-curvature="0" /></g><g
     id="g4990"
     transform="translate(266.18755,249.81724)"><path
       d="M 0,0 -2.559,0.047"
       style="fill:#ffffff;fill-opacity:1;fill-rule:nonzero;stroke:none"
       id="path4992"
       inkscape:connector-curvature="0" /></g><g
     id="g4994"
     transform="translate(276.00185,233.60354)"><path
       d="m 0,0 c 0.217,-0.328 0.126,-0.77 -0.202,-0.987 -0.328,-0.217 -0.77,-0.127 -0.987,0.202 -0.217,0.328 -0.127,0.77 0.202,0.987 C -0.659,0.419 -0.217,0.328 0,0"
       style="fill:#ebd742;fill-opacity:1;fill-rule:nonzero;stroke:none"
       id="path4996"
       inkscape:connector-curvature="0" /></g><g
     id="g4998"
     transform="translate(284.80935,235.59494)"><path
       d="m 0,0 -0.241,0.459 c -4.027,-0.084 -10.67,-2.852 -18.481,-7.624 l 0.32,-0.398 C -10.515,-2.748 -3.818,0.043 0,0"
       style="fill:#ebd742;fill-opacity:1;fill-rule:nonzero;stroke:none"
       id="path5000"
       inkscape:connector-curvature="0" /></g><g
     id="g5002"
     transform="translate(271.37175,249.29234)"><path
       d="M 0,0 -0.654,0.373 C -4.66,-0.628 -10.145,-3.235 -16.383,-7.1 l 0.344,-0.426 C -9.614,-3.572 -3.941,-0.903 0,0"
       style="fill:#ebd742;fill-opacity:1;fill-rule:nonzero;stroke:none"
       id="path5004"
       inkscape:connector-curvature="0" /></g><g
     id="g5006"
     transform="translate(264.89385,247.31154)"><path
       d="m 0,0 c 0.204,-0.309 0.119,-0.724 -0.19,-0.928 -0.309,-0.204 -0.724,-0.119 -0.928,0.19 -0.204,0.308 -0.119,0.724 0.19,0.928 C -0.62,0.394 -0.204,0.309 0,0"
       style="fill:#ebd742;fill-opacity:1;fill-rule:nonzero;stroke:none"
       id="path5008"
       inkscape:connector-curvature="0" /></g><g
     id="g5010"
     transform="translate(-135.80685,59.89314)"><g
       id="g5012" /><g
       id="g5024"><g
         clip-path="url(#clipPath5016)"
         id="g5022"
         style="opacity:0.639999"><g
           transform="translate(413.088,127.2411)"
           id="g5020"><path
             d="m 0,0 c -15.952,-14.311 -40.486,-12.981 -54.797,2.971 -14.311,15.952 -12.981,40.485 2.971,54.797 15.952,14.311 40.485,12.981 54.797,-2.971 C 17.282,38.845 15.952,14.311 0,0"
             style="fill:#5fa1d8;fill-opacity:1;fill-rule:nonzero;stroke:none"
             id="path5018"
             inkscape:connector-curvature="0" /></g></g></g></g><g
     id="g5026"
     transform="translate(275.32655,242.05264)"><path
       d="m 0,0 c -3.653,-6.533 -12.744,-16.349 -24.273,-25.646 -16.929,-13.651 -33.85,-21.938 -36.949,-18.095 -0.825,1.022 -0.593,2.826 0.497,5.17 l -0.223,0.729 c -1.372,-2.797 -1.67,-4.964 -0.663,-6.213 3.381,-4.194 19.921,3.722 37.652,18.02 11.856,9.561 20.802,19.2 24.424,25.795 z"
       style="fill:#ebd742;fill-opacity:1;fill-rule:nonzero;stroke:none"
       id="path5028"
       inkscape:connector-curvature="0" /></g><g
     id="g5030"
     transform="translate(270.69445,249.65124)"><path
       d="M 0,0 0.654,-0.373 C 3.21,0.213 5.045,0.062 5.877,-0.969 6.613,-1.883 6.506,-3.42 5.7,-5.407 l 0.49,-0.151 c 0.852,2.167 0.92,3.856 0.076,4.903 C 5.253,0.601 3.053,0.763 0,0"
       style="fill:#ebd742;fill-opacity:1;fill-rule:nonzero;stroke:none"
       id="path5032"
       inkscape:connector-curvature="0" /></g><g
     id="g5034"
     transform="translate(269.99715,233.68154)"><path
       d="m 0,0 c 1.036,-1.152 0.941,-2.925 -0.21,-3.961 -1.152,-1.035 -2.925,-0.941 -3.961,0.211 -1.036,1.152 -0.942,2.925 0.21,3.96 C -2.809,1.246 -1.036,1.152 0,0"
       style="fill:#ebd742;fill-opacity:1;fill-rule:nonzero;stroke:none"
       id="path5036"
       inkscape:connector-curvature="0" /></g><g
     id="g5038"
     transform="translate(275.32355,240.58054)"><path
       d="m 0,0 c 0.675,-0.751 0.613,-1.906 -0.137,-2.581 -0.751,-0.675 -1.906,-0.613 -2.581,0.137 -0.675,0.751 -0.613,1.906 0.137,2.581 C -1.83,0.812 -0.675,0.751 0,0"
       style="fill:#ebd742;fill-opacity:1;fill-rule:nonzero;stroke:none"
       id="path5040"
       inkscape:connector-curvature="0" /></g><g
     id="g5042"
     transform="translate(277.78125,249.41314)"><path
       d="M 0,0 C 0.502,-0.559 0.457,-1.419 -0.102,-1.921 -0.661,-2.423 -1.521,-2.378 -2.023,-1.819 -2.525,-1.26 -2.48,-0.4 -1.921,0.102 -1.362,0.604 -0.502,0.559 0,0"
       style="fill:#ebd742;fill-opacity:1;fill-rule:nonzero;stroke:none"
       id="path5044"
       inkscape:connector-curvature="0" /></g><g
     id="g5046"
     transform="translate(261.67815,225.12814)"><path
       d="m 0,0 c 1.207,-1.343 1.098,-3.41 -0.245,-4.618 -1.343,-1.207 -3.411,-1.097 -4.618,0.246 -1.207,1.343 -1.097,3.41 0.245,4.617 C -3.275,1.453 -1.207,1.343 0,0"
       style="fill:#ebd742;fill-opacity:1;fill-rule:nonzero;stroke:none"
       id="path5048"
       inkscape:connector-curvature="0" /></g><g
     id="g5050"
     transform="translate(281.36635,219.70124)"><path
       d="m 0,0 c 1.036,-1.152 0.941,-2.925 -0.21,-3.961 -1.152,-1.035 -2.925,-0.941 -3.961,0.211 -1.036,1.152 -0.942,2.925 0.21,3.96 C -2.809,1.246 -1.036,1.152 0,0"
       style="fill:#ebd742;fill-opacity:1;fill-rule:nonzero;stroke:none"
       id="path5052"
       inkscape:connector-curvature="0" /></g><g
     id="g5054"
     transform="translate(286.69265,226.60014)"><path
       d="m 0,0 c 0.675,-0.751 0.613,-1.906 -0.137,-2.581 -0.751,-0.675 -1.906,-0.613 -2.581,0.137 -0.675,0.751 -0.613,1.906 0.137,2.581 C -1.83,0.812 -0.675,0.751 0,0"
       style="fill:#ebd742;fill-opacity:1;fill-rule:nonzero;stroke:none"
       id="path5056"
       inkscape:connector-curvature="0" /></g><g
     id="g5058"
     transform="translate(289.15045,235.43274)"><path
       d="M 0,0 C 0.502,-0.559 0.457,-1.419 -0.102,-1.921 -0.661,-2.423 -1.521,-2.378 -2.023,-1.819 -2.525,-1.26 -2.48,-0.4 -1.921,0.102 -1.362,0.604 -0.502,0.559 0,0"
       style="fill:#ebd742;fill-opacity:1;fill-rule:nonzero;stroke:none"
       id="path5060"
       inkscape:connector-curvature="0" /></g><g
     id="g5062"
     transform="translate(273.04735,211.14784)"><path
       d="m 0,0 c 1.207,-1.343 1.098,-3.41 -0.245,-4.618 -1.343,-1.207 -3.411,-1.097 -4.618,0.246 -1.207,1.343 -1.097,3.41 0.245,4.617 C -3.275,1.453 -1.207,1.343 0,0"
       style="fill:#ebd742;fill-opacity:1;fill-rule:nonzero;stroke:none"
       id="path5064"
       inkscape:connector-curvature="0" /></g><g
     id="g5066"
     transform="translate(287.63665,234.52364)"><path
       d="m 0,0 c 0.902,-1.118 0.692,-3.038 -0.439,-5.517 l 0.361,-0.316 C 1.183,-3.092 1.41,-0.952 0.389,0.314 -0.295,1.163 -1.485,1.543 -3.079,1.51 L -2.838,1.051 C -1.539,1.036 -0.566,0.702 0,0"
       style="fill:#ebd742;fill-opacity:1;fill-rule:nonzero;stroke:none"
       id="path5068"
       inkscape:connector-curvature="0" /></g><g
     id="g5070"
     transform="translate(287.11545,227.78474)"><path
       d="m 0,0 -0.319,0.395 c -3.34,-6.532 -12.395,-16.455 -24.273,-26.033 -17.115,-13.801 -33.697,-21.732 -36.964,-17.68 -0.56,0.695 -0.684,1.704 -0.434,2.958 l -0.39,0.371 c -0.37,-1.55 -0.25,-2.794 0.435,-3.643 3.498,-4.339 20.043,3.394 37.666,17.604 C -12.353,-16.411 -3.438,-6.652 0,0"
       style="fill:#ebd742;fill-opacity:1;fill-rule:nonzero;stroke:none"
       id="path5072"
       inkscape:connector-curvature="0" /></g><g
     id="g5074"
     transform="translate(275.92585,246.07574)"><path
       d="M 0,0 2.163,-2.037 -0.379,-4.088 Z"
       style="fill:#ebd742;fill-opacity:1;fill-rule:nonzero;stroke:none"
       id="path5076"
       inkscape:connector-curvature="0" /></g><g
     id="g5078"
     transform="translate(250.24205,224.89944)"><path
       d="m 0,0 h -0.195 v -0.079 c 0,-0.769 0,-1.537 0.001,-2.306 0,-0.177 -0.068,-0.312 -0.234,-0.383 -0.25,-0.108 -0.518,0.074 -0.519,0.352 -0.002,0.688 -0.001,1.375 -0.001,2.063 0,0.203 0,0.407 0.001,0.61 0.002,0.623 0.481,1.113 1.103,1.119 0.646,0.006 1.292,0.006 1.938,0 0.622,-0.006 1.101,-0.493 1.104,-1.119 0.003,-0.885 10e-4,-1.77 0,-2.656 0,-0.199 -0.114,-0.35 -0.289,-0.389 C 2.738,-2.827 2.56,-2.749 2.488,-2.59 2.46,-2.53 2.446,-2.458 2.446,-2.391 2.443,-1.618 2.444,-0.846 2.444,-0.073 V 0 H 2.248 v -0.088 c 0,-2.197 0,-4.394 -0.001,-6.591 0,-0.067 -0.003,-0.136 -0.02,-0.2 C 2.164,-7.119 1.928,-7.272 1.674,-7.245 1.438,-7.219 1.248,-7.017 1.232,-6.776 1.23,-6.74 1.23,-6.704 1.23,-6.669 c 0,1.253 0,2.505 0,3.758 v 0.084 H 1.021 v -0.074 c 0,-1.271 0,-2.541 0,-3.812 0,-0.243 -0.132,-0.437 -0.344,-0.508 C 0.354,-7.33 0.02,-7.101 0.004,-6.759 0.002,-6.729 0.003,-6.7 0.003,-6.67 0.002,-4.475 0.001,-2.28 0,-0.085 Z"
       style="fill:#ffffff;fill-opacity:1;fill-rule:nonzero;stroke:none"
       id="path5080"
       inkscape:connector-curvature="0" /></g><g
     id="g5082"
     transform="translate(250.50145,227.37104)"><path
       d="M 0,0 C 0.002,0.48 0.389,0.864 0.869,0.862 1.349,0.86 1.734,0.471 1.733,-0.008 1.731,-0.484 1.339,-0.873 0.862,-0.871 0.384,-0.87 -0.002,-0.479 0,0"
       style="fill:#ffffff;fill-opacity:1;fill-rule:nonzero;stroke:none"
       id="path5084"
       inkscape:connector-curvature="0" /></g></g><g
   id="g777"
   transform="translate(0,-1.1011353)"><text
     transform="scale(1,-1)"
     style="font-variant:normal;font-weight:bold;font-stretch:normal;font-size:15px;font-family:Calibri;-inkscape-font-specification:Calibri-Bold;writing-mode:lr-tb;fill:#5fa1d8;fill-opacity:1;fill-rule:nonzero;stroke:none"
     id="text4088"
     y="-458.59937"
     inkscape:export-filename="D:\OneDrive - Universidad Politécnica de Madrid\01-IES\2022 libro PV - Marta\figures\solar_path_latitude.png"
     inkscape:export-xdpi="300"
     inkscape:export-ydpi="300"
     x="82.373192"><tspan
       x="204.03821 217.14819 221.1532 230.6032 236.9482 244.86369 252.2887 256.2937 263.71872 273.5137 282.96371 290.1337"
       sodipodi:role="line"
       id="tspan4086">MIDLATITUDES</tspan></text><path
     d="M 313.996,320.846 H 187.859 v 126.137 h 126.137 z"
     style="fill:#2c4f97;fill-opacity:1;fill-rule:nonzero;stroke:none"
     id="path4716"
     inkscape:connector-curvature="0" /><g
     id="g4840"
     transform="translate(269.9925,413.8309)"><path
       d="M 0,0 C 0.457,-0.283 0.598,-0.882 0.315,-1.338 0.033,-1.795 -0.566,-1.936 -1.023,-1.653 -1.48,-1.371 -1.621,-0.772 -1.338,-0.315 -1.056,0.141 -0.457,0.283 0,0"
       style="fill:#ebd742;fill-opacity:1;fill-rule:nonzero;stroke:none"
       id="path4842"
       inkscape:connector-curvature="0" /></g><g
     id="g4844"
     transform="translate(254.1797,421.6479)"><path
       d="M 0,0 C 0.457,-0.283 0.598,-0.882 0.315,-1.338 0.033,-1.795 -0.567,-1.936 -1.023,-1.653 -1.48,-1.371 -1.621,-0.772 -1.338,-0.315 -1.056,0.141 -0.457,0.283 0,0"
       style="fill:#ebd742;fill-opacity:1;fill-rule:nonzero;stroke:none"
       id="path4846"
       inkscape:connector-curvature="0" /></g><g
     id="g4848"
     transform="translate(250.1945,420.1592)"><path
       d="M 0,0 -2.343,-1.031"
       style="fill:#ffffff;fill-opacity:1;fill-rule:nonzero;stroke:none"
       id="path4850"
       inkscape:connector-curvature="0" /></g><g
     id="g4852"
     transform="translate(265.907,409.5611)"><path
       d="M 0,0 C 0.335,-0.207 0.438,-0.646 0.231,-0.981 0.024,-1.315 -0.415,-1.419 -0.75,-1.212 -1.084,-1.005 -1.188,-0.566 -0.981,-0.231 -0.774,0.104 -0.335,0.207 0,0"
       style="fill:#ebd742;fill-opacity:1;fill-rule:nonzero;stroke:none"
       id="path4854"
       inkscape:connector-curvature="0" /></g><g
     id="g4856"
     transform="translate(273.0658,415.0648)"><path
       d="m 0,0 -0.411,0.316 c -3.62,-1.766 -8.488,-7.067 -13.576,-14.677 l 0.458,-0.226 C -8.391,-6.907 -3.484,-1.563 0,0"
       style="fill:#ebd742;fill-opacity:1;fill-rule:nonzero;stroke:none"
       id="path4858"
       inkscape:connector-curvature="0" /></g><g
     id="g4860"
     transform="translate(255.1204,421.8584)"><path
       d="m 0,0 -0.75,0.065 c -3.217,-2.591 -7.101,-7.259 -11.141,-13.384 l 0.491,-0.243 C -7.227,-7.277 -3.199,-2.473 0,0"
       style="fill:#ebd742;fill-opacity:1;fill-rule:nonzero;stroke:none"
       id="path4862"
       inkscape:connector-curvature="0" /></g><g
     id="g4864"
     transform="translate(0,228)"><g
       id="g4866" /><g
       id="g4878"><g
         clip-path="url(#clipPath4870)"
         id="g4876"
         style="opacity:0.699997"><g
           transform="translate(289.7226,156.934)"
           id="g4874"><path
             d="m 0,0 c 0,-1.982 -17.369,-3.588 -38.795,-3.588 -21.426,0 -38.795,1.606 -38.795,3.588 0,1.982 17.369,3.588 38.795,3.588 C -17.369,3.588 0,1.982 0,0"
             style="fill:#b9def3;fill-opacity:1;fill-rule:nonzero;stroke:none"
             id="path4872"
             inkscape:connector-curvature="0" /></g></g></g></g><g
     id="g4880"
     transform="translate(250.0718,417.342)"><path
       d="M 0,0 C 0.315,-0.195 0.412,-0.608 0.217,-0.922 0.023,-1.237 -0.39,-1.334 -0.705,-1.14 -1.02,-0.945 -1.117,-0.532 -0.922,-0.217 -0.728,0.097 -0.315,0.195 0,0"
       style="fill:#ebd742;fill-opacity:1;fill-rule:nonzero;stroke:none"
       id="path4882"
       inkscape:connector-curvature="0" /></g><g
     id="g4884"
     transform="translate(0,228)"><g
       id="g4886" /><g
       id="g4898"><g
         clip-path="url(#clipPath4890)"
         id="g4896"
         style="opacity:0.639999"><g
           transform="translate(286.5699,139.9188)"
           id="g4894"><path
             d="m 0,0 c -8.473,-19.685 -31.3,-28.773 -50.985,-20.3 -19.685,8.473 -28.773,31.3 -20.3,50.985 8.474,19.685 31.3,28.773 50.985,20.3 C -0.615,42.511 8.473,19.685 0,0"
             style="fill:#5fa1d8;fill-opacity:1;fill-rule:nonzero;stroke:none"
             id="path4892"
             inkscape:connector-curvature="0" /></g></g></g></g><g
     id="g4900"
     transform="translate(276.6106,399.1935)"><path
       d="m 0,0 c 1.423,-0.611 2.082,-2.26 1.471,-3.683 -0.611,-1.424 -2.26,-2.082 -3.683,-1.472 -1.424,0.611 -2.082,2.26 -1.471,3.684 C -3.072,-0.048 -1.423,0.611 0,0"
       style="fill:#ebd742;fill-opacity:1;fill-rule:nonzero;stroke:none"
       id="path4902"
       inkscape:connector-curvature="0" /></g><g
     id="g4904"
     transform="translate(278.55,407.6909)"><path
       d="m 0,0 c 0.927,-0.398 1.357,-1.473 0.959,-2.4 -0.398,-0.927 -1.473,-1.357 -2.4,-0.959 -0.928,0.398 -1.357,1.473 -0.959,2.4 C -2.002,-0.031 -0.927,0.398 0,0"
       style="fill:#ebd742;fill-opacity:1;fill-rule:nonzero;stroke:none"
       id="path4906"
       inkscape:connector-curvature="0" /></g><g
     id="g4908"
     transform="translate(277.0741,416.7395)"><path
       d="m 0,0 c 0.69,-0.296 1.01,-1.096 0.714,-1.786 -0.297,-0.691 -1.097,-1.01 -1.787,-0.714 -0.69,0.296 -1.01,1.096 -0.713,1.786 C -1.49,-0.023 -0.69,0.296 0,0"
       style="fill:#ebd742;fill-opacity:1;fill-rule:nonzero;stroke:none"
       id="path4910"
       inkscape:connector-curvature="0" /></g><g
     id="g4912"
     transform="translate(272.6492,387.9387)"><path
       d="m 0,0 c 1.659,-0.712 2.427,-2.635 1.715,-4.294 -0.712,-1.66 -2.635,-2.428 -4.294,-1.715 -1.66,0.712 -2.427,2.634 -1.715,4.294 C -3.582,-0.056 -1.659,0.712 0,0"
       style="fill:#ebd742;fill-opacity:1;fill-rule:nonzero;stroke:none"
       id="path4914"
       inkscape:connector-curvature="0" /></g><g
     id="g4916"
     transform="translate(276.0816,415.2789)"><path
       d="m 0,0 c 1.288,-0.637 1.903,-2.467 1.917,-5.192 l 0.46,-0.136 C 2.371,-2.31 1.68,-0.273 0.222,0.448 -0.756,0.932 -1.996,0.778 -3.428,0.079 l 0.411,-0.316 C -1.832,0.295 -0.808,0.4 0,0"
       style="fill:#ebd742;fill-opacity:1;fill-rule:nonzero;stroke:none"
       id="path4918"
       inkscape:connector-curvature="0" /></g><g
     id="g4920"
     transform="translate(278.4366,408.9436)"><path
       d="m 0,0 -0.455,0.225 c -0.291,-7.331 -4.345,-20.138 -11.107,-33.817 -9.743,-19.709 -21.466,-33.867 -26.132,-31.56 -0.8,0.396 -1.336,1.26 -1.635,2.503 l -0.51,0.173 c 0.315,-1.562 0.946,-2.641 1.923,-3.124 4.997,-2.47 16.769,11.492 26.802,31.786 C -4.325,-20.08 -0.329,-7.481 0,0"
       style="fill:#ebd742;fill-opacity:1;fill-rule:nonzero;stroke:none"
       id="path4922"
       inkscape:connector-curvature="0" /></g><g
     id="g4924"
     transform="translate(260.6039,420.85)"><path
       d="M 0,0 2.819,-0.941 1.371,-3.869 Z"
       style="fill:#ebd742;fill-opacity:1;fill-rule:nonzero;stroke:none"
       id="path4926"
       inkscape:connector-curvature="0" /></g><g
     id="g4928"
     transform="translate(249.5644,391.5392)"><path
       d="m 0,0 h -0.195 v -0.079 c 0,-0.769 0,-1.537 0.001,-2.306 0,-0.177 -0.068,-0.312 -0.234,-0.383 -0.25,-0.108 -0.518,0.074 -0.519,0.352 -0.002,0.688 -0.001,1.375 -0.001,2.063 0,0.203 0,0.407 0.001,0.61 0.002,0.623 0.481,1.113 1.103,1.119 0.646,0.006 1.292,0.006 1.938,0 0.622,-0.006 1.101,-0.493 1.104,-1.119 0.003,-0.885 10e-4,-1.77 0,-2.656 0,-0.199 -0.114,-0.35 -0.289,-0.389 C 2.738,-2.827 2.56,-2.749 2.488,-2.59 2.46,-2.53 2.446,-2.458 2.446,-2.391 2.443,-1.618 2.444,-0.846 2.444,-0.073 V 0 H 2.248 v -0.088 c 0,-2.197 0,-4.394 -0.001,-6.591 0,-0.067 -0.003,-0.136 -0.02,-0.2 C 2.164,-7.119 1.928,-7.272 1.674,-7.245 1.438,-7.219 1.248,-7.017 1.232,-6.776 1.23,-6.74 1.23,-6.704 1.23,-6.669 c 0,1.253 0,2.505 0,3.758 v 0.084 H 1.021 v -0.074 c 0,-1.271 0,-2.541 0,-3.812 0,-0.243 -0.132,-0.437 -0.344,-0.508 C 0.354,-7.33 0.02,-7.101 0.004,-6.759 0.002,-6.729 0.003,-6.7 0.003,-6.67 0.002,-4.475 0.001,-2.28 0,-0.085 0,-0.058 0,-0.031 0,0"
       style="fill:#ffffff;fill-opacity:1;fill-rule:nonzero;stroke:none"
       id="path4930"
       inkscape:connector-curvature="0" /></g><g
     id="g4932"
     transform="translate(249.8238,394.0108)"><path
       d="M 0,0 C 0.002,0.48 0.389,0.864 0.869,0.862 1.349,0.86 1.734,0.471 1.733,-0.008 1.731,-0.484 1.339,-0.873 0.862,-0.871 0.384,-0.87 -0.002,-0.479 0,0"
       style="fill:#ffffff;fill-opacity:1;fill-rule:nonzero;stroke:none"
       id="path4934"
       inkscape:connector-curvature="0" /></g><g
     id="g4936"
     transform="translate(261.7484,416.9468)"><path
       d="m 0,0 c -0.574,-7.463 -4.706,-20.188 -11.269,-33.464 -9.638,-19.496 -21.519,-34.119 -25.944,-31.932 -1.178,0.582 -1.725,2.316 -1.719,4.902 l -0.508,0.568 c -0.071,-3.115 0.567,-5.207 2.005,-5.918 4.829,-2.387 16.52,11.739 26.614,32.158 6.749,13.653 10.813,26.005 11.333,33.511 z"
       style="fill:#ebd742;fill-opacity:1;fill-rule:nonzero;stroke:none"
       id="path4938"
       inkscape:connector-curvature="0" /></g><g
     id="g4940"
     transform="translate(254.355,421.9)"><path
       d="M 0,0 0.75,-0.065 C 2.825,1.54 4.553,2.174 5.741,1.587 6.793,1.066 7.34,-0.374 7.443,-2.516 l 0.508,0.069 C 7.815,-0.123 7.168,1.439 5.962,2.035 4.516,2.75 2.451,1.974 0,0"
       style="fill:#ebd742;fill-opacity:1;fill-rule:nonzero;stroke:none"
       id="path4942"
       inkscape:connector-curvature="0" /></g><g
     id="g4944"
     transform="translate(260.424,407.112)"><path
       d="m 0,0 c 1.423,-0.611 2.082,-2.26 1.471,-3.683 -0.611,-1.424 -2.26,-2.082 -3.683,-1.472 -1.424,0.611 -2.082,2.26 -1.471,3.684 C -3.073,-0.048 -1.423,0.611 0,0"
       style="fill:#ebd742;fill-opacity:1;fill-rule:nonzero;stroke:none"
       id="path4946"
       inkscape:connector-curvature="0" /></g><g
     id="g4948"
     transform="translate(262.3634,415.6093)"><path
       d="m 0,0 c 0.927,-0.398 1.357,-1.473 0.959,-2.4 -0.398,-0.927 -1.473,-1.357 -2.4,-0.959 -0.928,0.398 -1.357,1.473 -0.959,2.4 C -2.002,-0.031 -0.927,0.398 0,0"
       style="fill:#ebd742;fill-opacity:1;fill-rule:nonzero;stroke:none"
       id="path4950"
       inkscape:connector-curvature="0" /></g><g
     id="g4952"
     transform="translate(260.8875,424.6579)"><path
       d="m 0,0 c 0.69,-0.296 1.01,-1.096 0.714,-1.786 -0.297,-0.691 -1.097,-1.01 -1.787,-0.714 -0.69,0.296 -1.01,1.096 -0.713,1.786 C -1.49,-0.023 -0.69,0.296 0,0"
       style="fill:#ebd742;fill-opacity:1;fill-rule:nonzero;stroke:none"
       id="path4954"
       inkscape:connector-curvature="0" /></g><g
     id="g4956"
     transform="translate(256.4626,395.8571)"><path
       d="M 0,0 C 1.659,-0.712 2.427,-2.635 1.715,-4.294 1.003,-5.954 -0.92,-6.722 -2.579,-6.009 -4.238,-5.297 -5.006,-3.375 -4.294,-1.715 -3.582,-0.056 -1.659,0.712 0,0"
       style="fill:#ebd742;fill-opacity:1;fill-rule:nonzero;stroke:none"
       id="path4958"
       inkscape:connector-curvature="0" /></g><g
     id="g5086"
     transform="translate(279.6572,412.0378)"><path
       d="M 0,0 -1.447,-2.928 -2.819,0.941"
       style="fill:#ebd742;fill-opacity:1;fill-rule:nonzero;stroke:none"
       id="path5088"
       inkscape:connector-curvature="0" /></g></g></g></svg>
