<?xml version="1.0" encoding="UTF-8" standalone="no"?>
<!-- Created with Inkscape (http://www.inkscape.org/) -->

<svg
   version="1.1"
   id="svg4052"
   xml:space="preserve"
   width="671.28003"
   height="923.97601"
   viewBox="0 0 671.28003 923.97601"
   sodipodi:docname="solar_path_latitude_box.svg"
   inkscape:version="1.2.1 (9c6d41e410, 2022-07-14)"
   inkscape:export-filename="solar_path_latitude_box.png"
   inkscape:export-xdpi="300"
   inkscape:export-ydpi="300"
   xmlns:inkscape="http://www.inkscape.org/namespaces/inkscape"
   xmlns:sodipodi="http://sodipodi.sourceforge.net/DTD/sodipodi-0.dtd"
   xmlns="http://www.w3.org/2000/svg"
   xmlns:svg="http://www.w3.org/2000/svg"
   xmlns:rdf="http://www.w3.org/1999/02/22-rdf-syntax-ns#"
   xmlns:cc="http://creativecommons.org/ns#"
   xmlns:dc="http://purl.org/dc/elements/1.1/"><metadata
     id="metadata4058"><rdf:RDF><cc:Work
         rdf:about=""><dc:format>image/svg+xml</dc:format><dc:type
           rdf:resource="http://purl.org/dc/dcmitype/StillImage" /><dc:title /></cc:Work></rdf:RDF></metadata><defs
     id="defs4056"><clipPath
       clipPathUnits="userSpaceOnUse"
       id="clipPath4068"><path
         d="M 0,692.982 H 503.46 V 0 H 0 Z"
         id="path4066"
         inkscape:connector-curvature="0" /></clipPath><clipPath
       clipPathUnits="userSpaceOnUse"
       id="clipPath4076"><path
         d="m 210.288,650.382 h 78.717 v -24.138 h -78.717 z"
         id="path4074"
         inkscape:connector-curvature="0" /></clipPath><clipPath
       clipPathUnits="userSpaceOnUse"
       id="clipPath4112"><path
         d="M 0,692.982 H 503.46 V 0 H 0 Z"
         id="path4110"
         inkscape:connector-curvature="0" /></clipPath><clipPath
       clipPathUnits="userSpaceOnUse"
       id="clipPath4330"><path
         d="M 0,692.982 H 503.46 V 0 H 0 Z"
         id="path4328"
         inkscape:connector-curvature="0" /></clipPath><clipPath
       clipPathUnits="userSpaceOnUse"
       id="clipPath4394"><path
         d="M 0,692.982 H 503.46 V 0 H 0 Z"
         id="path4392"
         inkscape:connector-curvature="0" /></clipPath><clipPath
       clipPathUnits="userSpaceOnUse"
       id="clipPath4440"><path
         d="M 0,692.982 H 503.46 V 0 H 0 Z"
         id="path4438"
         inkscape:connector-curvature="0" /></clipPath><clipPath
       clipPathUnits="userSpaceOnUse"
       id="clipPath4476"><path
         d="M 0,692.982 H 503.46 V 0 H 0 Z"
         id="path4474"
         inkscape:connector-curvature="0" /></clipPath><clipPath
       clipPathUnits="userSpaceOnUse"
       id="clipPath4536"><path
         d="M 0,692.982 H 503.46 V 0 H 0 Z"
         id="path4534"
         inkscape:connector-curvature="0" /></clipPath><clipPath
       clipPathUnits="userSpaceOnUse"
       id="clipPath4564"><path
         d="M 0,692.982 H 503.46 V 0 H 0 Z"
         id="path4562"
         inkscape:connector-curvature="0" /></clipPath><clipPath
       clipPathUnits="userSpaceOnUse"
       id="clipPath4620"><path
         d="M 73.6188,292.697 H 151.209 V 285.52 H 73.6188 Z"
         id="path4618"
         inkscape:connector-curvature="0" /></clipPath><clipPath
       clipPathUnits="userSpaceOnUse"
       id="clipPath4640"><path
         d="m 73.6573,329.418 h 77.6107 v -77.61 H 73.6573 Z"
         id="path4638"
         inkscape:connector-curvature="0" /></clipPath><clipPath
       clipPathUnits="userSpaceOnUse"
       id="clipPath4746"><path
         d="m 73.8918,159.11 h 77.5902 v -7.177 H 73.8918 Z"
         id="path4744"
         inkscape:connector-curvature="0" /></clipPath><clipPath
       clipPathUnits="userSpaceOnUse"
       id="clipPath4766"><path
         d="M 73.9303,195.832 H 151.541 V 118.221 H 73.9303 Z"
         id="path4764"
         inkscape:connector-curvature="0" /></clipPath><clipPath
       clipPathUnits="userSpaceOnUse"
       id="clipPath4870"><path
         d="m 212.132,160.522 h 77.591 v -7.176 h -77.591 z"
         id="path4868"
         inkscape:connector-curvature="0" /></clipPath><clipPath
       clipPathUnits="userSpaceOnUse"
       id="clipPath4890"><path
         d="m 212.113,194.075 h 77.629 v -77.628 h -77.629 z"
         id="path4888"
         inkscape:connector-curvature="0" /></clipPath><clipPath
       clipPathUnits="userSpaceOnUse"
       id="clipPath4968"><path
         d="m 348.38,161.162 h 77.59 v -7.177 h -77.59 z"
         id="path4966"
         inkscape:connector-curvature="0" /></clipPath><clipPath
       clipPathUnits="userSpaceOnUse"
       id="clipPath5016"><path
         d="m 348.37,194.93 h 77.609 V 117.32 H 348.37 Z"
         id="path5014"
         inkscape:connector-curvature="0" /></clipPath><clipPath
       clipPathUnits="userSpaceOnUse"
       id="clipPath5096"><path
         d="m 348.107,294.749 h 77.59 v -7.177 h -77.59 z"
         id="path5094"
         inkscape:connector-curvature="0" /></clipPath><clipPath
       clipPathUnits="userSpaceOnUse"
       id="clipPath5136"><path
         d="m 348.097,328.516 h 77.609 v -77.609 h -77.609 z"
         id="path5134"
         inkscape:connector-curvature="0" /></clipPath><clipPath
       clipPathUnits="userSpaceOnUse"
       id="clipPath5236"><path
         d="m 211.399,295.221 h 77.591 v -7.177 h -77.591 z"
         id="path5234"
         inkscape:connector-curvature="0" /></clipPath><clipPath
       clipPathUnits="userSpaceOnUse"
       id="clipPath5256"><path
         d="m 211.38,328.774 h 77.629 V 251.145 H 211.38 Z"
         id="path5254"
         inkscape:connector-curvature="0" /></clipPath></defs><sodipodi:namedview
     pagecolor="#ffffff"
     bordercolor="#666666"
     borderopacity="1"
     objecttolerance="10"
     gridtolerance="10"
     guidetolerance="10"
     inkscape:pageopacity="0"
     inkscape:pageshadow="2"
     inkscape:window-width="1920"
     inkscape:window-height="1017"
     id="namedview4054"
     showgrid="false"
     inkscape:zoom="1.4448618"
     inkscape:cx="376.85265"
     inkscape:cy="314.2169"
     inkscape:window-x="1912"
     inkscape:window-y="-8"
     inkscape:window-maximized="1"
     inkscape:current-layer="g4060"
     inkscape:pagecheckerboard="0"
     inkscape:showpageshadow="2"
     inkscape:deskcolor="#d1d1d1" /><g
     id="g4060"
     inkscape:groupmode="layer"
     inkscape:label="Aurora Project_figures"
     transform="matrix(1.3333333,0,0,-1.3333333,0,923.976)"><text
   transform="matrix(1,0,0,-1,83.7222,569.603)"
   style="font-variant:normal;font-weight:bold;font-stretch:normal;font-size:15px;font-family:Calibri;-inkscape-font-specification:Calibri-Bold;writing-mode:lr-tb;fill:#5fa1d8;fill-opacity:1;fill-rule:nonzero;stroke:none"
   id="text4088"
   y="0"
   inkscape:export-filename="D:\OneDrive - Universidad Politécnica de Madrid\01-IES\2022 libro PV - Marta\figures\solar_path_latitude.png"
   inkscape:export-xdpi="300"
   inkscape:export-ydpi="300"><tspan
     x="0 7.4250002 15.7245 25.8645 33.844501 37.849499 45.7845 121.665 134.77499 138.78 148.23 154.575 162.49049 169.9155 173.9205 181.3455 191.1405 200.5905 207.7605 249.855 259.32001 263.32501 272.88 282.345 285.73499 292.07999 299.9895 307.41449 311.41949 318.84451 328.6395 338.08951 345.26099"
     y="0"
     sodipodi:role="line"
     id="tspan4086">TROPICSMIDLATITUDESHIGH LATITUDES</tspan></text>
<path
   d="M 178.037,367.636 H 51.064 V 411 h 126.973 z"
   style="fill:#bdc555;fill-opacity:1;fill-rule:nonzero;stroke:none"
   id="path4090"
   inkscape:connector-curvature="0"
   inkscape:export-filename="D:\OneDrive - Universidad Politécnica de Madrid\01-IES\2022 libro PV - Marta\figures\solar_path_latitude.png"
   inkscape:export-xdpi="300"
   inkscape:export-ydpi="300" /><path
   d="M 178.037,410.427 H 51.064 V 560 h 126.973 z"
   style="fill:#b9def3;fill-opacity:1;fill-rule:nonzero;stroke:none"
   id="path4092"
   inkscape:connector-curvature="0"
   inkscape:export-filename="D:\OneDrive - Universidad Politécnica de Madrid\01-IES\2022 libro PV - Marta\figures\solar_path_latitude.png"
   inkscape:export-xdpi="300"
   inkscape:export-ydpi="300" /><path
   d="M 315.399,367.636 H 188.426 V 411 h 126.973 z"
   style="fill:#a2b256;fill-opacity:1;fill-rule:nonzero;stroke:none"
   id="path4094"
   inkscape:connector-curvature="0"
   inkscape:export-filename="D:\OneDrive - Universidad Politécnica de Madrid\01-IES\2022 libro PV - Marta\figures\solar_path_latitude.png"
   inkscape:export-xdpi="300"
   inkscape:export-ydpi="300" /><path
   d="M 315.815,410.427 H 188.842 V 560 h 126.973 z"
   style="fill:#b9def3;fill-opacity:1;fill-rule:nonzero;stroke:none"
   id="path4096"
   inkscape:connector-curvature="0"
   inkscape:export-filename="D:\OneDrive - Universidad Politécnica de Madrid\01-IES\2022 libro PV - Marta\figures\solar_path_latitude.png"
   inkscape:export-xdpi="300"
   inkscape:export-ydpi="300" /><path
   d="M 450.948,367.636 H 323.975 V 411 h 126.973 z"
   style="fill:#e7f3f7;fill-opacity:1;fill-rule:nonzero;stroke:none"
   id="path4098"
   inkscape:connector-curvature="0"
   inkscape:export-filename="D:\OneDrive - Universidad Politécnica de Madrid\01-IES\2022 libro PV - Marta\figures\solar_path_latitude.png"
   inkscape:export-xdpi="300"
   inkscape:export-ydpi="300" /><path
   d="M 450.948,410.427 H 323.975 V 560 h 126.973 z"
   style="fill:#b9def3;fill-opacity:1;fill-rule:nonzero;stroke:none"
   id="path4100"
   inkscape:connector-curvature="0"
   inkscape:export-filename="D:\OneDrive - Universidad Politécnica de Madrid\01-IES\2022 libro PV - Marta\figures\solar_path_latitude.png"
   inkscape:export-xdpi="300"
   inkscape:export-ydpi="300" /><g
   id="g4106"
   inkscape:export-filename="D:\OneDrive - Universidad Politécnica de Madrid\01-IES\2022 libro PV - Marta\figures\solar_path_latitude.png"
   inkscape:export-xdpi="300"
   inkscape:export-ydpi="300"><g
     id="g4108"
     clip-path="url(#clipPath4112)"><g
       id="g4114"
       transform="translate(371.4411,412.1246)"><path
         d="M 0,0 H 3.923 C 3.982,1.419 4.041,2.805 4.101,4.245 2.904,4.582 1.624,4.943 0.323,5.309 -0.088,3.507 -0.149,1.754 0,0"
         style="fill:#ffffff;fill-opacity:1;fill-rule:nonzero;stroke:none"
         id="path4116"
         inkscape:connector-curvature="0" /></g><g
       id="g4118"
       transform="translate(388.0525,440.7367)"><path
         d="M 0,0 V -5.332 H 15.01 C 14.681,-3.527 14.359,-1.757 14.039,0 Z"
         style="fill:#ffffff;fill-opacity:1;fill-rule:nonzero;stroke:none"
         id="path4120"
         inkscape:connector-curvature="0" /></g><g
       id="g4122"
       transform="translate(379.4392,422.1058)"><path
         d="M 0,0 C 1.125,0.904 2.468,1.602 3.942,2.086 3.486,3.658 3.038,5.204 2.573,6.807 0.333,6.012 -1.587,4.801 -3.294,3.145 -2.191,2.092 -1.108,1.058 0,0"
         style="fill:#ffffff;fill-opacity:1;fill-rule:nonzero;stroke:none"
         id="path4124"
         inkscape:connector-curvature="0" /></g><g
       id="g4126"
       transform="translate(399.1736,410.6864)"><path
         d="M 0,0 C -0.003,-0.064 -0.006,-0.126 -0.009,-0.19 H 3.984 C 3.988,-0.126 3.992,-0.063 3.997,0 Z"
         style="fill:#ffffff;fill-opacity:1;fill-rule:nonzero;stroke:none"
         id="path4128"
         inkscape:connector-curvature="0" /></g><g
       id="g4130"
       transform="translate(398.4748,427.1686)"><path
         d="M 0,0 C 1.781,-1.526 3.168,-3.246 4.227,-5.228 4.259,-5.287 4.336,-5.36 4.393,-5.361 5.073,-5.37 5.753,-5.367 6.47,-5.367 6.327,-3.541 6.189,-1.772 6.05,0 Z"
         style="fill:#ffffff;fill-opacity:1;fill-rule:nonzero;stroke:none"
         id="path4132"
         inkscape:connector-curvature="0" /></g><g
       id="g4134"
       transform="translate(410.9594,428.8182)"><path
         d="M 0,0 C -0.349,1.615 -0.711,3.227 -1.042,4.845 -1.105,5.154 -1.267,5.156 -1.5,5.156 -5.574,5.153 -9.649,5.153 -13.723,5.153 h -0.456 c 0.131,-1.825 0.258,-3.596 0.384,-5.369 H 0.012 C 0.008,-0.128 0.013,-0.062 0,0"
         style="fill:#ffffff;fill-opacity:1;fill-rule:nonzero;stroke:none"
         id="path4136"
         inkscape:connector-curvature="0" /></g><g
       id="g4138"
       transform="translate(378.9621,433.9418)"><path
         d="m 0,0 c -0.121,-1.686 -0.24,-3.343 -0.362,-5.025 5.697,3.022 11.385,3.081 17.127,0.182 -0.12,1.648 -0.237,3.252 -0.353,4.843 z"
         style="fill:#ffffff;fill-opacity:1;fill-rule:nonzero;stroke:none"
         id="path4140"
         inkscape:connector-curvature="0" /></g><g
       id="g4142"
       transform="translate(411.6252,415.3268)"><path
         d="M 0,0 V 5.054 H -8.202 C -7.558,3.415 -7.155,1.753 -7.008,0 Z"
         style="fill:#ffffff;fill-opacity:1;fill-rule:nonzero;stroke:none"
         id="path4144"
         inkscape:connector-curvature="0" /></g><g
       id="g4146"
       transform="translate(372.1465,418.8273)"><path
         d="m 0,0 c 0.054,-0.033 0.084,-0.062 0.12,-0.072 1.204,-0.344 2.407,-0.691 3.617,-1.016 0.085,-0.022 0.26,0.101 0.319,0.2 0.361,0.611 0.673,1.252 1.058,1.847 C 5.411,1.421 5.79,1.832 6.153,2.291 5.102,3.307 4.052,4.322 2.994,5.345 1.666,3.795 0.649,2.002 0,0"
         style="fill:#ffffff;fill-opacity:1;fill-rule:nonzero;stroke:none"
         id="path4148"
         inkscape:connector-curvature="0" /></g><g
       id="g4150"
       transform="translate(369.999,413.8754)"><path
         d="m 0,0 h -12.589 c 0.068,-1.151 0.133,-2.259 0.199,-3.379 H 0 Z"
         style="fill:#ffffff;fill-opacity:1;fill-rule:nonzero;stroke:none"
         id="path4152"
         inkscape:connector-curvature="0" /></g><g
       id="g4154"
       transform="translate(397.7451,414.6556)"><path
         d="m 0,0 c -0.167,2.472 -1.239,4.585 -3.174,6.132 -3.72,2.973 -7.872,3.469 -12.153,1.494 -3.788,-1.747 -5.784,-4.8 -5.613,-9.097 0.036,-0.896 0.06,-1.792 0.083,-2.688 H -0.002 C 0.04,-2.771 0.093,-1.38 0,0"
         style="fill:#ffffff;fill-opacity:1;fill-rule:nonzero;stroke:none"
         id="path4156"
         inkscape:connector-curvature="0" /></g><g
       id="g4158"
       transform="translate(371.4582,410.6769)"><path
         d="m 0,0 c 0.003,-0.061 0.007,-0.12 0.01,-0.18 h 4 C 4.007,-0.12 4.005,-0.061 4.002,0 Z"
         style="fill:#ffffff;fill-opacity:1;fill-rule:nonzero;stroke:none"
         id="path4160"
         inkscape:connector-curvature="0" /></g><g
       id="g4162"
       transform="translate(361.1599,420.3859)"><path
         d="m 0,0 h -4.012 c 0.062,-1.704 0.122,-3.38 0.183,-5.068 H 0 Z"
         style="fill:#ffffff;fill-opacity:1;fill-rule:nonzero;stroke:none"
         id="path4164"
         inkscape:connector-curvature="0" /></g><g
       id="g4166"
       transform="translate(383.3537,429.3195)"><path
         d="m 0,0 c 0.469,-1.614 0.927,-3.194 1.388,-4.78 1.729,0.333 3.422,0.325 5.135,0.012 0.475,1.599 0.941,3.173 1.415,4.771 C 5.263,0.663 2.652,0.665 0,0"
         style="fill:#ffffff;fill-opacity:1;fill-rule:nonzero;stroke:none"
         id="path4168"
         inkscape:connector-curvature="0" /></g><g
       id="g4170"
       transform="translate(391.2346,424.1993)"><path
         d="M 0,0 C 1.47,-0.478 2.792,-1.164 4.021,-2.139 5.087,-1.04 6.128,0.034 7.183,1.121 5.55,2.706 3.633,3.922 1.401,4.711 0.928,3.122 0.467,1.571 0,0"
         style="fill:#ffffff;fill-opacity:1;fill-rule:nonzero;stroke:none"
         id="path4172"
         inkscape:connector-curvature="0" /></g><g
       id="g4174"
       transform="translate(396.3305,421.0812)"><path
         d="m 0,0 c 0.946,-0.969 1.668,-2.119 2.212,-3.381 1.337,0.385 2.631,0.757 3.946,1.135 C 5.491,-0.226 4.484,1.542 3.093,3.175 2.051,2.105 1.034,1.062 0,0"
         style="fill:#ffffff;fill-opacity:1;fill-rule:nonzero;stroke:none"
         id="path4176"
         inkscape:connector-curvature="0" /></g><g
       id="g4178"
       transform="translate(403.2204,412.1119)"><path
         d="M 0,0 C 0.116,1.828 0.08,3.599 -0.362,5.37 -1.676,4.992 -2.958,4.623 -4.129,4.286 -4.062,2.806 -3.999,1.409 -3.935,0 Z"
         style="fill:#ffffff;fill-opacity:1;fill-rule:nonzero;stroke:none"
         id="path4180"
         inkscape:connector-curvature="0" /></g><g
       id="g4182"
       transform="translate(378.3445,446.674)"><path
         d="m 0,0 h -1.719 c -2.212,0 -4.424,0.003 -6.636,-0.005 -0.229,-0.001 -0.51,-0.003 -0.679,-0.125 -1.664,-1.2 -3.161,-2.587 -4.529,-4.114 -0.061,-0.068 -0.106,-0.15 -0.17,-0.241 H -0.797 C -0.532,-2.995 -0.271,-1.522 0,0"
         style="fill:#ffffff;fill-opacity:1;fill-rule:nonzero;stroke:none"
         id="path4184"
         inkscape:connector-curvature="0" /></g><g
       id="g4186"
       transform="translate(388.0305,452.4938)"><path
         d="M 0,0 V -4.408 H 14.92 C 10.325,-1.555 5.321,-0.137 0,0"
         style="fill:#ffffff;fill-opacity:1;fill-rule:nonzero;stroke:none"
         id="path4188"
         inkscape:connector-curvature="0" /></g><g
       id="g4190"
       transform="translate(395.9951,446.672)"><path
         d="M 0,0 C 0.268,-1.511 0.529,-2.983 0.792,-4.471 H 14.05 C 12.588,-2.81 11.014,-1.356 9.274,-0.085 9.164,-0.005 8.985,0.005 8.838,0.006 6.094,0.008 3.351,0.003 0.608,0 0.417,0 0.225,0 0,0"
         style="fill:#ffffff;fill-opacity:1;fill-rule:nonzero;stroke:none"
         id="path4192"
         inkscape:connector-curvature="0" /></g><g
       id="g4194"
       transform="translate(411.2785,433.9708)"><path
         d="M 0,0 C 0.395,-1.829 0.777,-3.602 1.161,-5.376 H 5.595 C 5.218,-3.572 4.686,-1.839 3.972,-0.163 3.935,-0.077 3.751,-0.009 3.634,-0.007 2.794,0.006 1.954,0 1.114,0 Z"
         style="fill:#ffffff;fill-opacity:1;fill-rule:nonzero;stroke:none"
         id="path4196"
         inkscape:connector-curvature="0" /></g><g
       id="g4198"
       transform="translate(386.6423,452.4948)"><path
         d="M 0,0 C -5.35,-0.139 -10.362,-1.556 -15.08,-4.402 H 0 Z"
         style="fill:#ffffff;fill-opacity:1;fill-rule:nonzero;stroke:none"
         id="path4200"
         inkscape:connector-curvature="0" /></g><g
       id="g4202"
       transform="translate(403.5339,440.7679)"><path
         d="m 0,0 c 0.005,-0.085 0.003,-0.136 0.012,-0.184 0.291,-1.601 0.597,-3.2 0.867,-4.805 0.056,-0.336 0.18,-0.408 0.496,-0.407 3.042,0.012 6.083,0.007 9.124,0.006 h 0.532 C 10.1,-3.466 9.021,-1.724 7.759,-0.096 7.709,-0.032 7.589,0.007 7.501,0.007 5.133,0.009 2.765,0.004 0.397,0 0.27,0 0.143,0 0,0"
         style="fill:#ffffff;fill-opacity:1;fill-rule:nonzero;stroke:none"
         id="path4204"
         inkscape:connector-curvature="0" /></g><g
       id="g4206"
       transform="translate(371.1355,440.7418)"><path
         d="M 0,0 C -0.129,0.011 -0.218,0.025 -0.306,0.025 -1.922,0.023 -3.539,0.016 -5.156,0.019 -5.905,0.02 -6.657,0.012 -7.403,0.07 -7.62,0.086 -7.721,0.061 -7.842,-0.097 c -1.18,-1.546 -2.21,-3.184 -3.072,-4.927 -0.048,-0.098 -0.085,-0.202 -0.13,-0.309 H -0.969 C -0.644,-3.543 -0.324,-1.781 0,0"
         style="fill:#ffffff;fill-opacity:1;fill-rule:nonzero;stroke:none"
         id="path4208"
         inkscape:connector-curvature="0" /></g><g
       id="g4210"
       transform="translate(367.698,421.8036)"><path
         d="M 0,0 C 0.141,1.808 0.279,3.569 0.418,5.356 H -10.201 C -10.491,3.572 -10.627,1.781 -10.558,0 Z"
         style="fill:#ffffff;fill-opacity:1;fill-rule:nonzero;stroke:none"
         id="path4212"
         inkscape:connector-curvature="0" /></g><g
       id="g4214"
       transform="translate(363.0964,433.9694)"><path
         d="m 0,0 c -1.215,0 -2.375,0.003 -3.535,-0.008 -0.073,0 -0.178,-0.099 -0.21,-0.176 -0.692,-1.671 -1.225,-3.391 -1.593,-5.188 h 4.181 C -0.774,-3.594 -0.393,-1.823 0,0"
         style="fill:#ffffff;fill-opacity:1;fill-rule:nonzero;stroke:none"
         id="path4216"
         inkscape:connector-curvature="0" /></g><g
       id="g4218"
       transform="translate(364.4646,433.6852)"><path
         d="m 0,0 c -0.12,-0.608 -0.258,-1.212 -0.388,-1.818 -0.233,-1.084 -0.465,-2.168 -0.702,-3.27 h 13.795 c 0.129,1.779 0.258,3.541 0.39,5.345 C 12.973,0.27 12.898,0.285 12.823,0.285 8.669,0.286 4.516,0.284 0.362,0.291 0.137,0.291 0.042,0.216 0,0"
         style="fill:#ffffff;fill-opacity:1;fill-rule:nonzero;stroke:none"
         id="path4220"
         inkscape:connector-curvature="0" /></g><g
       id="g4222"
       transform="translate(371.7058,421.8102)"><path
         d="M 0,0 C 0.1,0.002 0.23,0.142 0.289,0.25 1.3,2.109 2.604,3.733 4.191,5.131 4.26,5.192 4.317,5.264 4.399,5.351 H -2.185 C -2.323,3.572 -2.461,1.811 -2.603,-0.011 -1.702,-0.011 -0.851,-0.02 0,0"
         style="fill:#ffffff;fill-opacity:1;fill-rule:nonzero;stroke:none"
         id="path4224"
         inkscape:connector-curvature="0" /></g><g
       id="g4226"
       transform="translate(405.9367,427.0707)"><path
         d="m 0,0 c 0.127,-1.663 0.261,-3.326 0.38,-4.99 0.02,-0.285 0.18,-0.286 0.391,-0.286 3.592,0.003 7.185,0.003 10.891,0.003 -0.124,1.778 -0.249,3.562 -0.374,5.363 H 0.029 C 0.014,0.046 -0.002,0.022 0,0"
         style="fill:#ffffff;fill-opacity:1;fill-rule:nonzero;stroke:none"
         id="path4228"
         inkscape:connector-curvature="0" /></g><g
       id="g4230"
       transform="translate(371.5888,435.4008)"><path
         d="M 0,0 H 15.02 V 5.354 H 0.975 C 0.651,3.574 0.328,1.801 0,0"
         style="fill:#ffffff;fill-opacity:1;fill-rule:nonzero;stroke:none"
         id="path4232"
         inkscape:connector-curvature="0" /></g><g
       id="g4234"
       transform="translate(379.7641,446.6571)"><path
         d="M 0,0 C -0.265,-1.494 -0.527,-2.973 -0.792,-4.467 H 15.602 C 15.335,-2.967 15.074,-1.493 14.809,0 Z"
         style="fill:#ffffff;fill-opacity:1;fill-rule:nonzero;stroke:none"
         id="path4236"
         inkscape:connector-curvature="0" /></g><g
       id="g4238"
       transform="translate(417.4983,420.3961)"><path
         d="m 0,0 h -4.421 v -5.084 h 4.196 C -0.149,-3.374 -0.074,-1.681 0,0"
         style="fill:#ffffff;fill-opacity:1;fill-rule:nonzero;stroke:none"
         id="path4240"
         inkscape:connector-curvature="0" /></g><g
       id="g4242"
       transform="translate(362.6023,415.3231)"><path
         d="m 0,0 h 7.374 c 0.151,0.874 0.26,1.722 0.454,2.55 0.196,0.837 0.477,1.655 0.729,2.507 H 0 Z"
         style="fill:#ffffff;fill-opacity:1;fill-rule:nonzero;stroke:none"
         id="path4244"
         inkscape:connector-curvature="0" /></g><g
       id="g4246"
       transform="translate(404.6916,413.8646)"><path
         d="m 0,0 c -0.043,-1.14 -0.085,-2.25 -0.128,-3.368 h 12.382 c 0.08,1.144 0.158,2.261 0.236,3.368 z"
         style="fill:#ffffff;fill-opacity:1;fill-rule:nonzero;stroke:none"
         id="path4248"
         inkscape:connector-curvature="0" /></g><g
       id="g4250"
       transform="translate(143.2238,496.514)"><path
         d="M 0,0 V -13.225"
         style="fill:none;stroke:#2b4f97;stroke-width:1;stroke-linecap:butt;stroke-linejoin:miter;stroke-miterlimit:10;stroke-dasharray:none;stroke-opacity:1"
         id="path4252"
         inkscape:connector-curvature="0" /></g><g
       id="g4254"
       transform="translate(143.2238,537.1755)"><path
         d="M 0,0 V -35.651"
         style="fill:none;stroke:#2b4f97;stroke-width:1;stroke-linecap:butt;stroke-linejoin:miter;stroke-miterlimit:10;stroke-dasharray:none;stroke-opacity:1"
         id="path4256"
         inkscape:connector-curvature="0" /></g><g
       id="g4258"
       transform="translate(83.5869,537.1755)"><path
         d="M 0,0 V -35.651"
         style="fill:none;stroke:#2b4f97;stroke-width:1;stroke-linecap:butt;stroke-linejoin:miter;stroke-miterlimit:10;stroke-dasharray:none;stroke-opacity:1"
         id="path4260"
         inkscape:connector-curvature="0" /></g><g
       id="g4262"
       transform="translate(124.1663,537.1755)"><path
         d="M 0,0 V -35.651"
         style="fill:none;stroke:#2b4f97;stroke-width:1;stroke-linecap:butt;stroke-linejoin:miter;stroke-miterlimit:10;stroke-dasharray:none;stroke-opacity:1"
         id="path4264"
         inkscape:connector-curvature="0" /></g><g
       id="g4266"
       transform="translate(103.7945,537.1755)"><path
         d="M 0,0 V -35.651"
         style="fill:none;stroke:#2b4f97;stroke-width:1;stroke-linecap:butt;stroke-linejoin:miter;stroke-miterlimit:10;stroke-dasharray:none;stroke-opacity:1"
         id="path4268"
         inkscape:connector-curvature="0" /></g><g
       id="g4270"
       transform="translate(83.5869,496.514)"><path
         d="M 0,0 V -13.225"
         style="fill:none;stroke:#2b4f97;stroke-width:1;stroke-linecap:butt;stroke-linejoin:miter;stroke-miterlimit:10;stroke-dasharray:none;stroke-opacity:1"
         id="path4272"
         inkscape:connector-curvature="0" /></g><g
       id="g4274"
       transform="translate(124.1663,496.514)"><path
         d="M 0,0 V -13.225"
         style="fill:none;stroke:#2b4f97;stroke-width:1;stroke-linecap:butt;stroke-linejoin:miter;stroke-miterlimit:10;stroke-dasharray:none;stroke-opacity:1"
         id="path4276"
         inkscape:connector-curvature="0" /></g><g
       id="g4278"
       transform="translate(103.7945,496.514)"><path
         d="M 0,0 V -13.225"
         style="fill:none;stroke:#2b4f97;stroke-width:1;stroke-linecap:butt;stroke-linejoin:miter;stroke-miterlimit:10;stroke-dasharray:none;stroke-opacity:1"
         id="path4280"
         inkscape:connector-curvature="0" /></g><g
       id="g4282"
       transform="translate(84.7274,490.3531)"><path
         d="M 0,0 H 17.196"
         style="fill:none;stroke:#2b4f97;stroke-width:0.5;stroke-linecap:butt;stroke-linejoin:miter;stroke-miterlimit:10;stroke-dasharray:none;stroke-opacity:1"
         id="path4284"
         inkscape:connector-curvature="0" /></g><g
       id="g4286"
       transform="translate(100.9169,489.4526)"><path
         d="m 0,0 v 1.801 l 2.415,-0.9 z"
         style="fill:#2b4f97;fill-opacity:1;fill-rule:nonzero;stroke:none"
         id="path4288"
         inkscape:connector-curvature="0" /></g><g
       id="g4290"
       transform="translate(86.1359,491.2537)"><path
         d="m 0,0 v -1.801 l -2.415,0.9 z"
         style="fill:#2b4f97;fill-opacity:1;fill-rule:nonzero;stroke:none"
         id="path4292"
         inkscape:connector-curvature="0" /></g><g
       id="g4294"
       transform="translate(83.2198,482.5205)"><path
         d="M 0,0 H 60.497"
         style="fill:none;stroke:#2b4f97;stroke-width:1;stroke-linecap:butt;stroke-linejoin:miter;stroke-miterlimit:10;stroke-dasharray:none;stroke-opacity:1"
         id="path4296"
         inkscape:connector-curvature="0" /></g><g
       id="g4298"
       transform="translate(84.9286,530.604)"><path
         d="M 0,0 H 17.196"
         style="fill:none;stroke:#2b4f97;stroke-width:0.5;stroke-linecap:butt;stroke-linejoin:miter;stroke-miterlimit:10;stroke-dasharray:none;stroke-opacity:1"
         id="path4300"
         inkscape:connector-curvature="0" /></g><g
       id="g4302"
       transform="translate(101.1181,529.7034)"><path
         d="m 0,0 v 1.801 l 2.415,-0.9 z"
         style="fill:#2b4f97;fill-opacity:1;fill-rule:nonzero;stroke:none"
         id="path4304"
         inkscape:connector-curvature="0" /></g><g
       id="g4306"
       transform="translate(86.3371,531.5045)"><path
         d="m 0,0 v -1.801 l -2.415,0.9 z"
         style="fill:#2b4f97;fill-opacity:1;fill-rule:nonzero;stroke:none"
         id="path4308"
         inkscape:connector-curvature="0" /></g></g></g><text
   transform="scale(1,-1)"
   style="font-style:italic;font-variant:normal;font-weight:normal;font-stretch:normal;font-size:7.99999972px;font-family:sans-serif;-inkscape-font-specification:'sans-serif, Italic';font-variant-ligatures:normal;font-variant-caps:normal;font-variant-numeric:normal;font-variant-east-asian:normal;writing-mode:lr-tb;fill:#2b4f97;fill-opacity:1;fill-rule:nonzero;stroke:none"
   id="text4312"
   y="-494.737"
   inkscape:export-filename="D:\OneDrive - Universidad Politécnica de Madrid\01-IES\2022 libro PV - Marta\figures\solar_path_latitude.png"
   inkscape:export-xdpi="300"
   inkscape:export-ydpi="300"
   x="127.38331"><tspan
     sodipodi:role="line"
     id="tspan702"
     x="127.38331"
     y="-494.737">90°</tspan></text><text
   transform="scale(1,-1)"
   style="font-style:normal;font-variant:normal;font-weight:normal;font-stretch:normal;font-size:8px;font-family:sans-serif;-inkscape-font-specification:'sans-serif, Normal';font-variant-ligatures:normal;font-variant-caps:normal;font-variant-numeric:normal;font-variant-east-asian:normal;writing-mode:lr-tb;fill:#2b4f97;fill-opacity:1;fill-rule:nonzero;stroke:none"
   id="text4312-7"
   y="-486.85565"
   inkscape:export-filename="D:\OneDrive - Universidad Politécnica de Madrid\01-IES\2022 libro PV - Marta\figures\solar_path_latitude.png"
   inkscape:export-xdpi="300"
   inkscape:export-ydpi="300"
   x="279.09924"><tspan
     sodipodi:role="line"
     id="tspan702-3"
     x="279.09924"
     y="-486.85565">45°</tspan></text><text
   transform="scale(1,-1)"
   style="font-style:normal;font-variant:normal;font-weight:normal;font-stretch:normal;font-size:8px;font-family:sans-serif;-inkscape-font-specification:'sans-serif, Normal';font-variant-ligatures:normal;font-variant-caps:normal;font-variant-numeric:normal;font-variant-east-asian:normal;writing-mode:lr-tb;fill:#2b4f97;fill-opacity:1;fill-rule:nonzero;stroke:none"
   id="text4312-7-3"
   y="-487.12103"
   inkscape:export-filename="D:\OneDrive - Universidad Politécnica de Madrid\01-IES\2022 libro PV - Marta\figures\solar_path_latitude.png"
   inkscape:export-xdpi="300"
   inkscape:export-ydpi="300"
   x="435.41287"><tspan
     sodipodi:role="line"
     id="tspan702-3-8"
     x="435.41287"
     y="-487.12103">30°</tspan></text>

<text
   transform="scale(1,-1)"
   style="font-style:italic;font-variant:normal;font-weight:normal;font-stretch:normal;font-size:7.99999972px;font-family:sans-serif;-inkscape-font-specification:'sans-serif, Italic';font-variant-ligatures:normal;font-variant-caps:normal;font-variant-numeric:normal;font-variant-east-asian:normal;writing-mode:lr-tb;fill:#2b4f97;fill-opacity:1;fill-rule:nonzero;stroke:none"
   id="text4322"
   y="-533.62164"
   inkscape:export-filename="D:\OneDrive - Universidad Politécnica de Madrid\01-IES\2022 libro PV - Marta\figures\solar_path_latitude.png"
   inkscape:export-xdpi="300"
   inkscape:export-ydpi="300"
   x="87.169823"><tspan
     x="87.169823"
     y="-533.62164"
     sodipodi:role="line"
     id="tspan4320">1x</tspan></text><text
   transform="scale(1,-1)"
   style="font-style:italic;font-variant:normal;font-weight:normal;font-stretch:normal;font-size:7.99999972px;font-family:sans-serif;-inkscape-font-specification:'sans-serif, Italic';font-variant-ligatures:normal;font-variant-caps:normal;font-variant-numeric:normal;font-variant-east-asian:normal;writing-mode:lr-tb;fill:#2b4f97;fill-opacity:1;fill-rule:nonzero;stroke:none"
   id="text4322-2"
   y="-492.63617"
   inkscape:export-filename="D:\OneDrive - Universidad Politécnica de Madrid\01-IES\2022 libro PV - Marta\figures\solar_path_latitude.png"
   inkscape:export-xdpi="300"
   inkscape:export-ydpi="300"
   x="87.45739"><tspan
     x="87.45739"
     y="-492.63617"
     sodipodi:role="line"
     id="tspan4320-3">1x</tspan></text>
<g
   id="g4324"
   inkscape:export-filename="D:\OneDrive - Universidad Politécnica de Madrid\01-IES\2022 libro PV - Marta\figures\solar_path_latitude.png"
   inkscape:export-xdpi="300"
   inkscape:export-ydpi="300"><g
     id="g4326"
     clip-path="url(#clipPath4330)"><g
       id="g4332"
       transform="translate(126.8633,494.3813)"><path
         d="m 0,0 0.023,-1.801 -2.426,0.87 z"
         style="fill:#2b4f97;fill-opacity:1;fill-rule:nonzero;stroke:none"
         id="path4334"
         inkscape:connector-curvature="0" /></g><g
       id="g4336"
       transform="translate(133.5039,485.3908)"><path
         d="M 0,0 1.801,-0.026 0.865,-2.427 Z"
         style="fill:#2b4f97;fill-opacity:1;fill-rule:nonzero;stroke:none"
         id="path4338"
         inkscape:connector-curvature="0" /></g><g
       id="g4340"
       transform="translate(125.9818,493.4809)"><path
         d="M 0,0 C 0,0 8.39,-0.727 8.39,-9.305"
         style="fill:none;stroke:#2b4f97;stroke-width:0.5;stroke-linecap:butt;stroke-linejoin:miter;stroke-miterlimit:10;stroke-dasharray:none;stroke-opacity:1"
         id="path4342"
         inkscape:connector-curvature="0" /></g><g
       id="g4344"
       transform="translate(82.1476,501.5248)"><path
         d="M 0,0 H 2.879 L 1.439,-3.859 Z"
         style="fill:#2b4f97;fill-opacity:1;fill-rule:nonzero;stroke:none"
         id="path4346"
         inkscape:connector-curvature="0" /></g><g
       id="g4348"
       transform="translate(102.3552,501.5248)"><path
         d="M 0,0 H 2.879 L 1.439,-3.859 Z"
         style="fill:#2b4f97;fill-opacity:1;fill-rule:nonzero;stroke:none"
         id="path4350"
         inkscape:connector-curvature="0" /></g><g
       id="g4352"
       transform="translate(122.727,501.5248)"><path
         d="M 0,0 H 2.879 L 1.439,-3.859 Z"
         style="fill:#2b4f97;fill-opacity:1;fill-rule:nonzero;stroke:none"
         id="path4354"
         inkscape:connector-curvature="0" /></g><g
       id="g4356"
       transform="translate(141.7845,501.5248)"><path
         d="M 0,0 H 2.879 L 1.439,-3.859 Z"
         style="fill:#2b4f97;fill-opacity:1;fill-rule:nonzero;stroke:none"
         id="path4358"
         inkscape:connector-curvature="0" /></g><g
       id="g4360"
       transform="translate(205.393,483.1582)"><path
         d="M 0,0 40.428,40.92"
         style="fill:none;stroke:#2b4f97;stroke-width:1;stroke-linecap:butt;stroke-linejoin:miter;stroke-miterlimit:10;stroke-dasharray:none;stroke-opacity:1"
         id="path4362"
         inkscape:connector-curvature="0" /></g><g
       id="g4364"
       transform="translate(234.8335,482.4288)"><path
         d="M 0,0 26.347,26.606"
         style="fill:none;stroke:#2b4f97;stroke-width:1;stroke-linecap:butt;stroke-linejoin:miter;stroke-miterlimit:10;stroke-dasharray:none;stroke-opacity:1"
         id="path4366"
         inkscape:connector-curvature="0" /></g><g
       id="g4368"
       transform="translate(262.994,482.4288)"><path
         d="M 0,0 12.376,12.445"
         style="fill:none;stroke:#2b4f97;stroke-width:1;stroke-linecap:butt;stroke-linejoin:miter;stroke-miterlimit:10;stroke-dasharray:none;stroke-opacity:1"
         id="path4370"
         inkscape:connector-curvature="0" /></g><g
       id="g4372"
       transform="translate(276.746,496.2436)"><path
         d="M 0,0 25.322,25.551"
         style="fill:none;stroke:#2b4f97;stroke-width:1;stroke-linecap:butt;stroke-linejoin:miter;stroke-miterlimit:10;stroke-dasharray:none;stroke-opacity:1"
         id="path4374"
         inkscape:connector-curvature="0" /></g><g
       id="g4376"
       transform="translate(262.5025,510.4898)"><path
         d="M 0,0 24.191,24.191"
         style="fill:none;stroke:#2b4f97;stroke-width:1;stroke-linecap:butt;stroke-linejoin:miter;stroke-miterlimit:10;stroke-dasharray:none;stroke-opacity:1"
         id="path4378"
         inkscape:connector-curvature="0" /></g><g
       id="g4380"
       transform="translate(248.2039,526.2651)"><path
         d="M 0,0 21.224,21.529"
         style="fill:none;stroke:#2b4f97;stroke-width:1;stroke-linecap:butt;stroke-linejoin:miter;stroke-miterlimit:10;stroke-dasharray:none;stroke-opacity:1"
         id="path4382"
         inkscape:connector-curvature="0" /></g></g></g><text
   transform="matrix(0.72712735,-0.6865026,-0.6865026,-0.72712735,0,0)"
   style="font-style:italic;font-variant:normal;font-weight:normal;font-stretch:normal;font-size:8px;font-family:sans-serif;-inkscape-font-specification:'sans-serif, Italic';font-variant-ligatures:normal;font-variant-caps:normal;font-variant-numeric:normal;font-variant-east-asian:normal;writing-mode:lr-tb;fill:#2b4f97;fill-opacity:1;fill-rule:nonzero;stroke:none"
   id="text4386"
   y="-573.12927"
   inkscape:export-filename="D:\OneDrive - Universidad Politécnica de Madrid\01-IES\2022 libro PV - Marta\figures\solar_path_latitude.png"
   inkscape:export-xdpi="300"
   inkscape:export-ydpi="300"
   x="-173.35007"><tspan
     sodipodi:role="line"
     id="tspan4384"
     x="-173.35007"
     y="-573.12927">1x</tspan></text>
<g
   id="g4388"
   inkscape:export-filename="D:\OneDrive - Universidad Politécnica de Madrid\01-IES\2022 libro PV - Marta\figures\solar_path_latitude.png"
   inkscape:export-xdpi="300"
   inkscape:export-ydpi="300"><g
     id="g4390"
     clip-path="url(#clipPath4394)"><g
       id="g4396"
       transform="translate(275.9908,484.1668)"><path
         d="M 0,0 1.902,-0.026 0.916,-2.563 Z"
         style="fill:#2b4f97;fill-opacity:1;fill-rule:nonzero;stroke:none"
         id="path4398"
         inkscape:connector-curvature="0" /></g><g
       id="g4400"
       transform="translate(275.2863,490.56)"><path
         d="M 0,0 -1.363,-1.326 -2.46,1.165 Z"
         style="fill:#2b4f97;fill-opacity:1;fill-rule:nonzero;stroke:none"
         id="path4402"
         inkscape:connector-curvature="0" /></g><g
       id="g4404"
       transform="translate(274.3946,489.9961)"><path
         d="M 0,0 C 0,0 2.555,-2.93 2.555,-6.354"
         style="fill:none;stroke:#2b4f97;stroke-width:0.5;stroke-linecap:butt;stroke-linejoin:miter;stroke-miterlimit:10;stroke-dasharray:none;stroke-opacity:1"
         id="path4406"
         inkscape:connector-curvature="0" /></g><g
       id="g4408"
       transform="translate(202.5893,481.0984)"><path
         d="M 0,0 H 84.105"
         style="fill:none;stroke:#2b4f97;stroke-width:1;stroke-linecap:butt;stroke-linejoin:miter;stroke-miterlimit:10;stroke-dasharray:none;stroke-opacity:1"
         id="path4410"
         inkscape:connector-curvature="0" /></g><g
       id="g4412"
       transform="translate(261.6698,537.5205)"><path
         d="M 0,0 12.661,-12.659"
         style="fill:none;stroke:#2b4f97;stroke-width:0.5;stroke-linecap:butt;stroke-linejoin:miter;stroke-miterlimit:10;stroke-dasharray:none;stroke-opacity:1"
         id="path4414"
         inkscape:connector-curvature="0" /></g><g
       id="g4416"
       transform="translate(272.9272,524.939)"><path
         d="M 0,0 1.326,1.326 2.441,-1.115 Z"
         style="fill:#2b4f97;fill-opacity:1;fill-rule:nonzero;stroke:none"
         id="path4418"
         inkscape:connector-curvature="0" /></g><g
       id="g4420"
       transform="translate(263.3698,537.1467)"><path
         d="M 0,0 -1.326,-1.326 -2.441,1.115 Z"
         style="fill:#2b4f97;fill-opacity:1;fill-rule:nonzero;stroke:none"
         id="path4422"
         inkscape:connector-curvature="0" /></g></g></g><text
   transform="scale(1,-1)"
   style="font-style:italic;font-variant:normal;font-weight:normal;font-stretch:normal;font-size:5.2209px;font-family:Calibri;-inkscape-font-specification:Calibri-Italic;writing-mode:lr-tb;fill:#2b4f97;fill-opacity:1;fill-rule:nonzero;stroke:none"
   id="text4428"
   y="-489.21747"
   inkscape:export-filename="D:\OneDrive - Universidad Politécnica de Madrid\01-IES\2022 libro PV - Marta\figures\solar_path_latitude.png"
   inkscape:export-xdpi="300"
   inkscape:export-ydpi="300"
   x="219.00745"><tspan
     x="219.00745"
     y="-489.21747"
     sodipodi:role="line"
     id="tspan4426"
     style="font-style:italic;font-variant:normal;font-weight:normal;font-stretch:normal;font-size:8px;font-family:Calibri;-inkscape-font-specification:'Calibri, Italic';font-variant-ligatures:normal;font-variant-caps:normal;font-variant-numeric:normal;font-variant-east-asian:normal">1.4x</tspan></text>
<text
   transform="matrix(1,0,0,-1,283.7793,489.9341)"
   style="font-style:italic;font-variant:normal;font-weight:normal;font-stretch:normal;font-size:3.0438px;font-family:Calibri;-inkscape-font-specification:Calibri-Italic;writing-mode:lr-tb;fill:#2b4f97;fill-opacity:1;fill-rule:nonzero;stroke:none"
   id="text4432"
   inkscape:export-filename="D:\OneDrive - Universidad Politécnica de Madrid\01-IES\2022 libro PV - Marta\figures\solar_path_latitude.png"
   inkscape:export-xdpi="300"
   inkscape:export-ydpi="300"><tspan
     x="0"
     y="0"
     id="tspan4430" /></text>
<g
   id="g4434"
   inkscape:export-filename="D:\OneDrive - Universidad Politécnica de Madrid\01-IES\2022 libro PV - Marta\figures\solar_path_latitude.png"
   inkscape:export-xdpi="300"
   inkscape:export-ydpi="300"><g
     id="g4436"
     clip-path="url(#clipPath4440)"><g
       id="g4442"
       transform="translate(247.5157,527.8317)"><path
         d="M 0,0 2.044,-2.027 -1.695,-3.754 Z"
         style="fill:#2b4f97;fill-opacity:1;fill-rule:nonzero;stroke:none"
         id="path4444"
         inkscape:connector-curvature="0" /></g><g
       id="g4446"
       transform="translate(262.8759,512.9966)"><path
         d="M 0,0 2.044,-2.027 -1.695,-3.754 Z"
         style="fill:#2b4f97;fill-opacity:1;fill-rule:nonzero;stroke:none"
         id="path4448"
         inkscape:connector-curvature="0" /></g><g
       id="g4450"
       transform="translate(277.2926,498.9567)"><path
         d="M 0,0 2.044,-2.027 -1.695,-3.754 Z"
         style="fill:#2b4f97;fill-opacity:1;fill-rule:nonzero;stroke:none"
         id="path4452"
         inkscape:connector-curvature="0" /></g><g
       id="g4454"
       transform="translate(212.0929,486.6258)"><path
         d="M 0,0 H 23.359"
         style="fill:none;stroke:#2b4f97;stroke-width:0.5;stroke-linecap:butt;stroke-linejoin:miter;stroke-miterlimit:10;stroke-dasharray:none;stroke-opacity:1"
         id="path4456"
         inkscape:connector-curvature="0" /></g><g
       id="g4458"
       transform="translate(212.0929,487.5263)"><path
         d="m 0,0 v -1.801 l -2.415,0.9 z"
         style="fill:#2b4f97;fill-opacity:1;fill-rule:nonzero;stroke:none"
         id="path4460"
         inkscape:connector-curvature="0" /></g><g
       id="g4462"
       transform="translate(235.4514,485.7253)"><path
         d="m 0,0 v 1.801 l 2.415,-0.9 z"
         style="fill:#2b4f97;fill-opacity:1;fill-rule:nonzero;stroke:none"
         id="path4464"
         inkscape:connector-curvature="0" /></g></g></g><text
   transform="matrix(0.52001986,-0.85415417,-0.85415417,-0.52001986,0,0)"
   style="font-style:italic;font-variant:normal;font-weight:normal;font-stretch:normal;font-size:8px;font-family:sans-serif;-inkscape-font-specification:'sans-serif, Italic';font-variant-ligatures:normal;font-variant-caps:normal;font-variant-numeric:normal;font-variant-east-asian:normal;writing-mode:lr-tb;fill:#2b4f97;fill-opacity:1;fill-rule:nonzero;stroke:none"
   id="text4468"
   y="-635.99402"
   inkscape:export-filename="D:\OneDrive - Universidad Politécnica de Madrid\01-IES\2022 libro PV - Marta\figures\solar_path_latitude.png"
   inkscape:export-xdpi="300"
   inkscape:export-ydpi="300"
   x="-230.21677"><tspan
     x="-230.21677"
     y="-635.99402"
     sodipodi:role="line"
     id="tspan4466">1x</tspan></text>
<g
   id="g4470"
   inkscape:export-filename="D:\OneDrive - Universidad Politécnica de Madrid\01-IES\2022 libro PV - Marta\figures\solar_path_latitude.png"
   inkscape:export-xdpi="300"
   inkscape:export-ydpi="300"><g
     id="g4472"
     clip-path="url(#clipPath4476)"><g
       id="g4478"
       transform="translate(333.5807,483.1958)"><path
         d="M 0,0 H 105.131"
         style="fill:none;stroke:#2b4f97;stroke-width:1;stroke-linecap:butt;stroke-linejoin:miter;stroke-miterlimit:10;stroke-dasharray:none;stroke-opacity:1"
         id="path4480"
         inkscape:connector-curvature="0" /></g><g
       id="g4482"
       transform="translate(334.8297,484.7746)"><path
         d="M 0,0 60.874,34.652"
         style="fill:none;stroke:#2b4f97;stroke-width:1;stroke-linecap:butt;stroke-linejoin:miter;stroke-miterlimit:10;stroke-dasharray:none;stroke-opacity:1"
         id="path4484"
         inkscape:connector-curvature="0" /></g><g
       id="g4486"
       transform="translate(398.6927,520.9532)"><path
         d="M 0,0 42.732,24.854"
         style="fill:none;stroke:#2b4f97;stroke-width:1;stroke-linecap:butt;stroke-linejoin:miter;stroke-miterlimit:10;stroke-dasharray:none;stroke-opacity:1"
         id="path4488"
         inkscape:connector-curvature="0" /></g><g
       id="g4490"
       transform="translate(375.9265,484.5744)"><path
         d="M 0,0 29.253,16.999"
         style="fill:none;stroke:#2b4f97;stroke-width:1;stroke-linecap:butt;stroke-linejoin:miter;stroke-miterlimit:10;stroke-dasharray:none;stroke-opacity:1"
         id="path4492"
         inkscape:connector-curvature="0" /></g><g
       id="g4494"
       transform="translate(408.6511,503.2832)"><path
         d="M 0,0 32.773,18.954"
         style="fill:none;stroke:#2b4f97;stroke-width:1;stroke-linecap:butt;stroke-linejoin:miter;stroke-miterlimit:10;stroke-dasharray:none;stroke-opacity:1"
         id="path4496"
         inkscape:connector-curvature="0" /></g><g
       id="g4498"
       transform="translate(432.4143,490.2685)"><path
         d="M 0,0 C 0,0 1.365,-2.381 1.267,-5.151"
         style="fill:none;stroke:#2b4f97;stroke-width:0.5;stroke-linecap:butt;stroke-linejoin:miter;stroke-miterlimit:10;stroke-dasharray:none;stroke-opacity:1"
         id="path4500"
         inkscape:connector-curvature="0" /></g><g
       id="g4502"
       transform="translate(432.9366,485.3762)"><path
         d="M 0,0 1.499,0.009 0.761,-2.005 Z"
         style="fill:#2b4f97;fill-opacity:1;fill-rule:nonzero;stroke:none"
         id="path4504"
         inkscape:connector-curvature="0" /></g><g
       id="g4506"
       transform="translate(433.1912,490.5651)"><path
         d="M 0,0 -1.26,-0.812 -1.719,1.283 Z"
         style="fill:#2b4f97;fill-opacity:1;fill-rule:nonzero;stroke:none"
         id="path4508"
         inkscape:connector-curvature="0" /></g><g
       id="g4510"
       transform="translate(417.2417,530.0273)"><path
         d="M 0,0 8.82,-15.581"
         style="fill:none;stroke:#2b4f97;stroke-width:0.5;stroke-linecap:butt;stroke-linejoin:miter;stroke-miterlimit:10;stroke-dasharray:none;stroke-opacity:1"
         id="path4512"
         inkscape:connector-curvature="0" /></g><g
       id="g4514"
       transform="translate(424.7296,514.8961)"><path
         d="m 0,0 1.632,0.924 0.422,-2.65 z"
         style="fill:#2b4f97;fill-opacity:1;fill-rule:nonzero;stroke:none"
         id="path4516"
         inkscape:connector-curvature="0" /></g><g
       id="g4518"
       transform="translate(418.7801,529.2131)"><path
         d="m 0,0 -1.632,-0.924 -0.422,2.65 z"
         style="fill:#2b4f97;fill-opacity:1;fill-rule:nonzero;stroke:none"
         id="path4520"
         inkscape:connector-curvature="0" /></g><g
       id="g4522"
       transform="translate(345.3517,488.7067)"><path
         d="M 0,0 H 33.643"
         style="fill:none;stroke:#2b4f97;stroke-width:0.5;stroke-linecap:butt;stroke-linejoin:miter;stroke-miterlimit:10;stroke-dasharray:none;stroke-opacity:1"
         id="path4524"
         inkscape:connector-curvature="0" /></g></g></g><text
   transform="scale(1,-1)"
   style="font-style:italic;font-variant:normal;font-weight:normal;font-stretch:normal;font-size:8.0000002px;font-family:sans-serif;-inkscape-font-specification:'sans-serif, Italic';writing-mode:lr-tb;fill:#2b4f97;fill-opacity:1;fill-rule:nonzero;stroke:none;font-variant-ligatures:normal;font-variant-caps:normal;font-variant-numeric:normal;font-variant-east-asian:normal"
   id="text4528"
   y="-491.42065"
   inkscape:export-filename="D:\OneDrive - Universidad Politécnica de Madrid\01-IES\2022 libro PV - Marta\figures\solar_path_latitude.png"
   inkscape:export-xdpi="300"
   inkscape:export-ydpi="300"
   x="361.05832"><tspan
     x="361.05832"
     y="-491.42065"
     sodipodi:role="line"
     id="tspan4526">2x</tspan></text>
<g
   id="g4530"
   inkscape:export-filename="D:\OneDrive - Universidad Politécnica de Madrid\01-IES\2022 libro PV - Marta\figures\solar_path_latitude.png"
   inkscape:export-xdpi="300"
   inkscape:export-ydpi="300"><g
     id="g4532"
     clip-path="url(#clipPath4536)"><g
       id="g4538"
       transform="translate(398.4672,522.4803)"><path
         d="M 0,0 1.325,-2.556 -2.763,-3.054 Z"
         style="fill:#2b4f97;fill-opacity:1;fill-rule:nonzero;stroke:none"
         id="path4540"
         inkscape:connector-curvature="0" /></g><g
       id="g4542"
       transform="translate(408.148,504.628)"><path
         d="M 0,0 1.325,-2.556 -2.763,-3.054 Z"
         style="fill:#2b4f97;fill-opacity:1;fill-rule:nonzero;stroke:none"
         id="path4544"
         inkscape:connector-curvature="0" /></g><g
       id="g4546"
       transform="translate(419.4993,486.9121)"><path
         d="M 0,0 1.325,-2.556 -2.763,-3.054 Z"
         style="fill:#2b4f97;fill-opacity:1;fill-rule:nonzero;stroke:none"
         id="path4548"
         inkscape:connector-curvature="0" /></g><g
       id="g4550"
       transform="translate(420.1229,485.6743)"><path
         d="M 0,0 21.409,12.381"
         style="fill:none;stroke:#2b4f97;stroke-width:1;stroke-linecap:butt;stroke-linejoin:miter;stroke-miterlimit:10;stroke-dasharray:none;stroke-opacity:1"
         id="path4552"
         inkscape:connector-curvature="0" /></g></g></g>
<g
   id="g4566"
   transform="translate(345.3517,489.4941)"
   inkscape:export-filename="D:\OneDrive - Universidad Politécnica de Madrid\01-IES\2022 libro PV - Marta\figures\solar_path_latitude.png"
   inkscape:export-xdpi="300"
   inkscape:export-ydpi="300"><path
     d="m 0,0 v -1.801 l -2.415,0.9 z"
     style="fill:#2b4f97;fill-opacity:1;fill-rule:nonzero;stroke:none"
     id="path4568"
     inkscape:connector-curvature="0" /></g><g
   id="g4570"
   transform="translate(378.3647,487.8061)"
   inkscape:export-filename="D:\OneDrive - Universidad Politécnica de Madrid\01-IES\2022 libro PV - Marta\figures\solar_path_latitude.png"
   inkscape:export-xdpi="300"
   inkscape:export-ydpi="300"><path
     d="m 0,0 v 1.801 l 2.415,-0.9 z"
     style="fill:#2b4f97;fill-opacity:1;fill-rule:nonzero;stroke:none"
     id="path4572"
     inkscape:connector-curvature="0" /></g><g
   id="g4574"
   transform="translate(247.1586,422.9904)"
   inkscape:export-filename="D:\OneDrive - Universidad Politécnica de Madrid\01-IES\2022 libro PV - Marta\figures\solar_path_latitude.png"
   inkscape:export-xdpi="300"
   inkscape:export-ydpi="300"><path
     d="m 0,0 c 0.512,-0.471 0.99,-0.935 1.485,-1.363 0.83,-0.717 1.663,-1.426 2.508,-2.106 0.382,-0.308 0.508,-0.24 0.625,0.346 0.146,0.734 0.241,1.488 0.346,2.236 0.044,0.311 0.055,0.63 0.083,0.973 C 3.928,0.261 2.895,0.645 1.898,1.21 1.831,1.248 1.729,1.249 1.666,1.205 1.125,0.824 0.59,0.429 0,0 M 6.655,-0.082 C 6.651,-0.141 6.638,-0.236 6.64,-0.331 6.666,-1.518 6.68,-2.706 6.728,-3.892 6.754,-4.554 6.817,-5.216 6.899,-5.869 6.967,-6.414 7.068,-6.456 7.415,-6.15 c 0.165,0.145 0.331,0.297 0.472,0.481 0.995,1.294 1.986,2.595 2.973,3.901 0.278,0.368 0.537,0.764 0.807,1.152 C 11.169,-0.184 10.701,0.2 10.253,0.621 10.088,0.775 9.956,0.799 9.77,0.716 9.437,0.566 9.097,0.431 8.752,0.35 8.064,0.186 7.371,0.063 6.655,-0.082 M -7.802,11.234 c -0.243,0.228 -0.464,0.408 -0.661,0.626 -0.849,0.937 -0.966,2.156 -0.332,3.37 0.375,0.719 0.88,1.228 1.428,1.67 0.14,0.113 0.281,0.226 0.437,0.35 -0.112,0.291 -0.228,0.542 -0.308,0.813 -0.429,1.453 -0.156,2.722 0.584,3.838 0.657,0.992 1.499,1.583 2.419,1.986 0.185,0.081 0.371,0.157 0.562,0.237 -0.086,0.421 -0.196,0.806 -0.24,1.204 -0.21,1.898 0.415,3.305 1.479,4.379 1.389,1.401 2.979,1.746 4.658,1.458 0.247,-0.043 0.381,0.011 0.531,0.303 0.762,1.479 1.856,2.254 3.115,2.643 1.435,0.443 2.849,0.323 4.187,-0.521 1.613,-1.017 2.688,-2.578 2.519,-5.27 0.306,-0.05 0.612,-0.082 0.914,-0.155 1.211,-0.29 2.269,-0.977 3.036,-2.336 0.679,-1.205 0.865,-2.545 0.486,-4.003 -0.024,-0.093 -0.041,-0.189 -0.059,-0.284 -0.002,-0.01 0.008,-0.025 0.019,-0.055 0.378,-0.069 0.767,-0.114 1.149,-0.215 0.948,-0.252 1.825,-0.734 2.554,-1.631 1.291,-1.589 1.263,-3.844 -0.082,-5.362 -0.316,-0.356 -0.691,-0.615 -1.043,-0.911 -0.11,-0.092 -0.233,-0.156 -0.408,-0.272 0.141,-0.123 0.232,-0.204 0.324,-0.281 1.139,-0.958 2.087,-2.181 2.741,-3.792 1.296,-3.195 0.805,-6.599 -1.307,-8.872 -1.343,-1.447 -2.925,-2.002 -4.607,-2.077 -1.115,-0.05 -2.207,0.176 -3.27,0.644 -0.155,0.068 -0.279,0.093 -0.41,-0.115 C 10.885,-4.141 9.15,-6.877 7.417,-9.615 7.404,-9.637 7.393,-9.662 7.379,-9.682 c -0.53,-0.777 -0.706,-1.682 -0.696,-2.753 0.041,-4.121 0.016,-8.243 0.045,-12.365 0.012,-1.684 0.104,-3.367 0.146,-5.051 0.017,-0.66 0.209,-1.181 0.528,-1.667 0.344,-0.523 0.652,-1.093 0.95,-1.668 0.117,-0.224 0.18,-0.51 0.239,-0.779 0.118,-0.541 0.052,-0.644 -0.364,-0.65 -1.552,-0.02 -3.103,-0.043 -4.655,-0.062 -0.366,-0.005 -0.39,0.035 -0.348,0.531 0.056,0.65 0.231,1.213 0.668,1.545 0.462,0.351 0.666,0.877 0.683,1.592 0.04,1.741 0.134,3.48 0.144,5.221 0.019,3.201 0.027,6.403 -0.024,9.603 -0.044,2.802 -0.188,5.6 -0.263,8.401 -0.023,0.837 -0.272,1.442 -0.747,1.939 -1.348,1.407 -2.711,2.791 -4.015,4.271 -0.666,0.754 -1.274,0.962 -2.148,0.694 -1.881,-0.578 -3.782,-0.474 -5.632,0.386 -0.903,0.42 -1.733,1.026 -2.383,1.998 -1.238,1.849 -1.315,4.14 -0.24,6.305 0.678,1.364 1.59,2.368 2.626,3.179 0.095,0.075 0.19,0.153 0.305,0.246"
     style="fill:#ffffff;fill-opacity:1;fill-rule:nonzero;stroke:none"
     id="path4576"
     inkscape:connector-curvature="0" /></g><g
   id="g4578"
   transform="translate(279.672,422.9521)"
   inkscape:export-filename="D:\OneDrive - Universidad Politécnica de Madrid\01-IES\2022 libro PV - Marta\figures\solar_path_latitude.png"
   inkscape:export-xdpi="300"
   inkscape:export-ydpi="300"><path
     d="m 0,0 c 0.387,-0.356 0.749,-0.707 1.123,-1.031 0.627,-0.541 1.257,-1.078 1.896,-1.592 0.289,-0.232 0.384,-0.181 0.472,0.262 0.111,0.555 0.183,1.125 0.262,1.69 0.033,0.235 0.041,0.477 0.063,0.736 C 2.97,0.198 2.189,0.488 1.435,0.915 1.384,0.943 1.307,0.944 1.26,0.911 0.851,0.623 0.446,0.324 0,0 M 5.031,-0.062 C 5.029,-0.107 5.018,-0.179 5.02,-0.25 c 0.02,-0.898 0.031,-1.796 0.066,-2.693 0.02,-0.5 0.068,-1 0.13,-1.495 0.051,-0.412 0.128,-0.443 0.39,-0.212 0.125,0.11 0.25,0.225 0.357,0.364 0.752,0.979 1.502,1.962 2.248,2.949 0.21,0.279 0.405,0.578 0.61,0.871 C 8.444,-0.139 8.091,0.151 7.751,0.469 7.627,0.586 7.527,0.604 7.386,0.541 7.135,0.428 6.878,0.326 6.617,0.264 6.097,0.141 5.572,0.048 5.031,-0.062 m -10.93,8.555 c -0.183,0.173 -0.35,0.309 -0.5,0.474 -0.641,0.708 -0.729,1.63 -0.251,2.548 0.284,0.543 0.666,0.928 1.08,1.262 0.106,0.086 0.213,0.171 0.33,0.265 -0.084,0.22 -0.172,0.409 -0.232,0.614 -0.325,1.099 -0.118,2.058 0.441,2.902 0.497,0.75 1.134,1.197 1.829,1.501 0.14,0.062 0.281,0.119 0.425,0.18 -0.065,0.318 -0.148,0.609 -0.181,0.91 -0.16,1.435 0.313,2.499 1.118,3.311 1.05,1.059 2.252,1.32 3.522,1.102 0.186,-0.032 0.287,0.008 0.401,0.229 0.576,1.118 1.403,1.704 2.355,1.998 1.085,0.335 2.154,0.245 3.166,-0.394 1.219,-0.768 2.031,-1.949 1.904,-3.984 0.231,-0.038 0.463,-0.062 0.691,-0.117 0.915,-0.219 1.715,-0.739 2.295,-1.766 0.514,-0.911 0.654,-1.925 0.367,-3.027 -0.018,-0.07 -0.03,-0.142 -0.044,-0.214 -10e-4,-0.008 0.006,-0.019 0.014,-0.042 0.286,-0.052 0.581,-0.086 0.869,-0.163 0.717,-0.19 1.38,-0.554 1.931,-1.233 0.976,-1.201 0.955,-2.906 -0.062,-4.053 C 15.33,10.526 15.047,10.33 14.781,10.107 14.697,10.037 14.604,9.988 14.472,9.901 14.579,9.808 14.647,9.747 14.717,9.689 15.578,8.964 16.295,8.04 16.789,6.822 17.769,4.406 17.398,1.832 15.802,0.114 14.786,-0.98 13.59,-1.4 12.318,-1.456 11.475,-1.494 10.65,-1.323 9.846,-0.969 9.729,-0.918 9.635,-0.899 9.536,-1.056 8.23,-3.131 6.918,-5.199 5.608,-7.269 5.598,-7.286 5.59,-7.305 5.579,-7.32 5.178,-7.908 5.045,-8.592 5.053,-9.401 c 0.031,-3.116 0.012,-6.233 0.034,-9.349 0.009,-1.273 0.078,-2.545 0.11,-3.819 0.013,-0.499 0.158,-0.892 0.399,-1.26 0.26,-0.395 0.493,-0.827 0.718,-1.261 0.089,-0.17 0.137,-0.385 0.181,-0.589 0.089,-0.409 0.039,-0.487 -0.275,-0.491 -1.173,-0.015 -2.346,-0.033 -3.519,-0.047 -0.277,-0.004 -0.295,0.027 -0.263,0.401 0.041,0.492 0.174,0.917 0.504,1.168 0.35,0.266 0.504,0.663 0.517,1.204 0.03,1.316 0.101,2.631 0.109,3.947 0.014,2.42 0.021,4.841 -0.018,7.261 -0.034,2.118 -0.143,4.233 -0.199,6.351 -0.017,0.633 -0.206,1.09 -0.565,1.466 -1.019,1.064 -2.049,2.11 -3.036,3.229 -0.503,0.57 -0.963,0.728 -1.624,0.525 -1.422,-0.437 -2.859,-0.359 -4.257,0.292 -0.683,0.317 -1.311,0.775 -1.803,1.51 -0.935,1.398 -0.993,3.13 -0.18,4.767 0.512,1.032 1.201,1.79 1.985,2.403 0.072,0.057 0.143,0.116 0.23,0.186"
     style="fill:#ffffff;fill-opacity:1;fill-rule:nonzero;stroke:none"
     id="path4580"
     inkscape:connector-curvature="0" /></g><g
   id="g4582"
   transform="translate(215.5227,423.1044)"
   inkscape:export-filename="D:\OneDrive - Universidad Politécnica de Madrid\01-IES\2022 libro PV - Marta\figures\solar_path_latitude.png"
   inkscape:export-xdpi="300"
   inkscape:export-ydpi="300"><path
     d="m 0,0 c 0.391,-0.36 0.757,-0.715 1.135,-1.042 0.634,-0.547 1.27,-1.089 1.916,-1.609 0.292,-0.235 0.389,-0.183 0.478,0.265 0.111,0.561 0.184,1.136 0.264,1.708 0.033,0.238 0.042,0.482 0.063,0.744 C 3.001,0.2 2.212,0.493 1.45,0.924 1.399,0.953 1.321,0.954 1.273,0.92 0.86,0.63 0.451,0.328 0,0 M 5.085,-0.062 C 5.082,-0.108 5.072,-0.181 5.073,-0.253 c 0.02,-0.907 0.031,-1.815 0.068,-2.721 0.02,-0.506 0.068,-1.011 0.13,-1.511 0.052,-0.416 0.13,-0.448 0.395,-0.214 0.126,0.111 0.252,0.227 0.36,0.367 0.761,0.989 1.518,1.983 2.272,2.981 0.213,0.281 0.41,0.584 0.617,0.88 C 8.534,-0.141 8.177,0.153 7.834,0.474 7.708,0.592 7.607,0.611 7.465,0.547 7.211,0.432 6.951,0.33 6.688,0.267 6.162,0.142 5.632,0.048 5.085,-0.062 M -5.962,8.584 c -0.185,0.174 -0.354,0.311 -0.505,0.478 -0.648,0.716 -0.737,1.648 -0.253,2.575 0.286,0.549 0.672,0.939 1.091,1.276 0.107,0.087 0.215,0.173 0.333,0.268 -0.085,0.222 -0.174,0.414 -0.235,0.621 -0.327,1.111 -0.119,2.08 0.446,2.932 0.503,0.759 1.146,1.21 1.849,1.518 0.142,0.062 0.284,0.12 0.429,0.181 -0.065,0.322 -0.149,0.616 -0.183,0.92 -0.161,1.45 0.317,2.526 1.13,3.346 1.061,1.071 2.277,1.335 3.56,1.114 0.188,-0.033 0.29,0.008 0.405,0.231 0.582,1.13 1.419,1.723 2.38,2.02 1.097,0.339 2.177,0.247 3.2,-0.398 1.232,-0.777 2.053,-1.97 1.924,-4.026 0.234,-0.039 0.468,-0.064 0.698,-0.119 0.926,-0.222 1.735,-0.746 2.32,-1.785 0.52,-0.921 0.661,-1.945 0.372,-3.059 -0.019,-0.07 -0.031,-0.144 -0.045,-0.217 -0.002,-0.008 0.006,-0.019 0.014,-0.042 0.289,-0.053 0.587,-0.087 0.878,-0.164 0.725,-0.193 1.395,-0.561 1.952,-1.246 0.986,-1.214 0.965,-2.937 -0.063,-4.097 C 15.493,10.638 15.207,10.44 14.938,10.215 14.854,10.144 14.76,10.095 14.626,10.007 14.734,9.913 14.804,9.851 14.874,9.792 15.744,9.06 16.469,8.125 16.968,6.894 17.959,4.453 17.584,1.852 15.97,0.115 14.943,-0.99 13.735,-1.414 12.45,-1.472 11.597,-1.51 10.763,-1.337 9.951,-0.979 9.832,-0.927 9.738,-0.909 9.638,-1.067 8.318,-3.164 6.992,-5.255 5.668,-7.347 5.657,-7.363 5.649,-7.382 5.638,-7.398 5.234,-7.992 5.099,-8.683 5.107,-9.501 5.138,-12.65 5.119,-15.8 5.141,-18.95 c 0.009,-1.286 0.079,-2.572 0.112,-3.859 0.012,-0.505 0.159,-0.902 0.403,-1.274 0.263,-0.399 0.498,-0.835 0.726,-1.274 0.089,-0.172 0.138,-0.39 0.182,-0.596 0.09,-0.413 0.04,-0.492 -0.278,-0.496 -1.185,-0.016 -2.371,-0.033 -3.557,-0.048 -0.279,-0.003 -0.298,0.027 -0.265,0.406 0.042,0.497 0.176,0.927 0.51,1.18 0.353,0.269 0.509,0.671 0.521,1.217 0.031,1.33 0.103,2.659 0.111,3.989 0.014,2.446 0.021,4.893 -0.018,7.338 -0.034,2.141 -0.144,4.279 -0.202,6.419 -0.017,0.64 -0.207,1.102 -0.57,1.482 -1.03,1.075 -2.072,2.133 -3.069,3.263 -0.508,0.576 -0.973,0.736 -1.64,0.531 -1.438,-0.442 -2.89,-0.363 -4.304,0.295 -0.69,0.321 -1.324,0.783 -1.821,1.526 -0.946,1.413 -1.005,3.164 -0.183,4.818 0.518,1.042 1.215,1.809 2.006,2.429 0.073,0.057 0.145,0.117 0.233,0.188"
     style="fill:#ffffff;fill-opacity:1;fill-rule:nonzero;stroke:none"
     id="path4584"
     inkscape:connector-curvature="0" /></g><g
   id="g4586"
   transform="translate(103.5986,406.5154)"
   inkscape:export-filename="D:\OneDrive - Universidad Politécnica de Madrid\01-IES\2022 libro PV - Marta\figures\solar_path_latitude.png"
   inkscape:export-xdpi="300"
   inkscape:export-ydpi="300"><path
     d="M 0,0 C 0.458,-0.145 0.938,-0.297 1.557,-0.493 1.269,-0.087 1.098,0.356 0.774,0.568 0.13,0.991 0.222,1.479 0.323,2.117 c 0.538,3.43 1.006,6.872 1.541,10.303 0.053,0.341 0.346,0.695 0.621,0.936 0.246,0.215 0.622,0.282 0.931,0.542 H 1.995 c 0,0.26 -0.006,0.518 10e-4,0.777 0.125,4.728 -0.087,9.433 -0.76,14.124 -0.099,0.687 0.425,1.464 0.666,2.213 C 1.66,30.889 1.327,30.72 1.044,30.576 c -0.955,3.61 -1.9,7.182 -2.845,10.754 -0.078,-0.01 -0.156,-0.02 -0.234,-0.03 -0.584,-1.003 -1.169,-2.007 -1.753,-3.01 -0.057,0.013 -0.115,0.026 -0.172,0.039 v 1.658 c -0.038,0.003 -0.075,0.006 -0.113,0.009 -0.466,-1.325 -0.932,-2.649 -1.398,-3.974 -0.055,0.007 -0.111,0.013 -0.166,0.02 -0.15,0.553 -0.299,1.105 -0.448,1.658 -0.07,-0.006 -0.14,-0.011 -0.21,-0.017 0.012,-1.307 0.052,-2.62 -0.754,-3.84 -0.109,0.472 -0.193,0.835 -0.277,1.199 -0.303,-2.838 -1.979,-4.803 -4.1,-6.759 -0.282,6.391 2.859,11.036 6.877,15.458 -1.126,-0.467 -2.115,-0.877 -3.103,-1.287 -0.033,0.038 -0.065,0.075 -0.098,0.113 0.319,0.47 0.638,0.941 1.031,1.52 -1.305,-0.869 -2.485,-1.655 -3.666,-2.442 -0.034,0.045 -0.067,0.089 -0.1,0.134 0.212,0.517 0.423,1.035 0.635,1.553 -0.974,-0.913 -1.745,-2 -3.166,-2.506 0.25,0.468 0.436,0.816 0.622,1.165 -1.972,-2.111 -4.541,-2.632 -7.232,-2.926 1.751,3.503 6.914,6.936 14.753,8.202 -1.513,0.586 -2.815,1.091 -4.297,1.665 0.677,0.106 1.158,0.181 1.638,0.256 -0.001,0.042 -0.002,0.084 -0.004,0.126 -1.669,0.108 -3.339,0.217 -5.214,0.338 0.654,0.391 1.155,0.691 1.656,0.99 -0.013,0.043 -0.026,0.085 -0.039,0.127 -1.459,-0.349 -2.918,-0.697 -4.576,-1.094 0.45,0.561 0.769,0.958 1.222,1.523 -2.62,-1.098 -5.055,-2.119 -7.49,-3.14 2.961,3.953 8.727,7.457 14.549,3.786 1.584,-0.999 3.123,-2.069 4.795,-3.18 -1.007,2.136 -1.972,4.185 -3.023,6.416 0.58,-0.347 1.001,-0.599 1.445,-0.865 -1.219,1.259 -2.408,2.485 -3.596,3.712 0.037,0.059 0.074,0.117 0.112,0.176 0.752,-0.166 1.505,-0.332 2.257,-0.498 0.014,0.04 0.028,0.079 0.042,0.118 -1.578,0.819 -3.157,1.638 -4.735,2.456 0.008,0.054 0.016,0.108 0.024,0.162 0.658,0.033 1.316,0.066 1.974,0.1 0.007,0.043 0.015,0.087 0.022,0.13 -2.961,1.022 -5.923,2.043 -8.885,3.065 0.018,0.108 0.035,0.216 0.053,0.323 1.543,-0.075 3.106,-0.022 4.623,-0.259 1.731,-0.271 3.476,-0.651 5.119,-1.248 3.82,-1.387 5.702,-4.331 6.188,-8.27 0.118,-0.952 0.254,-1.902 0.394,-2.946 2.125,3.497 5.621,3.852 9.105,4.14 1.524,0.127 3.067,0.022 4.601,0.022 0.006,-0.097 0.011,-0.193 0.016,-0.289 L 5.679,53.856 C 5.677,53.806 5.676,53.755 5.674,53.705 6.177,53.66 6.68,53.615 7.183,53.57 7.191,53.536 7.199,53.502 7.208,53.468 5.976,53.185 4.745,52.902 3.513,52.619 c 0.01,-0.053 0.019,-0.106 0.029,-0.159 0.622,0.044 1.244,0.089 1.866,0.133 0.024,-0.047 0.047,-0.094 0.071,-0.141 -1.035,-0.57 -2.07,-1.141 -3.105,-1.712 0.02,-0.051 0.041,-0.102 0.061,-0.153 0.439,0.158 0.879,0.316 1.561,0.562 -0.914,-1.157 -1.686,-2.133 -2.582,-3.267 0.32,0.116 0.473,0.165 0.62,0.226 2.158,0.902 4.279,1.91 6.484,2.68 2.228,0.778 4.431,0.351 6.461,-0.797 3.516,-1.987 5.824,-5.085 7.711,-8.552 0.006,-0.01 -0.027,-0.043 -0.138,-0.207 -2.41,2.013 -4.808,4.017 -7.206,6.02 l -0.108,-0.043 c 0.291,-0.581 0.583,-1.163 0.874,-1.744 -0.026,-0.043 -0.051,-0.086 -0.077,-0.129 -1.515,0.927 -3.029,1.854 -4.544,2.781 -0.03,-0.033 -0.06,-0.065 -0.09,-0.097 0.536,-0.561 1.071,-1.121 1.771,-1.853 -2.01,0.509 -3.814,0.966 -5.617,1.423 C 7.537,47.552 7.519,47.513 7.502,47.474 8.045,47.204 8.588,46.934 9.361,46.55 7.689,46.374 6.248,46.223 4.806,46.071 c 5.202,-0.885 10.061,-2.392 13.714,-6.868 -2.886,0.041 -5.464,0.346 -7.619,2.331 0.206,-0.351 0.413,-0.701 0.672,-1.14 -1.443,0.383 -2.31,1.383 -3.345,2.264 C 8.491,42.14 8.754,41.622 9.138,40.865 7.721,41.628 6.472,42.3 5.223,42.972 5.185,42.944 5.147,42.916 5.109,42.888 c 0.654,-0.62 1.273,-1.283 1.969,-1.851 2.074,-1.694 3.895,-3.605 5.119,-6.008 0.497,-0.975 0.853,-2.023 1.295,-3.092 -2.043,0.229 -4.799,2.603 -6.046,5.013 0.038,-0.398 0.075,-0.797 0.123,-1.295 -1.148,0.903 -1.517,2.177 -2.128,3.366 0.03,-0.575 0.06,-1.15 0.103,-1.962 C 4.565,38.314 3.695,39.43 2.72,40.68 2.913,40.01 3.068,39.475 3.264,38.794 2.849,39.106 2.537,39.341 2.138,39.641 3.059,34.864 3.962,30.181 4.858,25.534 4.174,25.072 3.592,24.678 2.83,24.162 3.655,24.297 4.245,24.394 4.885,24.499 5.792,17.245 5.928,10.132 5.034,2.847 4.704,3.333 4.482,3.727 4.194,4.065 3.921,4.383 3.579,4.642 3.192,4.839 3.52,4.1 3.837,3.356 4.18,2.625 4.863,1.174 4.603,-0.28 4.228,-1.739 3.687,-3.844 3.145,-5.949 2.588,-8.111 c 0.377,-0.136 0.785,-0.276 1.188,-0.43 1.657,-0.631 3.077,-1.605 4.23,-2.957 0.384,-0.45 0.546,-0.946 0.277,-1.528 -0.261,-0.564 -0.718,-0.686 -1.29,-0.685 -4.917,0.009 -9.833,0.009 -14.75,-10e-4 -0.573,-10e-4 -1.152,0.109 -1.253,0.695 -0.083,0.482 -0.009,1.151 0.278,1.509 1.372,1.709 3.189,2.781 5.313,3.31 0.552,0.137 0.906,0.378 1.085,0.952 C -1.595,-4.882 -0.819,-2.53 0,0"
     style="fill:#ffffff;fill-opacity:1;fill-rule:nonzero;stroke:none"
     id="path4588"
     inkscape:connector-curvature="0" /></g><g
   id="g4590"
   transform="translate(126.905,403.2129)"
   inkscape:export-filename="D:\OneDrive - Universidad Politécnica de Madrid\01-IES\2022 libro PV - Marta\figures\solar_path_latitude.png"
   inkscape:export-xdpi="300"
   inkscape:export-ydpi="300"><path
     d="M 0,0 C 0.348,-0.11 0.712,-0.225 1.182,-0.374 0.964,-0.066 0.833,0.27 0.588,0.431 0.099,0.752 0.169,1.123 0.245,1.607 c 0.409,2.604 0.764,5.217 1.17,7.821 0.04,0.259 0.263,0.528 0.472,0.711 0.187,0.163 0.472,0.215 0.706,0.412 H 1.514 c 0,0.197 -0.004,0.393 10e-4,0.589 0.095,3.59 -0.065,7.162 -0.577,10.723 -0.074,0.521 0.323,1.111 0.506,1.68 -0.184,-0.094 -0.437,-0.222 -0.652,-0.331 -0.725,2.74 -1.442,5.452 -2.159,8.164 -0.059,-0.008 -0.119,-0.015 -0.178,-0.023 -0.444,-0.762 -0.887,-1.524 -1.331,-2.285 l -0.13,0.03 v 1.258 c -0.029,0.003 -0.057,0.005 -0.086,0.007 l -1.061,-3.017 c -0.042,0.005 -0.084,0.01 -0.127,0.016 -0.113,0.419 -0.226,0.839 -0.34,1.258 -0.053,-0.004 -0.106,-0.008 -0.159,-0.013 0.009,-0.992 0.039,-1.989 -0.572,-2.915 -0.083,0.358 -0.147,0.634 -0.211,0.91 -0.23,-2.154 -1.502,-3.646 -3.112,-5.131 -0.214,4.852 2.17,8.378 5.22,11.735 -0.854,-0.354 -1.605,-0.666 -2.355,-0.977 -0.025,0.029 -0.049,0.057 -0.074,0.086 0.242,0.357 0.484,0.714 0.782,1.154 -0.99,-0.66 -1.887,-1.257 -2.783,-1.854 -0.025,0.034 -0.051,0.068 -0.076,0.101 0.161,0.393 0.322,0.786 0.482,1.18 -0.739,-0.694 -1.324,-1.519 -2.403,-1.903 0.189,0.355 0.331,0.62 0.472,0.884 -1.497,-1.602 -3.447,-1.997 -5.49,-2.221 1.329,2.66 5.249,5.266 11.2,6.227 -1.149,0.445 -2.138,0.828 -3.262,1.264 0.514,0.08 0.879,0.137 1.243,0.194 -0.001,0.032 -0.002,0.064 -0.003,0.096 -1.267,0.082 -2.535,0.164 -3.958,0.257 0.496,0.296 0.877,0.524 1.257,0.751 -0.01,0.032 -0.02,0.064 -0.03,0.097 -1.107,-0.265 -2.215,-0.53 -3.473,-0.831 0.341,0.425 0.583,0.727 0.927,1.156 -1.989,-0.834 -3.837,-1.609 -5.686,-2.384 2.248,3.002 6.626,5.661 11.045,2.875 1.203,-0.759 2.371,-1.571 3.64,-2.415 -0.764,1.622 -1.497,3.178 -2.295,4.871 0.44,-0.263 0.76,-0.455 1.097,-0.656 -0.925,0.955 -1.828,1.886 -2.73,2.817 0.028,0.045 0.057,0.089 0.085,0.134 0.571,-0.126 1.143,-0.252 1.714,-0.378 0.01,0.03 0.021,0.06 0.032,0.09 -1.199,0.621 -2.397,1.243 -3.595,1.864 0.006,0.041 0.012,0.082 0.019,0.123 0.499,0.025 0.998,0.05 1.498,0.076 0.005,0.033 0.011,0.066 0.017,0.099 -2.249,0.775 -4.497,1.551 -6.745,2.326 0.013,0.082 0.026,0.164 0.04,0.246 1.171,-0.057 2.358,-0.017 3.51,-0.197 1.314,-0.206 2.638,-0.495 3.885,-0.948 2.9,-1.053 4.329,-3.287 4.698,-6.278 0.089,-0.722 0.192,-1.443 0.299,-2.236 1.614,2.655 4.267,2.924 6.913,3.143 1.156,0.096 2.328,0.016 3.492,0.016 C 9.939,41.982 9.943,41.909 9.947,41.836 8.069,41.519 6.19,41.202 4.311,40.885 L 4.307,40.77 C 4.689,40.736 5.071,40.702 5.453,40.668 5.459,40.642 5.465,40.616 5.472,40.59 4.537,40.376 3.602,40.161 2.667,39.946 c 0.007,-0.04 0.015,-0.081 0.022,-0.121 0.472,0.034 0.944,0.068 1.417,0.101 0.017,-0.035 0.035,-0.071 0.053,-0.107 -0.785,-0.433 -1.571,-0.866 -2.357,-1.3 0.016,-0.038 0.031,-0.077 0.047,-0.116 0.333,0.12 0.667,0.24 1.185,0.427 -0.694,-0.878 -1.28,-1.62 -1.961,-2.481 0.243,0.089 0.359,0.126 0.471,0.173 1.638,0.684 3.249,1.449 4.922,2.034 1.692,0.591 3.365,0.266 4.906,-0.605 2.669,-1.509 4.421,-3.861 5.853,-6.492 0.005,-0.008 -0.02,-0.033 -0.104,-0.158 -1.83,1.529 -3.651,3.049 -5.471,4.57 -0.027,-0.011 -0.055,-0.021 -0.082,-0.032 0.221,-0.442 0.442,-0.883 0.664,-1.324 -0.02,-0.033 -0.039,-0.066 -0.059,-0.098 -1.15,0.703 -2.3,1.407 -3.45,2.111 C 8.701,36.503 8.678,36.479 8.655,36.454 9.062,36.029 9.469,35.603 9.999,35.048 8.473,35.434 7.104,35.781 5.735,36.128 L 5.695,36.04 C 6.107,35.835 6.52,35.63 7.107,35.338 5.837,35.205 4.743,35.09 3.648,34.975 c 3.949,-0.672 7.639,-1.816 10.411,-5.214 -2.191,0.031 -4.148,0.263 -5.784,1.77 0.157,-0.267 0.314,-0.533 0.511,-0.866 -1.096,0.291 -1.754,1.05 -2.54,1.719 0.2,-0.394 0.399,-0.787 0.691,-1.361 C 5.861,31.602 4.913,32.112 3.965,32.622 3.936,32.601 3.907,32.58 3.879,32.558 4.375,32.088 4.845,31.584 5.373,31.153 6.948,29.867 8.33,28.417 9.26,26.593 9.637,25.852 9.907,25.056 10.242,24.245 8.691,24.419 6.599,26.221 5.652,28.051 5.681,27.748 5.71,27.445 5.746,27.068 4.874,27.753 4.594,28.72 4.131,29.623 4.154,29.186 4.176,28.75 4.209,28.134 3.466,29.086 2.805,29.933 2.065,30.882 2.212,30.374 2.329,29.967 2.478,29.451 2.163,29.688 1.926,29.866 1.623,30.094 2.322,26.467 3.007,22.912 3.688,19.384 3.168,19.033 2.727,18.735 2.148,18.343 2.774,18.445 3.223,18.519 3.708,18.598 4.397,13.092 4.501,7.692 3.822,2.161 3.571,2.53 3.403,2.83 3.184,3.086 2.977,3.328 2.717,3.524 2.423,3.673 2.673,3.113 2.913,2.548 3.174,1.993 3.691,0.892 3.495,-0.213 3.21,-1.32 2.799,-2.918 2.387,-4.516 1.965,-6.158 2.251,-6.261 2.561,-6.367 2.867,-6.484 4.125,-6.963 5.203,-7.702 6.078,-8.728 6.37,-9.071 6.492,-9.447 6.288,-9.889 6.09,-10.317 5.743,-10.41 5.309,-10.409 c -3.733,0.007 -7.465,0.007 -11.198,0 -0.434,-10e-4 -0.874,0.082 -0.951,0.527 -0.063,0.366 -0.007,0.874 0.211,1.146 1.041,1.297 2.421,2.111 4.033,2.512 0.42,0.105 0.688,0.287 0.824,0.723 C -1.21,-3.706 -0.621,-1.921 0,0"
     style="fill:#ffffff;fill-opacity:1;fill-rule:nonzero;stroke:none"
     id="path4592"
     inkscape:connector-curvature="0" /></g></g></svg>
