<?xml version="1.0" encoding="utf-8" standalone="no"?>
<!DOCTYPE svg PUBLIC "-//W3C//DTD SVG 1.1//EN"
  "http://www.w3.org/Graphics/SVG/1.1/DTD/svg11.dtd">
<svg xmlns:xlink="http://www.w3.org/1999/xlink" width="528.31875pt" height="328.121562pt" viewBox="0 0 528.31875 328.121562" xmlns="http://www.w3.org/2000/svg" version="1.1">
 <metadata>
  <rdf:RDF xmlns:dc="http://purl.org/dc/elements/1.1/" xmlns:cc="http://creativecommons.org/ns#" xmlns:rdf="http://www.w3.org/1999/02/22-rdf-syntax-ns#">
   <cc:Work>
    <dc:type rdf:resource="http://purl.org/dc/dcmitype/StillImage"/>
    <dc:date>2023-06-09T23:37:22.942377</dc:date>
    <dc:format>image/svg+xml</dc:format>
    <dc:creator>
     <cc:Agent>
      <dc:title>Matplotlib v3.7.1, https://matplotlib.org/</dc:title>
     </cc:Agent>
    </dc:creator>
   </cc:Work>
  </rdf:RDF>
 </metadata>
 <defs>
  <style type="text/css">*{stroke-linejoin: round; stroke-linecap: butt}</style>
 </defs>
 <g id="figure_1">
  <g id="patch_1">
   <path d="M 0 328.121562 
L 528.31875 328.121562 
L 528.31875 -0 
L 0 -0 
z
" style="fill: #ffffff"/>
  </g>
  <g id="axes_1">
   <g id="patch_2">
    <path d="M 74.71875 300.96 
L 521.11875 300.96 
L 521.11875 7.2 
L 74.71875 7.2 
z
" style="fill: #ffffff"/>
   </g>
   <g id="matplotlib.axis_1">
    <g id="xtick_1">
     <g id="line2d_1">
      <defs>
       <path id="m31d9ab8b8c" d="M 0 0 
L 0 -3.5 
" style="stroke: #000000; stroke-width: 0.8"/>
      </defs>
      <g>
       <use xlink:href="#m31d9ab8b8c" x="95.009659" y="300.96" style="stroke: #000000; stroke-width: 0.8"/>
      </g>
     </g>
     <g id="text_1">
      <!-- 04h -->
      <g transform="translate(64.980597 317.344062) scale(0.18 -0.18)">
       <defs>
        <path id="ArialMT-30" d="M 266 2259 
Q 266 3072 433 3567 
Q 600 4063 929 4331 
Q 1259 4600 1759 4600 
Q 2128 4600 2406 4451 
Q 2684 4303 2865 4023 
Q 3047 3744 3150 3342 
Q 3253 2941 3253 2259 
Q 3253 1453 3087 958 
Q 2922 463 2592 192 
Q 2263 -78 1759 -78 
Q 1097 -78 719 397 
Q 266 969 266 2259 
z
M 844 2259 
Q 844 1131 1108 757 
Q 1372 384 1759 384 
Q 2147 384 2411 759 
Q 2675 1134 2675 2259 
Q 2675 3391 2411 3762 
Q 2147 4134 1753 4134 
Q 1366 4134 1134 3806 
Q 844 3388 844 2259 
z
" transform="scale(0.015625)"/>
        <path id="ArialMT-34" d="M 2069 0 
L 2069 1097 
L 81 1097 
L 81 1613 
L 2172 4581 
L 2631 4581 
L 2631 1613 
L 3250 1613 
L 3250 1097 
L 2631 1097 
L 2631 0 
L 2069 0 
z
M 2069 1613 
L 2069 3678 
L 634 1613 
L 2069 1613 
z
" transform="scale(0.015625)"/>
        <path id="ArialMT-68" d="M 422 0 
L 422 4581 
L 984 4581 
L 984 2938 
Q 1378 3394 1978 3394 
Q 2347 3394 2619 3248 
Q 2891 3103 3008 2847 
Q 3125 2591 3125 2103 
L 3125 0 
L 2563 0 
L 2563 2103 
Q 2563 2525 2380 2717 
Q 2197 2909 1863 2909 
Q 1613 2909 1392 2779 
Q 1172 2650 1078 2428 
Q 984 2206 984 1816 
L 984 0 
L 422 0 
z
" transform="scale(0.015625)"/>
       </defs>
       <use xlink:href="#ArialMT-30"/>
       <use xlink:href="#ArialMT-34" x="55.615234"/>
       <use xlink:href="#ArialMT-68" x="111.230469"/>
      </g>
     </g>
    </g>
    <g id="xtick_2">
     <g id="line2d_2">
      <g>
       <use xlink:href="#m31d9ab8b8c" x="135.761276" y="300.96" style="stroke: #000000; stroke-width: 0.8"/>
      </g>
     </g>
     <g id="text_2">
      <!-- 06h -->
      <g transform="translate(105.732213 317.344062) scale(0.18 -0.18)">
       <defs>
        <path id="ArialMT-36" d="M 3184 3459 
L 2625 3416 
Q 2550 3747 2413 3897 
Q 2184 4138 1850 4138 
Q 1581 4138 1378 3988 
Q 1113 3794 959 3422 
Q 806 3050 800 2363 
Q 1003 2672 1297 2822 
Q 1591 2972 1913 2972 
Q 2475 2972 2870 2558 
Q 3266 2144 3266 1488 
Q 3266 1056 3080 686 
Q 2894 316 2569 119 
Q 2244 -78 1831 -78 
Q 1128 -78 684 439 
Q 241 956 241 2144 
Q 241 3472 731 4075 
Q 1159 4600 1884 4600 
Q 2425 4600 2770 4297 
Q 3116 3994 3184 3459 
z
M 888 1484 
Q 888 1194 1011 928 
Q 1134 663 1356 523 
Q 1578 384 1822 384 
Q 2178 384 2434 671 
Q 2691 959 2691 1453 
Q 2691 1928 2437 2201 
Q 2184 2475 1800 2475 
Q 1419 2475 1153 2201 
Q 888 1928 888 1484 
z
" transform="scale(0.015625)"/>
       </defs>
       <use xlink:href="#ArialMT-30"/>
       <use xlink:href="#ArialMT-36" x="55.615234"/>
       <use xlink:href="#ArialMT-68" x="111.230469"/>
      </g>
     </g>
    </g>
    <g id="xtick_3">
     <g id="line2d_3">
      <g>
       <use xlink:href="#m31d9ab8b8c" x="176.512892" y="300.96" style="stroke: #000000; stroke-width: 0.8"/>
      </g>
     </g>
     <g id="text_3">
      <!-- 08h -->
      <g transform="translate(146.48383 317.344062) scale(0.18 -0.18)">
       <defs>
        <path id="ArialMT-38" d="M 1131 2484 
Q 781 2613 612 2850 
Q 444 3088 444 3419 
Q 444 3919 803 4259 
Q 1163 4600 1759 4600 
Q 2359 4600 2725 4251 
Q 3091 3903 3091 3403 
Q 3091 3084 2923 2848 
Q 2756 2613 2416 2484 
Q 2838 2347 3058 2040 
Q 3278 1734 3278 1309 
Q 3278 722 2862 322 
Q 2447 -78 1769 -78 
Q 1091 -78 675 323 
Q 259 725 259 1325 
Q 259 1772 486 2073 
Q 713 2375 1131 2484 
z
M 1019 3438 
Q 1019 3113 1228 2906 
Q 1438 2700 1772 2700 
Q 2097 2700 2305 2904 
Q 2513 3109 2513 3406 
Q 2513 3716 2298 3927 
Q 2084 4138 1766 4138 
Q 1444 4138 1231 3931 
Q 1019 3725 1019 3438 
z
M 838 1322 
Q 838 1081 952 856 
Q 1066 631 1291 507 
Q 1516 384 1775 384 
Q 2178 384 2440 643 
Q 2703 903 2703 1303 
Q 2703 1709 2433 1975 
Q 2163 2241 1756 2241 
Q 1359 2241 1098 1978 
Q 838 1716 838 1322 
z
" transform="scale(0.015625)"/>
       </defs>
       <use xlink:href="#ArialMT-30"/>
       <use xlink:href="#ArialMT-38" x="55.615234"/>
       <use xlink:href="#ArialMT-68" x="111.230469"/>
      </g>
     </g>
    </g>
    <g id="xtick_4">
     <g id="line2d_4">
      <g>
       <use xlink:href="#m31d9ab8b8c" x="217.264509" y="300.96" style="stroke: #000000; stroke-width: 0.8"/>
      </g>
     </g>
     <g id="text_4">
      <!-- 10h -->
      <g transform="translate(187.235446 317.344062) scale(0.18 -0.18)">
       <defs>
        <path id="ArialMT-31" d="M 2384 0 
L 1822 0 
L 1822 3584 
Q 1619 3391 1289 3197 
Q 959 3003 697 2906 
L 697 3450 
Q 1169 3672 1522 3987 
Q 1875 4303 2022 4600 
L 2384 4600 
L 2384 0 
z
" transform="scale(0.015625)"/>
       </defs>
       <use xlink:href="#ArialMT-31"/>
       <use xlink:href="#ArialMT-30" x="55.615234"/>
       <use xlink:href="#ArialMT-68" x="111.230469"/>
      </g>
     </g>
    </g>
    <g id="xtick_5">
     <g id="line2d_5">
      <g>
       <use xlink:href="#m31d9ab8b8c" x="258.016125" y="300.96" style="stroke: #000000; stroke-width: 0.8"/>
      </g>
     </g>
     <g id="text_5">
      <!-- 12h -->
      <g transform="translate(227.987063 317.344062) scale(0.18 -0.18)">
       <defs>
        <path id="ArialMT-32" d="M 3222 541 
L 3222 0 
L 194 0 
Q 188 203 259 391 
Q 375 700 629 1000 
Q 884 1300 1366 1694 
Q 2113 2306 2375 2664 
Q 2638 3022 2638 3341 
Q 2638 3675 2398 3904 
Q 2159 4134 1775 4134 
Q 1369 4134 1125 3890 
Q 881 3647 878 3216 
L 300 3275 
Q 359 3922 746 4261 
Q 1134 4600 1788 4600 
Q 2447 4600 2831 4234 
Q 3216 3869 3216 3328 
Q 3216 3053 3103 2787 
Q 2991 2522 2730 2228 
Q 2469 1934 1863 1422 
Q 1356 997 1212 845 
Q 1069 694 975 541 
L 3222 541 
z
" transform="scale(0.015625)"/>
       </defs>
       <use xlink:href="#ArialMT-31"/>
       <use xlink:href="#ArialMT-32" x="55.615234"/>
       <use xlink:href="#ArialMT-68" x="111.230469"/>
      </g>
     </g>
    </g>
    <g id="xtick_6">
     <g id="line2d_6">
      <g>
       <use xlink:href="#m31d9ab8b8c" x="298.767742" y="300.96" style="stroke: #000000; stroke-width: 0.8"/>
      </g>
     </g>
     <g id="text_6">
      <!-- 14h -->
      <g transform="translate(268.73868 317.344062) scale(0.18 -0.18)">
       <use xlink:href="#ArialMT-31"/>
       <use xlink:href="#ArialMT-34" x="55.615234"/>
       <use xlink:href="#ArialMT-68" x="111.230469"/>
      </g>
     </g>
    </g>
    <g id="xtick_7">
     <g id="line2d_7">
      <g>
       <use xlink:href="#m31d9ab8b8c" x="339.519359" y="300.96" style="stroke: #000000; stroke-width: 0.8"/>
      </g>
     </g>
     <g id="text_7">
      <!-- 16h -->
      <g transform="translate(309.490296 317.344062) scale(0.18 -0.18)">
       <use xlink:href="#ArialMT-31"/>
       <use xlink:href="#ArialMT-36" x="55.615234"/>
       <use xlink:href="#ArialMT-68" x="111.230469"/>
      </g>
     </g>
    </g>
    <g id="xtick_8">
     <g id="line2d_8">
      <g>
       <use xlink:href="#m31d9ab8b8c" x="380.270975" y="300.96" style="stroke: #000000; stroke-width: 0.8"/>
      </g>
     </g>
     <g id="text_8">
      <!-- 18h -->
      <g transform="translate(350.241913 317.344062) scale(0.18 -0.18)">
       <use xlink:href="#ArialMT-31"/>
       <use xlink:href="#ArialMT-38" x="55.615234"/>
       <use xlink:href="#ArialMT-68" x="111.230469"/>
      </g>
     </g>
    </g>
    <g id="xtick_9">
     <g id="line2d_9">
      <g>
       <use xlink:href="#m31d9ab8b8c" x="421.022592" y="300.96" style="stroke: #000000; stroke-width: 0.8"/>
      </g>
     </g>
     <g id="text_9">
      <!-- 20h -->
      <g transform="translate(390.993529 317.344062) scale(0.18 -0.18)">
       <use xlink:href="#ArialMT-32"/>
       <use xlink:href="#ArialMT-30" x="55.615234"/>
       <use xlink:href="#ArialMT-68" x="111.230469"/>
      </g>
     </g>
    </g>
    <g id="xtick_10">
     <g id="line2d_10">
      <g>
       <use xlink:href="#m31d9ab8b8c" x="461.774208" y="300.96" style="stroke: #000000; stroke-width: 0.8"/>
      </g>
     </g>
     <g id="text_10">
      <!-- 22h -->
      <g transform="translate(431.745146 317.344062) scale(0.18 -0.18)">
       <use xlink:href="#ArialMT-32"/>
       <use xlink:href="#ArialMT-32" x="55.615234"/>
       <use xlink:href="#ArialMT-68" x="111.230469"/>
      </g>
     </g>
    </g>
    <g id="xtick_11">
     <g id="line2d_11">
      <g>
       <use xlink:href="#m31d9ab8b8c" x="502.525825" y="300.96" style="stroke: #000000; stroke-width: 0.8"/>
      </g>
     </g>
     <g id="text_11">
      <!-- 00h -->
      <g transform="translate(472.496762 317.344062) scale(0.18 -0.18)">
       <use xlink:href="#ArialMT-30"/>
       <use xlink:href="#ArialMT-30" x="55.615234"/>
       <use xlink:href="#ArialMT-68" x="111.230469"/>
      </g>
     </g>
    </g>
   </g>
   <g id="matplotlib.axis_2">
    <g id="ytick_1">
     <g id="line2d_12">
      <defs>
       <path id="m851d42106f" d="M 0 0 
L 3.5 0 
" style="stroke: #000000; stroke-width: 0.8"/>
      </defs>
      <g>
       <use xlink:href="#m851d42106f" x="74.71875" y="300.96" style="stroke: #000000; stroke-width: 0.8"/>
      </g>
     </g>
     <g id="text_12">
      <!-- 0 -->
      <g transform="translate(61.209063 307.402031) scale(0.18 -0.18)">
       <use xlink:href="#ArialMT-30"/>
      </g>
     </g>
    </g>
    <g id="ytick_2">
     <g id="line2d_13">
      <g>
       <use xlink:href="#m851d42106f" x="74.71875" y="247.549091" style="stroke: #000000; stroke-width: 0.8"/>
      </g>
     </g>
     <g id="text_13">
      <!-- 200 -->
      <g transform="translate(41.189688 253.991122) scale(0.18 -0.18)">
       <use xlink:href="#ArialMT-32"/>
       <use xlink:href="#ArialMT-30" x="55.615234"/>
       <use xlink:href="#ArialMT-30" x="111.230469"/>
      </g>
     </g>
    </g>
    <g id="ytick_3">
     <g id="line2d_14">
      <g>
       <use xlink:href="#m851d42106f" x="74.71875" y="194.138182" style="stroke: #000000; stroke-width: 0.8"/>
      </g>
     </g>
     <g id="text_14">
      <!-- 400 -->
      <g transform="translate(41.189688 200.580213) scale(0.18 -0.18)">
       <use xlink:href="#ArialMT-34"/>
       <use xlink:href="#ArialMT-30" x="55.615234"/>
       <use xlink:href="#ArialMT-30" x="111.230469"/>
      </g>
     </g>
    </g>
    <g id="ytick_4">
     <g id="line2d_15">
      <g>
       <use xlink:href="#m851d42106f" x="74.71875" y="140.727273" style="stroke: #000000; stroke-width: 0.8"/>
      </g>
     </g>
     <g id="text_15">
      <!-- 600 -->
      <g transform="translate(41.189688 147.169304) scale(0.18 -0.18)">
       <use xlink:href="#ArialMT-36"/>
       <use xlink:href="#ArialMT-30" x="55.615234"/>
       <use xlink:href="#ArialMT-30" x="111.230469"/>
      </g>
     </g>
    </g>
    <g id="ytick_5">
     <g id="line2d_16">
      <g>
       <use xlink:href="#m851d42106f" x="74.71875" y="87.316364" style="stroke: #000000; stroke-width: 0.8"/>
      </g>
     </g>
     <g id="text_16">
      <!-- 800 -->
      <g transform="translate(41.189688 93.758395) scale(0.18 -0.18)">
       <use xlink:href="#ArialMT-38"/>
       <use xlink:href="#ArialMT-30" x="55.615234"/>
       <use xlink:href="#ArialMT-30" x="111.230469"/>
      </g>
     </g>
    </g>
    <g id="ytick_6">
     <g id="line2d_17">
      <g>
       <use xlink:href="#m851d42106f" x="74.71875" y="33.905455" style="stroke: #000000; stroke-width: 0.8"/>
      </g>
     </g>
     <g id="text_17">
      <!-- 1000 -->
      <g transform="translate(31.18 40.347486) scale(0.18 -0.18)">
       <use xlink:href="#ArialMT-31"/>
       <use xlink:href="#ArialMT-30" x="55.615234"/>
       <use xlink:href="#ArialMT-30" x="111.230469"/>
       <use xlink:href="#ArialMT-30" x="166.845703"/>
      </g>
     </g>
    </g>
    <g id="text_18">
     <!-- Global Irradiance [$W·m^{-2}$] -->
     <g transform="translate(23.58 260.64) rotate(-90) scale(0.18 -0.18)">
      <defs>
       <path id="ArialMT-47" d="M 2638 1797 
L 2638 2334 
L 4578 2338 
L 4578 638 
Q 4131 281 3656 101 
Q 3181 -78 2681 -78 
Q 2006 -78 1454 211 
Q 903 500 622 1047 
Q 341 1594 341 2269 
Q 341 2938 620 3517 
Q 900 4097 1425 4378 
Q 1950 4659 2634 4659 
Q 3131 4659 3532 4498 
Q 3934 4338 4162 4050 
Q 4391 3763 4509 3300 
L 3963 3150 
Q 3859 3500 3706 3700 
Q 3553 3900 3268 4020 
Q 2984 4141 2638 4141 
Q 2222 4141 1919 4014 
Q 1616 3888 1430 3681 
Q 1244 3475 1141 3228 
Q 966 2803 966 2306 
Q 966 1694 1177 1281 
Q 1388 869 1791 669 
Q 2194 469 2647 469 
Q 3041 469 3416 620 
Q 3791 772 3984 944 
L 3984 1797 
L 2638 1797 
z
" transform="scale(0.015625)"/>
       <path id="ArialMT-6c" d="M 409 0 
L 409 4581 
L 972 4581 
L 972 0 
L 409 0 
z
" transform="scale(0.015625)"/>
       <path id="ArialMT-6f" d="M 213 1659 
Q 213 2581 725 3025 
Q 1153 3394 1769 3394 
Q 2453 3394 2887 2945 
Q 3322 2497 3322 1706 
Q 3322 1066 3130 698 
Q 2938 331 2570 128 
Q 2203 -75 1769 -75 
Q 1072 -75 642 372 
Q 213 819 213 1659 
z
M 791 1659 
Q 791 1022 1069 705 
Q 1347 388 1769 388 
Q 2188 388 2466 706 
Q 2744 1025 2744 1678 
Q 2744 2294 2464 2611 
Q 2184 2928 1769 2928 
Q 1347 2928 1069 2612 
Q 791 2297 791 1659 
z
" transform="scale(0.015625)"/>
       <path id="ArialMT-62" d="M 941 0 
L 419 0 
L 419 4581 
L 981 4581 
L 981 2947 
Q 1338 3394 1891 3394 
Q 2197 3394 2470 3270 
Q 2744 3147 2920 2923 
Q 3097 2700 3197 2384 
Q 3297 2069 3297 1709 
Q 3297 856 2875 390 
Q 2453 -75 1863 -75 
Q 1275 -75 941 416 
L 941 0 
z
M 934 1684 
Q 934 1088 1097 822 
Q 1363 388 1816 388 
Q 2184 388 2453 708 
Q 2722 1028 2722 1663 
Q 2722 2313 2464 2622 
Q 2206 2931 1841 2931 
Q 1472 2931 1203 2611 
Q 934 2291 934 1684 
z
" transform="scale(0.015625)"/>
       <path id="ArialMT-61" d="M 2588 409 
Q 2275 144 1986 34 
Q 1697 -75 1366 -75 
Q 819 -75 525 192 
Q 231 459 231 875 
Q 231 1119 342 1320 
Q 453 1522 633 1644 
Q 813 1766 1038 1828 
Q 1203 1872 1538 1913 
Q 2219 1994 2541 2106 
Q 2544 2222 2544 2253 
Q 2544 2597 2384 2738 
Q 2169 2928 1744 2928 
Q 1347 2928 1158 2789 
Q 969 2650 878 2297 
L 328 2372 
Q 403 2725 575 2942 
Q 747 3159 1072 3276 
Q 1397 3394 1825 3394 
Q 2250 3394 2515 3294 
Q 2781 3194 2906 3042 
Q 3031 2891 3081 2659 
Q 3109 2516 3109 2141 
L 3109 1391 
Q 3109 606 3145 398 
Q 3181 191 3288 0 
L 2700 0 
Q 2613 175 2588 409 
z
M 2541 1666 
Q 2234 1541 1622 1453 
Q 1275 1403 1131 1340 
Q 988 1278 909 1158 
Q 831 1038 831 891 
Q 831 666 1001 516 
Q 1172 366 1500 366 
Q 1825 366 2078 508 
Q 2331 650 2450 897 
Q 2541 1088 2541 1459 
L 2541 1666 
z
" transform="scale(0.015625)"/>
       <path id="ArialMT-20" transform="scale(0.015625)"/>
       <path id="ArialMT-49" d="M 597 0 
L 597 4581 
L 1203 4581 
L 1203 0 
L 597 0 
z
" transform="scale(0.015625)"/>
       <path id="ArialMT-72" d="M 416 0 
L 416 3319 
L 922 3319 
L 922 2816 
Q 1116 3169 1280 3281 
Q 1444 3394 1641 3394 
Q 1925 3394 2219 3213 
L 2025 2691 
Q 1819 2813 1613 2813 
Q 1428 2813 1281 2702 
Q 1134 2591 1072 2394 
Q 978 2094 978 1738 
L 978 0 
L 416 0 
z
" transform="scale(0.015625)"/>
       <path id="ArialMT-64" d="M 2575 0 
L 2575 419 
Q 2259 -75 1647 -75 
Q 1250 -75 917 144 
Q 584 363 401 755 
Q 219 1147 219 1656 
Q 219 2153 384 2558 
Q 550 2963 881 3178 
Q 1213 3394 1622 3394 
Q 1922 3394 2156 3267 
Q 2391 3141 2538 2938 
L 2538 4581 
L 3097 4581 
L 3097 0 
L 2575 0 
z
M 797 1656 
Q 797 1019 1065 703 
Q 1334 388 1700 388 
Q 2069 388 2326 689 
Q 2584 991 2584 1609 
Q 2584 2291 2321 2609 
Q 2059 2928 1675 2928 
Q 1300 2928 1048 2622 
Q 797 2316 797 1656 
z
" transform="scale(0.015625)"/>
       <path id="ArialMT-69" d="M 425 3934 
L 425 4581 
L 988 4581 
L 988 3934 
L 425 3934 
z
M 425 0 
L 425 3319 
L 988 3319 
L 988 0 
L 425 0 
z
" transform="scale(0.015625)"/>
       <path id="ArialMT-6e" d="M 422 0 
L 422 3319 
L 928 3319 
L 928 2847 
Q 1294 3394 1984 3394 
Q 2284 3394 2536 3286 
Q 2788 3178 2913 3003 
Q 3038 2828 3088 2588 
Q 3119 2431 3119 2041 
L 3119 0 
L 2556 0 
L 2556 2019 
Q 2556 2363 2490 2533 
Q 2425 2703 2258 2804 
Q 2091 2906 1866 2906 
Q 1506 2906 1245 2678 
Q 984 2450 984 1813 
L 984 0 
L 422 0 
z
" transform="scale(0.015625)"/>
       <path id="ArialMT-63" d="M 2588 1216 
L 3141 1144 
Q 3050 572 2676 248 
Q 2303 -75 1759 -75 
Q 1078 -75 664 370 
Q 250 816 250 1647 
Q 250 2184 428 2587 
Q 606 2991 970 3192 
Q 1334 3394 1763 3394 
Q 2303 3394 2647 3120 
Q 2991 2847 3088 2344 
L 2541 2259 
Q 2463 2594 2264 2762 
Q 2066 2931 1784 2931 
Q 1359 2931 1093 2626 
Q 828 2322 828 1663 
Q 828 994 1084 691 
Q 1341 388 1753 388 
Q 2084 388 2306 591 
Q 2528 794 2588 1216 
z
" transform="scale(0.015625)"/>
       <path id="ArialMT-65" d="M 2694 1069 
L 3275 997 
Q 3138 488 2766 206 
Q 2394 -75 1816 -75 
Q 1088 -75 661 373 
Q 234 822 234 1631 
Q 234 2469 665 2931 
Q 1097 3394 1784 3394 
Q 2450 3394 2872 2941 
Q 3294 2488 3294 1666 
Q 3294 1616 3291 1516 
L 816 1516 
Q 847 969 1125 678 
Q 1403 388 1819 388 
Q 2128 388 2347 550 
Q 2566 713 2694 1069 
z
M 847 1978 
L 2700 1978 
Q 2663 2397 2488 2606 
Q 2219 2931 1791 2931 
Q 1403 2931 1139 2672 
Q 875 2413 847 1978 
z
" transform="scale(0.015625)"/>
       <path id="ArialMT-5b" d="M 434 -1272 
L 434 4581 
L 1675 4581 
L 1675 4116 
L 997 4116 
L 997 -806 
L 1675 -806 
L 1675 -1272 
L 434 -1272 
z
" transform="scale(0.015625)"/>
       <path id="DejaVuSans-Oblique-57" d="M 616 4666 
L 1228 4666 
L 1453 697 
L 3213 4666 
L 3916 4666 
L 4147 697 
L 5888 4666 
L 6528 4666 
L 4453 0 
L 3659 0 
L 3444 3891 
L 1697 0 
L 903 0 
L 616 4666 
z
" transform="scale(0.015625)"/>
       <path id="DejaVuSans-b7" d="M 684 2619 
L 1344 2619 
L 1344 1825 
L 684 1825 
L 684 2619 
z
" transform="scale(0.015625)"/>
       <path id="DejaVuSans-Oblique-6d" d="M 5747 2113 
L 5338 0 
L 4763 0 
L 5166 2094 
Q 5191 2228 5203 2325 
Q 5216 2422 5216 2491 
Q 5216 2772 5059 2928 
Q 4903 3084 4622 3084 
Q 4203 3084 3875 2770 
Q 3547 2456 3450 1953 
L 3066 0 
L 2491 0 
L 2900 2094 
Q 2925 2209 2937 2307 
Q 2950 2406 2950 2484 
Q 2950 2769 2794 2926 
Q 2638 3084 2363 3084 
Q 1938 3084 1609 2770 
Q 1281 2456 1184 1953 
L 800 0 
L 225 0 
L 909 3500 
L 1484 3500 
L 1375 2956 
Q 1609 3263 1923 3423 
Q 2238 3584 2597 3584 
Q 2978 3584 3223 3384 
Q 3469 3184 3519 2828 
Q 3781 3197 4126 3390 
Q 4472 3584 4856 3584 
Q 5306 3584 5551 3325 
Q 5797 3066 5797 2591 
Q 5797 2488 5784 2364 
Q 5772 2241 5747 2113 
z
" transform="scale(0.015625)"/>
       <path id="DejaVuSans-2212" d="M 678 2272 
L 4684 2272 
L 4684 1741 
L 678 1741 
L 678 2272 
z
" transform="scale(0.015625)"/>
       <path id="DejaVuSans-32" d="M 1228 531 
L 3431 531 
L 3431 0 
L 469 0 
L 469 531 
Q 828 903 1448 1529 
Q 2069 2156 2228 2338 
Q 2531 2678 2651 2914 
Q 2772 3150 2772 3378 
Q 2772 3750 2511 3984 
Q 2250 4219 1831 4219 
Q 1534 4219 1204 4116 
Q 875 4013 500 3803 
L 500 4441 
Q 881 4594 1212 4672 
Q 1544 4750 1819 4750 
Q 2544 4750 2975 4387 
Q 3406 4025 3406 3419 
Q 3406 3131 3298 2873 
Q 3191 2616 2906 2266 
Q 2828 2175 2409 1742 
Q 1991 1309 1228 531 
z
" transform="scale(0.015625)"/>
       <path id="ArialMT-5d" d="M 1363 -1272 
L 122 -1272 
L 122 -806 
L 800 -806 
L 800 4116 
L 122 4116 
L 122 4581 
L 1363 4581 
L 1363 -1272 
z
" transform="scale(0.015625)"/>
      </defs>
      <use xlink:href="#ArialMT-47" transform="translate(0 0.765625)"/>
      <use xlink:href="#ArialMT-6c" transform="translate(77.783203 0.765625)"/>
      <use xlink:href="#ArialMT-6f" transform="translate(100 0.765625)"/>
      <use xlink:href="#ArialMT-62" transform="translate(155.615234 0.765625)"/>
      <use xlink:href="#ArialMT-61" transform="translate(211.230469 0.765625)"/>
      <use xlink:href="#ArialMT-6c" transform="translate(266.845703 0.765625)"/>
      <use xlink:href="#ArialMT-20" transform="translate(289.0625 0.765625)"/>
      <use xlink:href="#ArialMT-49" transform="translate(316.845703 0.765625)"/>
      <use xlink:href="#ArialMT-72" transform="translate(344.628906 0.765625)"/>
      <use xlink:href="#ArialMT-72" transform="translate(377.929688 0.765625)"/>
      <use xlink:href="#ArialMT-61" transform="translate(411.230469 0.765625)"/>
      <use xlink:href="#ArialMT-64" transform="translate(466.845703 0.765625)"/>
      <use xlink:href="#ArialMT-69" transform="translate(522.460938 0.765625)"/>
      <use xlink:href="#ArialMT-61" transform="translate(544.677734 0.765625)"/>
      <use xlink:href="#ArialMT-6e" transform="translate(600.292969 0.765625)"/>
      <use xlink:href="#ArialMT-63" transform="translate(655.908203 0.765625)"/>
      <use xlink:href="#ArialMT-65" transform="translate(705.908203 0.765625)"/>
      <use xlink:href="#ArialMT-20" transform="translate(761.523438 0.765625)"/>
      <use xlink:href="#ArialMT-5b" transform="translate(789.306641 0.765625)"/>
      <use xlink:href="#DejaVuSans-Oblique-57" transform="translate(817.089844 0.765625)"/>
      <use xlink:href="#DejaVuSans-b7" transform="translate(915.966797 0.765625)"/>
      <use xlink:href="#DejaVuSans-Oblique-6d" transform="translate(947.753906 0.765625)"/>
      <use xlink:href="#DejaVuSans-2212" transform="translate(1049.815911 39.046875) scale(0.7)"/>
      <use xlink:href="#DejaVuSans-32" transform="translate(1108.468255 39.046875) scale(0.7)"/>
      <use xlink:href="#ArialMT-5d" transform="translate(1155.738763 0.765625)"/>
     </g>
    </g>
   </g>
   <g id="line2d_18">
    <path d="M 142.553212 300.862062 
L 144.251196 300.188636 
L 145.94918 297.892896 
L 147.647164 293.074015 
L 149.345148 285.639162 
L 151.043132 276.147419 
L 154.4391 253.958944 
L 157.835068 231.169935 
L 161.231036 210.051083 
L 164.627004 191.353938 
L 166.324988 182.948923 
L 168.022972 175.150655 
L 169.720956 167.931081 
L 171.41894 161.258407 
L 173.116924 155.099599 
L 174.814908 149.421926 
L 176.512892 144.193828 
L 178.210876 139.385404 
L 179.90886 134.968627 
L 181.606844 130.917407 
L 183.304828 127.207553 
L 185.002812 123.81668 
L 186.700796 120.724095 
L 188.39878 117.910653 
L 190.096764 115.358629 
L 191.794748 113.051579 
L 193.492733 110.974213 
L 195.190717 109.112282 
L 196.888701 107.452464 
L 198.586685 105.982267 
L 200.284669 104.68994 
L 201.982653 103.564392 
L 203.680637 102.59512 
L 205.378621 101.772144 
L 207.076605 101.085946 
L 208.774589 100.527425 
L 212.170557 99.758808 
L 215.566525 99.400152 
L 218.962493 99.389556 
L 222.358461 99.668563 
L 225.754429 100.181609 
L 230.848381 101.274689 
L 237.640317 103.07657 
L 246.130237 105.378104 
L 251.224189 106.552361 
L 256.318141 107.443325 
L 259.714109 107.841834 
L 263.110078 108.065869 
L 266.506046 108.107045 
L 269.902014 107.963569 
L 273.297982 107.640283 
L 276.69395 107.148532 
L 281.787902 106.135045 
L 286.881854 104.866515 
L 303.861694 100.334235 
L 307.257662 99.696416 
L 310.65363 99.262574 
L 314.049598 99.086571 
L 317.445566 99.224894 
L 320.841534 99.737082 
L 322.539518 100.152967 
L 324.237502 100.686364 
L 325.935486 101.345897 
L 327.63347 102.140547 
L 329.331454 103.0797 
L 331.029438 104.173186 
L 332.727422 105.431345 
L 334.425407 106.865084 
L 336.123391 108.485948 
L 337.821375 110.306201 
L 339.519359 112.338908 
L 341.217343 114.598038 
L 342.915327 117.098561 
L 344.613311 119.856568 
L 346.311295 122.889394 
L 348.009279 126.215749 
L 349.707263 129.855852 
L 351.405247 133.831564 
L 353.103231 138.166515 
L 354.801215 142.886197 
L 356.499199 148.018019 
L 358.197183 153.591266 
L 359.895167 159.636931 
L 361.593151 166.187299 
L 363.291135 173.27519 
L 364.989119 180.932606 
L 366.687103 189.188518 
L 368.385087 198.065264 
L 371.781055 217.700242 
L 375.177023 239.57723 
L 380.270975 273.487155 
L 381.968959 283.367787 
L 383.666943 291.387946 
L 385.364927 296.900577 
L 387.062911 299.790884 
L 388.760895 300.775579 
L 388.760895 300.775579 
" clip-path="url(#p6abb75b948)" style="fill: none; stroke: #5fa1d8; stroke-width: 3; stroke-linecap: square"/>
   </g>
   <g id="line2d_19">
    <path d="M 95.009659 300.96 
L 142.553212 300.862057 
L 144.251196 300.188628 
L 145.94918 297.892361 
L 147.647164 293.069737 
L 149.345148 285.622057 
L 151.043132 276.100379 
L 154.4391 253.767806 
L 159.533052 219.619037 
L 162.92902 199.07764 
L 166.324988 180.828334 
L 169.720956 164.776827 
L 173.116924 150.690607 
L 176.512892 138.313111 
L 179.90886 127.406092 
L 183.304828 117.762267 
L 186.700796 109.206236 
L 190.096764 101.591268 
L 193.492733 94.795003 
L 196.888701 88.715286 
L 200.284669 83.266535 
L 203.680637 78.376713 
L 207.076605 73.984867 
L 210.472573 70.039148 
L 213.868541 66.495224 
L 217.264509 63.315013 
L 220.660477 60.46567 
L 224.056445 57.918773 
L 227.452413 55.649679 
L 230.848381 53.636993 
L 234.244349 51.862157 
L 237.640317 50.309101 
L 241.036285 48.963982 
L 244.432253 47.814956 
L 247.828221 46.852007 
L 251.224189 46.066808 
L 254.620157 45.452608 
L 258.016125 45.004151 
L 261.412093 44.71761 
L 264.808062 44.590541 
L 268.20403 44.621859 
L 271.599998 44.811822 
L 274.995966 45.162035 
L 278.391934 45.67547 
L 281.787902 46.356496 
L 285.18387 47.210934 
L 288.579838 48.246124 
L 291.975806 49.471022 
L 295.371774 50.896322 
L 298.767742 52.5346 
L 302.16371 54.400514 
L 305.559678 56.511032 
L 308.955646 58.885737 
L 312.351614 61.547182 
L 315.747582 64.521358 
L 319.14355 67.838248 
L 322.539518 71.532539 
L 325.935486 75.644503 
L 329.331454 80.221089 
L 332.727422 85.317305 
L 336.123391 90.997932 
L 339.519359 97.33967 
L 342.915327 104.433789 
L 346.311295 112.389363 
L 349.707263 121.337102 
L 353.103231 131.4336 
L 356.499199 142.865384 
L 359.895167 155.851031 
L 361.593151 163.002866 
L 363.291135 170.637019 
L 366.687103 187.476849 
L 370.083071 206.568732 
L 373.479039 227.894989 
L 380.270975 273.436091 
L 381.968959 283.348666 
L 383.666943 291.382959 
L 385.364927 296.899922 
L 387.062911 299.790876 
L 388.760895 300.775568 
L 390.458879 300.96 
L 500.827841 300.96 
L 500.827841 300.96 
" clip-path="url(#p6abb75b948)" style="fill: none; stroke: #b31f20; stroke-width: 3; stroke-linecap: square"/>
   </g>
   <g id="line2d_20">
    <path d="M 95.009659 300.96 
L 142.553212 300.955234 
L 144.251196 300.837681 
L 145.94918 300.407672 
L 147.647164 299.455447 
L 149.345148 297.866478 
L 151.043132 295.629232 
L 152.741116 292.795397 
L 154.4391 289.442608 
L 156.137084 285.652371 
L 157.835068 281.499883 
L 161.231036 272.35974 
L 164.627004 262.430943 
L 169.720956 246.659445 
L 181.606844 208.532962 
L 188.39878 187.097509 
L 193.492733 171.542399 
L 198.586685 156.585752 
L 203.680637 142.338967 
L 208.774589 128.897357 
L 212.170557 120.425007 
L 215.566525 112.369629 
L 218.962493 104.75149 
L 222.358461 97.58923 
L 225.754429 90.899971 
L 229.150397 84.699392 
L 232.546365 79.001792 
L 235.942333 73.820127 
L 239.338301 69.166043 
L 242.734269 65.049898 
L 246.130237 61.480777 
L 249.526205 58.4665 
L 251.224189 57.169529 
L 252.922173 56.013635 
L 254.620157 54.999442 
L 256.318141 54.127498 
L 258.016125 53.398273 
L 259.714109 52.812158 
L 261.412093 52.369468 
L 263.110078 52.07044 
L 264.808062 51.915231 
L 266.506046 51.903923 
L 268.20403 52.036519 
L 269.902014 52.312944 
L 271.599998 52.733047 
L 273.297982 53.296596 
L 274.995966 54.003285 
L 276.69395 54.852727 
L 278.391934 55.84446 
L 280.089918 56.977942 
L 281.787902 58.252554 
L 285.18387 61.222298 
L 288.579838 64.747177 
L 291.975806 68.819417 
L 295.371774 73.429981 
L 298.767742 78.568559 
L 302.16371 84.223552 
L 305.559678 90.382049 
L 308.955646 97.029799 
L 312.351614 104.15117 
L 315.747582 111.729089 
L 319.14355 119.744968 
L 322.539518 128.178598 
L 327.63347 141.563735 
L 332.727422 155.756237 
L 337.821375 170.661205 
L 342.915327 186.167899 
L 349.707263 207.545923 
L 364.989119 256.217867 
L 368.385087 266.447823 
L 371.781055 276.072655 
L 375.177023 284.766872 
L 376.875007 288.627163 
L 378.572991 292.070266 
L 380.270975 295.01707 
L 381.968959 297.389304 
L 383.666943 299.127804 
L 385.364927 300.225287 
L 387.062911 300.767157 
L 388.760895 300.94207 
L 400.646783 300.96 
L 500.827841 300.96 
L 500.827841 300.96 
" clip-path="url(#p6abb75b948)" style="fill: none; stroke: #498f34; stroke-width: 3; stroke-linecap: square"/>
   </g>
   <g id="line2d_21">
    <path d="M 95.009659 300.96 
L 142.553212 300.869648 
L 144.251196 300.160278 
L 145.94918 297.750394 
L 147.647164 292.731546 
L 149.345148 285.01786 
L 151.043132 275.167572 
L 154.4391 251.99482 
L 159.533052 216.204265 
L 162.92902 194.43848 
L 166.324988 174.978118 
L 169.720956 157.818977 
L 173.116924 142.802969 
L 174.814908 136.037088 
L 176.512892 129.732994 
L 178.210876 123.867207 
L 179.90886 118.417626 
L 181.606844 113.363649 
L 183.304828 108.686188 
L 185.002812 104.367628 
L 186.700796 100.391751 
L 188.39878 96.743632 
L 190.096764 93.409546 
L 191.794748 90.376855 
L 193.492733 87.633915 
L 195.190717 85.169974 
L 196.888701 82.975086 
L 198.586685 81.040033 
L 200.284669 79.356242 
L 201.982653 77.915726 
L 203.680637 76.711016 
L 205.378621 75.735112 
L 207.076605 74.981427 
L 208.774589 74.443746 
L 210.472573 74.116186 
L 212.170557 73.993158 
L 213.868541 74.069335 
L 215.566525 74.339625 
L 217.264509 74.79914 
L 218.962493 75.443177 
L 220.660477 76.267197 
L 222.358461 77.2668 
L 224.056445 78.437715 
L 225.754429 79.77578 
L 227.452413 81.276929 
L 230.848381 84.752619 
L 234.244349 88.833727 
L 235.942333 88.134772 
L 239.338301 84.059693 
L 242.734269 80.456727 
L 246.130237 77.333071 
L 249.526205 74.694942 
L 252.922173 72.547577 
L 256.318141 70.895226 
L 258.016125 70.255739 
L 259.714109 69.74115 
L 261.412093 69.351713 
L 263.110078 69.087618 
L 264.808062 68.948993 
L 266.506046 68.935904 
L 268.20403 69.048353 
L 269.902014 69.286284 
L 271.599998 69.649575 
L 273.297982 70.138042 
L 274.995966 70.75144 
L 276.69395 71.489463 
L 280.089918 73.33784 
L 283.485886 75.679475 
L 286.881854 78.509681 
L 290.277822 81.822789 
L 293.67379 85.61215 
L 295.371774 87.68308 
L 297.069758 88.927595 
L 300.465726 84.792909 
L 303.861694 81.260934 
L 305.559678 79.73057 
L 307.257662 78.362537 
L 308.955646 77.160871 
L 310.65363 76.129698 
L 312.351614 75.273251 
L 314.049598 74.595886 
L 315.747582 74.102095 
L 317.445566 73.796526 
L 319.14355 73.684008 
L 320.841534 73.769566 
L 322.539518 74.058454 
L 324.237502 74.556178 
L 325.935486 75.268529 
L 327.63347 76.201622 
L 329.331454 77.361928 
L 331.029438 78.756322 
L 332.727422 80.392132 
L 334.425407 82.277188 
L 336.123391 84.419885 
L 337.821375 86.829249 
L 339.519359 89.515007 
L 341.217343 92.487668 
L 342.915327 95.758608 
L 344.613311 99.340165 
L 346.311295 103.245734 
L 348.009279 107.489877 
L 349.707263 112.088414 
L 351.405247 117.058531 
L 353.103231 122.418855 
L 354.801215 128.189509 
L 356.499199 134.392109 
L 358.197183 141.049671 
L 359.895167 148.18638 
L 361.593151 155.827119 
L 363.291135 163.996646 
L 366.687103 182.011287 
L 370.083071 202.347767 
L 373.479039 224.892732 
L 380.270975 272.403385 
L 381.968959 282.662873 
L 383.666943 290.981043 
L 385.364927 296.714036 
L 387.062911 299.741077 
L 388.760895 300.779379 
L 390.458879 300.96 
L 500.827841 300.96 
L 500.827841 300.96 
" clip-path="url(#p6abb75b948)" style="fill: none; stroke: #ebd741; stroke-width: 3; stroke-linecap: square"/>
   </g>
   <g id="patch_3">
    <path d="M 74.71875 300.96 
L 74.71875 7.2 
" style="fill: none; stroke: #000000; stroke-width: 0.8; stroke-linejoin: miter; stroke-linecap: square"/>
   </g>
   <g id="patch_4">
    <path d="M 521.11875 300.96 
L 521.11875 7.2 
" style="fill: none; stroke: #000000; stroke-width: 0.8; stroke-linejoin: miter; stroke-linecap: square"/>
   </g>
   <g id="patch_5">
    <path d="M 74.71875 300.96 
L 521.11875 300.96 
" style="fill: none; stroke: #000000; stroke-width: 0.8; stroke-linejoin: miter; stroke-linecap: square"/>
   </g>
   <g id="patch_6">
    <path d="M 74.71875 7.2 
L 521.11875 7.2 
" style="fill: none; stroke: #000000; stroke-width: 0.8; stroke-linejoin: miter; stroke-linecap: square"/>
   </g>
   <g id="legend_1">
    <g id="patch_7">
     <path d="M 354.328438 113.182187 
L 511.31875 113.182187 
Q 514.11875 113.182187 514.11875 110.382187 
L 514.11875 17 
Q 514.11875 14.2 511.31875 14.2 
L 354.328438 14.2 
Q 351.528437 14.2 351.528437 17 
L 351.528437 110.382187 
Q 351.528437 113.182187 354.328438 113.182187 
z
" style="fill: #ffffff; opacity: 0.8; stroke: #cccccc; stroke-linejoin: miter"/>
    </g>
    <g id="line2d_22">
     <path d="M 357.128438 33.822969 
L 371.128438 33.822969 
L 385.128438 33.822969 
" style="fill: none; stroke: #5fa1d8; stroke-width: 3; stroke-linecap: square"/>
    </g>
    <g id="text_19">
     <!-- NS horizontal -->
     <g transform="translate(396.328438 29.820938) scale(0.14 -0.14)">
      <defs>
       <path id="ArialMT-4e" d="M 488 0 
L 488 4581 
L 1109 4581 
L 3516 984 
L 3516 4581 
L 4097 4581 
L 4097 0 
L 3475 0 
L 1069 3600 
L 1069 0 
L 488 0 
z
" transform="scale(0.015625)"/>
       <path id="ArialMT-53" d="M 288 1472 
L 859 1522 
Q 900 1178 1048 958 
Q 1197 738 1509 602 
Q 1822 466 2213 466 
Q 2559 466 2825 569 
Q 3091 672 3220 851 
Q 3350 1031 3350 1244 
Q 3350 1459 3225 1620 
Q 3100 1781 2813 1891 
Q 2628 1963 1997 2114 
Q 1366 2266 1113 2400 
Q 784 2572 623 2826 
Q 463 3081 463 3397 
Q 463 3744 659 4045 
Q 856 4347 1234 4503 
Q 1613 4659 2075 4659 
Q 2584 4659 2973 4495 
Q 3363 4331 3572 4012 
Q 3781 3694 3797 3291 
L 3216 3247 
Q 3169 3681 2898 3903 
Q 2628 4125 2100 4125 
Q 1550 4125 1298 3923 
Q 1047 3722 1047 3438 
Q 1047 3191 1225 3031 
Q 1400 2872 2139 2705 
Q 2878 2538 3153 2413 
Q 3553 2228 3743 1945 
Q 3934 1663 3934 1294 
Q 3934 928 3725 604 
Q 3516 281 3123 101 
Q 2731 -78 2241 -78 
Q 1619 -78 1198 103 
Q 778 284 539 648 
Q 300 1013 288 1472 
z
" transform="scale(0.015625)"/>
       <path id="ArialMT-7a" d="M 125 0 
L 125 456 
L 2238 2881 
Q 1878 2863 1603 2863 
L 250 2863 
L 250 3319 
L 2963 3319 
L 2963 2947 
L 1166 841 
L 819 456 
Q 1197 484 1528 484 
L 3063 484 
L 3063 0 
L 125 0 
z
" transform="scale(0.015625)"/>
       <path id="ArialMT-74" d="M 1650 503 
L 1731 6 
Q 1494 -44 1306 -44 
Q 1000 -44 831 53 
Q 663 150 594 308 
Q 525 466 525 972 
L 525 2881 
L 113 2881 
L 113 3319 
L 525 3319 
L 525 4141 
L 1084 4478 
L 1084 3319 
L 1650 3319 
L 1650 2881 
L 1084 2881 
L 1084 941 
Q 1084 700 1114 631 
Q 1144 563 1211 522 
Q 1278 481 1403 481 
Q 1497 481 1650 503 
z
" transform="scale(0.015625)"/>
      </defs>
      <use xlink:href="#ArialMT-4e"/>
      <use xlink:href="#ArialMT-53" x="72.216797"/>
      <use xlink:href="#ArialMT-20" x="138.916016"/>
      <use xlink:href="#ArialMT-68" x="166.699219"/>
      <use xlink:href="#ArialMT-6f" x="222.314453"/>
      <use xlink:href="#ArialMT-72" x="277.929688"/>
      <use xlink:href="#ArialMT-69" x="311.230469"/>
      <use xlink:href="#ArialMT-7a" x="333.447266"/>
      <use xlink:href="#ArialMT-6f" x="383.447266"/>
      <use xlink:href="#ArialMT-6e" x="439.0625"/>
      <use xlink:href="#ArialMT-74" x="494.677734"/>
      <use xlink:href="#ArialMT-61" x="522.460938"/>
      <use xlink:href="#ArialMT-6c" x="578.076172"/>
     </g>
     <!-- 1 axis tracking -->
     <g transform="translate(396.328438 44.678438) scale(0.14 -0.14)">
      <defs>
       <path id="ArialMT-78" d="M 47 0 
L 1259 1725 
L 138 3319 
L 841 3319 
L 1350 2541 
Q 1494 2319 1581 2169 
Q 1719 2375 1834 2534 
L 2394 3319 
L 3066 3319 
L 1919 1756 
L 3153 0 
L 2463 0 
L 1781 1031 
L 1600 1309 
L 728 0 
L 47 0 
z
" transform="scale(0.015625)"/>
       <path id="ArialMT-73" d="M 197 991 
L 753 1078 
Q 800 744 1014 566 
Q 1228 388 1613 388 
Q 2000 388 2187 545 
Q 2375 703 2375 916 
Q 2375 1106 2209 1216 
Q 2094 1291 1634 1406 
Q 1016 1563 777 1677 
Q 538 1791 414 1992 
Q 291 2194 291 2438 
Q 291 2659 392 2848 
Q 494 3038 669 3163 
Q 800 3259 1026 3326 
Q 1253 3394 1513 3394 
Q 1903 3394 2198 3281 
Q 2494 3169 2634 2976 
Q 2775 2784 2828 2463 
L 2278 2388 
Q 2241 2644 2061 2787 
Q 1881 2931 1553 2931 
Q 1166 2931 1000 2803 
Q 834 2675 834 2503 
Q 834 2394 903 2306 
Q 972 2216 1119 2156 
Q 1203 2125 1616 2013 
Q 2213 1853 2448 1751 
Q 2684 1650 2818 1456 
Q 2953 1263 2953 975 
Q 2953 694 2789 445 
Q 2625 197 2315 61 
Q 2006 -75 1616 -75 
Q 969 -75 630 194 
Q 291 463 197 991 
z
" transform="scale(0.015625)"/>
       <path id="ArialMT-6b" d="M 425 0 
L 425 4581 
L 988 4581 
L 988 1969 
L 2319 3319 
L 3047 3319 
L 1778 2088 
L 3175 0 
L 2481 0 
L 1384 1697 
L 988 1316 
L 988 0 
L 425 0 
z
" transform="scale(0.015625)"/>
       <path id="ArialMT-67" d="M 319 -275 
L 866 -356 
Q 900 -609 1056 -725 
Q 1266 -881 1628 -881 
Q 2019 -881 2231 -725 
Q 2444 -569 2519 -288 
Q 2563 -116 2559 434 
Q 2191 0 1641 0 
Q 956 0 581 494 
Q 206 988 206 1678 
Q 206 2153 378 2554 
Q 550 2956 876 3175 
Q 1203 3394 1644 3394 
Q 2231 3394 2613 2919 
L 2613 3319 
L 3131 3319 
L 3131 450 
Q 3131 -325 2973 -648 
Q 2816 -972 2473 -1159 
Q 2131 -1347 1631 -1347 
Q 1038 -1347 672 -1080 
Q 306 -813 319 -275 
z
M 784 1719 
Q 784 1066 1043 766 
Q 1303 466 1694 466 
Q 2081 466 2343 764 
Q 2606 1063 2606 1700 
Q 2606 2309 2336 2618 
Q 2066 2928 1684 2928 
Q 1309 2928 1046 2623 
Q 784 2319 784 1719 
z
" transform="scale(0.015625)"/>
      </defs>
      <use xlink:href="#ArialMT-31"/>
      <use xlink:href="#ArialMT-20" x="55.615234"/>
      <use xlink:href="#ArialMT-61" x="83.398438"/>
      <use xlink:href="#ArialMT-78" x="139.013672"/>
      <use xlink:href="#ArialMT-69" x="189.013672"/>
      <use xlink:href="#ArialMT-73" x="211.230469"/>
      <use xlink:href="#ArialMT-20" x="261.230469"/>
      <use xlink:href="#ArialMT-74" x="289.013672"/>
      <use xlink:href="#ArialMT-72" x="316.796875"/>
      <use xlink:href="#ArialMT-61" x="350.097656"/>
      <use xlink:href="#ArialMT-63" x="405.712891"/>
      <use xlink:href="#ArialMT-6b" x="455.712891"/>
      <use xlink:href="#ArialMT-69" x="505.712891"/>
      <use xlink:href="#ArialMT-6e" x="527.929688"/>
      <use xlink:href="#ArialMT-67" x="583.544922"/>
     </g>
    </g>
    <g id="line2d_23">
     <path d="M 357.128438 59.7875 
L 371.128438 59.7875 
L 385.128438 59.7875 
" style="fill: none; stroke: #b31f20; stroke-width: 3; stroke-linecap: square"/>
    </g>
    <g id="text_20">
     <!-- 2 axis tracking -->
     <g transform="translate(396.328438 64.6875) scale(0.14 -0.14)">
      <use xlink:href="#ArialMT-32"/>
      <use xlink:href="#ArialMT-20" x="55.615234"/>
      <use xlink:href="#ArialMT-61" x="83.398438"/>
      <use xlink:href="#ArialMT-78" x="139.013672"/>
      <use xlink:href="#ArialMT-69" x="189.013672"/>
      <use xlink:href="#ArialMT-73" x="211.230469"/>
      <use xlink:href="#ArialMT-20" x="261.230469"/>
      <use xlink:href="#ArialMT-74" x="289.013672"/>
      <use xlink:href="#ArialMT-72" x="316.796875"/>
      <use xlink:href="#ArialMT-61" x="350.097656"/>
      <use xlink:href="#ArialMT-63" x="405.712891"/>
      <use xlink:href="#ArialMT-6b" x="455.712891"/>
      <use xlink:href="#ArialMT-69" x="505.712891"/>
      <use xlink:href="#ArialMT-6e" x="527.929688"/>
      <use xlink:href="#ArialMT-67" x="583.544922"/>
     </g>
    </g>
    <g id="line2d_24">
     <path d="M 357.128438 79.925625 
L 371.128438 79.925625 
L 385.128438 79.925625 
" style="fill: none; stroke: #498f34; stroke-width: 3; stroke-linecap: square"/>
    </g>
    <g id="text_21">
     <!-- Fixed [30°] -->
     <g transform="translate(396.328438 84.825625) scale(0.14 -0.14)">
      <defs>
       <path id="ArialMT-46" d="M 525 0 
L 525 4581 
L 3616 4581 
L 3616 4041 
L 1131 4041 
L 1131 2622 
L 3281 2622 
L 3281 2081 
L 1131 2081 
L 1131 0 
L 525 0 
z
" transform="scale(0.015625)"/>
       <path id="ArialMT-33" d="M 269 1209 
L 831 1284 
Q 928 806 1161 595 
Q 1394 384 1728 384 
Q 2125 384 2398 659 
Q 2672 934 2672 1341 
Q 2672 1728 2419 1979 
Q 2166 2231 1775 2231 
Q 1616 2231 1378 2169 
L 1441 2663 
Q 1497 2656 1531 2656 
Q 1891 2656 2178 2843 
Q 2466 3031 2466 3422 
Q 2466 3731 2256 3934 
Q 2047 4138 1716 4138 
Q 1388 4138 1169 3931 
Q 950 3725 888 3313 
L 325 3413 
Q 428 3978 793 4289 
Q 1159 4600 1703 4600 
Q 2078 4600 2393 4439 
Q 2709 4278 2876 4000 
Q 3044 3722 3044 3409 
Q 3044 3113 2884 2869 
Q 2725 2625 2413 2481 
Q 2819 2388 3044 2092 
Q 3269 1797 3269 1353 
Q 3269 753 2831 336 
Q 2394 -81 1725 -81 
Q 1122 -81 723 278 
Q 325 638 269 1209 
z
" transform="scale(0.015625)"/>
       <path id="ArialMT-b0" d="M 400 3794 
Q 400 4153 654 4406 
Q 909 4659 1266 4659 
Q 1628 4659 1881 4406 
Q 2134 4153 2134 3794 
Q 2134 3434 1879 3179 
Q 1625 2925 1266 2925 
Q 909 2925 654 3178 
Q 400 3431 400 3794 
z
M 741 3794 
Q 741 3575 895 3420 
Q 1050 3266 1269 3266 
Q 1484 3266 1639 3420 
Q 1794 3575 1794 3794 
Q 1794 4013 1639 4167 
Q 1484 4322 1269 4322 
Q 1050 4322 895 4167 
Q 741 4013 741 3794 
z
" transform="scale(0.015625)"/>
      </defs>
      <use xlink:href="#ArialMT-46"/>
      <use xlink:href="#ArialMT-69" x="61.083984"/>
      <use xlink:href="#ArialMT-78" x="83.300781"/>
      <use xlink:href="#ArialMT-65" x="133.300781"/>
      <use xlink:href="#ArialMT-64" x="188.916016"/>
      <use xlink:href="#ArialMT-20" x="244.53125"/>
      <use xlink:href="#ArialMT-5b" x="272.314453"/>
      <use xlink:href="#ArialMT-33" x="300.097656"/>
      <use xlink:href="#ArialMT-30" x="355.712891"/>
      <use xlink:href="#ArialMT-b0" x="411.328125"/>
      <use xlink:href="#ArialMT-5d" x="451.318359"/>
     </g>
    </g>
    <g id="line2d_25">
     <path d="M 357.128438 99.899687 
L 371.128438 99.899687 
L 385.128438 99.899687 
" style="fill: none; stroke: #ebd741; stroke-width: 3; stroke-linecap: square"/>
    </g>
    <g id="text_22">
     <!-- Fixed - Delta [60°] -->
     <g transform="translate(396.328438 104.799688) scale(0.14 -0.14)">
      <defs>
       <path id="ArialMT-2d" d="M 203 1375 
L 203 1941 
L 1931 1941 
L 1931 1375 
L 203 1375 
z
" transform="scale(0.015625)"/>
       <path id="ArialMT-44" d="M 494 0 
L 494 4581 
L 2072 4581 
Q 2606 4581 2888 4516 
Q 3281 4425 3559 4188 
Q 3922 3881 4101 3404 
Q 4281 2928 4281 2316 
Q 4281 1794 4159 1391 
Q 4038 988 3847 723 
Q 3656 459 3429 307 
Q 3203 156 2883 78 
Q 2563 0 2147 0 
L 494 0 
z
M 1100 541 
L 2078 541 
Q 2531 541 2789 625 
Q 3047 709 3200 863 
Q 3416 1078 3536 1442 
Q 3656 1806 3656 2325 
Q 3656 3044 3420 3430 
Q 3184 3816 2847 3947 
Q 2603 4041 2063 4041 
L 1100 4041 
L 1100 541 
z
" transform="scale(0.015625)"/>
      </defs>
      <use xlink:href="#ArialMT-46"/>
      <use xlink:href="#ArialMT-69" x="61.083984"/>
      <use xlink:href="#ArialMT-78" x="83.300781"/>
      <use xlink:href="#ArialMT-65" x="133.300781"/>
      <use xlink:href="#ArialMT-64" x="188.916016"/>
      <use xlink:href="#ArialMT-20" x="244.53125"/>
      <use xlink:href="#ArialMT-2d" x="272.314453"/>
      <use xlink:href="#ArialMT-20" x="305.615234"/>
      <use xlink:href="#ArialMT-44" x="333.398438"/>
      <use xlink:href="#ArialMT-65" x="405.615234"/>
      <use xlink:href="#ArialMT-6c" x="461.230469"/>
      <use xlink:href="#ArialMT-74" x="483.447266"/>
      <use xlink:href="#ArialMT-61" x="511.230469"/>
      <use xlink:href="#ArialMT-20" x="566.845703"/>
      <use xlink:href="#ArialMT-5b" x="594.628906"/>
      <use xlink:href="#ArialMT-36" x="622.412109"/>
      <use xlink:href="#ArialMT-30" x="678.027344"/>
      <use xlink:href="#ArialMT-b0" x="733.642578"/>
      <use xlink:href="#ArialMT-5d" x="773.632812"/>
     </g>
    </g>
   </g>
  </g>
 </g>
 <defs>
  <clipPath id="p6abb75b948">
   <rect x="74.71875" y="7.2" width="446.4" height="293.76"/>
  </clipPath>
 </defs>
</svg>
