<?xml version="1.0" encoding="UTF-8"?>
<!DOCTYPE svg PUBLIC "-//W3C//DTD SVG 1.1//EN" "http://www.w3.org/Graphics/SVG/1.1/DTD/svg11.dtd">
<svg xmlns="http://www.w3.org/2000/svg" version="1.1" width="500px" height="491px" style="shape-rendering:geometricPrecision; text-rendering:geometricPrecision; image-rendering:optimizeQuality; fill-rule:evenodd; clip-rule:evenodd" xmlns:xlink="http://www.w3.org/1999/xlink">
<g><path style="opacity:0.64" fill="#3665b0" d="M 342.5,2.5 C 348.986,0.834642 351.819,3.16797 351,9.5C 349.556,11.1554 347.722,11.822 345.5,11.5C 345.949,13.9775 345.283,15.9775 343.5,17.5C 342.506,12.544 342.173,7.54396 342.5,2.5 Z M 345.5,4.5 C 350.016,5.62535 350.35,7.29202 346.5,9.5C 345.548,7.95467 345.215,6.28801 345.5,4.5 Z"/></g>
<g><path style="opacity:0.616" fill="#3665b0" d="M 355.5,2.5 C 363.829,1.66358 366.995,5.33025 365,13.5C 361,18.8333 357,18.8333 353,13.5C 351.812,9.25856 352.645,5.59189 355.5,2.5 Z M 357.5,4.5 C 362.151,5.17415 363.651,7.84082 362,12.5C 358.168,15.6726 356.001,14.8393 355.5,10C 355.395,7.8218 356.061,5.98847 357.5,4.5 Z"/></g>
<g><path style="opacity:0.578" fill="#3665b0" d="M 366.5,2.5 C 367.5,2.5 368.5,2.5 369.5,2.5C 369.5,6.5 369.5,10.5 369.5,14.5C 371.833,14.5 374.167,14.5 376.5,14.5C 377.5,10.5 378.5,6.5 379.5,2.5C 381.451,2.22672 382.951,2.89339 384,4.5C 385.268,8.13593 386.434,11.8026 387.5,15.5C 387.167,16.1667 386.833,16.8333 386.5,17.5C 385.029,16.6195 384.196,15.2861 384,13.5C 383.275,12.9415 382.442,12.6082 381.5,12.5C 379.6,13.4471 378.267,14.9471 377.5,17C 373.848,17.4986 370.182,17.6653 366.5,17.5C 366.5,12.5 366.5,7.5 366.5,2.5 Z M 381.5,7.5 C 384.481,10.1224 384.148,10.789 380.5,9.5C 380.863,8.81654 381.196,8.14987 381.5,7.5 Z"/></g>
<g><path style="opacity:0.585" fill="#3665b0" d="M 388.5,2.5 C 392.007,1.99353 395.174,2.66019 398,4.5C 398.825,6.7008 398.325,8.53413 396.5,10C 398.228,12.384 398.561,14.884 397.5,17.5C 395.953,16.2318 394.953,14.5652 394.5,12.5C 393.675,11.6143 392.675,11.281 391.5,11.5C 391.799,13.604 391.466,15.604 390.5,17.5C 389.914,17.2907 389.414,16.9574 389,16.5C 388.501,11.8452 388.334,7.17853 388.5,2.5 Z M 391.5,4.5 C 393.346,4.22216 394.68,4.88882 395.5,6.5C 394.68,8.11118 393.346,8.77784 391.5,8.5C 391.5,7.16667 391.5,5.83333 391.5,4.5 Z"/></g>
<g><path style="opacity:0.722" fill="#618096" d="M 285.5,27.5 C 285.5,27.1667 285.5,26.8333 285.5,26.5C 301.862,28.5904 317.862,32.2571 333.5,37.5C 341.961,36.0954 350.294,34.762 358.5,33.5C 360.626,34.0482 362.626,34.7148 364.5,35.5C 355.105,35.9142 345.772,36.9142 336.5,38.5C 343.765,41.7136 350.265,46.0469 356,51.5C 359.833,58 359,63.8333 353.5,69C 349.213,72.3085 344.547,74.8085 339.5,76.5C 335.814,78.7949 331.814,80.6282 327.5,82C 327.833,82.3333 328.167,82.6667 328.5,83C 339.084,85.3682 349.418,88.2015 359.5,91.5C 347.607,89.2359 335.774,86.5692 324,83.5C 295.913,90.5422 267.413,95.0422 238.5,97C 241.086,100.736 243.419,104.57 245.5,108.5C 244.833,108.5 244.167,108.5 243.5,108.5C 241.945,105.06 240.112,101.727 238,98.5C 236.527,96.9929 234.693,96.3262 232.5,96.5C 214.514,97.2798 196.514,97.7798 178.5,98C 175.914,101.736 173.581,105.57 171.5,109.5C 166.637,109.819 161.97,109.486 157.5,108.5C 161.884,108.826 166.217,108.492 170.5,107.5C 172.5,104.5 174.5,101.5 176.5,98.5C 169.593,96.9173 162.593,96.2507 155.5,96.5C 155.5,100.5 155.5,104.5 155.5,108.5C 155.5,108.833 155.5,109.167 155.5,109.5C 154.833,109.5 154.167,109.5 153.5,109.5C 149.167,108.833 144.833,108.167 140.5,107.5C 144.833,107.5 149.167,107.5 153.5,107.5C 153.5,103.5 153.5,99.5 153.5,95.5C 144.089,95.5839 134.756,94.9172 125.5,93.5C 125.5,93.1667 125.5,92.8333 125.5,92.5C 134.842,93.072 144.175,93.7387 153.5,94.5C 154.167,94.5 154.833,94.5 155.5,94.5C 182.173,97.0082 208.839,97.0082 235.5,94.5C 235.833,94.5 236.167,94.5 236.5,94.5C 265.058,93.9065 293.058,89.7399 320.5,82C 309.886,79.182 299.219,76.682 288.5,74.5C 290.167,73.8333 291.833,73.1667 293.5,72.5C 304.862,70.5465 315.529,66.7131 325.5,61C 328.439,56.982 328.105,53.3153 324.5,50C 317.815,45.4937 310.481,42.6603 302.5,41.5C 304.726,40.2437 307.059,40.2437 309.5,41.5C 317.66,43.4066 324.327,47.5732 329.5,54C 338.186,54.8319 346.853,54.6652 355.5,53.5C 349.472,46.8095 342.139,42.1429 333.5,39.5C 331.188,38.6586 328.855,37.6586 326.5,36.5C 313.064,32.4662 299.397,29.4662 285.5,27.5 Z"/></g>
<g><path style="opacity:0.757" fill="#6389a3" d="M 172.5,17.5 C 192.069,16.1748 211.736,16.1748 231.5,17.5C 231.196,18.1499 230.863,18.8165 230.5,19.5C 246.161,21.1222 261.828,22.7889 277.5,24.5C 282.266,24.8671 286.599,23.8671 290.5,21.5C 292.735,21.2053 294.735,21.5386 296.5,22.5C 292.171,22.5181 288.504,23.8514 285.5,26.5C 285.5,26.8333 285.5,27.1667 285.5,27.5C 278.435,27.5207 271.768,29.1873 265.5,32.5C 279.224,34.5555 292.89,36.8888 306.5,39.5C 313.416,39.2185 320.083,38.2185 326.5,36.5C 328.855,37.6586 331.188,38.6586 333.5,39.5C 325.307,39.6164 317.307,40.2831 309.5,41.5C 307.059,40.2437 304.726,40.2437 302.5,41.5C 296.191,42.3317 289.857,43.165 283.5,44C 288.497,45.5036 293.497,47.1702 298.5,49C 300.037,50.1096 300.703,51.6096 300.5,53.5C 307.175,53.3337 313.842,53.5004 320.5,54C 312.5,54.3333 304.5,54.6667 296.5,55C 294.913,55.8624 293.246,56.5291 291.5,57C 278.862,59.2392 266.195,61.2392 253.5,63C 266.625,67.1147 279.958,70.2814 293.5,72.5C 291.833,73.1667 290.167,73.8333 288.5,74.5C 283.079,76.2184 277.412,77.3851 271.5,78C 257.174,79.3933 242.841,80.7266 228.5,82C 231.562,85.9688 234.229,90.1355 236.5,94.5C 236.167,94.5 235.833,94.5 235.5,94.5C 232.844,90.5286 230.177,86.5286 227.5,82.5C 214.5,81.1667 201.5,81.1667 188.5,82.5C 187.333,84.1667 186.167,85.8333 185,87.5C 184.86,85.7445 185.36,84.0778 186.5,82.5C 176.181,81.5613 165.847,80.8946 155.5,80.5C 155.5,85.1667 155.5,89.8333 155.5,94.5C 154.833,94.5 154.167,94.5 153.5,94.5C 153.5,89.5 153.5,84.5 153.5,79.5C 147.474,79.641 141.474,79.3077 135.5,78.5C 132.393,78.7598 129.393,79.4265 126.5,80.5C 126.167,79.5 125.5,78.8333 124.5,78.5C 124.03,77.3065 123.03,76.6399 121.5,76.5C 107.133,74.0754 93.133,70.4087 79.5,65.5C 68.7479,66.5104 58.0813,68.0104 47.5,70C 65.0611,80.4738 84.0611,86.1405 104.5,87C 110.745,84.5296 117.078,82.3629 123.5,80.5C 123.672,81.4916 123.338,82.1583 122.5,82.5C 116.696,84.1013 111.03,86.1013 105.5,88.5C 111.737,90.1475 118.07,91.1475 124.5,91.5C 124.5,96.5 124.5,101.5 124.5,106.5C 122.901,106.768 121.568,106.434 120.5,105.5C 121.5,105.5 122.5,105.5 123.5,105.5C 123.5,101.5 123.5,97.5 123.5,93.5C 116.387,92.2148 109.22,91.2148 102,90.5C 98.9704,90.4808 96.137,91.1474 93.5,92.5C 93.1667,91.8333 92.8333,91.1667 92.5,90.5C 94.3084,90.5086 95.9751,90.0086 97.5,89C 81.0496,86.4052 65.3829,81.4052 50.5,74C 48.6508,72.907 46.9842,71.5737 45.5,70C 32.4916,70.7786 19.4916,71.9453 6.5,73.5C 5.83333,73.5 5.5,73.1667 5.5,72.5C 17.7057,70.908 30.0391,69.2413 42.5,67.5C 41.3698,66.3777 40.7031,65.0443 40.5,63.5C 39.8826,63.3893 39.3826,63.056 39,62.5C 38.0697,55.5219 40.5697,50.0219 46.5,46C 36.8391,45.5002 27.1724,45.3335 17.5,45.5C 18.9649,44.2632 20.6316,43.2632 22.5,42.5C 31.6401,43.9838 40.9735,44.4838 50.5,44C 57.7859,39.8586 65.4526,36.5253 73.5,34C 83.7306,31.0541 94.0639,28.5541 104.5,26.5C 101.015,24.9064 97.3479,24.2397 93.5,24.5C 96.9736,23.4751 100.64,22.8084 104.5,22.5C 104.082,23.2216 103.416,23.7216 102.5,24C 105.598,24.9182 108.765,25.4182 112,25.5C 136.719,22.1113 161.552,19.9446 186.5,19C 182.028,17.5634 177.361,17.0634 172.5,17.5 Z"/></g>
<g><path style="opacity:1" fill="#a3958b" d="M 124.5,78.5 C 125.5,78.8333 126.167,79.5 126.5,80.5C 126.539,81.5832 126.873,82.5832 127.5,83.5C 125.74,86.2123 125.073,89.2123 125.5,92.5C 125.5,92.8333 125.5,93.1667 125.5,93.5C 125.5,97.8333 125.5,102.167 125.5,106.5C 125.5,106.833 125.5,107.167 125.5,107.5C 125.167,107.5 124.833,107.5 124.5,107.5C 124.5,107.167 124.5,106.833 124.5,106.5C 124.5,101.5 124.5,96.5 124.5,91.5C 124.71,88.248 124.044,85.248 122.5,82.5C 123.338,82.1583 123.672,81.4916 123.5,80.5C 123.833,79.8333 124.167,79.1667 124.5,78.5 Z"/></g>
<g><path style="opacity:0.4" fill="#5ab0e2" d="M 359.5,91.5 C 355.905,93.6489 351.905,95.1489 347.5,96C 313.912,103.448 279.912,107.615 245.5,108.5C 243.419,104.57 241.086,100.736 238.5,97C 267.413,95.0422 295.913,90.5422 324,83.5C 335.774,86.5692 347.607,89.2359 359.5,91.5 Z"/></g>
<g><path style="opacity:0.4" fill="#5ab0e2" d="M 120.5,105.5 C 111.112,104.938 101.779,103.938 92.5,102.5C 92.0423,99.6062 92.709,97.1062 94.5,95C 93.7476,94.3292 93.4142,93.4959 93.5,92.5C 96.137,91.1474 98.9704,90.4808 102,90.5C 109.22,91.2148 116.387,92.2148 123.5,93.5C 123.5,97.5 123.5,101.5 123.5,105.5C 122.5,105.5 121.5,105.5 120.5,105.5 Z"/></g>
<g><path style="opacity:0.4" fill="#5bb0e2" d="M 125.5,93.5 C 134.756,94.9172 144.089,95.5839 153.5,95.5C 153.5,99.5 153.5,103.5 153.5,107.5C 149.167,107.5 144.833,107.5 140.5,107.5C 135.453,107.663 130.453,107.329 125.5,106.5C 125.5,102.167 125.5,97.8333 125.5,93.5 Z"/></g>
<g><path style="opacity:0.397" fill="#5bb2e4" d="M 157.5,108.5 C 156.833,108.5 156.167,108.5 155.5,108.5C 155.5,104.5 155.5,100.5 155.5,96.5C 162.593,96.2507 169.593,96.9173 176.5,98.5C 174.5,101.5 172.5,104.5 170.5,107.5C 166.217,108.492 161.884,108.826 157.5,108.5 Z"/></g>
<g><path style="opacity:0.4" fill="#5bb1e3" d="M 243.5,108.5 C 219.533,109.471 195.533,109.804 171.5,109.5C 173.581,105.57 175.914,101.736 178.5,98C 196.514,97.7798 214.514,97.2798 232.5,96.5C 234.693,96.3262 236.527,96.9929 238,98.5C 240.112,101.727 241.945,105.06 243.5,108.5 Z"/></g>
<g><path style="opacity:0.17" fill="#0b1014" d="M 155.5,110.5 C 155.5,110.167 155.5,109.833 155.5,109.5C 155.5,109.167 155.5,108.833 155.5,108.5C 156.167,108.5 156.833,108.5 157.5,108.5C 161.97,109.486 166.637,109.819 171.5,109.5C 195.533,109.804 219.533,109.471 243.5,108.5C 244.167,108.5 244.833,108.5 245.5,108.5C 279.912,107.615 313.912,103.448 347.5,96C 351.905,95.1489 355.905,93.6489 359.5,91.5C 374.183,89.2183 387.516,83.7183 399.5,75C 405.583,70.0605 406.916,64.2271 403.5,57.5C 403.672,56.5084 403.338,55.8417 402.5,55.5C 398.644,51.4849 394.311,47.9849 389.5,45C 381.352,41.2556 373.018,38.0889 364.5,35.5C 362.626,34.7148 360.626,34.0482 358.5,33.5C 338.127,28.3265 317.461,24.6598 296.5,22.5C 294.735,21.5386 292.735,21.2053 290.5,21.5C 270.886,19.4658 251.219,18.1325 231.5,17.5C 211.736,16.1748 192.069,16.1748 172.5,17.5C 149.726,17.8424 127.059,19.5091 104.5,22.5C 100.64,22.8084 96.9736,23.4751 93.5,24.5C 69.0142,27.5379 45.3475,33.5379 22.5,42.5C 20.6316,43.2632 18.9649,44.2632 17.5,45.5C 10.5091,48.4118 5.00905,53.0784 1,59.5C -0.30197,64.8791 1.19803,69.2125 5.5,72.5C 5.5,73.1667 5.83333,73.5 6.5,73.5C 9.05954,76.4579 12.0595,78.9579 15.5,81C 39.634,92.2006 64.9674,99.0339 91.5,101.5C 91.5,102.167 91.5,102.833 91.5,103.5C 91.1667,103.5 90.8333,103.5 90.5,103.5C 69.6892,100.714 49.3559,95.8807 29.5,89C 17.0968,85.3275 7.09679,78.4942 -0.5,68.5C -0.5,65.1667 -0.5,61.8333 -0.5,58.5C 2.97614,52.8588 7.6428,48.3588 13.5,45C 36.0777,34.4374 59.7444,27.4374 84.5,24C 162.476,12.8603 240.476,12.6937 318.5,23.5C 340.484,26.5294 361.817,32.0294 382.5,40C 414.916,54.3905 415.583,69.7238 384.5,86C 363.829,94.0691 342.495,99.7357 320.5,103C 265.594,110.929 210.594,113.429 155.5,110.5 Z"/></g>
<g><path style="opacity:0.916" fill="#b48a6c" d="M 92.5,90.5 C 92.8333,91.1667 93.1667,91.8333 93.5,92.5C 93.4142,93.4959 93.7476,94.3292 94.5,95C 92.709,97.1062 92.0423,99.6062 92.5,102.5C 92.5,102.833 92.5,103.167 92.5,103.5C 92.1667,103.5 91.8333,103.5 91.5,103.5C 91.5,102.833 91.5,102.167 91.5,101.5C 91.9167,98.9208 91.25,96.7542 89.5,95C 90.0527,93.1222 91.0527,91.6222 92.5,90.5 Z"/></g>
<g><path style="opacity:0.639" fill="#5bb1e2" d="M 122.5,82.5 C 124.044,85.248 124.71,88.248 124.5,91.5C 118.07,91.1475 111.737,90.1475 105.5,88.5C 111.03,86.1013 116.696,84.1013 122.5,82.5 Z"/></g>
<g><path style="opacity:0.639" fill="#5bafe0" d="M 235.5,94.5 C 208.839,97.0082 182.173,97.0082 155.5,94.5C 155.5,89.8333 155.5,85.1667 155.5,80.5C 165.847,80.8946 176.181,81.5613 186.5,82.5C 185.36,84.0778 184.86,85.7445 185,87.5C 186.167,85.8333 187.333,84.1667 188.5,82.5C 201.5,81.1667 214.5,81.1667 227.5,82.5C 230.177,86.5286 232.844,90.5286 235.5,94.5 Z"/></g>
<g><path style="opacity:0.639" fill="#5ab1e3" d="M 153.5,94.5 C 144.175,93.7387 134.842,93.072 125.5,92.5C 125.073,89.2123 125.74,86.2123 127.5,83.5C 126.873,82.5832 126.539,81.5832 126.5,80.5C 129.393,79.4265 132.393,78.7598 135.5,78.5C 141.474,79.3077 147.474,79.641 153.5,79.5C 153.5,84.5 153.5,89.5 153.5,94.5 Z"/></g>
<g><path style="opacity:0.784" fill="#5ab2e5" d="M 151.5,71.5 C 153.49,71.9931 153.49,73.1598 151.5,75C 152.973,75.7096 153.64,76.8762 153.5,78.5C 148.448,78.5498 143.448,78.0498 138.5,77C 143.056,75.434 147.39,73.6007 151.5,71.5 Z"/></g>
<g><path style="opacity:0.639" fill="#5bb1e3" d="M 288.5,74.5 C 299.219,76.682 309.886,79.182 320.5,82C 293.058,89.7399 265.058,93.9065 236.5,94.5C 234.229,90.1355 231.562,85.9688 228.5,82C 242.841,80.7266 257.174,79.3933 271.5,78C 277.412,77.3851 283.079,76.2184 288.5,74.5 Z"/></g>
<g><path style="opacity:0.4" fill="#5bb0e1" d="M 92.5,90.5 C 91.0527,91.6222 90.0527,93.1222 89.5,95C 91.25,96.7542 91.9167,98.9208 91.5,101.5C 64.9674,99.0339 39.634,92.2006 15.5,81C 12.0595,78.9579 9.05954,76.4579 6.5,73.5C 19.4916,71.9453 32.4916,70.7786 45.5,70C 46.9842,71.5737 48.6508,72.907 50.5,74C 65.3829,81.4052 81.0496,86.4052 97.5,89C 95.9751,90.0086 94.3084,90.5086 92.5,90.5 Z"/></g>
<g><path style="opacity:0.639" fill="#5bb1e3" d="M 124.5,78.5 C 124.167,79.1667 123.833,79.8333 123.5,80.5C 117.078,82.3629 110.745,84.5296 104.5,87C 84.0611,86.1405 65.0611,80.4738 47.5,70C 58.0813,68.0104 68.7479,66.5104 79.5,65.5C 93.133,70.4087 107.133,74.0754 121.5,76.5C 123.03,76.6399 124.03,77.3065 124.5,78.5 Z"/></g>
<g><path style="opacity:0.784" fill="#5ab1e3" d="M 174.5,63.5 C 182.84,63.3336 191.173,63.5003 199.5,64C 195.586,69.1595 191.92,74.4928 188.5,80C 177.509,79.9921 166.509,79.8254 155.5,79.5C 155.328,77.5082 155.995,75.8415 157.5,74.5C 156.96,73.2519 156.293,72.0852 155.5,71C 162.052,68.7666 168.385,66.2666 174.5,63.5 Z"/></g>
<g><path style="opacity:0.784" fill="#5ab1e3" d="M 213.5,63.5 C 213.833,63.5 214.167,63.5 214.5,63.5C 218.638,68.4194 222.304,73.7527 225.5,79.5C 213.833,80.8333 202.167,80.8333 190.5,79.5C 193.833,74.5 197.167,69.5 200.5,64.5C 204.783,63.5078 209.116,63.1744 213.5,63.5 Z"/></g>
<g><path style="opacity:0.784" fill="#5ab1e3" d="M 236.5,62.5 C 239.85,62.335 243.183,62.5017 246.5,63C 259.919,66.1955 273.252,69.6955 286.5,73.5C 266.692,77.6811 246.692,79.3478 226.5,78.5C 223.5,73.8333 220.5,69.1667 217.5,64.5C 223.988,63.8332 230.321,63.1666 236.5,62.5 Z"/></g>
<g><path style="opacity:0.784" fill="#5bb1e3" d="M 130.5,59.5 C 144.493,60.6661 158.493,61.8328 172.5,63C 159.428,68.1909 146.094,72.6909 132.5,76.5C 116.233,74.8824 100.566,71.049 85.5,65C 100.709,63.6823 115.709,61.849 130.5,59.5 Z"/></g>
<g><path style="opacity:0.906" fill="#649cc0" d="M 175.5,41.5 C 175.791,42.6491 176.624,43.3158 178,43.5C 187.441,46.1484 196.941,48.4818 206.5,50.5C 215.5,48.2784 224.167,45.2784 232.5,41.5C 233.167,41.8333 233.833,42.1667 234.5,42.5C 229.128,45.1291 223.461,47.2957 217.5,49C 233.678,47.8509 249.678,46.0176 265.5,43.5C 266.492,43.6716 267.158,43.3382 267.5,42.5C 269.099,42.2322 270.432,42.5655 271.5,43.5C 270.448,43.3505 269.448,43.5172 268.5,44C 271.695,44.1805 274.695,44.6805 277.5,45.5C 261.108,46.2938 244.775,47.7938 228.5,50C 251.479,51.4657 274.479,52.299 297.5,52.5C 296.791,53.404 295.791,53.7373 294.5,53.5C 266.48,53.1845 238.48,52.6845 210.5,52C 220.707,54.5478 230.707,57.3811 240.5,60.5C 231.517,60.8017 222.85,61.8017 214.5,63.5C 214.167,63.5 213.833,63.5 213.5,63.5C 209.979,62.8337 206.313,62.1671 202.5,61.5C 204.11,59.2746 205.443,56.9413 206.5,54.5C 206.423,53.2502 205.756,52.4169 204.5,52C 202.276,51.9605 200.276,51.7938 198.5,51.5C 173.229,50.4752 147.229,49.4752 120.5,48.5C 121.263,47.7321 122.263,47.2321 123.5,47C 122.906,46.5357 122.239,46.369 121.5,46.5C 123.657,45.5933 125.99,44.9267 128.5,44.5C 128.842,45.3382 129.508,45.6716 130.5,45.5C 129.048,46.3019 127.382,46.8019 125.5,47C 147.852,47.7865 170.185,48.4532 192.5,49C 184.963,47.1206 177.629,44.954 170.5,42.5C 172.117,41.962 173.784,41.6287 175.5,41.5 Z"/></g>
<g><path style="opacity:0.515" fill="#628ca8" d="M 402.5,55.5 C 403.338,55.8417 403.672,56.5084 403.5,57.5C 388.8,57.8276 374.133,57.3276 359.5,56C 374.026,55.6208 388.359,55.4542 402.5,55.5 Z"/></g>
<g><path style="opacity:0.4" fill="#5bb1e3" d="M 364.5,35.5 C 373.018,38.0889 381.352,41.2556 389.5,45C 394.311,47.9849 398.644,51.4849 402.5,55.5C 388.359,55.4542 374.026,55.6208 359.5,56C 374.133,57.3276 388.8,57.8276 403.5,57.5C 406.916,64.2271 405.583,70.0605 399.5,75C 387.516,83.7183 374.183,89.2183 359.5,91.5C 349.418,88.2015 339.084,85.3682 328.5,83C 328.167,82.6667 327.833,82.3333 327.5,82C 331.814,80.6282 335.814,78.7949 339.5,76.5C 344.547,74.8085 349.213,72.3085 353.5,69C 359,63.8333 359.833,58 356,51.5C 350.265,46.0469 343.765,41.7136 336.5,38.5C 345.772,36.9142 355.105,35.9142 364.5,35.5 Z"/></g>
<g><path style="opacity:0.639" fill="#5bb1e3" d="M 339.5,76.5 C 334.196,78.1563 328.863,79.8229 323.5,81.5C 314.086,79.3066 304.753,76.8066 295.5,74C 306.823,71.784 317.323,67.6173 327,61.5C 327.833,59.8333 328.667,58.1667 329.5,56.5C 338.481,55.6975 347.481,55.6975 356.5,56.5C 356.998,60.2194 356.164,63.5527 354,66.5C 349.361,70.2262 344.528,73.5595 339.5,76.5 Z"/></g>
<g><path style="opacity:0.784" fill="#5bb0e2" d="M 302.5,41.5 C 310.481,42.6603 317.815,45.4937 324.5,50C 328.105,53.3153 328.439,56.982 325.5,61C 315.529,66.7131 304.862,70.5465 293.5,72.5C 279.958,70.2814 266.625,67.1147 253.5,63C 266.195,61.2392 278.862,59.2392 291.5,57C 293.246,56.5291 294.913,55.8624 296.5,55C 304.5,54.6667 312.5,54.3333 320.5,54C 313.842,53.5004 307.175,53.3337 300.5,53.5C 300.703,51.6096 300.037,50.1096 298.5,49C 293.497,47.1702 288.497,45.5036 283.5,44C 289.857,43.165 296.191,42.3317 302.5,41.5 Z"/></g>
<g><path style="opacity:0.894" fill="#62a5cf" d="M 198.5,51.5 C 200.276,51.7938 202.276,51.9605 204.5,52C 205.756,52.4169 206.423,53.2502 206.5,54.5C 204.376,56.0592 202.709,58.0592 201.5,60.5C 178.58,62.0028 155.913,61.0028 133.5,57.5C 155.222,56.0763 176.889,54.0763 198.5,51.5 Z"/></g>
<g><path style="opacity:0.87" fill="#5bb1e3" d="M 294.5,53.5 C 294.389,54.1174 294.056,54.6174 293.5,55C 276.008,58.5409 258.342,60.3743 240.5,60.5C 230.707,57.3811 220.707,54.5478 210.5,52C 238.48,52.6845 266.48,53.1845 294.5,53.5 Z"/></g>
<g><path style="opacity:0.87" fill="#5ab1e3" d="M 120.5,48.5 C 147.229,49.4752 173.229,50.4752 198.5,51.5C 176.889,54.0763 155.222,56.0763 133.5,57.5C 126.91,57.082 120.577,55.582 114.5,53C 113.289,52.1072 113.289,51.2739 114.5,50.5C 116.173,48.9137 118.173,48.2471 120.5,48.5 Z"/></g>
<g><path style="opacity:0.784" fill="#5ab1e3" d="M 75.5,58.5 C 76.843,49.6775 82.0097,46.0109 91,47.5C 98.5101,47.8469 106.01,48.3469 113.5,49C 112.167,50.6667 112.167,52.3333 113.5,54C 118.246,56.4164 123.246,58.0831 128.5,59C 112.855,60.9316 97.1885,62.2649 81.5,63C 79.34,61.668 77.34,60.168 75.5,58.5 Z"/></g>
<g><path style="opacity:0.906" fill="#5faad8" d="M 232.5,41.5 C 224.167,45.2784 215.5,48.2784 206.5,50.5C 196.941,48.4818 187.441,46.1484 178,43.5C 176.624,43.3158 175.791,42.6491 175.5,41.5C 182.841,41.6663 190.174,41.4997 197.5,41C 178.656,42.2451 160.322,39.9118 142.5,34C 168.454,31.4004 194.454,30.5671 220.5,31.5C 218.625,34.7511 216.625,37.9177 214.5,41C 220.491,41.4995 226.491,41.6662 232.5,41.5 Z"/></g>
<g><path style="opacity:0.639" fill="#5bb1e3" d="M 75.5,58.5 C 76.2026,60.7157 77.5359,62.549 79.5,64C 68.6624,65.1338 57.829,66.3004 47,67.5C 44.2767,67.0297 42.11,65.6964 40.5,63.5C 39.1249,56.4179 41.4582,50.9179 47.5,47C 58.5,46.3333 69.5,46.3333 80.5,47C 78.6667,48.8333 76.8333,50.6667 75,52.5C 74.2109,54.7116 74.3775,56.7116 75.5,58.5 Z"/></g>
<g><path style="opacity:0.87" fill="#5ab1e4" d="M 277.5,45.5 C 284.315,46.2965 290.981,47.7965 297.5,50C 298.774,50.9772 298.774,51.8106 297.5,52.5C 274.479,52.299 251.479,51.4657 228.5,50C 244.775,47.7938 261.108,46.2938 277.5,45.5 Z"/></g>
<g><path style="opacity:0.4" fill="#5bb1e3" d="M 17.5,45.5 C 27.1724,45.3335 36.8391,45.5002 46.5,46C 40.5697,50.0219 38.0697,55.5219 39,62.5C 39.3826,63.056 39.8826,63.3893 40.5,63.5C 40.7031,65.0443 41.3698,66.3777 42.5,67.5C 30.0391,69.2413 17.7057,70.908 5.5,72.5C 1.19803,69.2125 -0.30197,64.8791 1,59.5C 5.00905,53.0784 10.5091,48.4118 17.5,45.5 Z"/></g>
<g><path style="opacity:0.87" fill="#5ab2e5" d="M 234.5,42.5 C 244.838,42.716 255.171,43.0493 265.5,43.5C 249.678,46.0176 233.678,47.8509 217.5,49C 223.461,47.2957 229.128,45.1291 234.5,42.5 Z"/></g>
<g><path style="opacity:0.87" fill="#5ab1e3" d="M 170.5,42.5 C 177.629,44.954 184.963,47.1206 192.5,49C 170.185,48.4532 147.852,47.7865 125.5,47C 127.382,46.8019 129.048,46.3019 130.5,45.5C 143.77,43.7275 157.104,42.7275 170.5,42.5 Z"/></g>
<g><path style="opacity:0.639" fill="#5bb1e3" d="M 333.5,39.5 C 342.139,42.1429 349.472,46.8095 355.5,53.5C 346.853,54.6652 338.186,54.8319 329.5,54C 324.327,47.5732 317.66,43.4066 309.5,41.5C 317.307,40.2831 325.307,39.6164 333.5,39.5 Z"/></g>
<g><path style="opacity:0.784" fill="#5ab1e4" d="M 271.5,43.5 C 270.432,42.5655 269.099,42.2322 267.5,42.5C 259.462,41.9978 251.462,41.1644 243.5,40C 248.243,38.5304 252.909,36.8637 257.5,35C 271.411,34.8735 285.078,36.7068 298.5,40.5C 289.505,41.5947 280.505,42.5947 271.5,43.5 Z"/></g>
<g><path style="opacity:0.784" fill="#5ab1e4" d="M 128.5,44.5 C 125.99,44.9267 123.657,45.5933 121.5,46.5C 110.473,46.6177 99.4727,46.1177 88.5,45C 103.92,39.7344 119.753,36.2344 136,34.5C 144.601,36.2556 153.101,38.4222 161.5,41C 150.437,41.7176 139.437,42.8843 128.5,44.5 Z"/></g>
<g><path style="opacity:0.784" fill="#5bb1e3" d="M 221.5,31.5 C 233.211,31.7673 244.878,32.6006 256.5,34C 247.388,38.0411 237.888,40.2078 228,40.5C 224.5,40.1667 221,39.8333 217.5,39.5C 219.297,37.0447 220.63,34.378 221.5,31.5 Z"/></g>
<g><path style="opacity:0.639" fill="#5bb1e4" d="M 285.5,27.5 C 299.397,29.4662 313.064,32.4662 326.5,36.5C 320.083,38.2185 313.416,39.2185 306.5,39.5C 292.89,36.8888 279.224,34.5555 265.5,32.5C 271.768,29.1873 278.435,27.5207 285.5,27.5 Z"/></g>
<g><path style="opacity:0.639" fill="#5ab1e4" d="M 107.5,27.5 C 115.629,28.6985 123.629,30.5318 131.5,33C 115.323,35.1008 99.6561,39.1008 84.5,45C 74.1539,45.3745 63.8206,45.0412 53.5,44C 60.397,40.0317 67.7304,37.0317 75.5,35C 86.2235,32.1659 96.8902,29.6659 107.5,27.5 Z"/></g>
<g><path style="opacity:0.4" fill="#5ab0e2" d="M 93.5,24.5 C 97.3479,24.2397 101.015,24.9064 104.5,26.5C 94.0639,28.5541 83.7306,31.0541 73.5,34C 65.4526,36.5253 57.7859,39.8586 50.5,44C 40.9735,44.4838 31.6401,43.9838 22.5,42.5C 45.3475,33.5379 69.0142,27.5379 93.5,24.5 Z"/></g>
<g><path style="opacity:0.399" fill="#5bb1e2" d="M 296.5,22.5 C 317.461,24.6598 338.127,28.3265 358.5,33.5C 350.294,34.762 341.961,36.0954 333.5,37.5C 317.862,32.2571 301.862,28.5904 285.5,26.5C 288.504,23.8514 292.171,22.5181 296.5,22.5 Z"/></g>
<g><path style="opacity:0.639" fill="#5ab2e4" d="M 227.5,22.5 C 243.986,22.5126 260.32,24.0126 276.5,27C 270.847,28.9399 265.181,30.7733 259.5,32.5C 247.816,31.2547 236.149,29.9214 224.5,28.5C 226.038,26.7567 227.038,24.7567 227.5,22.5 Z"/></g>
<g><path style="opacity:0.399" fill="#5bb2e4" d="M 231.5,17.5 C 251.219,18.1325 270.886,19.4658 290.5,21.5C 286.599,23.8671 282.266,24.8671 277.5,24.5C 261.828,22.7889 246.161,21.1222 230.5,19.5C 230.863,18.8165 231.196,18.1499 231.5,17.5 Z"/></g>
<g><path style="opacity:0.638" fill="#5bb2e4" d="M 190.5,21.5 C 202.518,21.1677 214.518,21.501 226.5,22.5C 225.365,24.7989 224.032,26.9656 222.5,29C 213.167,29.6667 203.833,29.6667 194.5,29C 193.014,26.5255 191.681,24.0255 190.5,21.5 Z"/></g>
<g><path style="opacity:0.639" fill="#5bb1e3" d="M 162.5,21.5 C 171.192,21.1686 179.859,21.502 188.5,22.5C 189.833,24.5 191.167,26.5 192.5,28.5C 174.987,29.6576 157.487,30.991 140,32.5C 131.695,31.3826 123.528,29.5493 115.5,27C 131.291,24.9944 146.958,23.1611 162.5,21.5 Z"/></g>
<g><path style="opacity:0.388" fill="#55a7d7" d="M 172.5,17.5 C 177.361,17.0634 182.028,17.5634 186.5,19C 161.552,19.9446 136.719,22.1113 112,25.5C 108.765,25.4182 105.598,24.9182 102.5,24C 103.416,23.7216 104.082,23.2216 104.5,22.5C 127.059,19.5091 149.726,17.8424 172.5,17.5 Z"/></g>
<g><path style="opacity:0.372" fill="#5ebcf3" d="M 187.5,18.5 C 201.327,17.3393 215.327,17.1727 229.5,18C 228.774,19.3974 227.607,20.2308 226,20.5C 213.113,19.8616 200.28,19.1949 187.5,18.5 Z"/></g>
<g><path style="opacity:0.179" fill="#060a0d" d="M 92.5,102.5 C 101.779,103.938 111.112,104.938 120.5,105.5C 121.568,106.434 122.901,106.768 124.5,106.5C 124.5,106.833 124.5,107.167 124.5,107.5C 124.167,107.5 123.833,107.5 123.5,107.5C 113.484,106.646 103.484,105.646 93.5,104.5C 92.8333,104.5 92.5,104.167 92.5,103.5C 92.5,103.167 92.5,102.833 92.5,102.5 Z"/></g>
<g><path style="opacity:0.402" fill="#df7226" d="M 90.5,103.5 C 90.8333,103.5 91.1667,103.5 91.5,103.5C 91.8333,103.5 92.1667,103.5 92.5,103.5C 92.5,104.167 92.8333,104.5 93.5,104.5C 93.5,150.5 93.5,196.5 93.5,242.5C 92.8333,242.5 92.5,242.833 92.5,243.5C 92.5,244.167 92.5,244.833 92.5,245.5C 92.6655,249.514 92.4988,253.514 92,257.5C 91.5014,253.848 91.3347,250.182 91.5,246.5C 91.5,245.833 91.1667,245.5 90.5,245.5C 90.5,198.167 90.5,150.833 90.5,103.5 Z"/></g>
<g><path style="opacity:0.195" fill="#000001" d="M 125.5,107.5 C 125.5,107.167 125.5,106.833 125.5,106.5C 130.453,107.329 135.453,107.663 140.5,107.5C 144.833,108.167 149.167,108.833 153.5,109.5C 153.5,109.833 153.5,110.167 153.5,110.5C 144.555,109.409 135.555,108.742 126.5,108.5C 126.5,107.833 126.167,107.5 125.5,107.5 Z"/></g>
<g><path style="opacity:0.415" fill="#df7226" d="M 123.5,107.5 C 123.833,107.5 124.167,107.5 124.5,107.5C 124.833,107.5 125.167,107.5 125.5,107.5C 126.167,107.5 126.5,107.833 126.5,108.5C 126.5,146.833 126.5,185.167 126.5,223.5C 125.662,223.842 125.328,224.508 125.5,225.5C 125.666,229.514 125.499,233.514 125,237.5C 124.501,233.848 124.335,230.182 124.5,226.5C 124.672,225.508 124.338,224.842 123.5,224.5C 123.5,185.5 123.5,146.5 123.5,107.5 Z"/></g>
<g><path style="opacity:0.634" fill="#e07226" d="M 153.5,109.5 C 154.167,109.5 154.833,109.5 155.5,109.5C 155.5,109.833 155.5,110.167 155.5,110.5C 155.5,144.5 155.5,178.5 155.5,212.5C 155.5,212.833 155.5,213.167 155.5,213.5C 154.833,213.5 154.167,213.5 153.5,213.5C 153.5,179.167 153.5,144.833 153.5,110.5C 153.5,110.167 153.5,109.833 153.5,109.5 Z"/></g>
<g><path style="opacity:0.615" fill="#2a4f09" d="M 436.5,118.5 C 443.772,119.359 446.272,123.359 444,130.5C 441.441,133.349 438.274,134.183 434.5,133C 430.002,127.32 430.669,122.487 436.5,118.5 Z M 436.5,121.5 C 438.144,121.286 439.644,121.62 441,122.5C 441.667,124.833 441.667,127.167 441,129.5C 437.182,132.498 435.016,131.498 434.5,126.5C 434.437,124.486 435.103,122.819 436.5,121.5 Z"/></g>
<g><path style="opacity:0.601" fill="#2a4f09" d="M 447.5,118.5 C 450.272,118.22 452.772,118.887 455,120.5C 458.494,118.623 462.327,117.956 466.5,118.5C 466.5,119.5 466.5,120.5 466.5,121.5C 465.167,121.5 463.833,121.5 462.5,121.5C 462.5,125.5 462.5,129.5 462.5,133.5C 461.5,133.5 460.5,133.5 459.5,133.5C 459.5,129.5 459.5,125.5 459.5,121.5C 458.167,121.5 456.833,121.5 455.5,121.5C 455.822,123.722 455.155,125.556 453.5,127C 455.544,129.131 456.377,131.631 456,134.5C 453.595,132.429 451.595,130.096 450,127.5C 449.5,127.833 449,128.167 448.5,128.5C 449.309,130.071 449.643,131.738 449.5,133.5C 448.5,133.5 447.5,133.5 446.5,133.5C 446.221,128.405 446.555,123.405 447.5,118.5 Z M 448.5,122.5 C 449.568,121.566 450.901,121.232 452.5,121.5C 452.824,124.68 451.49,125.847 448.5,125C 449.774,124.023 449.774,123.189 448.5,122.5 Z"/></g>
<g><path style="opacity:0.646" fill="#2a4f09" d="M 467.5,118.5 C 469.308,119.918 469.975,121.918 469.5,124.5C 471.5,124.5 473.5,124.5 475.5,124.5C 475.5,122.5 475.5,120.5 475.5,118.5C 476.5,118.5 477.5,118.5 478.5,118.5C 478.5,123.5 478.5,128.5 478.5,133.5C 477.5,133.5 476.5,133.5 475.5,133.5C 475.5,131.5 475.5,129.5 475.5,127.5C 473.5,127.5 471.5,127.5 469.5,127.5C 469.799,129.604 469.466,131.604 468.5,133.5C 467.506,128.544 467.173,123.544 467.5,118.5 Z"/></g>
<g><path style="opacity:0.629" fill="#2a4f09" d="M 484.5,118.5 C 489.77,118.27 492.77,120.77 493.5,126C 492.436,132.395 488.769,134.728 482.5,133C 478.128,127.408 478.794,122.575 484.5,118.5 Z M 484.5,121.5 C 488.29,120.953 490.29,122.62 490.5,126.5C 489.3,131.362 486.8,132.362 483,129.5C 482.109,126.502 482.609,123.836 484.5,121.5 Z"/></g>
<g><path style="opacity:0.312" fill="#5c5934" d="M 495.5,176.5 C 495.5,177.167 495.5,177.833 495.5,178.5C 486.262,166.86 474.262,159.193 459.5,155.5C 458.833,155.5 458.167,155.5 457.5,155.5C 442.73,149.975 427.397,146.309 411.5,144.5C 410.833,144.5 410.167,144.5 409.5,144.5C 392.941,142.174 376.274,141.174 359.5,141.5C 359.158,140.662 358.492,140.328 357.5,140.5C 338.808,140.302 320.141,139.635 301.5,138.5C 300.833,138.5 300.167,138.5 299.5,138.5C 279.144,138.227 258.811,138.56 238.5,139.5C 237.833,138.167 237.167,138.167 236.5,139.5C 215.5,139.5 194.5,139.5 173.5,139.5C 173.232,153.548 172.565,167.548 171.5,181.5C 192.489,182.5 213.489,182.833 234.5,182.5C 235.167,182.5 235.833,182.5 236.5,182.5C 256.826,181.802 277.159,181.468 297.5,181.5C 298.167,182.833 298.833,182.833 299.5,181.5C 318.157,182.45 336.824,183.45 355.5,184.5C 356.167,184.5 356.833,184.5 357.5,184.5C 374.573,184.524 391.573,185.524 408.5,187.5C 409.167,187.5 409.833,187.5 410.5,187.5C 426.214,189.642 441.547,193.309 456.5,198.5C 456.5,199.167 456.833,199.5 457.5,199.5C 466.196,201.182 474.196,204.515 481.5,209.5C 481.158,210.338 480.492,210.672 479.5,210.5C 472.626,206.397 465.293,203.397 457.5,201.5C 457.158,200.662 456.492,200.328 455.5,200.5C 440.894,195.432 425.894,192.099 410.5,190.5C 409.833,190.167 409.167,189.833 408.5,189.5C 391.527,188.089 374.527,187.089 357.5,186.5C 356.833,186.5 356.167,186.5 355.5,186.5C 336.842,185.629 318.175,184.962 299.5,184.5C 298.833,183.167 298.167,183.167 297.5,184.5C 277.167,184.5 256.833,184.5 236.5,184.5C 235.833,184.5 235.167,184.5 234.5,184.5C 213.473,184.212 192.473,184.546 171.5,185.5C 171.799,193.253 171.466,200.92 170.5,208.5C 170.158,209.338 169.492,209.672 168.5,209.5C 169.252,185.254 170.252,161.254 171.5,137.5C 220.162,136.465 268.829,136.298 317.5,137C 348.883,137.854 380.217,139.52 411.5,142C 437.687,145.064 462.354,152.731 485.5,165C 489.891,167.974 493.225,171.808 495.5,176.5 Z M 234.5,184.5 C 234.348,191.459 234.348,198.292 234.5,205C 213.072,203.676 191.739,204.842 170.5,208.5C 171.466,200.92 171.799,193.253 171.5,185.5C 192.473,184.546 213.473,184.212 234.5,184.5 Z"/></g>
<g><path style="opacity:0.155" fill="#000000" d="M 238.5,139.5 C 238.302,153.914 237.636,168.247 236.5,182.5C 235.833,182.5 235.167,182.5 234.5,182.5C 235.176,167.947 235.842,153.613 236.5,139.5C 237.167,138.167 237.833,138.167 238.5,139.5 Z"/></g>
<g><path style="opacity:0.147" fill="#000000" d="M 299.5,138.5 C 300.167,138.5 300.833,138.5 301.5,138.5C 301.017,152.859 300.35,167.192 299.5,181.5C 298.833,182.833 298.167,182.833 297.5,181.5C 297.823,167.092 298.49,152.759 299.5,138.5 Z"/></g>
<g><path style="opacity:0.149" fill="#000000" d="M 357.5,140.5 C 358.492,140.328 359.158,140.662 359.5,141.5C 359.352,155.916 358.685,170.249 357.5,184.5C 356.833,184.5 356.167,184.5 355.5,184.5C 356.116,169.83 356.782,155.163 357.5,140.5 Z"/></g>
<g><path style="opacity:0.169" fill="#000000" d="M 409.5,144.5 C 410.167,144.5 410.833,144.5 411.5,144.5C 411.438,158.841 411.105,173.174 410.5,187.5C 409.833,187.5 409.167,187.5 408.5,187.5C 408.524,173.158 408.857,158.824 409.5,144.5 Z"/></g>
<g><path style="opacity:0.155" fill="#000000" d="M 457.5,155.5 C 458.167,155.5 458.833,155.5 459.5,155.5C 459.496,170.255 458.829,184.922 457.5,199.5C 456.833,199.5 456.5,199.167 456.5,198.5C 455.957,197.258 455.623,195.925 455.5,194.5C 456.346,181.512 457.012,168.512 457.5,155.5 Z"/></g>
<g><path style="opacity:0.384" fill="#101213" d="M 299.5,184.5 C 299.612,196.765 298.945,208.931 297.5,221C 303.289,223.19 308.622,226.023 313.5,229.5C 312.833,229.5 312.167,229.5 311.5,229.5C 310.833,229.167 310.167,228.833 309.5,228.5C 265.818,206.9 220.151,200.9 172.5,210.5C 171.508,210.328 170.842,210.662 170.5,211.5C 169.833,211.5 169.167,211.5 168.5,211.5C 164.054,212.122 159.721,213.122 155.5,214.5C 155.5,214.167 155.5,213.833 155.5,213.5C 155.5,213.167 155.5,212.833 155.5,212.5C 159.873,211.657 164.207,210.657 168.5,209.5C 169.492,209.672 170.158,209.338 170.5,208.5C 191.739,204.842 213.072,203.676 234.5,205C 234.348,198.292 234.348,191.459 234.5,184.5C 235.167,184.5 235.833,184.5 236.5,184.5C 236.812,191.422 236.479,198.256 235.5,205C 256.249,207.354 276.249,212.52 295.5,220.5C 296.357,208.506 297.024,196.506 297.5,184.5C 298.167,183.167 298.833,183.167 299.5,184.5 Z M 236.5,184.5 C 256.833,184.5 277.167,184.5 297.5,184.5C 297.024,196.506 296.357,208.506 295.5,220.5C 276.249,212.52 256.249,207.354 235.5,205C 236.479,198.256 236.812,191.422 236.5,184.5 Z"/></g>
<g><path style="opacity:0.166" fill="#000000" d="M 355.5,186.5 C 356.167,186.5 356.833,186.5 357.5,186.5C 357.522,201.177 357.189,215.843 356.5,230.5C 355.604,231.506 354.938,231.506 354.5,230.5C 354.628,215.828 354.962,201.161 355.5,186.5 Z"/></g>
<g><path style="opacity:0.18" fill="#0c0b03" d="M 495.5,176.5 C 496.833,176.5 497.5,177.167 497.5,178.5C 496.539,180.265 496.205,182.265 496.5,184.5C 496.035,188.103 496.368,190.103 497.5,190.5C 498.808,192.638 498.475,194.638 496.5,196.5C 495.89,197.391 495.557,198.391 495.5,199.5C 494.5,199.833 493.833,200.5 493.5,201.5C 490.789,205.212 487.456,208.212 483.5,210.5C 482.29,210.932 481.29,211.599 480.5,212.5C 476.737,213.701 473.07,215.201 469.5,217C 465.113,217.791 460.779,218.625 456.5,219.5C 455.209,219.263 454.209,219.596 453.5,220.5C 438.225,222.014 423.225,224.347 408.5,227.5C 407.833,227.5 407.167,227.5 406.5,227.5C 396.737,228.428 387.07,229.762 377.5,231.5C 374.904,232.265 372.237,232.599 369.5,232.5C 369.5,232.167 369.5,231.833 369.5,231.5C 381.456,229.41 393.456,227.41 405.5,225.5C 406.888,213.482 407.888,201.482 408.5,189.5C 409.167,189.833 409.833,190.167 410.5,190.5C 409.993,202.063 409.326,213.563 408.5,225C 424.145,223.061 439.812,220.894 455.5,218.5C 455.5,212.5 455.5,206.5 455.5,200.5C 456.492,200.328 457.158,200.662 457.5,201.5C 457.625,206.622 457.625,211.956 457.5,217.5C 465.422,216.693 472.755,214.359 479.5,210.5C 480.492,210.672 481.158,210.338 481.5,209.5C 493.715,202.92 498.381,192.587 495.5,178.5C 495.5,177.833 495.5,177.167 495.5,176.5 Z M 410.5,190.5 C 425.894,192.099 440.894,195.432 455.5,200.5C 455.5,206.5 455.5,212.5 455.5,218.5C 439.812,220.894 424.145,223.061 408.5,225C 409.326,213.563 409.993,202.063 410.5,190.5 Z M 457.5,201.5 C 465.293,203.397 472.626,206.397 479.5,210.5C 472.755,214.359 465.422,216.693 457.5,217.5C 457.625,211.956 457.625,206.622 457.5,201.5 Z"/></g>
<g><path style="opacity:0.361" fill="#e3e619" d="M 493.5,201.5 C 494.043,201.56 494.376,201.893 494.5,202.5C 493.706,208.783 493.206,215.116 493,221.5C 489.998,217.666 486.831,214 483.5,210.5C 487.456,208.212 490.789,205.212 493.5,201.5 Z"/></g>
<g><path style="opacity:0.353" fill="#e1e41e" d="M 496.5,196.5 C 497.49,202.31 497.823,208.31 497.5,214.5C 496.676,218.312 496.176,222.312 496,226.5C 495.5,217.506 495.334,208.506 495.5,199.5C 495.557,198.391 495.89,197.391 496.5,196.5 Z"/></g>
<g><path style="opacity:1" fill="#c7e9f7" d="M 309.5,228.5 C 284.305,228.268 258.972,228.602 233.5,229.5C 233.5,224.167 233.5,218.833 233.5,213.5C 211.918,209.43 191.418,211.763 172,220.5C 171.333,217.833 171.333,215.167 172,212.5C 173.734,211.751 175.567,211.251 177.5,211C 175.866,210.506 174.199,210.34 172.5,210.5C 220.151,200.9 265.818,206.9 309.5,228.5 Z"/></g>
<g><path style="opacity:0.46" fill="#0d0f10" d="M 153.5,213.5 C 153.5,214.167 153.5,214.833 153.5,215.5C 152.209,215.263 151.209,215.596 150.5,216.5C 141.95,218.906 133.617,221.906 125.5,225.5C 125.328,224.508 125.662,223.842 126.5,223.5C 135.346,219.773 144.346,216.44 153.5,213.5 Z"/></g>
<g><path style="opacity:0.361" fill="#e0e31a" d="M 480.5,212.5 C 485.683,214.84 489.85,218.507 493,223.5C 492.778,238.167 492.111,252.834 491,267.5C 481.991,256.571 470.491,249.571 456.5,246.5C 456.5,237.5 456.5,228.5 456.5,219.5C 460.779,218.625 465.113,217.791 469.5,217C 473.07,215.201 476.737,213.701 480.5,212.5 Z"/></g>
<g><path style="opacity:1" fill="#d49567" d="M 153.5,213.5 C 154.167,213.5 154.833,213.5 155.5,213.5C 155.5,213.833 155.5,214.167 155.5,214.5C 155.827,219.214 155.493,223.88 154.5,228.5C 153.508,224.217 153.174,219.884 153.5,215.5C 153.5,214.833 153.5,214.167 153.5,213.5 Z"/></g>
<g><path style="opacity:1" fill="#d6effb" d="M 172.5,210.5 C 174.199,210.34 175.866,210.506 177.5,211C 175.567,211.251 173.734,211.751 172,212.5C 171.333,215.167 171.333,217.833 172,220.5C 191.418,211.763 211.918,209.43 233.5,213.5C 233.5,218.833 233.5,224.167 233.5,229.5C 212.167,229.5 190.833,229.5 169.5,229.5C 169.701,223.491 170.034,217.491 170.5,211.5C 170.842,210.662 171.508,210.328 172.5,210.5 Z"/></g>
<g><path style="opacity:0.361" fill="#dfe219" d="M 453.5,220.5 C 454.748,221.334 455.415,222.667 455.5,224.5C 454.989,231.514 454.323,238.514 453.5,245.5C 443.223,241.264 432.557,238.598 421.5,237.5C 417.368,236.137 413.035,235.137 408.5,234.5C 408.5,232.167 408.5,229.833 408.5,227.5C 423.225,224.347 438.225,222.014 453.5,220.5 Z"/></g>
<g><path style="opacity:1" fill="#caebfa" d="M 168.5,211.5 C 168.823,217.69 168.49,223.69 167.5,229.5C 167.167,229.5 166.833,229.5 166.5,229.5C 143.707,242.144 128.874,261.144 122,286.5C 113.836,323.962 124.003,355.795 152.5,382C 144.527,382.826 144.527,383.326 152.5,383.5C 144.345,384.533 136.012,385.2 127.5,385.5C 126.448,385.649 125.448,385.483 124.5,385C 126.5,384.667 128.5,384.333 130.5,384C 102.085,349.814 95.2522,311.648 110,269.5C 118.572,249.022 131.905,232.356 150,219.5C 150.483,218.552 150.649,217.552 150.5,216.5C 151.209,215.596 152.209,215.263 153.5,215.5C 153.174,219.884 153.508,224.217 154.5,228.5C 155.493,223.88 155.827,219.214 155.5,214.5C 159.721,213.122 164.054,212.122 168.5,211.5 Z"/></g>
<g><path style="opacity:0.332" fill="#5d5834" d="M 311.5,230.5 C 311.5,230.167 311.5,229.833 311.5,229.5C 312.167,229.5 312.833,229.5 313.5,229.5C 327.174,229.594 340.841,229.927 354.5,230.5C 354.938,231.506 355.604,231.506 356.5,230.5C 360.824,230.927 365.158,231.261 369.5,231.5C 369.5,231.833 369.5,232.167 369.5,232.5C 367.379,232.325 365.379,232.659 363.5,233.5C 360.269,232.218 356.936,232.218 353.5,233.5C 342.334,232.597 331,231.93 319.5,231.5C 317.958,230.699 316.292,230.366 314.5,230.5C 313.5,230.5 312.5,230.5 311.5,230.5 Z"/></g>
<g><path style="opacity:0.361" fill="#d9db1a" d="M 406.5,227.5 C 406.5,229.833 406.5,232.167 406.5,234.5C 396.696,233.452 387.029,232.452 377.5,231.5C 387.07,229.762 396.737,228.428 406.5,227.5 Z"/></g>
<g><path style="opacity:1" fill="#cfecfa" d="M 254.5,230.5 C 269.167,230.5 283.833,230.5 298.5,230.5C 298.892,232.179 299.392,233.846 300,235.5C 304.487,240.476 308.487,245.809 312,251.5C 315.699,260.118 319.866,268.451 324.5,276.5C 314.509,275.945 304.509,275.612 294.5,275.5C 290.423,272.09 287.257,267.756 285,262.5C 276.308,249.805 265.141,239.972 251.5,233C 253.119,232.764 254.119,231.931 254.5,230.5 Z"/></g>
<g><path style="opacity:1" fill="#e0f1f9" d="M 254.5,230.5 C 254.119,231.931 253.119,232.764 251.5,233C 265.141,239.972 276.308,249.805 285,262.5C 287.257,267.756 290.423,272.09 294.5,275.5C 283.833,275.5 273.167,275.5 262.5,275.5C 269.655,274.671 276.989,274.171 284.5,274C 280.833,273.667 277.167,273.333 273.5,273C 264.687,259.519 252.853,249.686 238,243.5C 237.667,243.833 237.333,244.167 237,244.5C 236.667,243.167 236.333,241.833 236,240.5C 234.731,244.649 234.065,248.982 234,253.5C 233.5,260.826 233.334,268.159 233.5,275.5C 232.833,275.5 232.167,275.5 231.5,275.5C 232.684,259.476 232.684,248.143 231.5,241.5C 215.534,238.077 199.868,239.244 184.5,245C 179.523,247.1 175.023,249.934 171,253.5C 170.824,249.312 170.324,245.312 169.5,241.5C 169.5,237.833 169.5,234.167 169.5,230.5C 197.833,230.5 226.167,230.5 254.5,230.5 Z"/></g>
<g><path style="opacity:1" fill="#bae5f8" d="M 150.5,216.5 C 150.649,217.552 150.483,218.552 150,219.5C 131.905,232.356 118.572,249.022 110,269.5C 95.2522,311.648 102.085,349.814 130.5,384C 128.5,384.333 126.5,384.667 124.5,385C 125.448,385.483 126.448,385.649 127.5,385.5C 124.038,386.482 120.371,386.815 116.5,386.5C 115.448,386.649 114.448,386.483 113.5,386C 115.577,385.808 117.577,385.308 119.5,384.5C 97.0588,356.069 89.0588,324.069 95.5,288.5C 95.2907,287.914 94.9574,287.414 94.5,287C 95.7107,283.905 97.0441,280.905 98.5,278C 97.273,276.413 97.6063,275.079 99.5,274C 99.1667,273.667 98.8333,273.333 98.5,273C 104.681,257.973 112.681,243.973 122.5,231C 122.333,230.5 122.167,230 122,229.5C 116.318,232.764 110.818,235.431 105.5,237.5C 111.307,233.091 117.64,229.424 124.5,226.5C 124.335,230.182 124.501,233.848 125,237.5C 125.499,233.514 125.666,229.514 125.5,225.5C 133.617,221.906 141.95,218.906 150.5,216.5 Z"/></g>
<g><path style="opacity:1" fill="#b0e1f7" d="M 298.5,230.5 C 302.833,230.5 307.167,230.5 311.5,230.5C 312.5,230.5 313.5,230.5 314.5,230.5C 319.96,234.402 325.627,238.069 331.5,241.5C 331.828,253.345 331.495,265.012 330.5,276.5C 328.5,276.5 326.5,276.5 324.5,276.5C 319.866,268.451 315.699,260.118 312,251.5C 308.487,245.809 304.487,240.476 300,235.5C 299.392,233.846 298.892,232.179 298.5,230.5 Z"/></g>
<g><path style="opacity:0.164" fill="#514e26" d="M 497.5,178.5 C 497.989,179.995 498.655,181.329 499.5,182.5C 499.5,193.5 499.5,204.5 499.5,215.5C 496.434,282.994 493.768,350.66 491.5,418.5C 490.833,420.5 490.167,422.5 489.5,424.5C 489.5,421.5 489.5,418.5 489.5,415.5C 490.436,411.265 490.769,406.931 490.5,402.5C 490.627,391.392 490.627,380.392 490.5,369.5C 492.402,366.663 493.069,363.329 492.5,359.5C 492.5,346.833 492.5,334.167 492.5,321.5C 493.167,321.5 493.5,321.167 493.5,320.5C 493.924,306.836 494.257,293.169 494.5,279.5C 495.386,272.543 495.72,265.543 495.5,258.5C 495.656,249.825 495.989,241.158 496.5,232.5C 497.363,226.545 497.697,220.545 497.5,214.5C 497.823,208.31 497.49,202.31 496.5,196.5C 498.475,194.638 498.808,192.638 497.5,190.5C 497.795,188.265 497.461,186.265 496.5,184.5C 496.205,182.265 496.539,180.265 497.5,178.5 Z"/></g>
<g><path style="opacity:0.506" fill="#101314" d="M 123.5,224.5 C 124.338,224.842 124.672,225.508 124.5,226.5C 117.64,229.424 111.307,233.091 105.5,237.5C 101.027,239.905 96.694,242.571 92.5,245.5C 92.5,244.833 92.5,244.167 92.5,243.5C 93.1667,243.5 93.5,243.167 93.5,242.5C 103.26,236.067 113.26,230.067 123.5,224.5 Z"/></g>
<g><path style="opacity:0.558" fill="#0f1110" d="M 314.5,230.5 C 316.292,230.366 317.958,230.699 319.5,231.5C 323.187,234.5 327.187,237.166 331.5,239.5C 331.06,238.047 331.726,236.881 333.5,236C 340.154,235.002 346.821,234.168 353.5,233.5C 356.936,232.218 360.269,232.218 363.5,233.5C 361.265,233.205 359.265,233.539 357.5,234.5C 356.833,234.5 356.167,234.5 355.5,234.5C 353.585,234.216 351.919,234.549 350.5,235.5C 344.783,235.793 339.116,236.46 333.5,237.5C 333.5,238.833 333.5,240.167 333.5,241.5C 333.062,242.506 332.396,242.506 331.5,241.5C 325.627,238.069 319.96,234.402 314.5,230.5 Z"/></g>
<g><path style="opacity:0.361" fill="#e0e21a" d="M 406.5,254.5 C 389.5,254.5 372.5,254.5 355.5,254.5C 355.5,247.833 355.5,241.167 355.5,234.5C 356.167,234.5 356.833,234.5 357.5,234.5C 373.862,233.168 390.195,233.501 406.5,235.5C 406.5,241.833 406.5,248.167 406.5,254.5 Z"/></g>
<g><path style="opacity:1" fill="#dbf1fb" d="M 166.5,229.5 C 166.666,234.511 166.499,239.511 166,244.5C 134.673,269.769 125.339,301.769 138,340.5C 139.04,343.823 140.54,346.823 142.5,349.5C 142.5,354.167 142.5,358.833 142.5,363.5C 143.152,364.725 144.319,365.392 146,365.5C 148.402,365.315 150.569,364.815 152.5,364C 158.73,370.066 165.396,375.566 172.5,380.5C 168.541,381.327 164.541,381.827 160.5,382C 161.793,382.49 163.127,382.657 164.5,382.5C 160.702,383.483 156.702,383.817 152.5,383.5C 144.527,383.326 144.527,382.826 152.5,382C 124.003,355.795 113.836,323.962 122,286.5C 128.874,261.144 143.707,242.144 166.5,229.5 Z"/></g>
<g><path style="opacity:0.361" fill="#dfe119" d="M 350.5,235.5 C 351.5,235.5 352.5,235.5 353.5,235.5C 353.5,241.833 353.5,248.167 353.5,254.5C 352.833,254.5 352.167,254.5 351.5,254.5C 348.816,252.807 346.149,251.14 343.5,249.5C 342.738,247.738 341.404,246.738 339.5,246.5C 337.909,244.367 335.909,242.701 333.5,241.5C 333.5,240.167 333.5,238.833 333.5,237.5C 339.116,236.46 344.783,235.793 350.5,235.5 Z"/></g>
<g><path style="opacity:1" fill="#e8f6fc" d="M 166.5,229.5 C 166.833,229.5 167.167,229.5 167.5,229.5C 166.121,274.499 164.787,319.499 163.5,364.5C 200.169,364.372 236.836,364.038 273.5,363.5C 267.685,369.105 261.351,374.271 254.5,379C 259.351,379.174 264.018,379.674 268.5,380.5C 233.814,380.285 199.147,380.952 164.5,382.5C 163.127,382.657 161.793,382.49 160.5,382C 164.541,381.827 168.541,381.327 172.5,380.5C 165.396,375.566 158.73,370.066 152.5,364C 150.569,364.815 148.402,365.315 146,365.5C 144.319,365.392 143.152,364.725 142.5,363.5C 144.924,363.808 147.257,363.474 149.5,362.5C 147.955,361.548 146.288,361.215 144.5,361.5C 144.5,360.167 144.5,358.833 144.5,357.5C 151.167,356.833 151.167,356.167 144.5,355.5C 144.5,354.167 144.5,352.833 144.5,351.5C 146.288,351.785 147.955,351.452 149.5,350.5C 147.257,349.526 144.924,349.192 142.5,349.5C 140.54,346.823 139.04,343.823 138,340.5C 125.339,301.769 134.673,269.769 166,244.5C 166.499,239.511 166.666,234.511 166.5,229.5 Z"/></g>
<g><path style="opacity:1" fill="#b2dab1" d="M 339.5,246.5 C 341.404,246.738 342.738,247.738 343.5,249.5C 346.231,252.814 349.397,255.814 353,258.5C 353.333,264.167 353.667,269.833 354,275.5C 353.882,270.067 354.715,265.067 356.5,260.5C 360.452,265.119 364.785,269.452 369.5,273.5C 369.859,275.371 370.859,276.871 372.5,278C 359.165,277.873 345.832,277.373 332.5,276.5C 332.215,265.46 332.715,254.46 334,243.5C 335.741,244.758 337.574,245.758 339.5,246.5 Z"/></g>
<g><path style="opacity:0.694" fill="#8e8e43" d="M 495.5,199.5 C 495.334,208.506 495.5,217.506 496,226.5C 496.176,222.312 496.676,218.312 497.5,214.5C 497.697,220.545 497.363,226.545 496.5,232.5C 495.71,231.391 495.21,230.058 495,228.5C 493.812,243.143 493.312,257.81 493.5,272.5C 493.5,273.167 493.5,273.833 493.5,274.5C 491.803,288.975 491.303,303.641 492,318.5C 492.278,319.416 492.778,320.082 493.5,320.5C 493.5,321.167 493.167,321.5 492.5,321.5C 491.778,321.082 491.278,320.416 491,319.5C 490.04,332.325 489.207,345.159 488.5,358C 488.267,361.459 489.101,364.626 491,367.5C 491.183,364.635 491.683,361.969 492.5,359.5C 493.069,363.329 492.402,366.663 490.5,369.5C 489.778,369.082 489.278,368.416 489,367.5C 487.994,380.327 487.161,393.161 486.5,406C 486.658,408.149 487.492,409.983 489,411.5C 489.181,408.305 489.681,405.305 490.5,402.5C 490.769,406.931 490.436,411.265 489.5,415.5C 483.965,404.629 475.965,395.962 465.5,389.5C 473.245,392.728 479.745,397.728 485,404.5C 486.271,390.184 486.604,375.851 486,361.5C 483.331,358 480.498,354.667 477.5,351.5C 481.067,353.557 484.234,356.223 487,359.5C 487.903,346 488.736,332.5 489.5,319C 489.518,316.558 488.851,314.392 487.5,312.5C 488.117,312.611 488.617,312.944 489,313.5C 490.056,298.817 490.723,284.151 491,269.5C 482.101,258.289 470.601,250.955 456.5,247.5C 454.805,262.484 454.471,277.484 455.5,292.5C 459.384,294.295 463.384,295.795 467.5,297C 470.239,298.026 472.572,299.526 474.5,301.5C 468.036,298.602 461.369,296.269 454.5,294.5C 454.5,296.833 454.5,299.167 454.5,301.5C 453.833,301.5 453.167,301.5 452.5,301.5C 452.777,298.552 452.444,295.719 451.5,293C 437.045,288.543 422.378,285.043 407.5,282.5C 405.898,288.727 405.231,295.06 405.5,301.5C 405.5,301.833 405.5,302.167 405.5,302.5C 405.5,310.167 405.5,317.833 405.5,325.5C 404.978,323.781 403.978,322.448 402.5,321.5C 402.5,321.167 402.5,320.833 402.5,320.5C 403.485,316.366 403.818,312.032 403.5,307.5C 404.461,305.735 404.795,303.735 404.5,301.5C 404.5,295.167 404.5,288.833 404.5,282.5C 395.372,280.994 386.372,280.661 377.5,281.5C 377.167,281.5 376.833,281.5 376.5,281.5C 376.443,280.391 376.11,279.391 375.5,278.5C 385.522,278.866 395.522,279.532 405.5,280.5C 405.5,272.5 405.5,264.5 405.5,256.5C 405.833,255.833 406.167,255.167 406.5,254.5C 406.5,248.167 406.5,241.833 406.5,235.5C 390.195,233.501 373.862,233.168 357.5,234.5C 359.265,233.539 361.265,233.205 363.5,233.5C 365.379,232.659 367.379,232.325 369.5,232.5C 372.237,232.599 374.904,232.265 377.5,231.5C 387.029,232.452 396.696,233.452 406.5,234.5C 406.5,232.167 406.5,229.833 406.5,227.5C 407.167,227.5 407.833,227.5 408.5,227.5C 408.5,229.833 408.5,232.167 408.5,234.5C 413.035,235.137 417.368,236.137 421.5,237.5C 432.557,238.598 443.223,241.264 453.5,245.5C 454.323,238.514 454.989,231.514 455.5,224.5C 455.415,222.667 454.748,221.334 453.5,220.5C 454.209,219.596 455.209,219.263 456.5,219.5C 456.5,228.5 456.5,237.5 456.5,246.5C 470.491,249.571 481.991,256.571 491,267.5C 492.111,252.834 492.778,238.167 493,223.5C 489.85,218.507 485.683,214.84 480.5,212.5C 481.29,211.599 482.29,210.932 483.5,210.5C 486.831,214 489.998,217.666 493,221.5C 493.206,215.116 493.706,208.783 494.5,202.5C 494.376,201.893 494.043,201.56 493.5,201.5C 493.833,200.5 494.5,199.833 495.5,199.5 Z"/></g>
<g><path style="opacity:0.361" fill="#e0e21a" d="M 421.5,237.5 C 432.363,240.613 443.363,243.613 454.5,246.5C 453.716,261.487 453.383,276.487 453.5,291.5C 438.17,286.634 422.504,283.301 406.5,281.5C 406.464,272.815 406.797,264.149 407.5,255.5C 409.92,255.292 412.253,255.626 414.5,256.5C 419.702,255.354 419.536,254.354 414,253.5C 411.901,254.287 409.734,254.62 407.5,254.5C 407.5,248.5 407.5,242.5 407.5,236.5C 412.141,237.127 416.807,237.46 421.5,237.5 Z"/></g>
<g><path style="opacity:0.361" fill="#e0e31a" d="M 487.5,312.5 C 484.587,307.202 480.253,303.536 474.5,301.5C 472.572,299.526 470.239,298.026 467.5,297C 463.384,295.795 459.384,294.295 455.5,292.5C 454.471,277.484 454.805,262.484 456.5,247.5C 470.601,250.955 482.101,258.289 491,269.5C 490.723,284.151 490.056,298.817 489,313.5C 488.617,312.944 488.117,312.611 487.5,312.5 Z"/></g>
<g><path style="opacity:0.488" fill="#9e9f44" d="M 350.5,235.5 C 351.919,234.549 353.585,234.216 355.5,234.5C 355.5,241.167 355.5,247.833 355.5,254.5C 354.833,254.5 354.167,254.5 353.5,254.5C 353.5,248.167 353.5,241.833 353.5,235.5C 352.5,235.5 351.5,235.5 350.5,235.5 Z"/></g>
<g><path style="opacity:0.316" fill="#e7ea1a" d="M 496.5,232.5 C 495.989,241.158 495.656,249.825 495.5,258.5C 494.833,263.167 494.167,267.833 493.5,272.5C 493.312,257.81 493.812,243.143 495,228.5C 495.21,230.058 495.71,231.391 496.5,232.5 Z"/></g>
<g><path style="opacity:1" fill="#eff8fd" d="M 262.5,275.5 C 252.833,275.5 243.167,275.5 233.5,275.5C 233.334,268.159 233.5,260.826 234,253.5C 234.065,248.982 234.731,244.649 236,240.5C 236.333,241.833 236.667,243.167 237,244.5C 237.333,244.167 237.667,243.833 238,243.5C 252.853,249.686 264.687,259.519 273.5,273C 277.167,273.333 280.833,273.667 284.5,274C 276.989,274.171 269.655,274.671 262.5,275.5 Z"/></g>
<g><path style="opacity:1" fill="#a6def6" d="M 116.5,386.5 C 111.447,388.26 106.114,388.927 100.5,388.5C 94.3543,377.612 88.8543,366.278 84,354.5C 77.5939,334.443 75.4272,313.61 77.5,292C 79.5721,278.985 83.4054,266.485 89,254.5C 89.3333,255.5 89.6667,256.5 90,257.5C 90.4983,254.183 90.665,250.85 90.5,247.5C 90.5,246.833 90.8333,246.5 91.5,246.5C 91.3347,250.182 91.5014,253.848 92,257.5C 92.4988,253.514 92.6655,249.514 92.5,245.5C 96.694,242.571 101.027,239.905 105.5,237.5C 110.818,235.431 116.318,232.764 122,229.5C 122.167,230 122.333,230.5 122.5,231C 112.681,243.973 104.681,257.973 98.5,273C 98.8333,273.333 99.1667,273.667 99.5,274C 97.6063,275.079 97.273,276.413 98.5,278C 97.0441,280.905 95.7107,283.905 94.5,287C 94.9574,287.414 95.2907,287.914 95.5,288.5C 89.0588,324.069 97.0588,356.069 119.5,384.5C 117.577,385.308 115.577,385.808 113.5,386C 114.448,386.483 115.448,386.649 116.5,386.5 Z"/></g>
<g><path style="opacity:1" fill="#eb8d29" d="M 407.5,255.5 C 407.5,255.167 407.5,254.833 407.5,254.5C 409.734,254.62 411.901,254.287 414,253.5C 419.536,254.354 419.702,255.354 414.5,256.5C 412.253,255.626 409.92,255.292 407.5,255.5 Z"/></g>
<g><path style="opacity:0.514" fill="#e4b624" d="M 351.5,254.5 C 352.167,254.5 352.833,254.5 353.5,254.5C 354.167,254.5 354.833,254.5 355.5,254.5C 372.5,254.5 389.5,254.5 406.5,254.5C 406.167,255.167 405.833,255.833 405.5,256.5C 388.466,255.848 371.8,256.515 355.5,258.5C 354.167,257.167 352.833,255.833 351.5,254.5 Z"/></g>
<g><path style="opacity:1" fill="#f3fafe" d="M 231.5,275.5 C 210.5,275.5 189.5,275.5 168.5,275.5C 168.34,264.146 168.674,252.813 169.5,241.5C 170.324,245.312 170.824,249.312 171,253.5C 175.023,249.934 179.523,247.1 184.5,245C 199.868,239.244 215.534,238.077 231.5,241.5C 232.684,248.143 232.684,259.476 231.5,275.5 Z"/></g>
<g><path style="opacity:0.361" fill="#e0e319" d="M 405.5,256.5 C 405.5,264.5 405.5,272.5 405.5,280.5C 395.522,279.532 385.522,278.866 375.5,278.5C 373.5,276.833 371.5,275.167 369.5,273.5C 366.188,268.188 361.855,263.855 356.5,260.5C 356.167,259.833 355.833,259.167 355.5,258.5C 371.8,256.515 388.466,255.848 405.5,256.5 Z"/></g>
<g><path style="opacity:1" fill="#8ed7f4" d="M 90.5,247.5 C 90.665,250.85 90.4983,254.183 90,257.5C 89.6667,256.5 89.3333,255.5 89,254.5C 83.4054,266.485 79.5721,278.985 77.5,292C 75.4272,313.61 77.5939,334.443 84,354.5C 88.8543,366.278 94.3543,377.612 100.5,388.5C 96.1004,390.104 91.4338,390.771 86.5,390.5C 69.8269,362.865 62.3269,331.865 64,297.5C 64.7061,287.76 66.5394,278.26 69.5,269C 69.3333,268.5 69.1667,268 69,267.5C 65.5706,271.439 61.7372,274.772 57.5,277.5C 67.2775,266.051 78.2775,256.051 90.5,247.5 Z"/></g>
<g><path style="opacity:1" fill="#8b9c84" d="M 343.5,249.5 C 346.149,251.14 348.816,252.807 351.5,254.5C 352.833,255.833 354.167,257.167 355.5,258.5C 355.833,259.167 356.167,259.833 356.5,260.5C 354.715,265.067 353.882,270.067 354,275.5C 353.667,269.833 353.333,264.167 353,258.5C 349.397,255.814 346.231,252.814 343.5,249.5 Z"/></g>
<g><path style="opacity:1" fill="#7d7c56" d="M 356.5,260.5 C 361.855,263.855 366.188,268.188 369.5,273.5C 364.785,269.452 360.452,265.119 356.5,260.5 Z"/></g>
<g><path style="opacity:0.58" fill="#afb024" d="M 495.5,258.5 C 495.72,265.543 495.386,272.543 494.5,279.5C 493.549,278.081 493.216,276.415 493.5,274.5C 493.5,273.833 493.5,273.167 493.5,272.5C 494.167,267.833 494.833,263.167 495.5,258.5 Z"/></g>
<g><path style="opacity:1" fill="#76d1f3" d="M 86.5,390.5 C 82.7329,391.795 78.7329,392.461 74.5,392.5C 72.076,386.603 68.9093,379.936 65,372.5C 53.6607,344.111 49.994,314.778 54,284.5C 53,285.5 52,286.5 51,287.5C 50.6012,287.272 50.4346,286.938 50.5,286.5C 52.4512,283.214 54.7846,280.214 57.5,277.5C 61.7372,274.772 65.5706,271.439 69,267.5C 69.1667,268 69.3333,268.5 69.5,269C 66.5394,278.26 64.7061,287.76 64,297.5C 62.3269,331.865 69.8269,362.865 86.5,390.5 Z"/></g>
<g><path style="opacity:1" fill="#fbfdfe" d="M 246.5,277.5 C 251.511,277.334 256.511,277.501 261.5,278C 259.167,278.333 256.833,278.667 254.5,279C 264.119,291.247 267.452,305.08 264.5,320.5C 267.385,320.194 270.052,320.527 272.5,321.5C 269.833,321.5 267.167,321.5 264.5,321.5C 253.5,321.5 242.5,321.5 231.5,321.5C 232.378,307.175 232.544,292.841 232,278.5C 230.649,293.13 230.149,307.797 230.5,322.5C 209.167,322.5 187.833,322.5 166.5,322.5C 167.013,307.505 167.346,292.505 167.5,277.5C 193.833,277.5 220.167,277.5 246.5,277.5 Z"/></g>
<g><path style="opacity:1" fill="#eaf6fc" d="M 246.5,277.5 C 262.325,276.504 278.325,276.17 294.5,276.5C 293.976,283.323 294.309,287.323 295.5,288.5C 296.67,290.65 297.67,292.984 298.5,295.5C 298.291,296.086 297.957,296.586 297.5,297C 298.289,299.267 298.956,301.6 299.5,304C 298.847,309.535 298.513,315.035 298.5,320.5C 301.187,320.336 303.854,320.503 306.5,321C 302.514,321.499 298.514,321.666 294.5,321.5C 287.167,321.5 279.833,321.5 272.5,321.5C 270.052,320.527 267.385,320.194 264.5,320.5C 267.452,305.08 264.119,291.247 254.5,279C 256.833,278.667 259.167,278.333 261.5,278C 256.511,277.501 251.511,277.334 246.5,277.5 Z"/></g>
<g><path style="opacity:1" fill="#c8eaf9" d="M 330.5,278.5 C 330.197,293.673 329.53,308.673 328.5,323.5C 317,323.07 305.666,322.403 294.5,321.5C 298.514,321.666 302.514,321.499 306.5,321C 303.854,320.503 301.187,320.336 298.5,320.5C 298.513,315.035 298.847,309.535 299.5,304C 298.956,301.6 298.289,299.267 297.5,297C 297.957,296.586 298.291,296.086 298.5,295.5C 297.67,292.984 296.67,290.65 295.5,288.5C 295.5,284.833 295.5,281.167 295.5,277.5C 307.174,277.612 318.841,277.945 330.5,278.5 Z"/></g>
<g><path style="opacity:1" fill="#9ad0b0" d="M 362.5,279.5 C 367.467,278.962 372.134,279.629 376.5,281.5C 376.833,281.5 377.167,281.5 377.5,281.5C 382.25,287.577 386.583,293.91 390.5,300.5C 393.775,307.097 397.442,313.43 401.5,319.5C 402.167,319.5 402.5,319.833 402.5,320.5C 402.5,320.833 402.5,321.167 402.5,321.5C 402.971,323.579 403.637,325.579 404.5,327.5C 390.881,325.893 377.215,324.893 363.5,324.5C 365.103,310.2 364.436,296.033 361.5,282C 362.252,281.329 362.586,280.496 362.5,279.5 Z"/></g>
<g><path style="opacity:0.361" fill="#e0e319" d="M 404.5,301.5 C 400.5,301.5 396.5,301.5 392.5,301.5C 391.833,301.167 391.167,300.833 390.5,300.5C 386.583,293.91 382.25,287.577 377.5,281.5C 386.372,280.661 395.372,280.994 404.5,282.5C 404.5,288.833 404.5,295.167 404.5,301.5 Z"/></g>
<g><path style="opacity:0.361" fill="#e0e21a" d="M 452.5,301.5 C 436.833,301.5 421.167,301.5 405.5,301.5C 405.231,295.06 405.898,288.727 407.5,282.5C 422.378,285.043 437.045,288.543 451.5,293C 452.444,295.719 452.777,298.552 452.5,301.5 Z"/></g>
<g><path style="opacity:1" fill="#afd9b1" d="M 362.5,279.5 C 362.586,280.496 362.252,281.329 361.5,282C 364.436,296.033 365.103,310.2 363.5,324.5C 359.833,324.5 356.167,324.5 352.5,324.5C 353.257,309.512 353.591,294.512 353.5,279.5C 356.5,279.5 359.5,279.5 362.5,279.5 Z"/></g>
<g><path style="opacity:1" fill="#5acaf0" d="M 74.5,392.5 C 57.6995,395.511 41.0328,399.678 24.5,405C 17.7872,407.103 11.9539,410.603 7,415.5C 6.50098,411.179 6.33432,406.846 6.5,402.5C 8.94122,358.992 23.6079,320.325 50.5,286.5C 50.4346,286.938 50.6012,287.272 51,287.5C 52,286.5 53,285.5 54,284.5C 49.994,314.778 53.6607,344.111 65,372.5C 68.9093,379.936 72.076,386.603 74.5,392.5 Z"/></g>
<g><path style="opacity:0.361" fill="#e0e31a" d="M 474.5,301.5 C 478.979,304.919 483.312,308.586 487.5,312.5C 488.851,314.392 489.518,316.558 489.5,319C 488.736,332.5 487.903,346 487,359.5C 484.234,356.223 481.067,353.557 477.5,351.5C 476.198,349.178 474.198,347.845 471.5,347.5C 465.831,343.506 459.498,340.839 452.5,339.5C 453.179,327.178 453.513,314.845 453.5,302.5C 455.451,302.227 456.951,302.893 458,304.5C 459.648,303.283 461.481,302.45 463.5,302C 460.512,300.48 457.512,300.314 454.5,301.5C 454.5,299.167 454.5,296.833 454.5,294.5C 461.369,296.269 468.036,298.602 474.5,301.5 Z"/></g>
<g><path style="opacity:1" fill="#cecfcd" d="M 264.5,321.5 C 253.346,322.495 242.012,322.828 230.5,322.5C 230.149,307.797 230.649,293.13 232,278.5C 232.544,292.841 232.378,307.175 231.5,321.5C 242.5,321.5 253.5,321.5 264.5,321.5 Z"/></g>
<g><path style="opacity:1" fill="#777c61" d="M 390.5,300.5 C 391.167,300.833 391.833,301.167 392.5,301.5C 392.328,302.492 392.662,303.158 393.5,303.5C 396.692,308.55 399.358,313.883 401.5,319.5C 397.442,313.43 393.775,307.097 390.5,300.5 Z"/></g>
<g><path style="opacity:0.922" fill="#ea8e29" d="M 453.5,302.5 C 453.167,302.5 452.833,302.5 452.5,302.5C 436.833,302.5 421.167,302.5 405.5,302.5C 405.5,302.167 405.5,301.833 405.5,301.5C 421.167,301.5 436.833,301.5 452.5,301.5C 453.167,301.5 453.833,301.5 454.5,301.5C 457.512,300.314 460.512,300.48 463.5,302C 461.481,302.45 459.648,303.283 458,304.5C 456.951,302.893 455.451,302.227 453.5,302.5 Z"/></g>
<g><path style="opacity:0.502" fill="#e2b724" d="M 392.5,301.5 C 396.5,301.5 400.5,301.5 404.5,301.5C 404.795,303.735 404.461,305.735 403.5,307.5C 403.5,306.167 403.5,304.833 403.5,303.5C 400.167,303.5 396.833,303.5 393.5,303.5C 392.662,303.158 392.328,302.492 392.5,301.5 Z"/></g>
<g><path style="opacity:0.718" fill="#7b783e" d="M 474.5,301.5 C 480.253,303.536 484.587,307.202 487.5,312.5C 483.312,308.586 478.979,304.919 474.5,301.5 Z"/></g>
<g><path style="opacity:0.362" fill="#e1e419" d="M 393.5,303.5 C 396.833,303.5 400.167,303.5 403.5,303.5C 403.5,304.833 403.5,306.167 403.5,307.5C 403.818,312.032 403.485,316.366 402.5,320.5C 402.5,319.833 402.167,319.5 401.5,319.5C 399.358,313.883 396.692,308.55 393.5,303.5 Z"/></g>
<g><path style="opacity:0.361" fill="#e0e21a" d="M 405.5,302.5 C 421.167,302.5 436.833,302.5 452.5,302.5C 452.257,314.522 451.59,326.522 450.5,338.5C 437.474,333.91 424.141,330.577 410.5,328.5C 407.715,329.084 406.048,328.084 405.5,325.5C 405.5,317.833 405.5,310.167 405.5,302.5 Z"/></g>
<g><path style="opacity:0.324" fill="#e6e917" d="M 493.5,274.5 C 493.216,276.415 493.549,278.081 494.5,279.5C 494.257,293.169 493.924,306.836 493.5,320.5C 492.778,320.082 492.278,319.416 492,318.5C 491.303,303.641 491.803,288.975 493.5,274.5 Z"/></g>
<g><path style="opacity:1" fill="#acb09c" d="M 168.5,211.5 C 169.167,211.5 169.833,211.5 170.5,211.5C 170.034,217.491 169.701,223.491 169.5,229.5C 190.833,229.5 212.167,229.5 233.5,229.5C 258.972,228.602 284.305,228.268 309.5,228.5C 310.167,228.833 310.833,229.167 311.5,229.5C 311.5,229.833 311.5,230.167 311.5,230.5C 307.167,230.5 302.833,230.5 298.5,230.5C 283.833,230.5 269.167,230.5 254.5,230.5C 226.167,230.5 197.833,230.5 169.5,230.5C 169.5,234.167 169.5,237.833 169.5,241.5C 168.674,252.813 168.34,264.146 168.5,275.5C 189.5,275.5 210.5,275.5 231.5,275.5C 232.167,275.5 232.833,275.5 233.5,275.5C 243.167,275.5 252.833,275.5 262.5,275.5C 273.167,275.5 283.833,275.5 294.5,275.5C 304.509,275.612 314.509,275.945 324.5,276.5C 326.5,276.5 328.5,276.5 330.5,276.5C 330.5,277.167 330.5,277.833 330.5,278.5C 318.841,277.945 307.174,277.612 295.5,277.5C 295.5,281.167 295.5,284.833 295.5,288.5C 294.309,287.323 293.976,283.323 294.5,276.5C 278.325,276.17 262.325,276.504 246.5,277.5C 220.167,277.5 193.833,277.5 167.5,277.5C 167.346,292.505 167.013,307.505 166.5,322.5C 187.833,322.5 209.167,322.5 230.5,322.5C 242.012,322.828 253.346,322.495 264.5,321.5C 267.167,321.5 269.833,321.5 272.5,321.5C 279.833,321.5 287.167,321.5 294.5,321.5C 305.666,322.403 317,323.07 328.5,323.5C 328.5,323.833 328.5,324.167 328.5,324.5C 324.5,324.5 320.5,324.5 316.5,324.5C 308.521,323.776 300.521,323.442 292.5,323.5C 272.167,323.5 251.833,323.5 231.5,323.5C 230.833,323.5 230.167,323.5 229.5,323.5C 208.497,323.333 187.497,323.5 166.5,324C 165.824,336.803 165.158,349.637 164.5,362.5C 185.805,362.705 207.138,362.705 228.5,362.5C 229.167,362.5 229.833,362.5 230.5,362.5C 232.833,362.5 235.167,362.5 237.5,362.5C 244.167,362.5 250.833,362.5 257.5,362.5C 271.5,362.5 285.5,362.5 299.5,362.5C 308.626,363.988 317.959,364.655 327.5,364.5C 327.5,365.167 327.5,365.833 327.5,366.5C 321.828,366.24 316.161,365.907 310.5,365.5C 298.162,364.911 285.828,364.245 273.5,363.5C 236.836,364.038 200.169,364.372 163.5,364.5C 164.787,319.499 166.121,274.499 167.5,229.5C 168.49,223.69 168.823,217.69 168.5,211.5 Z"/></g>
<g><path style="opacity:1" fill="#f7fcfe" d="M 231.5,323.5 C 251.833,323.5 272.167,323.5 292.5,323.5C 292.5,323.833 292.5,324.167 292.5,324.5C 282.461,324.242 272.461,324.576 262.5,325.5C 259.273,336.78 252.939,345.946 243.5,353C 239.5,355.333 235.5,357.667 231.5,360C 233.611,360.845 235.611,361.678 237.5,362.5C 235.167,362.5 232.833,362.5 230.5,362.5C 230.54,349.491 230.874,336.491 231.5,323.5 Z"/></g>
<g><path style="opacity:1" fill="#95ab88" d="M 331.5,241.5 C 332.396,242.506 333.062,242.506 333.5,241.5C 335.909,242.701 337.909,244.367 339.5,246.5C 337.574,245.758 335.741,244.758 334,243.5C 332.715,254.46 332.215,265.46 332.5,276.5C 345.832,277.373 359.165,277.873 372.5,278C 370.859,276.871 369.859,275.371 369.5,273.5C 371.5,275.167 373.5,276.833 375.5,278.5C 376.11,279.391 376.443,280.391 376.5,281.5C 372.134,279.629 367.467,278.962 362.5,279.5C 359.5,279.5 356.5,279.5 353.5,279.5C 353.591,294.512 353.257,309.512 352.5,324.5C 356.167,324.5 359.833,324.5 363.5,324.5C 377.215,324.893 390.881,325.893 404.5,327.5C 404.833,328.167 405.167,328.833 405.5,329.5C 404.669,342.343 403.835,355.343 403,368.5C 402.453,355.158 402.619,341.824 403.5,328.5C 386.499,327.361 369.499,326.361 352.5,325.5C 351.81,339.156 351.477,352.822 351.5,366.5C 374.386,366.784 397.053,369.117 419.5,373.5C 419.5,372.167 419.5,370.833 419.5,369.5C 419.972,371.531 420.972,373.198 422.5,374.5C 422.167,375.167 421.833,375.833 421.5,376.5C 421.5,376.833 421.5,377.167 421.5,377.5C 418.9,375.587 415.9,374.42 412.5,374C 393.671,370.348 374.671,368.514 355.5,368.5C 346.688,367.311 337.688,366.645 328.5,366.5C 328.5,372.5 328.5,378.5 328.5,384.5C 327.833,384.5 327.5,384.167 327.5,383.5C 327.5,377.833 327.5,372.167 327.5,366.5C 327.5,365.833 327.5,365.167 327.5,364.5C 328.214,351.179 328.547,337.845 328.5,324.5C 328.5,324.167 328.5,323.833 328.5,323.5C 329.53,308.673 330.197,293.673 330.5,278.5C 330.5,277.833 330.5,277.167 330.5,276.5C 331.495,265.012 331.828,253.345 331.5,241.5 Z"/></g>
<g><path style="opacity:1" fill="#bedfb2" d="M 331.5,278.5 C 338.5,278.5 345.5,278.5 352.5,278.5C 351.743,293.488 351.409,308.488 351.5,323.5C 344.5,323.5 337.5,323.5 330.5,323.5C 330.7,308.496 331.033,293.496 331.5,278.5 Z"/></g>
<g><path style="opacity:1" fill="#ebf7fd" d="M 292.5,324.5 C 292.442,331.86 291.942,339.194 291,346.5C 290.667,341.833 290.333,337.167 290,332.5C 287.053,342.687 282.219,351.853 275.5,360C 277.167,360.333 278.833,360.667 280.5,361C 272.656,361.171 264.989,361.671 257.5,362.5C 250.833,362.5 244.167,362.5 237.5,362.5C 235.611,361.678 233.611,360.845 231.5,360C 235.5,357.667 239.5,355.333 243.5,353C 252.939,345.946 259.273,336.78 262.5,325.5C 272.461,324.576 282.461,324.242 292.5,324.5 Z"/></g>
<g><path style="opacity:1" fill="#f7fbfd" d="M 229.5,323.5 C 229.072,336.497 228.738,349.497 228.5,362.5C 207.138,362.705 185.805,362.705 164.5,362.5C 165.158,349.637 165.824,336.803 166.5,324C 187.497,323.5 208.497,323.333 229.5,323.5 Z"/></g>
<g><path style="opacity:1" fill="#c7eafa" d="M 316.5,324.5 C 320.5,324.5 324.5,324.5 328.5,324.5C 328.547,337.845 328.214,351.179 327.5,364.5C 317.959,364.655 308.626,363.988 299.5,362.5C 298.081,361.549 296.415,361.216 294.5,361.5C 294.011,356.155 295.511,351.489 299,347.5C 301.757,340.302 303.59,333.135 304.5,326C 308.688,325.824 312.688,325.324 316.5,324.5 Z"/></g>
<g><path style="opacity:1" fill="#bddfb3" d="M 330.5,325.5 C 337.167,325.5 343.833,325.5 350.5,325.5C 350.547,338.845 350.214,352.179 349.5,365.5C 342.833,365.5 336.167,365.5 329.5,365.5C 329.361,352.15 329.694,338.817 330.5,325.5 Z"/></g>
<g><path style="opacity:1" fill="#9bd3b2" d="M 405.5,329.5 C 410.628,341.217 414.961,353.217 418.5,365.5C 418.833,365.5 419.167,365.5 419.5,365.5C 419.5,366.833 419.5,368.167 419.5,369.5C 419.5,370.833 419.5,372.167 419.5,373.5C 397.053,369.117 374.386,366.784 351.5,366.5C 351.477,352.822 351.81,339.156 352.5,325.5C 369.499,326.361 386.499,327.361 403.5,328.5C 402.619,341.824 402.453,355.158 403,368.5C 403.835,355.343 404.669,342.343 405.5,329.5 Z"/></g>
<g><path style="opacity:0.361" fill="#e0e319" d="M 409.5,329.5 C 423.239,332.053 436.906,335.386 450.5,339.5C 450.5,346.833 450.5,354.167 450.5,361.5C 439.833,361.5 429.167,361.5 418.5,361.5C 415.699,350.89 412.033,340.557 407.5,330.5C 407.957,329.702 408.624,329.369 409.5,329.5 Z"/></g>
<g><path style="opacity:1" fill="#d5eaf4" d="M 292.5,323.5 C 300.521,323.442 308.521,323.776 316.5,324.5C 312.688,325.324 308.688,325.824 304.5,326C 303.59,333.135 301.757,340.302 299,347.5C 295.511,351.489 294.011,356.155 294.5,361.5C 296.415,361.216 298.081,361.549 299.5,362.5C 285.5,362.5 271.5,362.5 257.5,362.5C 264.989,361.671 272.656,361.171 280.5,361C 278.833,360.667 277.167,360.333 275.5,360C 282.219,351.853 287.053,342.687 290,332.5C 290.333,337.167 290.667,341.833 291,346.5C 291.942,339.194 292.442,331.86 292.5,324.5C 292.5,324.167 292.5,323.833 292.5,323.5 Z"/></g>
<g><path style="opacity:1" fill="#7c805d" d="M 402.5,321.5 C 403.978,322.448 404.978,323.781 405.5,325.5C 406.048,328.084 407.715,329.084 410.5,328.5C 410.5,329.167 410.167,329.5 409.5,329.5C 408.624,329.369 407.957,329.702 407.5,330.5C 412.033,340.557 415.699,350.89 418.5,361.5C 418.5,362.833 418.5,364.167 418.5,365.5C 414.961,353.217 410.628,341.217 405.5,329.5C 405.167,328.833 404.833,328.167 404.5,327.5C 403.637,325.579 402.971,323.579 402.5,321.5 Z"/></g>
<g><path style="opacity:0.718" fill="#8d8c44" d="M 452.5,302.5 C 452.833,302.5 453.167,302.5 453.5,302.5C 453.513,314.845 453.179,327.178 452.5,339.5C 459.498,340.839 465.831,343.506 471.5,347.5C 465.391,345.074 459.224,342.741 453,340.5C 452.423,347.5 451.923,354.5 451.5,361.5C 451.5,362.167 451.5,362.833 451.5,363.5C 450.833,386.167 450.167,386.167 449.5,363.5C 450.338,363.158 450.672,362.492 450.5,361.5C 450.5,354.167 450.5,346.833 450.5,339.5C 436.906,335.386 423.239,332.053 409.5,329.5C 410.167,329.5 410.5,329.167 410.5,328.5C 424.141,330.577 437.474,333.91 450.5,338.5C 451.59,326.522 452.257,314.522 452.5,302.5 Z"/></g>
<g><path style="opacity:0.346" fill="#dbde1d" d="M 492.5,321.5 C 492.5,334.167 492.5,346.833 492.5,359.5C 491.683,361.969 491.183,364.635 491,367.5C 489.101,364.626 488.267,361.459 488.5,358C 489.207,345.159 490.04,332.325 491,319.5C 491.278,320.416 491.778,321.082 492.5,321.5 Z"/></g>
<g><path style="opacity:0.733" fill="#78743f" d="M 471.5,347.5 C 474.198,347.845 476.198,349.178 477.5,351.5C 475.147,350.66 473.147,349.326 471.5,347.5 Z"/></g>
<g><path style="opacity:1" fill="#282b2c" d="M 142.5,349.5 C 144.924,349.192 147.257,349.526 149.5,350.5C 147.955,351.452 146.288,351.785 144.5,351.5C 144.5,352.833 144.5,354.167 144.5,355.5C 151.167,356.167 151.167,356.833 144.5,357.5C 144.5,358.833 144.5,360.167 144.5,361.5C 146.288,361.215 147.955,361.548 149.5,362.5C 147.257,363.474 144.924,363.808 142.5,363.5C 142.5,358.833 142.5,354.167 142.5,349.5 Z"/></g>
<g><path style="opacity:0.685" fill="#0a0b05" d="M 90.5,245.5 C 91.1667,245.5 91.5,245.833 91.5,246.5C 90.8333,246.5 90.5,246.833 90.5,247.5C 78.2775,256.051 67.2775,266.051 57.5,277.5C 54.7846,280.214 52.4512,283.214 50.5,286.5C 23.6079,320.325 8.94122,358.992 6.5,402.5C 5.8367,404.641 5.50337,406.975 5.5,409.5C 5.62052,412.441 6.28719,415.108 7.5,417.5C 6.12299,422.91 8.12299,426.743 13.5,429C 24.304,434.212 35.6373,437.712 47.5,439.5C 58.6854,441.935 70.0187,443.602 81.5,444.5C 87.4476,445.602 93.4476,446.269 99.5,446.5C 108.133,447.45 116.8,448.117 125.5,448.5C 128.833,448.5 132.167,448.5 135.5,448.5C 143.316,449.492 151.316,449.826 159.5,449.5C 162.167,449.5 164.833,449.5 167.5,449.5C 184.833,449.5 202.167,449.5 219.5,449.5C 234.187,449.201 248.853,448.535 263.5,447.5C 268.87,447.608 274.203,447.275 279.5,446.5C 285.87,446.16 292.204,445.494 298.5,444.5C 306.16,443.767 313.827,443.101 321.5,442.5C 323.099,442.232 324.432,442.566 325.5,443.5C 325.462,452.846 325.129,462.18 324.5,471.5C 328.481,470.979 332.481,470.646 336.5,470.5C 337.833,470.5 339.167,470.5 340.5,470.5C 335.337,471.672 330.003,472.672 324.5,473.5C 323.833,473.167 323.167,472.833 322.5,472.5C 323.361,463.137 323.861,453.804 324,444.5C 264.756,451.626 205.256,454.126 145.5,452C 106.001,451.35 67.0007,446.684 28.5,438C 19.5713,435.787 11.7379,431.62 5,425.5C 2.60381,350.633 31.1038,290.633 90.5,245.5 Z"/></g>
<g><path style="opacity:1" fill="#ced2d5" d="M 229.5,323.5 C 230.167,323.5 230.833,323.5 231.5,323.5C 230.874,336.491 230.54,349.491 230.5,362.5C 229.833,362.5 229.167,362.5 228.5,362.5C 228.738,349.497 229.072,336.497 229.5,323.5 Z"/></g>
<g><path style="opacity:0.769" fill="#e8a025" d="M 451.5,363.5 C 451.5,362.833 451.5,362.167 451.5,361.5C 460.221,361.804 468.888,361.471 477.5,360.5C 484.167,361.833 484.167,363.167 477.5,364.5C 468.888,363.529 460.221,363.196 451.5,363.5 Z"/></g>
<g><path style="opacity:0.361" fill="#e0e319" d="M 471.5,347.5 C 473.147,349.326 475.147,350.66 477.5,351.5C 480.498,354.667 483.331,358 486,361.5C 486.604,375.851 486.271,390.184 485,404.5C 479.745,397.728 473.245,392.728 465.5,389.5C 462.537,387.214 459.204,385.381 455.5,384C 444.613,380.314 433.613,377.147 422.5,374.5C 420.972,373.198 419.972,371.531 419.5,369.5C 419.5,368.167 419.5,366.833 419.5,365.5C 429.111,363.526 439.111,362.859 449.5,363.5C 450.167,386.167 450.833,386.167 451.5,363.5C 460.221,363.196 468.888,363.529 477.5,364.5C 484.167,363.167 484.167,361.833 477.5,360.5C 468.888,361.471 460.221,361.804 451.5,361.5C 451.923,354.5 452.423,347.5 453,340.5C 459.224,342.741 465.391,345.074 471.5,347.5 Z"/></g>
<g><path style="opacity:0.792" fill="#e6a325" d="M 418.5,361.5 C 429.167,361.5 439.833,361.5 450.5,361.5C 450.672,362.492 450.338,363.158 449.5,363.5C 439.111,362.859 429.111,363.526 419.5,365.5C 419.167,365.5 418.833,365.5 418.5,365.5C 418.5,364.167 418.5,362.833 418.5,361.5 Z"/></g>
<g><path style="opacity:1" fill="#d1edfa" d="M 273.5,363.5 C 285.828,364.245 298.162,364.911 310.5,365.5C 307.695,366.319 304.695,366.819 301.5,367C 298.395,371.225 295.061,375.225 291.5,379C 295.906,380.041 300.239,380.874 304.5,381.5C 298.833,381.5 293.167,381.5 287.5,381.5C 280.978,381.823 274.645,381.49 268.5,380.5C 264.018,379.674 259.351,379.174 254.5,379C 261.351,374.271 267.685,369.105 273.5,363.5 Z"/></g>
<g><path style="opacity:1" fill="#b2e2f7" d="M 310.5,365.5 C 316.161,365.907 321.828,366.24 327.5,366.5C 327.5,372.167 327.5,377.833 327.5,383.5C 323.5,383.5 319.5,383.5 315.5,383.5C 312.054,382.313 308.387,381.646 304.5,381.5C 300.239,380.874 295.906,380.041 291.5,379C 295.061,375.225 298.395,371.225 301.5,367C 304.695,366.819 307.695,366.319 310.5,365.5 Z"/></g>
<g><path style="opacity:1" fill="#b1dab1" d="M 355.5,368.5 C 354.5,368.5 353.5,368.5 352.5,368.5C 350.718,374.066 348.384,379.399 345.5,384.5C 347.631,385.169 349.631,385.835 351.5,386.5C 343.826,385.916 336.159,385.249 328.5,384.5C 328.5,378.5 328.5,372.5 328.5,366.5C 337.688,366.645 346.688,367.311 355.5,368.5 Z"/></g>
<g><path style="opacity:1" fill="#98d1b1" d="M 355.5,368.5 C 374.671,368.514 393.671,370.348 412.5,374C 415.9,374.42 418.9,375.587 421.5,377.5C 422.663,387.14 423.163,396.807 423,406.5C 420.441,403.469 417.274,401.302 413.5,400C 393.377,393.142 372.71,388.642 351.5,386.5C 349.631,385.835 347.631,385.169 345.5,384.5C 348.384,379.399 350.718,374.066 352.5,368.5C 353.5,368.5 354.5,368.5 355.5,368.5 Z"/></g>
<g><path style="opacity:0.714" fill="#85833b" d="M 422.5,374.5 C 433.613,377.147 444.613,380.314 455.5,384C 459.204,385.381 462.537,387.214 465.5,389.5C 451.329,383.555 436.663,379.222 421.5,376.5C 421.833,375.833 422.167,375.167 422.5,374.5 Z"/></g>
<g><path style="opacity:0.361" fill="#dfe21a" d="M 421.5,377.5 C 421.5,377.167 421.5,376.833 421.5,376.5C 436.663,379.222 451.329,383.555 465.5,389.5C 475.965,395.962 483.965,404.629 489.5,415.5C 489.5,418.5 489.5,421.5 489.5,424.5C 486.135,433.367 480.135,439.867 471.5,444C 460.148,448.421 448.482,451.755 436.5,454C 403.07,459.724 369.736,465.224 336.5,470.5C 332.481,470.646 328.481,470.979 324.5,471.5C 325.129,462.18 325.462,452.846 325.5,443.5C 350.577,441.265 375.244,436.765 399.5,430C 408.648,427.178 416.814,422.678 424,416.5C 424.875,415.127 425.375,413.627 425.5,412C 425.004,400.263 423.67,388.763 421.5,377.5 Z"/></g>
<g><path style="opacity:1" fill="#1e211d" d="M 268.5,380.5 C 274.645,381.49 280.978,381.823 287.5,381.5C 296.664,382.428 305.997,383.095 315.5,383.5C 319.5,383.5 323.5,383.5 327.5,383.5C 327.5,384.167 327.833,384.5 328.5,384.5C 326.735,385.461 324.735,385.795 322.5,385.5C 319.5,385.5 316.5,385.5 313.5,385.5C 306.841,385.046 300.174,384.713 293.5,384.5C 282.538,383.568 271.538,383.235 260.5,383.5C 235.164,383.333 209.831,383.5 184.5,384C 179.316,384.174 174.316,384.674 169.5,385.5C 164.105,385.267 158.772,385.6 153.5,386.5C 148.968,386.182 144.634,386.515 140.5,387.5C 135.77,387.283 131.103,387.617 126.5,388.5C 118.772,389.113 111.106,390.113 103.5,391.5C 95.4381,392.062 87.4381,393.062 79.5,394.5C 66.4683,396.038 53.8016,398.705 41.5,402.5C 28.8836,404.808 17.5503,409.808 7.5,417.5C 6.28719,415.108 5.62052,412.441 5.5,409.5C 5.50337,406.975 5.8367,404.641 6.5,402.5C 6.33432,406.846 6.50098,411.179 7,415.5C 11.9539,410.603 17.7872,407.103 24.5,405C 41.0328,399.678 57.6995,395.511 74.5,392.5C 78.7329,392.461 82.7329,391.795 86.5,390.5C 91.4338,390.771 96.1004,390.104 100.5,388.5C 106.114,388.927 111.447,388.26 116.5,386.5C 120.371,386.815 124.038,386.482 127.5,385.5C 136.012,385.2 144.345,384.533 152.5,383.5C 156.702,383.817 160.702,383.483 164.5,382.5C 199.147,380.952 233.814,380.285 268.5,380.5 Z"/></g>
<g><path style="opacity:1" fill="#809ead" d="M 287.5,381.5 C 293.167,381.5 298.833,381.5 304.5,381.5C 308.387,381.646 312.054,382.313 315.5,383.5C 305.997,383.095 296.664,382.428 287.5,381.5 Z"/></g>
<g><path style="opacity:1" fill="#e9e722" d="M 260.5,383.5 C 258.833,384.167 257.167,384.833 255.5,385.5C 250.5,385.5 245.5,385.5 240.5,385.5C 240.855,405.833 241.188,426.166 241.5,446.5C 234.134,447.965 226.8,448.965 219.5,449.5C 202.167,449.5 184.833,449.5 167.5,449.5C 169.438,447.837 171.772,447.171 174.5,447.5C 174.304,427.164 173.971,406.831 173.5,386.5C 171.901,386.768 170.568,386.434 169.5,385.5C 174.316,384.674 179.316,384.174 184.5,384C 209.831,383.5 235.164,383.333 260.5,383.5 Z"/></g>
<g><path style="opacity:1" fill="#dee128" d="M 255.5,385.5 C 256.5,385.5 257.5,385.5 258.5,385.5C 259.139,405.505 259.806,425.505 260.5,445.5C 264.846,445.334 269.179,445.501 273.5,446C 269.975,446.179 266.641,446.679 263.5,447.5C 248.853,448.535 234.187,449.201 219.5,449.5C 226.8,448.965 234.134,447.965 241.5,446.5C 241.188,426.166 240.855,405.833 240.5,385.5C 245.5,385.5 250.5,385.5 255.5,385.5 Z"/></g>
<g><path style="opacity:1" fill="#d7df2d" d="M 260.5,383.5 C 271.538,383.235 282.538,383.568 293.5,384.5C 287.69,385.49 281.69,385.823 275.5,385.5C 275.394,405.177 275.728,424.843 276.5,444.5C 279.85,444.335 283.183,444.502 286.5,445C 283.964,445.186 281.631,445.686 279.5,446.5C 274.203,447.275 268.87,447.608 263.5,447.5C 266.641,446.679 269.975,446.179 273.5,446C 269.179,445.501 264.846,445.334 260.5,445.5C 259.806,425.505 259.139,405.505 258.5,385.5C 257.5,385.5 256.5,385.5 255.5,385.5C 257.167,384.833 258.833,384.167 260.5,383.5 Z"/></g>
<g><path style="opacity:1" fill="#ccdc32" d="M 293.5,384.5 C 300.174,384.713 306.841,385.046 313.5,385.5C 308.025,386.489 302.358,386.822 296.5,386.5C 296.306,405.923 296.973,425.257 298.5,444.5C 292.204,445.494 285.87,446.16 279.5,446.5C 281.631,445.686 283.964,445.186 286.5,445C 283.183,444.502 279.85,444.335 276.5,444.5C 275.728,424.843 275.394,405.177 275.5,385.5C 281.69,385.823 287.69,385.49 293.5,384.5 Z"/></g>
<g><path style="opacity:1" fill="#707156" d="M 421.5,377.5 C 423.67,388.763 425.004,400.263 425.5,412C 425.375,413.627 424.875,415.127 424,416.5C 416.814,422.678 408.648,427.178 399.5,430C 375.244,436.765 350.577,441.265 325.5,443.5C 324.432,442.566 323.099,442.232 321.5,442.5C 322.209,441.596 323.209,441.263 324.5,441.5C 325.167,441.5 325.833,441.5 326.5,441.5C 337.912,440.351 349.245,438.684 360.5,436.5C 371.077,434.602 381.411,432.269 391.5,429.5C 433.978,417.653 433.978,406.32 391.5,395.5C 382.265,393.465 372.932,391.799 363.5,390.5C 349.715,388.645 336.049,386.978 322.5,385.5C 324.735,385.795 326.735,385.461 328.5,384.5C 336.159,385.249 343.826,385.916 351.5,386.5C 372.71,388.642 393.377,393.142 413.5,400C 417.274,401.302 420.441,403.469 423,406.5C 423.163,396.807 422.663,387.14 421.5,377.5 Z"/></g>
<g><path style="opacity:1" fill="#bdd636" d="M 313.5,385.5 C 316.5,385.5 319.5,385.5 322.5,385.5C 336.049,386.978 349.715,388.645 363.5,390.5C 359.002,391.375 354.335,391.375 349.5,390.5C 350.264,405.821 350.598,421.154 350.5,436.5C 353.999,435.556 357.332,435.556 360.5,436.5C 349.245,438.684 337.912,440.351 326.5,441.5C 327.133,423.501 327.3,405.501 327,387.5C 325.811,405.484 324.978,423.484 324.5,441.5C 323.209,441.263 322.209,441.596 321.5,442.5C 313.827,443.101 306.16,443.767 298.5,444.5C 296.973,425.257 296.306,405.923 296.5,386.5C 302.358,386.822 308.025,386.489 313.5,385.5 Z"/></g>
<g><path style="opacity:1" fill="#d9dc2a" d="M 169.5,385.5 C 170.568,386.434 171.901,386.768 173.5,386.5C 173.971,406.831 174.304,427.164 174.5,447.5C 171.772,447.171 169.438,447.837 167.5,449.5C 164.833,449.5 162.167,449.5 159.5,449.5C 152.679,448.671 145.679,448.171 138.5,448C 145.826,447.5 153.159,447.334 160.5,447.5C 159.748,427.843 159.415,408.176 159.5,388.5C 157.214,388.405 155.214,387.738 153.5,386.5C 158.772,385.6 164.105,385.267 169.5,385.5 Z"/></g>
<g><path style="opacity:1" fill="#cad22e" d="M 153.5,386.5 C 155.214,387.738 157.214,388.405 159.5,388.5C 159.415,408.176 159.748,427.843 160.5,447.5C 153.159,447.334 145.826,447.5 138.5,448C 145.679,448.171 152.679,448.671 159.5,449.5C 151.316,449.826 143.316,449.492 135.5,448.5C 135.389,447.883 135.056,447.383 134.5,447C 136.81,446.503 139.143,446.337 141.5,446.5C 141.274,427.498 140.941,408.498 140.5,389.5C 141.873,389.657 143.207,389.49 144.5,389C 142.942,388.79 141.609,388.29 140.5,387.5C 144.634,386.515 148.968,386.182 153.5,386.5 Z"/></g>
<g><path style="opacity:0.346" fill="#e4e71b" d="M 490.5,369.5 C 490.627,380.392 490.627,391.392 490.5,402.5C 489.681,405.305 489.181,408.305 489,411.5C 487.492,409.983 486.658,408.149 486.5,406C 487.161,393.161 487.994,380.327 489,367.5C 489.278,368.416 489.778,369.082 490.5,369.5 Z"/></g>
<g><path style="opacity:1" fill="#bdcb32" d="M 140.5,387.5 C 141.609,388.29 142.942,388.79 144.5,389C 143.207,389.49 141.873,389.657 140.5,389.5C 140.941,408.498 141.274,427.498 141.5,446.5C 139.143,446.337 136.81,446.503 134.5,447C 135.056,447.383 135.389,447.883 135.5,448.5C 132.167,448.5 128.833,448.5 125.5,448.5C 123.427,447.862 121.427,446.862 119.5,445.5C 117.863,427.54 117.196,409.54 117.5,391.5C 120.69,390.819 123.69,389.819 126.5,388.5C 131.103,387.617 135.77,387.283 140.5,387.5 Z"/></g>
<g><path style="opacity:1" fill="#aec133" d="M 126.5,388.5 C 123.69,389.819 120.69,390.819 117.5,391.5C 117.196,409.54 117.863,427.54 119.5,445.5C 121.427,446.862 123.427,447.862 125.5,448.5C 116.8,448.117 108.133,447.45 99.5,446.5C 97.7078,445.691 95.7078,445.191 93.5,445C 96.146,444.503 98.8127,444.336 101.5,444.5C 100.224,427.515 100.224,410.515 101.5,393.5C 102.522,393.145 103.189,392.478 103.5,391.5C 111.106,390.113 118.772,389.113 126.5,388.5 Z"/></g>
<g><path style="opacity:1" fill="#aacf39" d="M 363.5,390.5 C 372.932,391.799 382.265,393.465 391.5,395.5C 390.214,400.924 389.548,406.59 389.5,412.5C 389.548,418.41 390.214,424.076 391.5,429.5C 381.411,432.269 371.077,434.602 360.5,436.5C 357.332,435.556 353.999,435.556 350.5,436.5C 350.598,421.154 350.264,405.821 349.5,390.5C 354.335,391.375 359.002,391.375 363.5,390.5 Z"/></g>
<g><path style="opacity:1" fill="#a0ba37" d="M 103.5,391.5 C 103.189,392.478 102.522,393.145 101.5,393.5C 100.224,410.515 100.224,427.515 101.5,444.5C 98.8127,444.336 96.146,444.503 93.5,445C 95.7078,445.191 97.7078,445.691 99.5,446.5C 93.4476,446.269 87.4476,445.602 81.5,444.5C 79.369,443.686 77.0356,443.186 74.5,443C 75.325,427.908 75.825,412.741 76,397.5C 76.985,396.186 78.1516,395.186 79.5,394.5C 87.4381,393.062 95.4381,392.062 103.5,391.5 Z"/></g>
<g><path style="opacity:1" fill="#93c83e" d="M 391.5,395.5 C 433.978,406.32 433.978,417.653 391.5,429.5C 390.214,424.076 389.548,418.41 389.5,412.5C 389.548,406.59 390.214,400.924 391.5,395.5 Z"/></g>
<g><path style="opacity:1" fill="#8cad38" d="M 79.5,394.5 C 78.1516,395.186 76.985,396.186 76,397.5C 75.825,412.741 75.325,427.908 74.5,443C 77.0356,443.186 79.369,443.686 81.5,444.5C 70.0187,443.602 58.6854,441.935 47.5,439.5C 43.2322,438.193 41.3988,435.193 42,430.5C 41.5002,421.173 41.3335,411.839 41.5,402.5C 53.8016,398.705 66.4683,396.038 79.5,394.5 Z"/></g>
<g><path style="opacity:1" fill="#6f6f5b" d="M 442.5,395.5 C 449.167,396.167 449.167,396.833 442.5,397.5C 442.238,398.978 442.571,400.311 443.5,401.5C 448.36,402.778 449.36,405.278 446.5,409C 444.421,409.808 442.421,409.641 440.5,408.5C 441.909,408.346 443.576,408.179 445.5,408C 446.022,407.439 446.355,406.772 446.5,406C 445.225,403.929 443.391,402.429 441,401.5C 440.252,399.16 440.752,397.16 442.5,395.5 Z"/></g>
<g><path style="opacity:1" fill="#79a339" d="M 41.5,402.5 C 41.3335,411.839 41.5002,421.173 42,430.5C 41.3988,435.193 43.2322,438.193 47.5,439.5C 35.6373,437.712 24.304,434.212 13.5,429C 8.12299,426.743 6.12299,422.91 7.5,417.5C 17.5503,409.808 28.8836,404.808 41.5,402.5 Z"/></g>
<g><path style="opacity:1" fill="#9bac24" d="M 326.5,441.5 C 325.833,441.5 325.167,441.5 324.5,441.5C 324.978,423.484 325.811,405.484 327,387.5C 327.3,405.501 327.133,423.501 326.5,441.5 Z"/></g>
<g><path style="opacity:0.168" fill="#171605" d="M 491.5,418.5 C 491.698,427.604 488.031,434.771 480.5,440C 476.159,443.172 471.492,445.839 466.5,448C 424.994,458.268 382.994,465.768 340.5,470.5C 339.167,470.5 337.833,470.5 336.5,470.5C 369.736,465.224 403.07,459.724 436.5,454C 448.482,451.755 460.148,448.421 471.5,444C 480.135,439.867 486.135,433.367 489.5,424.5C 490.167,422.5 490.833,420.5 491.5,418.5 Z"/></g>
<g><path style="opacity:0.599" fill="#000000" d="M 298.5,470.5 C 299.721,471.028 300.887,471.695 302,472.5C 302.667,475.167 303.333,477.833 304,480.5C 304.667,477.833 305.333,475.167 306,472.5C 307.011,471.663 308.178,471.33 309.5,471.5C 309.998,474.487 310.498,477.487 311,480.5C 311.834,477.828 312.668,475.161 313.5,472.5C 314.5,471.167 315.5,471.167 316.5,472.5C 315.024,476.404 313.857,480.404 313,484.5C 312.29,485.973 311.124,486.64 309.5,486.5C 308.167,475.833 306.833,475.833 305.5,486.5C 303.876,486.64 302.71,485.973 302,484.5C 300.829,479.814 299.662,475.148 298.5,470.5 Z"/></g>
</svg>
