<?xml version="1.0" encoding="UTF-8" standalone="no"?>
<svg
   width="111.1408mm"
   height="72.065887mm"
   viewBox="0 0 111.1408 72.065888"
   version="1.1"
   id="svg839"
   inkscape:version="1.2.1 (9c6d41e410, 2022-07-14)"
   sodipodi:docname="Figure8.26b.svg"
   xmlns:inkscape="http://www.inkscape.org/namespaces/inkscape"
   xmlns:sodipodi="http://sodipodi.sourceforge.net/DTD/sodipodi-0.dtd"
   xmlns="http://www.w3.org/2000/svg"
   xmlns:svg="http://www.w3.org/2000/svg"
   xmlns:rdf="http://www.w3.org/1999/02/22-rdf-syntax-ns#"
   xmlns:cc="http://creativecommons.org/ns#"
   xmlns:dc="http://purl.org/dc/elements/1.1/">
  <defs
     id="defs833">
    <clipPath
       id="clip0">
      <rect
         x="622"
         y="383"
         width="452"
         height="302"
         id="rect1402" />
    </clipPath>
    <clipPath
       id="clip0-5">
      <rect
         x="653"
         y="381"
         width="478"
         height="301"
         id="rect5767" />
    </clipPath>
    <clipPath
       id="clip0-4">
      <rect
         x="660"
         y="381"
         width="471"
         height="301"
         id="rect5871" />
    </clipPath>
    <clipPath
       id="clip0-58">
      <rect
         x="660"
         y="381"
         width="471"
         height="301"
         id="rect6075" />
    </clipPath>
  </defs>
  <sodipodi:namedview
     id="base"
     pagecolor="#ffffff"
     bordercolor="#666666"
     borderopacity="1.0"
     inkscape:pageopacity="0.0"
     inkscape:pageshadow="2"
     inkscape:zoom="2.7241853"
     inkscape:cx="209.97103"
     inkscape:cy="136.1875"
     inkscape:document-units="mm"
     inkscape:current-layer="layer1"
     inkscape:document-rotation="0"
     showgrid="false"
     fit-margin-top="0"
     fit-margin-left="0"
     fit-margin-right="0"
     fit-margin-bottom="0"
     inkscape:window-width="1680"
     inkscape:window-height="987"
     inkscape:window-x="-8"
     inkscape:window-y="-8"
     inkscape:window-maximized="1"
     inkscape:showpageshadow="2"
     inkscape:pagecheckerboard="0"
     inkscape:deskcolor="#d1d1d1" />
  <metadata
     id="metadata836">
    <rdf:RDF>
      <cc:Work
         rdf:about="">
        <dc:format>image/svg+xml</dc:format>
        <dc:type
           rdf:resource="http://purl.org/dc/dcmitype/StillImage" />
        <dc:title />
      </cc:Work>
    </rdf:RDF>
  </metadata>
  <g
     inkscape:label="Capa 1"
     inkscape:groupmode="layer"
     id="layer1"
     transform="translate(-185.82828,-330.46109)">
    <g
       clip-path="url(#clip0-58)"
       transform="matrix(0.26458333,0,0,0.26458333,6.5888742,225.99822)"
       id="g6140">
      <path
         d="m 719,633 c 36.692,-31.25 172.182,-188 220.488,-188 48.305,0 55.037,148.771 69.512,188"
         stroke="#000000"
         stroke-width="2"
         stroke-linejoin="round"
         stroke-miterlimit="10"
         stroke-dasharray="8, 6"
         fill="none"
         fill-rule="evenodd"
         id="path6080" />
      <path
         d="m 720,641.502 -0.971,-227.333 1,-0.005 0.971,227.334 z m -4.466,-225.985 3.966,-8.017 4.034,7.983 z"
         id="path6082" />
      <path
         d="m 712.5,634 h 378.33 v 1 H 712.5 Z m 377,-3.5 8,4 -8,4 z"
         id="path6084" />
      <text
         font-family="Arial, Arial_MSFontService, sans-serif"
         font-weight="400"
         font-size="24px"
         transform="translate(736.439,412)"
         id="text6092">I<tspan
   font-size="16px"
   x="6.6666899"
   y="5"
   id="tspan6086">G</tspan><tspan
   font-size="24px"
   x="19.1667"
   y="0"
   id="tspan6088">, P</tspan><tspan
   font-size="16px"
   x="48.5"
   y="5"
   id="tspan6090">G</tspan></text>
      <path
         d="M 719,464.636 C 755.582,468.609 889.606,460 937.662,488.145 985.718,516.289 993.367,603.703 1008,634"
         stroke="#000000"
         stroke-width="4"
         stroke-linejoin="round"
         stroke-miterlimit="10"
         fill="none"
         fill-rule="evenodd"
         id="path6094" />
      <text
         font-family="Arial, Arial_MSFontService, sans-serif"
         font-weight="400"
         font-size="24px"
         transform="translate(683.439,464)"
         id="text6102">I<tspan
   font-size="16px"
   x="6.6666899"
   y="5"
   id="tspan6096">SC</tspan><tspan
   font-size="24px"
   x="307.83301"
   y="198"
   id="tspan6098">V</tspan><tspan
   font-size="16px"
   x="323.83301"
   y="203"
   id="tspan6100">OC</tspan></text>
      <path
         d="m 939.5,445.5 v 189"
         stroke="#000000"
         stroke-linejoin="round"
         stroke-miterlimit="10"
         stroke-dasharray="4, 3"
         fill="none"
         fill-rule="evenodd"
         id="path6104" />
      <path
         d="M 0,0 220,1.04987e-4"
         stroke="#000000"
         stroke-linejoin="round"
         stroke-miterlimit="10"
         stroke-dasharray="4, 3"
         fill="none"
         fill-rule="evenodd"
         transform="matrix(-1,0,0,1,939.5,490.5)"
         id="path6106" />
      <text
         font-family="Arial, Arial_MSFontService, sans-serif"
         font-weight="400"
         font-size="24px"
         transform="translate(675.202,493)"
         id="text6120">I<tspan
   font-size="16px"
   x="6.6666899"
   y="5"
   id="tspan6108">MPP</tspan><tspan
   font-size="24px"
   x="238.07001"
   y="166"
   id="tspan6110">V</tspan><tspan
   font-size="16px"
   x="254.07001"
   y="171"
   id="tspan6112">MPP</tspan><tspan
   font-size="24px"
   x="38.491501"
   y="167"
   id="tspan6114">0</tspan><tspan
   font-size="24px"
   x="242.94501"
   y="-68"
   id="tspan6116">P</tspan><tspan
   font-size="16px"
   x="258.94501"
   y="-63"
   id="tspan6118">PV</tspan></text>
      <path
         d="m 935.5,445.5 c 0,-2.209 1.791,-4 4,-4 2.209,0 4,1.791 4,4 0,2.209 -1.791,4 -4,4 -2.209,0 -4,-1.791 -4,-4 z"
         stroke="#000000"
         stroke-width="1.33333"
         stroke-miterlimit="8"
         fill-rule="evenodd"
         id="path6122" />
      <path
         d="m 934.5,489.5 c 0,-2.209 1.791,-4 4,-4 2.209,0 4,1.791 4,4 0,2.209 -1.791,4 -4,4 -2.209,0 -4,-1.791 -4,-4 z"
         stroke="#000000"
         stroke-width="1.33333"
         stroke-miterlimit="8"
         fill-rule="evenodd"
         id="path6124" />
      <text
         font-family="Arial, Arial_MSFontService, sans-serif"
         font-weight="400"
         font-size="24px"
         transform="translate(1064.93,662)"
         id="text6128">V<tspan
   font-size="16px"
   x="16"
   y="5"
   id="tspan6126">G</tspan></text>
      <path
         d="M 0,0 313.484,206.252"
         stroke="#000000"
         stroke-width="2"
         stroke-miterlimit="8"
         fill="none"
         fill-rule="evenodd"
         transform="matrix(1,0,0,-1,719,634.252)"
         id="path6130" />
      <path
         d="m 993.5,460.5 h 40.16"
         stroke="#000000"
         stroke-width="0.666667"
         stroke-miterlimit="8"
         fill="none"
         fill-rule="evenodd"
         id="path6132" />
      <text
         font-family="Arial, Arial_MSFontService, sans-serif"
         font-weight="400"
         font-size="21px"
         transform="translate(1033.93,453)"
         id="text6136">1/R<tspan
   font-size="14px"
   x="33.166599"
   y="4"
   id="tspan6134">L</tspan></text>
      <path
         d="m 1021.81,441.375 0.72,0.265 2.56,1.791 2.29,2.295 1.85,2.802 1.4,3.176 0.89,3.491 0.31,3.777 -0.66,0.056 -0.31,-3.75 v 0.054 l -0.87,-3.437 0.02,0.052 -1.38,-3.125 0.03,0.049 -1.81,-2.75 0.04,0.052 -2.25,-2.25 0.04,0.038 -2.5,-1.75 0.08,0.039 -0.68,-0.249 z m -0.11,0.313 1.71,4.493 -6.91,-5.681 8.69,-2.118 z"
         id="path6138" />
    </g>
  </g>
</svg>
