<?xml version="1.0" encoding="UTF-8" standalone="no"?>
<svg
   xmlns:dc="http://purl.org/dc/elements/1.1/"
   xmlns:cc="http://creativecommons.org/ns#"
   xmlns:rdf="http://www.w3.org/1999/02/22-rdf-syntax-ns#"
   xmlns:svg="http://www.w3.org/2000/svg"
   xmlns="http://www.w3.org/2000/svg"
   xmlns:sodipodi="http://sodipodi.sourceforge.net/DTD/sodipodi-0.dtd"
   xmlns:inkscape="http://www.inkscape.org/namespaces/inkscape"
   width="249.60229mm"
   height="187.28508mm"
   viewBox="0 0 249.6023 187.28508"
   version="1.1"
   id="svg12241"
   inkscape:version="1.0.2-2 (e86c870879, 2021-01-15)"
   sodipodi:docname="Figure8.14b.svg">
  <defs
     id="defs12235">
    <clipPath
       id="clip0">
      <rect
         x="161"
         y="-26"
         width="1019"
         height="780"
         id="rect12804" />
    </clipPath>
    <clipPath
       id="clip0-5">
      <rect
         x="161"
         y="27"
         width="1021"
         height="726"
         id="rect5232" />
    </clipPath>
  </defs>
  <sodipodi:namedview
     id="base"
     pagecolor="#ffffff"
     bordercolor="#666666"
     borderopacity="1.0"
     inkscape:pageopacity="0.0"
     inkscape:pageshadow="2"
     inkscape:zoom="0.55048947"
     inkscape:cx="-34.699204"
     inkscape:cy="228.27594"
     inkscape:document-units="mm"
     inkscape:current-layer="layer1"
     inkscape:document-rotation="0"
     showgrid="false"
     fit-margin-top="0"
     fit-margin-left="0"
     fit-margin-right="0"
     fit-margin-bottom="0"
     inkscape:window-width="1920"
     inkscape:window-height="1017"
     inkscape:window-x="-8"
     inkscape:window-y="-8"
     inkscape:window-maximized="1"
     inkscape:showpageshadow="2"
     inkscape:pagecheckerboard="0"
     inkscape:deskcolor="#d1d1d1" />
  <metadata
     id="metadata12238">
    <rdf:RDF>
      <cc:Work
         rdf:about="">
        <dc:format>image/svg+xml</dc:format>
        <dc:type
           rdf:resource="http://purl.org/dc/dcmitype/StillImage" />
        <dc:title />
      </cc:Work>
    </rdf:RDF>
  </metadata>
  <g
     inkscape:label="Capa 1"
     inkscape:groupmode="layer"
     id="layer1"
     transform="translate(-699.54708,-515.84065)">
    <path
       d="m 713.87332,649.28331 h 1.05939 v 0.26432 h -1.05939 z m 1.85393,0 h 1.10332 v 0.26432 h -1.10332 z m 1.89786,0 h 1.05939 v 0.26432 h -1.05939 z m 1.85393,0 h 1.10332 v 0.26432 h -1.10332 z m 1.89786,0 h 1.05939 v 0.26432 h -1.05939 z m 1.85394,0 h 1.05939 v 0.26432 h -1.05939 z m 1.89785,0 h 1.05939 v 0.26432 h -1.05939 z m 1.85394,0 h 1.10331 v 0.26432 h -1.10331 z m 1.89785,0 h 1.0594 v 0.26432 h -1.0594 z m 1.85394,0 h 1.05939 v 0.26432 h -1.05939 z m 1.89786,0 h 1.05939 v 0.26432 h -1.05939 z m 1.85393,0 h 1.05939 v 0.26432 h -1.05939 z m 1.89786,0 h 1.05939 v 0.26432 h -1.05939 z m 1.85393,0 h 1.10358 v 0.26432 H 738.238 Z m 1.89786,0 h 1.05939 v 0.26432 h -1.05939 z m 1.85393,0 h 1.0594 v 0.26432 h -1.0594 z m 1.89786,0 h 1.05939 v 0.26432 h -1.05939 z m 1.85394,0 h 1.05939 v 0.26432 h -1.05939 z m 1.85393,0 h 1.10331 v 0.26432 h -1.10331 z m 1.89786,0 h 1.05939 v 0.26432 h -1.05939 z m 1.89812,0 h 1.05913 v 0.26432 h -1.05913 z m 1.85367,0 h 1.05939 v 0.26432 h -1.05939 z m 1.89812,0 h 1.05913 v 0.26432 h -1.05913 z m 1.85367,0 h 1.05939 v 0.26432 h -1.05939 z m 1.85394,0 h 1.10331 v 0.26432 h -1.10331 z m 1.89785,0 h 1.05939 v 0.26432 h -1.05939 z m 1.89812,0 h 1.05913 v 0.26432 h -1.05913 z m 1.85367,0 h 1.0594 v 0.26432 h -1.0594 z m 1.85394,0 h 1.10358 v 0.26432 h -1.10358 z m 1.89786,0 h 1.05939 v 0.26432 h -1.05939 z m 1.85393,0 h 1.10358 v 0.26432 h -1.10358 z m 1.89786,0 h 1.05939 v 0.26432 h -1.05939 z m 1.89812,0 h 1.05939 v 0.26432 h -1.05939 z m 1.85367,0 h 1.05939 v 0.26432 h -1.05939 z m 1.85393,0 h 1.10358 v 0.26432 h -1.10358 z m 1.89813,0 h 1.05912 v 0.26432 h -1.05912 z m 1.85367,0 h 1.10357 v 0.26432 h -1.10357 z m 1.89812,0 h 1.05912 v 0.26432 h -1.05912 z m 1.85367,0 h 1.10357 v 0.26432 h -1.10357 z m 1.89812,0 h 1.05913 v 0.26432 h -1.05913 z m 1.85367,0 h 1.10358 v 0.26432 h -1.10358 z m 1.89812,0 h 1.05913 v 0.26432 h -1.05913 z m 1.85367,0 h 1.10358 v 0.26432 h -1.10358 z m 1.89812,0 h 1.05913 v 0.26432 h -1.05913 z m 1.85367,0 h 1.05939 v 0.26432 h -1.05939 z m 1.89812,0 h 1.05913 v 0.26432 h -1.05913 z m 1.85367,0 h 1.10358 v 0.26432 h -1.10358 z m 1.89813,0 h 1.05939 v 0.26432 h -1.05939 z m 1.85367,0 h 1.10357 v 0.26432 h -1.10357 z m 1.89812,0 h 1.05939 v 0.26432 h -1.05939 z m 1.85367,0 h 1.05939 v 0.26432 h -1.05939 z m 1.89812,0 h 1.05939 v 0.26432 h -1.05939 z m 1.85393,0 h 1.10332 v 0.26432 h -1.10332 z m 1.89786,0 h 1.05939 v 0.26432 h -1.05939 z m 1.85394,0 h 1.05912 v 0.26432 h -1.05912 z m 1.89785,0 h 1.05939 v 0.26432 h -1.05939 z m 1.85394,0 h 1.05912 v 0.26432 h -1.05912 z m 1.89785,0 h 1.05939 v 0.26432 h -1.05939 z m 1.85394,0 h 1.10331 v 0.26432 h -1.10331 z m 1.89785,0 h 1.0594 v 0.26432 h -1.0594 z m 1.85394,0 h 1.05913 v 0.26432 h -1.05913 z m 1.89786,0 h 1.05939 v 0.26432 h -1.05939 z m 1.85393,0 h 1.05939 v 0.26432 h -1.05939 z m 1.85367,0 h 1.10358 v 0.26432 h -1.10358 z m 1.89812,0 h 1.0594 v 0.26432 h -1.0594 z m 1.89786,0 h 1.05939 v 0.26432 h -1.05939 z m 1.85393,0 h 1.0594 v 0.26432 h -1.0594 z m 1.89786,0 h 1.05939 v 0.26432 h -1.05939 z m 1.85394,0 h 1.05939 v 0.26432 h -1.05939 z m 1.85367,0 h 1.10357 v 0.26432 h -1.10357 z m 1.89812,0 h 1.05939 v 0.26432 h -1.05939 z m 1.89785,0 h 1.0594 v 0.26432 h -1.0594 z m 1.85394,0 h 1.05939 v 0.26432 h -1.05939 z m 1.85394,0 h 1.10331 v 0.26432 h -1.10331 z m 1.89785,0 h 1.05939 v 0.26432 h -1.05939 z m 1.85394,0 h 1.10331 v 0.26432 h -1.10331 z m 1.89785,0 h 1.05939 v 0.26432 h -1.05939 z m 1.89812,0 h 1.05913 v 0.26432 h -1.05913 z m 1.85367,0 h 1.0594 v 0.26432 h -1.0594 z m 1.85394,0 h 1.10331 v 0.26432 h -1.10331 z m 1.89786,0 h 1.05939 v 0.26432 h -1.05939 z m 1.85393,0 h 1.10331 v 0.26432 h -1.10331 z m 1.89786,0 h 1.05939 v 0.26432 h -1.05939 z m 1.85393,0 h 1.10332 v 0.26432 h -1.10332 z m 1.89786,0 h 1.05939 v 0.26432 h -1.05939 z m 1.85393,0 h 1.10358 v 0.26432 h -1.10358 z m 1.89786,0 h 1.05939 v 0.26432 h -1.05939 z m 1.85394,0 h 1.10357 v 0.26432 h -1.10357 z m 1.89785,0 h 1.05939 v 0.26432 h -1.05939 z m 1.85394,0 h 1.05939 v 0.26432 h -1.05939 z m 1.89785,0 h 1.0594 v 0.26432 h -1.0594 z m 1.85394,0 h 1.10358 v 0.26432 h -1.10358 z m 1.89786,0 h 1.05939 v 0.26432 h -1.05939 z m 1.85393,0 h 1.10358 v 0.26432 h -1.10358 z m 1.89812,0 h 1.05913 v 0.26432 h -1.05913 z m 1.85367,0 h 1.05939 v 0.26432 h -1.05939 z m 1.89812,0 h 1.05913 v 0.26432 h -1.05913 z m 1.85367,0 h 1.10358 v 0.26432 h -1.10358 z m 1.89813,0 h 1.05912 v 0.26432 h -1.05912 z m 1.85367,0 h 1.05939 v 0.26432 h -1.05939 z m 1.89812,0 h 1.05912 v 0.26432 h -1.05912 z m 1.85367,0 h 1.05939 v 0.26432 h -1.05939 z m 1.89812,0 h 1.05939 v 0.26432 h -1.05939 z m 1.85367,0 h 1.10358 v 0.26432 h -1.10358 z m 1.89812,0 h 1.05939 v 0.26432 h -1.05939 z m 1.85367,0 h 1.05939 v 0.26432 h -1.05939 z m 1.89812,0 h 1.05939 v 0.26432 h -1.05939 z m 1.85367,0 h 1.05939 v 0.26432 h -1.05939 z m 1.85394,0 h 1.10358 v 0.26432 h -1.10358 z m 1.89785,0 h 1.0594 v 0.26432 h -1.0594 z m 1.89813,0 h 1.05939 v 0.26432 h -1.05939 z m 1.85367,0 h 1.05939 v 0.26432 h -1.05939 z m 1.89812,0 h 1.05939 v 0.26432 h -1.05939 z m 1.85393,0 h 1.05913 v 0.26432 h -1.05913 z m 1.85367,0 h 1.10358 v 0.26432 h -1.10358 z m 1.89812,0 h 1.05913 v 0.26432 h -1.05913 z m 1.89786,0 h 1.05939 v 0.26432 h -1.05939 z m 1.85394,0 h 1.05912 v 0.26432 h -1.05912 z m 1.85367,0 h 1.10357 v 0.26432 h -1.10357 z m 1.89732,0 h 1.06098 v 0.26432 h -1.06098 z m 1.85473,0 h 1.10331 v 0.26432 h -1.10331 z m 1.89706,0 h 1.06098 v 0.26432 h -1.06098 z m 1.89971,0 h 1.05834 v 0.26432 h -1.05834 z m 1.85209,0 h 1.06098 v 0.26432 h -1.06098 z m 1.85473,0 h 1.10331 v 0.26432 h -1.10331 z M 713.87332,625.54145 h 1.05939 v 0.26406 h -1.05939 z m 1.85393,0 h 1.10332 v 0.26406 h -1.10332 z m 1.89786,0 h 1.05939 v 0.26406 h -1.05939 z m 1.85393,0 h 1.10332 v 0.26406 h -1.10332 z m 1.89786,0 h 1.05939 v 0.26406 h -1.05939 z m 1.85394,0 h 1.05939 v 0.26406 h -1.05939 z m 1.89785,0 h 1.05939 v 0.26406 h -1.05939 z m 1.85394,0 h 1.10331 v 0.26406 h -1.10331 z m 1.89785,0 h 1.0594 v 0.26406 h -1.0594 z m 1.85394,0 h 1.05939 v 0.26406 h -1.05939 z m 1.89786,0 h 1.05939 v 0.26406 h -1.05939 z m 1.85393,0 h 1.05939 v 0.26406 h -1.05939 z m 1.89786,0 h 1.05939 v 0.26406 h -1.05939 z m 1.85393,0 h 1.10358 v 0.26406 H 738.238 Z m 1.89786,0 h 1.05939 v 0.26406 h -1.05939 z m 1.85393,0 h 1.0594 v 0.26406 h -1.0594 z m 1.89786,0 h 1.05939 v 0.26406 h -1.05939 z m 1.85394,0 h 1.05939 v 0.26406 h -1.05939 z m 1.85393,0 h 1.10331 v 0.26406 h -1.10331 z m 1.89786,0 h 1.05939 v 0.26406 h -1.05939 z m 1.89812,0 h 1.05913 v 0.26406 h -1.05913 z m 1.85367,0 h 1.05939 v 0.26406 h -1.05939 z m 1.89812,0 h 1.05913 v 0.26406 h -1.05913 z m 1.85367,0 h 1.05939 v 0.26406 h -1.05939 z m 1.85394,0 h 1.10331 v 0.26406 h -1.10331 z m 1.89785,0 h 1.05939 v 0.26406 h -1.05939 z m 1.89812,0 h 1.05913 v 0.26406 h -1.05913 z m 1.85367,0 h 1.0594 v 0.26406 h -1.0594 z m 1.85394,0 h 1.10358 v 0.26406 h -1.10358 z m 1.89786,0 h 1.05939 v 0.26406 h -1.05939 z m 1.85393,0 h 1.10358 v 0.26406 h -1.10358 z m 1.89786,0 h 1.05939 v 0.26406 h -1.05939 z m 1.89812,0 h 1.05939 v 0.26406 h -1.05939 z m 1.85367,0 h 1.05939 v 0.26406 h -1.05939 z m 1.85393,0 h 1.10358 v 0.26406 h -1.10358 z m 1.89813,0 h 1.05912 v 0.26406 h -1.05912 z m 1.85367,0 h 1.10357 v 0.26406 h -1.10357 z m 1.89812,0 h 1.05912 v 0.26406 h -1.05912 z m 1.85367,0 h 1.10357 v 0.26406 h -1.10357 z m 1.89812,0 h 1.05913 v 0.26406 h -1.05913 z m 1.85367,0 h 1.10358 v 0.26406 h -1.10358 z m 1.89812,0 h 1.05913 v 0.26406 h -1.05913 z m 1.85367,0 h 1.10358 v 0.26406 h -1.10358 z m 1.89812,0 h 1.05913 v 0.26406 h -1.05913 z m 1.85367,0 h 1.05939 v 0.26406 h -1.05939 z m 1.89812,0 h 1.05913 v 0.26406 h -1.05913 z m 1.85367,0 h 1.10358 v 0.26406 h -1.10358 z m 1.89813,0 h 1.05939 v 0.26406 h -1.05939 z m 1.85367,0 h 1.10357 v 0.26406 h -1.10357 z m 1.89812,0 h 1.05939 v 0.26406 h -1.05939 z m 1.85367,0 h 1.05939 v 0.26406 h -1.05939 z m 1.89812,0 h 1.05939 v 0.26406 h -1.05939 z m 1.85393,0 h 1.10332 v 0.26406 h -1.10332 z m 1.89786,0 h 1.05939 v 0.26406 h -1.05939 z m 1.85394,0 h 1.05912 v 0.26406 h -1.05912 z m 1.89785,0 h 1.05939 v 0.26406 h -1.05939 z m 1.85394,0 h 1.05912 v 0.26406 h -1.05912 z m 1.89785,0 h 1.05939 v 0.26406 h -1.05939 z m 1.85394,0 h 1.10331 v 0.26406 h -1.10331 z m 1.89785,0 h 1.0594 v 0.26406 h -1.0594 z m 1.85394,0 h 1.05913 v 0.26406 h -1.05913 z m 1.89786,0 h 1.05939 v 0.26406 h -1.05939 z m 1.85393,0 h 1.05939 v 0.26406 h -1.05939 z m 1.85367,0 h 1.10358 v 0.26406 h -1.10358 z m 1.89812,0 h 1.0594 v 0.26406 h -1.0594 z m 1.89786,0 h 1.05939 v 0.26406 h -1.05939 z m 1.85393,0 h 1.0594 v 0.26406 h -1.0594 z m 1.89786,0 h 1.05939 v 0.26406 h -1.05939 z m 1.85394,0 h 1.05939 v 0.26406 h -1.05939 z m 1.85367,0 h 1.10357 v 0.26406 h -1.10357 z m 1.89812,0 h 1.05939 v 0.26406 h -1.05939 z m 1.89785,0 h 1.0594 v 0.26406 h -1.0594 z m 1.85394,0 h 1.05939 v 0.26406 h -1.05939 z m 1.85394,0 h 1.10331 v 0.26406 h -1.10331 z m 1.89785,0 h 1.05939 v 0.26406 h -1.05939 z m 1.85394,0 h 1.10331 v 0.26406 h -1.10331 z m 1.89785,0 h 1.05939 v 0.26406 h -1.05939 z m 1.89812,0 h 1.05913 v 0.26406 h -1.05913 z m 1.85367,0 h 1.0594 v 0.26406 h -1.0594 z m 1.85394,0 h 1.10331 v 0.26406 h -1.10331 z m 1.89786,0 h 1.05939 v 0.26406 h -1.05939 z m 1.85393,0 h 1.10331 v 0.26406 h -1.10331 z m 1.89786,0 h 1.05939 v 0.26406 h -1.05939 z m 1.85393,0 h 1.10332 v 0.26406 h -1.10332 z m 1.89786,0 h 1.05939 v 0.26406 h -1.05939 z m 1.85393,0 h 1.10358 v 0.26406 h -1.10358 z m 1.89786,0 h 1.05939 v 0.26406 h -1.05939 z m 1.85394,0 h 1.10357 v 0.26406 h -1.10357 z m 1.89785,0 h 1.05939 v 0.26406 h -1.05939 z m 1.85394,0 h 1.05939 v 0.26406 h -1.05939 z m 1.89785,0 h 1.0594 v 0.26406 h -1.0594 z m 1.85394,0 h 1.10358 v 0.26406 h -1.10358 z m 1.89786,0 h 1.05939 v 0.26406 h -1.05939 z m 1.85393,0 h 1.10358 v 0.26406 h -1.10358 z m 1.89812,0 h 1.05913 v 0.26406 h -1.05913 z m 1.85367,0 h 1.05939 v 0.26406 h -1.05939 z m 1.89812,0 h 1.05913 v 0.26406 h -1.05913 z m 1.85367,0 h 1.10358 v 0.26406 h -1.10358 z m 1.89813,0 h 1.05912 v 0.26406 h -1.05912 z m 1.85367,0 h 1.05939 v 0.26406 h -1.05939 z m 1.89812,0 h 1.05912 v 0.26406 h -1.05912 z m 1.85367,0 h 1.05939 v 0.26406 h -1.05939 z m 1.89812,0 h 1.05939 v 0.26406 h -1.05939 z m 1.85367,0 h 1.10358 v 0.26406 h -1.10358 z m 1.89812,0 h 1.05939 v 0.26406 h -1.05939 z m 1.85367,0 h 1.05939 v 0.26406 h -1.05939 z m 1.89812,0 h 1.05939 v 0.26406 h -1.05939 z m 1.85367,0 h 1.05939 v 0.26406 h -1.05939 z m 1.85394,0 h 1.10358 v 0.26406 h -1.10358 z m 1.89785,0 h 1.0594 v 0.26406 h -1.0594 z m 1.89813,0 h 1.05939 v 0.26406 h -1.05939 z m 1.85367,0 h 1.05939 v 0.26406 h -1.05939 z m 1.89812,0 h 1.05939 v 0.26406 h -1.05939 z m 1.85393,0 h 1.05913 v 0.26406 h -1.05913 z m 1.85367,0 h 1.10358 v 0.26406 h -1.10358 z m 1.89812,0 h 1.05913 v 0.26406 h -1.05913 z m 1.89786,0 h 1.05939 v 0.26406 h -1.05939 z m 1.85394,0 h 1.05912 v 0.26406 h -1.05912 z m 1.85367,0 h 1.10357 v 0.26406 h -1.10357 z m 1.89732,0 h 1.06098 v 0.26406 h -1.06098 z m 1.85473,0 h 1.10331 v 0.26406 h -1.10331 z m 1.89706,0 h 1.06098 v 0.26406 h -1.06098 z m 1.89971,0 h 1.05834 v 0.26406 h -1.05834 z m 1.85209,0 h 1.06098 v 0.26406 h -1.06098 z m 1.85473,0 h 1.10331 v 0.26406 h -1.10331 z M 713.87332,601.79933 h 1.05939 v 0.26432 h -1.05939 z m 1.85393,0 h 1.10332 v 0.26432 h -1.10332 z m 1.89786,0 h 1.05939 v 0.26432 h -1.05939 z m 1.85393,0 h 1.10332 v 0.26432 h -1.10332 z m 1.89786,0 h 1.05939 v 0.26432 h -1.05939 z m 1.85394,0 h 1.05939 v 0.26432 h -1.05939 z m 1.89785,0 h 1.05939 v 0.26432 h -1.05939 z m 1.85394,0 h 1.10331 v 0.26432 h -1.10331 z m 1.89785,0 h 1.0594 v 0.26432 h -1.0594 z m 1.85394,0 h 1.05939 v 0.26432 h -1.05939 z m 1.89786,0 h 1.05939 v 0.26432 h -1.05939 z m 1.85393,0 h 1.05939 v 0.26432 h -1.05939 z m 1.89786,0 h 1.05939 v 0.26432 h -1.05939 z m 1.85393,0 h 1.10358 v 0.26432 H 738.238 Z m 1.89786,0 h 1.05939 v 0.26432 h -1.05939 z m 1.85393,0 h 1.0594 v 0.26432 h -1.0594 z m 1.89786,0 h 1.05939 v 0.26432 h -1.05939 z m 1.85394,0 h 1.05939 v 0.26432 h -1.05939 z m 1.85393,0 h 1.10331 v 0.26432 h -1.10331 z m 1.89786,0 h 1.05939 v 0.26432 h -1.05939 z m 1.89812,0 h 1.05913 v 0.26432 h -1.05913 z m 1.85367,0 h 1.05939 v 0.26432 h -1.05939 z m 1.89812,0 h 1.05913 v 0.26432 h -1.05913 z m 1.85367,0 h 1.05939 v 0.26432 h -1.05939 z m 1.85394,0 h 1.10331 v 0.26432 h -1.10331 z m 1.89785,0 h 1.05939 v 0.26432 h -1.05939 z m 1.89812,0 h 1.05913 v 0.26432 h -1.05913 z m 1.85367,0 h 1.0594 v 0.26432 h -1.0594 z m 1.85394,0 h 1.10358 v 0.26432 h -1.10358 z m 1.89786,0 h 1.05939 v 0.26432 h -1.05939 z m 1.85393,0 h 1.10358 v 0.26432 h -1.10358 z m 1.89786,0 h 1.05939 v 0.26432 h -1.05939 z m 1.89812,0 h 1.05939 v 0.26432 h -1.05939 z m 1.85367,0 h 1.05939 v 0.26432 h -1.05939 z m 1.85393,0 h 1.10358 v 0.26432 h -1.10358 z m 1.89813,0 h 1.05912 v 0.26432 h -1.05912 z m 1.85367,0 h 1.10357 v 0.26432 h -1.10357 z m 1.89812,0 h 1.05912 v 0.26432 h -1.05912 z m 1.85367,0 h 1.10357 v 0.26432 h -1.10357 z m 1.89812,0 h 1.05913 v 0.26432 h -1.05913 z m 1.85367,0 h 1.10358 v 0.26432 h -1.10358 z m 1.89812,0 h 1.05913 v 0.26432 h -1.05913 z m 1.85367,0 h 1.10358 v 0.26432 h -1.10358 z m 1.89812,0 h 1.05913 v 0.26432 h -1.05913 z m 1.85367,0 h 1.05939 v 0.26432 h -1.05939 z m 1.89812,0 h 1.05913 v 0.26432 h -1.05913 z m 1.85367,0 h 1.10358 v 0.26432 h -1.10358 z m 1.89813,0 h 1.05939 v 0.26432 h -1.05939 z m 1.85367,0 h 1.10357 v 0.26432 h -1.10357 z m 1.89812,0 h 1.05939 v 0.26432 h -1.05939 z m 1.85367,0 h 1.05939 v 0.26432 h -1.05939 z m 1.89812,0 h 1.05939 v 0.26432 h -1.05939 z m 1.85393,0 h 1.10332 v 0.26432 h -1.10332 z m 1.89786,0 h 1.05939 v 0.26432 h -1.05939 z m 1.85394,0 h 1.05912 v 0.26432 h -1.05912 z m 1.89785,0 h 1.05939 v 0.26432 h -1.05939 z m 1.85394,0 h 1.05912 v 0.26432 h -1.05912 z m 1.89785,0 h 1.05939 v 0.26432 h -1.05939 z m 1.85394,0 h 1.10331 v 0.26432 h -1.10331 z m 1.89785,0 h 1.0594 v 0.26432 h -1.0594 z m 1.85394,0 h 1.05913 v 0.26432 h -1.05913 z m 1.89786,0 h 1.05939 v 0.26432 h -1.05939 z m 1.85393,0 h 1.05939 v 0.26432 h -1.05939 z m 1.85367,0 h 1.10358 v 0.26432 h -1.10358 z m 1.89812,0 h 1.0594 v 0.26432 h -1.0594 z m 1.89786,0 h 1.05939 v 0.26432 h -1.05939 z m 1.85393,0 h 1.0594 v 0.26432 h -1.0594 z m 1.89786,0 h 1.05939 v 0.26432 h -1.05939 z m 1.85394,0 h 1.05939 v 0.26432 h -1.05939 z m 1.85367,0 h 1.10357 v 0.26432 h -1.10357 z m 1.89812,0 h 1.05939 v 0.26432 h -1.05939 z m 1.89785,0 h 1.0594 v 0.26432 h -1.0594 z m 1.85394,0 h 1.05939 v 0.26432 h -1.05939 z m 1.85394,0 h 1.10331 v 0.26432 h -1.10331 z m 1.89785,0 h 1.05939 v 0.26432 h -1.05939 z m 1.85394,0 h 1.10331 v 0.26432 h -1.10331 z m 1.89785,0 h 1.05939 v 0.26432 h -1.05939 z m 1.89812,0 h 1.05913 v 0.26432 h -1.05913 z m 1.85367,0 h 1.0594 v 0.26432 h -1.0594 z m 1.85394,0 h 1.10331 v 0.26432 h -1.10331 z m 1.89786,0 h 1.05939 v 0.26432 h -1.05939 z m 1.85393,0 h 1.10331 v 0.26432 h -1.10331 z m 1.89786,0 h 1.05939 v 0.26432 h -1.05939 z m 1.85393,0 h 1.10332 v 0.26432 h -1.10332 z m 1.89786,0 h 1.05939 v 0.26432 h -1.05939 z m 1.85393,0 h 1.10358 v 0.26432 h -1.10358 z m 1.89786,0 h 1.05939 v 0.26432 h -1.05939 z m 1.85394,0 h 1.10357 v 0.26432 h -1.10357 z m 1.89785,0 h 1.05939 v 0.26432 h -1.05939 z m 1.85394,0 h 1.05939 v 0.26432 h -1.05939 z m 1.89785,0 h 1.0594 v 0.26432 h -1.0594 z m 1.85394,0 h 1.10358 v 0.26432 h -1.10358 z m 1.89786,0 h 1.05939 v 0.26432 h -1.05939 z m 1.85393,0 h 1.10358 v 0.26432 h -1.10358 z m 1.89812,0 h 1.05913 v 0.26432 h -1.05913 z m 1.85367,0 h 1.05939 v 0.26432 h -1.05939 z m 1.89812,0 h 1.05913 v 0.26432 h -1.05913 z m 1.85367,0 h 1.10358 v 0.26432 h -1.10358 z m 1.89813,0 h 1.05912 v 0.26432 h -1.05912 z m 1.85367,0 h 1.05939 v 0.26432 h -1.05939 z m 1.89812,0 h 1.05912 v 0.26432 h -1.05912 z m 1.85367,0 h 1.05939 v 0.26432 h -1.05939 z m 1.89812,0 h 1.05939 v 0.26432 h -1.05939 z m 1.85367,0 h 1.10358 v 0.26432 h -1.10358 z m 1.89812,0 h 1.05939 v 0.26432 h -1.05939 z m 1.85367,0 h 1.05939 v 0.26432 h -1.05939 z m 1.89812,0 h 1.05939 v 0.26432 h -1.05939 z m 1.85367,0 h 1.05939 v 0.26432 h -1.05939 z m 1.85394,0 h 1.10358 v 0.26432 h -1.10358 z m 1.89785,0 h 1.0594 v 0.26432 h -1.0594 z m 1.89813,0 h 1.05939 v 0.26432 h -1.05939 z m 1.85367,0 h 1.05939 v 0.26432 h -1.05939 z m 1.89812,0 h 1.05939 v 0.26432 h -1.05939 z m 1.85393,0 h 1.05913 v 0.26432 h -1.05913 z m 1.85367,0 h 1.10358 v 0.26432 h -1.10358 z m 1.89812,0 h 1.05913 v 0.26432 h -1.05913 z m 1.89786,0 h 1.05939 v 0.26432 h -1.05939 z m 1.85394,0 h 1.05912 v 0.26432 h -1.05912 z m 1.85367,0 h 1.10357 v 0.26432 h -1.10357 z m 1.89732,0 h 1.06098 v 0.26432 h -1.06098 z m 1.85473,0 h 1.10331 v 0.26432 h -1.10331 z m 1.89706,0 h 1.06098 v 0.26432 h -1.06098 z m 1.89971,0 h 1.05834 v 0.26432 h -1.05834 z m 1.85209,0 h 1.06098 v 0.26432 h -1.06098 z m 1.85473,0 h 1.10331 v 0.26432 h -1.10331 z M 713.87332,577.9691 h 1.05939 v 0.26432 h -1.05939 z m 1.85393,0 h 1.10332 v 0.26432 h -1.10332 z m 1.89786,0 h 1.05939 v 0.26432 h -1.05939 z m 1.85393,0 h 1.10332 v 0.26432 h -1.10332 z m 1.89786,0 h 1.05939 v 0.26432 h -1.05939 z m 1.85394,0 h 1.05939 v 0.26432 h -1.05939 z m 1.89785,0 h 1.05939 v 0.26432 h -1.05939 z m 1.85394,0 h 1.10331 v 0.26432 h -1.10331 z m 1.89785,0 h 1.0594 v 0.26432 h -1.0594 z m 1.85394,0 h 1.05939 v 0.26432 h -1.05939 z m 1.89786,0 h 1.05939 v 0.26432 h -1.05939 z m 1.85393,0 h 1.05939 v 0.26432 h -1.05939 z m 1.89786,0 h 1.05939 v 0.26432 h -1.05939 z m 1.85393,0 h 1.10358 v 0.26432 H 738.238 Z m 1.89786,0 h 1.05939 v 0.26432 h -1.05939 z m 1.85393,0 h 1.0594 v 0.26432 h -1.0594 z m 1.89786,0 h 1.05939 v 0.26432 h -1.05939 z m 1.85394,0 h 1.05939 v 0.26432 h -1.05939 z m 1.85393,0 h 1.10331 v 0.26432 h -1.10331 z m 1.89786,0 h 1.05939 v 0.26432 h -1.05939 z m 1.89812,0 h 1.05913 v 0.26432 h -1.05913 z m 1.85367,0 h 1.05939 v 0.26432 h -1.05939 z m 1.89812,0 h 1.05913 v 0.26432 h -1.05913 z m 1.85367,0 h 1.05939 v 0.26432 h -1.05939 z m 1.85394,0 h 1.10331 v 0.26432 h -1.10331 z m 1.89785,0 h 1.05939 v 0.26432 h -1.05939 z m 1.89812,0 h 1.05913 v 0.26432 h -1.05913 z m 1.85367,0 h 1.0594 v 0.26432 h -1.0594 z m 1.85394,0 h 1.10358 v 0.26432 h -1.10358 z m 1.89786,0 h 1.05939 v 0.26432 h -1.05939 z m 1.85393,0 h 1.10358 v 0.26432 h -1.10358 z m 1.89786,0 h 1.05939 v 0.26432 h -1.05939 z m 1.89812,0 h 1.05939 v 0.26432 h -1.05939 z m 1.85367,0 h 1.05939 v 0.26432 h -1.05939 z m 1.85393,0 h 1.10358 v 0.26432 h -1.10358 z m 1.89813,0 h 1.05912 v 0.26432 h -1.05912 z m 1.85367,0 h 1.10357 v 0.26432 h -1.10357 z m 1.89812,0 h 1.05912 v 0.26432 h -1.05912 z m 1.85367,0 h 1.10357 v 0.26432 h -1.10357 z m 1.89812,0 h 1.05913 v 0.26432 h -1.05913 z m 1.85367,0 h 1.10358 v 0.26432 h -1.10358 z m 1.89812,0 h 1.05913 v 0.26432 h -1.05913 z m 1.85367,0 h 1.10358 v 0.26432 h -1.10358 z m 1.89812,0 h 1.05913 v 0.26432 h -1.05913 z m 1.85367,0 h 1.05939 v 0.26432 h -1.05939 z m 1.89812,0 h 1.05913 v 0.26432 h -1.05913 z m 1.85367,0 h 1.10358 v 0.26432 h -1.10358 z m 1.89813,0 h 1.05939 v 0.26432 h -1.05939 z m 1.85367,0 h 1.10357 v 0.26432 h -1.10357 z m 1.89812,0 h 1.05939 v 0.26432 h -1.05939 z m 1.85367,0 h 1.05939 v 0.26432 h -1.05939 z m 1.89812,0 h 1.05939 v 0.26432 h -1.05939 z m 1.85393,0 h 1.10332 v 0.26432 h -1.10332 z m 1.89786,0 h 1.05939 v 0.26432 h -1.05939 z m 1.85394,0 h 1.05912 v 0.26432 h -1.05912 z m 1.89785,0 h 1.05939 v 0.26432 h -1.05939 z m 1.85394,0 h 1.05912 v 0.26432 h -1.05912 z m 1.89785,0 h 1.05939 v 0.26432 h -1.05939 z m 1.85394,0 h 1.10331 v 0.26432 h -1.10331 z m 1.89785,0 h 1.0594 v 0.26432 h -1.0594 z m 1.85394,0 h 1.05913 v 0.26432 h -1.05913 z m 1.89786,0 h 1.05939 v 0.26432 h -1.05939 z m 1.85393,0 h 1.05939 v 0.26432 h -1.05939 z m 1.85367,0 h 1.10358 v 0.26432 h -1.10358 z m 1.89812,0 h 1.0594 v 0.26432 h -1.0594 z m 1.89786,0 h 1.05939 v 0.26432 h -1.05939 z m 1.85393,0 h 1.0594 v 0.26432 h -1.0594 z m 1.89786,0 h 1.05939 v 0.26432 h -1.05939 z m 1.85394,0 h 1.05939 v 0.26432 h -1.05939 z m 1.85367,0 h 1.10357 v 0.26432 h -1.10357 z m 1.89812,0 h 1.05939 v 0.26432 h -1.05939 z m 1.89785,0 h 1.0594 v 0.26432 h -1.0594 z m 1.85394,0 h 1.05939 v 0.26432 h -1.05939 z m 1.85394,0 h 1.10331 v 0.26432 h -1.10331 z m 1.89785,0 h 1.05939 v 0.26432 h -1.05939 z m 1.85394,0 h 1.10331 v 0.26432 h -1.10331 z m 1.89785,0 h 1.05939 v 0.26432 h -1.05939 z m 1.89812,0 h 1.05913 v 0.26432 h -1.05913 z m 1.85367,0 h 1.0594 v 0.26432 h -1.0594 z m 1.85394,0 h 1.10331 v 0.26432 h -1.10331 z m 1.89786,0 h 1.05939 v 0.26432 h -1.05939 z m 1.85393,0 h 1.10331 v 0.26432 h -1.10331 z m 1.89786,0 h 1.05939 v 0.26432 h -1.05939 z m 1.85393,0 h 1.10332 v 0.26432 h -1.10332 z m 1.89786,0 h 1.05939 v 0.26432 h -1.05939 z m 1.85393,0 h 1.10358 v 0.26432 h -1.10358 z m 1.89786,0 h 1.05939 v 0.26432 h -1.05939 z m 1.85394,0 h 1.10357 v 0.26432 h -1.10357 z m 1.89785,0 h 1.05939 v 0.26432 h -1.05939 z m 1.85394,0 h 1.05939 v 0.26432 h -1.05939 z m 1.89785,0 h 1.0594 v 0.26432 h -1.0594 z m 1.85394,0 h 1.10358 v 0.26432 h -1.10358 z m 1.89786,0 h 1.05939 v 0.26432 h -1.05939 z m 1.85393,0 h 1.10358 v 0.26432 h -1.10358 z m 1.89812,0 h 1.05913 v 0.26432 h -1.05913 z m 1.85367,0 h 1.05939 v 0.26432 h -1.05939 z m 1.89812,0 h 1.05913 v 0.26432 h -1.05913 z m 1.85367,0 h 1.10358 v 0.26432 h -1.10358 z m 1.89813,0 h 1.05912 v 0.26432 h -1.05912 z m 1.85367,0 h 1.05939 v 0.26432 h -1.05939 z m 1.89812,0 h 1.05912 v 0.26432 h -1.05912 z m 1.85367,0 h 1.05939 v 0.26432 h -1.05939 z m 1.89812,0 h 1.05939 v 0.26432 h -1.05939 z m 1.85367,0 h 1.10358 v 0.26432 h -1.10358 z m 1.89812,0 h 1.05939 v 0.26432 h -1.05939 z m 1.85367,0 h 1.05939 v 0.26432 h -1.05939 z m 1.89812,0 h 1.05939 v 0.26432 h -1.05939 z m 1.85367,0 h 1.05939 v 0.26432 h -1.05939 z m 1.85394,0 h 1.10358 v 0.26432 h -1.10358 z m 1.89785,0 h 1.0594 v 0.26432 h -1.0594 z m 1.89813,0 h 1.05939 v 0.26432 h -1.05939 z m 1.85367,0 h 1.05939 v 0.26432 h -1.05939 z m 1.89812,0 h 1.05939 v 0.26432 h -1.05939 z m 1.85393,0 h 1.05913 v 0.26432 h -1.05913 z m 1.85367,0 h 1.10358 v 0.26432 h -1.10358 z m 1.89812,0 h 1.05913 v 0.26432 h -1.05913 z m 1.89786,0 h 1.05939 v 0.26432 h -1.05939 z m 1.85394,0 h 1.05912 v 0.26432 h -1.05912 z m 1.85367,0 h 1.10357 v 0.26432 h -1.10357 z m 1.89732,0 h 1.06098 v 0.26432 h -1.06098 z m 1.85473,0 h 1.10331 v 0.26432 h -1.10331 z m 1.89706,0 h 1.06098 v 0.26432 h -1.06098 z m 1.89971,0 h 1.05834 v 0.26432 h -1.05834 z m 1.85209,0 h 1.06098 v 0.26432 h -1.06098 z m 1.85473,0 h 1.10331 v 0.26432 h -1.10331 z M 713.87332,554.22725 h 1.05939 v 0.26432 h -1.05939 z m 1.85393,0 h 1.10332 v 0.26432 h -1.10332 z m 1.89786,0 h 1.05939 v 0.26432 h -1.05939 z m 1.85393,0 h 1.10332 v 0.26432 h -1.10332 z m 1.89786,0 h 1.05939 v 0.26432 h -1.05939 z m 1.85394,0 h 1.05939 v 0.26432 h -1.05939 z m 1.89785,0 h 1.05939 v 0.26432 h -1.05939 z m 1.85394,0 h 1.10331 v 0.26432 h -1.10331 z m 1.89785,0 h 1.0594 v 0.26432 h -1.0594 z m 1.85394,0 h 1.05939 v 0.26432 h -1.05939 z m 1.89786,0 h 1.05939 v 0.26432 h -1.05939 z m 1.85393,0 h 1.05939 v 0.26432 h -1.05939 z m 1.89786,0 h 1.05939 v 0.26432 h -1.05939 z m 1.85393,0 h 1.10358 v 0.26432 H 738.238 Z m 1.89786,0 h 1.05939 v 0.26432 h -1.05939 z m 1.85393,0 h 1.0594 v 0.26432 h -1.0594 z m 1.89786,0 h 1.05939 v 0.26432 h -1.05939 z m 1.85394,0 h 1.05939 v 0.26432 h -1.05939 z m 1.85393,0 h 1.10331 v 0.26432 h -1.10331 z m 1.89786,0 h 1.05939 v 0.26432 h -1.05939 z m 1.89812,0 h 1.05913 v 0.26432 h -1.05913 z m 1.85367,0 h 1.05939 v 0.26432 h -1.05939 z m 1.89812,0 h 1.05913 v 0.26432 h -1.05913 z m 1.85367,0 h 1.05939 v 0.26432 h -1.05939 z m 1.85394,0 h 1.10331 v 0.26432 h -1.10331 z m 1.89785,0 h 1.05939 v 0.26432 h -1.05939 z m 1.89812,0 h 1.05913 v 0.26432 h -1.05913 z m 1.85367,0 h 1.0594 v 0.26432 h -1.0594 z m 1.85394,0 h 1.10358 v 0.26432 h -1.10358 z m 1.89786,0 h 1.05939 v 0.26432 h -1.05939 z m 1.85393,0 h 1.10358 v 0.26432 h -1.10358 z m 1.89786,0 h 1.05939 v 0.26432 h -1.05939 z m 1.89812,0 h 1.05939 v 0.26432 h -1.05939 z m 1.85367,0 h 1.05939 v 0.26432 h -1.05939 z m 1.85393,0 h 1.10358 v 0.26432 h -1.10358 z m 1.89813,0 h 1.05912 v 0.26432 h -1.05912 z m 1.85367,0 h 1.10357 v 0.26432 h -1.10357 z m 1.89812,0 h 1.05912 v 0.26432 h -1.05912 z m 1.85367,0 h 1.10357 v 0.26432 h -1.10357 z m 1.89812,0 h 1.05913 v 0.26432 h -1.05913 z m 1.85367,0 h 1.10358 v 0.26432 h -1.10358 z m 1.89812,0 h 1.05913 v 0.26432 h -1.05913 z m 1.85367,0 h 1.10358 v 0.26432 h -1.10358 z m 1.89812,0 h 1.05913 v 0.26432 h -1.05913 z m 1.85367,0 h 1.05939 v 0.26432 h -1.05939 z m 1.89812,0 h 1.05913 v 0.26432 h -1.05913 z m 1.85367,0 h 1.10358 v 0.26432 h -1.10358 z m 1.89813,0 h 1.05939 v 0.26432 h -1.05939 z m 1.85367,0 h 1.10357 v 0.26432 h -1.10357 z m 1.89812,0 h 1.05939 v 0.26432 h -1.05939 z m 1.85367,0 h 1.05939 v 0.26432 h -1.05939 z m 1.89812,0 h 1.05939 v 0.26432 h -1.05939 z m 1.85393,0 h 1.10332 v 0.26432 h -1.10332 z m 1.89786,0 h 1.05939 v 0.26432 h -1.05939 z m 1.85394,0 h 1.05912 v 0.26432 h -1.05912 z m 1.89785,0 h 1.05939 v 0.26432 h -1.05939 z m 1.85394,0 h 1.05912 v 0.26432 h -1.05912 z m 1.89785,0 h 1.05939 v 0.26432 h -1.05939 z m 1.85394,0 h 1.10331 v 0.26432 h -1.10331 z m 1.89785,0 h 1.0594 v 0.26432 h -1.0594 z m 1.85394,0 h 1.05913 v 0.26432 h -1.05913 z m 1.89786,0 h 1.05939 v 0.26432 h -1.05939 z m 1.85393,0 h 1.05939 v 0.26432 h -1.05939 z m 1.85367,0 h 1.10358 v 0.26432 h -1.10358 z m 1.89812,0 h 1.0594 v 0.26432 h -1.0594 z m 1.89786,0 h 1.05939 v 0.26432 h -1.05939 z m 1.85393,0 h 1.0594 v 0.26432 h -1.0594 z m 1.89786,0 h 1.05939 v 0.26432 h -1.05939 z m 1.85394,0 h 1.05939 v 0.26432 h -1.05939 z m 1.85367,0 h 1.10357 v 0.26432 h -1.10357 z m 1.89812,0 h 1.05939 v 0.26432 h -1.05939 z m 1.89785,0 h 1.0594 v 0.26432 h -1.0594 z m 1.85394,0 h 1.05939 v 0.26432 h -1.05939 z m 1.85394,0 h 1.10331 v 0.26432 h -1.10331 z m 1.89785,0 h 1.05939 v 0.26432 h -1.05939 z m 1.85394,0 h 1.10331 v 0.26432 h -1.10331 z m 1.89785,0 h 1.05939 v 0.26432 h -1.05939 z m 1.89812,0 h 1.05913 v 0.26432 h -1.05913 z m 1.85367,0 h 1.0594 v 0.26432 h -1.0594 z m 1.85394,0 h 1.10331 v 0.26432 h -1.10331 z m 1.89786,0 h 1.05939 v 0.26432 h -1.05939 z m 1.85393,0 h 1.10331 v 0.26432 h -1.10331 z m 1.89786,0 h 1.05939 v 0.26432 h -1.05939 z m 1.85393,0 h 1.10332 v 0.26432 h -1.10332 z m 1.89786,0 h 1.05939 v 0.26432 h -1.05939 z m 1.85393,0 h 1.10358 v 0.26432 h -1.10358 z m 1.89786,0 h 1.05939 v 0.26432 h -1.05939 z m 1.85394,0 h 1.10357 v 0.26432 h -1.10357 z m 1.89785,0 h 1.05939 v 0.26432 h -1.05939 z m 1.85394,0 h 1.05939 v 0.26432 h -1.05939 z m 1.89785,0 h 1.0594 v 0.26432 h -1.0594 z m 1.85394,0 h 1.10358 v 0.26432 h -1.10358 z m 1.89786,0 h 1.05939 v 0.26432 h -1.05939 z m 1.85393,0 h 1.10358 v 0.26432 h -1.10358 z m 1.89812,0 h 1.05913 v 0.26432 h -1.05913 z m 1.85367,0 h 1.05939 v 0.26432 h -1.05939 z m 1.89812,0 h 1.05913 v 0.26432 h -1.05913 z m 1.85367,0 h 1.10358 v 0.26432 h -1.10358 z m 1.89813,0 h 1.05912 v 0.26432 h -1.05912 z m 1.85367,0 h 1.05939 v 0.26432 h -1.05939 z m 1.89812,0 h 1.05912 v 0.26432 h -1.05912 z m 1.85367,0 h 1.05939 v 0.26432 h -1.05939 z m 1.89812,0 h 1.05939 v 0.26432 h -1.05939 z m 1.85367,0 h 1.10358 v 0.26432 h -1.10358 z m 1.89812,0 h 1.05939 v 0.26432 h -1.05939 z m 1.85367,0 h 1.05939 v 0.26432 h -1.05939 z m 1.89812,0 h 1.05939 v 0.26432 h -1.05939 z m 1.85367,0 h 1.05939 v 0.26432 h -1.05939 z m 1.85394,0 h 1.10358 v 0.26432 h -1.10358 z m 1.89785,0 h 1.0594 v 0.26432 h -1.0594 z m 1.89813,0 h 1.05939 v 0.26432 h -1.05939 z m 1.85367,0 h 1.05939 v 0.26432 h -1.05939 z m 1.89812,0 h 1.05939 v 0.26432 h -1.05939 z m 1.85393,0 h 1.05913 v 0.26432 h -1.05913 z m 1.85367,0 h 1.10358 v 0.26432 h -1.10358 z m 1.89812,0 h 1.05913 v 0.26432 h -1.05913 z m 1.89786,0 h 1.05939 v 0.26432 h -1.05939 z m 1.85394,0 h 1.05912 v 0.26432 h -1.05912 z m 1.85367,0 h 1.10357 v 0.26432 h -1.10357 z m 1.89732,0 h 1.06098 v 0.26432 h -1.06098 z m 1.85473,0 h 1.10331 v 0.26432 h -1.10331 z m 1.89706,0 h 1.06098 v 0.26432 h -1.06098 z m 1.89971,0 h 1.05834 v 0.26432 h -1.05834 z m 1.85209,0 h 1.06098 v 0.26432 h -1.06098 z m 1.85473,0 h 1.10331 v 0.26432 h -1.10331 z m -232.52377,-23.7421 h 1.05939 v 0.26427 h -1.05939 z m 1.85393,0 h 1.10332 v 0.26427 h -1.10332 z m 1.89786,0 h 1.05939 v 0.26427 h -1.05939 z m 1.85393,0 h 1.10332 v 0.26427 h -1.10332 z m 1.89786,0 h 1.05939 v 0.26427 h -1.05939 z m 1.85394,0 h 1.05939 v 0.26427 h -1.05939 z m 1.89785,0 h 1.05939 v 0.26427 h -1.05939 z m 1.85394,0 h 1.10331 v 0.26427 h -1.10331 z m 1.89785,0 h 1.0594 v 0.26427 h -1.0594 z m 1.85394,0 h 1.05939 v 0.26427 h -1.05939 z m 1.89786,0 h 1.05939 v 0.26427 h -1.05939 z m 1.85393,0 h 1.05939 v 0.26427 h -1.05939 z m 1.89786,0 h 1.05939 v 0.26427 h -1.05939 z m 1.85393,0 h 1.10358 v 0.26427 H 738.238 Z m 1.89786,0 h 1.05939 v 0.26427 h -1.05939 z m 1.85393,0 h 1.0594 v 0.26427 h -1.0594 z m 1.89786,0 h 1.05939 v 0.26427 h -1.05939 z m 1.85394,0 h 1.05939 v 0.26427 h -1.05939 z m 1.85393,0 h 1.10331 v 0.26427 h -1.10331 z m 1.89786,0 h 1.05939 v 0.26427 h -1.05939 z m 1.89812,0 h 1.05913 v 0.26427 h -1.05913 z m 1.85367,0 h 1.05939 v 0.26427 h -1.05939 z m 1.89812,0 h 1.05913 v 0.26427 h -1.05913 z m 1.85367,0 h 1.05939 v 0.26427 h -1.05939 z m 1.85394,0 h 1.10331 v 0.26427 h -1.10331 z m 1.89785,0 h 1.05939 v 0.26427 h -1.05939 z m 1.89812,0 h 1.05913 v 0.26427 h -1.05913 z m 1.85367,0 h 1.0594 v 0.26427 h -1.0594 z m 1.85394,0 h 1.10358 v 0.26427 h -1.10358 z m 1.89786,0 h 1.05939 v 0.26427 h -1.05939 z m 1.85393,0 h 1.10358 v 0.26427 h -1.10358 z m 1.89786,0 h 1.05939 v 0.26427 h -1.05939 z m 1.89812,0 h 1.05939 v 0.26427 h -1.05939 z m 1.85367,0 h 1.05939 v 0.26427 h -1.05939 z m 1.85393,0 h 1.10358 v 0.26427 h -1.10358 z m 1.89813,0 h 1.05912 v 0.26427 h -1.05912 z m 1.85367,0 h 1.10357 v 0.26427 h -1.10357 z m 1.89812,0 h 1.05912 v 0.26427 h -1.05912 z m 1.85367,0 h 1.10357 v 0.26427 h -1.10357 z m 1.89812,0 h 1.05913 v 0.26427 h -1.05913 z m 1.85367,0 h 1.10358 v 0.26427 h -1.10358 z m 1.89812,0 h 1.05913 v 0.26427 h -1.05913 z m 1.85367,0 h 1.10358 v 0.26427 h -1.10358 z m 1.89812,0 h 1.05913 v 0.26427 h -1.05913 z m 1.85367,0 h 1.05939 v 0.26427 h -1.05939 z m 1.89812,0 h 1.05913 v 0.26427 h -1.05913 z m 1.85367,0 h 1.10358 v 0.26427 h -1.10358 z m 1.89813,0 h 1.05939 v 0.26427 h -1.05939 z m 1.85367,0 h 1.10357 v 0.26427 h -1.10357 z m 1.89812,0 h 1.05939 v 0.26427 h -1.05939 z m 1.85367,0 h 1.05939 v 0.26427 h -1.05939 z m 1.89812,0 h 1.05939 v 0.26427 h -1.05939 z m 1.85393,0 h 1.10332 v 0.26427 h -1.10332 z m 1.89786,0 h 1.05939 v 0.26427 h -1.05939 z m 1.85394,0 h 1.05912 v 0.26427 h -1.05912 z m 1.89785,0 h 1.05939 v 0.26427 h -1.05939 z m 1.85394,0 h 1.05912 v 0.26427 h -1.05912 z m 1.89785,0 h 1.05939 v 0.26427 h -1.05939 z m 1.85394,0 h 1.10331 v 0.26427 h -1.10331 z m 1.89785,0 h 1.0594 v 0.26427 h -1.0594 z m 1.85394,0 h 1.05913 v 0.26427 h -1.05913 z m 1.89786,0 h 1.05939 v 0.26427 h -1.05939 z m 1.85393,0 h 1.05939 v 0.26427 h -1.05939 z m 1.85367,0 h 1.10358 v 0.26427 h -1.10358 z m 1.89812,0 h 1.0594 v 0.26427 h -1.0594 z m 1.89786,0 h 1.05939 v 0.26427 h -1.05939 z m 1.85393,0 h 1.0594 v 0.26427 h -1.0594 z m 1.89786,0 h 1.05939 v 0.26427 h -1.05939 z m 1.85394,0 h 1.05939 v 0.26427 h -1.05939 z m 1.85367,0 h 1.10357 v 0.26427 h -1.10357 z m 1.89812,0 h 1.05939 v 0.26427 h -1.05939 z m 1.89785,0 h 1.0594 v 0.26427 h -1.0594 z m 1.85394,0 h 1.05939 v 0.26427 h -1.05939 z m 1.85394,0 h 1.10331 v 0.26427 h -1.10331 z m 1.89785,0 h 1.05939 v 0.26427 h -1.05939 z m 1.85394,0 h 1.10331 v 0.26427 h -1.10331 z m 1.89785,0 h 1.05939 v 0.26427 h -1.05939 z m 1.89812,0 h 1.05913 v 0.26427 h -1.05913 z m 1.85367,0 h 1.0594 v 0.26427 h -1.0594 z m 1.85394,0 h 1.10331 v 0.26427 h -1.10331 z m 1.89786,0 h 1.05939 v 0.26427 h -1.05939 z m 1.85393,0 h 1.10331 v 0.26427 h -1.10331 z m 1.89786,0 h 1.05939 v 0.26427 h -1.05939 z m 1.85393,0 h 1.10332 v 0.26427 h -1.10332 z m 1.89786,0 h 1.05939 v 0.26427 h -1.05939 z m 1.85393,0 h 1.10358 v 0.26427 h -1.10358 z m 1.89786,0 h 1.05939 v 0.26427 h -1.05939 z m 1.85394,0 h 1.10357 v 0.26427 h -1.10357 z m 1.89785,0 h 1.05939 v 0.26427 h -1.05939 z m 1.85394,0 h 1.05939 v 0.26427 h -1.05939 z m 1.89785,0 h 1.0594 v 0.26427 h -1.0594 z m 1.85394,0 h 1.10358 v 0.26427 h -1.10358 z m 1.89786,0 h 1.05939 v 0.26427 h -1.05939 z m 1.85393,0 h 1.10358 v 0.26427 h -1.10358 z m 1.89812,0 h 1.05913 v 0.26427 h -1.05913 z m 1.85367,0 h 1.05939 v 0.26427 h -1.05939 z m 1.89812,0 h 1.05913 v 0.26427 h -1.05913 z m 1.85367,0 h 1.10358 v 0.26427 h -1.10358 z m 1.89813,0 h 1.05912 v 0.26427 h -1.05912 z m 1.85367,0 h 1.05939 v 0.26427 h -1.05939 z m 1.89812,0 h 1.05912 v 0.26427 h -1.05912 z m 1.85367,0 h 1.05939 v 0.26427 h -1.05939 z m 1.89812,0 h 1.05939 v 0.26427 h -1.05939 z m 1.85367,0 h 1.10358 v 0.26427 h -1.10358 z m 1.89812,0 h 1.05939 v 0.26427 h -1.05939 z m 1.85367,0 h 1.05939 v 0.26427 h -1.05939 z m 1.89812,0 h 1.05939 v 0.26427 h -1.05939 z m 1.85367,0 h 1.05939 v 0.26427 h -1.05939 z m 1.85394,0 h 1.10358 v 0.26427 h -1.10358 z m 1.89785,0 h 1.0594 v 0.26427 h -1.0594 z m 1.89813,0 h 1.05939 v 0.26427 h -1.05939 z m 1.85367,0 h 1.05939 v 0.26427 h -1.05939 z m 1.89812,0 h 1.05939 v 0.26427 h -1.05939 z m 1.85393,0 h 1.05913 v 0.26427 h -1.05913 z m 1.85367,0 h 1.10358 v 0.26427 h -1.10358 z m 1.89812,0 h 1.05913 v 0.26427 h -1.05913 z m 1.89786,0 h 1.05939 v 0.26427 h -1.05939 z m 1.85394,0 h 1.05912 v 0.26427 h -1.05912 z m 1.85367,0 h 1.10357 v 0.26427 h -1.10357 z m 1.89732,0 h 1.06098 v 0.26427 h -1.06098 z m 1.85473,0 h 1.10331 v 0.26427 h -1.10331 z m 1.89706,0 h 1.06098 v 0.26427 h -1.06098 z m 1.89971,0 h 1.05834 v 0.26427 h -1.05834 z m 1.85209,0 h 1.06098 v 0.26427 h -1.06098 z m 1.85473,0 h 1.10331 v 0.26427 h -1.10331 z"
       stroke="#000000"
       stroke-width="0"
       stroke-linejoin="round"
       stroke-miterlimit="10"
       fill-rule="evenodd"
       id="path986" />
    <path
       d="m 772.61082,530.48515 v 1.05768 h -0.26459 v -1.05768 z m 0,1.895 v 1.05768 h -0.26459 v -1.05768 z m 0,1.85095 v 1.05767 h -0.26459 v -1.05767 z m 0,1.85092 v 1.10175 h -0.26459 v -1.10175 z m 0,1.89502 v 1.05768 h -0.26459 v -1.05768 z m 0,1.89498 v 1.0578 h -0.26459 v -1.0578 z m 0,1.85102 v 1.05754 h -0.26459 v -1.05754 z m 0,1.89495 v 1.0578 h -0.26459 v -1.0578 z m 0,1.85102 v 1.05754 h -0.26459 v -1.05754 z m 0,1.85076 v 1.10173 h -0.26459 v -1.10173 z m 0,1.89521 v 1.05754 h -0.26459 v -1.05754 z m 0,1.89495 v 1.05754 h -0.26459 v -1.05754 z m 0,1.85102 v 1.05754 h -0.26459 v -1.05754 z m 0,1.89495 v 1.05754 h -0.26459 v -1.05754 z m 0,1.85076 v 1.0578 h -0.26459 v -1.0578 z m 0,1.85102 v 1.10173 h -0.26459 v -1.10173 z m 0,1.89495 v 1.0578 h -0.26459 v -1.0578 z m 0,1.89521 v 1.05754 h -0.26459 v -1.05754 z m 0,1.85076 v 1.0578 h -0.26459 v -1.0578 z m 0,1.85103 v 1.10172 h -0.26459 v -1.10172 z m 0,1.89494 v 1.05781 h -0.26459 v -1.05781 z m 0,1.85103 v 1.10172 h -0.26459 v -1.10172 z m 0,1.89494 v 1.05781 h -0.26459 v -1.05781 z m 0,1.89495 v 1.0578 h -0.26459 v -1.0578 z m 0,1.85102 v 1.05781 h -0.26459 v -1.05781 z m 0,1.85103 v 1.10172 h -0.26459 v -1.10172 z m 0,1.89494 v 1.05754 h -0.26459 v -1.05754 z m 0,1.85103 v 1.10172 h -0.26459 v -1.10172 z m 0,1.89494 v 1.05754 h -0.26459 v -1.05754 z m 0,1.89495 v 1.0578 h -0.26459 v -1.0578 z m 0,1.85103 v 1.05753 h -0.26459 v -1.05753 z m 0,1.85076 v 1.10172 h -0.26459 v -1.10172 z m 0,1.89521 v 1.05754 h -0.26459 v -1.05754 z m 0,1.85076 v 1.10172 h -0.26459 v -1.10172 z m 0,1.89521 v 1.05754 h -0.26459 v -1.05754 z m 0,1.85076 v 1.10172 h -0.26459 v -1.10172 z m 0,1.89494 v 1.05781 h -0.26459 v -1.05781 z m 0,1.85103 v 1.10172 h -0.26459 v -1.10172 z m 0,1.89494 v 1.05781 h -0.26459 v -1.05781 z m 0,1.85103 v 1.10172 h -0.26459 v -1.10172 z m 0,1.89494 v 1.05781 h -0.26459 v -1.05781 z m 0,1.85103 v 1.05754 h -0.26459 v -1.05754 z m 0,1.89495 v 1.0578 h -0.26459 v -1.0578 z m 0,1.85102 v 1.10173 h -0.26459 v -1.10173 z m 0,1.89495 v 1.0578 h -0.26459 v -1.0578 z m 0,1.85102 v 1.10173 h -0.26459 v -1.10173 z m 0,1.89495 v 1.0578 h -0.26459 v -1.0578 z m 0,1.85102 v 1.05754 h -0.26459 v -1.05754 z m 0,1.89495 v 1.05754 h -0.26459 v -1.05754 z m 0,1.85102 v 1.10173 h -0.26459 v -1.10173 z m 0,1.89495 v 1.05754 h -0.26459 v -1.05754 z m 0,1.85076 v 1.10199 h -0.26459 v -1.10199 z m 0,1.89521 v 1.05754 h -0.26459 v -1.05754 z m 0,1.85076 v 1.0578 h -0.26459 v -1.0578 z m 0,1.89521 v 1.05754 h -0.26459 v -1.05754 z m 0,1.85076 v 1.10173 h -0.26459 v -1.10173 z m 0,1.89521 v 1.05754 h -0.26459 v -1.05754 z m 0,1.85076 v 1.10173 h -0.26459 v -1.10173 z m 0,1.89495 v 1.0578 h -0.26459 v -1.0578 z m 0,1.85102 v 1.05781 h -0.26459 v -1.05781 z m 0,1.89495 v 1.0578 h -0.26459 v -1.0578 z m 0,1.85102 v 1.10173 h -0.26459 v -1.10173 z m 0,1.89495 v 1.0578 h -0.26459 v -1.0578 z m 0,1.85102 v 1.05754 h -0.26459 v -1.05754 z m 0,1.89495 v 1.0578 h -0.26459 v -1.0578 z m 0,1.85102 v 1.05754 h -0.26459 v -1.05754 z m 0,1.89495 v 1.0578 h -0.26459 v -1.0578 z m 0,1.85103 v 1.10172 h -0.26459 v -1.10172 z m 0,1.89494 v 1.05781 h -0.26459 v -1.05781 z m 0,1.85103 v 1.05754 h -0.26459 v -1.05754 z m 0,1.89494 v 1.05754 h -0.26459 v -1.05754 z m 0,1.85103 v 1.05754 h -0.26459 v -1.05754 z m 0,1.89494 v 1.05754 h -0.26459 v -1.05754 z m 0,1.85103 v 1.10172 h -0.26459 v -1.10172 z m 0,1.89494 v 1.05754 h -0.26459 v -1.05754 z m 0,1.85076 v 1.05781 h -0.26459 v -1.05781 z m 0,1.89521 v 0.26432 h -0.26459 v -0.26432 z m 58.48747,-142.34607 v 1.05768 h -0.26432 v -1.05768 z m 0,1.895 v 1.05768 h -0.26432 v -1.05768 z m 0,1.85095 v 1.05767 h -0.26432 v -1.05767 z m 0,1.85092 v 1.10175 h -0.26432 v -1.10175 z m 0,1.89502 v 1.05768 h -0.26432 v -1.05768 z m 0,1.89498 v 1.0578 h -0.26432 v -1.0578 z m 0,1.85102 v 1.05754 h -0.26432 v -1.05754 z m 0,1.89495 v 1.0578 h -0.26432 v -1.0578 z m 0,1.85102 v 1.05754 h -0.26432 v -1.05754 z m 0,1.85076 v 1.10173 h -0.26432 v -1.10173 z m 0,1.89521 v 1.05754 h -0.26432 v -1.05754 z m 0,1.89495 v 1.05754 h -0.26432 v -1.05754 z m 0,1.85102 v 1.05754 h -0.26432 v -1.05754 z m 0,1.89495 v 1.05754 h -0.26432 v -1.05754 z m 0,1.85076 v 1.0578 h -0.26432 v -1.0578 z m 0,1.85102 v 1.10173 h -0.26432 v -1.10173 z m 0,1.89495 v 1.0578 h -0.26432 v -1.0578 z m 0,1.89521 v 1.05754 h -0.26432 v -1.05754 z m 0,1.85076 v 1.0578 h -0.26432 v -1.0578 z m 0,1.85103 v 1.10172 h -0.26432 v -1.10172 z m 0,1.89494 v 1.05781 h -0.26432 v -1.05781 z m 0,1.85103 v 1.10172 h -0.26432 v -1.10172 z m 0,1.89494 v 1.05781 h -0.26432 v -1.05781 z m 0,1.89495 v 1.0578 h -0.26432 v -1.0578 z m 0,1.85102 v 1.05781 h -0.26432 v -1.05781 z m 0,1.85103 v 1.10172 h -0.26432 v -1.10172 z m 0,1.89494 v 1.05754 h -0.26432 v -1.05754 z m 0,1.85103 v 1.10172 h -0.26432 v -1.10172 z m 0,1.89494 v 1.05754 h -0.26432 v -1.05754 z m 0,1.89495 v 1.0578 h -0.26432 v -1.0578 z m 0,1.85103 v 1.05753 h -0.26432 v -1.05753 z m 0,1.85076 v 1.10172 h -0.26432 v -1.10172 z m 0,1.89521 v 1.05754 h -0.26432 v -1.05754 z m 0,1.85076 v 1.10172 h -0.26432 v -1.10172 z m 0,1.89521 v 1.05754 h -0.26432 v -1.05754 z m 0,1.85076 v 1.10172 h -0.26432 v -1.10172 z m 0,1.89494 v 1.05781 h -0.26432 v -1.05781 z m 0,1.85103 v 1.10172 h -0.26432 v -1.10172 z m 0,1.89494 v 1.05781 h -0.26432 v -1.05781 z m 0,1.85103 v 1.10172 h -0.26432 v -1.10172 z m 0,1.89494 v 1.05781 h -0.26432 v -1.05781 z m 0,1.85103 v 1.05754 h -0.26432 v -1.05754 z m 0,1.89495 v 1.0578 h -0.26432 v -1.0578 z m 0,1.85102 v 1.10173 h -0.26432 v -1.10173 z m 0,1.89495 v 1.0578 h -0.26432 v -1.0578 z m 0,1.85102 v 1.10173 h -0.26432 v -1.10173 z m 0,1.89495 v 1.0578 h -0.26432 v -1.0578 z m 0,1.85102 v 1.05754 h -0.26432 v -1.05754 z m 0,1.89495 v 1.05754 h -0.26432 v -1.05754 z m 0,1.85102 v 1.10173 h -0.26432 v -1.10173 z m 0,1.89495 v 1.05754 h -0.26432 v -1.05754 z m 0,1.85076 v 1.10199 h -0.26432 v -1.10199 z m 0,1.89521 v 1.05754 h -0.26432 v -1.05754 z m 0,1.85076 v 1.0578 h -0.26432 v -1.0578 z m 0,1.89521 v 1.05754 h -0.26432 v -1.05754 z m 0,1.85076 v 1.10173 h -0.26432 v -1.10173 z m 0,1.89521 v 1.05754 h -0.26432 v -1.05754 z m 0,1.85076 v 1.10173 h -0.26432 v -1.10173 z m 0,1.89495 v 1.0578 h -0.26432 v -1.0578 z m 0,1.85102 v 1.05781 h -0.26432 v -1.05781 z m 0,1.89495 v 1.0578 h -0.26432 v -1.0578 z m 0,1.85102 v 1.10173 h -0.26432 v -1.10173 z m 0,1.89495 v 1.0578 h -0.26432 v -1.0578 z m 0,1.85102 v 1.05754 h -0.26432 v -1.05754 z m 0,1.89495 v 1.0578 h -0.26432 v -1.0578 z m 0,1.85102 v 1.05754 h -0.26432 v -1.05754 z m 0,1.89495 v 1.0578 h -0.26432 v -1.0578 z m 0,1.85103 v 1.10172 h -0.26432 v -1.10172 z m 0,1.89494 v 1.05781 h -0.26432 v -1.05781 z m 0,1.85103 v 1.05754 h -0.26432 v -1.05754 z m 0,1.89494 v 1.05754 h -0.26432 v -1.05754 z m 0,1.85103 v 1.05754 h -0.26432 v -1.05754 z m 0,1.89494 v 1.05754 h -0.26432 v -1.05754 z m 0,1.85103 v 1.10172 h -0.26432 v -1.10172 z m 0,1.89494 v 1.05754 h -0.26432 v -1.05754 z m 0,1.85076 v 1.05781 h -0.26432 v -1.05781 z m 0,1.89521 v 0.26432 h -0.26432 v -0.26432 z m 58.48773,-142.34607 v 1.05768 h -0.26459 v -1.05768 z m 0,1.895 v 1.05768 h -0.26459 v -1.05768 z m 0,1.85095 v 1.05767 h -0.26459 v -1.05767 z m 0,1.85092 v 1.10175 h -0.26459 v -1.10175 z m 0,1.89502 v 1.05768 h -0.26459 v -1.05768 z m 0,1.89498 v 1.0578 h -0.26459 v -1.0578 z m 0,1.85102 v 1.05754 h -0.26459 v -1.05754 z m 0,1.89495 v 1.0578 h -0.26459 v -1.0578 z m 0,1.85102 v 1.05754 h -0.26459 v -1.05754 z m 0,1.85076 v 1.10173 h -0.26459 v -1.10173 z m 0,1.89521 v 1.05754 h -0.26459 v -1.05754 z m 0,1.89495 v 1.05754 h -0.26459 v -1.05754 z m 0,1.85102 v 1.05754 h -0.26459 v -1.05754 z m 0,1.89495 v 1.05754 h -0.26459 v -1.05754 z m 0,1.85076 v 1.0578 h -0.26459 v -1.0578 z m 0,1.85102 v 1.10173 h -0.26459 v -1.10173 z m 0,1.89495 v 1.0578 h -0.26459 v -1.0578 z m 0,1.89521 v 1.05754 h -0.26459 v -1.05754 z m 0,1.85076 v 1.0578 h -0.26459 v -1.0578 z m 0,1.85103 v 1.10172 h -0.26459 v -1.10172 z m 0,1.89494 v 1.05781 h -0.26459 v -1.05781 z m 0,1.85103 v 1.10172 h -0.26459 v -1.10172 z m 0,1.89494 v 1.05781 h -0.26459 v -1.05781 z m 0,1.89495 v 1.0578 h -0.26459 v -1.0578 z m 0,1.85102 v 1.05781 h -0.26459 v -1.05781 z m 0,1.85103 v 1.10172 h -0.26459 v -1.10172 z m 0,1.89494 v 1.05754 h -0.26459 v -1.05754 z m 0,1.85103 v 1.10172 h -0.26459 v -1.10172 z m 0,1.89494 v 1.05754 h -0.26459 v -1.05754 z m 0,1.89495 v 1.0578 h -0.26459 v -1.0578 z m 0,1.85103 v 1.05753 h -0.26459 v -1.05753 z m 0,1.85076 v 1.10172 h -0.26459 v -1.10172 z m 0,1.89521 v 1.05754 h -0.26459 v -1.05754 z m 0,1.85076 v 1.10172 h -0.26459 v -1.10172 z m 0,1.89521 v 1.05754 h -0.26459 v -1.05754 z m 0,1.85076 v 1.10172 h -0.26459 v -1.10172 z m 0,1.89494 v 1.05781 h -0.26459 v -1.05781 z m 0,1.85103 v 1.10172 h -0.26459 v -1.10172 z m 0,1.89494 v 1.05781 h -0.26459 v -1.05781 z m 0,1.85103 v 1.10172 h -0.26459 v -1.10172 z m 0,1.89494 v 1.05781 h -0.26459 v -1.05781 z m 0,1.85103 v 1.05754 h -0.26459 v -1.05754 z m 0,1.89495 v 1.0578 h -0.26459 v -1.0578 z m 0,1.85102 v 1.10173 h -0.26459 v -1.10173 z m 0,1.89495 v 1.0578 h -0.26459 v -1.0578 z m 0,1.85102 v 1.10173 h -0.26459 v -1.10173 z m 0,1.89495 v 1.0578 h -0.26459 v -1.0578 z m 0,1.85102 v 1.05754 h -0.26459 v -1.05754 z m 0,1.89495 v 1.05754 h -0.26459 v -1.05754 z m 0,1.85102 v 1.10173 h -0.26459 v -1.10173 z m 0,1.89495 v 1.05754 h -0.26459 v -1.05754 z m 0,1.85076 v 1.10199 h -0.26459 v -1.10199 z m 0,1.89521 v 1.05754 h -0.26459 v -1.05754 z m 0,1.85076 v 1.0578 h -0.26459 v -1.0578 z m 0,1.89521 v 1.05754 h -0.26459 v -1.05754 z m 0,1.85076 v 1.10173 h -0.26459 v -1.10173 z m 0,1.89521 v 1.05754 h -0.26459 v -1.05754 z m 0,1.85076 v 1.10173 h -0.26459 v -1.10173 z m 0,1.89495 v 1.0578 h -0.26459 v -1.0578 z m 0,1.85102 v 1.05781 h -0.26459 v -1.05781 z m 0,1.89495 v 1.0578 h -0.26459 v -1.0578 z m 0,1.85102 v 1.10173 h -0.26459 v -1.10173 z m 0,1.89495 v 1.0578 h -0.26459 v -1.0578 z m 0,1.85102 v 1.05754 h -0.26459 v -1.05754 z m 0,1.89495 v 1.0578 h -0.26459 v -1.0578 z m 0,1.85102 v 1.05754 h -0.26459 v -1.05754 z m 0,1.89495 v 1.0578 h -0.26459 v -1.0578 z m 0,1.85103 v 1.10172 h -0.26459 v -1.10172 z m 0,1.89494 v 1.05781 h -0.26459 v -1.05781 z m 0,1.85103 v 1.05754 h -0.26459 v -1.05754 z m 0,1.89494 v 1.05754 h -0.26459 v -1.05754 z m 0,1.85103 v 1.05754 h -0.26459 v -1.05754 z m 0,1.89494 v 1.05754 h -0.26459 v -1.05754 z m 0,1.85103 v 1.10172 h -0.26459 v -1.10172 z m 0,1.89494 v 1.05754 h -0.26459 v -1.05754 z m 0,1.85076 v 1.05781 h -0.26459 v -1.05781 z m 0,1.89521 v 0.26432 h -0.26459 v -0.26432 z m 58.44354,-142.34607 v 1.05768 h -0.26458 v -1.05768 z m 0,1.895 v 1.05768 h -0.26458 v -1.05768 z m 0,1.85095 v 1.05767 h -0.26458 v -1.05767 z m 0,1.85092 v 1.10175 h -0.26458 v -1.10175 z m 0,1.89502 v 1.05768 h -0.26458 v -1.05768 z m 0,1.89498 v 1.0578 h -0.26458 v -1.0578 z m 0,1.85102 v 1.05754 h -0.26458 v -1.05754 z m 0,1.89495 v 1.0578 h -0.26458 v -1.0578 z m 0,1.85102 v 1.05754 h -0.26458 v -1.05754 z m 0,1.85076 v 1.10173 h -0.26458 v -1.10173 z m 0,1.89521 v 1.05754 h -0.26458 v -1.05754 z m 0,1.89495 v 1.05754 h -0.26458 v -1.05754 z m 0,1.85102 v 1.05754 h -0.26458 v -1.05754 z m 0,1.89495 v 1.05754 h -0.26458 v -1.05754 z m 0,1.85076 v 1.0578 h -0.26458 v -1.0578 z m 0,1.85102 v 1.10173 h -0.26458 v -1.10173 z m 0,1.89495 v 1.0578 h -0.26458 v -1.0578 z m 0,1.89521 v 1.05754 h -0.26458 v -1.05754 z m 0,1.85076 v 1.0578 h -0.26458 v -1.0578 z m 0,1.85103 v 1.10172 h -0.26458 v -1.10172 z m 0,1.89494 v 1.05781 h -0.26458 v -1.05781 z m 0,1.85103 v 1.10172 h -0.26458 v -1.10172 z m 0,1.89494 v 1.05781 h -0.26458 v -1.05781 z m 0,1.89495 v 1.0578 h -0.26458 v -1.0578 z m 0,1.85102 v 1.05781 h -0.26458 v -1.05781 z m 0,1.85103 v 1.10172 h -0.26458 v -1.10172 z m 0,1.89494 v 1.05754 h -0.26458 v -1.05754 z m 0,1.85103 v 1.10172 h -0.26458 v -1.10172 z m 0,1.89494 v 1.05754 h -0.26458 v -1.05754 z m 0,1.89495 v 1.0578 h -0.26458 v -1.0578 z m 0,1.85103 v 1.05753 h -0.26458 v -1.05753 z m 0,1.85076 v 1.10172 h -0.26458 v -1.10172 z m 0,1.89521 v 1.05754 h -0.26458 v -1.05754 z m 0,1.85076 v 1.10172 h -0.26458 v -1.10172 z m 0,1.89521 v 1.05754 h -0.26458 v -1.05754 z m 0,1.85076 v 1.10172 h -0.26458 v -1.10172 z m 0,1.89494 v 1.05781 h -0.26458 v -1.05781 z m 0,1.85103 v 1.10172 h -0.26458 v -1.10172 z m 0,1.89494 v 1.05781 h -0.26458 v -1.05781 z m 0,1.85103 v 1.10172 h -0.26458 v -1.10172 z m 0,1.89494 v 1.05781 h -0.26458 v -1.05781 z m 0,1.85103 v 1.05754 h -0.26458 v -1.05754 z m 0,1.89495 v 1.0578 h -0.26458 v -1.0578 z m 0,1.85102 v 1.10173 h -0.26458 v -1.10173 z m 0,1.89495 v 1.0578 h -0.26458 v -1.0578 z m 0,1.85102 v 1.10173 h -0.26458 v -1.10173 z m 0,1.89495 v 1.0578 h -0.26458 v -1.0578 z m 0,1.85102 v 1.05754 h -0.26458 v -1.05754 z m 0,1.89495 v 1.05754 h -0.26458 v -1.05754 z m 0,1.85102 v 1.10173 h -0.26458 v -1.10173 z m 0,1.89495 v 1.05754 h -0.26458 v -1.05754 z m 0,1.85076 v 1.10199 h -0.26458 v -1.10199 z m 0,1.89521 v 1.05754 h -0.26458 v -1.05754 z m 0,1.85076 v 1.0578 h -0.26458 v -1.0578 z m 0,1.89521 v 1.05754 h -0.26458 v -1.05754 z m 0,1.85076 v 1.10173 h -0.26458 v -1.10173 z m 0,1.89521 v 1.05754 h -0.26458 v -1.05754 z m 0,1.85076 v 1.10173 h -0.26458 v -1.10173 z m 0,1.89495 v 1.0578 h -0.26458 v -1.0578 z m 0,1.85102 v 1.05781 h -0.26458 v -1.05781 z m 0,1.89495 v 1.0578 h -0.26458 v -1.0578 z m 0,1.85102 v 1.10173 h -0.26458 v -1.10173 z m 0,1.89495 v 1.0578 h -0.26458 v -1.0578 z m 0,1.85102 v 1.05754 h -0.26458 v -1.05754 z m 0,1.89495 v 1.0578 h -0.26458 v -1.0578 z m 0,1.85102 v 1.05754 h -0.26458 v -1.05754 z m 0,1.89495 v 1.0578 h -0.26458 v -1.0578 z m 0,1.85103 v 1.10172 h -0.26458 v -1.10172 z m 0,1.89494 v 1.05781 h -0.26458 v -1.05781 z m 0,1.85103 v 1.05754 h -0.26458 v -1.05754 z m 0,1.89494 v 1.05754 h -0.26458 v -1.05754 z m 0,1.85103 v 1.05754 h -0.26458 v -1.05754 z m 0,1.89494 v 1.05754 h -0.26458 v -1.05754 z m 0,1.85103 v 1.10172 h -0.26458 v -1.10172 z m 0,1.89494 v 1.05754 h -0.26458 v -1.05754 z m 0,1.85076 v 1.05781 h -0.26458 v -1.05781 z m 0,1.89521 v 0.26432 h -0.26458 v -0.26432 z"
       stroke="#000000"
       stroke-width="0"
       stroke-linejoin="round"
       stroke-miterlimit="10"
       fill-rule="evenodd"
       id="path988" />
    <path
       d="m 713.74103,672.96325 3e-5,-142.61041"
       stroke="#000000"
       stroke-width="0.396888"
       stroke-linejoin="round"
       stroke-miterlimit="10"
       fill="none"
       fill-rule="evenodd"
       id="path990" />
    <path
       d="M 713.74103,672.96325 H 947.89727"
       stroke="#000000"
       stroke-width="0.396888"
       stroke-linejoin="round"
       stroke-miterlimit="10"
       fill="none"
       fill-rule="evenodd"
       id="path992" />
    <path
       d="m 714.53478,649.41533 11.72289,-1.2319 c 3.87535,-0.44238 7.80891,-0.89693 11.70358,-1.42319 3.89467,-0.46619 7.78933,-0.95673 11.72289,-1.51871 3.87509,-0.53816 7.78934,-1.1721 11.66442,-1.78197 3.93383,-0.60986 7.80892,-1.27952 11.66469,-1.98516 3.95314,-0.69374 7.8478,-1.41129 11.76179,-2.26034 3.85577,-0.78925 7.78933,-1.66238 11.684,-2.6072 3.91424,-0.92075 7.78933,-1.92538 11.66468,-3.03769 3.95288,-1.10013 7.80865,-2.28414 11.72289,-3.61156 3.87509,-1.32768 7.82823,-2.7387 11.70332,-4.31747 3.87535,-1.59041 7.78933,-3.32449 11.6451,-5.28584 3.95314,-1.99734 7.82823,-4.07829 11.76206,-6.62544 3.85551,-2.52359 7.80864,-5.17842 11.684,-8.47936 3.93356,-3.31259 7.76975,-6.79291 11.72289,-11.3374 3.87509,-4.53257 7.80865,-9.22046 11.66442,-15.82208 3.89467,-6.63734 7.84781,-13.23896 11.70358,-23.83499 3.89467,-10.53624 4.65402,-15.95369 7.53613,-24.69594"
       stroke="#000000"
       stroke-width="1.63161"
       stroke-linecap="round"
       stroke-linejoin="round"
       stroke-miterlimit="10"
       fill="none"
       fill-rule="evenodd"
       id="path994" />
    <path
       d="m 713.74103,650.49245 c 3.92694,-0.42571 7.8097,-0.76623 11.73638,-1.19194 3.88276,-0.42598 7.80971,-0.8091 11.69247,-1.27741 3.92695,-0.46832 7.80971,-0.93663 11.73639,-1.44754 3.88276,-0.51091 7.8097,-1.06442 11.69246,-1.61792 3.92695,-0.59611 7.80971,-1.19195 11.69247,-1.83066 3.92668,-0.6387 7.80944,-1.32 11.73639,-2.08624 3.88276,-0.7239 7.8097,-1.49013 11.69246,-2.34156 3.92669,-0.85169 7.80945,-1.74572 11.69221,-2.72494 3.92694,-0.97923 7.8097,-2.00105 11.73665,-3.19326 3.88276,-1.14935 7.80944,-2.34156 11.6922,-3.7039 3.88276,-1.40494 7.80971,-2.85274 11.69247,-4.4704 3.92694,-1.66053 7.8097,-3.40625 11.73638,-5.40729 3.88276,-2.00104 7.80971,-4.17222 11.69247,-6.64157 3.92695,-2.46936 7.80971,-5.1517 11.73639,-8.21717 3.88276,-3.10806 7.8097,-6.47144 11.69246,-10.3034 3.88276,-3.8317 7.80971,-8.2169 11.69247,-12.6873 3.92668,-4.4704 7.80944,-10.3034 11.73639,-14.1351 3.88276,-3.83196 7.76552,-11.19743 11.69246,-8.81327 2.55905,1.53273 9.13316,10.4312 11.69274,22.94837 3.92641,19.15901 7.80785,61.26612 11.69193,91.87788"
       stroke="#000000"
       stroke-width="1.05833"
       stroke-linecap="round"
       stroke-linejoin="round"
       stroke-miterlimit="10"
       stroke-dasharray="3.175, 4.23333"
       fill="none"
       fill-rule="evenodd"
       id="path996" />
    <text
       font-family="Arial, Arial_MSFontService, sans-serif"
       font-weight="400"
       font-size="10.5833px"
       id="text998"
       x="700.99689"
       y="677.19659"
       style="stroke-width:0.264583">0</text>
    <text
       font-family="Arial, Arial_MSFontService, sans-serif"
       font-weight="400"
       font-size="10.8479px"
       id="text1000"
       x="700.99689"
       y="653.64868"
       style="stroke-width:0.264583">1</text>
    <text
       font-family="Arial, Arial_MSFontService, sans-serif"
       font-weight="400"
       font-size="10.5833px"
       id="text1002"
       x="700.99689"
       y="629.57159"
       style="stroke-width:0.264583">2</text>
    <text
       font-family="Arial, Arial_MSFontService, sans-serif"
       font-weight="400"
       font-size="10.5833px"
       id="text1004"
       x="700.99689"
       y="605.75909"
       style="stroke-width:0.264583">3</text>
    <text
       font-family="Arial, Arial_MSFontService, sans-serif"
       font-weight="400"
       font-size="10.8479px"
       id="text1006"
       x="700.99689"
       y="582.21118"
       style="stroke-width:0.264583">4</text>
    <text
       font-family="Arial, Arial_MSFontService, sans-serif"
       font-weight="400"
       font-size="10.5833px"
       id="text1008"
       x="700.99689"
       y="558.13409"
       style="stroke-width:0.264583">5</text>
    <text
       font-family="Arial, Arial_MSFontService, sans-serif"
       font-weight="400"
       font-size="10.5833px"
       id="text1010"
       x="700.99689"
       y="534.58618"
       style="stroke-width:0.264583">6</text>
    <text
       font-family="Arial, Arial_MSFontService, sans-serif"
       font-weight="400"
       font-size="10.5833px"
       id="text1012"
       x="711.18329"
       y="689.63202"
       style="stroke-width:0.264583">0</text>
    <text
       font-family="Arial, Arial_MSFontService, sans-serif"
       font-weight="400"
       font-size="10.5833px"
       id="text1014"
       x="762.99768"
       y="689.63202"
       style="stroke-width:0.264583">0.25</text>
    <text
       font-family="Arial, Arial_MSFontService, sans-serif"
       font-weight="400"
       font-size="10.5833px"
       id="text1016"
       x="824.20459"
       y="689.63202"
       style="stroke-width:0.264583">0.5</text>
    <text
       font-family="Arial, Arial_MSFontService, sans-serif"
       font-weight="400"
       font-size="10.5833px"
       id="text1018"
       x="880.03168"
       y="689.63202"
       style="stroke-width:0.264583">0.75</text>
    <text
       font-family="Arial, Arial_MSFontService, sans-serif"
       font-weight="400"
       font-size="10.5833px"
       id="text1020"
       x="944.67731"
       y="689.63202"
       style="stroke-width:0.264583">1</text>
    <text
       font-family="Arial, Arial_MSFontService, sans-serif"
       font-weight="400"
       font-size="10.8479px"
       id="text1022"
       x="827.02686"
       y="702.59656"
       style="stroke-width:0.264583">D</text>
    <text
       font-family="Arial, Arial_MSFontService, sans-serif"
       font-weight="400"
       font-size="8.46667px"
       id="text1024"
       x="841.29242"
       y="550.46118"
       style="stroke-width:0.264583">M=1/(1</text>
    <text
       font-family="Arial, Arial_MSFontService, sans-serif"
       font-weight="400"
       font-size="8.46667px"
       id="text1026"
       x="867.88306"
       y="550.46118"
       style="stroke-width:0.264583">-</text>
    <text
       font-family="Arial, Arial_MSFontService, sans-serif"
       font-weight="400"
       font-size="8.46667px"
       id="text1028"
       x="870.70532"
       y="550.46118"
       style="stroke-width:0.264583">D)</text>
    <path
       d="m 880.29623,541.50952 h 22.66104 v 0.17621 h -22.66104 z m 22.30808,-0.97023 2.11667,1.05834 -2.11667,1.05833 z"
       id="path1030"
       style="stroke-width:0.264583" />
    <text
       font-family="Arial, Arial_MSFontService, sans-serif"
       font-weight="400"
       font-size="11.3771px"
       id="text1032"
       x="847.76544"
       y="541.46533"
       style="stroke-width:0.264583">Ideal</text>
    <text
       font-family="Arial, Arial_MSFontService, sans-serif"
       font-weight="400"
       font-size="10.8479px"
       id="text1034"
       x="713.66089"
       y="524.2674"
       style="stroke-width:0.264583">M=V</text>
    <text
       font-family="Arial, Arial_MSFontService, sans-serif"
       font-weight="400"
       font-size="7.40833px"
       id="text1036"
       x="736.45923"
       y="526.64868"
       style="stroke-width:0.264583">0</text>
    <text
       font-family="Arial, Arial_MSFontService, sans-serif"
       font-weight="400"
       font-size="10.8479px"
       id="text1038"
       x="740.51605"
       y="524.2674"
       style="stroke-width:0.264583">/</text>
    <text
       font-family="Arial, Arial_MSFontService, sans-serif"
       font-weight="400"
       font-size="10.8479px"
       id="text1040"
       x="743.55878"
       y="524.2674"
       style="stroke-width:0.264583">V</text>
    <text
       font-family="Arial, Arial_MSFontService, sans-serif"
       font-weight="400"
       font-size="7.40833px"
       id="text1042"
       x="750.63745"
       y="526.64868"
       style="stroke-width:0.264583">i</text>
    <text
       font-family="Arial, Arial_MSFontService, sans-serif"
       font-weight="400"
       font-size="11.3771px"
       id="text1044"
       x="894.92188"
       y="614.75494"
       style="stroke-width:0.264583">Real</text>
    <path
       d="m 919.98373,612.41785 h 18.86479 v 0.17622 h -18.86479 z m 18.5129,-0.97022 2.11666,1.05833 -2.11666,1.05833 z"
       id="path1046"
       style="stroke-width:0.264583" />
  </g>
</svg>
