<?xml version="1.0" encoding="UTF-8" standalone="no"?>
<svg
   width="125.09783mm"
   height="72.330467mm"
   viewBox="0 0 125.09783 72.330467"
   version="1.1"
   id="svg9351"
   inkscape:version="1.2.1 (9c6d41e410, 2022-07-14)"
   sodipodi:docname="Figure8.43a.svg"
   xmlns:inkscape="http://www.inkscape.org/namespaces/inkscape"
   xmlns:sodipodi="http://sodipodi.sourceforge.net/DTD/sodipodi-0.dtd"
   xmlns="http://www.w3.org/2000/svg"
   xmlns:svg="http://www.w3.org/2000/svg"
   xmlns:rdf="http://www.w3.org/1999/02/22-rdf-syntax-ns#"
   xmlns:cc="http://creativecommons.org/ns#"
   xmlns:dc="http://purl.org/dc/elements/1.1/">
  <defs
     id="defs9345">
    <clipPath
       id="clip0">
      <rect
         x="626"
         y="69"
         width="500"
         height="303"
         id="rect18536" />
    </clipPath>
    <clipPath
       id="clip0-5">
      <rect
         x="628"
         y="381"
         width="500"
         height="301"
         id="rect7673" />
    </clipPath>
  </defs>
  <sodipodi:namedview
     id="base"
     pagecolor="#ffffff"
     bordercolor="#666666"
     borderopacity="1.0"
     inkscape:pageopacity="0.0"
     inkscape:pageshadow="2"
     inkscape:zoom="1.5545333"
     inkscape:cx="236.40535"
     inkscape:cy="136.69697"
     inkscape:document-units="mm"
     inkscape:current-layer="layer1"
     inkscape:document-rotation="0"
     showgrid="false"
     fit-margin-top="0"
     fit-margin-left="0"
     fit-margin-right="0"
     fit-margin-bottom="0"
     inkscape:window-width="1258"
     inkscape:window-height="1040"
     inkscape:window-x="78"
     inkscape:window-y="0"
     inkscape:window-maximized="0"
     inkscape:showpageshadow="2"
     inkscape:pagecheckerboard="0"
     inkscape:deskcolor="#d1d1d1" />
  <metadata
     id="metadata9348">
    <rdf:RDF>
      <cc:Work
         rdf:about="">
        <dc:format>image/svg+xml</dc:format>
        <dc:type
           rdf:resource="http://purl.org/dc/dcmitype/StillImage" />
        <dc:title />
      </cc:Work>
    </rdf:RDF>
  </metadata>
  <g
     inkscape:label="Capa 1"
     inkscape:groupmode="layer"
     id="layer1"
     transform="translate(-296.48076,-306.566)">
    <g
       clip-path="url(#clip0-5)"
       transform="matrix(0.26458333,0,0,0.26458333,125.64214,202.36771)"
       id="g7732">
      <path
         d="m 741,641.502 -0.972,-228.333 1,-0.004 0.972,228.333 z m -4.466,-226.985 3.966,-8.017 4.034,7.983 z"
         id="path7678" />
      <path
         d="m 732.5,633 h 379.33 v 1 H 732.5 Z m 378,-3.5 8,4 -8,4 z"
         id="path7680" />
      <text
         font-family="Arial, Arial_MSFontService, sans-serif"
         font-weight="400"
         font-size="24px"
         transform="translate(755.095,411)"
         id="text7696">I<tspan
   font-size="16px"
   x="6.6666899"
   y="5"
   id="tspan7682">G</tspan><tspan
   font-size="24px"
   x="-111.644"
   y="57"
   id="tspan7684">I</tspan><tspan
   font-size="16px"
   x="-104.977"
   y="62"
   id="tspan7686">SC</tspan><tspan
   font-size="24px"
   x="-82.810204"
   y="57"
   id="tspan7688">=</tspan>I<tspan
   font-size="16px"
   x="-62.1436"
   y="62"
   id="tspan7690">MPP</tspan><tspan
   font-size="24px"
   x="256.75299"
   y="251"
   id="tspan7692">V</tspan><tspan
   font-size="16px"
   x="272.754"
   y="256"
   id="tspan7694">OC</tspan></text>
      <path
         d="m 940.5,465.5 1,171"
         stroke="#000000"
         stroke-linejoin="round"
         stroke-miterlimit="10"
         stroke-dasharray="4, 3"
         fill="none"
         fill-rule="evenodd"
         id="path7698" />
      <text
         font-family="Arial, Arial_MSFontService, sans-serif"
         font-weight="400"
         font-size="24px"
         transform="translate(915.621,659)"
         id="text7704">V<tspan
   font-size="16px"
   x="16"
   y="5"
   id="tspan7700">MPP</tspan><tspan
   font-size="24px"
   x="-181.351"
   y="1"
   id="tspan7702">0</tspan></text>
      <path
         d="m 937.5,465.5 c 0,-2.209 1.791,-4 4,-4 2.209,0 4,1.791 4,4 0,2.209 -1.791,4 -4,4 -2.209,0 -4,-1.791 -4,-4 z"
         stroke="#000000"
         stroke-width="1.33333"
         stroke-miterlimit="8"
         fill-rule="evenodd"
         id="path7706" />
      <text
         font-family="Arial, Arial_MSFontService, sans-serif"
         font-weight="400"
         font-size="24px"
         transform="translate(1085.51,662)"
         id="text7710">V<tspan
   font-size="16px"
   x="16"
   y="5"
   id="tspan7708">G</tspan></text>
      <path
         d="m 972.5,600.5 h 40.16"
         stroke="#000000"
         stroke-width="0.666667"
         stroke-miterlimit="8"
         fill="none"
         fill-rule="evenodd"
         id="path7712" />
      <path
         d="m 20.3149,0.875149 0.7106,0.262591 2.5585,1.66304 2.2981,2.23426 1.8478,2.73981 1.3982,3.11425 0.8891,3.4294 0.3149,3.6529 -0.6642,0.0572 -0.3125,-3.625 0.0094,0.0551 -0.875,-3.375 0.0186,0.0528 -1.375,-3.06247 0.0277,0.04985 -1.8125,-2.6875 0.044,0.05262 -2.25,-2.1875 0.0507,0.04048 -2.5,-1.625 0.0661,0.03318 -0.6756,-0.24968 z M 20.1994,1.18781 21.9082,5.68126 15,0 23.6899,-2.11781 Z"
         transform="matrix(-1,0,0,1,1012.5,580.5)"
         id="path7714" />
      <path
         d="M 0,0 201.323,1.04987e-4"
         stroke="#000000"
         stroke-width="4"
         stroke-miterlimit="8"
         fill="none"
         fill-rule="evenodd"
         transform="matrix(1,0,0,-1,738,465)"
         id="path7716" />
      <path
         d="m 940,464 88.09,169.184"
         stroke="#000000"
         stroke-width="4"
         stroke-miterlimit="8"
         fill="none"
         fill-rule="evenodd"
         id="path7718" />
      <text
         font-family="Arial, Arial_MSFontService, sans-serif"
         font-weight="400"
         font-size="21px"
         transform="translate(943.185,576)"
         id="text7722">1/R<tspan
   font-size="14px"
   x="33.166599"
   y="4"
   id="tspan7720">S</tspan></text>
      <path
         d="m 736.5,464.5 c 0,-2.209 1.791,-4 4,-4 2.209,0 4,1.791 4,4 0,2.209 -1.791,4 -4,4 -2.209,0 -4,-1.791 -4,-4 z"
         stroke="#000000"
         stroke-width="1.33333"
         stroke-miterlimit="8"
         fill-rule="evenodd"
         id="path7724" />
      <path
         d="m 1024.5,632.5 c 0,-2.209 1.79,-4 4,-4 2.21,0 4,1.791 4,4 0,2.209 -1.79,4 -4,4 -2.21,0 -4,-1.791 -4,-4 z"
         stroke="#000000"
         stroke-width="1.33333"
         stroke-miterlimit="8"
         fill-rule="evenodd"
         id="path7726" />
      <text
         font-family="Arial, Arial_MSFontService, sans-serif"
         font-weight="400"
         font-size="24px"
         transform="translate(946.138,453)"
         id="text7730">P<tspan
   font-size="16px"
   x="16"
   y="5"
   id="tspan7728">PV</tspan></text>
    </g>
  </g>
</svg>
