<?xml version="1.0" encoding="UTF-8" standalone="no"?>
<svg
   xmlns:dc="http://purl.org/dc/elements/1.1/"
   xmlns:cc="http://creativecommons.org/ns#"
   xmlns:rdf="http://www.w3.org/1999/02/22-rdf-syntax-ns#"
   xmlns:svg="http://www.w3.org/2000/svg"
   xmlns="http://www.w3.org/2000/svg"
   xmlns:sodipodi="http://sodipodi.sourceforge.net/DTD/sodipodi-0.dtd"
   xmlns:inkscape="http://www.inkscape.org/namespaces/inkscape"
   width="254.81795mm"
   height="190.19745mm"
   viewBox="0 0 254.81795 190.19745"
   version="1.1"
   id="svg12241"
   inkscape:version="1.0.2-2 (e86c870879, 2021-01-15)"
   sodipodi:docname="Figure8.24b.svg">
  <defs
     id="defs12235">
    <clipPath
       id="clip0">
      <rect
         x="161"
         y="-26"
         width="1019"
         height="780"
         id="rect12804" />
    </clipPath>
  </defs>
  <sodipodi:namedview
     id="base"
     pagecolor="#ffffff"
     bordercolor="#666666"
     borderopacity="1.0"
     inkscape:pageopacity="0.0"
     inkscape:pageshadow="2"
     inkscape:zoom="0.35"
     inkscape:cx="244.4029"
     inkscape:cy="659.42826"
     inkscape:document-units="mm"
     inkscape:current-layer="layer1"
     inkscape:document-rotation="0"
     showgrid="false"
     fit-margin-top="0"
     fit-margin-left="0"
     fit-margin-right="0"
     fit-margin-bottom="0"
     inkscape:window-width="1258"
     inkscape:window-height="1040"
     inkscape:window-x="52"
     inkscape:window-y="0"
     inkscape:window-maximized="0" />
  <metadata
     id="metadata12238">
    <rdf:RDF>
      <cc:Work
         rdf:about="">
        <dc:format>image/svg+xml</dc:format>
        <dc:type
           rdf:resource="http://purl.org/dc/dcmitype/StillImage" />
        <dc:title></dc:title>
      </cc:Work>
    </rdf:RDF>
  </metadata>
  <g
     inkscape:label="Capa 1"
     inkscape:groupmode="layer"
     id="layer1"
     transform="translate(-41.1684,26.307061)">
    <path
       d="m 60.751623,97.612523 h 1.058863 v 0.264319 h -1.058863 z m 1.852878,0 h 1.102783 v 0.264319 h -1.102783 z m 1.896797,0 h 1.058863 v 0.264319 h -1.058863 z m 1.852878,0 h 1.058597 v 0.264319 h -1.058597 z m 1.896797,0 h 1.058863 v 0.264319 h -1.058863 z m 1.852877,0 h 1.058598 v 0.264319 H 70.10385 Z m 1.852613,0 h 1.103048 v 0.264319 h -1.103048 z m 1.897062,0 h 1.058598 v 0.264319 h -1.058598 z m 1.896798,0 h 1.058863 v 0.264319 h -1.058863 z m 1.852877,0 h 1.058598 v 0.264319 H 77.6032 Z m 1.852613,0 h 1.103048 v 0.264319 h -1.103048 z m 1.897062,0 h 1.058598 v 0.264319 h -1.058598 z m 1.852613,0 h 1.103048 v 0.264319 h -1.103048 z m 1.897062,0 h 1.058598 v 0.264319 H 85.10255 Z m 1.852613,0 h 1.058862 v 0.264319 h -1.058862 z m 1.897062,0 h 1.058598 v 0.264319 h -1.058598 z m 1.852877,0 h 1.102784 v 0.264319 h -1.102784 z m 1.896798,0 h 1.058598 v 0.264319 H 92.6019 Z m 1.852877,0 h 1.058598 v 0.264319 h -1.058598 z m 1.896798,0 h 1.058598 v 0.264319 h -1.058598 z m 1.852877,0 h 1.058598 v 0.264319 h -1.058598 z m 1.852608,0 h 1.10279 v 0.264319 h -1.10279 z m 1.89707,0 h 1.0586 v 0.264319 h -1.0586 z m 1.8968,0 h 1.05859 v 0.264319 h -1.05859 z m 1.85287,0 h 1.0586 v 0.264319 h -1.0586 z m 1.85261,0 h 1.10279 v 0.264319 h -1.10279 z m 1.89707,0 h 1.05859 v 0.264319 h -1.05859 z m 1.85261,0 h 1.10305 v 0.264319 h -1.10305 z m 1.89706,0 h 1.0586 v 0.264319 h -1.0586 z m 1.85261,0 h 1.05887 v 0.264319 h -1.05887 z m 1.89707,0 h 1.05859 v 0.264319 h -1.05859 z m 1.85261,0 h 1.10305 v 0.264319 h -1.10305 z m 1.89706,0 h 1.0586 v 0.264319 h -1.0586 z m 1.85261,0 h 1.05887 v 0.264319 h -1.05887 z m 1.89707,0 h 1.05859 v 0.264319 h -1.05859 z m 1.85261,0 h 1.05886 v 0.264319 h -1.05886 z m 1.85288,0 h 1.10278 v 0.264319 h -1.10278 z m 1.89679,0 h 1.05887 v 0.264319 h -1.05887 z m 1.89707,0 h 1.05859 v 0.264319 h -1.05859 z m 1.85261,0 h 1.05886 v 0.264319 h -1.05886 z m 1.85288,0 h 1.10278 v 0.264319 h -1.10278 z m 1.89679,0 h 1.05887 v 0.264319 h -1.05887 z m 1.85288,0 h 1.10278 v 0.264319 h -1.10278 z m 1.8968,0 h 1.05886 v 0.264319 h -1.05886 z m 1.85288,0 h 1.05886 v 0.264319 h -1.05886 z m 1.89679,0 h 1.05887 v 0.264319 h -1.05887 z m 1.85288,0 h 1.10278 v 0.264319 h -1.10278 z m 1.8968,0 h 1.05886 v 0.264319 h -1.05886 z m 1.85288,0 h 1.05886 v 0.264319 h -1.05886 z m 1.89679,0 h 1.05887 v 0.264319 h -1.05887 z m 1.85288,0 h 1.05886 v 0.264319 h -1.05886 z m 1.85288,0 h 1.10278 v 0.264319 h -1.10278 z m 1.8968,0 h 1.05886 v 0.264319 h -1.05886 z m 1.89706,0 h 1.0586 v 0.264319 h -1.0586 z m 1.85261,0 h 1.05886 v 0.264319 h -1.05886 z m 1.85288,0 h 1.10278 v 0.264319 h -1.10278 z m 1.8968,0 h 1.05886 v 0.264319 h -1.05886 z m 1.85287,0 h 1.10279 v 0.264319 h -1.10279 z m 1.8968,0 h 1.05886 v 0.264319 h -1.05886 z m 1.85288,0 h 1.0586 v 0.264319 h -1.0586 z m 1.8968,0 h 1.05886 v 0.264319 h -1.05886 z m 1.85287,0 h 1.10279 v 0.264319 h -1.10279 z m 1.8968,0 h 1.05886 v 0.264319 h -1.05886 z m 1.85288,0 h 1.0586 v 0.264319 h -1.0586 z m 1.8968,0 h 1.05886 v 0.264319 h -1.05886 z m 1.85287,0 h 1.0586 v 0.264319 h -1.0586 z m 1.85288,0 h 1.10278 v 0.264319 h -1.10278 z m 1.8968,0 h 1.05886 v 0.264319 h -1.05886 z m 1.8968,0 h 1.05886 v 0.264319 h -1.05886 z m 1.85287,0 h 1.05887 v 0.264319 h -1.05887 z m 1.85288,0 h 1.10278 v 0.264319 h -1.10278 z m 1.8968,0 h 1.05886 v 0.264319 h -1.05886 z m 1.85287,0 h 1.10279 v 0.264319 h -1.10279 z m 1.8968,0 h 1.05887 v 0.264319 h -1.05887 z m 1.85288,0 h 1.0586 v 0.264319 h -1.0586 z m 1.8968,0 h 1.05886 v 0.264319 h -1.05886 z m 1.85287,0 h 1.10279 v 0.264319 h -1.10279 z m 1.8968,0 h 1.05886 v 0.264319 h -1.05886 z m 1.85288,0 h 1.0586 v 0.264319 h -1.0586 z m 1.8968,0 h 1.05886 v 0.264319 h -1.05886 z m 1.85287,0 h 1.0586 v 0.264319 h -1.0586 z m 1.85262,0 h 1.10304 v 0.264319 h -1.10304 z m 1.89706,0 h 1.0586 v 0.264319 h -1.0586 z m 1.8968,0 h 1.05886 v 0.264319 h -1.05886 z m 1.85287,0 h 1.0586 v 0.264319 h -1.0586 z m 1.85262,0 h 1.10304 v 0.264319 h -1.10304 z m 1.89706,0 h 1.0586 v 0.264319 h -1.0586 z m 1.85261,0 h 1.10305 v 0.264319 h -1.10305 z m 1.89706,0 h 1.0586 v 0.264319 h -1.0586 z m 1.85262,0 h 1.05886 v 0.264319 h -1.05886 z m 1.89706,0 h 1.0586 v 0.264319 h -1.0586 z m 1.85288,0 h 1.10278 v 0.264319 h -1.10278 z m 1.89679,0 h 1.0586 v 0.264319 h -1.0586 z m 1.85288,0 h 1.0586 v 0.264319 h -1.0586 z m 1.8968,0 h 1.0586 v 0.264319 h -1.0586 z m 1.85288,0 h 1.05859 v 0.264319 h -1.05859 z m 1.85261,0 h 1.10278 v 0.264319 h -1.10278 z m 1.89706,0 h 1.0586 v 0.264319 h -1.0586 z m 1.8968,0 h 1.0586 v 0.264319 h -1.0586 z m 1.85288,0 h 1.05859 v 0.264319 h -1.05859 z m 1.85261,0 h 1.10278 v 0.264319 h -1.10278 z m 1.89706,0 h 1.0586 v 0.264319 h -1.0586 z m 1.85261,0 h 1.10305 v 0.264319 h -1.10305 z m 1.89707,0 h 1.05859 v 0.264319 h -1.05859 z m 1.85261,0 h 1.05886 v 0.264319 h -1.05886 z m 1.89759,0 h 1.05833 v 0.264319 h -1.05833 z m 1.85208,0 h 1.10332 v 0.264319 h -1.10332 z m 1.89707,0 h 1.05833 v 0.264319 h -1.05833 z m 1.85208,0 h 1.05833 v 0.264319 h -1.05833 z m 1.89706,0 h 1.05834 v 0.264319 h -1.05834 z m 1.85209,0 h 1.06097 v 0.264319 h -1.06097 z m 1.85472,0 h 1.10332 v 0.264319 h -1.10332 z m 1.89707,0 h 1.05833 v 0.264319 h -1.05833 z m 1.89706,0 h 1.05833 v 0.264319 h -1.05833 z m 1.85208,0 h 1.05834 v 0.264319 h -1.05834 z m 1.85209,0 h 1.10331 v 0.264319 h -1.10331 z m 1.89706,0 h 1.05833 v 0.264319 h -1.05833 z m 1.85208,0 h 1.10331 v 0.264319 h -1.10331 z m 1.89706,0 h 1.05834 v 0.264319 h -1.05834 z m 1.85473,0 h 1.05834 v 0.264319 h -1.05834 z m 1.89442,0 h 1.06098 v 0.264319 h -1.06098 z m 1.85473,0 h 1.10331 v 0.264319 h -1.10331 z m 1.89706,0 h 1.05833 v 0.264319 h -1.05833 z m 1.85208,0 h 1.05834 v 0.264319 h -1.05834 z m 1.89707,0 h 1.05833 v 0.264319 h -1.05833 z M 60.751623,62.011249 h 1.058863 v 0.264319 h -1.058863 z m 1.852878,0 h 1.102783 v 0.264319 h -1.102783 z m 1.896797,0 h 1.058863 v 0.264319 h -1.058863 z m 1.852878,0 h 1.058597 v 0.264319 h -1.058597 z m 1.896797,0 h 1.058863 v 0.264319 h -1.058863 z m 1.852877,0 h 1.058598 v 0.264319 H 70.10385 Z m 1.852613,0 h 1.103048 v 0.264319 h -1.103048 z m 1.897062,0 h 1.058598 v 0.264319 h -1.058598 z m 1.896798,0 h 1.058863 v 0.264319 h -1.058863 z m 1.852877,0 h 1.058598 v 0.264319 H 77.6032 Z m 1.852613,0 h 1.103048 v 0.264319 h -1.103048 z m 1.897062,0 h 1.058598 v 0.264319 h -1.058598 z m 1.852613,0 h 1.103048 v 0.264319 h -1.103048 z m 1.897062,0 h 1.058598 v 0.264319 H 85.10255 Z m 1.852613,0 h 1.058862 v 0.264319 h -1.058862 z m 1.897062,0 h 1.058598 v 0.264319 h -1.058598 z m 1.852877,0 h 1.102784 v 0.264319 h -1.102784 z m 1.896798,0 h 1.058598 v 0.264319 H 92.6019 Z m 1.852877,0 h 1.058598 v 0.264319 h -1.058598 z m 1.896798,0 h 1.058598 v 0.264319 h -1.058598 z m 1.852877,0 h 1.058598 v 0.264319 h -1.058598 z m 1.852608,0 h 1.10279 v 0.264319 h -1.10279 z m 1.89707,0 h 1.0586 v 0.264319 h -1.0586 z m 1.8968,0 h 1.05859 v 0.264319 h -1.05859 z m 1.85287,0 h 1.0586 v 0.264319 h -1.0586 z m 1.85261,0 h 1.10279 v 0.264319 h -1.10279 z m 1.89707,0 h 1.05859 v 0.264319 h -1.05859 z m 1.85261,0 h 1.10305 v 0.264319 h -1.10305 z m 1.89706,0 h 1.0586 v 0.264319 h -1.0586 z m 1.85261,0 h 1.05887 v 0.264319 h -1.05887 z m 1.89707,0 h 1.05859 v 0.264319 h -1.05859 z m 1.85261,0 h 1.10305 v 0.264319 h -1.10305 z m 1.89706,0 h 1.0586 v 0.264319 h -1.0586 z m 1.85261,0 h 1.05887 v 0.264319 h -1.05887 z m 1.89707,0 h 1.05859 v 0.264319 h -1.05859 z m 1.85261,0 h 1.05886 v 0.264319 h -1.05886 z m 1.85288,0 h 1.10278 v 0.264319 h -1.10278 z m 1.89679,0 h 1.05887 v 0.264319 h -1.05887 z m 1.89707,0 h 1.05859 v 0.264319 h -1.05859 z m 1.85261,0 h 1.05886 v 0.264319 h -1.05886 z m 1.85288,0 h 1.10278 v 0.264319 h -1.10278 z m 1.89679,0 h 1.05887 v 0.264319 h -1.05887 z m 1.85288,0 h 1.10278 v 0.264319 h -1.10278 z m 1.8968,0 h 1.05886 v 0.264319 h -1.05886 z m 1.85288,0 h 1.05886 v 0.264319 h -1.05886 z m 1.89679,0 h 1.05887 v 0.264319 h -1.05887 z m 1.85288,0 h 1.10278 v 0.264319 h -1.10278 z m 1.8968,0 h 1.05886 v 0.264319 h -1.05886 z m 1.85288,0 h 1.05886 v 0.264319 h -1.05886 z m 1.89679,0 h 1.05887 v 0.264319 h -1.05887 z m 1.85288,0 h 1.05886 v 0.264319 h -1.05886 z m 1.85288,0 h 1.10278 v 0.264319 h -1.10278 z m 1.8968,0 h 1.05886 v 0.264319 h -1.05886 z m 1.89706,0 h 1.0586 v 0.264319 h -1.0586 z m 1.85261,0 h 1.05886 v 0.264319 h -1.05886 z m 1.85288,0 h 1.10278 v 0.264319 h -1.10278 z m 1.8968,0 h 1.05886 v 0.264319 h -1.05886 z m 1.85287,0 h 1.10279 v 0.264319 h -1.10279 z m 1.8968,0 h 1.05886 v 0.264319 h -1.05886 z m 1.85288,0 h 1.0586 v 0.264319 h -1.0586 z m 1.8968,0 h 1.05886 v 0.264319 h -1.05886 z m 1.85287,0 h 1.10279 v 0.264319 h -1.10279 z m 1.8968,0 h 1.05886 v 0.264319 h -1.05886 z m 1.85288,0 h 1.0586 v 0.264319 h -1.0586 z m 1.8968,0 h 1.05886 v 0.264319 h -1.05886 z m 1.85287,0 h 1.0586 v 0.264319 h -1.0586 z m 1.85288,0 h 1.10278 v 0.264319 h -1.10278 z m 1.8968,0 h 1.05886 v 0.264319 h -1.05886 z m 1.8968,0 h 1.05886 v 0.264319 h -1.05886 z m 1.85287,0 h 1.05887 v 0.264319 h -1.05887 z m 1.85288,0 h 1.10278 v 0.264319 h -1.10278 z m 1.8968,0 h 1.05886 v 0.264319 h -1.05886 z m 1.85287,0 h 1.10279 v 0.264319 h -1.10279 z m 1.8968,0 h 1.05887 v 0.264319 h -1.05887 z m 1.85288,0 h 1.0586 v 0.264319 h -1.0586 z m 1.8968,0 h 1.05886 v 0.264319 h -1.05886 z m 1.85287,0 h 1.10279 v 0.264319 h -1.10279 z m 1.8968,0 h 1.05886 v 0.264319 h -1.05886 z m 1.85288,0 h 1.0586 v 0.264319 h -1.0586 z m 1.8968,0 h 1.05886 v 0.264319 h -1.05886 z m 1.85287,0 h 1.0586 v 0.264319 h -1.0586 z m 1.85262,0 h 1.10304 v 0.264319 h -1.10304 z m 1.89706,0 h 1.0586 v 0.264319 h -1.0586 z m 1.8968,0 h 1.05886 v 0.264319 h -1.05886 z m 1.85287,0 h 1.0586 v 0.264319 h -1.0586 z m 1.85262,0 h 1.10304 v 0.264319 h -1.10304 z m 1.89706,0 h 1.0586 v 0.264319 h -1.0586 z m 1.85261,0 h 1.10305 v 0.264319 h -1.10305 z m 1.89706,0 h 1.0586 v 0.264319 h -1.0586 z m 1.85262,0 h 1.05886 v 0.264319 h -1.05886 z m 1.89706,0 h 1.0586 v 0.264319 h -1.0586 z m 1.85288,0 h 1.10278 v 0.264319 h -1.10278 z m 1.89679,0 h 1.0586 v 0.264319 h -1.0586 z m 1.85288,0 h 1.0586 v 0.264319 h -1.0586 z m 1.8968,0 h 1.0586 v 0.264319 h -1.0586 z m 1.85288,0 h 1.05859 v 0.264319 h -1.05859 z m 1.85261,0 h 1.10278 v 0.264319 h -1.10278 z m 1.89706,0 h 1.0586 v 0.264319 h -1.0586 z m 1.8968,0 h 1.0586 v 0.264319 h -1.0586 z m 1.85288,0 h 1.05859 v 0.264319 h -1.05859 z m 1.85261,0 h 1.10278 v 0.264319 h -1.10278 z m 1.89706,0 h 1.0586 v 0.264319 h -1.0586 z m 1.85261,0 h 1.10305 v 0.264319 h -1.10305 z m 1.89707,0 h 1.05859 v 0.264319 h -1.05859 z m 1.85261,0 h 1.05886 v 0.264319 h -1.05886 z m 1.89759,0 h 1.05833 v 0.264319 h -1.05833 z m 1.85208,0 h 1.10332 v 0.264319 h -1.10332 z m 1.89707,0 h 1.05833 v 0.264319 h -1.05833 z m 1.85208,0 h 1.05833 v 0.264319 h -1.05833 z m 1.89706,0 h 1.05834 v 0.264319 h -1.05834 z m 1.85209,0 h 1.06097 v 0.264319 h -1.06097 z m 1.85472,0 h 1.10332 v 0.264319 h -1.10332 z m 1.89707,0 h 1.05833 v 0.264319 h -1.05833 z m 1.89706,0 h 1.05833 v 0.264319 h -1.05833 z m 1.85208,0 h 1.05834 v 0.264319 h -1.05834 z m 1.85209,0 h 1.10331 v 0.264319 h -1.10331 z m 1.89706,0 h 1.05833 v 0.264319 h -1.05833 z m 1.85208,0 h 1.10331 v 0.264319 h -1.10331 z m 1.89706,0 h 1.05834 v 0.264319 h -1.05834 z m 1.85473,0 h 1.05834 v 0.264319 h -1.05834 z m 1.89442,0 h 1.06098 v 0.264319 h -1.06098 z m 1.85473,0 h 1.10331 v 0.264319 h -1.10331 z m 1.89706,0 h 1.05833 v 0.264319 h -1.05833 z m 1.85208,0 h 1.05834 v 0.264319 h -1.05834 z m 1.89707,0 h 1.05833 v 0.264319 h -1.05833 z M 60.751623,26.321868 h 1.058863 v 0.264319 h -1.058863 z m 1.852878,0 h 1.102783 v 0.264319 h -1.102783 z m 1.896797,0 h 1.058863 v 0.264319 h -1.058863 z m 1.852878,0 h 1.058597 v 0.264319 h -1.058597 z m 1.896797,0 h 1.058863 v 0.264319 h -1.058863 z m 1.852877,0 h 1.058598 v 0.264319 H 70.10385 Z m 1.852613,0 h 1.103048 v 0.264319 h -1.103048 z m 1.897062,0 h 1.058598 v 0.264319 h -1.058598 z m 1.896798,0 h 1.058863 v 0.264319 h -1.058863 z m 1.852877,0 h 1.058598 v 0.264319 H 77.6032 Z m 1.852613,0 h 1.103048 v 0.264319 h -1.103048 z m 1.897062,0 h 1.058598 v 0.264319 h -1.058598 z m 1.852613,0 h 1.103048 v 0.264319 h -1.103048 z m 1.897062,0 h 1.058598 v 0.264319 H 85.10255 Z m 1.852613,0 h 1.058862 v 0.264319 h -1.058862 z m 1.897062,0 h 1.058598 v 0.264319 h -1.058598 z m 1.852877,0 h 1.102784 v 0.264319 h -1.102784 z m 1.896798,0 h 1.058598 v 0.264319 H 92.6019 Z m 1.852877,0 h 1.058598 v 0.264319 h -1.058598 z m 1.896798,0 h 1.058598 v 0.264319 h -1.058598 z m 1.852877,0 h 1.058598 v 0.264319 h -1.058598 z m 1.852608,0 h 1.10279 v 0.264319 h -1.10279 z m 1.89707,0 h 1.0586 v 0.264319 h -1.0586 z m 1.8968,0 h 1.05859 v 0.264319 h -1.05859 z m 1.85287,0 h 1.0586 v 0.264319 h -1.0586 z m 1.85261,0 h 1.10279 v 0.264319 h -1.10279 z m 1.89707,0 h 1.05859 v 0.264319 h -1.05859 z m 1.85261,0 h 1.10305 v 0.264319 h -1.10305 z m 1.89706,0 h 1.0586 v 0.264319 h -1.0586 z m 1.85261,0 h 1.05887 v 0.264319 h -1.05887 z m 1.89707,0 h 1.05859 v 0.264319 h -1.05859 z m 1.85261,0 h 1.10305 v 0.264319 h -1.10305 z m 1.89706,0 h 1.0586 v 0.264319 h -1.0586 z m 1.85261,0 h 1.05887 v 0.264319 h -1.05887 z m 1.89707,0 h 1.05859 v 0.264319 h -1.05859 z m 1.85261,0 h 1.05886 v 0.264319 h -1.05886 z m 1.85288,0 h 1.10278 v 0.264319 h -1.10278 z m 1.89679,0 h 1.05887 v 0.264319 h -1.05887 z m 1.89707,0 h 1.05859 v 0.264319 h -1.05859 z m 1.85261,0 h 1.05886 v 0.264319 h -1.05886 z m 1.85288,0 h 1.10278 v 0.264319 h -1.10278 z m 1.89679,0 h 1.05887 v 0.264319 h -1.05887 z m 1.85288,0 h 1.10278 v 0.264319 h -1.10278 z m 1.8968,0 h 1.05886 v 0.264319 h -1.05886 z m 1.85288,0 h 1.05886 v 0.264319 h -1.05886 z m 1.89679,0 h 1.05887 v 0.264319 h -1.05887 z m 1.85288,0 h 1.10278 v 0.264319 h -1.10278 z m 1.8968,0 h 1.05886 v 0.264319 h -1.05886 z m 1.85288,0 h 1.05886 v 0.264319 h -1.05886 z m 1.89679,0 h 1.05887 v 0.264319 h -1.05887 z m 1.85288,0 h 1.05886 v 0.264319 h -1.05886 z m 1.85288,0 h 1.10278 v 0.264319 h -1.10278 z m 1.8968,0 h 1.05886 v 0.264319 h -1.05886 z m 1.89706,0 h 1.0586 v 0.264319 h -1.0586 z m 1.85261,0 h 1.05886 v 0.264319 h -1.05886 z m 1.85288,0 h 1.10278 v 0.264319 h -1.10278 z m 1.8968,0 h 1.05886 v 0.264319 h -1.05886 z m 1.85287,0 h 1.10279 v 0.264319 h -1.10279 z m 1.8968,0 h 1.05886 v 0.264319 h -1.05886 z m 1.85288,0 h 1.0586 v 0.264319 h -1.0586 z m 1.8968,0 h 1.05886 v 0.264319 h -1.05886 z m 1.85287,0 h 1.10279 v 0.264319 h -1.10279 z m 1.8968,0 h 1.05886 v 0.264319 h -1.05886 z m 1.85288,0 h 1.0586 v 0.264319 h -1.0586 z m 1.8968,0 h 1.05886 v 0.264319 h -1.05886 z m 1.85287,0 h 1.0586 v 0.264319 h -1.0586 z m 1.85288,0 h 1.10278 v 0.264319 h -1.10278 z m 1.8968,0 h 1.05886 v 0.264319 h -1.05886 z m 1.8968,0 h 1.05886 v 0.264319 h -1.05886 z m 1.85287,0 h 1.05887 v 0.264319 h -1.05887 z m 1.85288,0 h 1.10278 v 0.264319 h -1.10278 z m 1.8968,0 h 1.05886 v 0.264319 h -1.05886 z m 1.85287,0 h 1.10279 v 0.264319 h -1.10279 z m 1.8968,0 h 1.05887 v 0.264319 h -1.05887 z m 1.85288,0 h 1.0586 v 0.264319 h -1.0586 z m 1.8968,0 h 1.05886 v 0.264319 h -1.05886 z m 1.85287,0 h 1.10279 v 0.264319 h -1.10279 z m 1.8968,0 h 1.05886 v 0.264319 h -1.05886 z m 1.85288,0 h 1.0586 v 0.264319 h -1.0586 z m 1.8968,0 h 1.05886 v 0.264319 h -1.05886 z m 1.85287,0 h 1.0586 v 0.264319 h -1.0586 z m 1.85262,0 h 1.10304 v 0.264319 h -1.10304 z m 1.89706,0 h 1.0586 v 0.264319 h -1.0586 z m 1.8968,0 h 1.05886 v 0.264319 h -1.05886 z m 1.85287,0 h 1.0586 v 0.264319 h -1.0586 z m 1.85262,0 h 1.10304 v 0.264319 h -1.10304 z m 1.89706,0 h 1.0586 v 0.264319 h -1.0586 z m 1.85261,0 h 1.10305 v 0.264319 h -1.10305 z m 1.89706,0 h 1.0586 v 0.264319 h -1.0586 z m 1.85262,0 h 1.05886 v 0.264319 h -1.05886 z m 1.89706,0 h 1.0586 v 0.264319 h -1.0586 z m 1.85288,0 h 1.10278 v 0.264319 h -1.10278 z m 1.89679,0 h 1.0586 v 0.264319 h -1.0586 z m 1.85288,0 h 1.0586 v 0.264319 h -1.0586 z m 1.8968,0 h 1.0586 v 0.264319 h -1.0586 z m 1.85288,0 h 1.05859 v 0.264319 h -1.05859 z m 1.85261,0 h 1.10278 v 0.264319 h -1.10278 z m 1.89706,0 h 1.0586 v 0.264319 h -1.0586 z m 1.8968,0 h 1.0586 v 0.264319 h -1.0586 z m 1.85288,0 h 1.05859 v 0.264319 h -1.05859 z m 1.85261,0 h 1.10278 v 0.264319 h -1.10278 z m 1.89706,0 h 1.0586 v 0.264319 h -1.0586 z m 1.85261,0 h 1.10305 v 0.264319 h -1.10305 z m 1.89707,0 h 1.05859 v 0.264319 h -1.05859 z m 1.85261,0 h 1.05886 v 0.264319 h -1.05886 z m 1.89759,0 h 1.05833 v 0.264319 h -1.05833 z m 1.85208,0 h 1.10332 v 0.264319 h -1.10332 z m 1.89707,0 h 1.05833 v 0.264319 h -1.05833 z m 1.85208,0 h 1.05833 v 0.264319 h -1.05833 z m 1.89706,0 h 1.05834 v 0.264319 h -1.05834 z m 1.85209,0 h 1.06097 v 0.264319 h -1.06097 z m 1.85472,0 h 1.10332 v 0.264319 h -1.10332 z m 1.89707,0 h 1.05833 v 0.264319 h -1.05833 z m 1.89706,0 h 1.05833 v 0.264319 h -1.05833 z m 1.85208,0 h 1.05834 v 0.264319 h -1.05834 z m 1.85209,0 h 1.10331 v 0.264319 h -1.10331 z m 1.89706,0 h 1.05833 v 0.264319 h -1.05833 z m 1.85208,0 h 1.10331 v 0.264319 h -1.10331 z m 1.89706,0 h 1.05834 v 0.264319 h -1.05834 z m 1.85473,0 h 1.05834 v 0.264319 h -1.05834 z m 1.89442,0 h 1.06098 v 0.264319 h -1.06098 z m 1.85473,0 h 1.10331 v 0.264319 h -1.10331 z m 1.89706,0 h 1.05833 v 0.264319 h -1.05833 z m 1.85208,0 h 1.05834 v 0.264319 h -1.05834 z m 1.89707,0 h 1.05833 v 0.264319 h -1.05833 z M 60.751623,-9.2793801 h 1.058863 v 0.2643452 h -1.058863 z m 1.852878,0 h 1.102783 v 0.2643452 h -1.102783 z m 1.896797,0 h 1.058863 v 0.2643452 h -1.058863 z m 1.852878,0 h 1.058597 v 0.2643452 h -1.058597 z m 1.896797,0 h 1.058863 v 0.2643452 h -1.058863 z m 1.852877,0 h 1.058598 v 0.2643452 H 70.10385 Z m 1.852613,0 h 1.103048 v 0.2643452 h -1.103048 z m 1.897062,0 h 1.058598 v 0.2643452 h -1.058598 z m 1.896798,0 h 1.058863 v 0.2643452 h -1.058863 z m 1.852877,0 h 1.058598 v 0.2643452 H 77.6032 Z m 1.852613,0 h 1.103048 v 0.2643452 h -1.103048 z m 1.897062,0 h 1.058598 v 0.2643452 h -1.058598 z m 1.852613,0 h 1.103048 v 0.2643452 h -1.103048 z m 1.897062,0 h 1.058598 v 0.2643452 H 85.10255 Z m 1.852613,0 h 1.058862 v 0.2643452 h -1.058862 z m 1.897062,0 h 1.058598 v 0.2643452 h -1.058598 z m 1.852877,0 h 1.102784 v 0.2643452 h -1.102784 z m 1.896798,0 h 1.058598 v 0.2643452 H 92.6019 Z m 1.852877,0 h 1.058598 v 0.2643452 h -1.058598 z m 1.896798,0 h 1.058598 v 0.2643452 h -1.058598 z m 1.852877,0 h 1.058598 v 0.2643452 h -1.058598 z m 1.852608,0 h 1.10279 v 0.2643452 h -1.10279 z m 1.89707,0 h 1.0586 v 0.2643452 h -1.0586 z m 1.8968,0 h 1.05859 v 0.2643452 h -1.05859 z m 1.85287,0 h 1.0586 v 0.2643452 h -1.0586 z m 1.85261,0 h 1.10279 v 0.2643452 h -1.10279 z m 1.89707,0 h 1.05859 v 0.2643452 h -1.05859 z m 1.85261,0 h 1.10305 v 0.2643452 h -1.10305 z m 1.89706,0 h 1.0586 v 0.2643452 h -1.0586 z m 1.85261,0 h 1.05887 v 0.2643452 h -1.05887 z m 1.89707,0 h 1.05859 v 0.2643452 h -1.05859 z m 1.85261,0 h 1.10305 v 0.2643452 h -1.10305 z m 1.89706,0 h 1.0586 v 0.2643452 h -1.0586 z m 1.85261,0 h 1.05887 v 0.2643452 h -1.05887 z m 1.89707,0 h 1.05859 v 0.2643452 h -1.05859 z m 1.85261,0 h 1.05886 v 0.2643452 h -1.05886 z m 1.85288,0 h 1.10278 v 0.2643452 h -1.10278 z m 1.89679,0 h 1.05887 v 0.2643452 h -1.05887 z m 1.89707,0 h 1.05859 v 0.2643452 h -1.05859 z m 1.85261,0 h 1.05886 v 0.2643452 h -1.05886 z m 1.85288,0 h 1.10278 v 0.2643452 h -1.10278 z m 1.89679,0 h 1.05887 v 0.2643452 h -1.05887 z m 1.85288,0 h 1.10278 v 0.2643452 h -1.10278 z m 1.8968,0 h 1.05886 v 0.2643452 h -1.05886 z m 1.85288,0 h 1.05886 v 0.2643452 h -1.05886 z m 1.89679,0 h 1.05887 v 0.2643452 h -1.05887 z m 1.85288,0 h 1.10278 v 0.2643452 h -1.10278 z m 1.8968,0 h 1.05886 v 0.2643452 h -1.05886 z m 1.85288,0 h 1.05886 v 0.2643452 h -1.05886 z m 1.89679,0 h 1.05887 v 0.2643452 h -1.05887 z m 1.85288,0 h 1.05886 v 0.2643452 h -1.05886 z m 1.85288,0 h 1.10278 v 0.2643452 h -1.10278 z m 1.8968,0 h 1.05886 v 0.2643452 h -1.05886 z m 1.89706,0 h 1.0586 v 0.2643452 h -1.0586 z m 1.85261,0 h 1.05886 v 0.2643452 h -1.05886 z m 1.85288,0 h 1.10278 v 0.2643452 h -1.10278 z m 1.8968,0 h 1.05886 v 0.2643452 h -1.05886 z m 1.85287,0 h 1.10279 v 0.2643452 h -1.10279 z m 1.8968,0 h 1.05886 v 0.2643452 h -1.05886 z m 1.85288,0 h 1.0586 v 0.2643452 h -1.0586 z m 1.8968,0 h 1.05886 v 0.2643452 h -1.05886 z m 1.85287,0 h 1.10279 v 0.2643452 h -1.10279 z m 1.8968,0 h 1.05886 v 0.2643452 h -1.05886 z m 1.85288,0 h 1.0586 v 0.2643452 h -1.0586 z m 1.8968,0 h 1.05886 v 0.2643452 h -1.05886 z m 1.85287,0 h 1.0586 v 0.2643452 h -1.0586 z m 1.85288,0 h 1.10278 v 0.2643452 h -1.10278 z m 1.8968,0 h 1.05886 v 0.2643452 h -1.05886 z m 1.8968,0 h 1.05886 v 0.2643452 h -1.05886 z m 1.85287,0 h 1.05887 v 0.2643452 h -1.05887 z m 1.85288,0 h 1.10278 v 0.2643452 h -1.10278 z m 1.8968,0 h 1.05886 v 0.2643452 h -1.05886 z m 1.85287,0 h 1.10279 v 0.2643452 h -1.10279 z m 1.8968,0 h 1.05887 v 0.2643452 h -1.05887 z m 1.85288,0 h 1.0586 v 0.2643452 h -1.0586 z m 1.8968,0 h 1.05886 v 0.2643452 h -1.05886 z m 1.85287,0 h 1.10279 v 0.2643452 h -1.10279 z m 1.8968,0 h 1.05886 v 0.2643452 h -1.05886 z m 1.85288,0 h 1.0586 v 0.2643452 h -1.0586 z m 1.8968,0 h 1.05886 v 0.2643452 h -1.05886 z m 1.85287,0 h 1.0586 v 0.2643452 h -1.0586 z m 1.85262,0 h 1.10304 v 0.2643452 h -1.10304 z m 1.89706,0 h 1.0586 v 0.2643452 h -1.0586 z m 1.8968,0 h 1.05886 v 0.2643452 h -1.05886 z m 1.85287,0 h 1.0586 v 0.2643452 h -1.0586 z m 1.85262,0 h 1.10304 v 0.2643452 h -1.10304 z m 1.89706,0 h 1.0586 v 0.2643452 h -1.0586 z m 1.85261,0 h 1.10305 v 0.2643452 h -1.10305 z m 1.89706,0 h 1.0586 v 0.2643452 h -1.0586 z m 1.85262,0 h 1.05886 v 0.2643452 h -1.05886 z m 1.89706,0 h 1.0586 v 0.2643452 h -1.0586 z m 1.85288,0 h 1.10278 v 0.2643452 h -1.10278 z m 1.89679,0 h 1.0586 v 0.2643452 h -1.0586 z m 1.85288,0 h 1.0586 v 0.2643452 h -1.0586 z m 1.8968,0 h 1.0586 v 0.2643452 h -1.0586 z m 1.85288,0 h 1.05859 v 0.2643452 h -1.05859 z m 1.85261,0 h 1.10278 v 0.2643452 h -1.10278 z m 1.89706,0 h 1.0586 v 0.2643452 h -1.0586 z m 1.8968,0 h 1.0586 v 0.2643452 h -1.0586 z m 1.85288,0 h 1.05859 v 0.2643452 h -1.05859 z m 1.85261,0 h 1.10278 v 0.2643452 h -1.10278 z m 1.89706,0 h 1.0586 v 0.2643452 h -1.0586 z m 1.85261,0 h 1.10305 v 0.2643452 h -1.10305 z m 1.89707,0 h 1.05859 v 0.2643452 h -1.05859 z m 1.85261,0 h 1.05886 v 0.2643452 h -1.05886 z m 1.89759,0 h 1.05833 v 0.2643452 h -1.05833 z m 1.85208,0 h 1.10332 v 0.2643452 h -1.10332 z m 1.89707,0 h 1.05833 v 0.2643452 h -1.05833 z m 1.85208,0 h 1.05833 v 0.2643452 h -1.05833 z m 1.89706,0 h 1.05834 v 0.2643452 h -1.05834 z m 1.85209,0 h 1.06097 v 0.2643452 h -1.06097 z m 1.85472,0 h 1.10332 v 0.2643452 h -1.10332 z m 1.89707,0 h 1.05833 v 0.2643452 h -1.05833 z m 1.89706,0 h 1.05833 v 0.2643452 h -1.05833 z m 1.85208,0 h 1.05834 v 0.2643452 h -1.05834 z m 1.85209,0 h 1.10331 v 0.2643452 h -1.10331 z m 1.89706,0 h 1.05833 v 0.2643452 h -1.05833 z m 1.85208,0 h 1.10331 v 0.2643452 h -1.10331 z m 1.89706,0 h 1.05834 v 0.2643452 h -1.05834 z m 1.85473,0 h 1.05834 v 0.2643452 h -1.05834 z m 1.89442,0 h 1.06098 v 0.2643452 h -1.06098 z m 1.85473,0 h 1.10331 v 0.2643452 h -1.10331 z m 1.89706,0 h 1.05833 v 0.2643452 h -1.05833 z m 1.85208,0 h 1.05834 v 0.2643452 h -1.05834 z m 1.89707,0 h 1.05833 v 0.2643452 h -1.05833 z"
       stroke="#000000"
       stroke-width="0"
       stroke-linejoin="round"
       stroke-miterlimit="10"
       fill-rule="evenodd"
       id="path12809" />
    <path
       d="m 119.48912,-9.2793801 v 1.0583333 h -0.26458 v -1.0583333 z m 0,1.8520833 v 1.1024129 h -0.26458 v -1.1024129 z m 0,1.8961629 v 1.0583333 h -0.26458 v -1.0583333 z m 0,1.8520833 v 1.1024394 h -0.26458 v -1.1024394 z m 0,1.8961894 v 1.0583333 h -0.26458 v -1.0583333 z m 0,1.85208329 V 1.1274496 h -0.26458 V 0.06922209 Z m 0,1.89616291 v 1.0583333 h -0.26458 V 1.965385 Z m 0,1.8520833 V 4.919987 h -0.26458 V 3.8174683 Z m 0,1.8962687 v 1.0583333 h -0.26458 V 5.713737 Z m 0,1.8520833 v 1.0583333 h -0.26458 V 7.5658203 Z m 0,1.8960042 v 1.0583335 h -0.26458 V 9.4618245 Z m 0,1.8520835 v 1.058333 h -0.26458 v -1.058333 z m 0,1.852083 v 1.102519 h -0.26458 v -1.102519 z m 0,1.896269 v 1.058333 h -0.26458 V 15.06226 Z m 0,1.896269 v 1.058333 h -0.26458 v -1.058333 z m 0,1.852083 v 1.058333 h -0.26458 v -1.058333 z m 0,1.896004 v 1.058333 h -0.26458 v -1.058333 z m 0,1.852083 v 1.058334 h -0.26458 v -1.058334 z m 0,1.852084 v 1.102518 h -0.26458 v -1.102518 z m 0,1.896268 v 1.058334 h -0.26458 v -1.058334 z m 0,1.896269 v 1.058333 h -0.26458 V 28.20332 Z m 0,1.852083 v 1.058334 h -0.26458 v -1.058334 z m 0,1.852084 v 1.102254 h -0.26458 v -1.102254 z m 0,1.896004 v 1.058333 h -0.26458 v -1.058333 z m 0,1.852083 v 1.102519 h -0.26458 v -1.102519 z m 0,1.896269 v 1.058333 h -0.26458 v -1.058333 z m 0,1.852083 v 1.058333 h -0.26458 v -1.058333 z m 0,1.896269 v 1.058333 h -0.26458 v -1.058333 z m 0,1.852083 v 1.102254 h -0.26458 v -1.102254 z m 0,1.896004 v 1.058334 h -0.26458 v -1.058334 z m 0,1.852084 v 1.058333 h -0.26458 v -1.058333 z m 0,1.896268 v 1.058334 h -0.26458 v -1.058334 z m 0,1.852084 v 1.058333 h -0.26458 v -1.058333 z m 0,1.852083 v 1.102519 h -0.26458 v -1.102519 z m 0,1.896269 v 1.058333 h -0.26458 V 54.39707 Z m 0,1.896004 v 1.058333 h -0.26458 v -1.058333 z m 0,1.852083 v 1.058334 h -0.26458 v -1.058334 z m 0,1.852083 v 1.102519 h -0.26458 V 59.99724 Z m 0,1.896269 v 1.058334 h -0.26458 v -1.058334 z m 0,1.852084 v 1.102518 h -0.26458 v -1.102518 z m 0,1.896268 v 1.058334 h -0.26458 v -1.058334 z m 0,1.852084 v 1.058333 h -0.26458 v -1.058333 z m 0,1.896004 v 1.058333 h -0.26458 v -1.058333 z m 0,1.852083 v 1.102519 h -0.26458 v -1.102519 z m 0,1.896269 v 1.058333 h -0.26458 v -1.058333 z m 0,1.852083 v 1.058333 h -0.26458 v -1.058333 z m 0,1.896269 v 1.058333 h -0.26458 v -1.058333 z m 0,1.852083 v 1.058333 h -0.26458 v -1.058333 z m 0,1.852083 v 1.102255 h -0.26458 v -1.102255 z m 0,1.896005 v 1.058333 h -0.26458 v -1.058333 z m 0,1.896268 v 1.058334 h -0.26458 v -1.058334 z m 0,1.852084 v 1.058333 h -0.26458 v -1.058333 z m 0,1.852083 v 1.102519 h -0.26458 v -1.102519 z m 0,1.896269 v 1.058333 h -0.26458 v -1.058333 z m 0,1.852083 v 1.102254 h -0.26458 v -1.102254 z m 0,1.896004 v 1.058333 h -0.26458 v -1.058333 z m 0,1.852083 v 1.058334 h -0.26458 v -1.058334 z m 0,1.896269 V 98.5383 h -0.26458 v -1.058333 z m 0,1.852083 v 1.10252 h -0.26458 v -1.10252 z m 0,1.89627 v 1.05833 h -0.26458 v -1.05833 z m 0,1.85208 v 1.05834 h -0.26458 v -1.05834 z m 0,1.89601 v 1.05833 h -0.26458 v -1.05833 z m 0,1.85208 v 1.05833 h -0.26458 v -1.05833 z m 0,1.85208 v 1.10252 h -0.26458 v -1.10252 z m 0,1.89627 v 1.05834 h -0.26458 v -1.05834 z m 0,1.89627 v 1.05833 h -0.26458 v -1.05833 z m 0,1.85208 v 1.05834 h -0.26458 v -1.05834 z m 0,1.85209 v 1.10225 h -0.26458 v -1.10225 z m 0,1.896 v 1.05833 h -0.26458 v -1.05833 z m 0,1.85208 v 1.10252 h -0.26458 v -1.10252 z m 0,1.89627 v 1.05834 h -0.26458 v -1.05834 z m 0,1.85209 v 1.10252 h -0.26458 v -1.10252 z m 0,1.89627 v 1.05833 h -0.26458 v -1.05833 z m 0,1.85208 v 1.10225 h -0.26458 v -1.10225 z m 0,1.896 v 1.05834 h -0.26458 v -1.05834 z m 0,1.85209 v 1.10252 h -0.26458 v -1.10252 z m 0,1.89626 v 0.26459 h -0.26458 v -0.26459 z M 177.91785,-9.2793801 v 1.0583333 h -0.26458 v -1.0583333 z m 0,1.8520833 v 1.1024129 h -0.26458 v -1.1024129 z m 0,1.8961629 v 1.0583333 h -0.26458 v -1.0583333 z m 0,1.8520833 v 1.1024394 h -0.26458 v -1.1024394 z m 0,1.8961894 v 1.0583333 h -0.26458 v -1.0583333 z m 0,1.85208329 V 1.1274496 h -0.26458 V 0.06922209 Z m 0,1.89616291 v 1.0583333 h -0.26458 V 1.965385 Z m 0,1.8520833 V 4.919987 h -0.26458 V 3.8174683 Z m 0,1.8962687 v 1.0583333 h -0.26458 V 5.713737 Z m 0,1.8520833 v 1.0583333 h -0.26458 V 7.5658203 Z m 0,1.8960042 v 1.0583335 h -0.26458 V 9.4618245 Z m 0,1.8520835 v 1.058333 h -0.26458 v -1.058333 z m 0,1.852083 v 1.102519 h -0.26458 v -1.102519 z m 0,1.896269 v 1.058333 h -0.26458 V 15.06226 Z m 0,1.896269 v 1.058333 h -0.26458 v -1.058333 z m 0,1.852083 v 1.058333 h -0.26458 v -1.058333 z m 0,1.896004 v 1.058333 h -0.26458 v -1.058333 z m 0,1.852083 v 1.058334 h -0.26458 v -1.058334 z m 0,1.852084 v 1.102518 h -0.26458 v -1.102518 z m 0,1.896268 v 1.058334 h -0.26458 v -1.058334 z m 0,1.896269 v 1.058333 h -0.26458 V 28.20332 Z m 0,1.852083 v 1.058334 h -0.26458 v -1.058334 z m 0,1.852084 v 1.102254 h -0.26458 v -1.102254 z m 0,1.896004 v 1.058333 h -0.26458 v -1.058333 z m 0,1.852083 v 1.102519 h -0.26458 v -1.102519 z m 0,1.896269 v 1.058333 h -0.26458 v -1.058333 z m 0,1.852083 v 1.058333 h -0.26458 v -1.058333 z m 0,1.896269 v 1.058333 h -0.26458 v -1.058333 z m 0,1.852083 v 1.102254 h -0.26458 v -1.102254 z m 0,1.896004 v 1.058334 h -0.26458 v -1.058334 z m 0,1.852084 v 1.058333 h -0.26458 v -1.058333 z m 0,1.896268 v 1.058334 h -0.26458 v -1.058334 z m 0,1.852084 v 1.058333 h -0.26458 v -1.058333 z m 0,1.852083 v 1.102519 h -0.26458 v -1.102519 z m 0,1.896269 v 1.058333 h -0.26458 V 54.39707 Z m 0,1.896004 v 1.058333 h -0.26458 v -1.058333 z m 0,1.852083 v 1.058334 h -0.26458 v -1.058334 z m 0,1.852083 v 1.102519 h -0.26458 V 59.99724 Z m 0,1.896269 v 1.058334 h -0.26458 v -1.058334 z m 0,1.852084 v 1.102518 h -0.26458 v -1.102518 z m 0,1.896268 v 1.058334 h -0.26458 v -1.058334 z m 0,1.852084 v 1.058333 h -0.26458 v -1.058333 z m 0,1.896004 v 1.058333 h -0.26458 v -1.058333 z m 0,1.852083 v 1.102519 h -0.26458 v -1.102519 z m 0,1.896269 v 1.058333 h -0.26458 v -1.058333 z m 0,1.852083 v 1.058333 h -0.26458 v -1.058333 z m 0,1.896269 v 1.058333 h -0.26458 v -1.058333 z m 0,1.852083 v 1.058333 h -0.26458 v -1.058333 z m 0,1.852083 v 1.102255 h -0.26458 v -1.102255 z m 0,1.896005 v 1.058333 h -0.26458 v -1.058333 z m 0,1.896268 v 1.058334 h -0.26458 v -1.058334 z m 0,1.852084 v 1.058333 h -0.26458 v -1.058333 z m 0,1.852083 v 1.102519 h -0.26458 v -1.102519 z m 0,1.896269 v 1.058333 h -0.26458 v -1.058333 z m 0,1.852083 v 1.102254 h -0.26458 v -1.102254 z m 0,1.896004 v 1.058333 h -0.26458 v -1.058333 z m 0,1.852083 v 1.058334 h -0.26458 v -1.058334 z m 0,1.896269 V 98.5383 h -0.26458 v -1.058333 z m 0,1.852083 v 1.10252 h -0.26458 v -1.10252 z m 0,1.89627 v 1.05833 h -0.26458 v -1.05833 z m 0,1.85208 v 1.05834 h -0.26458 v -1.05834 z m 0,1.89601 v 1.05833 h -0.26458 v -1.05833 z m 0,1.85208 v 1.05833 h -0.26458 v -1.05833 z m 0,1.85208 v 1.10252 h -0.26458 v -1.10252 z m 0,1.89627 v 1.05834 h -0.26458 v -1.05834 z m 0,1.89627 v 1.05833 h -0.26458 v -1.05833 z m 0,1.85208 v 1.05834 h -0.26458 v -1.05834 z m 0,1.85209 v 1.10225 h -0.26458 v -1.10225 z m 0,1.896 v 1.05833 h -0.26458 v -1.05833 z m 0,1.85208 v 1.10252 h -0.26458 v -1.10252 z m 0,1.89627 v 1.05834 h -0.26458 v -1.05834 z m 0,1.85209 v 1.10252 h -0.26458 v -1.10252 z m 0,1.89627 v 1.05833 h -0.26458 v -1.05833 z m 0,1.85208 v 1.10225 h -0.26458 v -1.10225 z m 0,1.896 v 1.05834 h -0.26458 v -1.05834 z m 0,1.85209 v 1.10252 h -0.26458 v -1.10252 z m 0,1.89626 v 0.26459 h -0.26458 v -0.26459 z m 58.5171,-142.3458001 v 1.0583333 h -0.26458 v -1.0583333 z m 0,1.8520833 v 1.1024129 h -0.26458 v -1.1024129 z m 0,1.8961629 v 1.0583333 h -0.26458 v -1.0583333 z m 0,1.8520833 v 1.1024394 h -0.26458 v -1.1024394 z m 0,1.8961894 v 1.0583333 h -0.26458 v -1.0583333 z m 0,1.85208329 V 1.1274496 h -0.26458 V 0.06922209 Z m 0,1.89616291 v 1.0583333 h -0.26458 V 1.965385 Z m 0,1.8520833 V 4.919987 h -0.26458 V 3.8174683 Z m 0,1.8962687 v 1.0583333 h -0.26458 V 5.713737 Z m 0,1.8520833 v 1.0583333 h -0.26458 V 7.5658203 Z m 0,1.8960042 v 1.0583335 h -0.26458 V 9.4618245 Z m 0,1.8520835 v 1.058333 h -0.26458 v -1.058333 z m 0,1.852083 v 1.102519 h -0.26458 v -1.102519 z m 0,1.896269 v 1.058333 h -0.26458 V 15.06226 Z m 0,1.896269 v 1.058333 h -0.26458 v -1.058333 z m 0,1.852083 v 1.058333 h -0.26458 v -1.058333 z m 0,1.896004 v 1.058333 h -0.26458 v -1.058333 z m 0,1.852083 v 1.058334 h -0.26458 v -1.058334 z m 0,1.852084 v 1.102518 h -0.26458 v -1.102518 z m 0,1.896268 v 1.058334 h -0.26458 v -1.058334 z m 0,1.896269 v 1.058333 h -0.26458 V 28.20332 Z m 0,1.852083 v 1.058334 h -0.26458 v -1.058334 z m 0,1.852084 v 1.102254 h -0.26458 v -1.102254 z m 0,1.896004 v 1.058333 h -0.26458 v -1.058333 z m 0,1.852083 v 1.102519 h -0.26458 v -1.102519 z m 0,1.896269 v 1.058333 h -0.26458 v -1.058333 z m 0,1.852083 v 1.058333 h -0.26458 v -1.058333 z m 0,1.896269 v 1.058333 h -0.26458 v -1.058333 z m 0,1.852083 v 1.102254 h -0.26458 v -1.102254 z m 0,1.896004 v 1.058334 h -0.26458 v -1.058334 z m 0,1.852084 v 1.058333 h -0.26458 v -1.058333 z m 0,1.896268 v 1.058334 h -0.26458 v -1.058334 z m 0,1.852084 v 1.058333 h -0.26458 v -1.058333 z m 0,1.852083 v 1.102519 h -0.26458 v -1.102519 z m 0,1.896269 v 1.058333 h -0.26458 V 54.39707 Z m 0,1.896004 v 1.058333 h -0.26458 v -1.058333 z m 0,1.852083 v 1.058334 h -0.26458 v -1.058334 z m 0,1.852083 v 1.102519 h -0.26458 V 59.99724 Z m 0,1.896269 v 1.058334 h -0.26458 v -1.058334 z m 0,1.852084 v 1.102518 h -0.26458 v -1.102518 z m 0,1.896268 v 1.058334 h -0.26458 v -1.058334 z m 0,1.852084 v 1.058333 h -0.26458 v -1.058333 z m 0,1.896004 v 1.058333 h -0.26458 v -1.058333 z m 0,1.852083 v 1.102519 h -0.26458 v -1.102519 z m 0,1.896269 v 1.058333 h -0.26458 v -1.058333 z m 0,1.852083 v 1.058333 h -0.26458 v -1.058333 z m 0,1.896269 v 1.058333 h -0.26458 v -1.058333 z m 0,1.852083 v 1.058333 h -0.26458 v -1.058333 z m 0,1.852083 v 1.102255 h -0.26458 v -1.102255 z m 0,1.896005 v 1.058333 h -0.26458 v -1.058333 z m 0,1.896268 v 1.058334 h -0.26458 v -1.058334 z m 0,1.852084 v 1.058333 h -0.26458 v -1.058333 z m 0,1.852083 v 1.102519 h -0.26458 v -1.102519 z m 0,1.896269 v 1.058333 h -0.26458 v -1.058333 z m 0,1.852083 v 1.102254 h -0.26458 v -1.102254 z m 0,1.896004 v 1.058333 h -0.26458 v -1.058333 z m 0,1.852083 v 1.058334 h -0.26458 v -1.058334 z m 0,1.896269 V 98.5383 h -0.26458 v -1.058333 z m 0,1.852083 v 1.10252 h -0.26458 v -1.10252 z m 0,1.89627 v 1.05833 h -0.26458 v -1.05833 z m 0,1.85208 v 1.05834 h -0.26458 v -1.05834 z m 0,1.89601 v 1.05833 h -0.26458 v -1.05833 z m 0,1.85208 v 1.05833 h -0.26458 v -1.05833 z m 0,1.85208 v 1.10252 h -0.26458 v -1.10252 z m 0,1.89627 v 1.05834 h -0.26458 v -1.05834 z m 0,1.89627 v 1.05833 h -0.26458 v -1.05833 z m 0,1.85208 v 1.05834 h -0.26458 v -1.05834 z m 0,1.85209 v 1.10225 h -0.26458 v -1.10225 z m 0,1.896 v 1.05833 h -0.26458 v -1.05833 z m 0,1.85208 v 1.10252 h -0.26458 v -1.10252 z m 0,1.89627 v 1.05834 h -0.26458 v -1.05834 z m 0,1.85209 v 1.10252 h -0.26458 v -1.10252 z m 0,1.89627 v 1.05833 h -0.26458 v -1.05833 z m 0,1.85208 v 1.10225 h -0.26458 v -1.10225 z m 0,1.896 v 1.05834 h -0.26458 v -1.05834 z m 0,1.85209 v 1.10252 h -0.26458 v -1.10252 z m 0,1.89626 v 0.26459 h -0.26458 v -0.26459 z M 294.90787,-9.2793801 v 1.0583333 h -0.26458 v -1.0583333 z m 0,1.8520833 v 1.1024129 h -0.26458 v -1.1024129 z m 0,1.8961629 v 1.0583333 h -0.26458 v -1.0583333 z m 0,1.8520833 v 1.1024394 h -0.26458 v -1.1024394 z m 0,1.8961894 v 1.0583333 h -0.26458 v -1.0583333 z m 0,1.85208329 V 1.1274496 h -0.26458 V 0.06922209 Z m 0,1.89616291 v 1.0583333 h -0.26458 V 1.965385 Z m 0,1.8520833 V 4.919987 h -0.26458 V 3.8174683 Z m 0,1.8962687 v 1.0583333 h -0.26458 V 5.713737 Z m 0,1.8520833 v 1.0583333 h -0.26458 V 7.5658203 Z m 0,1.8960042 v 1.0583335 h -0.26458 V 9.4618245 Z m 0,1.8520835 v 1.058333 h -0.26458 v -1.058333 z m 0,1.852083 v 1.102519 h -0.26458 v -1.102519 z m 0,1.896269 v 1.058333 h -0.26458 V 15.06226 Z m 0,1.896269 v 1.058333 h -0.26458 v -1.058333 z m 0,1.852083 v 1.058333 h -0.26458 v -1.058333 z m 0,1.896004 v 1.058333 h -0.26458 v -1.058333 z m 0,1.852083 v 1.058334 h -0.26458 v -1.058334 z m 0,1.852084 v 1.102518 h -0.26458 v -1.102518 z m 0,1.896268 v 1.058334 h -0.26458 v -1.058334 z m 0,1.896269 v 1.058333 h -0.26458 V 28.20332 Z m 0,1.852083 v 1.058334 h -0.26458 v -1.058334 z m 0,1.852084 v 1.102254 h -0.26458 v -1.102254 z m 0,1.896004 v 1.058333 h -0.26458 v -1.058333 z m 0,1.852083 v 1.102519 h -0.26458 v -1.102519 z m 0,1.896269 v 1.058333 h -0.26458 v -1.058333 z m 0,1.852083 v 1.058333 h -0.26458 v -1.058333 z m 0,1.896269 v 1.058333 h -0.26458 v -1.058333 z m 0,1.852083 v 1.102254 h -0.26458 v -1.102254 z m 0,1.896004 v 1.058334 h -0.26458 v -1.058334 z m 0,1.852084 v 1.058333 h -0.26458 v -1.058333 z m 0,1.896268 v 1.058334 h -0.26458 v -1.058334 z m 0,1.852084 v 1.058333 h -0.26458 v -1.058333 z m 0,1.852083 v 1.102519 h -0.26458 v -1.102519 z m 0,1.896269 v 1.058333 h -0.26458 V 54.39707 Z m 0,1.896004 v 1.058333 h -0.26458 v -1.058333 z m 0,1.852083 v 1.058334 h -0.26458 v -1.058334 z m 0,1.852083 v 1.102519 h -0.26458 V 59.99724 Z m 0,1.896269 v 1.058334 h -0.26458 v -1.058334 z m 0,1.852084 v 1.102518 h -0.26458 v -1.102518 z m 0,1.896268 v 1.058334 h -0.26458 v -1.058334 z m 0,1.852084 v 1.058333 h -0.26458 v -1.058333 z m 0,1.896004 v 1.058333 h -0.26458 v -1.058333 z m 0,1.852083 v 1.102519 h -0.26458 v -1.102519 z m 0,1.896269 v 1.058333 h -0.26458 v -1.058333 z m 0,1.852083 v 1.058333 h -0.26458 v -1.058333 z m 0,1.896269 v 1.058333 h -0.26458 v -1.058333 z m 0,1.852083 v 1.058333 h -0.26458 v -1.058333 z m 0,1.852083 v 1.102255 h -0.26458 v -1.102255 z m 0,1.896005 v 1.058333 h -0.26458 v -1.058333 z m 0,1.896268 v 1.058334 h -0.26458 v -1.058334 z m 0,1.852084 v 1.058333 h -0.26458 v -1.058333 z m 0,1.852083 v 1.102519 h -0.26458 v -1.102519 z m 0,1.896269 v 1.058333 h -0.26458 v -1.058333 z m 0,1.852083 v 1.102254 h -0.26458 v -1.102254 z m 0,1.896004 v 1.058333 h -0.26458 v -1.058333 z m 0,1.852083 v 1.058334 h -0.26458 v -1.058334 z m 0,1.896269 V 98.5383 h -0.26458 v -1.058333 z m 0,1.852083 v 1.10252 h -0.26458 v -1.10252 z m 0,1.89627 v 1.05833 h -0.26458 v -1.05833 z m 0,1.85208 v 1.05834 h -0.26458 v -1.05834 z m 0,1.89601 v 1.05833 h -0.26458 v -1.05833 z m 0,1.85208 v 1.05833 h -0.26458 v -1.05833 z m 0,1.85208 v 1.10252 h -0.26458 v -1.10252 z m 0,1.89627 v 1.05834 h -0.26458 v -1.05834 z m 0,1.89627 v 1.05833 h -0.26458 v -1.05833 z m 0,1.85208 v 1.05834 h -0.26458 v -1.05834 z m 0,1.85209 v 1.10225 h -0.26458 v -1.10225 z m 0,1.896 v 1.05833 h -0.26458 v -1.05833 z m 0,1.85208 v 1.10252 h -0.26458 v -1.10252 z m 0,1.89627 v 1.05834 h -0.26458 v -1.05834 z m 0,1.85209 v 1.10252 h -0.26458 v -1.10252 z m 0,1.89627 v 1.05833 h -0.26458 v -1.05833 z m 0,1.85208 v 1.10225 h -0.26458 v -1.10225 z m 0,1.896 v 1.05834 h -0.26458 v -1.05834 z m 0,1.85209 v 1.10252 h -0.26458 v -1.10252 z m 0,1.89626 v 0.26459 h -0.26458 v -0.26459 z"
       stroke="#000000"
       stroke-width="0"
       stroke-linejoin="round"
       stroke-miterlimit="10"
       fill-rule="evenodd"
       id="path12811" />
    <path
       d="M 60.619332,133.19872 60.61936,-9.4116949"
       stroke="#000000"
       stroke-width="0.396888"
       stroke-linejoin="round"
       stroke-miterlimit="10"
       fill="none"
       fill-rule="evenodd"
       id="path12813" />
    <path
       d="M 60.619332,133.19872 H 294.511"
       stroke="#000000"
       stroke-width="0.396888"
       stroke-linejoin="round"
       stroke-miterlimit="10"
       fill="none"
       fill-rule="evenodd"
       id="path12815" />
    <path
       d="m 60.619332,126.05497 c 3.881437,-0.13229 7.806796,-0.2204 11.687968,-0.35269 3.925623,-0.13229 7.806796,-0.30877 11.732419,-0.44106 3.881173,-0.13229 7.76261,-0.30877 11.687969,-0.44106 3.881437,-0.17622 7.806792,-0.35269 11.687972,-0.52917 3.88143,-0.17621 7.80679,-0.39688 11.68823,-0.61727 3.92536,-0.2204 7.8068,-0.44106 11.68797,-0.66146 3.92562,-0.26458 7.80679,-0.48498 11.73215,-0.79375 3.88144,-0.26458 7.8068,-0.57335 11.68824,-0.92604 3.88117,-0.30877 7.80679,-0.66146 11.68796,-1.05834 3.88144,-0.39687 7.8068,-0.83793 11.68824,-1.32291 3.92536,-0.48498 7.80679,-0.97023 11.68797,-1.54332 3.92535,-0.61754 7.80679,-1.23481 11.73215,-1.98437 3.88144,-0.79375 7.8068,-1.5875 11.68823,-2.55773 3.92536,-1.01415 7.8068,-2.02856 11.68797,-3.3954 3.92536,-1.3671 7.8068,-2.77812 11.68823,-4.7625 3.92536,-1.98437 7.80654,-3.96875 11.73216,-7.143747 3.88117,-3.175 7.76261,-5.953125 11.68823,-11.862329 3.175,-4.806421 8.51165,-10.891838 11.68665,-23.768315 3.92641,-15.875 9.74989,-59.4431428 11.68929,-71.3052072"
       stroke="#000000"
       stroke-width="1.49931"
       stroke-linecap="round"
       stroke-linejoin="round"
       stroke-miterlimit="10"
       fill="none"
       fill-rule="evenodd"
       id="path12817" />
    <text
       font-family="'Times New Roman', 'Times New Roman_MSFontService', sans-serif"
       font-weight="400"
       font-size="10.5833px"
       id="text12841"
       x="46.276798"
       y="137.16747"
       style="stroke-width:0.264583">0<tspan
   font-size="10.5833px"
   x="46.276798"
   y="101.7133"
   id="tspan12819"
   style="stroke-width:0.0700043">5</tspan><tspan
   font-size="10.5833px"
   x="40.941025"
   y="65.994553"
   id="tspan12821"
   style="stroke-width:0.0700043">10</tspan><tspan
   font-size="10.8479px"
   x="40.941025"
   y="30.540388"
   id="tspan12823"
   style="stroke-width:0.0700043">15</tspan><tspan
   font-size="10.5833px"
   x="40.941025"
   y="-5.1783614"
   id="tspan12825"
   style="stroke-width:0.0700043">20</tspan><tspan
   font-size="10.5833px"
   x="58.050732"
   y="149.86748"
   id="tspan12827"
   style="stroke-width:0.0700043">0</tspan><tspan
   font-size="10.5833px"
   x="109.8649"
   y="149.86748"
   id="tspan12829"
   style="stroke-width:0.0700043">0.25</tspan><tspan
   font-size="10.5833px"
   x="171.02783"
   y="149.86748"
   id="tspan12831"
   style="stroke-width:0.0700043">0.5</tspan><tspan
   font-size="10.5833px"
   x="226.81075"
   y="149.86748"
   id="tspan12833"
   style="stroke-width:0.0700043">0.75</tspan><tspan
   font-size="10.5833px"
   x="291.9866"
   y="149.86748"
   id="tspan12835"
   style="stroke-width:0.0700043">1</tspan><tspan
   font-size="11.3771px"
   x="60.696564"
   y="-18.407528"
   id="tspan12837"
   style="stroke-width:0.0700043">M(D)</tspan><tspan
   font-size="10.8479px"
   x="173.80597"
   y="163.89038"
   id="tspan12839"
   style="stroke-width:0.0700043">D</tspan></text>
  </g>
</svg>
