<?xml version="1.0" encoding="UTF-8" standalone="no"?>
<svg
   xmlns:dc="http://purl.org/dc/elements/1.1/"
   xmlns:cc="http://creativecommons.org/ns#"
   xmlns:rdf="http://www.w3.org/1999/02/22-rdf-syntax-ns#"
   xmlns:svg="http://www.w3.org/2000/svg"
   xmlns="http://www.w3.org/2000/svg"
   xmlns:sodipodi="http://sodipodi.sourceforge.net/DTD/sodipodi-0.dtd"
   xmlns:inkscape="http://www.inkscape.org/namespaces/inkscape"
   width="123.16354mm"
   height="56.307674mm"
   viewBox="0 0 123.16354 56.307674"
   version="1.1"
   id="svg8064"
   inkscape:version="1.0.2-2 (e86c870879, 2021-01-15)"
   sodipodi:docname="Figure8.22.svg">
  <defs
     id="defs8058">
    <clipPath
       id="clip0">
      <rect
         x="707"
         y="316"
         width="490"
         height="244"
         id="rect8627" />
    </clipPath>
  </defs>
  <sodipodi:namedview
     id="base"
     pagecolor="#ffffff"
     bordercolor="#666666"
     borderopacity="1.0"
     inkscape:pageopacity="0.0"
     inkscape:pageshadow="2"
     inkscape:zoom="0.35"
     inkscape:cx="101.32144"
     inkscape:cy="260.69392"
     inkscape:document-units="mm"
     inkscape:current-layer="layer1"
     inkscape:document-rotation="0"
     showgrid="false"
     fit-margin-top="0"
     fit-margin-left="0"
     fit-margin-right="0"
     fit-margin-bottom="0"
     inkscape:window-width="1258"
     inkscape:window-height="1040"
     inkscape:window-x="208"
     inkscape:window-y="0"
     inkscape:window-maximized="0" />
  <metadata
     id="metadata8061">
    <rdf:RDF>
      <cc:Work
         rdf:about="">
        <dc:format>image/svg+xml</dc:format>
        <dc:type
           rdf:resource="http://purl.org/dc/dcmitype/StillImage" />
        <dc:title></dc:title>
      </cc:Work>
    </rdf:RDF>
  </metadata>
  <g
     inkscape:label="Capa 1"
     inkscape:groupmode="layer"
     id="layer1"
     transform="translate(-79.025368,-79.191401)">
    <path
       d="M 86.301413,94.008068 H 186.50441"
       stroke="#000000"
       stroke-width="0.176389"
       stroke-miterlimit="8"
       stroke-dasharray="0.705556, 0.529167"
       fill="none"
       fill-rule="evenodd"
       id="path8632" />
    <text
       font-family="'Times New Roman', 'Times New Roman_MSFontService', sans-serif"
       font-weight="400"
       font-size="7.14375px"
       id="text8634"
       x="165.24779"
       y="135.15079"
       style="stroke-width:0.264583">T</text>
    <path
       d="m 167.52849,124.96432 v 4.23333"
       stroke="#000000"
       stroke-linejoin="round"
       stroke-miterlimit="10"
       fill="none"
       fill-rule="evenodd"
       id="path8636"
       style="stroke-width:0.264583" />
    <text
       font-family="'Times New Roman', 'Times New Roman_MSFontService', sans-serif"
       font-weight="400"
       font-size="7.14375px"
       id="text8638"
       x="120.62792"
       y="135.41536"
       style="stroke-width:0.264583">DÂ·T</text>
    <path
       d="M 87.227454,129.19765 V 80.955378 h 0.264584 v 48.242272 z m -0.926041,-47.889582 1.058333,-2.116667 1.058333,2.116667 z"
       id="path8640"
       style="stroke-width:0.264583" />
    <path
       d="M 86.036829,126.68411 H 200.42414 v 0.26458 H 86.036829 Z m 114.035411,-0.92604 2.11667,1.05833 -2.11667,1.05833 z"
       id="path8642"
       style="stroke-width:0.264583" />
    <text
       font-family="'Times New Roman', 'Times New Roman_MSFontService', sans-serif"
       font-weight="400"
       font-size="7.14375px"
       id="text8646"
       x="199.39491"
       y="134.62161"
       style="stroke-width:0.264583">t<tspan
   font-size="7.14375px"
   x="85.882843"
   y="135.41536"
   id="tspan8644"
   style="stroke-width:0.0700043">0</tspan></text>
    <rect
       x="79.025368"
       y="89.907028"
       width="7.9375"
       height="7.6729164"
       fill="#ffffff"
       id="rect8648"
       style="stroke-width:0.264583" />
    <text
       font-family="'Cambria Math', 'Cambria Math_MSFontService', sans-serif"
       font-weight="400"
       font-size="6.35px"
       id="text8652"
       x="79.883682"
       y="95.992439"
       style="stroke-width:0.264583">V<tspan
   font-size="4.7625px"
   x="83.162766"
   y="97.315361"
   id="tspan8650"
   style="stroke-width:0.0700043">0</tspan></text>
    <path
       d="m 87.624329,94.050401 c 2.729442,-0.698235 5.458883,-1.396735 8.126677,-1.364191 2.668058,0.03254 5.294844,0.941916 7.880614,1.558925 2.58577,0.617272 4.96649,2.176197 7.63429,2.143654 2.66779,-0.03254 5.52053,-1.185334 8.373,-2.338388"
       stroke="#000000"
       stroke-width="0.79375"
       stroke-miterlimit="8"
       fill="none"
       fill-rule="evenodd"
       id="path8654" />
    <path
       d="m 119.63891,94.147768 c 2.72944,-0.747977 5.45889,-1.496219 8.12668,-1.461558 2.66806,0.03493 5.29484,1.009385 7.88061,1.670579 2.58578,0.660929 4.9665,2.331508 7.63429,2.296583 2.66779,-0.03466 5.52053,-1.270265 8.37301,-2.505604"
       stroke="#000000"
       stroke-width="0.79375"
       stroke-miterlimit="8"
       fill="none"
       fill-rule="evenodd"
       id="path8656" />
    <path
       d="m 152.18266,94.147768 c 2.72944,-0.747977 5.45836,-1.496219 8.128,-1.461558 2.667,0.03493 5.29431,1.009385 7.87929,1.670579 2.58498,0.660929 4.96623,2.331508 7.63323,2.296583 2.66965,-0.03466 5.52186,-1.270265 8.37406,-2.505604"
       stroke="#000000"
       stroke-width="0.79375"
       stroke-miterlimit="8"
       fill="none"
       fill-rule="evenodd"
       id="path8658" />
    <path
       d="m 114.05832,107.16924 -2.59053,-11.684533 0.17224,-0.0381 2.59053,11.684263 z m -3.46128,-11.13023 0.57521,-2.295525 1.49145,1.837531 z"
       id="path8660"
       style="stroke-width:0.264583" />
    <text
       font-family="'Times New Roman', 'Times New Roman_MSFontService', sans-serif"
       font-weight="400"
       font-size="7.14375px"
       id="text8664"
       x="90.69799"
       y="112.39661"
       style="stroke-width:0.264583">dc<tspan
   font-size="7.14375px"
   x="99.120583"
   y="112.39661"
   id="tspan8662"
   style="stroke-width:0.0700043">component</tspan></text>
    <path
       d="m 147.32544,107.11976 -4.00129,-8.565886 0.15981,-0.07461 4.00129,8.565886 z m -4.73075,-7.835636 0.063,-2.36564 1.85473,1.469761 z"
       id="path8666"
       style="stroke-width:0.264583" />
    <text
       font-family="'Times New Roman', 'Times New Roman_MSFontService', sans-serif"
       font-weight="400"
       font-size="7.14375px"
       id="text8678"
       x="136.52541"
       y="112.39661"
       style="stroke-width:0.264583">ac <tspan
   font-size="7.14375px"
   x="144.5511"
   y="112.39661"
   id="tspan8668"
   style="stroke-width:0.0700043">component</tspan><tspan
   font-size="7.14375px"
   x="177.62393"
   y="112.39661"
   id="tspan8670"
   style="stroke-width:0.0700043">or</tspan><tspan
   font-size="7.14375px"
   x="185.25293"
   y="112.39661"
   id="tspan8672"
   style="stroke-width:0.0700043">ripple</tspan><tspan
   font-family="'Cambria Math', 'Cambria Math_MSFontService', sans-serif"
   font-size="6.35px"
   x="90.291328"
   y="84.350777"
   id="tspan8674"
   style="stroke-width:0.0700043">ğ‘£</tspan><tspan
   font-family="'Cambria Math', 'Cambria Math_MSFontService', sans-serif"
   font-size="4.7625px"
   x="93.669258"
   y="85.673691"
   id="tspan8676"
   style="stroke-width:0.0700043">0</tspan></text>
    <path
       d="m 102.12746,79.593303 c 0.60378,0.15928 1.06733,0.502709 1.39065,1.031082 0.32359,0.528108 0.48525,1.165225 0.48525,1.91135 0,0.748241 -0.16113,1.385623 -0.48366,1.911614 -0.32253,0.525992 -0.7866,0.868627 -1.39224,1.027906 l -0.0743,-0.238918 c 0.47757,-0.159015 0.83264,-0.47334 1.06521,-0.942446 0.2323,-0.469371 0.34872,-1.065742 0.34872,-1.789113 0,-0.698764 -0.11589,-1.278995 -0.3474,-1.740958 -0.23151,-0.461962 -0.59002,-0.772583 -1.07579,-0.931862 z m -3.071543,0 0.08387,0.238655 c -0.483658,0.159279 -0.841904,0.4699 -1.074472,0.931862 -0.232569,0.461963 -0.348721,1.042194 -0.348721,1.740958 0,0.723371 0.116152,1.319742 0.348721,1.789113 0.232568,0.469106 0.587639,0.783431 1.064947,0.942446 l -0.07435,0.238918 c -0.605632,-0.159279 -1.069711,-0.501914 -1.391973,-1.027906 -0.322527,-0.525991 -0.483923,-1.163373 -0.483923,-1.911614 0,-0.746125 0.161925,-1.383242 0.485246,-1.91135 0.323585,-0.528373 0.787135,-0.871802 1.39065,-1.031082 z"
       fill-rule="evenodd"
       id="path8680"
       style="stroke-width:0.264583" />
    <text
       font-family="'Cambria Math', 'Cambria Math_MSFontService', sans-serif"
       font-weight="400"
       font-size="6.35px"
       id="text8694"
       x="99.257263"
       y="84.350777"
       style="stroke-width:0.264583">ğ‘¡<tspan
   font-size="6.35px"
   x="106.32516"
   y="84.350777"
   id="tspan8682"
   style="stroke-width:0.0700043">=</tspan><tspan
   font-size="6.35px"
   x="112.85155"
   y="84.350777"
   id="tspan8684"
   style="stroke-width:0.0700043">ğ‘‰</tspan><tspan
   font-size="4.7625px"
   x="115.97719"
   y="85.673691"
   id="tspan8686"
   style="stroke-width:0.0700043">0</tspan><tspan
   font-size="6.35px"
   x="120.34101"
   y="84.350777"
   id="tspan8688"
   style="stroke-width:0.0700043">+</tspan><tspan
   font-size="6.35px"
   x="126.51464"
   y="84.350777"
   id="tspan8690"
   style="stroke-width:0.0700043">ğ‘£</tspan><tspan
   font-size="4.7625px"
   x="129.89258"
   y="85.673691"
   id="tspan8692"
   style="stroke-width:0.0700043">ğ‘Ÿğ‘–ğ‘ğ‘ğ‘™ğ‘’</tspan></text>
    <path
       d="m 149.86729,79.593303 c 0.60352,0.15928 1.06707,0.502709 1.39065,1.031082 0.32332,0.528108 0.48525,1.165225 0.48525,1.91135 0,0.748241 -0.1614,1.385623 -0.48392,1.911614 -0.32227,0.525992 -0.78635,0.868627 -1.39198,1.027906 l -0.0743,-0.238918 c 0.4773,-0.159015 0.83237,-0.47334 1.06494,-0.942446 0.23257,-0.469371 0.34872,-1.065742 0.34872,-1.789113 0,-0.698764 -0.11562,-1.278995 -0.34713,-1.740958 -0.23151,-0.461962 -0.59028,-0.772583 -1.07606,-0.931862 z m -3.07154,0 0.0836,0.238655 c -0.48365,0.159279 -0.8419,0.4699 -1.07447,0.931862 -0.2323,0.461963 -0.34872,1.042194 -0.34872,1.740958 0,0.723371 0.11642,1.319742 0.34872,1.789113 0.23257,0.469106 0.58764,0.783431 1.06521,0.942446 l -0.0743,0.238918 c -0.60564,-0.159279 -1.06972,-0.501914 -1.39224,-1.027906 -0.32253,-0.525991 -0.48366,-1.163373 -0.48366,-1.911614 0,-0.746125 0.16166,-1.383242 0.48525,-1.91135 0.32332,-0.528373 0.78687,-0.871802 1.39065,-1.031082 z"
       fill-rule="evenodd"
       id="path8696"
       style="stroke-width:0.264583" />
    <text
       font-family="'Cambria Math', 'Cambria Math_MSFontService', sans-serif"
       font-weight="400"
       font-size="6.35px"
       id="text8704"
       x="146.99683"
       y="84.350777"
       style="stroke-width:0.264583">ğ‘¡<tspan
   font-size="6.35px"
   x="154.06473"
   y="84.350777"
   id="tspan8698"
   style="stroke-width:0.0700043">â‰…</tspan><tspan
   font-size="6.35px"
   x="160.59113"
   y="84.350777"
   id="tspan8700"
   style="stroke-width:0.0700043">ğ‘‰</tspan><tspan
   font-size="4.7625px"
   x="163.71675"
   y="85.673691"
   id="tspan8702"
   style="stroke-width:0.0700043">0</tspan></text>
    <path
       d="m 126.78266,124.69973 v 4.23334"
       stroke="#000000"
       stroke-linejoin="round"
       stroke-miterlimit="10"
       fill="none"
       fill-rule="evenodd"
       id="path8706"
       style="stroke-width:0.264583" />
    <text
       font-family="'Cambria Math', 'Cambria Math_MSFontService', sans-serif"
       font-weight="400"
       font-size="6.35px"
       id="text8710"
       x="112.55972"
       y="120.59869"
       style="stroke-width:0.264583">ğ‘‰<tspan
   font-size="4.7625px"
   x="115.68533"
   y="121.92161"
   id="tspan8708"
   style="stroke-width:0.0700043">0</tspan></text>
    <path
       d="m 171.72743,115.75682 h 0.4789 v 7.6708 h -0.4789 z m -27.79448,0 h 0.47758 v 7.6708 h -0.47758 z"
       fill="#836967"
       fill-rule="evenodd"
       id="path8712"
       style="stroke-width:0.264583" />
    <text
       font-family="'Cambria Math', 'Cambria Math_MSFontService', sans-serif"
       font-weight="400"
       font-size="6.35px"
       id="text8716"
       x="145.17622"
       y="121.39244"
       style="stroke-width:0.264583">ğ‘£<tspan
   font-size="4.7625px"
   x="148.55409"
   y="122.71535"
   id="tspan8714"
   style="stroke-width:0.0700043">ğ‘Ÿğ‘–ğ‘ğ‘ğ‘™ğ‘’</tspan></text>
    <path
       d="m 168.52862,116.65058 c 0.60325,0.15901 1.06627,0.50271 1.39171,1.03082 0.32279,0.52811 0.48419,1.16522 0.48419,1.91161 0,0.74824 -0.1614,1.38536 -0.48419,1.91135 -0.32279,0.52626 -0.78581,0.86889 -1.39171,1.02791 l -0.0741,-0.23866 c 0.47625,-0.15928 0.83343,-0.47334 1.06362,-0.94271 0.23283,-0.4691 0.34925,-1.06547 0.34925,-1.78884 0,-0.69877 -0.11377,-1.279 -0.3466,-1.74123 -0.23019,-0.46196 -0.59002,-0.77232 -1.07686,-0.9316 z m -3.07181,0 0.0847,0.23865 c -0.48418,0.15928 -0.84137,0.46964 -1.0742,0.9316 -0.23284,0.46223 -0.34925,1.04246 -0.34925,1.74123 0,0.72337 0.11641,1.31974 0.34925,1.78884 0.23283,0.46937 0.58737,0.78343 1.06362,0.94271 l -0.0741,0.23866 c -0.6059,-0.15902 -1.06892,-0.50165 -1.39171,-1.02791 -0.32279,-0.52599 -0.48419,-1.16311 -0.48419,-1.91135 0,-0.74639 0.1614,-1.3835 0.48683,-1.91161 0.3228,-0.52811 0.78582,-0.87181 1.38907,-1.03082 z"
       fill-rule="evenodd"
       id="path8718"
       style="stroke-width:0.264583" />
    <text
       font-family="'Cambria Math', 'Cambria Math_MSFontService', sans-serif"
       font-weight="400"
       font-size="6.35px"
       id="text8726"
       x="165.65788"
       y="121.39244"
       style="stroke-width:0.264583">ğ‘¡<tspan
   font-size="6.35px"
   x="174.73485"
   y="121.39244"
   id="tspan8720"
   style="stroke-width:0.0700043">â‰ª</tspan><tspan
   font-size="6.35px"
   x="182.14317"
   y="121.39244"
   id="tspan8722"
   style="stroke-width:0.0700043">ğ‘‰</tspan><tspan
   font-size="4.7625px"
   x="185.26881"
   y="122.71535"
   id="tspan8724"
   style="stroke-width:0.0700043">0</tspan></text>
  </g>
</svg>
