<?xml version="1.0" encoding="UTF-8" standalone="no"?>
<svg
   width="105.48809mm"
   height="75.628845mm"
   viewBox="0 0 105.48809 75.628845"
   version="1.1"
   id="svg864"
   inkscape:version="1.2.1 (9c6d41e410, 2022-07-14)"
   sodipodi:docname="Figure8.18b.svg"
   xmlns:inkscape="http://www.inkscape.org/namespaces/inkscape"
   xmlns:sodipodi="http://sodipodi.sourceforge.net/DTD/sodipodi-0.dtd"
   xmlns="http://www.w3.org/2000/svg"
   xmlns:svg="http://www.w3.org/2000/svg"
   xmlns:rdf="http://www.w3.org/1999/02/22-rdf-syntax-ns#"
   xmlns:cc="http://creativecommons.org/ns#"
   xmlns:dc="http://purl.org/dc/elements/1.1/">
  <defs
     id="defs858">
    <clipPath
       id="clip0">
      <rect
         x="281"
         y="397"
         width="434"
         height="324"
         id="rect1427" />
    </clipPath>
    <clipPath
       id="clip0-3">
      <rect
         x="281"
         y="397"
         width="435"
         height="324"
         id="rect3149" />
    </clipPath>
  </defs>
  <sodipodi:namedview
     id="base"
     pagecolor="#ffffff"
     bordercolor="#666666"
     borderopacity="1.0"
     inkscape:pageopacity="0.0"
     inkscape:pageshadow="2"
     inkscape:zoom="2.7812635"
     inkscape:cx="199.19004"
     inkscape:cy="142.92065"
     inkscape:document-units="mm"
     inkscape:current-layer="layer1"
     inkscape:document-rotation="0"
     showgrid="false"
     fit-margin-top="0"
     fit-margin-left="0"
     fit-margin-right="0"
     fit-margin-bottom="0"
     inkscape:window-width="1258"
     inkscape:window-height="1040"
     inkscape:window-x="104"
     inkscape:window-y="0"
     inkscape:window-maximized="0"
     inkscape:showpageshadow="2"
     inkscape:pagecheckerboard="0"
     inkscape:deskcolor="#d1d1d1" />
  <metadata
     id="metadata861">
    <rdf:RDF>
      <cc:Work
         rdf:about="">
        <dc:format>image/svg+xml</dc:format>
        <dc:type
           rdf:resource="http://purl.org/dc/dcmitype/StillImage" />
        <dc:title />
      </cc:Work>
    </rdf:RDF>
  </metadata>
  <g
     inkscape:label="Capa 1"
     inkscape:groupmode="layer"
     id="layer1"
     transform="translate(-123.06207,-3.1087933)">
    <g
       clip-path="url(#clip0-3)"
       transform="matrix(0.26458333,0,0,0.26458333,42.896693,-105.99036)"
       id="g3198">
      <path
         d="M 0.5,-2.24331e-7 0.500102,227.333 h -1 L -0.5,2.24331e-7 Z M 4.0001,226 1.04987e-4,234 -3.9999,226 Z"
         transform="matrix(1,0,0,-1,353.5,667.5)"
         id="path3154" />
      <path
         d="m 353.5,667 h 324.334 v 1 H 353.5 Z m 323,-3.5 8,4 -8,4 z"
         id="path3156" />
      <path
         d="m 363,651 3.373,-30.564 c 19.317,-14.285 89.226,-29.899 112.683,-54.815 23.456,-24.916 10.272,-76.077 27.596,-94.349 C 523.976,453 552.951,455.492 583,456.156"
         stroke="#000000"
         stroke-width="4"
         stroke-linejoin="round"
         stroke-miterlimit="10"
         fill="none"
         fill-rule="evenodd"
         id="path3158" />
      <path
         d="m 364,658 5.327,-26.167 c 32.128,-13.333 148.487,-32.166 187.106,-53.5 38.62,-21.333 31.629,-60.666 45.279,-75 C 615.528,489 631.343,495.167 639,493"
         stroke="#000000"
         stroke-width="4"
         stroke-linejoin="round"
         stroke-miterlimit="10"
         fill="none"
         fill-rule="evenodd"
         id="path3160" />
      <text
         font-family="Arial, Arial_MSFontService, sans-serif"
         font-weight="400"
         font-size="27px"
         transform="translate(362.322,432)"
         id="text3168">V<tspan
   font-size="18px"
   x="17.8333"
   y="6"
   id="tspan3162">B</tspan><tspan
   font-size="27px"
   x="34.666698"
   y="0"
   id="tspan3164">,V/</tspan>cell<tspan
   font-size="27px"
   x="311.28101"
   y="266"
   id="tspan3166">t</tspan></text>
      <path
         d="m 349.5,569.5 h 295"
         stroke="#000000"
         stroke-linejoin="round"
         stroke-miterlimit="10"
         stroke-dasharray="4, 3"
         fill="none"
         fill-rule="evenodd"
         id="path3170" />
      <text
         font-family="Arial, Arial_MSFontService, sans-serif"
         font-weight="400"
         font-size="27px"
         transform="translate(302.172,577)"
         id="text3174">2.2<tspan
   font-size="27px"
   x="0"
   y="-84"
   id="tspan3172">2.5</tspan></text>
      <path
         d="m 353.5,485.5 h 295"
         stroke="#000000"
         stroke-linejoin="round"
         stroke-miterlimit="10"
         stroke-dasharray="4, 3"
         fill="none"
         fill-rule="evenodd"
         id="path3176" />
      <text
         font-family="Arial, Arial_MSFontService, sans-serif"
         font-weight="400"
         font-size="27px"
         transform="translate(523.863,438)"
         id="text3188">I<tspan
   font-size="18px"
   x="7.3333101"
   y="6"
   id="tspan3178">B2</tspan><tspan
   font-size="27px"
   x="29"
   y="0"
   id="tspan3180">&gt;I</tspan><tspan
   font-size="18px"
   x="51.833302"
   y="6"
   id="tspan3182">B1</tspan><tspan
   font-size="27px"
   x="33.602699"
   y="78"
   id="tspan3184">I</tspan><tspan
   font-size="18px"
   x="40.936001"
   y="84"
   id="tspan3186">B1</tspan></text>
      <path
         d="m 349.5,644.5 h 295"
         stroke="#000000"
         stroke-linejoin="round"
         stroke-miterlimit="10"
         stroke-dasharray="4, 3"
         fill="none"
         fill-rule="evenodd"
         id="path3190" />
      <text
         font-family="Arial, Arial_MSFontService, sans-serif"
         font-weight="400"
         font-size="27px"
         transform="translate(302.172,652)"
         id="text3192">2.0</text>
      <text
         font-family="Arial, Arial_MSFontService, sans-serif"
         font-weight="400"
         font-size="21px"
         transform="rotate(-90,630.1315,-67.1315)"
         id="text3194">Overcharge</text>
      <path
         d="m 657.5,443.5 c 5.523,0 10,5.945 10,13.278 v 36.944 c 0,7.333 4.477,13.278 10,13.278 -5.523,0 -10,5.945 -10,13.278 v 36.944 c 0,7.333 -4.477,13.278 -10,13.278"
         stroke="#000000"
         stroke-linejoin="round"
         stroke-miterlimit="10"
         fill="none"
         fill-rule="evenodd"
         id="path3196" />
    </g>
  </g>
</svg>
