<?xml version="1.0" encoding="UTF-8" standalone="no"?>
<svg
   xmlns:dc="http://purl.org/dc/elements/1.1/"
   xmlns:cc="http://creativecommons.org/ns#"
   xmlns:rdf="http://www.w3.org/1999/02/22-rdf-syntax-ns#"
   xmlns:svg="http://www.w3.org/2000/svg"
   xmlns="http://www.w3.org/2000/svg"
   xmlns:sodipodi="http://sodipodi.sourceforge.net/DTD/sodipodi-0.dtd"
   xmlns:inkscape="http://www.inkscape.org/namespaces/inkscape"
   width="69.974648mm"
   height="57.744537mm"
   viewBox="0 0 69.974648 57.744537"
   version="1.1"
   id="svg10719"
   inkscape:version="1.0.2-2 (e86c870879, 2021-01-15)"
   sodipodi:docname="Figure8.10b.svg">
  <defs
     id="defs10713">
    <clipPath
       id="clip0">
      <rect
         x="184"
         y="99"
         width="310"
         height="234"
         id="rect11282" />
    </clipPath>
  </defs>
  <sodipodi:namedview
     id="base"
     pagecolor="#ffffff"
     bordercolor="#666666"
     borderopacity="1.0"
     inkscape:pageopacity="0.0"
     inkscape:pageshadow="2"
     inkscape:zoom="0.35"
     inkscape:cx="-56.335962"
     inkscape:cy="-379.44788"
     inkscape:document-units="mm"
     inkscape:current-layer="layer1"
     inkscape:document-rotation="0"
     showgrid="false"
     fit-margin-top="0"
     fit-margin-left="0"
     fit-margin-right="0"
     fit-margin-bottom="0"
     inkscape:window-width="1258"
     inkscape:window-height="1040"
     inkscape:window-x="208"
     inkscape:window-y="0"
     inkscape:window-maximized="0" />
  <metadata
     id="metadata10716">
    <rdf:RDF>
      <cc:Work
         rdf:about="">
        <dc:format>image/svg+xml</dc:format>
        <dc:type
           rdf:resource="http://purl.org/dc/dcmitype/StillImage" />
        <dc:title></dc:title>
      </cc:Work>
    </rdf:RDF>
  </metadata>
  <g
     inkscape:label="Capa 1"
     inkscape:groupmode="layer"
     id="layer1"
     transform="translate(-120.73889,-248.56225)">
    <path
       d="m 151.8279,306.30679 3e-5,-53.00477 h -0.26458 l -3e-5,53.00477 z m 0.92607,-52.65208 -1.05833,-2.11667 -1.05834,2.11667 z"
       id="path11287"
       style="stroke-width:0.264583" />
    <path
       d="m 120.73989,279.45158 62.26545,0.25744 -10e-4,0.26432 -62.26545,-0.25718 z m 61.91647,-0.67019 2.11217,1.06706 -2.1209,1.04961 z"
       id="path11289"
       style="stroke-width:0.264583" />
    <path
       d="m 151.56332,256.43283 v 46.83125"
       stroke="#4472c4"
       stroke-width="1.5875"
       stroke-linejoin="round"
       stroke-miterlimit="10"
       fill="none"
       fill-rule="evenodd"
       id="path11291" />
    <path
       d="m 125.63415,279.45158 52.91667,0.26458"
       stroke="#000000"
       stroke-width="1.5875"
       stroke-linejoin="round"
       stroke-miterlimit="10"
       fill="none"
       fill-rule="evenodd"
       id="path11293" />
    <text
       font-family="'Times New Roman', 'Times New Roman_MSFontService', sans-serif"
       font-weight="400"
       font-size="7.14375px"
       id="text11309"
       x="156.04614"
       y="253.52242"
       style="stroke-width:0.264583">i<tspan
   font-size="4.7625px"
   x="157.98642"
   y="255.10991"
   id="tspan11295"
   style="stroke-width:0.0700043">SW</tspan><tspan
   font-size="7.14375px"
   x="180.07913"
   y="286.59534"
   id="tspan11297"
   style="stroke-width:0.0700043">v</tspan><tspan
   font-size="4.7625px"
   x="183.60699"
   y="288.18283"
   id="tspan11299"
   style="stroke-width:0.0700043">SW</tspan><tspan
   font-size="5.55625px"
   x="166.10208"
   y="266.22241"
   id="tspan11301"
   style="stroke-width:0.0700043">ON</tspan><tspan
   font-size="5.55625px"
   x="175.62709"
   y="266.22241"
   id="tspan11303"
   style="stroke-width:0.0700043">state</tspan><tspan
   font-size="5.55625px"
   x="123.0714"
   y="298.76617"
   id="tspan11305"
   style="stroke-width:0.0700043">OFF</tspan><tspan
   font-size="5.55625px"
   x="134.80124"
   y="298.76617"
   id="tspan11307"
   style="stroke-width:0.0700043">state</tspan></text>
    <path
       d="m 164.66019,264.8995 h -1.05833 v 0.26458 h 1.05833 z m -1.85208,0 -1.05834,1e-5 v 0.26458 h 1.05834 z m -1.85209,1e-5 h -1.05833 v 0.26458 h 1.05833 z m -1.85208,0 h -1.05833 v 0.26459 h 1.05833 z m -1.85208,10e-6 h -1.05834 v 0.26458 h 1.05834 z m -1.85209,0 H 155.047 v 0.26459 l 0.35277,-10e-6 z m 0,-0.92604 -2.11666,1.05834 2.11666,1.05833 z"
       id="path11311"
       style="stroke-width:0.264583" />
    <path
       d="m 133.83623,292.28387 v -1.05833 h -0.26458 v 1.05833 z m 1e-5,-1.85208 v -1.05834 h -0.26458 l -1e-5,1.05834 z m 0,-1.85209 v -1.05833 h -0.26458 v 1.05833 z m 0,-1.85208 1e-5,-1.05833 h -0.26459 v 1.05833 z m 1e-5,-1.85208 v -1.05834 h -0.26458 v 1.05834 z m 0,-1.85209 1e-5,-0.61735 h -0.26459 v 0.61735 z m 0.92605,-0.26458 -1.05833,-2.11667 -1.05834,2.11667 z"
       id="path11313"
       style="stroke-width:0.264583" />
  </g>
</svg>
