<?xml version="1.0" encoding="UTF-8" standalone="no"?>
<svg
   xmlns:dc="http://purl.org/dc/elements/1.1/"
   xmlns:cc="http://creativecommons.org/ns#"
   xmlns:rdf="http://www.w3.org/1999/02/22-rdf-syntax-ns#"
   xmlns:svg="http://www.w3.org/2000/svg"
   xmlns="http://www.w3.org/2000/svg"
   xmlns:sodipodi="http://sodipodi.sourceforge.net/DTD/sodipodi-0.dtd"
   xmlns:inkscape="http://www.inkscape.org/namespaces/inkscape"
   width="268.987mm"
   height="158.07573mm"
   viewBox="0 0 268.987 158.07573"
   version="1.1"
   id="svg8"
   inkscape:version="1.0.2-2 (e86c870879, 2021-01-15)"
   sodipodi:docname="Charging efficiency.svg">
  <defs
     id="defs2" />
  <sodipodi:namedview
     id="base"
     pagecolor="#ffffff"
     bordercolor="#666666"
     borderopacity="1.0"
     inkscape:pageopacity="0.0"
     inkscape:pageshadow="2"
     inkscape:zoom="0.66"
     inkscape:cx="451.92523"
     inkscape:cy="466.19625"
     inkscape:document-units="mm"
     inkscape:current-layer="layer1"
     inkscape:document-rotation="0"
     showgrid="false"
     inkscape:window-width="1920"
     inkscape:window-height="1017"
     inkscape:window-x="-8"
     inkscape:window-y="-8"
     inkscape:window-maximized="1" />
  <metadata
     id="metadata5">
    <rdf:RDF>
      <cc:Work
         rdf:about="">
        <dc:format>image/svg+xml</dc:format>
        <dc:type
           rdf:resource="http://purl.org/dc/dcmitype/StillImage" />
        <dc:title></dc:title>
      </cc:Work>
    </rdf:RDF>
  </metadata>
  <g
     inkscape:label="Capa 1"
     inkscape:groupmode="layer"
     id="layer1"
     transform="translate(13.73855,23.287152)">
    <text
       font-family="'Cambria Math', 'Cambria Math_MSFontService', sans-serif"
       font-weight="400"
       font-size="7.67292px"
       id="text889"
       x="225.85175"
       y="8.3502197"
       style="stroke-width:0.264583"></text>
    <text
       font-family="'Cambria Math', 'Cambria Math_MSFontService', sans-serif"
       font-weight="400"
       font-size="7.67292px"
       id="text909"
       x="172.92741"
       y="33.221054"
       style="stroke-width:0.264583"></text>
    <path
       d="m 15.95352,95.907641 h 238.125 m -238.125,-25.68655 h 238.125 m -238.125,-25.64262 h 238.125 m -238.125,-25.64262 h 238.125 M 15.95352,-6.7506992 h 238.125"
       stroke="#f2f2f2"
       stroke-linejoin="round"
       stroke-miterlimit="10"
       fill="none"
       fill-rule="evenodd"
       id="path1044"
       style="stroke-width:0.264583" />
    <path
       d="m 15.95352,82.942791 h 1.05913 v 0.26485 h -1.05913 z m 1.85341,0 h 1.05912 v 0.26485 h -1.05912 z m 1.8534,0 h 1.05913 v 0.26485 h -1.05913 z m 1.85367,0 h 1.05913 v 0.26485 H 21.514 Z m 1.85341,0 h 1.05913 v 0.26485 h -1.05913 z m 1.85341,0 h 1.05912 v 0.26485 h -1.05912 z m 1.8534,0 h 1.05913 v 0.26485 h -1.05913 z m 1.85341,0 h 1.05913 v 0.26485 h -1.05913 z m 1.85367,0 h 1.05913 v 0.26485 H 30.7813 Z m 1.85341,0 h 1.05912 v 0.26485 h -1.05912 z m 1.8534,0 h 1.05913 v 0.26485 h -1.05913 z m 1.85341,0 h 1.05913 v 0.26485 h -1.05913 z m 1.8534,0 h 1.05913 v 0.26485 h -1.05913 z m 1.85368,0 h 1.05886 v 0.26485 H 40.0486 Z m 1.8534,0 h 1.05913 v 0.26485 H 41.902 Z m 1.85341,0 h 1.05913 v 0.26485 h -1.05913 z m 1.8534,0 h 1.05913 v 0.26485 h -1.05913 z m 1.85341,0 h 1.05913 v 0.26485 h -1.05913 z m 1.85341,0 h 1.05912 v 0.26485 h -1.05912 z m 1.85367,0 h 1.05912 v 0.26485 H 51.1693 Z m 1.8534,0 h 1.05913 v 0.26485 H 53.0227 Z m 1.85341,0 h 1.05913 v 0.26485 h -1.05913 z m 1.85341,0 h 1.05912 v 0.26485 h -1.05912 z m 1.8534,0 h 1.05913 v 0.26485 h -1.05913 z m 1.85367,0 h 1.05913 v 0.26485 h -1.05913 z m 1.85341,0 h 1.05913 v 0.26485 H 62.29 Z m 1.85341,0 h 1.05912 v 0.26485 h -1.05912 z m 1.8534,0 h 1.05913 v 0.26485 h -1.05913 z m 1.85341,0 h 1.05913 v 0.26485 h -1.05913 z m 1.85367,0 h 1.05913 v 0.26485 h -1.05913 z m 1.85341,0 h 1.05912 v 0.26485 H 71.5573 Z m 1.8534,0 h 1.05913 v 0.26485 H 73.4107 Z m 1.85341,0 h 1.05912 v 0.26485 h -1.05912 z m 1.8534,0 h 1.05913 v 0.26485 h -1.05913 z m 1.85341,0 h 1.05913 v 0.26485 h -1.05913 z m 1.85367,0 h 1.05913 v 0.26485 h -1.05913 z m 1.85341,0 h 1.05912 v 0.26485 H 82.678 Z m 1.8534,0 h 1.05913 v 0.26485 H 84.5314 Z m 1.85341,0 h 1.05913 v 0.26485 h -1.05913 z m 1.85341,0 h 1.05912 v 0.26485 h -1.05912 z m 1.85367,0 h 1.05912 v 0.26485 h -1.05912 z m 1.8534,0 h 1.05913 v 0.26485 h -1.05913 z m 1.85341,0 h 1.05913 v 0.26485 H 93.7987 Z m 1.85341,0 h 1.05912 v 0.26485 h -1.05912 z m 1.8534,0 h 1.05913 v 0.26485 h -1.05913 z m 1.85367,0 h 1.05913 v 0.26485 h -1.05913 z m 1.85341,0 h 1.05913 v 0.26485 h -1.05913 z m 1.8534,0 h 1.05913 v 0.26485 h -1.05913 z m 1.85341,0 h 1.05913 v 0.26485 h -1.05913 z m 1.85341,0 h 1.05912 v 0.26485 h -1.05912 z m 1.8534,0 h 1.05913 v 0.26485 h -1.05913 z m 1.85367,0 h 1.05913 v 0.26485 h -1.05913 z m 1.85341,0 h 1.05913 v 0.26485 h -1.05913 z m 1.85341,0 h 1.05912 v 0.26485 h -1.05912 z m 1.8534,0 h 1.05913 v 0.26485 h -1.05913 z m 1.85341,0 h 1.05913 v 0.26485 h -1.05913 z m 1.85367,0 h 1.05913 v 0.26485 h -1.05913 z m 1.85341,0 h 1.05912 v 0.26485 h -1.05912 z m 1.8534,0 h 1.05913 v 0.26485 h -1.05913 z m 1.85341,0 h 1.05913 v 0.26485 h -1.05913 z m 1.8534,0 h 1.05913 v 0.26485 h -1.05913 z m 1.85368,0 h 1.05912 v 0.26485 h -1.05912 z m 1.8534,0 h 1.05913 v 0.26485 h -1.05913 z m 1.85341,0 h 1.05913 v 0.26485 h -1.05913 z m 1.8534,0 h 1.05913 v 0.26485 h -1.05913 z m 1.85341,0 h 1.05913 v 0.26485 h -1.05913 z m 1.85341,0 h 1.05939 v 0.26485 h -1.05939 z m 1.85367,0 h 1.05912 v 0.26485 h -1.05912 z m 1.8534,0 h 1.05913 v 0.26485 h -1.05913 z m 1.85341,0 h 1.05913 v 0.26485 h -1.05913 z m 1.85341,0 h 1.05912 v 0.26485 h -1.05912 z m 1.8534,0 h 1.05913 v 0.26485 h -1.05913 z m 1.85367,0 h 1.05913 v 0.26485 h -1.05913 z m 1.85341,0 h 1.05913 v 0.26485 h -1.05913 z m 1.85341,0 h 1.05912 v 0.26485 h -1.05912 z m 1.8534,0 h 1.05913 v 0.26485 h -1.05913 z m 1.85341,0 h 1.05913 v 0.26485 h -1.05913 z m 1.85367,0 h 1.05913 v 0.26485 h -1.05913 z m 1.85341,0 h 1.05912 v 0.26485 h -1.05912 z m 1.8534,0 h 1.05913 v 0.26485 h -1.05913 z m 1.85341,0 h 1.05912 v 0.26485 h -1.05912 z m 1.8534,0 h 1.05913 v 0.26485 h -1.05913 z m 1.85367,0 h 1.05887 v 0.26485 h -1.05887 z m 1.85341,0 h 1.05913 v 0.26485 h -1.05913 z m 1.85341,0 h 1.05912 v 0.26485 h -1.05912 z m 1.8534,0 h 1.05913 v 0.26485 h -1.05913 z m 1.85341,0 h 1.05913 v 0.26485 h -1.05913 z m 1.85341,0 h 1.05912 v 0.26485 h -1.05912 z m 1.85367,0 h 1.05912 v 0.26485 h -1.05912 z m 1.8534,0 h 1.05913 v 0.26485 h -1.05913 z m 1.85341,0 h 1.05913 v 0.26485 h -1.05913 z m 1.85341,0 h 1.05912 v 0.26485 h -1.05912 z m 1.8534,0 h 1.05913 v 0.26485 h -1.05913 z m 1.85367,0 h 1.05913 v 0.26485 h -1.05913 z m 1.85341,0 h 1.05913 v 0.26485 h -1.05913 z m 1.8534,0 h 1.05913 v 0.26485 h -1.05913 z m 1.85341,0 h 1.05913 v 0.26485 h -1.05913 z m 1.85341,0 h 1.05912 v 0.26485 h -1.05912 z m 1.85367,0 h 1.05913 v 0.26485 h -1.05913 z m 1.8534,0 h 1.05913 v 0.26485 h -1.05913 z m 1.85341,0 h 1.05913 v 0.26485 h -1.05913 z m 1.85341,0 h 1.05912 v 0.26485 h -1.05912 z m 1.8534,0 h 1.05913 v 0.26485 h -1.05913 z m 1.85367,0 h 1.05887 v 0.26485 h -1.05887 z m 1.85341,0 h 1.05913 v 0.26485 h -1.05913 z m 1.85341,0 h 1.05912 v 0.26485 h -1.05912 z m 1.8534,0 h 1.05913 v 0.26485 h -1.05913 z m 1.85341,0 h 1.05913 v 0.26485 h -1.05913 z m 1.85341,0 h 1.05912 v 0.26485 h -1.05912 z m 1.85367,0 h 1.05912 v 0.26485 h -1.05912 z m 1.8534,0 h 1.05913 v 0.26485 h -1.05913 z m 1.85341,0 h 1.05913 v 0.26485 h -1.05913 z m 1.85314,0 h 1.05833 v 0.26485 h -1.05833 z m 1.85473,0 h 1.05833 v 0.26485 h -1.05833 z m 1.85208,0 h 1.05834 v 0.26485 h -1.05834 z m 1.85473,0 h 1.05833 v 0.26485 h -1.05833 z m 1.85208,0 h 1.05834 v 0.26485 h -1.05834 z m 1.85473,0 h 1.05834 v 0.26485 h -1.05834 z m 1.85209,0 h 1.06098 v 0.26485 h -1.06098 z m 1.85473,0 h 1.05833 v 0.26485 h -1.05833 z m 1.85208,0 h 1.06098 v 0.26485 h -1.06098 z m 1.85473,0 h 1.05833 v 0.26485 h -1.05833 z m 1.85208,0 h 1.06098 v 0.26485 h -1.06098 z m 1.85473,0 h 1.05833 v 0.26485 h -1.05833 z m 1.85208,0 h 1.06098 v 0.26485 h -1.06098 z m 1.85473,0 h 1.05834 v 0.26485 h -1.05834 z m 1.85209,0 h 1.06098 v 0.26485 H 249.488 Z m 1.85473,0 h 1.05833 v 0.26485 h -1.05833 z m 1.85208,0 h 0.88371 v 0.26485 h -0.88371 z M 15.95352,57.300431 h 1.05913 v 0.26485 h -1.05913 z m 1.85341,0 h 1.05912 v 0.26485 h -1.05912 z m 1.8534,0 h 1.05913 v 0.26485 h -1.05913 z m 1.85367,0 h 1.05913 v 0.26485 H 21.514 Z m 1.85341,0 h 1.05913 v 0.26485 h -1.05913 z m 1.85341,0 h 1.05912 v 0.26485 h -1.05912 z m 1.8534,0 h 1.05913 v 0.26485 h -1.05913 z m 1.85341,0 h 1.05913 v 0.26485 h -1.05913 z m 1.85367,0 h 1.05913 v 0.26485 H 30.7813 Z m 1.85341,0 h 1.05912 v 0.26485 h -1.05912 z m 1.8534,0 h 1.05913 v 0.26485 h -1.05913 z m 1.85341,0 h 1.05913 v 0.26485 h -1.05913 z m 1.8534,0 h 1.05913 v 0.26485 h -1.05913 z m 1.85368,0 h 1.05886 v 0.26485 H 40.0486 Z m 1.8534,0 h 1.05913 v 0.26485 H 41.902 Z m 1.85341,0 h 1.05913 v 0.26485 h -1.05913 z m 1.8534,0 h 1.05913 v 0.26485 h -1.05913 z m 1.85341,0 h 1.05913 v 0.26485 h -1.05913 z m 1.85341,0 h 1.05912 v 0.26485 h -1.05912 z m 1.85367,0 h 1.05912 v 0.26485 H 51.1693 Z m 1.8534,0 h 1.05913 v 0.26485 H 53.0227 Z m 1.85341,0 h 1.05913 v 0.26485 h -1.05913 z m 1.85341,0 h 1.05912 v 0.26485 h -1.05912 z m 1.8534,0 h 1.05913 v 0.26485 h -1.05913 z m 1.85367,0 h 1.05913 v 0.26485 h -1.05913 z m 1.85341,0 h 1.05913 v 0.26485 H 62.29 Z m 1.85341,0 h 1.05912 v 0.26485 h -1.05912 z m 1.8534,0 h 1.05913 v 0.26485 h -1.05913 z m 1.85341,0 h 1.05913 v 0.26485 h -1.05913 z m 1.85367,0 h 1.05913 v 0.26485 h -1.05913 z m 1.85341,0 h 1.05912 v 0.26485 H 71.5573 Z m 1.8534,0 h 1.05913 v 0.26485 H 73.4107 Z m 1.85341,0 h 1.05912 v 0.26485 h -1.05912 z m 1.8534,0 h 1.05913 v 0.26485 h -1.05913 z m 1.85341,0 h 1.05913 v 0.26485 h -1.05913 z m 1.85367,0 h 1.05913 v 0.26485 h -1.05913 z m 1.85341,0 h 1.05912 v 0.26485 H 82.678 Z m 1.8534,0 h 1.05913 v 0.26485 H 84.5314 Z m 1.85341,0 h 1.05913 v 0.26485 h -1.05913 z m 1.85341,0 h 1.05912 v 0.26485 h -1.05912 z m 1.85367,0 h 1.05912 v 0.26485 h -1.05912 z m 1.8534,0 h 1.05913 v 0.26485 h -1.05913 z m 1.85341,0 h 1.05913 v 0.26485 H 93.7987 Z m 1.85341,0 h 1.05912 v 0.26485 h -1.05912 z m 1.8534,0 h 1.05913 v 0.26485 h -1.05913 z m 1.85367,0 h 1.05913 v 0.26485 h -1.05913 z m 1.85341,0 h 1.05913 v 0.26485 h -1.05913 z m 1.8534,0 h 1.05913 v 0.26485 h -1.05913 z m 1.85341,0 h 1.05913 v 0.26485 h -1.05913 z m 1.85341,0 h 1.05912 v 0.26485 h -1.05912 z m 1.8534,0 h 1.05913 v 0.26485 h -1.05913 z m 1.85367,0 h 1.05913 v 0.26485 h -1.05913 z m 1.85341,0 h 1.05913 v 0.26485 h -1.05913 z m 1.85341,0 h 1.05912 v 0.26485 h -1.05912 z m 1.8534,0 h 1.05913 v 0.26485 h -1.05913 z m 1.85341,0 h 1.05913 v 0.26485 h -1.05913 z m 1.85367,0 h 1.05913 v 0.26485 h -1.05913 z m 1.85341,0 h 1.05912 v 0.26485 h -1.05912 z m 1.8534,0 h 1.05913 v 0.26485 h -1.05913 z m 1.85341,0 h 1.05913 v 0.26485 h -1.05913 z m 1.8534,0 h 1.05913 v 0.26485 h -1.05913 z m 1.85368,0 h 1.05912 v 0.26485 h -1.05912 z m 1.8534,0 h 1.05913 v 0.26485 h -1.05913 z m 1.85341,0 h 1.05913 v 0.26485 h -1.05913 z m 1.8534,0 h 1.05913 v 0.26485 h -1.05913 z m 1.85341,0 h 1.05913 v 0.26485 h -1.05913 z m 1.85341,0 h 1.05939 v 0.26485 h -1.05939 z m 1.85367,0 h 1.05912 v 0.26485 h -1.05912 z m 1.8534,0 h 1.05913 v 0.26485 h -1.05913 z m 1.85341,0 h 1.05913 v 0.26485 h -1.05913 z m 1.85341,0 h 1.05912 v 0.26485 h -1.05912 z m 1.8534,0 h 1.05913 v 0.26485 h -1.05913 z m 1.85367,0 h 1.05913 v 0.26485 h -1.05913 z m 1.85341,0 h 1.05913 v 0.26485 h -1.05913 z m 1.85341,0 h 1.05912 v 0.26485 h -1.05912 z m 1.8534,0 h 1.05913 v 0.26485 h -1.05913 z m 1.85341,0 h 1.05913 v 0.26485 h -1.05913 z m 1.85367,0 h 1.05913 v 0.26485 h -1.05913 z m 1.85341,0 h 1.05912 v 0.26485 h -1.05912 z m 1.8534,0 h 1.05913 v 0.26485 h -1.05913 z m 1.85341,0 h 1.05912 v 0.26485 h -1.05912 z m 1.8534,0 h 1.05913 v 0.26485 h -1.05913 z m 1.85367,0 h 1.05887 v 0.26485 h -1.05887 z m 1.85341,0 h 1.05913 v 0.26485 h -1.05913 z m 1.85341,0 h 1.05912 v 0.26485 h -1.05912 z m 1.8534,0 h 1.05913 v 0.26485 h -1.05913 z m 1.85341,0 h 1.05913 v 0.26485 h -1.05913 z m 1.85341,0 h 1.05912 v 0.26485 h -1.05912 z m 1.85367,0 h 1.05912 v 0.26485 h -1.05912 z m 1.8534,0 h 1.05913 v 0.26485 h -1.05913 z m 1.85341,0 h 1.05913 v 0.26485 h -1.05913 z m 1.85341,0 h 1.05912 v 0.26485 h -1.05912 z m 1.8534,0 h 1.05913 v 0.26485 h -1.05913 z m 1.85367,0 h 1.05913 v 0.26485 h -1.05913 z m 1.85341,0 h 1.05913 v 0.26485 h -1.05913 z m 1.8534,0 h 1.05913 v 0.26485 h -1.05913 z m 1.85341,0 h 1.05913 v 0.26485 h -1.05913 z m 1.85341,0 h 1.05912 v 0.26485 h -1.05912 z m 1.85367,0 h 1.05913 v 0.26485 h -1.05913 z m 1.8534,0 h 1.05913 v 0.26485 h -1.05913 z m 1.85341,0 h 1.05913 v 0.26485 h -1.05913 z m 1.85341,0 h 1.05912 v 0.26485 h -1.05912 z m 1.8534,0 h 1.05913 v 0.26485 h -1.05913 z m 1.85367,0 h 1.05887 v 0.26485 h -1.05887 z m 1.85341,0 h 1.05913 v 0.26485 h -1.05913 z m 1.85341,0 h 1.05912 v 0.26485 h -1.05912 z m 1.8534,0 h 1.05913 v 0.26485 h -1.05913 z m 1.85341,0 h 1.05913 v 0.26485 h -1.05913 z m 1.85341,0 h 1.05912 v 0.26485 h -1.05912 z m 1.85367,0 h 1.05912 v 0.26485 h -1.05912 z m 1.8534,0 h 1.05913 v 0.26485 h -1.05913 z m 1.85341,0 h 1.05913 v 0.26485 h -1.05913 z m 1.85314,0 h 1.05833 v 0.26485 h -1.05833 z m 1.85473,0 h 1.05833 v 0.26485 h -1.05833 z m 1.85208,0 h 1.05834 v 0.26485 h -1.05834 z m 1.85473,0 h 1.05833 v 0.26485 h -1.05833 z m 1.85208,0 h 1.05834 v 0.26485 h -1.05834 z m 1.85473,0 h 1.05834 v 0.26485 h -1.05834 z m 1.85209,0 h 1.06098 v 0.26485 h -1.06098 z m 1.85473,0 h 1.05833 v 0.26485 h -1.05833 z m 1.85208,0 h 1.06098 v 0.26485 h -1.06098 z m 1.85473,0 h 1.05833 v 0.26485 h -1.05833 z m 1.85208,0 h 1.06098 v 0.26485 h -1.06098 z m 1.85473,0 h 1.05833 v 0.26485 h -1.05833 z m 1.85208,0 h 1.06098 v 0.26485 h -1.06098 z m 1.85473,0 h 1.05834 v 0.26485 h -1.05834 z m 1.85209,0 h 1.06098 v 0.26485 H 249.488 Z m 1.85473,0 h 1.05833 v 0.26485 h -1.05833 z m 1.85208,0 h 0.88371 v 0.26485 h -0.88371 z M 15.95352,31.613891 h 1.05913 v 0.26458 h -1.05913 z m 1.85341,0 h 1.05912 v 0.26458 h -1.05912 z m 1.8534,0 h 1.05913 v 0.26458 h -1.05913 z m 1.85367,0 h 1.05913 v 0.26458 H 21.514 Z m 1.85341,0 h 1.05913 v 0.26458 h -1.05913 z m 1.85341,0 h 1.05912 v 0.26458 h -1.05912 z m 1.8534,0 h 1.05913 v 0.26458 h -1.05913 z m 1.85341,0 h 1.05913 v 0.26458 h -1.05913 z m 1.85367,0 h 1.05913 v 0.26458 H 30.7813 Z m 1.85341,0 h 1.05912 v 0.26458 h -1.05912 z m 1.8534,0 h 1.05913 v 0.26458 h -1.05913 z m 1.85341,0 h 1.05913 v 0.26458 h -1.05913 z m 1.8534,0 h 1.05913 v 0.26458 h -1.05913 z m 1.85368,0 h 1.05886 v 0.26458 H 40.0486 Z m 1.8534,0 h 1.05913 v 0.26458 H 41.902 Z m 1.85341,0 h 1.05913 v 0.26458 h -1.05913 z m 1.8534,0 h 1.05913 v 0.26458 h -1.05913 z m 1.85341,0 h 1.05913 v 0.26458 h -1.05913 z m 1.85341,0 h 1.05912 v 0.26458 h -1.05912 z m 1.85367,0 h 1.05912 v 0.26458 H 51.1693 Z m 1.8534,0 h 1.05913 v 0.26458 H 53.0227 Z m 1.85341,0 h 1.05913 v 0.26458 h -1.05913 z m 1.85341,0 h 1.05912 v 0.26458 h -1.05912 z m 1.8534,0 h 1.05913 v 0.26458 h -1.05913 z m 1.85367,0 h 1.05913 v 0.26458 h -1.05913 z m 1.85341,0 h 1.05913 v 0.26458 H 62.29 Z m 1.85341,0 h 1.05912 v 0.26458 h -1.05912 z m 1.8534,0 h 1.05913 v 0.26458 h -1.05913 z m 1.85341,0 h 1.05913 v 0.26458 h -1.05913 z m 1.85367,0 h 1.05913 v 0.26458 h -1.05913 z m 1.85341,0 h 1.05912 v 0.26458 H 71.5573 Z m 1.8534,0 h 1.05913 v 0.26458 H 73.4107 Z m 1.85341,0 h 1.05912 v 0.26458 h -1.05912 z m 1.8534,0 h 1.05913 v 0.26458 h -1.05913 z m 1.85341,0 h 1.05913 v 0.26458 h -1.05913 z m 1.85367,0 h 1.05913 v 0.26458 h -1.05913 z m 1.85341,0 h 1.05912 v 0.26458 H 82.678 Z m 1.8534,0 h 1.05913 v 0.26458 H 84.5314 Z m 1.85341,0 h 1.05913 v 0.26458 h -1.05913 z m 1.85341,0 h 1.05912 v 0.26458 h -1.05912 z m 1.85367,0 h 1.05912 v 0.26458 h -1.05912 z m 1.8534,0 h 1.05913 v 0.26458 h -1.05913 z m 1.85341,0 h 1.05913 v 0.26458 H 93.7987 Z m 1.85341,0 h 1.05912 v 0.26458 h -1.05912 z m 1.8534,0 h 1.05913 v 0.26458 h -1.05913 z m 1.85367,0 h 1.05913 v 0.26458 h -1.05913 z m 1.85341,0 h 1.05913 v 0.26458 h -1.05913 z m 1.8534,0 h 1.05913 v 0.26458 h -1.05913 z m 1.85341,0 h 1.05913 v 0.26458 h -1.05913 z m 1.85341,0 h 1.05912 v 0.26458 h -1.05912 z m 1.8534,0 h 1.05913 v 0.26458 h -1.05913 z m 1.85367,0 h 1.05913 v 0.26458 h -1.05913 z m 1.85341,0 h 1.05913 v 0.26458 h -1.05913 z m 1.85341,0 h 1.05912 v 0.26458 h -1.05912 z m 1.8534,0 h 1.05913 v 0.26458 h -1.05913 z m 1.85341,0 h 1.05913 v 0.26458 h -1.05913 z m 1.85367,0 h 1.05913 v 0.26458 h -1.05913 z m 1.85341,0 h 1.05912 v 0.26458 h -1.05912 z m 1.8534,0 h 1.05913 v 0.26458 h -1.05913 z m 1.85341,0 h 1.05913 v 0.26458 h -1.05913 z m 1.8534,0 h 1.05913 v 0.26458 h -1.05913 z m 1.85368,0 h 1.05912 v 0.26458 h -1.05912 z m 1.8534,0 h 1.05913 v 0.26458 h -1.05913 z m 1.85341,0 h 1.05913 v 0.26458 h -1.05913 z m 1.8534,0 h 1.05913 v 0.26458 h -1.05913 z m 1.85341,0 h 1.05913 v 0.26458 h -1.05913 z m 1.85341,0 h 1.05939 v 0.26458 h -1.05939 z m 1.85367,0 h 1.05912 v 0.26458 h -1.05912 z m 1.8534,0 h 1.05913 v 0.26458 h -1.05913 z m 1.85341,0 h 1.05913 v 0.26458 h -1.05913 z m 1.85341,0 h 1.05912 v 0.26458 h -1.05912 z m 1.8534,0 h 1.05913 v 0.26458 h -1.05913 z m 1.85367,0 h 1.05913 v 0.26458 h -1.05913 z m 1.85341,0 h 1.05913 v 0.26458 h -1.05913 z m 1.85341,0 h 1.05912 v 0.26458 h -1.05912 z m 1.8534,0 h 1.05913 v 0.26458 h -1.05913 z m 1.85341,0 h 1.05913 v 0.26458 h -1.05913 z m 1.85367,0 h 1.05913 v 0.26458 h -1.05913 z m 1.85341,0 h 1.05912 v 0.26458 h -1.05912 z m 1.8534,0 h 1.05913 v 0.26458 h -1.05913 z m 1.85341,0 h 1.05912 v 0.26458 h -1.05912 z m 1.8534,0 h 1.05913 v 0.26458 h -1.05913 z m 1.85367,0 h 1.05887 v 0.26458 h -1.05887 z m 1.85341,0 h 1.05913 v 0.26458 h -1.05913 z m 1.85341,0 h 1.05912 v 0.26458 h -1.05912 z m 1.8534,0 h 1.05913 v 0.26458 h -1.05913 z m 1.85341,0 h 1.05913 v 0.26458 h -1.05913 z m 1.85341,0 h 1.05912 v 0.26458 h -1.05912 z m 1.85367,0 h 1.05912 v 0.26458 h -1.05912 z m 1.8534,0 h 1.05913 v 0.26458 h -1.05913 z m 1.85341,0 h 1.05913 v 0.26458 h -1.05913 z m 1.85341,0 h 1.05912 v 0.26458 h -1.05912 z m 1.8534,0 h 1.05913 v 0.26458 h -1.05913 z m 1.85367,0 h 1.05913 v 0.26458 h -1.05913 z m 1.85341,0 h 1.05913 v 0.26458 h -1.05913 z m 1.8534,0 h 1.05913 v 0.26458 h -1.05913 z m 1.85341,0 h 1.05913 v 0.26458 h -1.05913 z m 1.85341,0 h 1.05912 v 0.26458 h -1.05912 z m 1.85367,0 h 1.05913 v 0.26458 h -1.05913 z m 1.8534,0 h 1.05913 v 0.26458 h -1.05913 z m 1.85341,0 h 1.05913 v 0.26458 h -1.05913 z m 1.85341,0 h 1.05912 v 0.26458 h -1.05912 z m 1.8534,0 h 1.05913 v 0.26458 h -1.05913 z m 1.85367,0 h 1.05887 v 0.26458 h -1.05887 z m 1.85341,0 h 1.05913 v 0.26458 h -1.05913 z m 1.85341,0 h 1.05912 v 0.26458 h -1.05912 z m 1.8534,0 h 1.05913 v 0.26458 h -1.05913 z m 1.85341,0 h 1.05913 v 0.26458 h -1.05913 z m 1.85341,0 h 1.05912 v 0.26458 h -1.05912 z m 1.85367,0 h 1.05912 v 0.26458 h -1.05912 z m 1.8534,0 h 1.05913 v 0.26458 h -1.05913 z m 1.85341,0 h 1.05913 v 0.26458 h -1.05913 z m 1.85314,0 h 1.05833 v 0.26458 h -1.05833 z m 1.85473,0 h 1.05833 v 0.26458 h -1.05833 z m 1.85208,0 h 1.05834 v 0.26458 h -1.05834 z m 1.85473,0 h 1.05833 v 0.26458 h -1.05833 z m 1.85208,0 h 1.05834 v 0.26458 h -1.05834 z m 1.85473,0 h 1.05834 v 0.26458 h -1.05834 z m 1.85209,0 h 1.06098 v 0.26458 h -1.06098 z m 1.85473,0 h 1.05833 v 0.26458 h -1.05833 z m 1.85208,0 h 1.06098 v 0.26458 h -1.06098 z m 1.85473,0 h 1.05833 v 0.26458 h -1.05833 z m 1.85208,0 h 1.06098 v 0.26458 h -1.06098 z m 1.85473,0 h 1.05833 v 0.26458 h -1.05833 z m 1.85208,0 h 1.06098 v 0.26458 h -1.06098 z m 1.85473,0 h 1.05834 v 0.26458 h -1.05834 z m 1.85209,0 h 1.06098 v 0.26458 H 249.488 Z m 1.85473,0 h 1.05833 v 0.26458 h -1.05833 z m 1.85208,0 h 0.88371 v 0.26458 h -0.88371 z M 15.95352,5.9712608 h 1.05913 v 0.26485 h -1.05913 z m 1.85341,0 h 1.05912 v 0.26485 h -1.05912 z m 1.8534,0 h 1.05913 v 0.26485 h -1.05913 z m 1.85367,0 h 1.05913 v 0.26485 H 21.514 Z m 1.85341,0 h 1.05913 v 0.26485 h -1.05913 z m 1.85341,0 h 1.05912 v 0.26485 h -1.05912 z m 1.8534,0 h 1.05913 v 0.26485 h -1.05913 z m 1.85341,0 h 1.05913 v 0.26485 h -1.05913 z m 1.85367,0 h 1.05913 v 0.26485 H 30.7813 Z m 1.85341,0 h 1.05912 v 0.26485 h -1.05912 z m 1.8534,0 h 1.05913 v 0.26485 h -1.05913 z m 1.85341,0 h 1.05913 v 0.26485 h -1.05913 z m 1.8534,0 h 1.05913 v 0.26485 h -1.05913 z m 1.85368,0 h 1.05886 v 0.26485 H 40.0486 Z m 1.8534,0 h 1.05913 v 0.26485 H 41.902 Z m 1.85341,0 h 1.05913 v 0.26485 h -1.05913 z m 1.8534,0 h 1.05913 v 0.26485 h -1.05913 z m 1.85341,0 h 1.05913 v 0.26485 h -1.05913 z m 1.85341,0 h 1.05912 v 0.26485 h -1.05912 z m 1.85367,0 h 1.05912 v 0.26485 H 51.1693 Z m 1.8534,0 h 1.05913 v 0.26485 H 53.0227 Z m 1.85341,0 h 1.05913 v 0.26485 h -1.05913 z m 1.85341,0 h 1.05912 v 0.26485 h -1.05912 z m 1.8534,0 h 1.05913 v 0.26485 h -1.05913 z m 1.85367,0 h 1.05913 v 0.26485 h -1.05913 z m 1.85341,0 h 1.05913 v 0.26485 H 62.29 Z m 1.85341,0 h 1.05912 v 0.26485 h -1.05912 z m 1.8534,0 h 1.05913 v 0.26485 h -1.05913 z m 1.85341,0 h 1.05913 v 0.26485 h -1.05913 z m 1.85367,0 h 1.05913 v 0.26485 h -1.05913 z m 1.85341,0 h 1.05912 v 0.26485 H 71.5573 Z m 1.8534,0 h 1.05913 v 0.26485 H 73.4107 Z m 1.85341,0 h 1.05912 v 0.26485 h -1.05912 z m 1.8534,0 h 1.05913 v 0.26485 h -1.05913 z m 1.85341,0 h 1.05913 v 0.26485 h -1.05913 z m 1.85367,0 h 1.05913 v 0.26485 h -1.05913 z m 1.85341,0 h 1.05912 v 0.26485 H 82.678 Z m 1.8534,0 h 1.05913 v 0.26485 H 84.5314 Z m 1.85341,0 h 1.05913 v 0.26485 h -1.05913 z m 1.85341,0 h 1.05912 v 0.26485 h -1.05912 z m 1.85367,0 h 1.05912 v 0.26485 h -1.05912 z m 1.8534,0 h 1.05913 v 0.26485 h -1.05913 z m 1.85341,0 h 1.05913 v 0.26485 H 93.7987 Z m 1.85341,0 h 1.05912 v 0.26485 h -1.05912 z m 1.8534,0 h 1.05913 v 0.26485 h -1.05913 z m 1.85367,0 h 1.05913 v 0.26485 h -1.05913 z m 1.85341,0 h 1.05913 v 0.26485 h -1.05913 z m 1.8534,0 h 1.05913 v 0.26485 h -1.05913 z m 1.85341,0 h 1.05913 v 0.26485 h -1.05913 z m 1.85341,0 h 1.05912 v 0.26485 h -1.05912 z m 1.8534,0 h 1.05913 v 0.26485 h -1.05913 z m 1.85367,0 h 1.05913 v 0.26485 h -1.05913 z m 1.85341,0 h 1.05913 v 0.26485 h -1.05913 z m 1.85341,0 h 1.05912 v 0.26485 h -1.05912 z m 1.8534,0 h 1.05913 v 0.26485 h -1.05913 z m 1.85341,0 h 1.05913 v 0.26485 h -1.05913 z m 1.85367,0 h 1.05913 v 0.26485 h -1.05913 z m 1.85341,0 h 1.05912 v 0.26485 h -1.05912 z m 1.8534,0 h 1.05913 v 0.26485 h -1.05913 z m 1.85341,0 h 1.05913 v 0.26485 h -1.05913 z m 1.8534,0 h 1.05913 v 0.26485 h -1.05913 z m 1.85368,0 h 1.05912 v 0.26485 h -1.05912 z m 1.8534,0 h 1.05913 v 0.26485 h -1.05913 z m 1.85341,0 h 1.05913 v 0.26485 h -1.05913 z m 1.8534,0 h 1.05913 v 0.26485 h -1.05913 z m 1.85341,0 h 1.05913 v 0.26485 h -1.05913 z m 1.85341,0 h 1.05939 v 0.26485 h -1.05939 z m 1.85367,0 h 1.05912 v 0.26485 h -1.05912 z m 1.8534,0 h 1.05913 v 0.26485 h -1.05913 z m 1.85341,0 h 1.05913 v 0.26485 h -1.05913 z m 1.85341,0 h 1.05912 v 0.26485 h -1.05912 z m 1.8534,0 h 1.05913 v 0.26485 h -1.05913 z m 1.85367,0 h 1.05913 v 0.26485 h -1.05913 z m 1.85341,0 h 1.05913 v 0.26485 h -1.05913 z m 1.85341,0 h 1.05912 v 0.26485 h -1.05912 z m 1.8534,0 h 1.05913 v 0.26485 h -1.05913 z m 1.85341,0 h 1.05913 v 0.26485 h -1.05913 z m 1.85367,0 h 1.05913 v 0.26485 h -1.05913 z m 1.85341,0 h 1.05912 v 0.26485 h -1.05912 z m 1.8534,0 h 1.05913 v 0.26485 h -1.05913 z m 1.85341,0 h 1.05912 v 0.26485 h -1.05912 z m 1.8534,0 h 1.05913 v 0.26485 h -1.05913 z m 1.85367,0 h 1.05887 v 0.26485 h -1.05887 z m 1.85341,0 h 1.05913 v 0.26485 h -1.05913 z m 1.85341,0 h 1.05912 v 0.26485 h -1.05912 z m 1.8534,0 h 1.05913 v 0.26485 h -1.05913 z m 1.85341,0 h 1.05913 v 0.26485 h -1.05913 z m 1.85341,0 h 1.05912 v 0.26485 h -1.05912 z m 1.85367,0 h 1.05912 v 0.26485 h -1.05912 z m 1.8534,0 h 1.05913 v 0.26485 h -1.05913 z m 1.85341,0 h 1.05913 v 0.26485 h -1.05913 z m 1.85341,0 h 1.05912 v 0.26485 h -1.05912 z m 1.8534,0 h 1.05913 v 0.26485 h -1.05913 z m 1.85367,0 h 1.05913 v 0.26485 h -1.05913 z m 1.85341,0 h 1.05913 v 0.26485 h -1.05913 z m 1.8534,0 h 1.05913 v 0.26485 h -1.05913 z m 1.85341,0 h 1.05913 v 0.26485 h -1.05913 z m 1.85341,0 h 1.05912 v 0.26485 h -1.05912 z m 1.85367,0 h 1.05913 v 0.26485 h -1.05913 z m 1.8534,0 h 1.05913 v 0.26485 h -1.05913 z m 1.85341,0 h 1.05913 v 0.26485 h -1.05913 z m 1.85341,0 h 1.05912 v 0.26485 h -1.05912 z m 1.8534,0 h 1.05913 v 0.26485 h -1.05913 z m 1.85367,0 h 1.05887 v 0.26485 h -1.05887 z m 1.85341,0 h 1.05913 v 0.26485 h -1.05913 z m 1.85341,0 h 1.05912 v 0.26485 h -1.05912 z m 1.8534,0 h 1.05913 v 0.26485 h -1.05913 z m 1.85341,0 h 1.05913 v 0.26485 h -1.05913 z m 1.85341,0 h 1.05912 v 0.26485 h -1.05912 z m 1.85367,0 h 1.05912 v 0.26485 h -1.05912 z m 1.8534,0 h 1.05913 v 0.26485 h -1.05913 z m 1.85341,0 h 1.05913 v 0.26485 h -1.05913 z m 1.85314,0 h 1.05833 v 0.26485 h -1.05833 z m 1.85473,0 h 1.05833 v 0.26485 h -1.05833 z m 1.85208,0 h 1.05834 v 0.26485 h -1.05834 z m 1.85473,0 h 1.05833 v 0.26485 h -1.05833 z m 1.85208,0 h 1.05834 v 0.26485 h -1.05834 z m 1.85473,0 h 1.05834 v 0.26485 h -1.05834 z m 1.85209,0 h 1.06098 v 0.26485 h -1.06098 z m 1.85473,0 h 1.05833 v 0.26485 h -1.05833 z m 1.85208,0 h 1.06098 v 0.26485 h -1.06098 z m 1.85473,0 h 1.05833 v 0.26485 h -1.05833 z m 1.85208,0 h 1.06098 v 0.26485 h -1.06098 z m 1.85473,0 h 1.05833 v 0.26485 h -1.05833 z m 1.85208,0 h 1.06098 v 0.26485 h -1.06098 z m 1.85473,0 h 1.05834 v 0.26485 h -1.05834 z m 1.85209,0 h 1.06098 v 0.26485 H 249.488 Z m 1.85473,0 h 1.05833 v 0.26485 h -1.05833 z m 1.85208,0 h 0.88371 v 0.26485 h -0.88371 z M 15.95352,-19.715249 h 1.05913 v 0.26479 h -1.05913 z m 1.85341,0 h 1.05912 v 0.26479 h -1.05912 z m 1.8534,0 h 1.05913 v 0.26479 h -1.05913 z m 1.85367,0 h 1.05913 v 0.26479 H 21.514 Z m 1.85341,0 h 1.05913 v 0.26479 h -1.05913 z m 1.85341,0 h 1.05912 v 0.26479 h -1.05912 z m 1.8534,0 h 1.05913 v 0.26479 h -1.05913 z m 1.85341,0 h 1.05913 v 0.26479 h -1.05913 z m 1.85367,0 h 1.05913 v 0.26479 H 30.7813 Z m 1.85341,0 h 1.05912 v 0.26479 h -1.05912 z m 1.8534,0 h 1.05913 v 0.26479 h -1.05913 z m 1.85341,0 h 1.05913 v 0.26479 h -1.05913 z m 1.8534,0 h 1.05913 v 0.26479 h -1.05913 z m 1.85368,0 h 1.05886 v 0.26479 H 40.0486 Z m 1.8534,0 h 1.05913 v 0.26479 H 41.902 Z m 1.85341,0 h 1.05913 v 0.26479 h -1.05913 z m 1.8534,0 h 1.05913 v 0.26479 h -1.05913 z m 1.85341,0 h 1.05913 v 0.26479 h -1.05913 z m 1.85341,0 h 1.05912 v 0.26479 h -1.05912 z m 1.85367,0 h 1.05912 v 0.26479 H 51.1693 Z m 1.8534,0 h 1.05913 v 0.26479 H 53.0227 Z m 1.85341,0 h 1.05913 v 0.26479 h -1.05913 z m 1.85341,0 h 1.05912 v 0.26479 h -1.05912 z m 1.8534,0 h 1.05913 v 0.26479 h -1.05913 z m 1.85367,0 h 1.05913 v 0.26479 h -1.05913 z m 1.85341,0 h 1.05913 v 0.26479 H 62.29 Z m 1.85341,0 h 1.05912 v 0.26479 h -1.05912 z m 1.8534,0 h 1.05913 v 0.26479 h -1.05913 z m 1.85341,0 h 1.05913 v 0.26479 h -1.05913 z m 1.85367,0 h 1.05913 v 0.26479 h -1.05913 z m 1.85341,0 h 1.05912 v 0.26479 H 71.5573 Z m 1.8534,0 h 1.05913 v 0.26479 H 73.4107 Z m 1.85341,0 h 1.05912 v 0.26479 h -1.05912 z m 1.8534,0 h 1.05913 v 0.26479 h -1.05913 z m 1.85341,0 h 1.05913 v 0.26479 h -1.05913 z m 1.85367,0 h 1.05913 v 0.26479 h -1.05913 z m 1.85341,0 h 1.05912 v 0.26479 H 82.678 Z m 1.8534,0 h 1.05913 v 0.26479 H 84.5314 Z m 1.85341,0 h 1.05913 v 0.26479 h -1.05913 z m 1.85341,0 h 1.05912 v 0.26479 h -1.05912 z m 1.85367,0 h 1.05912 v 0.26479 h -1.05912 z m 1.8534,0 h 1.05913 v 0.26479 h -1.05913 z m 1.85341,0 h 1.05913 v 0.26479 H 93.7987 Z m 1.85341,0 h 1.05912 v 0.26479 h -1.05912 z m 1.8534,0 h 1.05913 v 0.26479 h -1.05913 z m 1.85367,0 h 1.05913 v 0.26479 h -1.05913 z m 1.85341,0 h 1.05913 v 0.26479 h -1.05913 z m 1.8534,0 h 1.05913 v 0.26479 h -1.05913 z m 1.85341,0 h 1.05913 v 0.26479 h -1.05913 z m 1.85341,0 h 1.05912 v 0.26479 h -1.05912 z m 1.8534,0 h 1.05913 v 0.26479 h -1.05913 z m 1.85367,0 h 1.05913 v 0.26479 h -1.05913 z m 1.85341,0 h 1.05913 v 0.26479 h -1.05913 z m 1.85341,0 h 1.05912 v 0.26479 h -1.05912 z m 1.8534,0 h 1.05913 v 0.26479 h -1.05913 z m 1.85341,0 h 1.05913 v 0.26479 h -1.05913 z m 1.85367,0 h 1.05913 v 0.26479 h -1.05913 z m 1.85341,0 h 1.05912 v 0.26479 h -1.05912 z m 1.8534,0 h 1.05913 v 0.26479 h -1.05913 z m 1.85341,0 h 1.05913 v 0.26479 h -1.05913 z m 1.8534,0 h 1.05913 v 0.26479 h -1.05913 z m 1.85368,0 h 1.05912 v 0.26479 h -1.05912 z m 1.8534,0 h 1.05913 v 0.26479 h -1.05913 z m 1.85341,0 h 1.05913 v 0.26479 h -1.05913 z m 1.8534,0 h 1.05913 v 0.26479 h -1.05913 z m 1.85341,0 h 1.05913 v 0.26479 h -1.05913 z m 1.85341,0 h 1.05939 v 0.26479 h -1.05939 z m 1.85367,0 h 1.05912 v 0.26479 h -1.05912 z m 1.8534,0 h 1.05913 v 0.26479 h -1.05913 z m 1.85341,0 h 1.05913 v 0.26479 h -1.05913 z m 1.85341,0 h 1.05912 v 0.26479 h -1.05912 z m 1.8534,0 h 1.05913 v 0.26479 h -1.05913 z m 1.85367,0 h 1.05913 v 0.26479 h -1.05913 z m 1.85341,0 h 1.05913 v 0.26479 h -1.05913 z m 1.85341,0 h 1.05912 v 0.26479 h -1.05912 z m 1.8534,0 h 1.05913 v 0.26479 h -1.05913 z m 1.85341,0 h 1.05913 v 0.26479 h -1.05913 z m 1.85367,0 h 1.05913 v 0.26479 h -1.05913 z m 1.85341,0 h 1.05912 v 0.26479 h -1.05912 z m 1.8534,0 h 1.05913 v 0.26479 h -1.05913 z m 1.85341,0 h 1.05912 v 0.26479 h -1.05912 z m 1.8534,0 h 1.05913 v 0.26479 h -1.05913 z m 1.85367,0 h 1.05887 v 0.26479 h -1.05887 z m 1.85341,0 h 1.05913 v 0.26479 h -1.05913 z m 1.85341,0 h 1.05912 v 0.26479 h -1.05912 z m 1.8534,0 h 1.05913 v 0.26479 h -1.05913 z m 1.85341,0 h 1.05913 v 0.26479 h -1.05913 z m 1.85341,0 h 1.05912 v 0.26479 h -1.05912 z m 1.85367,0 h 1.05912 v 0.26479 h -1.05912 z m 1.8534,0 h 1.05913 v 0.26479 h -1.05913 z m 1.85341,0 h 1.05913 v 0.26479 h -1.05913 z m 1.85341,0 h 1.05912 v 0.26479 h -1.05912 z m 1.8534,0 h 1.05913 v 0.26479 h -1.05913 z m 1.85367,0 h 1.05913 v 0.26479 h -1.05913 z m 1.85341,0 h 1.05913 v 0.26479 h -1.05913 z m 1.8534,0 h 1.05913 v 0.26479 h -1.05913 z m 1.85341,0 h 1.05913 v 0.26479 h -1.05913 z m 1.85341,0 h 1.05912 v 0.26479 h -1.05912 z m 1.85367,0 h 1.05913 v 0.26479 h -1.05913 z m 1.8534,0 h 1.05913 v 0.26479 h -1.05913 z m 1.85341,0 h 1.05913 v 0.26479 h -1.05913 z m 1.85341,0 h 1.05912 v 0.26479 h -1.05912 z m 1.8534,0 h 1.05913 v 0.26479 h -1.05913 z m 1.85367,0 h 1.05887 v 0.26479 h -1.05887 z m 1.85341,0 h 1.05913 v 0.26479 h -1.05913 z m 1.85341,0 h 1.05912 v 0.26479 h -1.05912 z m 1.8534,0 h 1.05913 v 0.26479 h -1.05913 z m 1.85341,0 h 1.05913 v 0.26479 h -1.05913 z m 1.85341,0 h 1.05912 v 0.26479 h -1.05912 z m 1.85367,0 h 1.05912 v 0.26479 h -1.05912 z m 1.8534,0 h 1.05913 v 0.26479 h -1.05913 z m 1.85341,0 h 1.05913 v 0.26479 h -1.05913 z m 1.85314,0 h 1.05833 v 0.26479 h -1.05833 z m 1.85473,0 h 1.05833 v 0.26479 h -1.05833 z m 1.85208,0 h 1.05834 v 0.26479 h -1.05834 z m 1.85473,0 h 1.05833 v 0.26479 h -1.05833 z m 1.85208,0 h 1.05834 v 0.26479 h -1.05834 z m 1.85473,0 h 1.05834 v 0.26479 h -1.05834 z m 1.85209,0 h 1.06098 v 0.26479 h -1.06098 z m 1.85473,0 h 1.05833 v 0.26479 h -1.05833 z m 1.85208,0 h 1.06098 v 0.26479 h -1.06098 z m 1.85473,0 h 1.05833 v 0.26479 h -1.05833 z m 1.85208,0 h 1.06098 v 0.26479 h -1.06098 z m 1.85473,0 h 1.05833 v 0.26479 h -1.05833 z m 1.85208,0 h 1.06098 v 0.26479 h -1.06098 z m 1.85473,0 h 1.05834 v 0.26479 h -1.05834 z m 1.85209,0 h 1.06098 v 0.26479 H 249.488 Z m 1.85473,0 h 1.05833 v 0.26479 h -1.05833 z m 1.85208,0 h 0.88371 v 0.26479 h -0.88371 z"
       stroke="#a6a6a6"
       stroke-width="0"
       stroke-linejoin="round"
       stroke-miterlimit="10"
       fill-rule="evenodd"
       id="path1046" />
    <path
       d="M 39.76602,-19.715249 V 108.60765 M 87.37991,-19.715249 V 108.60765 M 134.99406,-19.715249 V 108.60765 M 182.65213,-19.715249 V 108.60765 M 230.26602,-19.715249 V 108.60765"
       stroke="#f2f2f2"
       stroke-linejoin="round"
       stroke-miterlimit="10"
       fill="none"
       fill-rule="evenodd"
       id="path1048"
       style="stroke-width:0.264583" />
    <path
       d="m 63.71055,-19.847569 v 1.05907 h -0.26432 v -1.05907 z m 0,1.85335 v 1.05908 h -0.26432 v -1.05908 z m 0,1.85336 v 1.05907 h -0.26432 v -1.05907 z m 0,1.85335 v 1.05907 h -0.26432 v -1.05907 z m 0,1.8533 v 1.05913 h -0.26432 v -1.05913 z m 0,1.85341 v 1.0591197 h -0.26432 v -1.0591197 z m 0,1.8533998 v 1.05913 h -0.26432 v -1.05913 z m 0,1.85341 v 1.05886 h -0.26432 v -1.05886 z m 0,1.8534 v 1.05887 h -0.26432 v -1.05887 z m 0,1.85315 v 1.05912 h -0.26432 v -1.05912 z m 0,1.8534 v 1.05912994 H 63.44623 V -1.3140392 Z m 0,1.85340991 V 1.5985007 H 63.44623 V 0.53937071 Z m 0,1.85341009 v 1.05912 h -0.26432 v -1.05912 z m 0,1.8534 v 1.05886 h -0.26432 v -1.05886 z m 0,1.85314 v 1.05913 h -0.26432 v -1.05913 z m 0,1.85341 v 1.05913 h -0.26432 v -1.05913 z m 0,1.85341 V 10.865261 H 63.44623 V 9.8061408 Z m 0,1.8534002 v 1.05913 h -0.26432 v -1.05913 z m 0,1.85341 v 1.05886 h -0.26432 v -1.05886 z m 0,1.85314 v 1.05913 h -0.26432 v -1.05913 z m 0,1.85341 v 1.05912 h -0.26432 v -1.05912 z m 0,1.8534 v 1.05913 h -0.26432 v -1.05913 z m 0,1.85341 v 1.05913 h -0.26432 v -1.05913 z m 0,1.8534 v 1.05887 h -0.26432 v -1.05887 z m 0,1.85341 v 1.05886 h -0.26432 v -1.05886 z m 0,1.85314 v 1.10331 h -0.26432 v -1.10331 z m 0,1.89759 v 1.05913 h -0.26432 v -1.05913 z m 0,1.85341 v 1.05886 h -0.26432 v -1.05886 z m 0,1.85341 v 1.05886 h -0.26432 v -1.05886 z m 0,1.85314 v 1.05913 h -0.26432 v -1.05913 z m 0,1.8534 v 1.05913 h -0.26432 v -1.05913 z m 0,1.85341 v 1.05913 h -0.26432 v -1.05913 z m 0,1.85341 v 1.05912 h -0.26432 v -1.05912 z m 0,1.8534 v 1.05887 h -0.26432 v -1.05887 z m 0,1.85314 v 1.05913 h -0.26432 v -1.05913 z m 0,1.85341 v 1.05913 h -0.26432 v -1.05913 z m 0,1.85341 v 1.05912 h -0.26432 v -1.05912 z m 0,1.8534 v 1.05913 h -0.26432 v -1.05913 z m 0,1.85341 v 1.05886 h -0.26432 v -1.05886 z m 0,1.85341 v 1.05886 h -0.26432 v -1.05886 z m 0,1.85314 v 1.05912 h -0.26432 v -1.05912 z m 0,1.8534 v 1.05913 h -0.26432 v -1.05913 z m 0,1.85341 v 1.05913 h -0.26432 v -1.05913 z m 0,1.85341 v 1.05912 h -0.26432 v -1.05912 z m 0,1.8534 v 1.05886 h -0.26432 v -1.05886 z m 0,1.85314 v 1.05913 h -0.26432 v -1.05913 z m 0,1.85341 v 1.05913 h -0.26432 v -1.05913 z m 0,1.85341 v 1.05912 h -0.26432 v -1.05912 z m 0,1.8534 v 1.05913 h -0.26432 v -1.05913 z m 0,1.85341 v 1.05886 h -0.26432 v -1.05886 z m 0,1.85341 v 1.05886 h -0.26432 v -1.05886 z m 0,1.85314 v 1.05912 h -0.26432 v -1.05912 z m 0,1.8534 v 1.05913 h -0.26432 v -1.05913 z m 0,1.85341 v 1.05913 h -0.26432 v -1.05913 z m 0,1.85341 v 1.05912 h -0.26432 v -1.05912 z m 0,1.8534 v 1.05886 h -0.26432 v -1.05886 z m 0,1.85314 v 1.05913 h -0.26432 v -1.05913 z m 0,1.85341 v 1.05913 h -0.26432 v -1.05913 z m 0,1.85341 v 1.05912 h -0.26432 v -1.05912 z m 0,1.8534 v 1.05913 h -0.26432 v -1.05913 z m 0,1.85341 v 1.05886 h -0.26432 v -1.05886 z m 0,1.85314 v 1.05913 h -0.26432 v -1.05913 z m 0,1.85341 v 1.05912 h -0.26432 v -1.05912 z m 0,1.8534 v 1.05913 h -0.26432 v -1.05913 z m 0,1.85341 v 1.05913 h -0.26432 v -1.05913 z m 0,1.853399 v 1.05888 h -0.26432 v -1.05888 z m 0,1.85316 v 1.05912 H 63.44623 V 102.518 Z m 0,1.8534 v 1.05913 h -0.26432 v -1.05913 z m 0,1.85341 v 1.05913 h -0.26432 v -1.05913 z m 0,1.85341 v 0.39713 h -0.26432 v -0.39713 z m 47.548,-127.925789 v 1.05907 h -0.26458 v -1.05907 z m 0,1.85335 v 1.05908 h -0.26458 v -1.05908 z m 0,1.85336 v 1.05907 h -0.26458 v -1.05907 z m 0,1.85335 v 1.05907 h -0.26458 v -1.05907 z m 0,1.8533 v 1.05913 h -0.26458 v -1.05913 z m 0,1.85341 v 1.0591197 h -0.26458 v -1.0591197 z m 0,1.8533998 v 1.05913 h -0.26458 v -1.05913 z m 0,1.85341 v 1.05886 h -0.26458 v -1.05886 z m 0,1.8534 v 1.05887 h -0.26458 v -1.05887 z m 0,1.85315 v 1.05912 h -0.26458 v -1.05912 z m 0,1.8534 v 1.05912994 h -0.26458 V -1.3140392 Z m 0,1.85340991 V 1.5985007 h -0.26458 V 0.53937071 Z m 0,1.85341009 v 1.05912 h -0.26458 v -1.05912 z m 0,1.8534 v 1.05886 h -0.26458 v -1.05886 z m 0,1.85314 v 1.05913 h -0.26458 v -1.05913 z m 0,1.85341 v 1.05913 h -0.26458 v -1.05913 z m 0,1.85341 v 1.0591202 h -0.26458 V 9.8061408 Z m 0,1.8534002 v 1.05913 h -0.26458 v -1.05913 z m 0,1.85341 v 1.05886 h -0.26458 v -1.05886 z m 0,1.85314 v 1.05913 h -0.26458 v -1.05913 z m 0,1.85341 v 1.05912 h -0.26458 v -1.05912 z m 0,1.8534 v 1.05913 h -0.26458 v -1.05913 z m 0,1.85341 v 1.05913 h -0.26458 v -1.05913 z m 0,1.8534 v 1.05887 h -0.26458 v -1.05887 z m 0,1.85341 v 1.05886 h -0.26458 v -1.05886 z m 0,1.85314 v 1.10331 h -0.26458 v -1.10331 z m 0,1.89759 v 1.05913 h -0.26458 v -1.05913 z m 0,1.85341 v 1.05886 h -0.26458 v -1.05886 z m 0,1.85341 v 1.05886 h -0.26458 v -1.05886 z m 0,1.85314 v 1.05913 h -0.26458 v -1.05913 z m 0,1.8534 v 1.05913 h -0.26458 v -1.05913 z m 0,1.85341 v 1.05913 h -0.26458 v -1.05913 z m 0,1.85341 v 1.05912 h -0.26458 v -1.05912 z m 0,1.8534 v 1.05887 h -0.26458 v -1.05887 z m 0,1.85314 v 1.05913 h -0.26458 v -1.05913 z m 0,1.85341 v 1.05913 h -0.26458 v -1.05913 z m 0,1.85341 v 1.05912 h -0.26458 v -1.05912 z m 0,1.8534 v 1.05913 h -0.26458 v -1.05913 z m 0,1.85341 v 1.05886 h -0.26458 v -1.05886 z m 0,1.85341 v 1.05886 h -0.26458 v -1.05886 z m 0,1.85314 v 1.05912 h -0.26458 v -1.05912 z m 0,1.8534 v 1.05913 h -0.26458 v -1.05913 z m 0,1.85341 v 1.05913 h -0.26458 v -1.05913 z m 0,1.85341 v 1.05912 h -0.26458 v -1.05912 z m 0,1.8534 v 1.05886 h -0.26458 v -1.05886 z m 0,1.85314 v 1.05913 h -0.26458 v -1.05913 z m 0,1.85341 v 1.05913 h -0.26458 v -1.05913 z m 0,1.85341 v 1.05912 h -0.26458 v -1.05912 z m 0,1.8534 v 1.05913 h -0.26458 v -1.05913 z m 0,1.85341 v 1.05886 h -0.26458 v -1.05886 z m 0,1.85341 v 1.05886 h -0.26458 v -1.05886 z m 0,1.85314 v 1.05912 h -0.26458 v -1.05912 z m 0,1.8534 v 1.05913 h -0.26458 v -1.05913 z m 0,1.85341 v 1.05913 h -0.26458 v -1.05913 z m 0,1.85341 v 1.05912 h -0.26458 v -1.05912 z m 0,1.8534 v 1.05886 h -0.26458 v -1.05886 z m 0,1.85314 v 1.05913 h -0.26458 v -1.05913 z m 0,1.85341 v 1.05913 h -0.26458 v -1.05913 z m 0,1.85341 v 1.05912 h -0.26458 v -1.05912 z m 0,1.8534 v 1.05913 h -0.26458 v -1.05913 z m 0,1.85341 v 1.05886 h -0.26458 v -1.05886 z m 0,1.85314 v 1.05913 h -0.26458 v -1.05913 z m 0,1.85341 v 1.05912 h -0.26458 v -1.05912 z m 0,1.8534 v 1.05913 h -0.26458 v -1.05913 z m 0,1.85341 v 1.05913 h -0.26458 v -1.05913 z m 0,1.853399 v 1.05888 h -0.26458 v -1.05888 z m 0,1.85316 v 1.05912 h -0.26458 V 102.518 Z m 0,1.8534 v 1.05913 h -0.26458 v -1.05913 z m 0,1.85341 v 1.05913 h -0.26458 v -1.05913 z m 0,1.85341 v 0.39713 h -0.26458 v -0.39713 z m 47.54774,-127.925789 v 1.05907 h -0.26431 v -1.05907 z m 0,1.85335 v 1.05908 h -0.26431 v -1.05908 z m 0,1.85336 v 1.05907 h -0.26431 v -1.05907 z m 0,1.85335 v 1.05907 h -0.26431 v -1.05907 z m 0,1.8533 v 1.05913 h -0.26431 v -1.05913 z m 0,1.85341 v 1.0591197 h -0.26431 v -1.0591197 z m 0,1.8533998 v 1.05913 h -0.26431 v -1.05913 z m 0,1.85341 v 1.05886 h -0.26431 v -1.05886 z m 0,1.8534 v 1.05887 h -0.26431 v -1.05887 z m 0,1.85315 v 1.05912 h -0.26431 v -1.05912 z m 0,1.8534 v 1.05912994 h -0.26431 V -1.3140392 Z m 0,1.85340991 V 1.5985007 h -0.26431 V 0.53937071 Z m 0,1.85341009 v 1.05912 h -0.26431 v -1.05912 z m 0,1.8534 v 1.05886 h -0.26431 v -1.05886 z m 0,1.85314 v 1.05913 h -0.26431 v -1.05913 z m 0,1.85341 v 1.05913 h -0.26431 v -1.05913 z m 0,1.85341 v 1.0591202 h -0.26431 V 9.8061408 Z m 0,1.8534002 v 1.05913 h -0.26431 v -1.05913 z m 0,1.85341 v 1.05886 h -0.26431 v -1.05886 z m 0,1.85314 v 1.05913 h -0.26431 v -1.05913 z m 0,1.85341 v 1.05912 h -0.26431 v -1.05912 z m 0,1.8534 v 1.05913 h -0.26431 v -1.05913 z m 0,1.85341 v 1.05913 h -0.26431 v -1.05913 z m 0,1.8534 v 1.05887 h -0.26431 v -1.05887 z m 0,1.85341 v 1.05886 h -0.26431 v -1.05886 z m 0,1.85314 v 1.10331 h -0.26431 v -1.10331 z m 0,1.89759 v 1.05913 h -0.26431 v -1.05913 z m 0,1.85341 v 1.05886 h -0.26431 v -1.05886 z m 0,1.85341 v 1.05886 h -0.26431 v -1.05886 z m 0,1.85314 v 1.05913 h -0.26431 v -1.05913 z m 0,1.8534 v 1.05913 h -0.26431 v -1.05913 z m 0,1.85341 v 1.05913 h -0.26431 v -1.05913 z m 0,1.85341 v 1.05912 h -0.26431 v -1.05912 z m 0,1.8534 v 1.05887 h -0.26431 v -1.05887 z m 0,1.85314 v 1.05913 h -0.26431 v -1.05913 z m 0,1.85341 v 1.05913 h -0.26431 v -1.05913 z m 0,1.85341 v 1.05912 h -0.26431 v -1.05912 z m 0,1.8534 v 1.05913 h -0.26431 v -1.05913 z m 0,1.85341 v 1.05886 h -0.26431 v -1.05886 z m 0,1.85341 v 1.05886 h -0.26431 v -1.05886 z m 0,1.85314 v 1.05912 h -0.26431 v -1.05912 z m 0,1.8534 v 1.05913 h -0.26431 v -1.05913 z m 0,1.85341 v 1.05913 h -0.26431 v -1.05913 z m 0,1.85341 v 1.05912 h -0.26431 v -1.05912 z m 0,1.8534 v 1.05886 h -0.26431 v -1.05886 z m 0,1.85314 v 1.05913 h -0.26431 v -1.05913 z m 0,1.85341 v 1.05913 h -0.26431 v -1.05913 z m 0,1.85341 v 1.05912 h -0.26431 v -1.05912 z m 0,1.8534 v 1.05913 h -0.26431 v -1.05913 z m 0,1.85341 v 1.05886 h -0.26431 v -1.05886 z m 0,1.85341 v 1.05886 h -0.26431 v -1.05886 z m 0,1.85314 v 1.05912 h -0.26431 v -1.05912 z m 0,1.8534 v 1.05913 h -0.26431 v -1.05913 z m 0,1.85341 v 1.05913 h -0.26431 v -1.05913 z m 0,1.85341 v 1.05912 h -0.26431 v -1.05912 z m 0,1.8534 v 1.05886 h -0.26431 v -1.05886 z m 0,1.85314 v 1.05913 h -0.26431 v -1.05913 z m 0,1.85341 v 1.05913 h -0.26431 v -1.05913 z m 0,1.85341 v 1.05912 h -0.26431 v -1.05912 z m 0,1.8534 v 1.05913 h -0.26431 v -1.05913 z m 0,1.85341 v 1.05886 h -0.26431 v -1.05886 z m 0,1.85314 v 1.05913 h -0.26431 v -1.05913 z m 0,1.85341 v 1.05912 h -0.26431 v -1.05912 z m 0,1.8534 v 1.05913 h -0.26431 v -1.05913 z m 0,1.85341 v 1.05913 h -0.26431 v -1.05913 z m 0,1.853399 v 1.05888 h -0.26431 v -1.05888 z m 0,1.85316 v 1.05912 h -0.26431 V 102.518 Z m 0,1.8534 v 1.05913 h -0.26431 v -1.05913 z m 0,1.85341 v 1.05913 h -0.26431 v -1.05913 z m 0,1.85341 v 0.39713 h -0.26431 v -0.39713 z m 47.59193,-127.925789 v 1.05907 h -0.26432 v -1.05907 z m 0,1.85335 v 1.05908 h -0.26432 v -1.05908 z m 0,1.85336 v 1.05907 h -0.26432 v -1.05907 z m 0,1.85335 v 1.05907 h -0.26432 v -1.05907 z m 0,1.8533 v 1.05913 h -0.26432 v -1.05913 z m 0,1.85341 v 1.0591197 h -0.26432 v -1.0591197 z m 0,1.8533998 v 1.05913 h -0.26432 v -1.05913 z m 0,1.85341 v 1.05886 h -0.26432 v -1.05886 z m 0,1.8534 v 1.05887 h -0.26432 v -1.05887 z m 0,1.85315 v 1.05912 h -0.26432 v -1.05912 z m 0,1.8534 v 1.05912994 H 206.1339 V -1.3140392 Z m 0,1.85340991 V 1.5985007 H 206.1339 V 0.53937071 Z m 0,1.85341009 v 1.05912 h -0.26432 v -1.05912 z m 0,1.8534 v 1.05886 h -0.26432 v -1.05886 z m 0,1.85314 v 1.05913 h -0.26432 v -1.05913 z m 0,1.85341 v 1.05913 h -0.26432 v -1.05913 z m 0,1.85341 V 10.865261 H 206.1339 V 9.8061408 Z m 0,1.8534002 v 1.05913 h -0.26432 v -1.05913 z m 0,1.85341 v 1.05886 h -0.26432 v -1.05886 z m 0,1.85314 v 1.05913 h -0.26432 v -1.05913 z m 0,1.85341 v 1.05912 h -0.26432 v -1.05912 z m 0,1.8534 v 1.05913 h -0.26432 v -1.05913 z m 0,1.85341 v 1.05913 h -0.26432 v -1.05913 z m 0,1.8534 v 1.05887 h -0.26432 v -1.05887 z m 0,1.85341 v 1.05886 h -0.26432 v -1.05886 z m 0,1.85314 v 1.10331 h -0.26432 v -1.10331 z m 0,1.89759 v 1.05913 h -0.26432 v -1.05913 z m 0,1.85341 v 1.05886 h -0.26432 v -1.05886 z m 0,1.85341 v 1.05886 h -0.26432 v -1.05886 z m 0,1.85314 v 1.05913 h -0.26432 v -1.05913 z m 0,1.8534 v 1.05913 h -0.26432 v -1.05913 z m 0,1.85341 v 1.05913 h -0.26432 v -1.05913 z m 0,1.85341 v 1.05912 h -0.26432 v -1.05912 z m 0,1.8534 v 1.05887 h -0.26432 v -1.05887 z m 0,1.85314 v 1.05913 h -0.26432 v -1.05913 z m 0,1.85341 v 1.05913 h -0.26432 v -1.05913 z m 0,1.85341 v 1.05912 h -0.26432 v -1.05912 z m 0,1.8534 v 1.05913 h -0.26432 v -1.05913 z m 0,1.85341 v 1.05886 h -0.26432 v -1.05886 z m 0,1.85341 v 1.05886 h -0.26432 v -1.05886 z m 0,1.85314 v 1.05912 h -0.26432 v -1.05912 z m 0,1.8534 v 1.05913 h -0.26432 v -1.05913 z m 0,1.85341 v 1.05913 h -0.26432 v -1.05913 z m 0,1.85341 v 1.05912 h -0.26432 v -1.05912 z m 0,1.8534 v 1.05886 h -0.26432 v -1.05886 z m 0,1.85314 v 1.05913 h -0.26432 v -1.05913 z m 0,1.85341 v 1.05913 h -0.26432 v -1.05913 z m 0,1.85341 v 1.05912 h -0.26432 v -1.05912 z m 0,1.8534 v 1.05913 h -0.26432 v -1.05913 z m 0,1.85341 v 1.05886 h -0.26432 v -1.05886 z m 0,1.85341 v 1.05886 h -0.26432 v -1.05886 z m 0,1.85314 v 1.05912 h -0.26432 v -1.05912 z m 0,1.8534 v 1.05913 h -0.26432 v -1.05913 z m 0,1.85341 v 1.05913 h -0.26432 v -1.05913 z m 0,1.85341 v 1.05912 h -0.26432 v -1.05912 z m 0,1.8534 v 1.05886 h -0.26432 v -1.05886 z m 0,1.85314 v 1.05913 h -0.26432 v -1.05913 z m 0,1.85341 v 1.05913 h -0.26432 v -1.05913 z m 0,1.85341 v 1.05912 h -0.26432 v -1.05912 z m 0,1.8534 v 1.05913 h -0.26432 v -1.05913 z m 0,1.85341 v 1.05886 h -0.26432 v -1.05886 z m 0,1.85314 v 1.05913 h -0.26432 v -1.05913 z m 0,1.85341 v 1.05912 h -0.26432 v -1.05912 z m 0,1.8534 v 1.05913 h -0.26432 v -1.05913 z m 0,1.85341 v 1.05913 h -0.26432 v -1.05913 z m 0,1.853399 v 1.05888 h -0.26432 v -1.05888 z m 0,1.85316 v 1.05912 H 206.1339 V 102.518 Z m 0,1.8534 v 1.05913 h -0.26432 v -1.05913 z m 0,1.85341 v 1.05913 h -0.26432 v -1.05913 z m 0,1.85341 v 0.39713 h -0.26432 v -0.39713 z m 47.54801,-127.925789 v 1.05907 h -0.26459 v -1.05907 z m 0,1.85335 v 1.05908 h -0.26459 v -1.05908 z m 0,1.85336 v 1.05907 h -0.26459 v -1.05907 z m 0,1.85335 v 1.05907 h -0.26459 v -1.05907 z m 0,1.8533 v 1.05913 h -0.26459 v -1.05913 z m 0,1.85341 v 1.0591197 h -0.26459 v -1.0591197 z m 0,1.8533998 v 1.05913 h -0.26459 v -1.05913 z m 0,1.85341 v 1.05886 h -0.26459 v -1.05886 z m 0,1.8534 v 1.05887 h -0.26459 v -1.05887 z m 0,1.85315 v 1.05912 h -0.26459 v -1.05912 z m 0,1.8534 v 1.05912994 h -0.26459 V -1.3140392 Z m 0,1.85340991 V 1.5985007 h -0.26459 V 0.53937071 Z m 0,1.85341009 v 1.05912 h -0.26459 v -1.05912 z m 0,1.8534 v 1.05886 h -0.26459 v -1.05886 z m 0,1.85314 v 1.05913 h -0.26459 v -1.05913 z m 0,1.85341 v 1.05913 h -0.26459 v -1.05913 z m 0,1.85341 v 1.0591202 h -0.26459 V 9.8061408 Z m 0,1.8534002 v 1.05913 h -0.26459 v -1.05913 z m 0,1.85341 v 1.05886 h -0.26459 v -1.05886 z m 0,1.85314 v 1.05913 h -0.26459 v -1.05913 z m 0,1.85341 v 1.05912 h -0.26459 v -1.05912 z m 0,1.8534 v 1.05913 h -0.26459 v -1.05913 z m 0,1.85341 v 1.05913 h -0.26459 v -1.05913 z m 0,1.8534 v 1.05887 h -0.26459 v -1.05887 z m 0,1.85341 v 1.05886 h -0.26459 v -1.05886 z m 0,1.85314 v 1.10331 h -0.26459 v -1.10331 z m 0,1.89759 v 1.05913 h -0.26459 v -1.05913 z m 0,1.85341 v 1.05886 h -0.26459 v -1.05886 z m 0,1.85341 v 1.05886 h -0.26459 v -1.05886 z m 0,1.85314 v 1.05913 h -0.26459 v -1.05913 z m 0,1.8534 v 1.05913 h -0.26459 v -1.05913 z m 0,1.85341 v 1.05913 h -0.26459 v -1.05913 z m 0,1.85341 v 1.05912 h -0.26459 v -1.05912 z m 0,1.8534 v 1.05887 h -0.26459 v -1.05887 z m 0,1.85314 v 1.05913 h -0.26459 v -1.05913 z m 0,1.85341 v 1.05913 h -0.26459 v -1.05913 z m 0,1.85341 v 1.05912 h -0.26459 v -1.05912 z m 0,1.8534 v 1.05913 h -0.26459 v -1.05913 z m 0,1.85341 v 1.05886 h -0.26459 v -1.05886 z m 0,1.85341 v 1.05886 h -0.26459 v -1.05886 z m 0,1.85314 v 1.05912 h -0.26459 v -1.05912 z m 0,1.8534 v 1.05913 h -0.26459 v -1.05913 z m 0,1.85341 v 1.05913 h -0.26459 v -1.05913 z m 0,1.85341 v 1.05912 h -0.26459 v -1.05912 z m 0,1.8534 v 1.05886 h -0.26459 v -1.05886 z m 0,1.85314 v 1.05913 h -0.26459 v -1.05913 z m 0,1.85341 v 1.05913 h -0.26459 v -1.05913 z m 0,1.85341 v 1.05912 h -0.26459 v -1.05912 z m 0,1.8534 v 1.05913 h -0.26459 v -1.05913 z m 0,1.85341 v 1.05886 h -0.26459 v -1.05886 z m 0,1.85341 v 1.05886 h -0.26459 v -1.05886 z m 0,1.85314 v 1.05912 h -0.26459 v -1.05912 z m 0,1.8534 v 1.05913 h -0.26459 v -1.05913 z m 0,1.85341 v 1.05913 h -0.26459 v -1.05913 z m 0,1.85341 v 1.05912 h -0.26459 v -1.05912 z m 0,1.8534 v 1.05886 h -0.26459 v -1.05886 z m 0,1.85314 v 1.05913 h -0.26459 v -1.05913 z m 0,1.85341 v 1.05913 h -0.26459 v -1.05913 z m 0,1.85341 v 1.05912 h -0.26459 v -1.05912 z m 0,1.8534 v 1.05913 h -0.26459 v -1.05913 z m 0,1.85341 v 1.05886 h -0.26459 v -1.05886 z m 0,1.85314 v 1.05913 h -0.26459 v -1.05913 z m 0,1.85341 v 1.05912 h -0.26459 v -1.05912 z m 0,1.8534 v 1.05913 h -0.26459 v -1.05913 z m 0,1.85341 v 1.05913 h -0.26459 v -1.05913 z m 0,1.853399 v 1.05888 h -0.26459 v -1.05888 z m 0,1.85316 v 1.05912 h -0.26459 V 102.518 Z m 0,1.8534 v 1.05913 h -0.26459 v -1.05913 z m 0,1.85341 v 1.05913 h -0.26459 v -1.05913 z m 0,1.85341 v 0.39713 h -0.26459 v -0.39713 z"
       fill="#a6a6a6"
       fill-rule="evenodd"
       id="path1050"
       style="stroke-width:0.264583" />
    <path
       d="m 15.95352,108.60765 3e-5,-128.322929"
       stroke="#000000"
       stroke-linejoin="round"
       stroke-miterlimit="10"
       fill="none"
       fill-rule="evenodd"
       id="path1052"
       style="stroke-width:0.264583" />
    <path
       d="M 16.13688,108.60765 H 17.8056 M 16.13688,95.766611 h 1.66872 m -1.66872,-12.84128 h 1.66872 m -1.66872,-12.84103 h 1.66872 m -1.66872,-12.7971 H 17.8056 M 16.13688,44.446181 H 17.8056 M 16.13688,31.605161 H 17.8056 M 16.13688,18.808051 H 17.8056 M 16.13688,5.9670308 h 1.66872 m -1.66872,-12.84129 H 17.8056 M 16.13688,-19.715249 H 17.8056 M 13.83685,108.60765 h 2.30003 M 13.83685,82.925331 h 2.30003 m -2.30003,-25.63813 h 2.30003 m -2.30003,-25.68204 h 2.30003 M 13.83685,5.9670308 h 2.30003 M 13.83685,-19.715249 h 2.30003"
       stroke="#000000"
       stroke-linejoin="round"
       stroke-miterlimit="10"
       fill="none"
       fill-rule="evenodd"
       id="path1054"
       style="stroke-width:0.264583" />
    <path
       d="m 15.95352,108.60765 h 238.125"
       stroke="#000000"
       stroke-linejoin="round"
       stroke-miterlimit="10"
       fill="none"
       fill-rule="evenodd"
       id="path1056"
       style="stroke-width:0.264583" />
    <path
       d="m 15.95352,107.02015 v 1.71979 m 23.78604,-1.71979 v 1.71979 m 23.83023,-1.71979 v 1.71979 m 23.78604,-1.71979 v 1.71979 m 23.82996,-1.71979 v 1.71979 m 23.78604,-1.71979 v 1.71979 m 23.83023,-1.71979 v 1.71979 m 23.83023,-1.71979 v 1.71979 m 23.82996,-1.71979 v 1.71979 m 23.78525,-1.71979 v 1.71979 m 23.83102,-1.71979 v 1.71979 m -238.125,0 v 2.24896 m 47.61627,-2.24896 v 2.24896 m 47.616,-2.24896 v 2.24896 m 47.61627,-2.24896 v 2.24896 m 47.66019,-2.24896 v 2.24896 m 47.61627,-2.24896 v 2.24896"
       stroke="#000000"
       stroke-linejoin="round"
       stroke-miterlimit="10"
       fill="none"
       fill-rule="evenodd"
       id="path1058"
       style="stroke-width:0.264583" />
    <path
       d="m 15.82123,-19.582989 c 7.94332,0.0441 15.88664,0.0883 23.83023,0.13237 7.94332,0.0883 15.88664,0.17653 23.78604,0.30891 7.94332,0.13239 15.88664,0.3089 23.82996,0.57366 7.94358,0.30888 15.88691,0.57365 23.83023,1.14732 7.94332,0.52953 15.84272,1.10318 23.78604,2.20638 7.94332,1.05905 15.88664,2.16226 23.83022,4.28033 7.94333,2.1182498 15.88665,4.2804298 23.82997,8.4282998 7.94358,4.1481399 15.84272,8.3402 23.78604,16.4155402 7.94358,8.07535 15.8869,16.28325 23.83022,32.03681 7.9428,15.75356 15.88559,41.70045 23.78605,62.528719"
       stroke="#000000"
       stroke-width="1.05833"
       stroke-linecap="round"
       stroke-linejoin="round"
       stroke-miterlimit="10"
       fill="none"
       fill-rule="evenodd"
       id="path1060" />
    <path
       d="m 15.82123,-17.466319 c 7.94332,0.35277 15.88664,0.61735 23.83023,1.10244 7.94332,0.44095 15.88664,0.97012 23.78604,1.63158 7.94332,0.70556 15.88664,1.45521 23.82996,2.51346 7.94358,1.01441 15.88691,2.16085 23.83023,3.7041698 7.94332,1.5875 15.84272,3.30729 23.78604,5.64462 7.94332,2.33705997 15.88664,4.8947899 23.83022,8.42248 7.94333,3.48377 15.88665,7.3641502 23.82997,12.6118902 7.94358,5.29167 15.84272,11.1125 23.78604,19.00582 7.94358,7.9375 15.8869,16.62456 23.83022,28.53081 7.9428,11.86233 15.88559,28.53108 23.78605,42.774399"
       stroke="#000000"
       stroke-width="1.05833"
       stroke-linecap="round"
       stroke-linejoin="round"
       stroke-miterlimit="10"
       fill="none"
       fill-rule="evenodd"
       id="path1062" />
    <text
       font-family="Arial, Arial_MSFontService, sans-serif"
       font-weight="400"
       font-size="8.46667px"
       id="text1064"
       x="5.7670565"
       y="111.91495"
       style="stroke-width:0.264583">0</text>
    <text
       font-family="Arial, Arial_MSFontService, sans-serif"
       font-weight="400"
       font-size="8.46667px"
       id="text1066"
       x="0.43121046"
       y="86.514931"
       style="stroke-width:0.264583">0.2</text>
    <text
       font-family="Arial, Arial_MSFontService, sans-serif"
       font-weight="400"
       font-size="8.46667px"
       id="text1068"
       x="0.43121046"
       y="60.585758"
       style="stroke-width:0.264583">0.4</text>
    <text
       font-family="Arial, Arial_MSFontService, sans-serif"
       font-weight="400"
       font-size="8.46667px"
       id="text1070"
       x="0.43121046"
       y="35.185764"
       style="stroke-width:0.264583">0.6</text>
    <text
       font-family="Arial, Arial_MSFontService, sans-serif"
       font-weight="400"
       font-size="8.46667px"
       id="text1072"
       x="0.43121046"
       y="9.5211811"
       style="stroke-width:0.264583">0.8</text>
    <text
       font-family="Arial, Arial_MSFontService, sans-serif"
       font-weight="400"
       font-size="8.46667px"
       id="text1074"
       x="5.7670565"
       y="-16.143398"
       style="stroke-width:0.264583">1</text>
    <text
       font-family="Arial, Arial_MSFontService, sans-serif"
       font-weight="400"
       font-size="8.46667px"
       id="text1076"
       x="11.455594"
       y="121.17532"
       style="stroke-width:0.264583">0.5</text>
    <text
       font-family="Arial, Arial_MSFontService, sans-serif"
       font-weight="400"
       font-size="8.46667px"
       id="text1078"
       x="59.036419"
       y="121.17532"
       style="stroke-width:0.264583">0.6</text>
    <text
       font-family="Arial, Arial_MSFontService, sans-serif"
       font-weight="400"
       font-size="8.46667px"
       id="text1080"
       x="106.61751"
       y="121.17532"
       style="stroke-width:0.264583">0.7</text>
    <text
       font-family="Arial, Arial_MSFontService, sans-serif"
       font-weight="400"
       font-size="8.46667px"
       id="text1082"
       x="154.24251"
       y="121.17532"
       style="stroke-width:0.264583">0.8</text>
    <text
       font-family="Arial, Arial_MSFontService, sans-serif"
       font-weight="400"
       font-size="8.46667px"
       id="text1084"
       x="201.82332"
       y="121.17532"
       style="stroke-width:0.264583">0.9</text>
    <text
       font-family="Arial, Arial_MSFontService, sans-serif"
       font-weight="400"
       font-size="8.46667px"
       id="text1086"
       x="251.03581"
       y="121.17532"
       style="stroke-width:0.264583">1</text>
    <text
       font-family="Arial, Arial_MSFontService, sans-serif"
       font-weight="400"
       font-size="9.78958px"
       id="text1088"
       x="118.50627"
       y="133.61076"
       style="stroke-width:0.264583">SOC</text>
    <text
       font-family="Arial, Arial_MSFontService, sans-serif"
       font-weight="400"
       font-size="9.78958px"
       transform="rotate(-90)"
       id="text1090"
       x="-110.59202"
       y="-5.0239682"
       style="stroke-width:0.264583">Battery</text>
    <text
       font-family="Arial, Arial_MSFontService, sans-serif"
       font-weight="400"
       font-size="9.78958px"
       transform="rotate(-90)"
       id="text1092"
       x="-76.460762"
       y="-5.0239682"
       style="stroke-width:0.264583">charging</text>
    <text
       font-family="Arial, Arial_MSFontService, sans-serif"
       font-weight="400"
       font-size="9.78958px"
       transform="rotate(-90)"
       id="text1094"
       x="-35.714939"
       y="-5.0239682"
       style="stroke-width:0.264583">efficiency</text>
    <text
       font-family="Symbol, Symbol_MSFontService, sans-serif"
       font-weight="400"
       font-size="9.78958px"
       transform="rotate(-90)"
       id="text1096"
       x="7.9413123"
       y="-5.0239682"
       style="stroke-width:0.264583"></text>
    <text
       font-family="Arial, Arial_MSFontService, sans-serif"
       font-weight="400"
       font-size="6.61458px"
       transform="rotate(-90)"
       id="text1098"
       x="14.026739"
       y="-2.9072995"
       style="stroke-width:0.264583">B</text>
    <text
       font-family="'Cambria Math', 'Cambria Math_MSFontService', sans-serif"
       font-weight="400"
       font-size="7.67292px"
       id="text1100"
       x="225.65434"
       y="12.696171"
       style="stroke-width:0.264583"></text>
    <text
       font-family="'Cambria Math', 'Cambria Math_MSFontService', sans-serif"
       font-weight="400"
       font-size="7.67292px"
       id="text1102"
       x="227.37413"
       y="13.754503"
       style="stroke-width:0.264583"></text>
    <text
       font-family="'Cambria Math', 'Cambria Math_MSFontService', sans-serif"
       font-weight="400"
       font-size="5.55625px"
       id="text1104"
       x="229.87178"
       y="15.342012"
       style="stroke-width:0.264583">B</text>
    <text
       font-family="'Cambria Math', 'Cambria Math_MSFontService', sans-serif"
       font-weight="400"
       font-size="7.67292px"
       id="text1106"
       x="220.6172"
       y="24.867008"
       style="stroke-width:0.264583"></text>
    <text
       font-family="'Cambria Math', 'Cambria Math_MSFontService', sans-serif"
       font-weight="400"
       font-size="5.55625px"
       id="text1108"
       x="223.57207"
       y="26.454517"
       style="stroke-width:0.264583"></text>
    <path
       d="m 236.61337,22.197631 c 0.52917,0.13917 0.93398,0.44 1.21709,0.90197 0.2831,0.46222 0.42597,1.0197 0.42597,1.67269 0,0.65458 -0.14287,1.21206 -0.42333,1.67243 -0.2831,0.46038 -0.69056,0.76015 -1.21973,0.89932 l -0.0635,-0.20875 c 0.4154,-0.13944 0.72761,-0.41434 0.93134,-0.82471 0.20372,-0.41063 0.30427,-0.93239 0.30427,-1.56554 0,-0.61119 -0.10055,-1.11919 -0.30427,-1.52321 -0.20109,-0.40428 -0.51594,-0.67601 -0.94192,-0.81544 z m -6.92414,0 0.0741,0.20876 c -0.42333,0.13943 -0.73819,0.41116 -0.94192,0.81544 -0.20108,0.40402 -0.30427,0.91202 -0.30427,1.52321 0,0.63315 0.10319,1.15491 0.30427,1.56554 0.20373,0.41037 0.51594,0.68527 0.93398,0.82471 l -0.0661,0.20875 c -0.52917,-0.13917 -0.93663,-0.43894 -1.21709,-0.89932 -0.2831,-0.46037 -0.42333,-1.01785 -0.42333,-1.67243 0,-0.65299 0.14023,-1.21047 0.42333,-1.67269 0.28311,-0.46197 0.68792,-0.7628 1.21709,-0.90197 z"
       fill-rule="evenodd"
       id="path1110"
       style="stroke-width:0.264583" />
    <text
       font-family="'Cambria Math', 'Cambria Math_MSFontService', sans-serif"
       font-weight="400"
       font-size="5.55625px"
       id="text1112"
       x="229.91148"
       y="26.454517"
       style="stroke-width:0.264583">10</text>
    <path
       d="m 220.48834,17.204941 h 9.25909 9.26042 v 0.52917 h -9.26042 -9.25909 z"
       fill-rule="evenodd"
       id="path1114"
       style="stroke-width:0.264583" />
    <text
       font-family="'Cambria Math', 'Cambria Math_MSFontService', sans-serif"
       font-weight="400"
       font-size="7.67292px"
       id="text1116"
       x="241.26738"
       y="19.575352"
       style="stroke-width:0.264583">=</text>
    <text
       font-family="'Cambria Math', 'Cambria Math_MSFontService', sans-serif"
       font-weight="400"
       font-size="7.67292px"
       id="text1118"
       x="249.1996"
       y="19.575352"
       style="stroke-width:0.264583">1</text>
    <text
       font-family="'Cambria Math', 'Cambria Math_MSFontService', sans-serif"
       font-weight="400"
       font-size="7.67292px"
       id="text1120"
       x="172.73"
       y="37.56702"
       style="stroke-width:0.264583"></text>
    <text
       font-family="'Cambria Math', 'Cambria Math_MSFontService', sans-serif"
       font-weight="400"
       font-size="7.67292px"
       id="text1122"
       x="174.44978"
       y="38.625355"
       style="stroke-width:0.264583"></text>
    <text
       font-family="'Cambria Math', 'Cambria Math_MSFontService', sans-serif"
       font-weight="400"
       font-size="5.55625px"
       id="text1124"
       x="176.9493"
       y="40.212849"
       style="stroke-width:0.264583">B</text>
    <text
       font-family="'Cambria Math', 'Cambria Math_MSFontService', sans-serif"
       font-weight="400"
       font-size="7.67292px"
       id="text1126"
       x="167.69417"
       y="49.737858"
       style="stroke-width:0.264583"></text>
    <text
       font-family="'Cambria Math', 'Cambria Math_MSFontService', sans-serif"
       font-weight="400"
       font-size="5.55625px"
       id="text1128"
       x="170.64851"
       y="51.325352"
       style="stroke-width:0.264583"></text>
    <path
       d="m 183.69089,47.040951 c 0.5281,0.13917 0.93371,0.44 1.21681,0.90196 0.28284,0.46223 0.4244,1.01971 0.4244,1.6727 0,0.65458 -0.14103,1.21232 -0.42307,1.67243 -0.28231,0.46037 -0.68818,0.76015 -1.21814,0.89932 l -0.0651,-0.20876 c 0.41778,-0.13917 0.7284,-0.41434 0.93186,-0.8247 0.20347,-0.41064 0.30507,-0.9324 0.30507,-1.56554 0,-0.61119 -0.10108,-1.11919 -0.30375,-1.52321 -0.20267,-0.40428 -0.51646,-0.67601 -0.94138,-0.81545 z m -6.92441,0 0.0733,0.20875 c -0.42333,0.13944 -0.7366,0.41117 -0.94006,0.81545 -0.20346,0.40402 -0.30533,0.91202 -0.30533,1.52321 0,0.63314 0.10187,1.1549 0.30533,1.56554 0.20346,0.41036 0.51409,0.68553 0.93186,0.8247 l -0.0651,0.20876 c -0.52997,-0.13917 -0.93584,-0.43895 -1.21815,-0.89932 -0.28204,-0.46011 -0.42307,-1.01785 -0.42307,-1.67243 0,-0.65299 0.14129,-1.21047 0.4244,-1.6727 0.2831,-0.46196 0.68871,-0.76279 1.21682,-0.90196 z"
       fill-rule="evenodd"
       id="path1130"
       style="stroke-width:0.264583" />
    <text
       font-family="'Cambria Math', 'Cambria Math_MSFontService', sans-serif"
       font-weight="400"
       font-size="5.55625px"
       id="text1132"
       x="176.98793"
       y="51.325352"
       style="stroke-width:0.264583">10</text>
    <path
       d="m 167.56533,42.048261 h 9.26041 9.26042 v 0.52917 h -9.26042 -9.26041 z"
       fill-rule="evenodd"
       id="path1134"
       style="stroke-width:0.264583" />
    <text
       font-family="'Cambria Math', 'Cambria Math_MSFontService', sans-serif"
       font-weight="400"
       font-size="7.67292px"
       id="text1136"
       x="188.3441"
       y="44.446186"
       style="stroke-width:0.264583">=</text>
    <text
       font-family="'Cambria Math', 'Cambria Math_MSFontService', sans-serif"
       font-weight="400"
       font-size="7.67292px"
       id="text1138"
       x="196.27608"
       y="44.446186"
       style="stroke-width:0.264583">2</text>
    <path
       d="m 211.4806,24.947451 6.82053,-4.97525"
       stroke="#000000"
       stroke-width="0.176389"
       stroke-miterlimit="8"
       fill="none"
       fill-rule="evenodd"
       id="path1140" />
    <path
       d="m 201.16185,37.911501 6.65797,-4.71003"
       stroke="#000000"
       stroke-width="0.176389"
       stroke-miterlimit="8"
       fill="none"
       fill-rule="evenodd"
       id="path1142" />
  </g>
</svg>
