<?xml version="1.0" encoding="UTF-8" standalone="no"?>
<svg
   width="109.15603mm"
   height="73.33503mm"
   viewBox="0 0 109.15602 73.335029"
   version="1.1"
   id="svg839"
   inkscape:version="1.2.1 (9c6d41e410, 2022-07-14)"
   sodipodi:docname="Figure8.28b.svg"
   xmlns:inkscape="http://www.inkscape.org/namespaces/inkscape"
   xmlns:sodipodi="http://sodipodi.sourceforge.net/DTD/sodipodi-0.dtd"
   xmlns="http://www.w3.org/2000/svg"
   xmlns:svg="http://www.w3.org/2000/svg"
   xmlns:rdf="http://www.w3.org/1999/02/22-rdf-syntax-ns#"
   xmlns:cc="http://creativecommons.org/ns#"
   xmlns:dc="http://purl.org/dc/elements/1.1/">
  <defs
     id="defs833">
    <clipPath
       id="clip0">
      <rect
         x="622"
         y="383"
         width="452"
         height="302"
         id="rect1402" />
    </clipPath>
    <clipPath
       id="clip0-6">
      <rect
         x="728"
         y="235"
         width="462"
         height="302"
         id="rect9881" />
    </clipPath>
    <clipPath
       id="clip0-8">
      <rect
         x="758"
         y="412"
         width="462"
         height="301"
         id="rect6849" />
    </clipPath>
  </defs>
  <sodipodi:namedview
     id="base"
     pagecolor="#ffffff"
     bordercolor="#666666"
     borderopacity="1.0"
     inkscape:pageopacity="0.0"
     inkscape:pageshadow="2"
     inkscape:zoom="2.8165722"
     inkscape:cx="206.27911"
     inkscape:cy="138.6437"
     inkscape:document-units="mm"
     inkscape:current-layer="layer1"
     inkscape:document-rotation="0"
     showgrid="false"
     fit-margin-top="0"
     fit-margin-left="0"
     fit-margin-right="0"
     fit-margin-bottom="0"
     inkscape:window-width="1258"
     inkscape:window-height="1040"
     inkscape:window-x="104"
     inkscape:window-y="0"
     inkscape:window-maximized="0"
     inkscape:showpageshadow="2"
     inkscape:pagecheckerboard="0"
     inkscape:deskcolor="#d1d1d1" />
  <metadata
     id="metadata836">
    <rdf:RDF>
      <cc:Work
         rdf:about="">
        <dc:format>image/svg+xml</dc:format>
        <dc:type
           rdf:resource="http://purl.org/dc/dcmitype/StillImage" />
        <dc:title />
      </cc:Work>
    </rdf:RDF>
  </metadata>
  <g
     inkscape:label="Capa 1"
     inkscape:groupmode="layer"
     id="layer1"
     transform="translate(-278.48913,-338.31396)">
    <g
       clip-path="url(#clip0-8)"
       transform="matrix(0.26458333,0,0,0.26458333,73.452456,226.91815)"
       id="g6924">
      <path
         d="m 809,672.502 -0.971,-227.333 1,-0.005 0.971,227.334 z m -4.466,-225.985 3.966,-8.017 4.034,7.983 z"
         id="path6854" />
      <path
         d="m 801.5,664 h 379.33 v 1 H 801.5 Z m 378,-3.5 8,4 -8,4 z"
         id="path6856" />
      <text
         font-family="Arial, Arial_MSFontService, sans-serif"
         font-weight="400"
         font-size="24px"
         transform="translate(825.703,443)"
         id="text6860">I<tspan
   font-size="16px"
   x="6.6666899"
   y="5"
   id="tspan6858">G</tspan></text>
      <path
         d="m 808,495.609 c 36.582,3.95 170.606,-4.609 218.66,23.374 48.06,27.983 55.71,114.894 70.34,145.017"
         stroke="#000000"
         stroke-width="4"
         stroke-linejoin="round"
         stroke-miterlimit="10"
         fill="none"
         fill-rule="evenodd"
         id="path6862" />
      <text
         font-family="Arial, Arial_MSFontService, sans-serif"
         font-weight="400"
         font-size="24px"
         transform="translate(1080.54,693)"
         id="text6868">V<tspan
   font-size="16px"
   x="16"
   y="5"
   id="tspan6864">OC</tspan><tspan
   font-size="24px"
   x="-277.578"
   y="-2"
   id="tspan6866">0</tspan></text>
      <path
         d="m 969.5,504.5 c 0,-2.209 1.791,-4 4,-4 2.209,0 4,1.791 4,4 0,2.209 -1.791,4 -4,4 -2.209,0 -4,-1.791 -4,-4 z"
         stroke="#000000"
         stroke-width="1.33333"
         stroke-miterlimit="8"
         fill-rule="evenodd"
         id="path6870" />
      <text
         font-family="Arial, Arial_MSFontService, sans-serif"
         font-weight="400"
         font-size="24px"
         transform="translate(1154.2,693)"
         id="text6874">V<tspan
   font-size="16px"
   x="16"
   y="5"
   id="tspan6872">G</tspan></text>
      <path
         d="M 0,0 248.313,243.025"
         stroke="#000000"
         stroke-width="1.33333"
         stroke-miterlimit="8"
         fill="none"
         fill-rule="evenodd"
         transform="matrix(1,0,0,-1,809.5,664.525)"
         id="path6876" />
      <path
         d="m 1029.5,454.5 h 40.16"
         stroke="#000000"
         stroke-width="0.666667"
         stroke-miterlimit="8"
         fill="none"
         fill-rule="evenodd"
         id="path6878" />
      <path
         d="m 1052.81,435.375 0.72,0.265 2.56,1.791 2.29,2.295 1.85,2.802 1.4,3.176 0.89,3.491 0.31,3.777 -0.66,0.056 -0.31,-3.75 v 0.054 l -0.87,-3.437 0.02,0.052 -1.38,-3.125 0.03,0.049 -1.81,-2.75 0.04,0.052 -2.25,-2.25 0.04,0.038 -2.5,-1.75 0.08,0.039 -0.68,-0.249 z m -0.11,0.313 1.71,4.493 -6.91,-5.681 8.69,-2.118 z"
         id="path6880" />
      <path
         d="M 0,0 317.148,173.915"
         stroke="#000000"
         stroke-width="1.33333"
         stroke-miterlimit="8"
         fill="none"
         fill-rule="evenodd"
         transform="matrix(1,0,0,-1,807.5,665.415)"
         id="path6882" />
      <path
         d="m 1041.5,535.5 c 0,-2.209 1.79,-4 4,-4 2.21,0 4,1.791 4,4 0,2.209 -1.79,4 -4,4 -2.21,0 -4,-1.791 -4,-4 z"
         stroke="#000000"
         stroke-width="1.33333"
         stroke-miterlimit="8"
         fill-rule="evenodd"
         id="path6884" />
      <path
         d="m 1066.5,527.5 h 40.16"
         stroke="#000000"
         stroke-width="0.666667"
         stroke-miterlimit="8"
         fill="none"
         fill-rule="evenodd"
         id="path6886" />
      <path
         d="m 1096.33,512.173 0.48,0.141 2.5,1.281 2.17,1.79 1.86,2.11 1.34,2.436 0.84,2.688 0.31,2.844 -0.66,0.074 -0.31,-2.813 0.01,0.062 -0.81,-2.625 0.02,0.063 -1.31,-2.375 0.04,0.059 -1.81,-2.063 0.04,0.037 -2.13,-1.75 0.06,0.04 -2.43,-1.25 0.05,0.023 -0.44,-0.132 z m -0.09,0.32 1.88,4.426 -7.12,-5.419 8.6,-2.441 z"
         id="path6888" />
      <text
         font-family="Arial, Arial_MSFontService, sans-serif"
         font-weight="400"
         font-size="24px"
         transform="translate(946.586,487)"
         id="text6896">Q<tspan
   font-size="16px"
   x="18.6667"
   y="5"
   id="tspan6890">2</tspan><tspan
   font-size="24px"
   x="88.724297"
   y="28"
   id="tspan6892">Q</tspan><tspan
   font-size="16px"
   x="107.391"
   y="33"
   id="tspan6894">1</tspan></text>
      <path
         d="M 1013.89,519.061 1004,510 l 13.19,-2.478 z"
         id="path6898" />
      <path
         d="m 805.5,495.5 c 0,-2.209 1.791,-4 4,-4 2.209,0 4,1.791 4,4 0,2.209 -1.791,4 -4,4 -2.209,0 -4,-1.791 -4,-4 z"
         stroke="#000000"
         stroke-width="1.33333"
         stroke-miterlimit="8"
         fill-rule="evenodd"
         id="path6900" />
      <text
         font-family="Arial, Arial_MSFontService, sans-serif"
         font-weight="400"
         font-size="24px"
         transform="translate(815.057,484)"
         id="text6922">Q<tspan
   font-size="16px"
   x="18.666599"
   y="5"
   id="tspan6902">3</tspan><tspan
   font-size="24px"
   x="34.594501"
   y="-1"
   id="tspan6904">(D=1)</tspan><tspan
   font-size="24px"
   x="-42.3535"
   y="11"
   id="tspan6906">I</tspan><tspan
   font-size="16px"
   x="-35.686798"
   y="16"
   id="tspan6908">SC</tspan><tspan
   font-size="21px"
   x="299.85501"
   y="39"
   id="tspan6910">1/R</tspan><tspan
   font-size="14px"
   x="333.022"
   y="43"
   id="tspan6912">L</tspan><tspan
   font-size="21px"
   x="299.85501"
   y="64"
   id="tspan6914">(D=0)</tspan><tspan
   font-size="21px"
   x="258.87601"
   y="-35"
   id="tspan6916">1/R</tspan><tspan
   font-size="14px"
   x="292.04199"
   y="-31"
   id="tspan6918">G</tspan><tspan
   font-size="21px"
   x="258.87601"
   y="-10"
   id="tspan6920">(0&lt;D&lt;1)</tspan></text>
    </g>
  </g>
</svg>
