<?xml version="1.0" encoding="UTF-8" standalone="no"?>
<svg
   width="70.486313mm"
   height="57.898014mm"
   viewBox="0 0 70.486313 57.898014"
   version="1.1"
   id="svg10719"
   inkscape:version="1.2.1 (9c6d41e410, 2022-07-14)"
   sodipodi:docname="Figure8.10b.svg"
   xmlns:inkscape="http://www.inkscape.org/namespaces/inkscape"
   xmlns:sodipodi="http://sodipodi.sourceforge.net/DTD/sodipodi-0.dtd"
   xmlns="http://www.w3.org/2000/svg"
   xmlns:svg="http://www.w3.org/2000/svg"
   xmlns:rdf="http://www.w3.org/1999/02/22-rdf-syntax-ns#"
   xmlns:cc="http://creativecommons.org/ns#"
   xmlns:dc="http://purl.org/dc/elements/1.1/">
  <defs
     id="defs10713">
    <clipPath
       id="clip0">
      <rect
         x="184"
         y="99"
         width="310"
         height="234"
         id="rect11282" />
    </clipPath>
    <clipPath
       id="clip0-8">
      <rect
         x="184"
         y="99"
         width="310"
         height="234"
         id="rect5309" />
    </clipPath>
  </defs>
  <sodipodi:namedview
     id="base"
     pagecolor="#ffffff"
     bordercolor="#666666"
     borderopacity="1.0"
     inkscape:pageopacity="0.0"
     inkscape:pageshadow="2"
     inkscape:zoom="3.3908043"
     inkscape:cx="133.15425"
     inkscape:cy="109.41357"
     inkscape:document-units="mm"
     inkscape:current-layer="layer1"
     inkscape:document-rotation="0"
     showgrid="false"
     fit-margin-top="0"
     fit-margin-left="0"
     fit-margin-right="0"
     fit-margin-bottom="0"
     inkscape:window-width="1680"
     inkscape:window-height="987"
     inkscape:window-x="-8"
     inkscape:window-y="-8"
     inkscape:window-maximized="1"
     inkscape:showpageshadow="2"
     inkscape:pagecheckerboard="0"
     inkscape:deskcolor="#d1d1d1" />
  <metadata
     id="metadata10716">
    <rdf:RDF>
      <cc:Work
         rdf:about="">
        <dc:format>image/svg+xml</dc:format>
        <dc:type
           rdf:resource="http://purl.org/dc/dcmitype/StillImage" />
        <dc:title />
      </cc:Work>
    </rdf:RDF>
  </metadata>
  <g
     inkscape:label="Capa 1"
     inkscape:groupmode="layer"
     id="layer1"
     transform="translate(-160.51694,-277.35778)">
    <g
       clip-path="url(#clip0-8)"
       transform="matrix(0.26458333,0,0,0.26458333,110.64351,247.28184)"
       id="g5342">
      <path
         d="M 0.5,-2.53592e-7 0.500102,200.333 h -1 L -0.5,2.53592e-7 Z M 4.0001,199 1.04987e-4,207 -3.9999,199 Z"
         transform="matrix(1,0,0,-1,305.5,332.5)"
         id="path5314" />
      <path
         d="m 188.502,231 235.334,0.973 -0.004,0.999 L 188.498,232 Z m 234.015,-2.533 7.983,4.033 -8.016,3.967 z"
         id="path5316" />
      <path
         d="M 305,144 V 321"
         stroke="#7f7f7f"
         stroke-width="6"
         stroke-linejoin="round"
         stroke-miterlimit="10"
         fill="none"
         fill-rule="evenodd"
         id="path5318" />
      <path
         d="m 207,231 200,1"
         stroke="#000000"
         stroke-width="6"
         stroke-linejoin="round"
         stroke-miterlimit="10"
         fill="none"
         fill-rule="evenodd"
         id="path5320" />
      <text
         font-family="Arial, Arial_MSFontService, sans-serif"
         font-weight="400"
         font-size="27px"
         transform="translate(321.943,133)"
         id="text5336">i<tspan
   font-size="18px"
   x="6"
   y="6"
   id="tspan5322">SW</tspan><tspan
   font-size="27px"
   x="90.833298"
   y="125"
   id="tspan5324">v</tspan><tspan
   font-size="18px"
   x="104.167"
   y="131"
   id="tspan5326">SW</tspan><tspan
   font-size="21px"
   x="38.006699"
   y="48"
   id="tspan5328">ON</tspan><tspan
   font-size="21px"
   x="76.006699"
   y="48"
   id="tspan5330">state</tspan><tspan
   font-size="21px"
   x="-124.629"
   y="171"
   id="tspan5332">OFF</tspan><tspan
   font-size="21px"
   x="-75.962303"
   y="171"
   id="tspan5334">state</tspan></text>
      <path
         d="M 1.22078e-6,-0.5 4,-0.49999 v 1 L -1.22078e-6,0.5 Z M 7,-0.499983 l 4,1e-5 v 1 l -4,-10e-6 z m 7,1.7e-5 4,1e-5 v 1 l -4,-1e-5 z m 7,1.7e-5 4,10e-6 v 1 l -4,-10e-6 z m 7,1.7e-5 4,1e-5 v 1 l -4,-1e-5 z m 7,1.7e-5 1.3333,4e-6 v 1 L 35,0.500085 Z M 35,-3.99991 43,1.04987e-4 35,4.00009 Z"
         transform="matrix(-1,0,0,1,354.5,176.5)"
         id="path5338" />
      <path
         d="M 0.5,-1.19303e-6 0.50001,4 h -1 L -0.5,1.19303e-6 Z M 0.500017,7 l 9e-6,4 h -1 l -9e-6,-4 z m 1.6e-5,7 1e-5,4 h -1 l -1e-5,-4 z m 1.7e-5,7 10e-6,4 h -1 l -1e-5,-4 z m 1.7e-5,7 9e-6,4 h -1 l -9e-6,-4 z m 1.7e-5,7 5e-6,2.3333 h -1 L -0.499916,35 Z M 4.00009,36 1.04987e-4,44 -3.99991,36 Z"
         transform="matrix(1,0,0,-1,237.5,279.5)"
         id="path5340" />
    </g>
  </g>
</svg>
