<?xml version="1.0" encoding="UTF-8" standalone="no"?>
<svg
   xmlns:dc="http://purl.org/dc/elements/1.1/"
   xmlns:cc="http://creativecommons.org/ns#"
   xmlns:rdf="http://www.w3.org/1999/02/22-rdf-syntax-ns#"
   xmlns:svg="http://www.w3.org/2000/svg"
   xmlns="http://www.w3.org/2000/svg"
   xmlns:sodipodi="http://sodipodi.sourceforge.net/DTD/sodipodi-0.dtd"
   xmlns:inkscape="http://www.inkscape.org/namespaces/inkscape"
   width="220.65845mm"
   height="143.26878mm"
   viewBox="0 0 220.65845 143.26878"
   version="1.1"
   id="svg13582"
   inkscape:version="1.0.2-2 (e86c870879, 2021-01-15)"
   sodipodi:docname="Figure8.31a.svg">
  <defs
     id="defs13576">
    <clipPath
       id="clip0">
      <rect
         x="254"
         y="28"
         width="857"
         height="593"
         id="rect14145" />
    </clipPath>
  </defs>
  <sodipodi:namedview
     id="base"
     pagecolor="#ffffff"
     bordercolor="#666666"
     borderopacity="1.0"
     inkscape:pageopacity="0.0"
     inkscape:pageshadow="2"
     inkscape:zoom="0.35"
     inkscape:cx="888.42093"
     inkscape:cy="656.45842"
     inkscape:document-units="mm"
     inkscape:current-layer="layer1"
     inkscape:document-rotation="0"
     showgrid="false"
     fit-margin-top="0"
     fit-margin-left="0"
     fit-margin-right="0"
     fit-margin-bottom="0"
     inkscape:window-width="1258"
     inkscape:window-height="1040"
     inkscape:window-x="208"
     inkscape:window-y="0"
     inkscape:window-maximized="0" />
  <metadata
     id="metadata13579">
    <rdf:RDF>
      <cc:Work
         rdf:about="">
        <dc:format>image/svg+xml</dc:format>
        <dc:type
           rdf:resource="http://purl.org/dc/dcmitype/StillImage" />
        <dc:title></dc:title>
      </cc:Work>
    </rdf:RDF>
  </metadata>
  <g
     inkscape:label="Capa 1"
     inkscape:groupmode="layer"
     id="layer1"
     transform="translate(129.22804,25.521291)">
    <text
       font-family="'Times New Roman', 'Times New Roman_MSFontService', sans-serif"
       font-weight="400"
       font-size="7.14375px"
       id="text14150"
       x="-46.1926"
       y="9.9318419"
       style="stroke-width:0.264583">Square wave</text>
    <path
       d="m -73.40322,-11.221185 -4.105145,4.5156565 0.261038,0.2373048 4.105141,-4.5156573 z m -4.520435,3.6613699 -0.640715,2.2781154 2.206916,-0.8542867 z"
       id="path14152"
       style="stroke-width:0.264583" />
    <rect
       x="-75.786247"
       y="-20.759825"
       width="167.21666"
       height="11.1125"
       fill="#ffffff"
       id="rect14154"
       style="stroke-width:0.264583" />
    <text
       font-family="'Times New Roman', 'Times New Roman_MSFontService', sans-serif"
       font-weight="400"
       font-size="7.14375px"
       id="text14168"
       x="-73.246246"
       y="-12.557741"
       style="stroke-width:0.264583">Sum <tspan
   font-size="7.14375px"
   x="-58.561871"
   y="-12.557741"
   id="tspan14156"
   style="stroke-width:0.0700043">of</tspan><tspan
   font-size="7.14375px"
   x="-50.93306"
   y="-12.557741"
   id="tspan14158"
   style="stroke-width:0.0700043">harmonics</tspan><tspan
   font-size="7.14375px"
   x="-19.844601"
   y="-12.557741"
   id="tspan14160"
   style="stroke-width:0.0700043">1, 3 and 5.</tspan><tspan
   font-size="7.14375px"
   x="-10.539996"
   y="90.100594"
   id="tspan14162"
   style="stroke-width:0.0700043">n=1</tspan><tspan
   font-size="7.14375px"
   x="-26.414995"
   y="34.27351"
   id="tspan14164"
   style="stroke-width:0.0700043">n=3</tspan><tspan
   font-size="7.14375px"
   x="-17.154579"
   y="55.175591"
   id="tspan14166"
   style="stroke-width:0.0700043">n=5</tspan></text>
    <path
       d="m -14.932079,82.692257 2.116667,2.116667"
       stroke="#000000"
       stroke-width="0.529167"
       stroke-linejoin="round"
       stroke-miterlimit="10"
       fill="none"
       fill-rule="evenodd"
       id="path14170" />
    <path
       d="m -26.573746,23.954758 2.116667,4.233333"
       stroke="#000000"
       stroke-width="0.529167"
       stroke-linejoin="round"
       stroke-miterlimit="10"
       fill="none"
       fill-rule="evenodd"
       id="path14172" />
    <path
       d="m -19.429996,45.121425 2.116667,4.233333"
       stroke="#000000"
       stroke-width="0.529167"
       stroke-linejoin="round"
       stroke-miterlimit="10"
       fill="none"
       fill-rule="evenodd"
       id="path14174" />
    <path
       d="m -46.864823,9.8951137 -16.036901,4.7871363 0.100912,0.338031 16.036895,-4.787129 z m -15.951123,3.8411183 -1.725507,1.619568 2.330953,0.408675 z"
       id="path14176"
       style="stroke-width:0.264583" />
    <path
       d="m -111.3727,93.143299 3e-5,-108.743749"
       stroke="#000000"
       stroke-width="0.132305"
       stroke-linejoin="round"
       stroke-miterlimit="10"
       fill="none"
       fill-rule="evenodd"
       id="path14178" />
    <path
       d="m -114.28312,93.143299 h 2.91042 m -2.91042,-18.219473 h 2.91042 m -2.91042,-18.175552 h 2.91042 m -2.91042,-17.954889 h 2.91042 m -2.91042,-18.219473 h 2.91042 m -2.91042,-17.9548889 h 2.91042 m -2.91042,-18.2194461 h 2.91042"
       stroke="#000000"
       stroke-width="0.132305"
       stroke-linejoin="round"
       stroke-miterlimit="10"
       fill="none"
       fill-rule="evenodd"
       id="path14180" />
    <path
       d="M -111.3727,93.143299 H 71.454378"
       stroke="#000000"
       stroke-width="0.132305"
       stroke-linejoin="round"
       stroke-miterlimit="10"
       fill="none"
       fill-rule="evenodd"
       id="path14182" />
    <path
       d="m -111.3727,93.143299 v 2.910417 m 45.728728,-2.910417 v 2.910417 m 45.68481,-2.910417 v 2.910417 m 45.72873,-2.910417 v 2.910417 m 45.68481,-2.910417 v 2.910417"
       stroke="#000000"
       stroke-width="0.132305"
       stroke-linejoin="round"
       stroke-miterlimit="10"
       fill="none"
       fill-rule="evenodd"
       id="path14184" />
    <path
       d="m -111.24041,-7.5306581 c 1.49886,0.1764771 3.04191,0.1764771 4.54104,0.5733521 1.54279,0.3526896 3.04192,0.9260417 4.58497,1.6756062 1.49886,0.7495646 3.041912,1.6756063 4.540776,2.778125 1.54305,1.1025187 3.041915,2.38124998 4.584965,3.7922729 1.499129,1.4112875 3.042179,2.9987874 4.541043,4.6743937 1.54305,1.7197916 3.0861,3.5718749 4.584965,5.5120642 1.54305,1.984375 3.041914,4.057121 4.584964,6.173788 1.498865,2.160587 2.997994,4.409545 4.541044,6.702689 1.498865,2.293144 3.041915,4.674394 4.584965,7.055644 1.498864,2.38125 3.041914,4.806421 4.540779,7.231856 1.54305,2.425435 3.042179,4.806685 4.584964,7.231856 1.499129,2.337329 3.042179,4.718579 4.541044,7.011458 1.54305,2.293144 3.041915,4.542102 4.584965,6.702955 1.498864,2.160587 3.041914,4.233333 4.584964,6.173522 1.499129,1.94019 2.997994,3.792273 4.541044,5.512065 1.498864,1.719792 3.041914,3.307291 4.540779,4.718579 1.54305,1.411023 3.042179,2.689754 4.584964,3.792273 1.54305,1.058333 3.04218,2.02856 4.585229,2.733939 1.498865,0.74983 3.041915,1.322917 4.54078,1.719792 1.54305,0.352954 3.041914,0.573352 4.584964,0.573352 1.499129,0 3.042179,-0.220398 4.541044,-0.573352 1.54305,-0.396875 3.041914,-0.969962 4.584964,-1.719792 1.4988649,-0.705379 3.0419149,-1.675606 4.5407794,-2.733939 1.54305,-1.102519 3.0421792,-2.38125 4.5852292,-3.792273 1.49886452,-1.411288 3.0419145,-2.998787 4.5407791,-4.718579 1.5430499,-1.719792 3.0860999,-3.571875 4.5849645,-5.512065 1.54305,-1.940189 3.0421788,-4.012935 4.5410438,-6.173522 1.54305,-2.160853 3.041914,-4.409811 4.584964,-6.702955 1.498865,-2.292879 3.041915,-4.674129 4.584965,-7.011458 1.498864,-2.425171 3.041914,-4.806421 4.541044,-7.231856 1.54305,-2.425435 3.041914,-4.850606 4.584964,-7.231856 1.498865,-2.38125 3.041915,-4.7625 4.540779,-7.055644 1.54305,-2.293144 3.042179,-4.542102 4.584965,-6.702689 1.499129,-2.116667 3.042179,-4.189413 4.541043,-6.173788 1.54305,-1.9401893 3.041915,-3.7922726 4.584965,-5.5120642 1.498865,-1.6756063 3.041915,-3.2631062 4.541044,-4.6743937 1.54305,-1.41102292 3.041914,-2.6897542 4.584964,-3.7922729 1.54305,-1.1025187 3.041915,-2.0285604 4.583642,-2.778125 1.500187,-0.7495645 3.042708,-1.3229166 4.542896,-1.6756062 1.54252,-0.396875 3.040062,-0.396875 4.54025,-0.5733521"
       stroke="#000000"
       stroke-width="0.529167"
       stroke-linecap="round"
       stroke-linejoin="round"
       stroke-miterlimit="10"
       fill="none"
       fill-rule="evenodd"
       id="path14186" />
    <path
       d="m -111.24041,53.940781 c 1.49886,-0.573088 3.04191,-0.617273 4.54104,-1.675606 1.54279,-1.058334 3.04192,-2.778125 4.58497,-4.630209 1.49886,-1.896268 3.041912,-4.321439 4.540776,-6.614583 1.54305,-2.293144 3.041915,-4.938977 4.584965,-7.099564 1.499129,-2.205038 3.042179,-4.453996 4.541043,-6.129603 1.54305,-1.631685 3.0861,-2.998522 4.584965,-3.704166 1.54305,-0.749565 3.041914,-0.926042 4.584964,-0.573352 1.498865,0.352954 2.997994,1.367102 4.541044,2.734204 1.498865,1.366837 3.041915,3.351212 4.584965,5.423958 1.498864,2.072481 3.041914,4.630208 4.540779,6.967273 1.54305,2.293144 3.042179,4.894792 4.584964,6.923352 1.499129,2.072481 3.042179,4.101042 4.541044,5.423958 1.54305,1.366838 3.041915,2.38125 4.584965,2.73394 1.498864,0.396875 3.041914,0.176477 4.584964,-0.529167 1.499129,-0.705644 2.997994,-2.116666 4.541044,-3.748352 1.498864,-1.631421 3.041914,-3.880379 4.540779,-6.085416 1.54305,-2.204773 3.042179,-4.850607 4.584964,-7.14375 1.54305,-2.248959 3.04218,-4.718315 4.585229,-6.570398 1.498865,-1.896269 3.041915,-3.616061 4.54078,-4.630208 1.54305,-1.058334 3.041914,-1.675607 4.584964,-1.675607 1.499129,0 3.042179,0.617273 4.541044,1.675607 1.54305,1.014147 3.041914,2.733939 4.584964,4.630208 1.4988649,1.852083 3.0419149,4.321439 4.5407794,6.570398 1.54305,2.293143 3.0421792,4.938977 4.5852292,7.14375 1.49886452,2.205037 3.0419145,4.453995 4.5407791,6.085416 1.5430499,1.631686 3.0860999,3.042708 4.5849645,3.748352 1.54305,0.705644 3.0421788,0.926042 4.5410438,0.529167 1.54305,-0.35269 3.041914,-1.367102 4.584964,-2.73394 1.498865,-1.322916 3.041915,-3.351477 4.584965,-5.423958 1.498864,-2.02856 3.041914,-4.630208 4.541044,-6.923352 1.54305,-2.337065 3.041914,-4.894792 4.584964,-6.967273 1.498865,-2.072746 3.041915,-4.057121 4.540779,-5.423958 1.54305,-1.367102 3.042179,-2.38125 4.584965,-2.734204 1.499129,-0.35269 3.042179,-0.176213 4.541043,0.573352 1.54305,0.705644 3.041915,2.072481 4.584965,3.704166 1.498865,1.675607 3.041915,3.924565 4.541044,6.129603 1.54305,2.160587 3.041914,4.80642 4.584964,7.099564 1.54305,2.293144 3.041915,4.718315 4.583642,6.614583 1.500187,1.852084 3.042708,3.571875 4.542896,4.630209 1.54252,1.058333 3.040062,1.102518 4.54025,1.675606"
       stroke="#000000"
       stroke-width="0.529167"
       stroke-linecap="round"
       stroke-linejoin="round"
       stroke-miterlimit="10"
       fill="none"
       fill-rule="evenodd"
       id="path14188" />
    <path
       d="m -111.24041,29.246425 c 1.49886,0.928158 3.04191,1.193535 4.54104,2.740554 1.54279,1.547019 3.04192,4.375944 4.58497,6.542087 1.49886,2.165879 3.041912,4.994804 4.540776,6.541823 1.54305,1.547019 3.041915,2.696369 4.584965,2.696369 1.499129,0 3.042179,-1.14935 4.541043,-2.696369 1.54305,-1.547019 3.0861,-4.375944 4.584965,-6.541823 1.54305,-2.166143 3.041914,-5.039254 4.584964,-6.542087 1.498865,-1.547019 2.997994,-2.740554 4.541044,-2.740554 1.498865,0 3.041915,1.193535 4.584965,2.740554 1.498864,1.547019 3.041914,4.375944 4.540779,6.542087 1.54305,2.165879 3.042179,4.994804 4.584964,6.541823 1.499129,1.547019 3.042179,2.696369 4.541044,2.696369 1.54305,0 3.041915,-1.14935 4.584965,-2.696369 1.498864,-1.547019 3.041914,-4.375944 4.584964,-6.541823 1.499129,-2.166143 2.997994,-5.039254 4.541044,-6.542087 1.498864,-1.547019 3.041914,-2.740554 4.540779,-2.740554 1.54305,0 3.042179,1.193535 4.584964,2.740554 1.54305,1.547019 3.04218,4.375944 4.585229,6.542087 1.498865,2.165879 3.041915,4.994804 4.54078,6.541823 1.54305,1.547019 3.041914,2.696369 4.584964,2.696369 1.499129,0 3.042179,-1.14935 4.541044,-2.696369 1.54305,-1.547019 3.041914,-4.375944 4.584964,-6.541823 1.4988649,-2.166143 3.0419149,-5.039254 4.5407794,-6.542087 1.54305,-1.547019 3.0421792,-2.740554 4.5852292,-2.740554 1.49886452,0 3.0419145,1.193535 4.5407791,2.740554 1.5430499,1.547019 3.0860999,4.375944 4.5849645,6.542087 1.54305,2.165879 3.0421788,4.994804 4.5410438,6.541823 1.54305,1.547019 3.041914,2.696369 4.584964,2.696369 1.498865,0 3.041915,-1.14935 4.584965,-2.696369 1.498864,-1.547019 3.041914,-4.375944 4.541044,-6.541823 1.54305,-2.166143 3.041914,-5.039254 4.584964,-6.542087 1.498865,-1.547019 3.041915,-2.740554 4.540779,-2.740554 1.54305,0 3.042179,1.193535 4.584965,2.740554 1.499129,1.547019 3.042179,4.375944 4.541043,6.542087 1.54305,2.165879 3.041915,4.994804 4.584965,6.541823 1.498865,1.547019 3.041915,2.696369 4.541044,2.696369 1.54305,0 3.041914,-1.14935 4.584964,-2.696369 1.54305,-1.547019 3.041915,-4.375944 4.583642,-6.541823 1.500187,-2.166143 3.042708,-5.039254 4.542896,-6.542087 1.54252,-1.547019 3.040062,-1.812396 4.54025,-2.740554"
       stroke="#000000"
       stroke-width="0.529167"
       stroke-linecap="round"
       stroke-linejoin="round"
       stroke-miterlimit="10"
       fill="none"
       fill-rule="evenodd"
       id="path14190" />
    <path
       d="m -111.24041,-1.316654 c 1.49886,0.57282294 3.04191,0.74903544 4.54104,1.63009792 1.54279,0.83687708 3.04192,2.51089578 4.58497,3.56817078 1.49886,1.0133542 3.041912,2.3346833 4.540776,2.6431875 1.54305,0.352425 3.041915,0.1320271 4.584965,-0.6606646 1.499129,-0.7929562 3.042179,-2.6431875 4.541043,-4.0970729 1.54305,-1.49780619 3.0861,-3.8324895 4.584965,-4.7577374 1.54305,-0.9691687 3.041914,-1.8941521 4.584964,-0.9249833 1.498865,0.9249833 2.997994,3.03953327 4.541044,6.6960749 1.498865,3.656277 3.041915,9.2069711 4.584965,15.1540101 1.498864,5.991225 3.041914,13.788496 4.540779,20.704704 1.54305,6.872287 3.042179,14.713479 4.584964,20.660783 1.499129,5.99096 3.042179,11.541654 4.541044,15.197931 1.54305,3.612356 3.041915,5.726906 4.584965,6.696075 1.498864,0.969169 3.041914,0.04418 4.584964,-0.924983 1.499129,-0.969169 2.997994,-3.304117 4.541044,-4.757738 1.498864,-1.497806 3.041914,-3.348037 4.540779,-4.140993 1.54305,-0.792957 3.042179,-0.969169 4.584964,-0.660665 1.54305,0.352425 3.04218,1.629833 4.585229,2.687108 1.498865,1.01309 3.041915,2.687109 4.54078,3.568171 1.54305,0.837142 3.041914,1.585913 4.584964,1.585913 1.499129,0 3.042179,-0.748771 4.541044,-1.585913 1.54305,-0.881062 3.041914,-2.555081 4.584964,-3.568171 1.4988649,-1.057275 3.0419149,-2.334683 4.5407794,-2.687108 1.54305,-0.308504 3.0421792,-0.132292 4.5852292,0.660665 1.49886452,0.792956 3.0419145,2.643187 4.5407791,4.140993 1.5430499,1.453621 3.0860999,3.788569 4.5849645,4.757738 1.54305,0.969168 3.0421788,1.894152 4.5410438,0.924983 1.54305,-0.969169 3.041914,-3.083719 4.584964,-6.696075 1.498865,-3.656277 3.041915,-9.206971 4.584965,-15.197931 1.498864,-5.947304 3.041914,-13.788496 4.541044,-20.660783 1.54305,-6.916208 3.041914,-14.713479 4.584964,-20.704704 1.498865,-5.947039 3.041915,-11.4977331 4.540779,-15.1540101 1.54305,-3.65654163 3.042179,-5.7710916 4.584965,-6.6960749 1.499129,-0.9691688 3.042179,-0.044185 4.541043,0.9249833 1.54305,0.9252479 3.041915,3.25993121 4.584965,4.7577374 1.498865,1.4538854 3.041915,3.3041167 4.541044,4.0970729 1.54305,0.7926917 3.041914,1.0130896 4.584964,0.6606646 1.54305,-0.3085042 3.041915,-1.6298333 4.583642,-2.6431875 1.500187,-1.057275 3.042708,-2.7312937 4.542896,-3.56817078 1.54252,-0.88106248 3.040062,-1.05727498 4.54025,-1.63009792"
       stroke="#000000"
       stroke-width="1.10244"
       stroke-linecap="round"
       stroke-linejoin="round"
       stroke-miterlimit="10"
       fill="none"
       fill-rule="evenodd"
       id="path14192" />
    <path
       d="m -111.24041,2.1705543 c 0.26458,0 0.57309,0 0.88186,0 0.3085,0 0.617,0 0.92577,0 0.30851,0 0.61701,0 0.92578,0 0.3085,0 0.61727,0 0.92578,0 0.26458,0 0.57308,0 0.88185,0 0.30851,0 0.61701,0 0.92578,0 0.3085,0 0.61701,0 0.92578,0 0.3085,0 0.61727,0 0.92577,0 0.26459,0 0.57309,0 0.88186,0 0.3085,0 0.61701,0 0.92578,0 0.3085,0 0.61701,0 0.92577,0 0.30851,0 0.57309,0 0.8816,0 0.308765,0 0.617269,0 0.926037,0 0.308505,0 0.617009,0 0.925778,0 0.308504,0 0.573087,0 0.881591,0 0.308769,0 0.617273,0 0.925777,0 0.308769,0 0.617273,0 0.925777,0 0.308769,0 0.617273,0 0.881857,0 0.308504,0 0.617272,0 0.925777,0 0.308768,0 0.617273,0 0.925777,0 0.308768,0 0.617273,0 0.881856,0 0.308504,0 0.617273,0 0.925777,0 0.308504,0 0.617273,0 0.925777,0 0.308769,0 0.617273,0 0.925777,0 0.308769,0 0.617273,0 0.881856,0 0.308505,0 0.617273,0 0.925777,0 0.308505,0 0.617273,0 0.925778,0 0.308768,0 0.617272,0 0.925777,0 0.308768,0 0.617273,0 0.881856,0 0.308504,0 0.617273,0 0.925777,0 0.308504,0 0.617273,0 0.925777,0 0.308769,0 0.617273,0 0.925777,0 0.264583,0 0.573088,0 0.881856,0 0.308504,0 0.617273,0 0.925777,0 0.308505,0 0.617273,0 0.925777,0 0.264584,0 0.573088,0 0.881857,0 0.308504,0 0.617008,0 0.925777,0 0.308504,0 0.617273,0 0.925777,0 0.264583,0 0.573087,0 0.881856,0 0.308504,0 0.617008,0 0.925777,0 0.308504,0 0.617008,0 0.925777,0 0.308504,0 0.573088,0 0.881592,0 0.308769,0 0.617273,0 0.925777,0 0.308769,0 0.617273,0 0.926042,0 0.308504,0 0.617008,0 0.925777,0 0.308504,0 0.617273,0 0.881591,0 0.308769,0 0.617273,0 0.926042,0 0.308504,0 0.617008,0 0.925777,0 0,0 0.881592,-0.4407958 0.925777,0 0.308504,6.037527 0.573088,24.1506377 0.881592,36.2259557 0.308769,12.075319 0.617273,30.188429 0.926041,36.22622 0.04392,0.396611 0.881592,0 0.925778,0 0.308504,0 0.617008,0 0.881591,0 0.308769,0 0.617273,0 0.925777,0 0.308769,0 0.617273,0 0.925777,0 0.308769,0 0.617273,0 0.881857,0 0.308504,0 0.617272,0 0.925777,0 0.308768,0 0.617273,0 0.925777,0 0.308768,0 0.617273,0 0.881856,0 0.308504,0 0.617273,0 0.925777,0 0.308504,0 0.617273,0 0.925777,0 0.308769,0 0.617273,0 0.925777,0 0.308769,0 0.573088,0 0.881856,0 0.308505,0 0.617273,0 0.925777,0 0.308505,0 0.617273,0 0.925778,0 0.308768,0 0.617272,0 0.925777,0 0.308768,0 0.573087,0 0.881856,0 0.308504,0 0.617273,0 0.925777,0 0.308504,0 0.617273,0 0.925777,0 0.308769,0 0.617273,0 0.925777,0 0.264583,0 0.573088,0 0.881856,0 0.308504,0 0.617273,0 0.925777,0 0.308505,0 0.617273,0 0.925777,0 0.264584,0 0.573088,0 0.881857,0 0.308504,0 0.617008,0 0.925777,0 0.308504,0 0.617273,0 0.925777,0 0.308504,0 0.573087,0 0.881856,0 0.308504,0 0.617008,0 0.925777,0 0.308504,0 0.617008,0 0.925777,0 0.308504,0 0.573088,0 0.881592,0 0.308769,0 0.617273,0 0.925777,0 0.308769,0 0.617273,0 0.926042,0 0.308504,0 0.617008,0 0.925777,0 0.264583,0 0.573087,0 0.881591,0 0.308769,0 0.617273,0 0.925777,0 0.308769,0 0.617273,0 0.926042,0 0.308504,0 0.617008,0 0.925777,0 0.308504,0 0.573088,0 0.881592,0 0.308769,0 0.617273,0 0.926041,0 0.308505,0 0.617009,0 0.925777,0 0.308505,0 0.617009,0 0.881592,0 0.308769,0 0.617273,0 0.925777,0 0.308769,0 0.617273,0 0.925777,0 0.308769,0 0.617273,0 0.881857,0 0.308504,0 0.617272,0 0.925777,0 0.308768,0 0.617272,0 0.925777,0 0.308768,0 0.617273,0 0.881856,0 0.308504,0 0.617273,0 0.925777,0 0.308504,0 0.617273,0 0.925777,0 0.308769,0 0.617273,0 0.925777,0 0.264583,0 0.573088,0 0.881856,0 0.308505,0 0.617273,0 0.925777,0 0.308505,0 0.617273,0 0.925777,0 0.308769,0 0.617273,0 0.925778,0 0.264583,0 0.573087,0 0.881856,0 0.308504,0 0.617273,0 0.925777,0 0.308504,0 0.617273,0 0.925777,0 0.308769,0 0.617273,0 0.925777,0 0.264583,0 0.573088,0 0.881856,0 0.308504,0 0.617273,0 0.925777,0 0.308504,0 0.617273,0 0.9257774,0 0.2645833,0 0.5730875,0 0.8818562,0 0.3085042,0 0.6170084,0 0.9257771,0 0.3085042,0 0.6172729,0 0.9257771,0 0.3085042,0 0.5730875,0 0.8815916,0 0.3087688,0 0.617273,0 0.9260417,0 0.3085042,0 0.6170083,0 0.9257771,0 0.3085041,0 0.5730875,0 0.8815916,0 0.3087688,0 0.6172729,0 0.9260417,0 0.3085041,0 0.6170083,0 0.9257771,0 0.3085041,0 0.6170083,0 0.88159161,0 0.30876874,0 0.61727291,0 0.92577707,0 0.30876875,0 0.61727291,0 0.92577712,0 0.3087687,0 0.6172729,0 0.9260416,0 0.3085042,0 0.6170083,0 0.8815917,0 0.3087687,0 0.6172729,0 0.925777,0 0.3087688,0 0.6172729,0 0.9257771,0 0.3087688,0 0.6172729,0 0.9260417,0 0.3085041,0 0.6170083,0 0.8815916,0 0.3087688,0 0.6172729,0 0.9257771,0 0.3087687,0 0.6172729,0 0.9257771,0 0.3087687,0 0.6172729,0 0.8818562,0 0.3085042,0 0.6172729,0 0.9257775,0 0.308768,0 0.617272,0 0.925777,0 0.308768,0 0.617273,0 0.881856,0 0.308504,0 0.617273,0 0.925777,0 0.308504,0 0.617273,0 0.925777,0 0.308504,0 0.617273,0 0.925777,0 0.264583,0 0.573088,0 0.881856,0 0.308504,0 0.617273,0 0.925777,0 0.308505,0 0.617273,0 0.925777,0 0.308769,0 0.573088,0 0.881857,0 0.308504,0 0.617008,0 0.925777,0 0.308504,0 0.617273,0 0.925777,0 0.308504,0 0.617273,0 0.925777,0 0.308769,0 0.617273,0 0.881856,0 0.308504,0 0.617008,0 0.925777,0 0.308504,0 0.617273,0 0.925777,0 0,0 0.881592,0.396611 0.925777,0 0.308769,-6.037791 0.573088,-24.150901 0.881857,-36.22622 0.308504,-12.075318 0.617008,-30.1884287 0.925777,-36.2259557 0.04392,-0.4407958 0.881591,0 0.925777,0 0.308504,0 0.573087,0 0.881591,0 0.308769,0 0.617273,0 0.926042,0 0.308504,0 0.617008,0 0.925777,0 0.308504,0 0.573088,0 0.881592,0 0.308769,0 0.617273,0 0.925777,0 0.308769,0 0.617273,0 0.926042,0 0.308504,0 0.617008,0 0.881591,0 0.308769,0 0.617273,0 0.925777,0 0.308769,0 0.617273,0 0.925777,0 0.308769,0 0.617273,0 0.926042,0 0.308504,0 0.573087,0 0.881592,0 0.308768,0 0.617273,0 0.925777,0 0.308768,0 0.617273,0 0.925777,0 0.308769,0 0.617273,0 0.926041,0 0.308505,0 0.573088,0 0.881592,0 0.308769,0 0.617273,0 0.925777,0 0.308769,0 0.617273,0 0.925777,0 0.308769,0 0.617273,0 0.881856,0 0.308505,0 0.617273,0 0.925778,0 0.308768,0 0.617272,0 0.925777,0 0.308768,0 0.617273,0 0.925777,0 0.264583,0 0.573352,0 0.881856,0 0.308504,0 0.617273,0 0.925777,0 0.308769,0 0.617273,0 0.925777,0 0.264583,0 0.573088,0 0.881856,0 0.308504,0 0.617273,0 0.925777,0 0.308505,0 0.617273,0 0.925777,0 0.264584,0 0.573088,0 0.881857,0 0.308504,0 0.617008,0 0.925777,0 0.308504,0 0.617273,0 0.925777,0 0.308504,0 0.617273,0 0.925777,0 0.264583,0 0.573087,0 0.881856,0 0.308504,0 0.617008,0 0.925777,0 0.308504,0 0.617273,0 0.925777,0 0.308504,0 0.617273,0 0.925777,0 0.308505,0 0.573088,0 0.881857,0 0.308504,0 0.617008,0 0.925777,0 0.308504,0 0.617273,0 0.924454,0 0.309562,0 0.574146,0 0.883708,0 0.306917,0 0.616479,0 0.926042,0 0.306916,0 0.616479,0 0.926041,0 0.306917,0 0.5715,0 0.881063,0 0.306917,0 0.616479,0 0.926042,0 0.306916,0 0.616479,0 0.926041,0 0.306917,0 0.616479,0 0.881063,0 0.309562,0 0.616479,0 0.926041,0 0.306917,0 0.61648,0 0.926042,0 0.306917,0 0.616479,0 0.881063,0"
       stroke="#000000"
       stroke-width="1.63161"
       stroke-linecap="round"
       stroke-linejoin="round"
       stroke-miterlimit="10"
       fill="none"
       fill-rule="evenodd"
       id="path14194" />
    <text
       font-family="'Times New Roman', 'Times New Roman_MSFontService', sans-serif"
       font-weight="400"
       font-size="9.525px"
       id="text14212"
       x="-124.68998"
       y="42.47559"
       style="stroke-width:0.264583">0<tspan
   font-size="9.525px"
   x="-72.946739"
   y="107.82767"
   id="tspan14196"
   style="stroke-width:0.0700043">T/2</tspan><tspan
   font-size="9.525px"
   x="22.412004"
   y="106.50475"
   id="tspan14198"
   style="stroke-width:0.0700043">T</tspan><tspan
   font-size="9.525px"
   x="-30.335331"
   y="117.61726"
   id="tspan14200"
   style="stroke-width:0.0700043">Time</tspan><tspan
   font-size="9.525px"
   x="-110.84338"
   y="-18.907742"
   id="tspan14202"
   style="stroke-width:0.0700043">Voltage</tspan><tspan
   font-size="9.525px"
   x="-127.73184"
   y="3.0526748"
   id="tspan14204"
   style="stroke-width:0.0700043">V</tspan><tspan
   font-size="6.35px"
   x="-120.85268"
   y="5.1693416"
   id="tspan14206"
   style="stroke-width:0.0700043">B</tspan><tspan
   font-size="9.525px"
   x="-129.61406"
   y="75.548508"
   id="tspan14208"
   style="stroke-width:0.0700043">-</tspan>V<tspan
   font-size="6.35px"
   x="-119.5599"
   y="77.665176"
   id="tspan14210"
   style="stroke-width:0.0700043">B</tspan></text>
    <path
       d="M -111.3727,38.793385 76.216881,38.639024"
       stroke="#000000"
       stroke-width="0.176389"
       stroke-miterlimit="8"
       stroke-dasharray="0.705556, 0.529167"
       fill="none"
       fill-rule="evenodd"
       id="path14214" />
  </g>
</svg>
