<?xml version="1.0" encoding="UTF-8" standalone="no"?>
<svg
   xmlns:dc="http://purl.org/dc/elements/1.1/"
   xmlns:cc="http://creativecommons.org/ns#"
   xmlns:rdf="http://www.w3.org/1999/02/22-rdf-syntax-ns#"
   xmlns:svg="http://www.w3.org/2000/svg"
   xmlns="http://www.w3.org/2000/svg"
   xmlns:sodipodi="http://sodipodi.sourceforge.net/DTD/sodipodi-0.dtd"
   xmlns:inkscape="http://www.inkscape.org/namespaces/inkscape"
   width="620.79999mm"
   height="311.37mm"
   viewBox="0 0 620.79999 311.37"
   version="1.1"
   id="svg1739"
   inkscape:version="1.0.2-2 (e86c870879, 2021-01-15)"
   sodipodi:docname="Figure10.10.svg">
  <defs
     id="defs1733">
    <pattern
       id="EMFhbasepattern"
       patternUnits="userSpaceOnUse"
       width="6"
       height="6"
       x="0"
       y="0" />
  </defs>
  <sodipodi:namedview
     id="base"
     pagecolor="#ffffff"
     bordercolor="#666666"
     borderopacity="1.0"
     inkscape:pageopacity="0.0"
     inkscape:pageshadow="2"
     inkscape:zoom="0.35"
     inkscape:cx="544.59393"
     inkscape:cy="1499.8443"
     inkscape:document-units="mm"
     inkscape:current-layer="layer1"
     inkscape:document-rotation="0"
     showgrid="false"
     fit-margin-top="0"
     fit-margin-left="0"
     fit-margin-right="0"
     fit-margin-bottom="0"
     inkscape:window-width="1258"
     inkscape:window-height="1040"
     inkscape:window-x="26"
     inkscape:window-y="0"
     inkscape:window-maximized="0" />
  <metadata
     id="metadata1736">
    <rdf:RDF>
      <cc:Work
         rdf:about="">
        <dc:format>image/svg+xml</dc:format>
        <dc:type
           rdf:resource="http://purl.org/dc/dcmitype/StillImage" />
        <dc:title></dc:title>
      </cc:Work>
    </rdf:RDF>
  </metadata>
  <g
     inkscape:label="Capa 1"
     inkscape:groupmode="layer"
     id="layer1"
     transform="translate(38.257143,248.66714)">
    <path
       style="fill:#ffffff;fill-opacity:1;fill-rule:evenodd;stroke:none;stroke-width:0.264583"
       d="M -38.257143,-248.66714 V 62.702857 H 582.54286 V -248.66714 Z"
       id="path2305" />
    <path
       style="fill:#ffffff;fill-opacity:1;fill-rule:evenodd;stroke:none;stroke-width:0.264583"
       d="M 42.57619,-225.38714 V 28.429527 h 481.12 V -225.38714 Z"
       id="path2307" />
    <path
       style="fill:none;stroke:#000000;stroke-width:0.222292px;stroke-linecap:butt;stroke-linejoin:round;stroke-miterlimit:4;stroke-dasharray:none;stroke-opacity:1"
       d="m 42.57619,28.429527 h 481.12"
       id="path2309" />
    <path
       style="fill:#cccccc;fill-opacity:1;fill-rule:nonzero;stroke:none;stroke-width:0.264583"
       d="m 45.789317,-32.478393 v 60.90792 h 3.213123 3.213124 3.192918 3.213126 3.213119 3.21313 3.19292 3.21312 3.21313 3.19291 3.21313 3.21312 3.21313 3.19292 3.21312 3.21313 3.192913 3.21313 3.21312 3.21313 3.19291 3.21313 3.21312 3.19292 3.21312 3.21313 3.21312 3.19292 3.21313 3.21312 3.21313 3.19291 3.21313 3.21312 3.19292 3.21313 3.21312 3.21313 3.19291 3.21313 3.21312 3.19292 3.21312 3.21313 3.21312 3.19292 3.21312 3.21313 3.19292 3.21312 3.21313 3.21312 3.19292 3.21312 3.21313 3.21312 3.19291 3.21312 3.21313 3.19291 3.21313 3.21313 3.21312 3.19292 3.21312 3.21313 3.19294 3.2131 3.21312 3.21313 3.19294 3.2131 3.21312 3.19294 3.21313 3.2131 3.21313 3.19294 3.21312 3.2131 3.21313 3.19294 3.21312 3.2131 3.19294 3.21313 3.21313 3.2131 3.19293 3.21313 3.21313 3.19291 3.21313 3.21312 3.21313 3.19291 3.21313 3.21312 3.19292 3.21312 3.21313 3.21313 3.19291 3.21312 3.21313 3.21313 3.19291 3.21313 3.21312 3.19291 3.21313 3.21313 3.21312 3.19292 3.21312 3.21313 3.19291 3.21313 3.21312 3.21313 3.19291 3.21313 3.21313 3.19291 3.21312 3.21313 3.21313 3.19291 3.21313 3.21312 3.21313 3.19291 3.21313 3.21312 3.19292 3.21312 3.21313 3.21313 3.19291 3.21312 3.21313 3.19291 3.21313 v -65.98021 h -3.21313 -3.19291 -3.21313 -3.21312 -3.19291 l -3.21313,-1.27313 h -3.21313 -3.21312 -3.19292 -3.21312 -3.21313 l -3.19291,3.79917 h -3.21313 -3.21312 -3.21313 -3.19291 -3.21313 l -3.21313,8.89167 h -3.21312 -3.19291 -3.21313 -3.21313 -3.19291 l -3.21313,5.07229 h -3.21312 -3.21313 -3.19291 -3.21313 -3.21312 l -3.19292,3.81937 h -3.21312 -3.21313 -3.21313 -3.19291 -3.21312 l -3.21313,2.52605 h -3.19291 -3.21313 -3.21313 -3.21312 -3.19291 -3.21313 -3.21313 -3.21312 -3.19292 -3.21312 -3.21313 l -3.19291,-1.27313 h -3.21313 -3.21312 -3.21313 -3.19291 -3.21313 -3.21313 -3.19293 -3.2131 -3.21313 -3.21313 -3.19294 -3.2131 -3.21312 -3.19294 -3.21313 -3.2131 -3.21312 l -3.19294,-1.25292 h -3.21313 -3.2131 -3.21313 -3.19294 -3.21312 l -3.2131,-1.27312 h -3.19294 -3.21313 -3.21312 -3.2131 -3.19294 l -3.21313,-2.54625 h -3.21312 -3.19292 -3.21312 -3.21313 -3.21313 l -3.19291,-5.07229 h -3.21313 -3.21312 -3.19291 -3.21312 -3.21313 l -3.21312,-6.34542 h -3.19292 -3.21312 -3.21313 -3.21312 -3.19292 l -3.21313,3.79917 h -3.21312 -3.19292 -3.21312 -3.21313 -3.21312 l -3.19292,3.81937 h -3.21312 -3.21313 -3.19291 -3.21313 -3.21312 l -3.21313,1.27313 h -3.19292 -3.21312 -3.21313 -3.19291 -3.21313 l -3.21312,-1.27313 h -3.21313 -3.19292 -3.21312 -3.21313 -3.21312 -3.19292 -3.21312 -3.21313 -3.19291 -3.21313 -3.21312 l -3.21313,-2.54625 h -3.192913 -3.21313 -3.21312 -3.19292 -3.21313 l -3.21312,-3.79916 h -3.21313 -3.19291 -3.21313 -3.21312 -3.19292 l -3.21313,-1.27313 H 58.621608 55.408482 52.215564 49.00244 Z"
       id="path2311" />
    <path
       style="fill:#000000;fill-opacity:1;fill-rule:nonzero;stroke:none;stroke-width:0.264583"
       d="m 52.255982,-31.831723 h 2.586667 v -1.29334 h -2.586667 z m 3.880001,0 h 2.485625 2.687706 v -1.29334 h -2.687706 -2.485625 z m 6.183744,0.2425 2.4048,0.94979 0.46479,-1.19229 -2.40479,-0.97 z m 3.92042,1.03062 h 2.00063 3.17271 v -1.29333 h -3.17271 -2.00063 z m 6.46667,0 h 1.96021 0.62646 v -1.29333 h -0.62646 -1.96021 z m 3.88,0 h 1.27312 3.21313 v -0.64666 l -0.485,0.42437 0.44458,0.52542 0.97,-0.84875 -0.42437,-0.52542 -0.50521,-0.22229 h -3.21313 -1.27312 z m 5.27437,1.27313 1.65709,1.98041 0.9902,-0.82854 -1.65708,-1.98041 z m 3.29396,2.52604 h 2.34417 2.82916 v -1.29334 h -2.82916 -2.34417 z m 6.46667,0 h 2.28354 0.30312 v -1.29334 h -0.30312 -2.28354 z m 3.88,0 h 1.61667 3.192913 v -0.64667 l -0.383963,0.50521 0.282923,0.2425 0.78812,-1.03063 -0.28291,-0.22229 -0.40417,-0.14146 h -3.192913 -1.61667 z m 5.718963,0.88917 1.89958,1.51562 0.40417,0.14146 h 0.16166 v -1.29334 h -0.16166 v 0.64667 l 0.40416,-0.50521 -1.89958,-1.51562 z m 3.75875,1.65708 h 1.75812 3.21313 0.20208 v -1.29334 h -0.20208 -3.21313 -1.75812 z m 6.46666,0 h 1.6975 0.88917 v -1.29334 h -0.88917 -1.6975 z m 3.88,0 h 1.03063 3.21312 0.92959 v -1.29334 h -0.92959 -3.21312 -1.03063 z m 6.46667,0 h 0.97 1.61667 v -1.29334 h -1.61667 -0.97 z m 3.88,0 h 0.30312 3.21313 1.65708 v -1.29334 h -1.65708 -3.21313 -0.30312 z m 6.46667,0 h 0.2627 2.32396 v -1.29334 h -2.32396 -0.2627 z m 3.88,0 h 2.78875 v -0.64667 l -0.2425,0.60625 2.22291,0.86896 0.46479,-1.2125 -2.2027,-0.86896 -0.2425,-0.0404 h -2.78875 z m 6.22416,1.27312 h 2.58667 v -1.29333 h -2.58667 z m 3.88,0 h 2.30375 2.86959 v -1.29333 h -2.86959 -2.30375 z m 6.46667,0 h 2.26333 0.32334 v -1.29333 h -0.32334 -2.26333 z m 3.88,0 h 1.57625 l 0.2425,-0.0606 3.21312,-1.25292 -0.24249,-0.60625 v 0.64667 h 0.14145 v -1.29334 h -0.14145 l -0.24251,0.0404 -3.19291,1.27313 0.22229,0.60625 v -0.64667 h -1.57625 z m 6.22417,-1.27312 h 1.77833 0.80833 v -1.29334 h -0.80833 -1.77833 z m 3.88,0 h 1.11146 3.19291 0.86896 v -1.29334 h -0.86896 -3.19291 -1.11146 z m 6.46666,0 h 1.05084 1.53583 v -1.29334 h -1.53583 -1.05084 z m 3.88,0 h 0.38396 l 0.485,-0.22229 3.09188,-3.67792 -0.99021,-0.82854 -3.09188,3.65771 0.50521,0.42437 v -0.64667 h -0.38396 z m 4.68834,-3.81938 h 2.10166 0.485 v -1.29333 h -0.485 -2.10166 z m 3.88,0 h 1.43479 3.21312 0.52542 v -1.29333 h -0.52542 -3.21312 -1.43479 z m 6.46666,0 h 1.37417 1.2125 v -1.29333 h -1.2125 -1.37417 z m 3.88,0 h 0.70729 l 0.485,-0.22229 2.8898,-3.41521 -0.99021,-0.82854 -2.86959,3.41521 0.485,0.40417 v -0.64667 h -0.70729 z m 4.68834,-3.79916 h 2.425 0.16166 v -1.29334 h -0.16166 -2.425 z m 3.88,0 h 1.75812 3.21313 0.20208 v -1.29334 h -0.20208 -3.21313 -1.75812 z m 6.46666,0 h 1.71771 0.86896 v -1.29334 h -0.86896 -1.71771 z m 3.88,0 h 1.03063 v -0.64667 l -0.56584,0.30313 1.85917,3.67791 1.15188,-0.58604 -1.85917,-3.67792 -0.58604,-0.36375 h -1.03063 z m 2.91,4.48625 0.76792,1.51562 0.56583,0.34354 h 0.90938 v -1.29333 h -0.90938 v 0.64667 l 0.58605,-0.28292 -0.76792,-1.49542 z m 3.53646,1.85916 h 1.01042 3.21312 0.9498 v -1.29333 h -0.9498 -3.21312 -1.01042 z m 6.46667,0 h 0.94978 1.6369 v -1.29333 h -1.6369 -0.94978 z m 3.87999,0 h 0.28291 3.21313 v -0.64666 l -0.54562,0.34354 0.88918,1.43479 1.09125,-0.70729 -0.88919,-1.41459 -0.54562,-0.30312 h -3.21313 -0.28291 z m 4.52667,2.22292 1.39438,2.1825 1.09125,-0.68708 -1.39438,-2.1825 z m 3.03125,2.84938 h 2.34416 2.82919 v -1.29334 h -2.82919 -2.34416 z m 6.46666,0 h 2.30375 0.28292 v -1.29334 h -0.28292 -2.30375 z m 3.88001,0 h 1.61666 3.21312 v -0.64667 l -0.40415,0.50521 0.26271,0.22229 0.80832,-1.01042 -0.2627,-0.22229 -0.40418,-0.14146 h -3.21312 -1.61666 z m 5.69875,0.86895 1.94001,1.53584 0.40415,0.14146 h 0.12126 v -1.29334 h -0.12126 v 0.64667 l 0.40418,-0.50521 -1.94001,-1.53583 z m 3.75875,1.6773 h 1.77835 3.2131 0.1819 v -1.29334 h -0.1819 -3.2131 -1.77835 z m 6.46666,0 h 1.73791 0.84876 v -1.29334 h -0.84876 -1.73791 z m 3.88001,0 h 1.07103 3.19294 v -0.64667 l -0.2223,0.60625 0.82854,0.32333 0.48501,-1.19229 -0.84876,-0.34354 -0.24249,-0.0404 h -3.19294 -1.07103 z m 6.08271,0.76791 1.15187,0.44459 0.24249,0.0606 h 1.33376 v -1.29333 h -1.33376 v 0.64666 l 0.24252,-0.60625 -1.17208,-0.46479 z m 4.02146,0.50521 h 0.58602 3.19294 1.39436 v -1.29333 h -1.39436 -3.19294 -0.58602 z m 6.46665,0 h 0.52544 2.06124 v -1.29333 h -2.06124 -0.52544 z m 3.88001,0 h 3.07166 v -0.64667 l -0.24249,0.58605 1.96021,0.78812 0.48499,-1.2125 -1.98041,-0.76792 -0.2223,-0.0404 h -3.07166 z m 5.98168,1.19229 0.0606,0.0202 0.22231,0.0404 h 2.54624 v -1.29334 h -2.54624 v 0.64667 l 0.24249,-0.58604 -0.0404,-0.0202 z m 4.1225,0.0606 h 2.58664 2.58667 v -1.29334 h -2.58667 -2.58664 z m 6.46665,0 h 2.52606 0.0606 v -1.29334 h -0.0606 -2.52606 z m 3.88001,0 h 1.85917 3.2131 0.10105 v -1.29334 h -0.10105 -3.2131 -1.85917 z m 6.46665,0 h 1.79856 0.78812 v -1.29334 h -0.78812 -1.79856 z m 3.88001,0 h 1.13168 3.21313 0.82854 v -1.29334 h -0.82854 -3.21313 -1.13168 z m 6.46666,0 h 1.09125 1.49542 v -1.29334 h -1.49542 -1.09125 z m 3.88001,0 h 0.40417 3.21313 1.55604 v -1.29334 h -1.55604 -3.21313 -0.40417 z m 6.46668,0 h 0.36375 2.22289 v -1.29334 h -2.22289 -0.36375 z m 3.87998,0 h 2.88981 2.28353 v -1.29334 h -2.28353 -2.88981 z m 6.46668,0 h 2.58665 v -1.29334 h -2.58665 z m 3.57688,0.34354 2.24311,0.88917 0.2223,0.0404 h 2.76855 v -1.29333 h -2.76855 v 0.64667 l 0.24249,-0.58605 -2.24311,-0.88916 z m 6.52727,0.92958 h 2.36439 0.22228 v -1.29333 h -0.22228 -2.36439 z m 3.88001,0 h 1.6773 3.21312 0.28292 v -1.29333 h -0.28292 -3.21312 -1.6773 z m 6.46668,0 h 1.63687 0.94977 v -1.29333 h -0.94977 -1.63687 z m 3.87998,0 h 0.97002 3.19291 1.01041 v -1.29333 h -1.01041 -3.19291 -0.97002 z m 6.46668,0 h 0.90937 1.67728 v -1.29333 h -1.67728 -0.90937 z m 3.87998,0 h 0.24252 3.21313 1.7177 v -1.29333 h -1.7177 -3.21313 -0.24252 z m 6.46668,0 h 0.18188 l 0.40415,-0.14146 1.87939,-1.4752 -0.78814,-1.03063 -1.89958,1.49542 0.40418,0.50521 v -0.64667 h -0.18188 z m 3.49605,-2.425 0.30311,-0.2425 -0.40415,-0.50521 v 0.64667 h 3.21312 1.55604 v -1.29333 h -1.55604 -3.21312 l -0.40418,0.14146 -0.30313,0.24249 z m 5.96146,-0.10104 h 0.34353 2.24312 v -1.29333 h -2.24312 -0.34353 z m 3.87998,0 h 2.88981 2.28354 v -1.29333 h -2.28354 -2.88981 z m 6.83043,-0.52542 1.67728,-1.98041 -0.99021,-0.82854 -1.67727,1.98041 z m 2.50582,-2.97062 0.46479,-0.54563 -0.50519,-0.42437 v 0.64667 h 3.21312 1.25291 v -1.29334 h -1.25291 -3.21312 l -0.48501,0.2425 -0.4648,0.54563 z m 5.71897,-0.32333 h 0.66688 1.91979 v -1.29334 h -1.91979 -0.66688 z m 3.88001,0 h 3.19291 1.9804 v -1.29334 h -1.9804 -3.19291 z m 6.97187,-0.34355 1.39436,-2.1825 -1.09125,-0.68708 -1.39436,2.1825 z m 2.08145,-3.27375 1.11146,-1.75812 -0.54562,-0.34354 v 0.64666 h 3.09187 v -1.29333 h -3.09187 l -0.54562,0.30312 -1.11146,1.73792 z m 4.95104,-1.455 h 2.02084 0.56584 v -1.29333 h -0.56584 -2.02084 z m 3.88001,0 h 1.35396 3.19291 0.62645 v -1.29333 h -0.62645 -3.19291 -1.35396 z m 6.46666,0 h 1.29333 l 0.60624,-0.42437 0.44458,-1.2125 -1.21248,-0.44459 -0.4446,1.21251 0.60626,0.22229 v -0.64667 h -1.29333 z m 2.78876,-2.86958 1.7581,-4.85 -1.21248,-0.44458 -1.75813,4.8702 z m 2.18249,-6.08271 0.14145,-0.36375 -0.60624,-0.22229 v 0.64667 h 2.20271 v -1.29334 h -2.20271 l -0.60627,0.44459 -0.14144,0.36375 z m 3.03126,0.0606 h 2.90999 2.26333 v -1.29334 h -2.26333 -2.90999 z m 6.46665,0 h 2.58667 v -1.29334 h -2.58667 z m 3.88001,0 h 2.20271 l 0.48498,-0.2223 1.91982,-2.26333 -0.99023,-0.84875 -1.91979,2.28354 0.50522,0.40417 v -0.64667 h -2.20271 z m 5.43602,-3.47584 0.4648,-0.54562 -0.5052,-0.42438 v 0.64673 h 1.87936 v -1.29333 h -1.87936 l -0.48501,0.22229 -0.46479,0.54562 z m 3.1323,-0.32333 h 0.0404 3.21312 1.91979 v -1.29333 h -1.91979 -3.21312 -0.0404 z m 6.46668,0 h 2.58667 v -1.29333 h -2.58667 z m 3.87998,0 h 2.52606 v -0.64667 l -0.24249,0.60625 2.46541,0.97 0.4648,-1.19229 -2.44523,-0.99021 -0.24249,-0.0404 h -2.52606 z m 6.22419,1.27313 h 2.58665 v -1.29334 h -2.58665 z m 3.87999,0 h 2.04104 3.1323 v -1.29334 h -3.1323 -2.04104 z m 6.46668,0 h 1.9804 0.60624 v -1.29334 h -0.60624 -1.9804 z m 3.87998,0 h 1.31355 v -1.29334 h -1.31355 z m -457.354993,5.07229 h 3.213123 1.960208 v -1.29334 H 49.00244 45.789317 Z"
       id="path2313" />
    <path
       style="fill:#ffffff;fill-opacity:1;fill-rule:nonzero;stroke:none;stroke-width:0.264583"
       d="m 180.49807,28.429527 h 3.21312 3.21313 3.21312 3.19292 3.21312 3.21313 3.19292 3.21312 3.21313 3.21312 3.19292 3.21312 3.21313 3.21312 3.19291 3.21312 3.21313 3.19291 3.21313 3.21313 3.21312 3.19292 3.21312 3.21313 3.19294 3.2131 3.21312 3.21313 3.19294 3.2131 3.21312 3.19294 3.21313 3.2131 3.21313 3.19294 3.21312 3.2131 3.21313 3.19294 3.21312 3.2131 3.19294 3.21313 3.21313 3.2131 3.19293 3.21313 3.21313 3.19291 3.21313 3.21312 3.21313 3.19291 3.21313 3.21312 3.19292 3.21312 l -3.21312,-43.99354 -3.19292,-10.56896 -3.21312,-10.75084 -3.21313,-10.87208 -3.19291,-10.85187 -3.21313,-10.79125 -3.21312,-10.6498 -3.21313,-10.4477 -3.19291,-10.184997 -3.21313,-9.88188 -3.21313,-9.53833 -3.19293,-9.15438 -3.2131,-8.73 -3.21313,-8.30562 -3.21313,-7.84084 -3.19294,-7.35583 -3.2131,-6.85063 -3.21312,-6.34541 -3.19294,-5.82001 -3.21313,-5.29458 -3.2131,-4.76917 -3.21312,-4.22354 -3.19294,-3.6577 -3.21313,-3.1323 -3.2131,-2.58666 -3.21313,-2.02083 -3.19294,-1.47521 -3.21312,-0.90938 -3.2131,-0.36375 -3.19294,0.18188 -3.21313,0.7477 -3.21312,1.31355 -3.2131,1.87937 -3.19294,2.425 -3.21313,2.99083 -3.21312,3.55667 -3.19292,4.1225 -3.21312,4.66813 -3.21313,5.21375 -3.21313,5.77958 -3.19291,6.305 -3.21313,6.83041 -3.21312,7.33563 -3.19291,7.84084 -3.21312,8.32583 -3.21313,8.77042 -3.21312,9.19479 -3.19292,9.59896 -3.21312,9.9425 -3.21313,10.265827 -3.21312,10.52854 -3.19292,10.73063 -3.21313,10.89229 -3.21312,10.97312 -3.19292,10.97313 -3.21312,10.87208 -3.21313,10.64979 z"
       id="path2315" />
    <path
       style="fill:none;stroke:#000000;stroke-width:1.29333px;stroke-linecap:butt;stroke-linejoin:round;stroke-miterlimit:4;stroke-dasharray:none;stroke-opacity:1"
       d="m 45.789317,28.429527 h 3.213123 3.213124 3.192918 3.213126 3.213119 3.21313 3.19292 3.21312 3.21313 3.19291 3.21313 3.21312 3.21313 3.19292 3.21312 3.21313 3.192913 3.21313 3.21312 3.21313 3.19291 3.21313 3.21312 3.19292 3.21312 3.21313 3.21312 3.19292 3.21313 3.21312 3.21313 3.19291 3.21313 3.21312 3.19292 3.21313 3.21312 3.21313 3.19291 3.21313 3.21312 3.19292 l 3.21312,-44.45834 3.21313,-10.64979 3.21312,-10.87208 3.19292,-10.97313 3.21312,-10.97312 3.21313,-10.89229 3.19292,-10.73063 3.21312,-10.52854 3.21313,-10.265827 3.21312,-9.9425 3.19292,-9.59896 3.21312,-9.19479 3.21313,-8.77042 3.21312,-8.32583 3.19291,-7.84084 3.21312,-7.33563 3.21313,-6.83041 3.19291,-6.305 3.21313,-5.77958 3.21313,-5.21375 3.21312,-4.66813 3.19292,-4.1225 3.21312,-3.55667 3.21313,-2.99083 3.19294,-2.425 3.2131,-1.87937 3.21312,-1.31355 3.21313,-0.7477 3.19294,-0.18188 3.2131,0.36375 3.21312,0.90938 3.19294,1.47521 3.21313,2.02083 3.2131,2.58666 3.21313,3.1323 3.19294,3.6577 3.21312,4.22354 3.2131,4.76917 3.21313,5.29458 3.19294,5.82001 3.21312,6.34541 3.2131,6.85063 3.19294,7.35583 3.21313,7.84084 3.21313,8.30562 3.2131,8.73 3.19293,9.15438 3.21313,9.53833 3.21313,9.88188 3.19291,10.184997 3.21313,10.4477 3.21312,10.6498 3.21313,10.79125 3.19291,10.85187 3.21313,10.87208 3.21312,10.75084 3.19292,10.56896 3.21312,43.99354 h 3.21313 3.21313 3.19291 3.21312 3.21313 3.21313 3.19291 3.21313 3.21312 3.19291 3.21313 3.21313 3.21312 3.19292 3.21312 3.21313 3.19291 3.21313 3.21312 3.21313 3.19291 3.21313 3.21313 3.19291 3.21312 3.21313 3.21313 3.19291 3.21313 3.21312 3.21313 3.19291 3.21313 3.21312 3.19292 3.21312 3.21313 3.21313 3.19291 3.21312 3.21313 3.19291 3.21313"
       id="path2317" />
    <path
       style="fill:#808080;fill-opacity:1;fill-rule:nonzero;stroke:none;stroke-width:0.264583"
       d="m 180.49807,28.429527 h 3.21312 3.21313 3.21312 3.19292 3.21312 3.21313 3.19292 3.21312 3.21313 3.21312 3.19292 3.21312 3.21313 3.21312 3.19291 3.21312 3.21313 3.19291 3.21313 3.21313 3.21312 3.19292 3.21312 3.21313 3.19294 3.2131 3.21312 3.21313 3.19294 3.2131 3.21312 3.19294 3.21313 3.2131 3.21313 3.19294 3.21312 3.2131 3.21313 3.19294 3.21312 3.2131 3.19294 3.21313 3.21313 3.2131 3.19293 3.21313 3.21313 3.19291 3.21313 3.21312 3.21313 3.19291 3.21313 3.21312 3.19292 3.21312 l -3.21312,-43.14479 h -3.19292 -3.21312 -3.21313 l -3.19291,-1.27313 h -3.21313 -3.21312 -3.21313 -3.19291 -3.21313 -3.21313 -3.19293 -3.2131 -3.21313 -3.21313 -3.19294 -3.2131 -3.21312 -3.19294 -3.21313 -3.2131 -3.21312 l -3.19294,-1.25292 h -3.21313 -3.2131 -3.21313 -3.19294 -3.21312 l -3.2131,-1.27312 h -3.19294 -3.21313 -3.21312 -3.2131 -3.19294 l -3.21313,-2.54625 h -3.21312 -3.19292 -3.21312 -3.21313 -3.21313 l -3.19291,-5.07229 h -3.21313 -3.21312 -3.19291 -3.21312 -3.21313 l -3.21312,-6.34542 h -3.19292 -3.21312 -3.21313 -3.21312 -3.19292 l -3.21313,3.79917 h -3.21312 -3.19292 l -3.21312,2.00062 -3.21313,10.64979 z"
       id="path2319" />
    <path
       style="fill:#000000;fill-opacity:1;fill-rule:nonzero;stroke:none;stroke-width:0.264583"
       d="m 52.255982,29.076197 h 2.586667 v -1.29334 h -2.586667 z m 3.880001,0 h 2.485625 2.687706 v -1.29334 h -2.687706 -2.485625 z m 6.466664,0 h 2.44521 0.14146 v -1.29334 h -0.14146 -2.44521 z m 3.88,0 h 1.75813 3.21312 0.20209 v -1.29334 h -0.20209 -3.21312 -1.75813 z m 6.46667,0 h 1.71771 0.86895 v -1.29334 h -0.86895 -1.71771 z m 3.88,0 h 1.03062 3.21313 0.92958 v -1.29334 h -0.92958 -3.21313 -1.03062 z m 6.46667,0 h 0.9902 1.59646 v -1.29334 h -1.59646 -0.9902 z m 3.87999,0 h 0.32334 3.19292 1.65708 v -1.29334 h -1.65708 -3.19292 -0.32334 z m 6.46667,0 h 0.26271 2.32396 v -1.29334 h -2.32396 -0.26271 z m 3.88,0 h 2.788753 2.38458 v -1.29334 h -2.38458 -2.788753 z m 6.466673,0 h 2.58667 v -1.29334 h -2.58667 z m 3.88,0 h 2.08146 3.09187 v -1.29334 h -3.09187 -2.08146 z m 6.46666,0 h 2.02084 0.56583 v -1.29334 h -0.56583 -2.02084 z m 3.88001,0 h 1.35395 3.19292 0.62646 v -1.29334 h -0.62646 -3.19292 -1.35395 z m 6.46666,0 h 1.29333 1.29334 v -1.29334 h -1.29334 -1.29333 z m 3.88,0 h 0.62646 3.21312 1.33376 v -1.29334 h -1.33376 -3.21312 -0.62646 z m 6.46667,0 h 0.56583 2.02083 v -1.29334 h -2.02083 -0.56583 z m 3.88,0 h 3.11208 2.06125 v -1.29334 h -2.06125 -3.11208 z m 6.46667,0 h 2.58666 v -1.29334 h -2.58666 z m 3.87999,0 h 2.38459 2.78875 v -1.29334 h -2.78875 -2.38459 z m 6.46667,0 h 2.32396 0.26271 v -1.29334 h -0.26271 -2.32396 z m 3.88,0 h 1.65709 3.21312 0.30312 v -1.29334 h -0.30312 -3.21312 -1.65709 z m 6.46667,0 h 1.61667 0.97 v -1.29334 h -0.97 -1.61667 z m 3.88,0 h 0.92958 3.21313 1.03062 v -1.29334 h -1.03062 -3.21313 -0.92958 z m 6.46666,0 h 0.88917 1.6975 v -1.29334 h -1.6975 -0.88917 z m 3.88001,0 h 0.20208 l 0.64666,-0.58605 0.36376,-4.95105 -1.29334,-0.10104 -0.34354,4.95104 0.62646,0.0404 v -0.64664 h -0.20208 z m 1.31354,-6.83043 0.18187,-2.58665 -1.29333,-0.0809 -0.18188,2.56646 z m 0.26271,-3.87998 0.38395,-5.15314 -1.29333,-0.10104 -0.36375,5.17334 z m 0.46479,-6.44647 0.20208,-2.5866699 -1.29333,-0.0808 -0.18188,2.5866699 z m 0.28291,-3.8597899 0.38396,-5.17334 -1.29333,-0.0808 -0.38396,5.15312 z m 0.4648,-6.46667 0.20208,-2.56645996 -1.29333,-0.10104004 -0.20209,2.58667 z m 0.28291,-3.85979 0.38396,-5.15313 -1.29333,-0.10104 -0.38396,5.15313 z m 0.46479,-6.44646 0.18188,-2.5866701 -1.27313,-0.0808 -0.20208,2.5664601 z m 0.28292,-3.8800001 0.2425,-3.37479 -0.64667,-0.0606 0.62646,0.18188 0.50521,-1.6975 -1.23271,-0.36375 -0.52541,1.6975 -0.0202,0.14146 -0.2425,3.395 z m 1.11146,-6.18375 0.7275,-2.48563 -1.23271,-0.36374 -0.74771,2.48562 z m 1.11146,-3.71833 1.2125,-4.00125 -0.62646,-0.18188 0.34354,0.54563 0.82854,-0.52542 -0.66687,-1.09125 -0.84875,0.52542 -0.28292,0.36375 -1.19229,4.00125 z m 2.86958,-4.85 1.25292,-0.76792 -0.32334,-0.56583 v 0.64666 h 1.09125 v -1.29333 h -1.09125 l -0.34354,0.10104 -1.27312,0.78813 z m 3.31417,-0.68709 h 0.80833 3.21312 l 0.485,-0.22229 0.74771,-0.88917 -0.9902,-0.82854 -0.72751,0.88917 0.485,0.40417 v -0.64667 h -3.21312 -0.80833 z m 6.0827,-2.08145 1.63688,-1.94 -0.485,-0.42438 v 0.64667 h 0.0404 v -1.29334 h -0.0404 l -0.50521,0.22229 -1.61667,1.94001 z m 2.48563,-1.71771 h 1.85917 3.21312 0.10104 v -1.29334 h -0.10104 -3.21312 -1.85917 z m 6.46667,0 h 1.81875 0.76791 v -1.29334 h -0.76791 -1.81875 z m 3.88,0 h 1.15187 3.19292 v -0.64667 l -0.56584,0.30313 0.36375,0.72749 1.15188,-0.58604 -0.36375,-0.7275 -0.58604,-0.36375 h -3.19292 -1.15187 z m 4.72875,1.53583 1.17208,2.30375 1.15188,-0.56583 -1.17209,-2.32396 z m 1.75812,3.47583 0.50521,0.99021 0.56583,0.34354 h 3.21313 0.84875 v -1.29333 h -0.84875 -3.21313 v 0.64667 l 0.58605,-0.28292 -0.50521,-0.99021 z m 6.42625,1.33375 h 1.07104 1.51564 v -1.29333 h -1.51564 -1.07104 z m 3.88001,0 h 0.38394 3.21312 1.57626 v -1.29333 h -1.57626 -3.21312 -0.38394 z m 6.46666,0 h 0.34353 v -0.64666 l -0.54562,0.34354 1.19229,1.89958 1.09125,-0.68708 -1.1923,-1.89959 -0.54562,-0.30312 h -0.34353 z m 1.6773,2.70792 1.31352,2.06125 0.54562,0.30313 h 2.72815 v -1.29334 h -2.72815 v 0.64667 l 0.54565,-0.34354 -1.29333,-2.08146 z m 5.88062,2.36438 h 2.40478 0.18187 v -1.29334 h -0.18187 -2.40478 z m 3.87999,0 h 1.73791 3.19292 0.24251 v -1.29334 h -0.24251 -3.19292 -1.73791 z m 6.46668,0 h 1.67727 v -0.64667 l -0.40415,0.50521 0.70728,0.56583 0.80833,-1.01042 -0.70728,-0.56583 -0.40418,-0.14146 h -1.67727 z m 3.01104,1.2327 1.47521,1.17209 0.40415,0.14146 h 3.19294 0.0808 v -1.29334 h -0.0808 -3.19294 v 0.64667 l 0.40418,-0.50521 -1.49543,-1.17208 z m 6.44646,1.31355 h 1.83894 0.74771 v -1.29334 h -0.74771 -1.83894 z m 3.87999,0 h 1.17207 3.21313 0.78814 v -1.29334 h -0.78814 -3.21313 -1.17207 z m 6.46668,0 h 1.11146 v -0.64667 l -0.2223,0.60625 1.35395,0.52542 0.48501,-1.1923 -1.37417,-0.54562 -0.24249,-0.0404 h -1.11146 z m 3.45561,0.96999 0.62646,0.24251 0.24249,0.0606 h 3.21312 1.27315 v -1.29333 h -1.27315 -3.21312 v 0.64666 l 0.24252,-0.60625 -0.64667,-0.2425 z m 6.64853,0.30313 h 0.62648 1.9602 v -1.29333 h -1.9602 -0.62648 z m 3.88001,0 h 3.1727 2.00065 v -1.29333 h -2.00065 -3.1727 z m 6.22417,-0.0202 2.40479,0.94979 0.48501,-1.19229 -2.4048,-0.94979 z m 3.88,1.27313 h 2.68772 2.4856 v -1.29334 h -2.4856 -2.68772 z m 6.46666,0 h 2.58667 v -1.29334 h -2.58667 z m 3.88001,0 h 1.96022 3.21312 v -1.29334 h -3.21312 -1.96022 z m 6.46665,0 h 1.91979 0.66689 v -1.29334 h -0.66689 -1.91979 z m 3.88001,0 h 1.23272 3.21313 0.7275 v -1.29334 h -0.7275 -3.21313 -1.23272 z m 6.46668,0 h 1.1923 1.39435 v -1.29334 h -1.39435 -1.1923 z m 3.87999,0 h 0.52541 3.19293 1.455 v -1.29334 h -1.455 -3.19293 -0.52541 z m 6.46668,0 h 0.46479 2.12185 v -1.29334 h -2.12185 -0.46479 z m 3.87998,0 h 2.99085 2.18249 v -1.29334 h -2.18249 -2.99085 z m 6.46668,0 h 2.58667 v -1.29334 h -2.58667 z m 3.87998,0 h 2.28357 v -0.64667 l -0.24252,0.60625 2.68772,1.07104 0.48501,-1.19229 -2.70794,-1.07104 -0.22227,-0.0606 h -2.28357 z m 6.22419,1.27312 h 2.46542 0.12123 v -1.29333 h -0.12123 -2.46542 z m 3.87999,0 h 1.79855 3.19292 v -0.64666 l -0.62646,0.0606 v 0.16167 l 1.29331,-0.0808 -0.0202,-0.18187 -0.64666,-0.60625 h -3.19292 -1.79855 z m 4.46606,0.86896 0.18187,2.58667 1.29331,-0.10105 -0.18187,-2.56645 z m 0.28289,3.8800001 0.38396,5.15312 1.29334,-0.10104 -0.38396,-5.15312 z m 0.48501,6.44646 0.18187,2.56646004 1.29334,-0.0808 -0.18188,-2.58666004 z m 0.28292,3.85979004 0.38396,5.17332996 1.29334,-0.10104 -0.38397,-5.15311996 z m 0.485,6.44645996 0.18188,2.5866599 1.29333,-0.1010399 -0.18187,-2.56646 z m 0.28292,3.8799999 0.38394,5.15311 1.29334,-0.0808 -0.38394,-5.17332 z m 0.48498,6.44645 0.18188,2.58667 1.29333,-0.10104 -0.18187,-2.58668 z m 0.28292,3.88001 0.38397,5.15313 1.29333,-0.10105 -0.38396,-5.15313 z m 0.48501,6.44646 0.0202,0.40416 0.64667,0.58605 h 2.1825 v -1.29335 h -2.1825 v 0.64667 l 0.64667,-0.0404 -0.0202,-0.40415 z m 4.14271,0.99021 h 2.95043 2.22289 v -1.29335 h -2.22289 -2.95043 z m 6.46666,0 h 2.58667 v -1.29335 h -2.58667 z m 3.88001,0 h 2.22292 2.9504 v -1.29335 h -2.9504 -2.22292 z m 6.46665,0 h 2.16231 0.42436 v -1.29335 h -0.42436 -2.16231 z m 3.88001,0 h 1.49543 3.21312 0.4648 v -1.29335 h -0.4648 -3.21312 -1.49543 z m 6.46666,0 h 1.4348 1.15187 v -1.29335 h -1.15187 -1.4348 z m 3.88,0 h 0.76793 3.21313 1.19229 v -1.29335 h -1.19229 -3.21313 -0.76793 z m 6.46669,0 h 0.72749 1.85915 v -1.29335 h -1.85915 -0.72749 z m 3.87998,0 h 0.0404 3.21312 1.91979 v -1.29335 h -1.91979 -3.21312 -0.0404 z m 6.46668,0 h 2.58665 v -1.29335 h -2.58665 z m 3.87998,0 h 2.52606 2.64729 v -1.29335 h -2.64729 -2.52606 z m 6.46668,0 h 2.48563 0.10105 v -1.29335 h -0.10105 -2.48563 z m 3.88001,0 h 1.79853 3.21313 0.16166 v -1.29335 h -0.16166 -3.21313 -1.79853 z m 6.46666,0 h 1.75813 0.82854 v -1.29335 h -0.82854 -1.75813 z m 3.88,0 h 1.07104 3.21312 0.88916 v -1.29335 h -0.88916 -3.21312 -1.07104 z m 6.46666,0 h 1.03063 1.55604 v -1.29335 h -1.55604 -1.03063 z m 3.88001,0 h 0.36375 3.19291 1.61666 v -1.29335 h -1.61666 -3.19291 -0.36375 z m 6.46665,0 h 0.30314 2.28354 v -1.29335 h -2.28354 -0.30314 z m 3.88001,0 h 2.84938 2.32394 v -1.29335 h -2.32394 -2.84938 z m 6.46666,0 h 2.58667 v -1.29335 h -2.58667 z m 3.88001,0 h 2.12187 3.05147 v -1.29335 h -3.05147 -2.12187 z m 6.46665,0 h 2.06126 0.52541 v -1.29335 h -0.52541 -2.06126 z m 3.88001,0 h 1.39438 3.21313 0.56583 v -1.29335 h -0.56583 -3.21313 -1.39438 z m 6.46668,0 h 1.33374 1.25291 v -1.29335 h -1.25291 -1.33374 z m 3.87998,0 h 0.66688 3.21313 1.29334 v -1.29335 h -1.29334 -3.21313 -0.66688 z m 6.46668,0 h 0.60624 1.98041 v -1.29335 h -1.98041 -0.60624 z m -454.849173,0 h 3.213123 1.960208 v -1.29335 H 49.00244 45.789317 Z"
       id="path2321" />
    <path
       style="fill:none;stroke:#000000;stroke-width:0.222292px;stroke-linecap:butt;stroke-linejoin:round;stroke-miterlimit:4;stroke-dasharray:none;stroke-opacity:1"
       d="m 42.57619,28.429527 h 481.12"
       id="path2323" />
    <path
       style="fill:none;stroke:#000000;stroke-width:0.222292px;stroke-linecap:butt;stroke-linejoin:round;stroke-miterlimit:4;stroke-dasharray:none;stroke-opacity:1"
       d="m 42.57619,-225.38714 h 481.12"
       id="path2325" />
    <path
       style="fill:none;stroke:#000000;stroke-width:0.222292px;stroke-linecap:butt;stroke-linejoin:round;stroke-miterlimit:4;stroke-dasharray:none;stroke-opacity:1"
       d="m 42.57619,28.429527 v -4.8096"
       id="path2327" />
    <path
       style="fill:none;stroke:#000000;stroke-width:0.222292px;stroke-linecap:butt;stroke-linejoin:round;stroke-miterlimit:4;stroke-dasharray:none;stroke-opacity:1"
       d="m 138.80828,28.429527 v -4.8096"
       id="path2329" />
    <path
       style="fill:none;stroke:#000000;stroke-width:0.222292px;stroke-linecap:butt;stroke-linejoin:round;stroke-miterlimit:4;stroke-dasharray:none;stroke-opacity:1"
       d="m 235.04035,28.429527 v -4.8096"
       id="path2331" />
    <path
       style="fill:none;stroke:#000000;stroke-width:0.222292px;stroke-linecap:butt;stroke-linejoin:round;stroke-miterlimit:4;stroke-dasharray:none;stroke-opacity:1"
       d="m 331.25224,28.429527 v -4.8096"
       id="path2333" />
    <path
       style="fill:none;stroke:#000000;stroke-width:0.222292px;stroke-linecap:butt;stroke-linejoin:round;stroke-miterlimit:4;stroke-dasharray:none;stroke-opacity:1"
       d="m 427.48432,28.429527 v -4.8096"
       id="path2335" />
    <path
       style="fill:none;stroke:#000000;stroke-width:0.222292px;stroke-linecap:butt;stroke-linejoin:round;stroke-miterlimit:4;stroke-dasharray:none;stroke-opacity:1"
       d="m 523.69619,28.429527 v -4.8096"
       id="path2337" />
    <path
       style="fill:none;stroke:#000000;stroke-width:0.222292px;stroke-linecap:butt;stroke-linejoin:round;stroke-miterlimit:4;stroke-dasharray:none;stroke-opacity:1"
       d="m 42.57619,-225.38714 v 4.82979"
       id="path2339" />
    <path
       style="fill:none;stroke:#000000;stroke-width:0.222292px;stroke-linecap:butt;stroke-linejoin:round;stroke-miterlimit:4;stroke-dasharray:none;stroke-opacity:1"
       d="m 138.80828,-225.38714 v 4.82979"
       id="path2341" />
    <path
       style="fill:none;stroke:#000000;stroke-width:0.222292px;stroke-linecap:butt;stroke-linejoin:round;stroke-miterlimit:4;stroke-dasharray:none;stroke-opacity:1"
       d="m 235.04035,-225.38714 v 4.82979"
       id="path2343" />
    <path
       style="fill:none;stroke:#000000;stroke-width:0.222292px;stroke-linecap:butt;stroke-linejoin:round;stroke-miterlimit:4;stroke-dasharray:none;stroke-opacity:1"
       d="m 331.25224,-225.38714 v 4.82979"
       id="path2345" />
    <path
       style="fill:none;stroke:#000000;stroke-width:0.222292px;stroke-linecap:butt;stroke-linejoin:round;stroke-miterlimit:4;stroke-dasharray:none;stroke-opacity:1"
       d="m 427.48432,-225.38714 v 4.82979"
       id="path2347" />
    <path
       style="fill:none;stroke:#000000;stroke-width:0.222292px;stroke-linecap:butt;stroke-linejoin:round;stroke-miterlimit:4;stroke-dasharray:none;stroke-opacity:1"
       d="m 523.69619,-225.38714 v 4.82979"
       id="path2349" />
    <text
       xml:space="preserve"
       style="font-style:normal;font-variant:normal;font-weight:400;font-size:10.3518px;line-height:125%;font-family:Arial;text-align:start;letter-spacing:0px;word-spacing:0px;text-anchor:start;fill:#000000;fill-opacity:1;stroke:none;stroke-width:0.264583"
       x="39.666191"
       y="41.039524"
       id="text2355"><tspan
         sodipodi:role="line"
         x="39.666191"
         y="41.039524"
         id="tspan2353"
         style="stroke-width:0.264583"><tspan
           dx="0"
           dy="0"
           style="font-style:normal;font-variant:normal;font-weight:400;font-size:10.3518px;font-family:Arial;fill:#000000;stroke-width:0.264583"
           id="tspan2351">0</tspan></tspan></text>
    <text
       xml:space="preserve"
       style="font-style:normal;font-variant:normal;font-weight:400;font-size:10.3518px;line-height:125%;font-family:Arial;text-align:start;letter-spacing:0px;word-spacing:0px;text-anchor:start;fill:#000000;fill-opacity:1;stroke:none;stroke-width:0.264583"
       x="136.01953"
       y="41.039524"
       id="text2361"><tspan
         sodipodi:role="line"
         x="136.01953"
         y="41.039524"
         id="tspan2359"
         style="stroke-width:0.264583"><tspan
           dx="0"
           dy="0"
           style="font-style:normal;font-variant:normal;font-weight:400;font-size:10.3518px;font-family:Arial;fill:#000000;stroke-width:0.264583"
           id="tspan2357">5</tspan></tspan></text>
    <text
       xml:space="preserve"
       style="font-style:normal;font-variant:normal;font-weight:400;font-size:10.3518px;line-height:125%;font-family:Arial;text-align:start;letter-spacing:0px;word-spacing:0px;text-anchor:start;fill:#000000;fill-opacity:1;stroke:none;stroke-width:0.264583"
       x="229.13953"
       y="41.039524"
       id="text2367"><tspan
         sodipodi:role="line"
         x="229.13953"
         y="41.039524"
         id="tspan2365"
         style="stroke-width:0.264583"><tspan
           dx="0"
           dy="0"
           style="font-style:normal;font-variant:normal;font-weight:400;font-size:10.3518px;font-family:Arial;fill:#000000;stroke-width:0.264583"
           id="tspan2363">10</tspan></tspan></text>
    <text
       xml:space="preserve"
       style="font-style:normal;font-variant:normal;font-weight:400;font-size:10.3518px;line-height:125%;font-family:Arial;text-align:start;letter-spacing:0px;word-spacing:0px;text-anchor:start;fill:#000000;fill-opacity:1;stroke:none;stroke-width:0.264583"
       x="325.49286"
       y="41.039524"
       id="text2373"><tspan
         sodipodi:role="line"
         x="325.49286"
         y="41.039524"
         id="tspan2371"
         style="stroke-width:0.264583"><tspan
           dx="0"
           dy="0"
           style="font-style:normal;font-variant:normal;font-weight:400;font-size:10.3518px;font-family:Arial;fill:#000000;stroke-width:0.264583"
           id="tspan2369">15</tspan></tspan></text>
    <text
       xml:space="preserve"
       style="font-style:normal;font-variant:normal;font-weight:400;font-size:10.3518px;line-height:125%;font-family:Arial;text-align:start;letter-spacing:0px;word-spacing:0px;text-anchor:start;fill:#000000;fill-opacity:1;stroke:none;stroke-width:0.264583"
       x="421.52286"
       y="41.039524"
       id="text2379"><tspan
         sodipodi:role="line"
         x="421.52286"
         y="41.039524"
         id="tspan2377"
         style="stroke-width:0.264583"><tspan
           dx="0"
           dy="0"
           style="font-style:normal;font-variant:normal;font-weight:400;font-size:10.3518px;font-family:Arial;fill:#000000;stroke-width:0.264583"
           id="tspan2375">20</tspan></tspan></text>
    <text
       xml:space="preserve"
       style="font-style:normal;font-variant:normal;font-weight:400;font-size:10.3518px;line-height:125%;font-family:Arial;text-align:start;letter-spacing:0px;word-spacing:0px;text-anchor:start;fill:#000000;fill-opacity:1;stroke:none;stroke-width:0.264583"
       x="517.87616"
       y="41.039524"
       id="text2385"><tspan
         sodipodi:role="line"
         x="517.87616"
         y="41.039524"
         id="tspan2383"
         style="stroke-width:0.264583"><tspan
           dx="0"
           dy="0"
           style="font-style:normal;font-variant:normal;font-weight:400;font-size:10.3518px;font-family:Arial;fill:#000000;stroke-width:0.264583"
           id="tspan2381">25</tspan></tspan></text>
    <text
       xml:space="preserve"
       style="font-style:normal;font-variant:normal;font-weight:400;font-size:11.3109px;line-height:125%;font-family:Arial;text-align:start;letter-spacing:0px;word-spacing:0px;text-anchor:start;fill:#000000;fill-opacity:1;stroke:none;stroke-width:0.264583"
       x="271.81952"
       y="54.942844"
       id="text2391"><tspan
         sodipodi:role="line"
         x="271.81952"
         y="54.942844"
         id="tspan2389"
         style="stroke-width:0.264583"><tspan
           dx="0"
           dy="0"
           style="font-style:normal;font-variant:normal;font-weight:400;font-size:11.3109px;font-family:Arial;fill:#000000;stroke-width:0.264583"
           id="tspan2387">Hour</tspan></tspan></text>
    <path
       style="fill:none;stroke:#000000;stroke-width:0.222292px;stroke-linecap:butt;stroke-linejoin:round;stroke-miterlimit:4;stroke-dasharray:none;stroke-opacity:1"
       d="M 42.57619,28.429527 V -225.38714"
       id="path2393" />
    <path
       style="fill:none;stroke:#000000;stroke-width:0.222292px;stroke-linecap:butt;stroke-linejoin:round;stroke-miterlimit:4;stroke-dasharray:none;stroke-opacity:1"
       d="M 523.69619,28.429527 V -225.38714"
       id="path2395" />
    <path
       style="fill:none;stroke:#000000;stroke-width:0.222292px;stroke-linecap:butt;stroke-linejoin:round;stroke-miterlimit:4;stroke-dasharray:none;stroke-opacity:1"
       d="m 42.57619,28.429527 h 4.829792"
       id="path2397" />
    <path
       style="fill:none;stroke:#000000;stroke-width:0.222292px;stroke-linecap:butt;stroke-linejoin:round;stroke-miterlimit:4;stroke-dasharray:none;stroke-opacity:1"
       d="m 42.57619,-3.2975629 h 4.829792"
       id="path2399" />
    <path
       style="fill:none;stroke:#000000;stroke-width:0.222292px;stroke-linecap:butt;stroke-linejoin:round;stroke-miterlimit:4;stroke-dasharray:none;stroke-opacity:1"
       d="m 42.57619,-35.024643 h 4.829792"
       id="path2401" />
    <path
       style="fill:none;stroke:#000000;stroke-width:0.222292px;stroke-linecap:butt;stroke-linejoin:round;stroke-miterlimit:4;stroke-dasharray:none;stroke-opacity:1"
       d="m 42.57619,-66.751723 h 4.829792"
       id="path2403" />
    <path
       style="fill:none;stroke:#000000;stroke-width:0.222292px;stroke-linecap:butt;stroke-linejoin:round;stroke-miterlimit:4;stroke-dasharray:none;stroke-opacity:1"
       d="m 42.57619,-98.478813 h 4.829792"
       id="path2405" />
    <path
       style="fill:none;stroke:#000000;stroke-width:0.222292px;stroke-linecap:butt;stroke-linejoin:round;stroke-miterlimit:4;stroke-dasharray:none;stroke-opacity:1"
       d="m 42.57619,-130.20589 h 4.829792"
       id="path2407" />
    <path
       style="fill:none;stroke:#000000;stroke-width:0.222292px;stroke-linecap:butt;stroke-linejoin:round;stroke-miterlimit:4;stroke-dasharray:none;stroke-opacity:1"
       d="m 42.57619,-161.93298 h 4.829792"
       id="path2409" />
    <path
       style="fill:none;stroke:#000000;stroke-width:0.222292px;stroke-linecap:butt;stroke-linejoin:round;stroke-miterlimit:4;stroke-dasharray:none;stroke-opacity:1"
       d="m 42.57619,-193.66006 h 4.829792"
       id="path2411" />
    <path
       style="fill:none;stroke:#000000;stroke-width:0.222292px;stroke-linecap:butt;stroke-linejoin:round;stroke-miterlimit:4;stroke-dasharray:none;stroke-opacity:1"
       d="m 42.57619,-225.38714 h 4.829792"
       id="path2413" />
    <path
       style="fill:none;stroke:#000000;stroke-width:0.222292px;stroke-linecap:butt;stroke-linejoin:round;stroke-miterlimit:4;stroke-dasharray:none;stroke-opacity:1"
       d="m 523.69619,28.429527 h -4.80957"
       id="path2415" />
    <path
       style="fill:none;stroke:#000000;stroke-width:0.222292px;stroke-linecap:butt;stroke-linejoin:round;stroke-miterlimit:4;stroke-dasharray:none;stroke-opacity:1"
       d="m 523.69619,-3.2975629 h -4.80957"
       id="path2417" />
    <path
       style="fill:none;stroke:#000000;stroke-width:0.222292px;stroke-linecap:butt;stroke-linejoin:round;stroke-miterlimit:4;stroke-dasharray:none;stroke-opacity:1"
       d="m 523.69619,-35.024643 h -4.80957"
       id="path2419" />
    <path
       style="fill:none;stroke:#000000;stroke-width:0.222292px;stroke-linecap:butt;stroke-linejoin:round;stroke-miterlimit:4;stroke-dasharray:none;stroke-opacity:1"
       d="m 523.69619,-66.751723 h -4.80957"
       id="path2421" />
    <path
       style="fill:none;stroke:#000000;stroke-width:0.222292px;stroke-linecap:butt;stroke-linejoin:round;stroke-miterlimit:4;stroke-dasharray:none;stroke-opacity:1"
       d="m 523.69619,-98.478813 h -4.80957"
       id="path2423" />
    <path
       style="fill:none;stroke:#000000;stroke-width:0.222292px;stroke-linecap:butt;stroke-linejoin:round;stroke-miterlimit:4;stroke-dasharray:none;stroke-opacity:1"
       d="m 523.69619,-130.20589 h -4.80957"
       id="path2425" />
    <path
       style="fill:none;stroke:#000000;stroke-width:0.222292px;stroke-linecap:butt;stroke-linejoin:round;stroke-miterlimit:4;stroke-dasharray:none;stroke-opacity:1"
       d="m 523.69619,-161.93298 h -4.80957"
       id="path2427" />
    <path
       style="fill:none;stroke:#000000;stroke-width:0.222292px;stroke-linecap:butt;stroke-linejoin:round;stroke-miterlimit:4;stroke-dasharray:none;stroke-opacity:1"
       d="m 523.69619,-193.66006 h -4.80957"
       id="path2429" />
    <path
       style="fill:none;stroke:#000000;stroke-width:0.222292px;stroke-linecap:butt;stroke-linejoin:round;stroke-miterlimit:4;stroke-dasharray:none;stroke-opacity:1"
       d="m 523.69619,-225.38714 h -4.80957"
       id="path2431" />
    <text
       xml:space="preserve"
       style="font-style:normal;font-variant:normal;font-weight:400;font-size:10.3518px;line-height:125%;font-family:Arial;text-align:start;letter-spacing:0px;word-spacing:0px;text-anchor:start;fill:#000000;fill-opacity:1;stroke:none;stroke-width:0.264583"
       x="33.846191"
       y="32.309513"
       id="text2437"><tspan
         sodipodi:role="line"
         x="33.846191"
         y="32.309513"
         id="tspan2435"
         style="stroke-width:0.264583"><tspan
           dx="0"
           dy="0"
           style="font-style:normal;font-variant:normal;font-weight:400;font-size:10.3518px;font-family:Arial;fill:#000000;stroke-width:0.264583"
           id="tspan2433">0</tspan></tspan></text>
    <text
       xml:space="preserve"
       style="font-style:normal;font-variant:normal;font-weight:400;font-size:10.3518px;line-height:125%;font-family:Arial;text-align:start;letter-spacing:0px;word-spacing:0px;text-anchor:start;fill:#000000;fill-opacity:1;stroke:none;stroke-width:0.264583"
       x="25.11619"
       y="0.62285042"
       id="text2443"><tspan
         sodipodi:role="line"
         x="25.11619"
         y="0.62285042"
         id="tspan2441"
         style="stroke-width:0.264583"><tspan
           dx="0"
           dy="0"
           style="font-style:normal;font-variant:normal;font-weight:400;font-size:10.3518px;font-family:Arial;fill:#000000;stroke-width:0.264583"
           id="tspan2439">0.5</tspan></tspan></text>
    <text
       xml:space="preserve"
       style="font-style:normal;font-variant:normal;font-weight:400;font-size:10.3518px;line-height:125%;font-family:Arial;text-align:start;letter-spacing:0px;word-spacing:0px;text-anchor:start;fill:#000000;fill-opacity:1;stroke:none;stroke-width:0.264583"
       x="33.846191"
       y="-31.06381"
       id="text2449"><tspan
         sodipodi:role="line"
         x="33.846191"
         y="-31.06381"
         id="tspan2447"
         style="stroke-width:0.264583"><tspan
           dx="0"
           dy="0"
           style="font-style:normal;font-variant:normal;font-weight:400;font-size:10.3518px;font-family:Arial;fill:#000000;stroke-width:0.264583"
           id="tspan2445">1</tspan></tspan></text>
    <text
       xml:space="preserve"
       style="font-style:normal;font-variant:normal;font-weight:400;font-size:10.3518px;line-height:125%;font-family:Arial;text-align:start;letter-spacing:0px;word-spacing:0px;text-anchor:start;fill:#000000;fill-opacity:1;stroke:none;stroke-width:0.264583"
       x="25.11619"
       y="-62.750469"
       id="text2455"><tspan
         sodipodi:role="line"
         x="25.11619"
         y="-62.750469"
         id="tspan2453"
         style="stroke-width:0.264583"><tspan
           dx="0"
           dy="0"
           style="font-style:normal;font-variant:normal;font-weight:400;font-size:10.3518px;font-family:Arial;fill:#000000;stroke-width:0.264583"
           id="tspan2451">1.5</tspan></tspan></text>
    <text
       xml:space="preserve"
       style="font-style:normal;font-variant:normal;font-weight:400;font-size:10.3518px;line-height:125%;font-family:Arial;text-align:start;letter-spacing:0px;word-spacing:0px;text-anchor:start;fill:#000000;fill-opacity:1;stroke:none;stroke-width:0.264583"
       x="33.846191"
       y="-94.437149"
       id="text2461"><tspan
         sodipodi:role="line"
         x="33.846191"
         y="-94.437149"
         id="tspan2459"
         style="stroke-width:0.264583"><tspan
           dx="0"
           dy="0"
           style="font-style:normal;font-variant:normal;font-weight:400;font-size:10.3518px;font-family:Arial;fill:#000000;stroke-width:0.264583"
           id="tspan2457">2</tspan></tspan></text>
    <text
       xml:space="preserve"
       style="font-style:normal;font-variant:normal;font-weight:400;font-size:10.3518px;line-height:125%;font-family:Arial;text-align:start;letter-spacing:0px;word-spacing:0px;text-anchor:start;fill:#000000;fill-opacity:1;stroke:none;stroke-width:0.264583"
       x="25.11619"
       y="-126.44715"
       id="text2467"><tspan
         sodipodi:role="line"
         x="25.11619"
         y="-126.44715"
         id="tspan2465"
         style="stroke-width:0.264583"><tspan
           dx="0"
           dy="0"
           style="font-style:normal;font-variant:normal;font-weight:400;font-size:10.3518px;font-family:Arial;fill:#000000;stroke-width:0.264583"
           id="tspan2463">2.5</tspan></tspan></text>
    <text
       xml:space="preserve"
       style="font-style:normal;font-variant:normal;font-weight:400;font-size:10.3518px;line-height:125%;font-family:Arial;text-align:start;letter-spacing:0px;word-spacing:0px;text-anchor:start;fill:#000000;fill-opacity:1;stroke:none;stroke-width:0.264583"
       x="33.846191"
       y="-158.1338"
       id="text2473"><tspan
         sodipodi:role="line"
         x="33.846191"
         y="-158.1338"
         id="tspan2471"
         style="stroke-width:0.264583"><tspan
           dx="0"
           dy="0"
           style="font-style:normal;font-variant:normal;font-weight:400;font-size:10.3518px;font-family:Arial;fill:#000000;stroke-width:0.264583"
           id="tspan2469">3</tspan></tspan></text>
    <text
       xml:space="preserve"
       style="font-style:normal;font-variant:normal;font-weight:400;font-size:10.3518px;line-height:125%;font-family:Arial;text-align:start;letter-spacing:0px;word-spacing:0px;text-anchor:start;fill:#000000;fill-opacity:1;stroke:none;stroke-width:0.264583"
       x="25.11619"
       y="-189.82048"
       id="text2479"><tspan
         sodipodi:role="line"
         x="25.11619"
         y="-189.82048"
         id="tspan2477"
         style="stroke-width:0.264583"><tspan
           dx="0"
           dy="0"
           style="font-style:normal;font-variant:normal;font-weight:400;font-size:10.3518px;font-family:Arial;fill:#000000;stroke-width:0.264583"
           id="tspan2475">3.5</tspan></tspan></text>
    <text
       xml:space="preserve"
       style="font-style:normal;font-variant:normal;font-weight:400;font-size:10.3518px;line-height:125%;font-family:Arial;text-align:start;letter-spacing:0px;word-spacing:0px;text-anchor:start;fill:#000000;fill-opacity:1;stroke:none;stroke-width:0.264583"
       x="33.846191"
       y="-221.50714"
       id="text2485"><tspan
         sodipodi:role="line"
         x="33.846191"
         y="-221.50714"
         id="tspan2483"
         style="stroke-width:0.264583"><tspan
           dx="0"
           dy="0"
           style="font-style:normal;font-variant:normal;font-weight:400;font-size:10.3518px;font-family:Arial;fill:#000000;stroke-width:0.264583"
           id="tspan2481">4</tspan></tspan></text>
    <text
       xml:space="preserve"
       style="font-style:normal;font-variant:normal;font-weight:400;font-size:11.3109px;line-height:125%;font-family:Arial;text-align:start;letter-spacing:0px;word-spacing:0px;text-anchor:start;fill:#000000;fill-opacity:1;stroke:none;stroke-width:0.264583"
       transform="rotate(-90)"
       x="72.450485"
       y="11.212858"
       id="text2509"><tspan
         sodipodi:role="line"
         x="72.450485"
         y="11.212858"
         id="tspan2507"
         style="stroke-width:0.264583"><tspan
           dx="0"
           dy="0"
           style="font-style:normal;font-variant:normal;font-weight:400;font-size:11.3109px;font-family:Arial;fill:#000000;stroke-width:0.264583"
           id="tspan2487">P</tspan><tspan
           dx="0"
           dy="0"
           style="font-style:normal;font-variant:normal;font-weight:400;font-size:11.3109px;font-family:Arial;fill:#000000;stroke-width:0.264583"
           id="tspan2489">o</tspan><tspan
           dx="0"
           dy="0"
           style="font-style:normal;font-variant:normal;font-weight:400;font-size:11.3109px;font-family:Arial;fill:#000000;stroke-width:0.264583"
           id="tspan2491">w</tspan><tspan
           dx="0"
           dy="0"
           style="font-style:normal;font-variant:normal;font-weight:400;font-size:11.3109px;font-family:Arial;fill:#000000;stroke-width:0.264583"
           id="tspan2493">e</tspan><tspan
           dx="0"
           dy="0"
           style="font-style:normal;font-variant:normal;font-weight:400;font-size:11.3109px;font-family:Arial;fill:#000000;stroke-width:0.264583"
           id="tspan2495">r</tspan><tspan
           dx="0"
           dy="0"
           style="font-style:normal;font-variant:normal;font-weight:400;font-size:11.3109px;font-family:Arial;fill:#000000;stroke-width:0.264583"
           id="tspan2497"> </tspan><tspan
           dx="0"
           dy="0"
           style="font-style:normal;font-variant:normal;font-weight:400;font-size:11.3109px;font-family:Arial;fill:#000000;stroke-width:0.264583"
           id="tspan2499">[</tspan><tspan
           dx="0"
           dy="0"
           style="font-style:normal;font-variant:normal;font-weight:400;font-size:11.3109px;font-family:Arial;fill:#000000;stroke-width:0.264583"
           id="tspan2501">k</tspan><tspan
           dx="0"
           dy="0"
           style="font-style:normal;font-variant:normal;font-weight:400;font-size:11.3109px;font-family:Arial;fill:#000000;stroke-width:0.264583"
           id="tspan2503">W</tspan><tspan
           dx="0.96419799"
           dy="0"
           style="font-style:normal;font-variant:normal;font-weight:400;font-size:11.3109px;font-family:Arial;fill:#000000;stroke-width:0.264583"
           id="tspan2505">]</tspan></tspan></text>
    <path
       style="fill:none;stroke:#000000;stroke-width:0.222292px;stroke-linecap:butt;stroke-linejoin:round;stroke-miterlimit:4;stroke-dasharray:none;stroke-opacity:1"
       d="m 317.08619,-178.18048 -13.58001,10.02334"
       id="path2511" />
    <path
       style="fill:none;stroke:#000000;stroke-width:0.222292px;stroke-linecap:butt;stroke-linejoin:round;stroke-miterlimit:4;stroke-dasharray:none;stroke-opacity:1"
       d="m 104.65619,-33.003813 -13.580003,10.02334"
       id="path2513" />
    <path
       style="fill:none;stroke:#ffffff;stroke-width:0.222292px;stroke-linecap:butt;stroke-linejoin:miter;stroke-miterlimit:10;stroke-dasharray:none;stroke-opacity:1"
       d="m 316.74265,-171.06714 v -22.63334 h 25.24022 v 22.63334 z"
       id="path2515" />
    <text
       xml:space="preserve"
       style="font-style:normal;font-variant:normal;font-weight:400;font-size:11.9559px;line-height:125%;font-family:Arial;text-align:start;letter-spacing:0px;word-spacing:0px;text-anchor:start;fill:#000000;fill-opacity:1;stroke:none;stroke-width:0.264583"
       x="319.02618"
       y="-181.09047"
       id="text2525"><tspan
         sodipodi:role="line"
         x="319.02618"
         y="-181.09047"
         id="tspan2523"
         style="stroke-width:0.264583"><tspan
           dx="0"
           dy="0"
           style="font-style:normal;font-variant:normal;font-weight:400;font-size:11.9559px;font-family:Arial;fill:#000000;stroke-width:0.264583"
           id="tspan2517">P</tspan><tspan
           dx="0"
           dy="5.8199997"
           style="font-style:normal;font-variant:normal;font-weight:400;font-size:9.7069px;font-family:Arial;fill:#000000;stroke-width:0.264583"
           id="tspan2519">A</tspan><tspan
           dx="0"
           dy="0"
           style="font-style:normal;font-variant:normal;font-weight:400;font-size:9.7069px;font-family:Arial;fill:#000000;stroke-width:0.264583"
           id="tspan2521">C</tspan></tspan></text>
    <path
       style="fill:none;stroke:#ffffff;stroke-width:0.222292px;stroke-linecap:butt;stroke-linejoin:miter;stroke-miterlimit:10;stroke-dasharray:none;stroke-opacity:1"
       d="m 103.01932,-28.477143 v -22.63333 h 25.24021 v 22.63333 z"
       id="path2527" />
    <text
       xml:space="preserve"
       style="font-style:normal;font-variant:normal;font-weight:400;font-size:11.9559px;line-height:125%;font-family:Arial;text-align:start;letter-spacing:0px;word-spacing:0px;text-anchor:start;fill:#000000;fill-opacity:1;stroke:none;stroke-width:0.264583"
       x="105.30286"
       y="-38.500469"
       id="text2535"><tspan
         sodipodi:role="line"
         x="105.30286"
         y="-38.500469"
         id="tspan2533"
         style="stroke-width:0.264583"><tspan
           dx="0"
           dy="0"
           style="font-style:normal;font-variant:normal;font-weight:400;font-size:11.9559px;font-family:Arial;fill:#000000;stroke-width:0.264583"
           id="tspan2529">P</tspan><tspan
           dx="0"
           dy="5.8199997"
           style="font-style:normal;font-variant:normal;font-weight:400;font-size:9.7069px;font-family:Arial;fill:#000000;stroke-width:0.264583"
           id="tspan2531">L</tspan></tspan></text>
    <path
       style="fill:none;stroke:#808080;stroke-width:0.222292px;stroke-linecap:butt;stroke-linejoin:miter;stroke-miterlimit:10;stroke-dasharray:none;stroke-opacity:1"
       d="M 251.42933,23.579527 V 6.4428571 h 74.06352 V 23.579527 Z"
       id="path2537" />
    <text
       xml:space="preserve"
       style="font-style:normal;font-variant:normal;font-weight:400;font-size:11.9559px;line-height:125%;font-family:Arial;text-align:start;letter-spacing:0px;word-spacing:0px;text-anchor:start;fill:#000000;fill-opacity:1;stroke:none;stroke-width:0.264583"
       x="253.71286"
       y="19.052858"
       id="text2543"><tspan
         sodipodi:role="line"
         x="253.71286"
         y="19.052858"
         id="tspan2541"
         style="stroke-width:0.264583"><tspan
           dx="0"
           dy="0"
           style="font-style:normal;font-variant:normal;font-weight:400;font-size:11.9559px;font-family:Arial;fill:#ffffff;stroke-width:0.264583"
           id="tspan2539">(7.3 kWh)</tspan></tspan></text>
    <path
       style="fill:none;stroke:#ffffff;stroke-width:0.222292px;stroke-linecap:butt;stroke-linejoin:miter;stroke-miterlimit:10;stroke-dasharray:none;stroke-opacity:1"
       d="m 241.40599,-92.820473 v -17.136667 h 67.92021 v 17.136667 z"
       id="path2545" />
    <text
       xml:space="preserve"
       style="font-style:normal;font-variant:normal;font-weight:400;font-size:11.9559px;line-height:125%;font-family:Arial;text-align:start;letter-spacing:0px;word-spacing:0px;text-anchor:start;fill:#000000;fill-opacity:1;stroke:none;stroke-width:0.264583"
       x="243.68951"
       y="-97.347137"
       id="text2551"><tspan
         sodipodi:role="line"
         x="243.68951"
         y="-97.347137"
         id="tspan2549"
         style="stroke-width:0.264583"><tspan
           dx="0"
           dy="0"
           style="font-style:normal;font-variant:normal;font-weight:400;font-size:11.9559px;font-family:Arial;fill:#000000;stroke-width:0.264583"
           id="tspan2547">(17.6 kWh)</tspan></tspan></text>
    <path
       style="fill:none;stroke:#808080;stroke-width:0.222292px;stroke-linecap:butt;stroke-linejoin:miter;stroke-miterlimit:10;stroke-dasharray:none;stroke-opacity:1"
       d="m 234.29264,7.7361871 v -17.13666 h 74.06354 v 17.13666 z"
       id="path2553" />
    <text
       xml:space="preserve"
       style="font-style:normal;font-variant:normal;font-weight:400;font-size:11.9559px;line-height:125%;font-family:Arial;text-align:start;letter-spacing:0px;word-spacing:0px;text-anchor:start;fill:#000000;fill-opacity:1;stroke:none;stroke-width:0.264583"
       x="236.5762"
       y="3.2095203"
       id="text2559"><tspan
         sodipodi:role="line"
         x="236.5762"
         y="3.2095203"
         id="tspan2557"
         style="stroke-width:0.264583"><tspan
           dx="0"
           dy="0"
           style="font-style:normal;font-variant:normal;font-weight:400;font-size:11.9559px;font-family:Arial;fill:#ffffff;stroke-width:0.264583"
           id="tspan2555">Self-consumption</tspan></tspan></text>
    <path
       style="fill:none;stroke:#ffffff;stroke-width:0.222292px;stroke-linecap:butt;stroke-linejoin:miter;stroke-miterlimit:10;stroke-dasharray:none;stroke-opacity:1"
       d="m 239.78933,-108.98714 v -17.13667 h 67.92021 v 17.13667 z"
       id="path2561" />
    <text
       xml:space="preserve"
       style="font-style:normal;font-variant:normal;font-weight:400;font-size:11.9559px;line-height:125%;font-family:Arial;text-align:start;letter-spacing:0px;word-spacing:0px;text-anchor:start;fill:#000000;fill-opacity:1;stroke:none;stroke-width:0.264583"
       x="242.07285"
       y="-113.51381"
       id="text2567"><tspan
         sodipodi:role="line"
         x="242.07285"
         y="-113.51381"
         id="tspan2565"
         style="stroke-width:0.264583"><tspan
           dx="0"
           dy="0"
           style="font-style:normal;font-variant:normal;font-weight:400;font-size:11.9559px;font-family:Arial;fill:#000000;stroke-width:0.264583"
           id="tspan2563">Grid feed-in</tspan></tspan></text>
    <path
       style="fill:none;stroke:#cccccc;stroke-width:0.222292px;stroke-linecap:butt;stroke-linejoin:miter;stroke-miterlimit:10;stroke-dasharray:none;stroke-opacity:1"
       d="M 388.19931,6.4428571 V -10.693813 H 506.2362 V 6.4428571 Z"
       id="path2569" />
    <text
       xml:space="preserve"
       style="font-style:normal;font-variant:normal;font-weight:400;font-size:11.9559px;line-height:125%;font-family:Arial;text-align:start;letter-spacing:0px;word-spacing:0px;text-anchor:start;fill:#000000;fill-opacity:1;stroke:none;stroke-width:0.264583"
       x="390.48285"
       y="1.9161854"
       id="text2575"><tspan
         sodipodi:role="line"
         x="390.48285"
         y="1.9161854"
         id="tspan2573"
         style="stroke-width:0.264583"><tspan
           dx="0"
           dy="0"
           style="font-style:normal;font-variant:normal;font-weight:400;font-size:11.9559px;font-family:Arial;fill:#000000;stroke-width:0.264583"
           id="tspan2571">Grid consumption</tspan></tspan></text>
    <path
       style="fill:none;stroke:#cccccc;stroke-width:0.222292px;stroke-linecap:butt;stroke-linejoin:miter;stroke-miterlimit:10;stroke-dasharray:none;stroke-opacity:1"
       d="M 64.865977,2.2395271 V -14.897143 H 182.90286 V 2.2395271 Z"
       id="path2577" />
    <text
       xml:space="preserve"
       style="font-style:normal;font-variant:normal;font-weight:400;font-size:11.9559px;line-height:125%;font-family:Arial;text-align:start;letter-spacing:0px;word-spacing:0px;text-anchor:start;fill:#000000;fill-opacity:1;stroke:none;stroke-width:0.264583"
       x="67.149529"
       y="-2.287138"
       id="text2583"><tspan
         sodipodi:role="line"
         x="67.149529"
         y="-2.287138"
         id="tspan2581"
         style="stroke-width:0.264583"><tspan
           dx="0"
           dy="0"
           style="font-style:normal;font-variant:normal;font-weight:400;font-size:11.9559px;font-family:Arial;fill:#000000;stroke-width:0.264583"
           id="tspan2579">Grid consumption</tspan></tspan></text>
    <path
       style="fill:none;stroke:#cccccc;stroke-width:0.222292px;stroke-linecap:butt;stroke-linejoin:miter;stroke-miterlimit:10;stroke-dasharray:none;stroke-opacity:1"
       d="M 82.649317,17.759517 V 0.62285714 H 143.45619 V 17.759517 Z"
       id="path2585" />
    <text
       xml:space="preserve"
       style="font-style:normal;font-variant:normal;font-weight:400;font-size:11.9559px;line-height:125%;font-family:Arial;text-align:start;letter-spacing:0px;word-spacing:0px;text-anchor:start;fill:#000000;fill-opacity:1;stroke:none;stroke-width:0.264583"
       x="84.932861"
       y="13.232851"
       id="text2591"><tspan
         sodipodi:role="line"
         x="84.932861"
         y="13.232851"
         id="tspan2589"
         style="stroke-width:0.264583"><tspan
           dx="0"
           dy="0"
           style="font-style:normal;font-variant:normal;font-weight:400;font-size:11.9559px;font-family:Arial;fill:#000000;stroke-width:0.264583"
           id="tspan2587">(6.3 kWh)</tspan></tspan></text>
    <path
       style="fill:none;stroke:#cccccc;stroke-width:0.222292px;stroke-linecap:butt;stroke-linejoin:miter;stroke-miterlimit:10;stroke-dasharray:none;stroke-opacity:1"
       d="M 410.83264,20.669537 V 3.5328571 h 60.80689 V 20.669537 Z"
       id="path2593" />
    <text
       xml:space="preserve"
       style="font-style:normal;font-variant:normal;font-weight:400;font-size:11.9559px;line-height:125%;font-family:Arial;text-align:start;letter-spacing:0px;word-spacing:0px;text-anchor:start;fill:#000000;fill-opacity:1;stroke:none;stroke-width:0.264583"
       x="413.11618"
       y="16.142855"
       id="text2599"><tspan
         sodipodi:role="line"
         x="413.11618"
         y="16.142855"
         id="tspan2597"
         style="stroke-width:0.264583"><tspan
           dx="0"
           dy="0"
           style="font-style:normal;font-variant:normal;font-weight:400;font-size:11.9559px;font-family:Arial;fill:#000000;stroke-width:0.264583"
           id="tspan2595">(6.4 kWh)</tspan></tspan></text>
    <path
       style="fill:none;stroke:#ffffff;stroke-width:0.222292px;stroke-linecap:butt;stroke-linejoin:miter;stroke-miterlimit:10;stroke-dasharray:none;stroke-opacity:1"
       d="m 391.10933,-150.05048 v -17.13666 h 74.06354 v 17.13666 z"
       id="path2601" />
    <text
       xml:space="preserve"
       style="font-style:normal;font-variant:normal;font-weight:400;font-size:11.9559px;line-height:125%;font-family:Arial;text-align:start;letter-spacing:0px;word-spacing:0px;text-anchor:start;fill:#000000;fill-opacity:1;stroke:none;stroke-width:0.264583"
       x="393.39285"
       y="-154.57715"
       id="text2611"><tspan
         sodipodi:role="line"
         x="393.39285"
         y="-154.57715"
         id="tspan2609"
         style="stroke-width:0.264583"><tspan
           dx="0"
           dy="0"
           style="font-style:normal;font-variant:normal;font-weight:400;font-size:11.9559px;font-family:Arial;fill:#000000;stroke-width:0.264583"
           id="tspan2603">L</tspan><tspan
           dx="0"
           dy="5.8199997"
           style="font-style:normal;font-variant:normal;font-weight:400;font-size:9.7069px;font-family:Arial;fill:#000000;stroke-width:0.264583"
           id="tspan2605">d</tspan><tspan
           dx="0"
           dy="-5.8199997"
           style="font-style:normal;font-variant:normal;font-weight:400;font-size:11.9559px;font-family:Arial;fill:#000000;stroke-width:0.264583"
           id="tspan2607">=20 kWh</tspan></tspan></text>
    <path
       style="fill:none;stroke:#ffffff;stroke-width:0.222292px;stroke-linecap:butt;stroke-linejoin:miter;stroke-miterlimit:10;stroke-dasharray:none;stroke-opacity:1"
       d="m 390.78598,-173.33048 v -17.13666 h 98.63688 v 17.13666 z"
       id="path2613" />
    <text
       xml:space="preserve"
       style="font-style:normal;font-variant:normal;font-weight:400;font-size:11.9559px;line-height:125%;font-family:Arial;text-align:start;letter-spacing:0px;word-spacing:0px;text-anchor:start;fill:#000000;fill-opacity:1;stroke:none;stroke-width:0.264583"
       x="393.06952"
       y="-177.85715"
       id="text2625"><tspan
         sodipodi:role="line"
         x="393.06952"
         y="-177.85715"
         id="tspan2623"
         style="stroke-width:0.264583"><tspan
           dx="0"
           dy="0"
           style="font-style:normal;font-variant:normal;font-weight:400;font-size:11.9559px;font-family:Arial;fill:#000000;stroke-width:0.264583"
           id="tspan2615">E</tspan><tspan
           dx="0"
           dy="5.8199997"
           style="font-style:normal;font-variant:normal;font-weight:400;font-size:9.7069px;font-family:Arial;fill:#000000;stroke-width:0.264583"
           id="tspan2617">A</tspan><tspan
           dx="0"
           dy="0"
           style="font-style:normal;font-variant:normal;font-weight:400;font-size:9.7069px;font-family:Arial;fill:#000000;stroke-width:0.264583"
           id="tspan2619">C</tspan><tspan
           dx="0"
           dy="-5.8199997"
           style="font-style:normal;font-variant:normal;font-weight:400;font-size:11.9559px;font-family:Arial;fill:#000000;stroke-width:0.264583"
           id="tspan2621">= 24.9 kWh</tspan></tspan></text>
  </g>
</svg>
