<?xml version="1.0" encoding="UTF-8" standalone="no"?>
<svg
   xmlns:dc="http://purl.org/dc/elements/1.1/"
   xmlns:cc="http://creativecommons.org/ns#"
   xmlns:rdf="http://www.w3.org/1999/02/22-rdf-syntax-ns#"
   xmlns:svg="http://www.w3.org/2000/svg"
   xmlns="http://www.w3.org/2000/svg"
   xmlns:sodipodi="http://sodipodi.sourceforge.net/DTD/sodipodi-0.dtd"
   xmlns:inkscape="http://www.inkscape.org/namespaces/inkscape"
   width="615.62671mm"
   height="311.37mm"
   viewBox="0 0 615.62671 311.37"
   version="1.1"
   id="svg22751"
   inkscape:version="1.0.2-2 (e86c870879, 2021-01-15)"
   sodipodi:docname="Figure10.26b.svg">
  <defs
     id="defs22745">
    <pattern
       id="EMFhbasepattern"
       patternUnits="userSpaceOnUse"
       width="6"
       height="6"
       x="0"
       y="0" />
  </defs>
  <sodipodi:namedview
     id="base"
     pagecolor="#ffffff"
     bordercolor="#666666"
     borderopacity="1.0"
     inkscape:pageopacity="0.0"
     inkscape:pageshadow="2"
     inkscape:zoom="0.35"
     inkscape:cx="1163.389"
     inkscape:cy="588.41575"
     inkscape:document-units="mm"
     inkscape:current-layer="layer1"
     inkscape:document-rotation="0"
     showgrid="false"
     fit-margin-top="0"
     fit-margin-left="0"
     fit-margin-right="0"
     fit-margin-bottom="0"
     inkscape:window-width="1258"
     inkscape:window-height="1040"
     inkscape:window-x="234"
     inkscape:window-y="0"
     inkscape:window-maximized="0" />
  <metadata
     id="metadata22748">
    <rdf:RDF>
      <cc:Work
         rdf:about="">
        <dc:format>image/svg+xml</dc:format>
        <dc:type
           rdf:resource="http://purl.org/dc/dcmitype/StillImage" />
        <dc:title></dc:title>
      </cc:Work>
    </rdf:RDF>
  </metadata>
  <g
     inkscape:label="Capa 1"
     inkscape:groupmode="layer"
     id="layer1"
     transform="translate(201.98001,7.5183333)">
    <path
       style="fill:#ffffff;fill-opacity:1;fill-rule:evenodd;stroke:none;stroke-width:0.264583"
       d="M -201.98001,-7.5183333 V 303.85167 H 413.64667 V -7.5183333 Z"
       id="path23317" />
    <path
       style="fill:#ffffff;fill-opacity:1;fill-rule:evenodd;stroke:none;stroke-width:0.264583"
       d="M -121.79334,15.761667 V 266.66835 H 355.12332 V 15.761667 Z"
       id="path23319" />
    <path
       style="fill:none;stroke:#262626;stroke-width:0.222292px;stroke-linecap:butt;stroke-linejoin:round;stroke-miterlimit:4;stroke-dasharray:none;stroke-opacity:1"
       d="M -121.79334,266.66835 H 355.12332"
       id="path23321" />
    <path
       style="fill:none;stroke:#262626;stroke-width:0.222292px;stroke-linecap:butt;stroke-linejoin:round;stroke-miterlimit:4;stroke-dasharray:none;stroke-opacity:1"
       d="M -121.79334,15.761667 H 355.12332"
       id="path23323" />
    <path
       style="fill:none;stroke:#262626;stroke-width:0.222292px;stroke-linecap:butt;stroke-linejoin:round;stroke-miterlimit:4;stroke-dasharray:none;stroke-opacity:1"
       d="m -121.79334,266.66835 v -4.76917"
       id="path23325" />
    <path
       style="fill:none;stroke:#262626;stroke-width:0.222292px;stroke-linecap:butt;stroke-linejoin:round;stroke-miterlimit:4;stroke-dasharray:none;stroke-opacity:1"
       d="m -53.650837,266.66835 v -4.76917"
       id="path23327" />
    <path
       style="fill:none;stroke:#262626;stroke-width:0.222292px;stroke-linecap:butt;stroke-linejoin:round;stroke-miterlimit:4;stroke-dasharray:none;stroke-opacity:1"
       d="m 14.471453,266.66835 v -4.76917"
       id="path23329" />
    <path
       style="fill:none;stroke:#262626;stroke-width:0.222292px;stroke-linecap:butt;stroke-linejoin:round;stroke-miterlimit:4;stroke-dasharray:none;stroke-opacity:1"
       d="m 82.613953,266.66835 v -4.76917"
       id="path23331" />
    <path
       style="fill:none;stroke:#262626;stroke-width:0.222292px;stroke-linecap:butt;stroke-linejoin:round;stroke-miterlimit:4;stroke-dasharray:none;stroke-opacity:1"
       d="m 150.73624,266.66835 v -4.76917"
       id="path23333" />
    <path
       style="fill:none;stroke:#262626;stroke-width:0.222292px;stroke-linecap:butt;stroke-linejoin:round;stroke-miterlimit:4;stroke-dasharray:none;stroke-opacity:1"
       d="m 218.87873,266.66835 v -4.76917"
       id="path23335" />
    <path
       style="fill:none;stroke:#262626;stroke-width:0.222292px;stroke-linecap:butt;stroke-linejoin:round;stroke-miterlimit:4;stroke-dasharray:none;stroke-opacity:1"
       d="m 287.00103,266.66835 v -4.76917"
       id="path23337" />
    <path
       style="fill:none;stroke:#262626;stroke-width:0.222292px;stroke-linecap:butt;stroke-linejoin:round;stroke-miterlimit:4;stroke-dasharray:none;stroke-opacity:1"
       d="m 355.12332,266.66835 v -4.76917"
       id="path23339" />
    <path
       style="fill:none;stroke:#262626;stroke-width:0.222292px;stroke-linecap:butt;stroke-linejoin:round;stroke-miterlimit:4;stroke-dasharray:none;stroke-opacity:1"
       d="m -121.79334,15.761667 v 4.769167"
       id="path23341" />
    <path
       style="fill:none;stroke:#262626;stroke-width:0.222292px;stroke-linecap:butt;stroke-linejoin:round;stroke-miterlimit:4;stroke-dasharray:none;stroke-opacity:1"
       d="m -53.650837,15.761667 v 4.769167"
       id="path23343" />
    <path
       style="fill:none;stroke:#262626;stroke-width:0.222292px;stroke-linecap:butt;stroke-linejoin:round;stroke-miterlimit:4;stroke-dasharray:none;stroke-opacity:1"
       d="m 14.471453,15.761667 v 4.769167"
       id="path23345" />
    <path
       style="fill:none;stroke:#262626;stroke-width:0.222292px;stroke-linecap:butt;stroke-linejoin:round;stroke-miterlimit:4;stroke-dasharray:none;stroke-opacity:1"
       d="m 82.613953,15.761667 v 4.769167"
       id="path23347" />
    <path
       style="fill:none;stroke:#262626;stroke-width:0.222292px;stroke-linecap:butt;stroke-linejoin:round;stroke-miterlimit:4;stroke-dasharray:none;stroke-opacity:1"
       d="m 150.73624,15.761667 v 4.769167"
       id="path23349" />
    <path
       style="fill:none;stroke:#262626;stroke-width:0.222292px;stroke-linecap:butt;stroke-linejoin:round;stroke-miterlimit:4;stroke-dasharray:none;stroke-opacity:1"
       d="m 218.87873,15.761667 v 4.769167"
       id="path23351" />
    <path
       style="fill:none;stroke:#262626;stroke-width:0.222292px;stroke-linecap:butt;stroke-linejoin:round;stroke-miterlimit:4;stroke-dasharray:none;stroke-opacity:1"
       d="m 287.00103,15.761667 v 4.769167"
       id="path23353" />
    <path
       style="fill:none;stroke:#262626;stroke-width:0.222292px;stroke-linecap:butt;stroke-linejoin:round;stroke-miterlimit:4;stroke-dasharray:none;stroke-opacity:1"
       d="m 355.12332,15.761667 v 4.769167"
       id="path23355" />
    <text
       xml:space="preserve"
       style="font-style:normal;font-variant:normal;font-weight:400;font-size:11.9559px;line-height:125%;font-family:Arial;text-align:start;letter-spacing:0px;word-spacing:0px;text-anchor:start;fill:#000000;fill-opacity:1;stroke:none;stroke-width:0.264583"
       x="-125.02667"
       y="281.21832"
       id="text23361"><tspan
         sodipodi:role="line"
         x="-125.02667"
         y="281.21832"
         id="tspan23359"
         style="stroke-width:0.264583"><tspan
           dx="0"
           dy="0"
           style="font-style:normal;font-variant:normal;font-weight:400;font-size:11.9559px;font-family:Arial;fill:#262626;stroke-width:0.264583"
           id="tspan23357">0</tspan></tspan></text>
    <text
       xml:space="preserve"
       style="font-style:normal;font-variant:normal;font-weight:400;font-size:11.9559px;line-height:125%;font-family:Arial;text-align:start;letter-spacing:0px;word-spacing:0px;text-anchor:start;fill:#000000;fill-opacity:1;stroke:none;stroke-width:0.264583"
       x="-56.803341"
       y="281.21832"
       id="text23367"><tspan
         sodipodi:role="line"
         x="-56.803341"
         y="281.21832"
         id="tspan23365"
         style="stroke-width:0.264583"><tspan
           dx="0"
           dy="0"
           style="font-style:normal;font-variant:normal;font-weight:400;font-size:11.9559px;font-family:Arial;fill:#262626;stroke-width:0.264583"
           id="tspan23363">1</tspan></tspan></text>
    <text
       xml:space="preserve"
       style="font-style:normal;font-variant:normal;font-weight:400;font-size:11.9559px;line-height:125%;font-family:Arial;text-align:start;letter-spacing:0px;word-spacing:0px;text-anchor:start;fill:#000000;fill-opacity:1;stroke:none;stroke-width:0.264583"
       x="11.096654"
       y="281.21832"
       id="text23373"><tspan
         sodipodi:role="line"
         x="11.096654"
         y="281.21832"
         id="tspan23371"
         style="stroke-width:0.264583"><tspan
           dx="0"
           dy="0"
           style="font-style:normal;font-variant:normal;font-weight:400;font-size:11.9559px;font-family:Arial;fill:#262626;stroke-width:0.264583"
           id="tspan23369">2</tspan></tspan></text>
    <text
       xml:space="preserve"
       style="font-style:normal;font-variant:normal;font-weight:400;font-size:11.9559px;line-height:125%;font-family:Arial;text-align:start;letter-spacing:0px;word-spacing:0px;text-anchor:start;fill:#000000;fill-opacity:1;stroke:none;stroke-width:0.264583"
       x="79.319984"
       y="281.21832"
       id="text23379"><tspan
         sodipodi:role="line"
         x="79.319984"
         y="281.21832"
         id="tspan23377"
         style="stroke-width:0.264583"><tspan
           dx="0"
           dy="0"
           style="font-style:normal;font-variant:normal;font-weight:400;font-size:11.9559px;font-family:Arial;fill:#262626;stroke-width:0.264583"
           id="tspan23375">3</tspan></tspan></text>
    <text
       xml:space="preserve"
       style="font-style:normal;font-variant:normal;font-weight:400;font-size:11.9559px;line-height:125%;font-family:Arial;text-align:start;letter-spacing:0px;word-spacing:0px;text-anchor:start;fill:#000000;fill-opacity:1;stroke:none;stroke-width:0.264583"
       x="147.5433"
       y="281.21832"
       id="text23385"><tspan
         sodipodi:role="line"
         x="147.5433"
         y="281.21832"
         id="tspan23383"
         style="stroke-width:0.264583"><tspan
           dx="0"
           dy="0"
           style="font-style:normal;font-variant:normal;font-weight:400;font-size:11.9559px;font-family:Arial;fill:#262626;stroke-width:0.264583"
           id="tspan23381">4</tspan></tspan></text>
    <text
       xml:space="preserve"
       style="font-style:normal;font-variant:normal;font-weight:400;font-size:11.9559px;line-height:125%;font-family:Arial;text-align:start;letter-spacing:0px;word-spacing:0px;text-anchor:start;fill:#000000;fill-opacity:1;stroke:none;stroke-width:0.264583"
       x="215.76666"
       y="281.21832"
       id="text23391"><tspan
         sodipodi:role="line"
         x="215.76666"
         y="281.21832"
         id="tspan23389"
         style="stroke-width:0.264583"><tspan
           dx="0"
           dy="0"
           style="font-style:normal;font-variant:normal;font-weight:400;font-size:11.9559px;font-family:Arial;fill:#262626;stroke-width:0.264583"
           id="tspan23387">5</tspan></tspan></text>
    <text
       xml:space="preserve"
       style="font-style:normal;font-variant:normal;font-weight:400;font-size:11.9559px;line-height:125%;font-family:Arial;text-align:start;letter-spacing:0px;word-spacing:0px;text-anchor:start;fill:#000000;fill-opacity:1;stroke:none;stroke-width:0.264583"
       x="283.66666"
       y="281.21832"
       id="text23397"><tspan
         sodipodi:role="line"
         x="283.66666"
         y="281.21832"
         id="tspan23395"
         style="stroke-width:0.264583"><tspan
           dx="0"
           dy="0"
           style="font-style:normal;font-variant:normal;font-weight:400;font-size:11.9559px;font-family:Arial;fill:#262626;stroke-width:0.264583"
           id="tspan23393">6</tspan></tspan></text>
    <text
       xml:space="preserve"
       style="font-style:normal;font-variant:normal;font-weight:400;font-size:11.9559px;line-height:125%;font-family:Arial;text-align:start;letter-spacing:0px;word-spacing:0px;text-anchor:start;fill:#000000;fill-opacity:1;stroke:none;stroke-width:0.264583"
       x="351.88998"
       y="281.21832"
       id="text23403"><tspan
         sodipodi:role="line"
         x="351.88998"
         y="281.21832"
         id="tspan23401"
         style="stroke-width:0.264583"><tspan
           dx="0"
           dy="0"
           style="font-style:normal;font-variant:normal;font-weight:400;font-size:11.9559px;font-family:Arial;fill:#262626;stroke-width:0.264583"
           id="tspan23399">7</tspan></tspan></text>
    <text
       xml:space="preserve"
       style="font-style:normal;font-variant:normal;font-weight:400;font-size:13.2622px;line-height:125%;font-family:Arial;text-align:start;letter-spacing:0px;word-spacing:0px;text-anchor:start;fill:#000000;fill-opacity:1;stroke:none;stroke-width:0.264583"
       x="74.146675"
       y="300.94165"
       id="text23413"><tspan
         sodipodi:role="line"
         x="74.146675"
         y="300.94165"
         id="tspan23411"
         style="stroke-width:0.264583"><tspan
           dx="0"
           dy="0"
           style="font-style:normal;font-variant:normal;font-weight:400;font-size:13.2622px;font-family:Arial;fill:#262626;stroke-width:0.264583"
           id="tspan23405">Flow, Q [m</tspan><tspan
           dx="0.97210461"
           dy="-6.4666667"
           style="font-style:normal;font-variant:normal;font-weight:400;font-size:10.666px;font-family:Arial;fill:#262626;stroke-width:0.264583"
           id="tspan23407">3</tspan><tspan
           dx="0"
           dy="6.4666667"
           style="font-style:normal;font-variant:normal;font-weight:400;font-size:13.2622px;font-family:Arial;fill:#262626;stroke-width:0.264583"
           id="tspan23409">/h]</tspan></tspan></text>
    <path
       style="fill:none;stroke:#262626;stroke-width:0.222292px;stroke-linecap:butt;stroke-linejoin:round;stroke-miterlimit:4;stroke-dasharray:none;stroke-opacity:1"
       d="M -121.79334,266.66835 V 15.761667"
       id="path23415" />
    <path
       style="fill:none;stroke:#262626;stroke-width:0.222292px;stroke-linecap:butt;stroke-linejoin:round;stroke-miterlimit:4;stroke-dasharray:none;stroke-opacity:1"
       d="M 355.12332,266.66835 V 15.761667"
       id="path23417" />
    <path
       style="fill:none;stroke:#262626;stroke-width:0.222292px;stroke-linecap:butt;stroke-linejoin:round;stroke-miterlimit:4;stroke-dasharray:none;stroke-opacity:1"
       d="m -121.79334,265.69833 h 4.76917"
       id="path23419" />
    <path
       style="fill:none;stroke:#262626;stroke-width:0.222292px;stroke-linecap:butt;stroke-linejoin:round;stroke-miterlimit:4;stroke-dasharray:none;stroke-opacity:1"
       d="m -121.79334,223.8873 h 4.76917"
       id="path23421" />
    <path
       style="fill:none;stroke:#262626;stroke-width:0.222292px;stroke-linecap:butt;stroke-linejoin:round;stroke-miterlimit:4;stroke-dasharray:none;stroke-opacity:1"
       d="m -121.79334,182.07625 h 4.76917"
       id="path23423" />
    <path
       style="fill:none;stroke:#262626;stroke-width:0.222292px;stroke-linecap:butt;stroke-linejoin:round;stroke-miterlimit:4;stroke-dasharray:none;stroke-opacity:1"
       d="m -121.79334,140.245 h 4.76917"
       id="path23425" />
    <path
       style="fill:none;stroke:#262626;stroke-width:0.222292px;stroke-linecap:butt;stroke-linejoin:round;stroke-miterlimit:4;stroke-dasharray:none;stroke-opacity:1"
       d="m -121.79334,98.433957 h 4.76917"
       id="path23427" />
    <path
       style="fill:none;stroke:#262626;stroke-width:0.222292px;stroke-linecap:butt;stroke-linejoin:round;stroke-miterlimit:4;stroke-dasharray:none;stroke-opacity:1"
       d="m -121.79334,56.622916 h 4.76917"
       id="path23429" />
    <path
       style="fill:none;stroke:#262626;stroke-width:0.222292px;stroke-linecap:butt;stroke-linejoin:round;stroke-miterlimit:4;stroke-dasharray:none;stroke-opacity:1"
       d="m 355.12332,265.69833 h -4.76916"
       id="path23431" />
    <path
       style="fill:none;stroke:#262626;stroke-width:0.222292px;stroke-linecap:butt;stroke-linejoin:round;stroke-miterlimit:4;stroke-dasharray:none;stroke-opacity:1"
       d="m 355.12332,223.8873 h -4.76916"
       id="path23433" />
    <path
       style="fill:none;stroke:#262626;stroke-width:0.222292px;stroke-linecap:butt;stroke-linejoin:round;stroke-miterlimit:4;stroke-dasharray:none;stroke-opacity:1"
       d="m 355.12332,182.07625 h -4.76916"
       id="path23435" />
    <path
       style="fill:none;stroke:#262626;stroke-width:0.222292px;stroke-linecap:butt;stroke-linejoin:round;stroke-miterlimit:4;stroke-dasharray:none;stroke-opacity:1"
       d="m 355.12332,140.245 h -4.76916"
       id="path23437" />
    <path
       style="fill:none;stroke:#262626;stroke-width:0.222292px;stroke-linecap:butt;stroke-linejoin:round;stroke-miterlimit:4;stroke-dasharray:none;stroke-opacity:1"
       d="m 355.12332,98.433957 h -4.76916"
       id="path23439" />
    <path
       style="fill:none;stroke:#262626;stroke-width:0.222292px;stroke-linecap:butt;stroke-linejoin:round;stroke-miterlimit:4;stroke-dasharray:none;stroke-opacity:1"
       d="m 355.12332,56.622916 h -4.76916"
       id="path23441" />
    <text
       xml:space="preserve"
       style="font-style:normal;font-variant:normal;font-weight:400;font-size:11.9559px;line-height:125%;font-family:Arial;text-align:start;letter-spacing:0px;word-spacing:0px;text-anchor:start;fill:#000000;fill-opacity:1;stroke:none;stroke-width:0.264583"
       x="-131.81668"
       y="269.90167"
       id="text23447"><tspan
         sodipodi:role="line"
         x="-131.81668"
         y="269.90167"
         id="tspan23445"
         style="stroke-width:0.264583"><tspan
           dx="0"
           dy="0"
           style="font-style:normal;font-variant:normal;font-weight:400;font-size:11.9559px;font-family:Arial;fill:#262626;stroke-width:0.264583"
           id="tspan23443">0</tspan></tspan></text>
    <text
       xml:space="preserve"
       style="font-style:normal;font-variant:normal;font-weight:400;font-size:11.9559px;line-height:125%;font-family:Arial;text-align:start;letter-spacing:0px;word-spacing:0px;text-anchor:start;fill:#000000;fill-opacity:1;stroke:none;stroke-width:0.264583"
       x="-141.84001"
       y="228.19168"
       id="text23453"><tspan
         sodipodi:role="line"
         x="-141.84001"
         y="228.19168"
         id="tspan23451"
         style="stroke-width:0.264583"><tspan
           dx="0"
           dy="0"
           style="font-style:normal;font-variant:normal;font-weight:400;font-size:11.9559px;font-family:Arial;fill:#262626;stroke-width:0.264583"
           id="tspan23449">0.1</tspan></tspan></text>
    <text
       xml:space="preserve"
       style="font-style:normal;font-variant:normal;font-weight:400;font-size:11.9559px;line-height:125%;font-family:Arial;text-align:start;letter-spacing:0px;word-spacing:0px;text-anchor:start;fill:#000000;fill-opacity:1;stroke:none;stroke-width:0.264583"
       x="-141.84001"
       y="186.15834"
       id="text23459"><tspan
         sodipodi:role="line"
         x="-141.84001"
         y="186.15834"
         id="tspan23457"
         style="stroke-width:0.264583"><tspan
           dx="0"
           dy="0"
           style="font-style:normal;font-variant:normal;font-weight:400;font-size:11.9559px;font-family:Arial;fill:#262626;stroke-width:0.264583"
           id="tspan23455">0.2</tspan></tspan></text>
    <text
       xml:space="preserve"
       style="font-style:normal;font-variant:normal;font-weight:400;font-size:11.9559px;line-height:125%;font-family:Arial;text-align:start;letter-spacing:0px;word-spacing:0px;text-anchor:start;fill:#000000;fill-opacity:1;stroke:none;stroke-width:0.264583"
       x="-141.84001"
       y="144.44835"
       id="text23465"><tspan
         sodipodi:role="line"
         x="-141.84001"
         y="144.44835"
         id="tspan23463"
         style="stroke-width:0.264583"><tspan
           dx="0"
           dy="0"
           style="font-style:normal;font-variant:normal;font-weight:400;font-size:11.9559px;font-family:Arial;fill:#262626;stroke-width:0.264583"
           id="tspan23461">0.3</tspan></tspan></text>
    <text
       xml:space="preserve"
       style="font-style:normal;font-variant:normal;font-weight:400;font-size:11.9559px;line-height:125%;font-family:Arial;text-align:start;letter-spacing:0px;word-spacing:0px;text-anchor:start;fill:#000000;fill-opacity:1;stroke:none;stroke-width:0.264583"
       x="-141.84001"
       y="102.73835"
       id="text23471"><tspan
         sodipodi:role="line"
         x="-141.84001"
         y="102.73835"
         id="tspan23469"
         style="stroke-width:0.264583"><tspan
           dx="0"
           dy="0"
           style="font-style:normal;font-variant:normal;font-weight:400;font-size:11.9559px;font-family:Arial;fill:#262626;stroke-width:0.264583"
           id="tspan23467">0.4</tspan></tspan></text>
    <text
       xml:space="preserve"
       style="font-style:normal;font-variant:normal;font-weight:400;font-size:11.9559px;line-height:125%;font-family:Arial;text-align:start;letter-spacing:0px;word-spacing:0px;text-anchor:start;fill:#000000;fill-opacity:1;stroke:none;stroke-width:0.264583"
       x="-141.84001"
       y="60.705002"
       id="text23477"><tspan
         sodipodi:role="line"
         x="-141.84001"
         y="60.705002"
         id="tspan23475"
         style="stroke-width:0.264583"><tspan
           dx="0"
           dy="0"
           style="font-style:normal;font-variant:normal;font-weight:400;font-size:11.9559px;font-family:Arial;fill:#262626;stroke-width:0.264583"
           id="tspan23473">0.5</tspan></tspan></text>
    <text
       xml:space="preserve"
       style="font-style:normal;font-variant:normal;font-weight:400;font-size:13.2622px;line-height:125%;font-family:Arial;text-align:start;letter-spacing:0px;word-spacing:0px;text-anchor:start;fill:#000000;fill-opacity:1;stroke:none;stroke-width:0.264583"
       transform="rotate(-90)"
       x="-174.19501"
       y="-149.60001"
       id="text23501"><tspan
         sodipodi:role="line"
         x="-174.19501"
         y="-149.60001"
         id="tspan23499"
         style="stroke-width:0.264583"><tspan
           dx="0"
           dy="0"
           style="font-style:normal;font-variant:normal;font-weight:400;font-size:13.2622px;font-family:Arial;fill:#262626;stroke-width:0.264583"
           id="tspan23479">P</tspan><tspan
           dx="0"
           dy="0"
           style="font-style:normal;font-variant:normal;font-weight:400;font-size:13.2622px;font-family:Arial;fill:#262626;stroke-width:0.264583"
           id="tspan23481">o</tspan><tspan
           dx="0"
           dy="0"
           style="font-style:normal;font-variant:normal;font-weight:400;font-size:13.2622px;font-family:Arial;fill:#262626;stroke-width:0.264583"
           id="tspan23483">w</tspan><tspan
           dx="0"
           dy="0"
           style="font-style:normal;font-variant:normal;font-weight:400;font-size:13.2622px;font-family:Arial;fill:#262626;stroke-width:0.264583"
           id="tspan23485">e</tspan><tspan
           dx="0"
           dy="0"
           style="font-style:normal;font-variant:normal;font-weight:400;font-size:13.2622px;font-family:Arial;fill:#262626;stroke-width:0.264583"
           id="tspan23487">r</tspan><tspan
           dx="0"
           dy="0"
           style="font-style:normal;font-variant:normal;font-weight:400;font-size:13.2622px;font-family:Arial;fill:#262626;stroke-width:0.264583"
           id="tspan23489"> </tspan><tspan
           dx="0"
           dy="0"
           style="font-style:normal;font-variant:normal;font-weight:400;font-size:13.2622px;font-family:Arial;fill:#262626;stroke-width:0.264583"
           id="tspan23491">[</tspan><tspan
           dx="0"
           dy="0"
           style="font-style:normal;font-variant:normal;font-weight:400;font-size:13.2622px;font-family:Arial;fill:#262626;stroke-width:0.264583"
           id="tspan23493">k</tspan><tspan
           dx="0"
           dy="0"
           style="font-style:normal;font-variant:normal;font-weight:400;font-size:13.2622px;font-family:Arial;fill:#262626;stroke-width:0.264583"
           id="tspan23495">W</tspan><tspan
           dx="0"
           dy="0"
           style="font-style:normal;font-variant:normal;font-weight:400;font-size:13.2622px;font-family:Arial;fill:#262626;stroke-width:0.264583"
           id="tspan23497">]</tspan></tspan></text>
    <path
       style="fill:#000000;fill-opacity:1;fill-rule:nonzero;stroke:none;stroke-width:0.264583"
       d="m -120.9648,157.86667 c 1.13167,0 2.04104,0.90937 2.04104,2.04104 v 0 c 0,1.13167 -0.90937,2.04104 -2.04104,2.04104 -1.13166,0 -2.04104,-0.90937 -2.04104,-2.04104 0,-1.13167 0.90938,-2.04104 2.04104,-2.04104 z m 0,-0.22229 c -1.25291,0 -2.26333,1.01042 -2.26333,2.26333 0,1.25292 1.01042,2.26334 2.26333,2.26334 1.25292,0 2.26333,-1.01042 2.26333,-2.26334 v 0 c 0,-1.25291 -1.01041,-2.26333 -2.26333,-2.26333 z"
       id="path23503" />
    <path
       style="fill:#000000;fill-opacity:1;fill-rule:nonzero;stroke:none;stroke-width:0.264583"
       d="m -51.953337,123.14875 c 1.13166,0 2.06125,0.92959 2.06125,2.04105 v 0 c 0,1.13166 -0.92959,2.06125 -2.06125,2.06125 -1.13167,0 -2.04104,-0.92959 -2.04104,-2.06125 0,-1.11146 0.90937,-2.04105 2.04104,-2.04105 z m 0,-0.22229 c -1.25292,0 -2.26334,1.03063 -2.26334,2.26334 0,1.25291 1.01042,2.26333 2.26334,2.26333 1.25291,0 2.26333,-1.01042 2.26333,-2.26333 v 0 c 0,-1.23271 -1.01042,-2.26334 -2.26333,-2.26334 z"
       id="path23505" />
    <path
       style="fill:#000000;fill-opacity:1;fill-rule:nonzero;stroke:none;stroke-width:0.264583"
       d="m 15.360613,90.532501 c 1.13167,0 2.04105,0.909373 2.04105,2.041036 v 0 c 0,1.13167 -0.90938,2.06125 -2.04105,2.06125 -1.13166,0 -2.04104,-0.92958 -2.04104,-2.06125 0,-1.131663 0.90938,-2.041036 2.04104,-2.041036 z m 0,-0.222292 c -1.25291,0 -2.26333,1.030623 -2.26333,2.263328 0,1.25292 1.01042,2.26334 2.26333,2.26334 1.25292,0 2.26334,-1.01042 2.26334,-2.26334 v 0 c 0,-1.232705 -1.01042,-2.263328 -2.26334,-2.263328 z"
       id="path23507" />
    <path
       style="fill:#000000;fill-opacity:1;fill-rule:nonzero;stroke:none;stroke-width:0.264583"
       d="m 82.816033,62.523749 c 1.13168,0 2.04105,0.909376 2.04105,2.041044 v 0 c 0,1.131665 -0.90937,2.04104 -2.04105,2.04104 -1.13167,0 -2.04104,-0.909375 -2.04104,-2.04104 0,-1.131668 0.90937,-2.041044 2.04104,-2.041044 z m 0,-0.222289 c -1.2529,0 -2.26332,1.010414 -2.26332,2.263333 0,1.252916 1.01042,2.263333 2.26332,2.263333 1.25291,0 2.26333,-1.010417 2.26333,-2.263333 v 0 c 0,-1.252919 -1.01042,-2.263333 -2.26333,-2.263333 z"
       id="path23509" />
    <path
       style="fill:#000000;fill-opacity:1;fill-rule:nonzero;stroke:none;stroke-width:0.264583"
       d="m 152.02958,42.0325 c 1.13165,0 2.06124,0.909376 2.06124,2.041041 v 0 c 0,1.131668 -0.92959,2.041044 -2.06124,2.041044 -1.13168,0 -2.04105,-0.909376 -2.04105,-2.041044 0,-1.131665 0.90937,-2.041041 2.04105,-2.041041 z m 0,-0.222292 c -1.25293,0 -2.26335,1.010417 -2.26335,2.263333 0,1.252919 1.01042,2.263333 2.26335,2.263333 1.25291,0 2.26332,-1.010414 2.26332,-2.263333 v 0 c 0,-1.252916 -1.01041,-2.263333 -2.26332,-2.263333 z"
       id="path23511" />
    <path
       style="fill:#000000;fill-opacity:1;fill-rule:nonzero;stroke:none;stroke-width:0.264583"
       d="m 217.24186,32.413332 c 1.13167,0 2.04105,0.909376 2.04105,2.041044 v 0 c 0,1.131665 -0.90938,2.041041 -2.04105,2.041041 -1.13165,0 -2.06124,-0.909376 -2.06124,-2.041041 0,-1.131668 0.92959,-2.041044 2.06124,-2.041044 z m 0,-0.222289 c -1.25291,0 -2.26333,1.010414 -2.26333,2.263333 0,1.252916 1.01042,2.263333 2.26333,2.263333 1.25293,0 2.26335,-1.010417 2.26335,-2.263333 v 0 c 0,-1.252919 -1.01042,-2.263333 -2.26335,-2.263333 z"
       id="path23513" />
    <path
       style="fill:#000000;fill-opacity:1;fill-rule:nonzero;stroke:none;stroke-width:0.264583"
       d="m 287.34456,34.070418 c 1.13168,0 2.04105,0.929582 2.04105,2.06125 v 0 c 0,1.131665 -0.90937,2.04104 -2.04105,2.04104 -1.13165,0 -2.04102,-0.909375 -2.04102,-2.04104 0,-1.131668 0.90937,-2.06125 2.04102,-2.06125 z m 0,-0.202084 c -1.25291,0 -2.26332,1.010415 -2.26332,2.263334 0,1.252915 1.01041,2.263333 2.26332,2.263333 1.25293,0 2.26335,-1.010418 2.26335,-2.263333 v 0 c 0,-1.252919 -1.01042,-2.263334 -2.26335,-2.263334 z"
       id="path23515" />
    <path
       style="fill:none;stroke:#000000;stroke-width:1.29333px;stroke-linecap:butt;stroke-linejoin:round;stroke-miterlimit:4;stroke-dasharray:none;stroke-opacity:1"
       d="m -120.9648,162.73688 0.40417,-0.26271 0.40416,-0.26271 0.42438,-0.26271 0.40417,-0.2627 0.40416,-0.26271 0.40417,-0.26271 0.40417,-0.2425 0.42437,-0.26271 0.40417,-0.26271 0.40417,-0.26271 0.40416,-0.26271 0.40417,-0.2627 0.42437,-0.26271 0.40417,-0.2425 0.40417,-0.26271 0.40416,-0.26271 0.40417,-0.26271 0.42438,-0.2627 0.40416,-0.24251 0.40417,-0.2627 0.40416,-0.26271 0.40417,-0.26271 0.42438,-0.2425 0.40416,-0.26271 0.40417,-0.26271 0.40417,-0.2425 0.40416,-0.26271 0.42438,-0.2627 0.40416,-0.2425 0.40417,-0.26271 0.40417,-0.2425 0.40417,-0.26271 0.42437,-0.26271 0.40417,-0.2425 0.40416,-0.26271 0.40417,-0.2425 0.42437,-0.2627 0.40417,-0.24251 0.40417,-0.2627 0.40417,-0.2425 0.40416,-0.26271 0.42438,-0.2425 0.40416,-0.26271 0.40417,-0.2425 0.40417,-0.2425 0.40416,-0.26271 0.42438,-0.2425 0.40416,-0.26271 0.40417,-0.2425 0.40416,-0.2425 0.40417,-0.26271 0.424383,-0.24249 0.40416,-0.24251 0.40417,-0.24249 0.40417,-0.26271 0.40416,-0.2425 0.42438,-0.2425 0.40416,-0.26271 0.40417,-0.2425 0.40417,-0.2425 0.40416,-0.2425 0.42438,-0.2425 0.40417,-0.26271 0.40416,-0.2425 0.40417,-0.2425 0.40417,-0.2425 0.42437,-0.2425 0.40417,-0.2425 0.40417,-0.2425 0.40416,-0.2425 0.40417,-0.2425 0.42437,-0.26271 0.40417,-0.2425 0.40417,-0.2425 0.40416,-0.2425 0.42438,-0.2425 0.40417,-0.2425 0.40416,-0.2425 0.40417,-0.2425 0.40416,-0.22229 0.42438,-0.2425 0.40417,-0.2425 0.40416,-0.2425 0.40417,-0.2425 0.40417,-0.2425 0.42437,-0.2425 0.40417,-0.2425 0.40416,-0.2425 0.40417,-0.22229 0.40417,-0.2425 0.42437,-0.2425 0.40417,-0.2425 0.40417,-0.2425 0.40416,-0.22229 0.40417,-0.2425 0.42437,-0.2425 0.40417,-0.2425 0.40417,-0.22229 0.40417,-0.24251 0.40416,-0.24249 0.42438,-0.2223 0.40416,-0.2425 0.40417,-0.2425 0.40417,-0.22229 0.40416,-0.2425 0.42438,-0.22229 0.40417,-0.2425 0.40416,-0.2425 0.40417,-0.22229 0.40416,-0.2425 0.42438,-0.22229 0.40417,-0.2425 0.40416,-0.22229 0.40417,-0.2425 0.40417,-0.2223 0.42437,-0.2425 0.40417,-0.22229 0.40416,-0.2425 0.40417,-0.22229 0.42438,-0.2425 0.40416,-0.22229 0.40417,-0.22229 0.40417,-0.2425 0.40416,-0.2223 0.42438,-0.22229 0.40416,-0.2425 0.40417,-0.22229 0.40417,-0.22229 0.40417,-0.2425 0.42437,-0.22229 0.40417,-0.22229 0.40416,-0.2425 0.40417,-0.2223 0.40417,-0.22229 0.42437,-0.22229 0.40417,-0.2425 0.40417,-0.22229 0.40416,-0.22229 0.40417,-0.22229 0.42437,-0.2223 0.40417,-0.22229 0.40417,-0.22229 0.40416,-0.2425 0.40417,-0.22229 0.42437,-0.22229 0.40417,-0.22229 0.40417,-0.2223 0.40416,-0.22229 0.40417,-0.22229 0.42438,-0.22229 0.40416,-0.22229 0.40417,-0.22229 0.40417,-0.22229 0.40416,-0.2223 0.42438,-0.22229 0.40417,-0.22229 0.40416,-0.22229 0.40417,-0.22229 0.42437,-0.2223 0.40417,-0.22229 0.40417,-0.20208 0.40416,-0.22229 0.40417,-0.22229 0.42438,-0.2223 0.40416,-0.22229 0.40417,-0.22229 0.40417,-0.20208 0.40416,-0.22229 0.42438,-0.2223 v 0 l 0.40416,-0.22229 0.40417,-0.20208 0.40417,-0.22229 0.40416,-0.22229 0.42438,-0.2223 0.40416,-0.20208 0.40417,-0.22229 0.40417,-0.22229 0.40416,-0.20208 0.42438,-0.2223 0.40417,-0.22229 0.40416,-0.20208 0.40417,-0.22229 0.40417,-0.20209 0.42437,-0.22229 0.40417,-0.22229 0.40417,-0.20208 0.40416,-0.22229 0.40417,-0.20209 0.42437,-0.22229 0.40417,-0.20208 0.40417,-0.2223 0.40416,-0.20208 0.40417,-0.22229 0.42438,-0.20208 0.40416,-0.20209 0.40417,-0.22229 0.40416,-0.20208 0.42438,-0.22229 0.40417,-0.20209 0.40416,-0.20208 0.40417,-0.22229 0.40417,-0.20208 0.42437,-0.20209 0.40417,-0.22229 0.40416,-0.20208 0.40417,-0.20209 0.40417,-0.22229 0.42437,-0.20208 0.40417,-0.20209 0.40417,-0.20208 0.40416,-0.20208 0.40417,-0.22229 0.42437,-0.20209 0.40417,-0.20208 0.40417,-0.20208 0.40417,-0.20209 0.40416,-0.22229 0.42438,-0.20208 0.40416,-0.20209 0.40417,-0.20208 0.40417,-0.20208 0.40416,-0.20209 0.42438,-0.20208 0.40417,-0.20208 0.40416,-0.20209 0.40417,-0.20208 0.40416,-0.20208 0.42438,-0.20208 0.40417,-0.20209 0.40416,-0.20208 0.40417,-0.20208 0.40417,-0.20209 0.42437,-0.20208 0.40417,-0.20208 0.40416,-0.20209 0.40417,-0.20208 0.42438,-0.18188 0.40416,-0.20208 0.40417,-0.20208 0.40417,-0.20209 0.40416,-0.20208 0.42438,-0.20208 0.40416,-0.18188 0.40417,-0.20208 0.40417,-0.20208 0.40417,-0.20209 0.42437,-0.20208 0.40417,-0.18188 0.40416,-0.20208 0.40417,-0.20208 0.40417,-0.18188 0.42437,-0.20208 0.40417,-0.20208 0.40417,-0.18188 0.40416,-0.20208 0.40417,-0.20209 0.42437,-0.18187 0.40417,-0.20208 0.40417,-0.18188 0.40416,-0.20208 0.40417,-0.18188 0.42437,-0.20208 0.40417,-0.20208 0.40417,-0.18188 0.40416,-0.20208 0.40417,-0.18188 0.42438,-0.20208 0.40416,-0.18188 0.40417,-0.18187 0.40417,-0.20209 0.40416,-0.18187 0.4243803,-0.20208 0.40416,-0.18188 0.40417,-0.20208 0.40417,-0.18188 0.40417,-0.18187 0.42437,-0.20208 0.40417,-0.18188 0.40416,-0.181883 0.40417,-0.20208 0.42438,-0.18187 0.40416,-0.18188 0.40417,-0.18187 0.40417,-0.20209 0.40416,-0.18187 0.42438,-0.18188 0.40416,-0.18187 0.40417,-0.20209 0.40417,-0.18187 0.40416,-0.18188 0.42438,-0.18187 0.40416,-0.18187 0.40417,-0.18188 0.40417003,-0.18187 0.40416,-0.20209 0.42438,-0.18187 0.40417,-0.18188 0.40416,-0.18187 0.40416997,-0.18188 0.40417,-0.18187 0.42437,-0.18188 0.40417,-0.18187 0.40417,-0.18188 0.40416,-0.18187 0.40417,-0.18188 0.42437,-0.18187 0.40417,-0.18188 0.40417,-0.18187 0.40416,-0.18188 0.40417,-0.18187 0.42438,-0.16167 0.40416,-0.18187 0.40417,-0.18188 0.40416,-0.18188 0.40417,-0.18187 0.42438,-0.18188 0.40416,-0.18187 0.40417,-0.16167 0.40417,-0.18187 0.42437,-0.181877 0.4041697,-0.181875 0.40416,-0.161666 0.40417,-0.181874 0.40417,-0.181877 0.42437,-0.181875 0.40417,-0.161666 0.40417,-0.181874 0.40416,-0.181875 0.40417,-0.161668 0.42437,-0.181875 0.40417,-0.181874 0.40417,-0.161666 0.40417,-0.181877 0.36374,-0.141457 0.0404,-0.02021 0.42438,-0.181875 0.40416,-0.181874 0.40417,-0.161669 0.40417,-0.181874 0.40416,-0.161666 0.42438,-0.181874 0.40417,-0.161669 0.40416,-0.181874 0.40417,-0.161666 0.40416,-0.181875 0.42438,-0.161668 0.40417,-0.161666 0.40416,-0.181874 0.40417,-0.161669 0.40417,-0.181874 0.42437,-0.161666 0.40417,-0.161666 0.40416,-0.181877 0.40417,-0.161666 0.40417,-0.161665 0.42437,-0.181878 0.40417,-0.161665 0.40417,-0.161666 0.40416,-0.181875 0.42438,-0.161668 0.40416,-0.161666 0.40417,-0.161668 0.40417,-0.181875 0.40417,-0.161665 0.42437,-0.161666 0.40417,-0.161668 0.40416,-0.161666 0.40417,-0.161666 0.40417,-0.181877 0.42437,-0.161666 0.40417,-0.161665 0.40417,-0.161669 0.40416,-0.161665 0.40417,-0.161666 0.42437,-0.161669 0.40417,-0.161665 0.40417,-0.161669 0.40416,-0.161665 0.40417,-0.161666 0.42437,-0.161668 0.40417,-0.161666 0.40417,-0.161666 0.40416,-0.161668 0.40417,-0.161666 0.42438,-0.161666 0.40416,-0.161668 0.40417,-0.161666 0.40417,-0.161668 0.40416,-0.161666 0.42438,-0.161665 0.40416,-0.14146 0.40417,-0.161666 0.40417,-0.161668 0.40417,-0.161666 0.42437,-0.161665 0.40417,-0.14146 0.40416,-0.161666 0.40417,-0.161668 0.42438,-0.161666 0.40416,-0.141456 0.40417,-0.161669 0.40417,-0.161665 0.40416,-0.161669 0.42438,-0.141457 0.40416,-0.161665 0.40417,-0.161669 0.40417,-0.141457 0.40416,-0.161668 0.42438,-0.141457 0.40416,-0.161668 0.40417,-0.161666 0.40417,-0.141459 0.40416,-0.161666 0.42438,-0.141459 0.40417,-0.161666 0.40416,-0.141457 0.40417,-0.161668 0.40417,-0.141457 0.42437,-0.161669 0.40417,-0.141456 0.40417,-0.161669 0.40416,-0.141457 0.40417,-0.161668 0.42437,-0.141457 0.40417,-0.141459 0.40417,-0.161666 0.40416,-0.141459 0.40417,-0.161666 0.42438,-0.14146 0.40416,-0.141456 0.40417,-0.161669 0.40417,-0.141457 0.40416,-0.141459 0.42438,-0.141457 0.40416,-0.161668 0.40417,-0.141457 0.40417,-0.14146 0.40416,-0.141456 0.42438,-0.161669 0.40416,-0.141457 0.40417,-0.141459 0.40417,-0.141457 0.42437,-0.141459 0.40417,-0.161666 0.40417,-0.14146 0.40416,-0.141456 0.40417,-0.14146 0.42437,-0.141459 0.40417,-0.141457 0.40417,-0.14146 0.40418,-0.141457 0.40415,-0.141459 0.42439,-0.141457 0.40415,-0.141459 0.40418,-0.14146 0.40415,-0.141457 0.40418,-0.141459 0.42436,-0.141457 0.40418,-0.141459 0.40415,-0.141457 0.40418,-0.14146 0.40417,-0.141459 0.42437,-0.141457 0.40418,-0.14146 0.40415,-0.141456 0.40418,-0.14146 0.40415,-0.12125 0.42439,-0.141457 0.40415,-0.14146 0.40418,-0.141457 0.40417,-0.141459 0.40416,-0.121251 0.42436,-0.141457 0.40418,-0.141459 0.40418,-0.141457 0.40415,-0.12125 0.40417,-0.14146 0.42437,-0.141457 0.40418,-0.141459 0.40415,-0.121251 0.40418,-0.141457 0.42436,-0.12125 0.40418,-0.141457 0.40418,-0.14146 0.40415,-0.12125 0.40417,-0.141457 0.42437,-0.14146 0.40418,-0.12125 0.40415,-0.141457 0.40418,-0.121251 0.40415,-0.141459 0.42439,-0.121248 0.40415,-0.141459 0.40418,-0.121251 0.40417,-0.141457 0.40416,-0.121251 0.42439,-0.141459 0.40415,-0.121248 0.40418,-0.121251 0.40415,-0.141459 h 0.0404 l 0.36375,-0.121251 0.42437,-0.141456 0.40418,-0.121251 0.40415,-0.121251 0.40418,-0.141457 0.40417,-0.12125 0.42437,-0.121251 0.40418,-0.141457 0.40415,-0.12125 0.40417,-0.121251 0.40415,-0.141457 0.4244,-0.12125 0.40415,-0.121251 0.40418,-0.12125 0.40417,-0.121248 0.40415,-0.14146 0.42437,-0.12125 0.40418,-0.121251 0.40417,-0.121248 0.40415,-0.121251 0.4244,-0.12125 0.40415,-0.141457 0.40418,-0.121251 0.40415,-0.12125 0.40417,-0.121251 0.42437,-0.12125 0.40418,-0.121248 0.40417,-0.121251 0.40415,-0.121251 0.40418,-0.12125 0.42437,-0.121248 0.40418,-0.121251 0.40415,-0.12125 0.40417,-0.121251 0.40415,-0.121251 0.4244,-0.121248 0.40415,-0.12125 0.40417,-0.121251 0.40418,-0.12125 0.40415,-0.101042 0.4244,-0.121248 0.40415,-0.121251 0.404167,-0.12125 0.40415,-0.121251 0.40418,-0.121248 0.42437,-0.101042 0.40417,-0.12125 0.40416,-0.121251 0.40417,-0.12125 0.40418,-0.121248 0.42437,-0.101042 0.40417,-0.121251 0.40415,-0.12125 0.40418,-0.101042 0.40415,-0.121251 0.42439,-0.12125 0.40416,-0.101042 0.40417,-0.121248 0.40418,-0.121251 0.42437,-0.101041 0.40415,-0.121251 0.40417,-0.101042 0.40418,-0.12125 0.40415,-0.121248 0.42439,-0.101042 0.40416,-0.12125 0.40417,-0.101042 0.40415,-0.121251 0.40418,-0.101042 0.42437,-0.12125 0.40417,-0.101042 0.40418,-0.121248 0.40415,-0.101042 0.40418,-0.12125 0.42437,-0.101042 0.40417,-0.101042 0.40415,-0.12125 0.40418,-0.101042 0.40415,-0.121251 0.42439,-0.101041 0.40416,-0.101039 0.40417,-0.121251 0.40418,-0.101042 0.40415,-0.101041 0.42439,-0.101042 0.40415,-0.121251 0.40418,-0.101042 0.40415,-0.101041 0.40418,-0.101042 0.42437,-0.121251 0.40417,-0.101041 0.40415,-0.101042 0.40418,-0.101042 0.40418,-0.101041 0.42436,-0.121248 0.40418,-0.101042 0.40415,-0.101042 0.40418,-0.101042 0.40415,-0.101041 0.42439,-0.101042 0.40415,-0.101042 0.40418,-0.101042 0.40418,-0.101041 0.42436,-0.101042 0.40416,-0.101042 0.40417,-0.101041 0.40418,-0.101042 0.40415,-0.101042 0.42439,-0.101042 0.40415,-0.101041 0.40418,-0.101042 0.40415,-0.101042 0.40418,-0.101042 0.42437,-0.101041 0.40417,-0.101042 0.40418,-0.101042 0.40415,-0.101041 0.40418,-0.08083 0.42436,-0.101042 0.40418,-0.101042 0.40415,-0.101042 0.40418,-0.101041 0.40415,-0.101042 0.42439,-0.08083 0.40415,-0.101042 0.40418,-0.101041 0.40418,-0.101042 0.40415,-0.08083 0.42439,-0.101042 0.40415,-0.101041 0.40418,-0.08083 0.40415,-0.101042 0.40418,-0.101042 0.42436,-0.08083 0.40418,-0.101041 0.40415,-0.08084 0.40418,-0.101041 0.40418,-0.101042 0.42436,-0.08083 0.40418,-0.101042 0.40415,-0.08083 0.40418,-0.101041 0.42436,-0.08083 0.40418,-0.101042 0.40415,-0.08083 0.40418,-0.101042 0.40418,-0.08083 0.42436,-0.101042 0.40415,-0.08084 0.40418,-0.101039 0.40418,-0.08084 0.40415,-0.08083 0.42439,-0.101042 0.40415,-0.08083 0.40418,-0.101041 0.40415,-0.08083 0.40418,-0.08083 0.42436,-0.101042 0.40418,-0.08084 0.40418,-0.08083 0.40415,-0.08083 0.40418,-0.101042 0.42436,-0.08083 0.40418,-0.08083 0.40415,-0.08083 0.40418,-0.101042 0.40415,-0.08084 0.42439,-0.08083 0.40415,-0.08083 0.24252,-0.06062 0.16166,-0.02021 0.40418,-0.101042 0.40415,-0.08083 0.42439,-0.08083 0.40415,-0.08084 0.40418,-0.08083 0.40415,-0.08083 0.40418,-0.08083 0.42436,-0.08083 0.40418,-0.08084 0.40415,-0.08083 0.40418,-0.08083 0.42436,-0.08083 0.40418,-0.08083 0.40418,-0.08083 0.40415,-0.08084 0.40418,-0.08083 0.42436,-0.08083 0.40418,-0.08083 0.40415,-0.08083 0.40418,-0.08084 0.40418,-0.08083 0.42436,-0.08083 0.40415,-0.08083 0.40418,-0.06062 0.40418,-0.08084 0.40415,-0.08083 0.42439,-0.08083 0.40415,-0.08083 0.40418,-0.06063 0.40415,-0.08083 0.40418,-0.08083 0.42436,-0.08083 0.40418,-0.06062 0.40418,-0.08084 0.40415,-0.08083 0.40418,-0.06062 0.42436,-0.08083 0.40418,-0.08084 0.40415,-0.06062 0.40418,-0.08083 0.40415,-0.08083 0.42439,-0.06063 0.40415,-0.08083 0.40418,-0.06062 0.40418,-0.08083 0.40415,-0.08084 0.42439,-0.06062 0.40415,-0.08083 0.40418,-0.06063 0.40415,-0.08083 0.42439,-0.06062 0.40415,-0.08083 0.40418,-0.06063 0.40415,-0.08083 0.40418,-0.06062 0.42436,-0.06063 0.40418,-0.08083 0.40418,-0.06062 0.40415,-0.08083 0.40418,-0.06063 0.42436,-0.06062 0.40418,-0.08083 0.40415,-0.06063 0.40418,-0.06062 0.40417,-0.08083 0.42437,-0.06063 0.40415,-0.06062 0.40418,-0.06063 0.40418,-0.08083 0.40415,-0.06062 0.42439,-0.06062 0.40415,-0.06063 0.40418,-0.08083 0.40415,-0.06062 0.40418,-0.06063 0.42436,-0.06062 0.40418,-0.06063 0.40418,-0.06062 0.40415,-0.06062 0.40417,-0.08084 0.42437,-0.06062 0.40418,-0.06062 0.40415,-0.06063 0.40418,-0.06062 0.40415,-0.06062 0.42439,-0.06063 0.40415,-0.06062 0.40418,-0.06063 0.40417,-0.06062 0.42437,-0.06062 0.40418,-0.06063 0.40415,-0.06062 0.40418,-0.06063 0.40415,-0.06062 0.42439,-0.06062 0.40415,-0.04042 0.40418,-0.06062 0.40415,-0.06063 0.40418,-0.06062 0.42436,-0.06062 0.40418,-0.06063 0.40418,-0.06062 0.40415,-0.04042 0.40417,-0.06062 0.42437,-0.06063 0.40418,-0.06062 0.40415,-0.04042 0.40418,-0.06062 0.40417,-0.06062 0.42437,-0.06063 0.40415,-0.04041 0.40418,-0.06063 0.40417,-0.06062 0.40415,-0.04042 0.4244,-0.06062 0.40415,-0.06062 0.40418,-0.04042 0.40415,-0.06062 0.40417,-0.04042 0.42437,-0.06062 0.40418,-0.06063 0.40417,-0.04041 0.40415,-0.06063 0.40418,-0.04042 0.42437,-0.06063 0.40418,-0.04041 0.40415,-0.06063 0.40417,-0.04041 0.40415,-0.06063 0.4244,-0.04041 0.40415,-0.04042 0.40417,-0.06062 0.40418,-0.04042 0.42437,-0.06062 0.40418,-0.04042 0.40415,-0.04041 0.40417,-0.06063 0.40415,-0.04041 0.4244,-0.04042 0.40415,-0.06062 0.40417,-0.04042 0.40416,-0.04042 0.40417,-0.06062 0.42437,-0.04042 0.40418,-0.04042 0.40417,-0.04042 0.40415,-0.06062 0.40418,-0.04042 0.42437,-0.04042 0.40417,-0.04042 0.40416,-0.04042 0.40417,-0.04042 0.40418,-0.06062 0.42437,-0.04042 0.40415,-0.04042 0.40417,-0.04042 0.40418,-0.04042 0.40415,-0.04042 0.42439,-0.04042 0.12124,-0.02021 0.28292,-0.02021 0.40417,-0.04042 0.40415,-0.04042 0.40418,-0.04042 0.42437,-0.04042 0.40417,-0.04042 0.40418,-0.04041 0.40415,-0.04042 0.40418,-0.04042 0.42437,-0.04042 0.40417,-0.04042 0.40415,-0.04042 0.40418,-0.04042 0.42437,-0.04042 0.40417,-0.02021 0.40416,-0.04042 0.40417,-0.04041 0.40418,-0.04042 0.42437,-0.04042 0.40417,-0.04042 0.40415,-0.02021 0.40418,-0.04042 0.40415,-0.04042 0.42439,-0.04042 0.40416,-0.02021 0.40417,-0.04042 0.40415,-0.04042 0.40418,-0.02021 0.42437,-0.04042 0.40417,-0.04042 0.40418,-0.02021 0.40415,-0.04042 0.40418,-0.04042 0.42437,-0.02021 0.40417,-0.04042 0.40415,-0.02021 0.40418,-0.04042 0.40418,-0.04042 0.42436,-0.02021 0.40416,-0.04041 0.40417,-0.02021 0.40418,-0.04042 0.40415,-0.02021 0.42439,-0.04042 0.40415,-0.02021 0.40418,-0.04042 0.40415,-0.02021 0.40418,-0.02021 0.42437,-0.04042 0.40417,-0.02021 0.40418,-0.04042 0.40415,-0.02021 0.42437,-0.02021 0.40417,-0.04041 0.40418,-0.02021 0.40415,-0.02021 0.40418,-0.04041 0.42437,-0.02021 0.40417,-0.02021 0.40415,-0.04042 0.40418,-0.02021 0.40418,-0.02021 0.42436,-0.02021 0.40418,-0.02021 0.40415,-0.04042 0.40418,-0.02021 0.40415,-0.02021 0.42439,-0.02021 0.40415,-0.02021 0.40418,-0.04042 0.40415,-0.02021 0.40418,-0.02021 0.42437,-0.02021 0.40417,-0.02021 0.40418,-0.02021 0.40415,-0.02021 0.40418,-0.02021 0.42436,-0.02021 0.40418,-0.02021 0.40415,-0.02021 0.40418,-0.02021 0.40418,-0.02021 0.42436,-0.02021 0.40415,-0.02021 0.40418,-0.02021 0.40418,-0.02021 0.40415,-0.02021 0.42439,-0.02021 0.40415,-0.02021 h 0.40418 l 0.40415,-0.02021 0.42439,-0.02021 0.40415,-0.02021 0.40418,-0.02021 0.40418,-0.02021 h 0.40415 l 0.42437,-0.02021 0.40417,-0.02021 0.40418,-0.02021 h 0.40415 l 0.40418,-0.02021 0.42436,-0.02021 0.40418,-0.02021 h 0.40415 l 0.40418,-0.02021 0.40418,-0.02021 h 0.42436 l 0.40418,-0.02021 h 0.40415 l 0.40418,-0.02021 0.40415,-0.02021 h 0.42439 l 0.40415,-0.02021 h 0.40418 l 0.40415,-0.02021 h 0.40418 l 0.42436,-0.02021 h 0.40418 l 0.40418,-0.02021 h 0.40415 l 0.40418,-0.02021 h 0.42436 l 0.40418,-0.02021 h 0.40415 l 0.40418,-0.02021 h 0.40418 0.42436 l 0.40415,-0.02021 h 0.40418 0.40418 l 0.40415,-0.02021 h 0.42439 0.40415 l 0.40418,-0.02021 h 0.40415 0.42439 0.40415 l 0.40418,-0.02021 h 0.40418 0.40415 0.42436 0.40418 l 0.40418,-0.02021 h 0.40415 0.40418 0.42436 0.40418 0.40415 0.40418 0.40418 l 0.42436,-0.02021 h 0.40418 0.40415 0.40418 0.40415 0.42439 0.40415 0.40418 0.40415 0.40418 l 0.42436,0.02021 h 0.40418 0.40418 0.40415 0.40418 0.42436 0.40418 0.40415 l 0.40418,0.02021 h 0.40417 0.42437 0.40415"
       id="path23517" />
    <path
       style="fill:#000000;fill-opacity:1;fill-rule:nonzero;stroke:none;stroke-width:0.264583"
       d="m -120.9648,222.6748 c 1.13167,0 2.04104,0.92958 2.04104,2.04104 v 0 c 0,1.13166 -0.90937,2.06125 -2.04104,2.06125 -1.13166,0 -2.04104,-0.92959 -2.04104,-2.06125 0,-1.11146 0.90938,-2.04104 2.04104,-2.04104 z m 0,-0.2223 c -1.25291,0 -2.26333,1.03063 -2.26333,2.26334 0,1.25291 1.01042,2.26333 2.26333,2.26333 1.25292,0 2.26333,-1.01042 2.26333,-2.26333 v 0 c 0,-1.23271 -1.01041,-2.26334 -2.26333,-2.26334 z"
       id="path23519" />
    <path
       style="fill:#000000;fill-opacity:1;fill-rule:nonzero;stroke:none;stroke-width:0.264583"
       d="m -51.953337,190.05854 c 1.13166,0 2.06125,0.90938 2.06125,2.04105 v 0 c 0,1.13166 -0.92959,2.06125 -2.06125,2.06125 -1.13167,0 -2.04104,-0.92959 -2.04104,-2.06125 0,-1.13167 0.90937,-2.04105 2.04104,-2.04105 z m 0,-0.22229 c -1.25292,0 -2.26334,1.03063 -2.26334,2.26334 0,1.25291 1.01042,2.26333 2.26334,2.26333 1.25291,0 2.26333,-1.01042 2.26333,-2.26333 v 0 c 0,-1.23271 -1.01042,-2.26334 -2.26333,-2.26334 z"
       id="path23521" />
    <path
       style="fill:#000000;fill-opacity:1;fill-rule:nonzero;stroke:none;stroke-width:0.264583"
       d="m 15.360613,159.94813 c 1.13167,0 2.04105,0.92958 2.04105,2.04104 v 0 c 0,1.13167 -0.90938,2.06125 -2.04105,2.06125 -1.13166,0 -2.04104,-0.92958 -2.04104,-2.06125 0,-1.11146 0.90938,-2.04104 2.04104,-2.04104 z m 0,-0.22229 c -1.25291,0 -2.26333,1.03062 -2.26333,2.26333 0,1.25292 1.01042,2.26333 2.26333,2.26333 1.25292,0 2.26334,-1.01041 2.26334,-2.26333 v 0 c 0,-1.23271 -1.01042,-2.26333 -2.26334,-2.26333 z"
       id="path23523" />
    <path
       style="fill:#000000;fill-opacity:1;fill-rule:nonzero;stroke:none;stroke-width:0.264583"
       d="m 82.816033,134.44521 c 1.13168,0 2.04105,0.90938 2.04105,2.04104 v 0 c 0,1.13167 -0.90937,2.06125 -2.04105,2.06125 -1.13167,0 -2.04104,-0.92958 -2.04104,-2.06125 0,-1.13166 0.90937,-2.04104 2.04104,-2.04104 z m 0,-0.22229 c -1.2529,0 -2.26332,1.01042 -2.26332,2.26333 0,1.25292 1.01042,2.26334 2.26332,2.26334 1.25291,0 2.26333,-1.01042 2.26333,-2.26334 v 0 c 0,-1.25291 -1.01042,-2.26333 -2.26333,-2.26333 z"
       id="path23525" />
    <path
       style="fill:#000000;fill-opacity:1;fill-rule:nonzero;stroke:none;stroke-width:0.264583"
       d="m 152.02958,116.45979 c 1.13165,0 2.06124,0.90938 2.06124,2.04105 v 0 c 0,1.13166 -0.92959,2.06125 -2.06124,2.06125 -1.13168,0 -2.04105,-0.92959 -2.04105,-2.06125 0,-1.13167 0.90937,-2.04105 2.04105,-2.04105 z m 0,-0.22229 c -1.25293,0 -2.26335,1.03063 -2.26335,2.26334 0,1.25291 1.01042,2.26333 2.26335,2.26333 1.25291,0 2.26332,-1.01042 2.26332,-2.26333 v 0 c 0,-1.23271 -1.01041,-2.26334 -2.26332,-2.26334 z"
       id="path23527" />
    <path
       style="fill:#000000;fill-opacity:1;fill-rule:nonzero;stroke:none;stroke-width:0.264583"
       d="m 217.24186,108.51792 c 1.13167,0 2.04105,0.90937 2.04105,2.04104 v 0 c 0,1.13167 -0.90938,2.06125 -2.04105,2.06125 -1.13165,0 -2.06124,-0.92958 -2.06124,-2.06125 0,-1.13167 0.92959,-2.04104 2.06124,-2.04104 z m 0,-0.22229 c -1.25291,0 -2.26333,1.01041 -2.26333,2.26333 0,1.25292 1.01042,2.26334 2.26333,2.26334 1.25293,0 2.26335,-1.01042 2.26335,-2.26334 v 0 c 0,-1.25292 -1.01042,-2.26333 -2.26335,-2.26333 z"
       id="path23529" />
    <path
       style="fill:#000000;fill-opacity:1;fill-rule:nonzero;stroke:none;stroke-width:0.264583"
       d="m 287.34456,109.77084 c 1.13168,0 2.04105,0.90937 2.04105,2.04104 v 0 c 0,1.13167 -0.90937,2.06125 -2.04105,2.06125 -1.13165,0 -2.04102,-0.92958 -2.04102,-2.06125 0,-1.13167 0.90937,-2.04104 2.04102,-2.04104 z m 0,-0.2223 c -1.25291,0 -2.26332,1.01042 -2.26332,2.26334 0,1.25291 1.01041,2.26333 2.26332,2.26333 1.25293,0 2.26335,-1.01042 2.26335,-2.26333 v 0 c 0,-1.25292 -1.01042,-2.26334 -2.26335,-2.26334 z"
       id="path23531" />
    <path
       style="fill:#000000;fill-opacity:1;fill-rule:nonzero;stroke:none;stroke-width:0.264583"
       d="m -115.08417,224.31167 0.16166,-0.0808 0.40417,-0.2425 0.40417,-0.2425 0.42437,-0.2425 0.40417,-0.2425 0.40416,-0.2223 0.0404,-0.0202 -0.64666,-1.13167 -0.0404,0.0202 -0.42438,0.2425 -0.40416,0.2425 -0.40417,0.2425 -0.40416,0.2425 -0.40417,0.2425 -0.16167,0.0808 z m 3.35458,-1.96021 0.0808,-0.0404 0.40417,-0.2223 0.40416,-0.2425 0.40417,-0.2425 0.40417,-0.2425 0.42437,-0.22229 0.40417,-0.2425 0.40417,-0.2425 0.40416,-0.22229 0.40417,-0.2425 0.40417,-0.2425 0.32333,-0.18188 -0.64667,-1.11145 -0.32333,0.18187 -0.40417,0.2425 -0.40417,0.22229 -0.40416,0.2425 -0.40417,0.2425 -0.42437,0.22229 -0.40417,0.24251 -0.40417,0.24249 -0.40416,0.2223 -0.40417,0.2425 -0.42437,0.2425 -0.0606,0.0404 z m 5.59771,-3.23333 0.18187,-0.10104 0.40417,-0.2425 0.42438,-0.22229 0.40416,-0.24251 0.40417,-0.22229 0.40416,-0.2425 h 0.0202 l -0.64666,-1.13166 h -0.0202 l -0.40417,0.2425 -0.40417,0.2425 -0.40416,0.22229 -0.40417,0.2425 -0.42437,0.22229 -0.18188,0.12125 z m 3.35458,-1.91979 0.10104,-0.0404 0.40417,-0.2425 0.40416,-0.22229 0.40417,-0.2425 0.42437,-0.22229 0.40417,-0.2425 0.40417,-0.2223 0.404163,-0.2425 0.40417,-0.22229 0.42438,-0.22229 0.40416,-0.2425 0.32334,-0.18187 -0.62646,-1.13167 -0.34354,0.18188 -0.40417,0.24249 -0.404173,0.2223 -0.40416,0.2425 -0.42438,0.22229 -0.40416,0.22229 -0.40417,0.2425 -0.40416,0.22229 -0.40417,0.2425 -0.42438,0.22229 -0.40416,0.2425 -0.0808,0.0404 z m 5.638123,-3.17271 0.16167,-0.10104 0.42438,-0.22229 0.40416,-0.24251 0.40417,-0.22229 0.40417,-0.22229 0.40416,-0.2425 0.0606,-0.0202 -0.64667,-1.13166 -0.0404,0.0202 -0.40416,0.24249 -0.40417,0.2223 -0.40417,0.22229 -0.42437,0.2425 -0.40417,0.22229 -0.16167,0.10104 z m 3.3748,-1.89958 0.0606,-0.0202 0.40417,-0.2425 0.40416,-0.22229 0.42438,-0.2223 0.40417,-0.22229 0.40416,-0.22229 0.40417,-0.22229 0.40416,-0.2425 0.42438,-0.22229 0.40417,-0.22229 0.40416,-0.2223 0.38396,-0.20208 -0.60625,-1.15187 -0.40417,0.22229 -0.40416,0.22229 -0.40417,0.22229 -0.42437,0.22229 -0.40417,0.2425 -0.40417,0.22229 -0.40416,0.2223 -0.40417,0.22229 -0.42438,0.22229 -0.40416,0.2425 -0.40417,0.22229 -0.0606,0.0202 z m 5.65833,-3.11209 0.12125,-0.0606 0.40416,-0.2223 0.40417,-0.22229 0.40417,-0.22229 0.40417,-0.22229 0.42437,-0.22229 0.12125,-0.0606 -0.62646,-1.15187 -0.12125,0.0808 -0.40416,0.22229 -0.40417,0.22229 -0.42438,0.2223 -0.40416,0.22229 -0.40417,0.22229 -0.10104,0.0606 z m 3.41521,-1.85917 0.36375,-0.20208 0.42437,-0.22229 0.40417,-0.22229 0.40417,-0.22229 0.40416,-0.2223 0.40417,-0.20208 0.42437,-0.22229 0.40417,-0.22229 0.40417,-0.22229 0.40416,-0.2223 0.40417,-0.22229 0.10104,-0.0404 -0.60625,-1.15188 -0.10104,0.0606 -0.40417,0.22229 -0.40416,0.22229 -0.42438,0.20208 -0.40417,0.22229 -0.40416,0.2223 -0.40417,0.22229 -0.40416,0.22229 -0.42438,0.22229 -0.40417,0.22229 -0.40416,0.2223 -0.38396,0.20208 z m 5.69875,-3.05145 0.38395,-0.2223 0.40417,-0.20208 0.40417,-0.22229 0.42437,-0.22229 0.40417,-0.22229 0.26271,-0.12125 -0.60625,-1.15188 -0.26271,0.14146 -0.40417,0.22229 -0.42437,0.20208 -0.40417,0.2223 -0.40417,0.22229 -0.38395,0.20208 z m 3.4152,-1.81875 0.24251,-0.12125 0.40416,-0.2223 0.40417,-0.22229 0.40417,-0.20208 0.40416,-0.22229 0.42438,-0.20208 0.40416,-0.2223 0.40417,-0.22229 0.40417,-0.20208 0.40416,-0.22229 0.42438,-0.20209 0.26271,-0.14145 -0.60625,-1.15188 -0.26271,0.14146 -0.40417,0.22229 -0.42437,0.20208 -0.40417,0.2223 -0.40417,0.20208 -0.40416,0.22229 -0.40417,0.20208 -0.42437,0.22229 -0.40417,0.2223 -0.40417,0.20208 -0.40417,0.22229 -0.24249,0.12125 z m 5.71896,-3.01105 0.22229,-0.10104 0.40417,-0.22229 0.42438,-0.20208 0.40416,-0.22229 0.40417,-0.20209 0.40417,-0.22229 h 0.0404 l -0.58604,-1.15187 -0.0404,0.0202 -0.40417,0.20209 -0.42438,0.20208 -0.40416,0.22229 -0.40417,0.20209 -0.40417,0.22229 -0.22229,0.12125 z m 3.45563,-1.77833 0.0404,-0.0202 0.40417,-0.20208 0.40417,-0.20208 0.40417,-0.22229 0.42437,-0.20209 0.40417,-0.20208 0.40416,-0.22229 0.40417,-0.20209 0.40417,-0.20208 0.42437,-0.22229 0.40417,-0.20209 0.40417,-0.20208 0.0808,-0.0404 -0.58604,-1.15188 -0.0808,0.0404 -0.40416,0.20208 -0.40417,0.20208 -0.42438,0.2223 -0.40416,0.20208 -0.40417,0.20208 -0.40417,0.22229 -0.42437,0.20209 -0.40417,0.20208 -0.40416,0.22229 -0.40417,0.20209 -0.40417,0.20208 -0.0404,0.0202 z m 5.75937,-2.93021 0.40417,-0.20208 0.40417,-0.20208 0.40416,-0.20209 0.40417,-0.22229 0.40417,-0.20208 0.28291,-0.12125 -0.58604,-1.17209 -0.26271,0.14146 -0.42437,0.20209 -0.40417,0.20208 -0.40416,0.22229 -0.40417,0.20208 -0.40417,0.20209 z m 3.45563,-1.73791 0.20208,-0.10105 0.40417,-0.20208 0.42437,-0.20208 0.40417,-0.20208 0.40417,-0.20209 0.40416,-0.20208 0.40417,-0.20208 0.42437,-0.20209 0.40417,-0.20208 0.40417,-0.20208 0.40417,-0.20209 0.34354,-0.18187 -0.56584,-1.15188 -0.34354,0.16167 -0.40416,0.20208 -0.42438,0.20209 -0.40417,0.20208 -0.40416,0.20208 -0.40417,0.20208 -0.42438,0.20209 -0.40416,0.20208 -0.40417,0.20208 -0.40416,0.2223 -0.40417,0.20208 -0.20208,0.10104 z m 5.79979,-2.86959 0.12125,-0.0606 0.40417,-0.20209 0.40416,-0.20208 0.40417,-0.20208 0.42438,-0.20209 0.40416,-0.20208 0.16167,-0.0606 -0.56583,-1.17209 -0.16167,0.0808 -0.40417,0.20208 -0.42437,0.20208 -0.40417,0.20209 -0.40417,0.18187 -0.40416,0.20209 -0.12125,0.0606 z m 3.47583,-1.6975 0.32334,-0.16166 0.40416,-0.20209 0.40417,-0.18187 0.40417,-0.20209 0.40416,-0.20208 0.42438,-0.20208 0.40416,-0.20209 0.40417,-0.18187 0.40417,-0.20208 0.40417,-0.20209 0.40416,-0.18187 0.28292,-0.14146 -0.56583,-1.15188 -0.26271,0.12125 -0.40417,0.20209 -0.42437,0.18187 -0.40417,0.20209 -0.40417,0.20208 -0.40416,0.20208 -0.40417,0.18188 -0.42438,0.20208 -0.40416,0.20208 -0.40417,0.20209 -0.40417,0.20208 -0.32333,0.14146 z m 5.82,-2.80896 0.20209,-0.10104 0.40416,-0.20208 0.42438,-0.18188 0.40417,-0.20208 0.40416,-0.18187 0.40417,-0.20209 0.10104,-0.0404 -0.56583,-1.17209 -0.0808,0.0404 -0.40416,0.20208 -0.42438,0.18188 -0.40416,0.20208 -0.40417,0.20209 -0.40417,0.18187 -0.20208,0.10104 z m 3.51625,-1.65708 0.36375,-0.18187 0.40417,-0.20209 0.40417,-0.18187 0.42437,-0.20208 0.40417,-0.18188 0.40416,-0.20208 0.40417,-0.18188 0.40417,-0.18187 0.42437,-0.20209 0.40417,-0.18187 0.40417,-0.20209 0.22229,-0.10104 -0.54563,-1.17208 -0.22229,0.10104 -0.40417,0.20209 -0.42437,0.18187 -0.40417,0.20208 -0.40416,0.18188 -0.40417,0.20208 -0.40417,0.18188 -0.42437,0.20208 -0.40417,0.18187 -0.40417,0.20209 -0.40416,0.18187 -0.38396,0.18188 z m 5.84021,-2.74833 0.2425,-0.10104 0.40417,-0.18188 0.40417,-0.20208 0.40416,-0.18188 0.40417,-0.18187 0.42437,-0.20209 0.0606,-0.0202 -0.52542,-1.19229 -0.0808,0.0404 -0.40417,0.20208 -0.42437,0.18188 -0.40417,0.18188 -0.40417,0.20208 -0.40416,0.18187 -0.2425,0.10105 z m 3.51625,-1.61667 0.38396,-0.18187 0.42438,-0.18188 0.40416,-0.18187 0.40417,-0.18188 0.40416,-0.18187 0.40417,-0.20209 0.40417,-0.18187 0.42437,-0.18188 0.40417,-0.18187 0.40417,-0.18188 0.40416,-0.18187 0.2425,-0.12125 -0.52541,-1.17208 -0.2425,0.10104 -0.40417,0.18187 -0.42438,0.20209 -0.40416,0.18187 -0.40417,0.18187 -0.40416,0.18188 -0.40417,0.18187 -0.42438,0.18188 -0.40416,0.20208 -0.40417,0.18188 -0.40417,0.18187 -0.38396,0.18188 z m 5.90083,-2.6675 0.20209,-0.10104 0.40417,-0.18187 0.40416,-0.18188 0.42438,-0.18187 0.40416,-0.18188 0.40417,-0.18188 0.12125,-0.0404 -0.52542,-1.19229 -0.12125,0.0606 -0.40416,0.18188 -0.42438,0.18187 -0.40417,0.18188 -0.40416,0.18187 -0.40417,0.18188 -0.20208,0.10104 z m 3.53646,-1.57625 0.34355,-0.16166 0.40416,-0.18188 0.40417,-0.16167 0.40416,-0.18187 0.40417,-0.18188 0.42438,-0.18187 0.40416,-0.18188 0.40417,-0.18187 0.40417,-0.18188 0.40416,-0.18187 0.42438,-0.16167 0.30312,-0.14146 -0.50521,-1.19229 -0.32333,0.14146 -0.40416,0.18188 -0.40417,0.18187 -0.42438,0.18187 -0.40416,0.16167 -0.40417,0.18188 -0.40417,0.18187 -0.42437,0.18188 -0.40417,0.18187 -0.40416,0.18188 -0.40417,0.18187 -0.34354,0.14146 z m 5.92104,-2.60687 0.12126,-0.0404 0.42437,-0.18187 0.40417,-0.18188 0.40416,-0.18188 0.40417,-0.16166 0.40417,-0.18188 0.20208,-0.0808 -0.50521,-1.19229 -0.20208,0.0808 -0.40417,0.18188 -0.40416,0.18187 -0.42438,0.16167 -0.40417,0.18187 -0.40416,0.18188 -0.14146,0.0606 z m 3.55667,-1.53584 0.2425,-0.10104 0.4041703,-0.18187 0.40417,-0.16167 0.42437,-0.18188 0.40417,-0.16166 0.40416,-0.18188 0.40417,-0.18187 0.40417,-0.16167 0.42437,-0.18187 0.40417,-0.16167 0.40416,-0.18187 0.40417,-0.16167 0.0202,-0.0202 -0.485,-1.19229 -0.0404,0.0202 -0.40416,0.16166 -0.40417,0.18188 -0.40417,0.16166 -0.42437,0.18188 -0.40417,0.18188 -0.40417,0.16166 -0.40416,0.18188 -0.40417,0.16166 -0.42437,0.18188 -0.4041703,0.18187 -0.40417,0.16167 -0.2425,0.12125 z m 5.9614603,-2.52604 0.40417,-0.16167 0.40416,-0.18187 0.40417,-0.16167 0.40417,-0.18187 0.42437,-0.16167 0.32334,-0.14146 -0.485,-1.19229 -0.34355,0.14146 -0.40416,0.16167 -0.40417,0.18187 -0.42437,0.16167 -0.40417,0.18187 -0.40417,0.16167 z m 3.55667003,-1.47521 0.10104,-0.0606 0.42437,-0.16167 0.40417,-0.16167 0.40417,-0.18187 0.40416,-0.16167 0.40416997,-0.16166 0.42438,-0.18188 0.40416,-0.16167 0.40417,-0.16166 0.40416,-0.16167 0.40417,-0.18187 0.42438,-0.16167 0.18187,-0.0808 -0.485,-1.19229 -0.20208,0.0808 -0.40417,0.16166 -0.40417,0.16167 -0.40416,0.18188 -0.42438,0.16166 -0.40416,0.16167 -0.40416997,0.18188 -0.40417,0.16166 -0.40416,0.16167 -0.42438,0.18187 -0.40416,0.16167 -0.40417003,0.16167 -0.10104,0.0404 z m 5.98165997,-2.46541 0.2425,-0.10104 0.40417,-0.16167 0.42437,-0.16167 0.40417,-0.16166 0.40417,-0.16167 0.40416,-0.16167 0.12126,-0.0606 -0.485,-1.1923 -0.12125,0.0404 -0.40417,0.16167 -0.40417,0.18187 -0.40417,0.16167 -0.42437,0.16167 -0.40417,0.16166 -0.2425,0.10105 z m 3.59709,-1.4348 0.32333,-0.14145 0.40417,-0.16167 0.40416,-0.16167 0.4243797,-0.16166 0.40417,-0.16167 0.40416,-0.16167 0.40417,-0.16166 0.40417,-0.16167 0.40416,-0.16167 0.42438,-0.16166 0.40416,-0.16167 0.40417,-0.16167 -0.46479,-1.19229 -0.42438,0.16167 -0.40416,0.16166 -0.40417,0.16167 -0.40417,0.16167 -0.40416,0.16166 -0.42438,0.16167 -0.40416,0.16167 -0.4041697,0.16167 -0.40417,0.16166 -0.42437,0.16167 -0.40417,0.16167 -0.32333,0.12124 z m 6.0220797,-2.38458 h 0.0202 l 0.40416,-0.16166 0.36376,-0.14146 0.0404,-0.0202 0.40417,-0.16167 0.40416,-0.16166 0.42438,-0.16167 0.34354,-0.12125 -0.46479,-1.2125 -0.36375,0.14146 -0.40417,0.14145 -0.40416,0.16167 -0.40417,0.16167 -0.0404,0.0202 -0.36375,0.14145 -0.42437,0.16167 h -0.02021 z m 3.59708,-1.39437 0.0808,-0.0404 0.40416,-0.16167 0.42438,-0.14145 0.40417,-0.16167 0.40416,-0.16167 0.40417,-0.16166 0.40417,-0.14146 0.42437,-0.16167 0.40417,-0.16167 0.40416,-0.14145 0.40417,-0.16167 0.40417,-0.16167 0.2627,-0.10104 -0.44458,-1.19229 -0.26271,0.0808 -0.40416,0.16167 -0.42438,0.16166 -0.40417,0.14146 -0.40416,0.16167 -0.40417,0.16167 -0.42437,0.16166 -0.40417,0.14146 -0.40417,0.16167 -0.40416,0.16166 -0.40417,0.16167 -0.42438,0.14146 -0.0808,0.0404 z m 6.04229,-2.30375 0.16167,-0.0606 0.40417,-0.16166 0.42437,-0.14146 0.40417,-0.16167 0.40417,-0.14146 0.40416,-0.16167 0.22229,-0.0808 -0.44458,-1.2125 -0.22229,0.0808 -0.40417,0.16167 -0.42437,0.14146 -0.40417,0.16167 -0.40416,0.14145 -0.40417,0.16167 -0.16167,0.0606 z m 3.6375,-1.35396 0.20209,-0.0808 0.40416,-0.14145 0.40417,-0.16167 0.40417,-0.14146 0.42437,-0.16167 0.40417,-0.14145 0.40417,-0.16167 0.40416,-0.14146 0.40417,-0.14146 0.42438,-0.16166 0.40416,-0.14146 0.40417,-0.14146 0.16166,-0.0606 -0.44458,-1.2327 -0.16167,0.0606 -0.40416,0.16167 -0.40417,0.14146 -0.42437,0.14146 -0.40417,0.16166 -0.40417,0.14146 -0.40416,0.16167 -0.40417,0.14146 -0.42438,0.16166 -0.40416,0.14146 -0.40417,0.16167 -0.40416,0.14146 -0.20209,0.0808 z m 6.06251,-2.22292 0.2627,-0.10104 0.40417,-0.14146 0.40417,-0.14146 0.40416,-0.16166 0.40417,-0.14146 0.42437,-0.14146 0.14146,-0.0606 -0.44458,-1.21251 -0.14146,0.0606 -0.40417,0.14146 -0.40416,0.14146 -0.42438,0.14145 -0.40416,0.16167 -0.40417,0.14146 -0.26271,0.10104 z m 3.6577,-1.31354 0.26271,-0.10104 0.42438,-0.14146 0.40416,-0.14146 0.40417,-0.14146 0.40417,-0.14146 0.40416,-0.16166 0.42438,-0.14146 0.40416,-0.14146 0.40417,-0.14146 0.40417,-0.14146 0.40417,-0.14145 0.40416,-0.14146 0.12125,-0.0404 -0.42437,-1.2125 -0.12125,0.0404 -0.40417,0.14146 -0.40417,0.14146 -0.40416,0.14145 -0.42438,0.14146 -0.40416,0.14146 -0.40417,0.14146 -0.40417,0.14146 -0.40416,0.14145 -0.42438,0.14146 -0.40417,0.16167 -0.40416,0.14146 -0.28292,0.10104 z m 6.08271,-2.14208 0.30313,-0.10104 0.40416,-0.14146 0.42438,-0.14146 0.40417,-0.14146 0.40416,-0.14146 0.40417,-0.14146 0.10104,-0.0404 -0.40417,-1.2125 -0.12125,0.0404 -0.40416,0.14146 -0.40417,0.12125 -0.40417,0.14146 -0.42437,0.14146 -0.40417,0.14146 -0.30312,0.12125 z m 3.67792,-1.25292 0.30312,-0.12125 0.40417,-0.12125 0.40417,-0.14146 0.40416,-0.14146 0.42438,-0.14146 0.40416,-0.14145 0.40417,-0.14146 0.40417,-0.12125 0.40417,-0.14146 0.42437,-0.14146 0.40417,-0.14146 0.40416,-0.12125 0.10104,-0.0404 -0.40416,-1.23271 -0.10104,0.0404 -0.42438,0.14145 -0.40416,0.12125 -0.40417,0.14146 -0.40417,0.14146 -0.40417,0.14146 -0.42437,0.14146 -0.40417,0.12125 -0.40416,0.14145 -0.40417,0.14146 -0.42437,0.14146 -0.40417,0.14146 -0.30313,0.10104 z m 6.12312,-2.06125 0.30313,-0.10104 0.40417,-0.14146 0.40416,-0.14146 0.40417,-0.12125 0.40416,-0.14146 0.42438,-0.14145 0.10104,-0.0202 -0.40417,-1.23271 -0.10104,0.0404 -0.42437,0.12125 -0.40417,0.14145 -0.40416,0.14146 -0.40417,0.12125 -0.40417,0.14146 -0.30312,0.10104 z m 3.67792,-1.2125 0.28292,-0.10104 0.42437,-0.14146 0.40417,-0.12125 0.40416,-0.14146 0.40417,-0.12125 0.40417,-0.14146 0.42437,-0.12125 0.40417,-0.14146 0.40417,-0.12125 0.40416,-0.14145 0.40417,-0.12125 0.42437,-0.14146 0.12126,-0.0404 -0.38396,-1.23271 -0.14146,0.0404 -0.40417,0.14146 -0.40417,0.12125 -0.42437,0.14146 -0.40417,0.12125 -0.40416,0.14145 -0.40417,0.12125 -0.42438,0.14146 -0.40416,0.12125 -0.40417,0.14146 -0.40417,0.14146 -0.40416,0.12125 -0.30313,0.10104 z m 6.14332,-1.98042 0.26273,-0.0808 0.40415,-0.14146 0.4244,-0.12125 0.40415,-0.12125 0.40417,-0.14146 0.40416,-0.12125 0.16168,-0.0606 -0.38396,-1.23271 -0.16169,0.0606 -0.40415,0.12125 -0.40418,0.14145 -0.42436,0.12125 -0.40418,0.12125 -0.40415,0.14146 -0.26271,0.0808 z m 3.69814,-1.17208 0.24249,-0.0606 0.40417,-0.12124 0.40418,-0.14146 0.42437,-0.12125 0.40417,-0.12125 0.40416,-0.12125 0.40417,-0.14146 0.40415,-0.12125 0.40418,-0.12125 0.42437,-0.12125 0.40417,-0.12125 0.40416,-0.14146 0.2223,-0.0606 -0.38397,-1.2327 -0.22227,0.0606 -0.40418,0.12125 -0.40415,0.14146 -0.40418,0.12125 -0.42436,0.12125 -0.40418,0.12125 -0.40418,0.12125 -0.40415,0.14146 -0.40418,0.12125 -0.42436,0.12125 -0.40418,0.12125 -0.40415,0.14146 -0.24252,0.0606 z m 6.18376,-1.87937 0.18187,-0.0606 0.40415,-0.12125 0.40418,-0.12125 0.40415,-0.12125 0.42439,-0.12125 0.40416,-0.12125 0.26273,-0.0808 -0.38397,-1.23271 -0.2627,0.0606 -0.40418,0.12125 -0.40418,0.14146 -0.40415,0.12125 -0.40418,0.12125 -0.42436,0.12125 -0.16166,0.0404 z m 3.71832,-1.11146 0.12126,-0.0404 0.42436,-0.12125 0.40418,-0.12125 0.40415,-0.12125 0.40418,-0.12125 0.40415,-0.12125 0.42439,-0.12125 0.40415,-0.12125 0.40418,-0.12125 0.40418,-0.12125 0.40415,-0.10104 0.42439,-0.12125 0.32332,-0.10104 -0.34353,-1.25292 -0.34354,0.10104 -0.42439,0.12125 -0.40415,0.12125 -0.40418,0.12125 -0.40418,0.12125 -0.40415,0.12125 -0.42439,0.12125 -0.40415,0.12125 -0.40418,0.10104 -0.40415,0.12125 -0.42439,0.12125 -0.40415,0.12125 -0.12126,0.0404 z m 6.20395,-1.81875 0.0404,-0.0202 0.40418,-0.10104 0.42436,-0.12125 0.40415,-0.12125 0.40418,-0.12125 0.40418,-0.10105 0.40415,-0.12124 -0.36375,-1.23271 -0.38396,0.10104 -0.40416,0.12125 -0.42439,0.12125 -0.40415,0.10104 -0.40418,0.12125 -0.40415,0.12125 -0.0606,0.0202 z m 3.71835,-1.05084 0.40415,-0.12125 0.40418,-0.10104 0.42436,-0.12125 0.40418,-0.12125 0.40418,-0.10104 0.40415,-0.12125 0.40418,-0.12125 0.40415,-0.10104 0.42439,-0.12125 0.40415,-0.10104 0.40418,-0.12125 0.40415,-0.10104 0.10104,-0.0404 -0.34353,-1.23271 -0.10105,0.0202 -0.40415,0.10104 -0.40418,0.12125 -0.40417,0.12125 -0.42437,0.10104 -0.40418,0.12125 -0.40415,0.10104 -0.40417,0.12125 -0.42437,0.12125 -0.40418,0.10104 -0.40415,0.12125 -0.40418,0.12126 -0.40415,0.10104 z m 6.24438,-1.7177 0.28292,-0.0808 0.40415,-0.12125 0.40417,-0.10104 0.40416,-0.12125 0.42439,-0.10104 0.40415,-0.12125 0.16168,-0.0404 -0.34356,-1.25292 -0.16166,0.0606 -0.40417,0.10104 -0.40416,0.10104 -0.40417,0.12125 -0.42437,0.10104 -0.40418,0.12125 -0.28291,0.0808 z m 3.73853,-1.01042 0.22228,-0.0606 0.40418,-0.10104 0.40417,-0.12125 0.40416,-0.10104 0.40417,-0.10104 0.42437,-0.12125 0.40418,-0.10104 0.404147,-0.10104 0.40417,-0.12126 0.40418,-0.10104 0.40415,-0.10104 0.42439,-0.10104 0.2829,-0.0808 -0.32332,-1.25292 -0.28292,0.0808 -0.42437,0.10105 -0.40418,0.10104 -0.40417,0.10104 -0.404147,0.12125 -0.40418,0.10104 -0.42437,0.10104 -0.40417,0.12125 -0.40416,0.10104 -0.40417,0.10104 -0.42437,0.12125 -0.40418,0.10105 -0.22227,0.0606 z m 6.244377,-1.63688 0.0808,-0.0202 0.42437,-0.10105 0.40417,-0.12125 0.40416,-0.10104 0.40417,-0.10104 0.40418,-0.10104 0.38394,-0.10104 -0.32332,-1.25292 -0.36375,0.10104 -0.42437,0.10104 -0.40418,0.10105 -0.40417,0.10104 -0.40415,0.12125 -0.40418,0.10104 -0.10105,0.0202 z m 3.75875,-0.94979 0.40415,-0.10104 0.40418,-0.10104 0.42437,-0.10104 0.40417,-0.10105 0.40415,-0.10104 0.40418,-0.10104 0.40418,-0.10104 0.42436,-0.10104 0.40418,-0.10104 0.40415,-0.10105 0.40418,-0.10104 0.40415,-0.10104 0.12126,-0.0404 -0.30313,-1.25292 -0.12124,0.0404 -0.40417,0.10104 -0.40415,0.10104 -0.40418,0.0808 -0.42437,0.10104 -0.40417,0.10104 -0.40418,0.10105 -0.40415,0.10104 -0.42439,0.10104 -0.40416,0.10104 -0.40417,0.12125 -0.40415,0.10104 -0.40418,0.10105 z m 6.26457,-1.55604 0.26273,-0.0606 0.40415,-0.10104 0.40418,-0.0808 0.42436,-0.10104 0.40418,-0.10104 0.40415,-0.10105 0.2223,-0.0404 -0.30313,-1.27313 -0.22228,0.0606 -0.40417,0.10104 -0.40418,0.10104 -0.40415,0.0808 -0.42439,0.10105 -0.40415,0.10104 -0.24252,0.0606 z m 3.77896,-0.88917 0.16166,-0.0404 0.40418,-0.10105 0.40418,-0.0808 0.40415,-0.10104 0.40418,-0.10104 0.42436,-0.10104 0.40418,-0.0808 0.40415,-0.10104 0.40418,-0.10104 0.40417,-0.0808 0.42437,-0.10104 0.40415,-0.0808 0.38396,-0.10104 -0.28291,-1.25292 -0.38394,0.0808 -0.42439,0.10104 -0.40415,0.0808 -0.40418,0.10104 -0.40418,0.10105 -0.42436,0.0808 -0.40418,0.10104 -0.40415,0.10104 -0.40418,0.0808 -0.40415,0.10104 -0.42439,0.10104 -0.40415,0.10104 -0.16169,0.0404 z m 6.305,-1.455 0.38396,-0.0808 0.40418,-0.10104 0.40415,-0.10104 0.40418,-0.0808 0.40417,-0.10104 0.42437,-0.0808 0.0808,-0.0202 -0.26271,-1.27313 -0.10104,0.0202 -0.40418,0.10105 -0.42436,0.10104 -0.40418,0.0808 -0.40415,0.10104 -0.40418,0.0808 -0.38396,0.0808 z m 3.77896,-0.84875 0.26271,-0.0606 0.42439,-0.0808 0.40415,-0.10105 0.40418,-0.0808 0.40415,-0.10104 0.40417,-0.0808 0.42437,-0.0808 0.40418,-0.10104 0.40417,-0.0808 0.40416,-0.0808 0.40417,-0.10104 0.40415,-0.0808 0.30314,-0.0606 -0.28292,-1.27312 -0.28292,0.0606 -0.40415,0.10104 -0.40418,0.0808 -0.42436,0.0808 -0.40418,0.10104 -0.40418,0.0808 -0.40415,0.10104 -0.40418,0.0808 -0.42436,0.0808 -0.40418,0.10105 -0.40415,0.0808 -0.40418,0.10104 -0.28292,0.0606 z m 6.30499,-1.35395 0.0808,-0.0202 0.40417,-0.0808 0.42437,-0.10104 0.40418,-0.0808 0.40417,-0.0808 0.40415,-0.0808 0.40418,-0.0808 -0.2627,-1.27313 -0.40418,0.0808 -0.40415,0.0808 -0.40418,0.10104 -0.40418,0.0808 -0.42436,0.0808 -0.40418,0.0808 -0.0808,0.0202 z m 3.79918,-0.78813 0.36375,-0.0808 0.40418,-0.0808 0.40415,-0.0808 0.42439,-0.0808 0.40415,-0.0808 0.40418,-0.0808 0.40415,-0.10104 0.40418,-0.0808 0.42437,-0.0808 0.40417,-0.0808 0.40415,-0.0808 0.40418,-0.0808 0.2223,-0.0404 -0.24251,-1.27312 -0.22228,0.0606 -0.42439,0.0808 -0.40415,0.0808 -0.40418,0.0808 -0.40415,0.0808 -0.40418,0.0808 -0.42436,0.0808 -0.40418,0.0808 -0.40418,0.0808 -0.40415,0.0808 -0.42439,0.0808 -0.40415,0.0808 -0.36375,0.0808 z m 6.34543,-1.27312 0.14144,-0.0202 0.40418,-0.0808 0.40415,-0.0808 0.40418,-0.0808 0.42436,-0.0808 0.40418,-0.0808 0.34354,-0.0606 -0.24249,-1.27313 -0.34354,0.0606 -0.40418,0.0808 -0.42436,0.0808 -0.40418,0.0808 -0.40418,0.0808 -0.40415,0.0808 -0.16166,0.0202 z m 3.81936,-0.72751 0.40418,-0.0808 0.40415,-0.0808 0.40418,-0.0808 0.40415,-0.0808 0.40418,-0.0606 0.42436,-0.0808 0.40418,-0.0808 0.40418,-0.0808 0.40415,-0.0606 0.40418,-0.0808 0.42436,-0.0808 0.24249,-0.0404 0.16169,-0.0202 0.16166,-0.0404 -0.2223,-1.27312 -0.18188,0.0404 -0.16166,0.0202 -0.24249,0.0404 -0.40418,0.0808 -0.40415,0.0808 -0.42439,0.0606 -0.40415,0.0808 -0.40418,0.0808 -0.40418,0.0808 -0.40415,0.0606 -0.42439,0.0808 -0.40415,0.0808 -0.40418,0.0808 -0.40415,0.0808 z m 6.32521,-1.17208 0.20209,-0.0404 0.40415,-0.0808 0.40418,-0.0606 0.40418,-0.0808 0.40415,-0.0606 0.40417,-0.0808 0.32333,-0.0606 -0.22228,-1.27312 -0.32335,0.0606 -0.40415,0.0808 -0.40418,0.0606 -0.40417,0.0808 -0.42437,0.0606 -0.40418,0.0808 -0.18187,0.0404 z m 3.81937,-0.68708 h 0.0404 l 0.40417,-0.0808 0.42437,-0.0606 0.40415,-0.0808 0.40418,-0.0606 0.40417,-0.0808 0.40416,-0.0606 0.42439,-0.0606 0.40415,-0.0808 0.40418,-0.0606 0.40415,-0.0808 0.40417,-0.0606 0.40418,-0.0606 0.16166,-0.0404 -0.20209,-1.27312 -0.16166,0.0202 -0.40417,0.0808 -0.42437,0.0606 -0.40418,0.0808 -0.40415,0.0606 -0.40418,0.0606 -0.40417,0.0808 -0.42437,0.0606 -0.40418,0.0808 -0.40415,0.0606 -0.40417,0.0808 -0.42437,0.0606 -0.40418,0.0808 h -0.0404 z m 6.38585,-1.07104 0.18187,-0.0404 0.40415,-0.0606 0.4244,-0.0606 0.40415,-0.0808 0.40417,-0.0606 0.40416,-0.0606 0.32334,-0.0606 -0.20209,-1.27312 -0.32332,0.0606 -0.40417,0.0606 -0.42437,0.0606 -0.40418,0.0606 -0.40417,0.0808 -0.40416,0.0606 -0.20208,0.0404 z m 3.81936,-0.62646 h 0.0404 l 0.40415,-0.0606 0.40418,-0.0808 0.40415,-0.0606 0.42439,-0.0606 0.40416,-0.0606 0.40417,-0.0606 0.40415,-0.0606 0.40418,-0.0606 0.42437,-0.0606 0.40417,-0.0808 0.40418,-0.0606 0.40415,-0.0606 0.18188,-0.0202 -0.20209,-1.27312 -0.16166,0.0202 -0.42437,0.0606 -0.40417,0.0606 -0.40416,0.0606 -0.40417,0.0606 -0.42437,0.0606 -0.40418,0.0808 -0.40415,0.0606 -0.40417,0.0606 -0.40418,0.0606 -0.42437,0.0606 -0.40417,0.0606 -0.40416,0.0808 h -0.0404 z m 6.38583,-0.97 0.18187,-0.0404 0.40418,-0.0606 0.40418,-0.0606 0.40415,-0.0606 0.42439,-0.0606 0.40415,-0.0606 0.32335,-0.0404 -0.18187,-1.27312 -0.32335,0.0404 -0.42437,0.0606 -0.40417,0.0606 -0.40416,0.0606 -0.40417,0.0606 -0.42437,0.0606 -0.18187,0.0202 z m 3.83958,-0.56583 h 0.0202 l 0.40418,-0.0606 0.40415,-0.0606 0.40418,-0.0606 0.40418,-0.0606 0.40415,-0.0606 0.42439,-0.0404 0.40415,-0.0606 0.40418,-0.0606 0.40415,-0.0606 0.40418,-0.0606 0.42436,-0.0404 0.40418,-0.0606 0.20209,-0.0202 -0.18188,-1.29333 -0.20208,0.0404 -0.40418,0.0404 -0.40415,0.0606 -0.4244,0.0606 -0.40415,0.0606 -0.40417,0.0404 -0.40415,0.0606 -0.40418,0.0606 -0.42437,0.0606 -0.40417,0.0606 -0.40418,0.0606 -0.40415,0.0404 -0.4244,0.0606 v 0 z m 6.38585,-0.88917 0.16166,-0.0202 0.40418,-0.0606 0.40415,-0.0404 0.40418,-0.0606 0.40415,-0.0606 0.40418,-0.0404 0.38396,-0.0606 -0.16166,-1.27313 -0.38396,0.0404 -0.40418,0.0606 -0.40415,0.0606 -0.4244,0.0404 -0.40415,0.0606 -0.40417,0.0606 -0.14145,0.0202 z m 3.83958,-0.50521 0.38396,-0.0404 0.42437,-0.0606 0.40418,-0.0404 0.40415,-0.0606 0.40418,-0.0404 0.40415,-0.0606 0.40417,-0.0404 0.42437,-0.0606 0.40418,-0.0404 0.40417,-0.0606 0.40416,-0.0404 0.40417,-0.0606 0.26271,-0.0202 -0.14148,-1.29333 -0.2627,0.0404 -0.40415,0.0404 -0.42439,0.0606 -0.40415,0.0404 -0.40418,0.0606 -0.40415,0.0404 -0.42439,0.0606 -0.40415,0.0404 -0.40418,0.0606 -0.40418,0.0404 -0.42437,0.0606 -0.40417,0.0404 -0.38394,0.0606 z m 6.42625,-0.78812 h 0.0808 l 0.40416,-0.0606 0.42439,-0.0404 0.40415,-0.0404 0.40418,-0.0606 0.40417,-0.0404 0.40415,-0.0404 h 0.0404 l -0.14147,-1.29333 h -0.0404 l -0.40418,0.0404 -0.40415,0.0606 -0.42439,0.0404 -0.40415,0.0404 -0.40418,0.0606 -0.40418,0.0404 -0.10102,0.0202 z m 3.83958,-0.44459 0.32333,-0.0202 0.40417,-0.0606 0.40418,-0.0404 0.42437,-0.0404 0.40417,-0.0404 0.40415,-0.0606 0.40418,-0.0404 0.40415,-0.0404 0.40418,-0.0404 0.42437,-0.0404 0.40417,-0.0404 0.40415,-0.0404 0.34357,-0.0404 -0.14148,-1.29334 -0.34353,0.0404 -0.40418,0.0404 -0.40415,0.0404 -0.40418,0.0404 -0.42436,0.0404 -0.40418,0.0606 -0.40415,0.0404 -0.40418,0.0404 -0.40418,0.0404 -0.42436,0.0404 -0.40415,0.0606 -0.40418,0.0404 -0.32335,0.0404 z m 6.44647,-0.68708 0.40415,-0.0404 0.40418,-0.0404 0.40415,-0.0404 0.40418,-0.0404 0.42436,-0.0404 0.40418,-0.0404 0.10105,-0.0202 -0.12126,-1.27312 h -0.10105 l -0.42436,0.0404 -0.40418,0.0404 -0.40415,0.0404 -0.40418,0.0404 -0.42436,0.0404 -0.40418,0.0606 z m 3.83958,-0.38396 0.24249,-0.0202 0.40418,-0.0404 0.40415,-0.0404 0.40418,-0.0404 0.40415,-0.0202 0.42439,-0.0404 0.40415,-0.0404 0.40418,-0.0404 0.40418,-0.0404 0.40415,-0.0404 0.40418,-0.0404 0.42436,-0.0202 0.40418,-0.0404 h 0.0202 l -0.12124,-1.29333 h -0.0202 l -0.40418,0.0404 -0.40415,0.0404 -0.40418,0.0202 -0.42436,0.0404 -0.40418,0.0404 -0.40415,0.0404 -0.40418,0.0404 -0.42436,0.0404 -0.40418,0.0404 -0.40415,0.0404 -0.40418,0.0404 -0.40418,0.0202 -0.24249,0.0404 z m 6.44644,-0.58604 0.32335,-0.0202 0.40415,-0.0404 0.40418,-0.0404 0.40418,-0.0202 0.40415,-0.0404 0.12126,-0.0202 0.28291,-0.0202 0.22228,-0.0202 -0.10104,-1.27313 h -0.22228 l -0.28292,0.0404 h -0.12126 l -0.40415,0.0404 -0.40418,0.0404 -0.42436,0.0202 -0.40418,0.0404 -0.32332,0.0202 z m 3.8598,-0.32334 h 0.12126 l 0.40417,-0.0404 0.42437,-0.0404 0.40415,-0.0202 0.40418,-0.0404 0.40417,-0.0202 0.40416,-0.0404 0.42439,-0.0202 0.40415,-0.0404 0.40418,-0.0404 0.40415,-0.0202 0.40417,-0.0404 0.40418,-0.0202 h 0.14145 l -0.10105,-1.29334 h -0.12126 l -0.40415,0.0404 -0.42439,0.0202 -0.40415,0.0404 -0.40418,0.0202 -0.40415,0.0404 -0.42439,0.0202 -0.40415,0.0404 -0.40418,0.0202 -0.40415,0.0404 -0.40418,0.0404 -0.42436,0.0202 -0.40418,0.0404 h -0.14145 z m 6.42625,-0.485 0.2223,-0.0202 0.40415,-0.0202 0.4244,-0.0404 0.40415,-0.0202 0.40417,-0.0202 0.40416,-0.0404 0.32334,-0.0202 -0.0808,-1.29333 -0.32335,0.0202 -0.40415,0.0404 -0.42439,0.0202 -0.40415,0.0202 -0.40418,0.0404 -0.40415,0.0202 -0.2223,0.0202 z m 3.88001,-0.2627 h 0.0202 l 0.40415,-0.0202 0.40418,-0.0404 0.40415,-0.0202 0.42439,-0.0202 0.40416,-0.0404 0.40417,-0.0202 0.40415,-0.0202 0.40418,-0.0202 0.42437,-0.0404 0.40417,-0.0202 0.40418,-0.0202 0.40415,-0.0202 0.24252,-0.0202 -0.0809,-1.29333 -0.24249,0.0202 -0.40415,0.0202 -0.40418,0.0202 -0.40417,0.0404 -0.40415,0.0202 -0.4244,0.0202 -0.40415,0.0202 -0.40418,0.0404 -0.40415,0.0202 -0.42439,0.0202 -0.40415,0.0202 -0.40418,0.0404 -0.40417,0.0202 h -0.0202 z m 6.44644,-0.38396 0.10104,-0.0202 0.40418,-0.0202 0.40418,-0.0202 0.40415,-0.0202 0.42439,-0.0202 0.40415,-0.0202 0.40418,-0.0202 h 0.0404 l -0.0808,-1.29333 h -0.0202 l -0.42437,0.0202 -0.40418,0.0202 -0.40415,0.0202 -0.40417,0.0202 -0.40415,0.0202 -0.4244,0.0202 -0.10104,0.0202 z m 3.85979,-0.20208 0.32335,-0.0202 0.40415,-0.0202 0.40418,-0.0202 0.40418,-0.0202 0.40415,-0.0202 0.42439,-0.0202 0.40415,-0.0202 0.40418,-0.0202 0.40415,-0.0202 0.40418,-0.0202 h 0.42436 l 0.40418,-0.0202 0.36375,-0.0202 -0.0606,-1.29333 -0.36375,0.0202 -0.40417,0.0202 -0.40418,0.0202 h -0.42437 l -0.40417,0.0202 -0.40416,0.0202 -0.40417,0.0202 -0.42437,0.0202 -0.40418,0.0202 -0.40415,0.0202 -0.40417,0.0202 -0.40418,0.0202 -0.32332,0.0202 z m 6.46669,-0.30313 h 0.38396 l 0.40415,-0.0202 0.40418,-0.0202 0.40415,-0.0202 h 0.40418 l 0.42436,-0.0202 h 0.16169 l -0.0606,-1.29334 h -0.16167 l -0.40417,0.0202 h -0.40415 l -0.40418,0.0202 -0.42437,0.0202 -0.40417,0.0202 h -0.38397 z m 3.85979,-0.14146 h 0.18187 l 0.42437,-0.0202 h 0.40418 l 0.40415,-0.0202 0.40418,-0.0202 h 0.40415 l 0.40417,-0.0202 h 0.42437 l 0.40418,-0.0202 0.40417,-0.0202 h 0.40416 l 0.40417,-0.0202 h 0.42437 0.0808 l -0.0404,-1.29333 h -0.0808 -0.40418 l -0.42437,0.0202 h -0.40417 l -0.40418,0.0202 -0.40415,0.0202 h -0.40418 l -0.42437,0.0202 h -0.40417 l -0.40415,0.0202 -0.40418,0.0202 h -0.42437 l -0.40417,0.0202 h -0.18188 z m 6.46665,-0.18187 h 0.2425 l 0.40417,-0.0202 h 0.42437 l 0.40418,-0.0202 h 0.40417 0.40415 l 0.30314,-0.0202 -0.0202,-1.29333 -0.30313,0.0202 h -0.40415 -0.42439 l -0.40415,0.0202 h -0.40418 l -0.40415,0.0202 h -0.26271 z m 3.88001,-0.0808 h 0.0404 0.40417 l 0.40418,-0.0202 h 0.42437 0.40417 l 0.40415,-0.0202 h 0.40418 0.40415 l 0.40418,-0.0202 h 0.42437 0.40417 0.40415 l 0.40418,-0.0202 h 0.24249 l -0.0202,-1.29333 h -0.24251 l -0.40415,0.0202 h -0.40418 -0.40418 -0.40415 l -0.42437,0.0202 h -0.40417 -0.40418 l -0.40415,0.0202 h -0.42439 -0.40415 l -0.40418,0.0202 h -0.40415 -0.0404 z m 6.44644,-0.0808 h 0.12126 0.40418 l 0.40415,-0.0202 h 0.40418 0.42436 0.40418 0.40415 0.0202 v -1.29333 h -0.0202 -0.40415 -0.42436 -0.40418 -0.40418 l -0.40415,0.0202 h -0.42439 -0.10105 z m 3.88001,-0.0202 h 0.32335 0.40415 0.40418 0.40415 0.42439 0.40415 0.40418 0.40418 0.40415 0.40418 0.42436 0.40418 0.36375 v -1.29333 h -0.36375 -0.40418 -0.40418 -0.42436 -0.40415 -0.40418 -0.40418 -0.40415 -0.42439 -0.40415 -0.40418 -0.40415 -0.32335 z m 6.46668,0.0202 h 0.38394 0.40418 0.40418 0.40415 0.42439 l 0.40415,0.0202 h 0.16166 l 0.0202,-1.29333 h -0.18187 l -0.40415,-0.0202 h -0.40418 -0.40418 -0.42436 -0.40418 -0.38394 z m 3.87999,0.0202 0.16168,0.0202 h 0.42437 0.40415 0.40418 l 0.40417,0.0202 h 0.40416 0.42439 l 0.40415,0.0202 h 0.40418 l 0.40415,0.0202 h 0.40417 0.40418 l 0.42437,0.0202 h 0.0808 l 0.0404,-1.29333 h -0.10105 l -0.40418,-0.0202 h -0.40415 -0.42439 l -0.40415,-0.0202 h -0.40418 l -0.40418,-0.0202 h -0.42436 -0.40418 l -0.40415,-0.0202 h -0.40418 -0.40415 -0.42439 l -0.16166,-0.0202 z m -401.68103,117.1275 0.40416,-0.2425 0.42438,-0.2425 0.40416,-0.2425 0.40417,-0.2425 0.40417,-0.2425 0.40416,-0.2425 0.42438,-0.2425 0.40417,-0.2425 0.40416,-0.2425 0.40417,-0.2425 0.36375,-0.20208 -0.64667,-1.11146 -0.36375,0.20208 -0.42437,0.2425 -0.40417,0.2425 -0.40417,0.2425 -0.40416,0.2425 -0.40417,0.2425 -0.42438,0.2425 -0.40416,0.2425 -0.40417,0.2425 -0.40417,0.2425 -0.40416,0.2425 z"
       id="path23533" />
    <path
       style="fill:#000000;fill-opacity:1;fill-rule:nonzero;stroke:none;stroke-width:0.264583"
       d="m 202.40894,178.39834 h 2.58668 V 177.105 h -2.58668 z m 3.88001,0 h 3.43541 V 177.105 h -3.43541 z m -10.34666,0 h 5.17332 V 177.105 h -5.17332 z"
       id="path23535" />
    <path
       style="fill:none;stroke:#ffffff;stroke-width:0.222292px;stroke-linecap:butt;stroke-linejoin:miter;stroke-miterlimit:10;stroke-dasharray:none;stroke-opacity:1"
       d="M 212.91727,201.03167 V 184.865 h 90.75563 v 16.16667 z"
       id="path23537" />
    <text
       xml:space="preserve"
       style="font-style:normal;font-variant:normal;font-weight:400;font-size:10.3518px;line-height:125%;font-family:Arial;text-align:start;letter-spacing:0px;word-spacing:0px;text-anchor:start;fill:#000000;fill-opacity:1;stroke:none;stroke-width:0.264583"
       x="215.12"
       y="195.85834"
       id="text23551"><tspan
         sodipodi:role="line"
         x="215.12"
         y="195.85834"
         id="tspan23549"
         style="stroke-width:0.264583"><tspan
           dx="0"
           dy="0"
           style="font-style:normal;font-variant:normal;font-weight:400;font-size:10.3518px;font-family:Arial;fill:#000000;stroke-width:0.264583"
           id="tspan23539">k</tspan><tspan
           dx="0"
           dy="5.1733332"
           style="font-style:normal;font-variant:normal;font-weight:400;font-size:8.40052px;font-family:Arial;fill:#000000;stroke-width:0.264583"
           id="tspan23541">P</tspan><tspan
           dx="0"
           dy="0"
           style="font-style:normal;font-variant:normal;font-weight:400;font-size:8.40052px;font-family:Arial;fill:#000000;stroke-width:0.264583"
           id="tspan23543">2</tspan><tspan
           dx="0"
           dy="0"
           style="font-style:normal;font-variant:normal;font-weight:400;font-size:8.40052px;font-family:Arial;fill:#000000;stroke-width:0.264583"
           id="tspan23545">0</tspan><tspan
           dx="0"
           dy="-5.1733332"
           style="font-style:normal;font-variant:normal;font-weight:400;font-size:10.3518px;font-family:Arial;fill:#000000;stroke-width:0.264583"
           id="tspan23547">=0.091</tspan></tspan></text>
    <path
       style="fill:none;stroke:#ffffff;stroke-width:0.222292px;stroke-linecap:butt;stroke-linejoin:miter;stroke-miterlimit:10;stroke-dasharray:none;stroke-opacity:1"
       d="m 213.54375,219.13834 v -16.16667 h 90.77582 v 16.16667 z"
       id="path23553" />
    <text
       xml:space="preserve"
       style="font-style:normal;font-variant:normal;font-weight:400;font-size:10.3518px;line-height:125%;font-family:Arial;text-align:start;letter-spacing:0px;word-spacing:0px;text-anchor:start;fill:#000000;fill-opacity:1;stroke:none;stroke-width:0.264583"
       x="215.76666"
       y="213.96501"
       id="text23567"><tspan
         sodipodi:role="line"
         x="215.76666"
         y="213.96501"
         id="tspan23565"
         style="stroke-width:0.264583"><tspan
           dx="0"
           dy="0"
           style="font-style:normal;font-variant:normal;font-weight:400;font-size:10.3518px;font-family:Arial;fill:#000000;stroke-width:0.264583"
           id="tspan23555">k</tspan><tspan
           dx="0"
           dy="5.1733332"
           style="font-style:normal;font-variant:normal;font-weight:400;font-size:8.40052px;font-family:Arial;fill:#000000;stroke-width:0.264583"
           id="tspan23557">P</tspan><tspan
           dx="0"
           dy="0"
           style="font-style:normal;font-variant:normal;font-weight:400;font-size:8.40052px;font-family:Arial;fill:#000000;stroke-width:0.264583"
           id="tspan23559">2</tspan><tspan
           dx="0"
           dy="0"
           style="font-style:normal;font-variant:normal;font-weight:400;font-size:8.40052px;font-family:Arial;fill:#000000;stroke-width:0.264583"
           id="tspan23561">1</tspan><tspan
           dx="0"
           dy="-5.1733332"
           style="font-style:normal;font-variant:normal;font-weight:400;font-size:10.3518px;font-family:Arial;fill:#000000;stroke-width:0.264583"
           id="tspan23563">=0.097</tspan></tspan></text>
    <path
       style="fill:none;stroke:#ffffff;stroke-width:0.222292px;stroke-linecap:butt;stroke-linejoin:miter;stroke-miterlimit:10;stroke-dasharray:none;stroke-opacity:1"
       d="M 213.24062,235.95167 V 219.785 h 90.75562 v 16.16667 z"
       id="path23569" />
    <text
       xml:space="preserve"
       style="font-style:normal;font-variant:normal;font-weight:400;font-size:10.3518px;line-height:125%;font-family:Arial;text-align:start;letter-spacing:0px;word-spacing:0px;text-anchor:start;fill:#000000;fill-opacity:1;stroke:none;stroke-width:0.264583"
       x="215.44333"
       y="230.77834"
       id="text23583"><tspan
         sodipodi:role="line"
         x="215.44333"
         y="230.77834"
         id="tspan23581"
         style="stroke-width:0.264583"><tspan
           dx="0"
           dy="0"
           style="font-style:normal;font-variant:normal;font-weight:400;font-size:10.3518px;font-family:Arial;fill:#000000;stroke-width:0.264583"
           id="tspan23571">k</tspan><tspan
           dx="0"
           dy="5.1733332"
           style="font-style:normal;font-variant:normal;font-weight:400;font-size:8.40052px;font-family:Arial;fill:#000000;stroke-width:0.264583"
           id="tspan23573">P</tspan><tspan
           dx="0"
           dy="0"
           style="font-style:normal;font-variant:normal;font-weight:400;font-size:8.40052px;font-family:Arial;fill:#000000;stroke-width:0.264583"
           id="tspan23575">2</tspan><tspan
           dx="0"
           dy="0"
           style="font-style:normal;font-variant:normal;font-weight:400;font-size:8.40052px;font-family:Arial;fill:#000000;stroke-width:0.264583"
           id="tspan23577">2</tspan><tspan
           dx="0"
           dy="-5.1733332"
           style="font-style:normal;font-variant:normal;font-weight:400;font-size:10.3518px;font-family:Arial;fill:#000000;stroke-width:0.264583"
           id="tspan23579">=-0.008</tspan></tspan></text>
    <path
       style="fill:none;stroke:#000000;stroke-width:0.222292px;stroke-linecap:butt;stroke-linejoin:round;stroke-miterlimit:10;stroke-dasharray:none;stroke-opacity:1"
       d="m 98.780623,157.05834 v -0.18188 l -0.0202,-0.18187 -0.0404,-0.20209 -0.0606,-0.18187 -0.0606,-0.18188 -0.10105,-0.16166 -0.10104,-0.16167 -0.10105,-0.16167 -0.12125,-0.14146 -0.14145,-0.14145 -0.16166,-0.12125 -0.14147,-0.10105 -0.18188,-0.10104 -0.16166,-0.0606 -0.18187,-0.0808 -0.18188,-0.0404 -0.20209,-0.0404 h -0.18187 -0.18188 -0.20208 l -0.18188,0.0404 -0.18187,0.0404 -0.18188,0.0808 -0.18187,0.0606 -0.16166,0.10104 -0.16166,0.10105 -0.14148,0.12125 -0.14144,0.14145 -0.12126,0.14146 -0.12126,0.16167 -0.10102,0.16167 -0.0808,0.16166 -0.0606,0.18188 -0.0606,0.18187 -0.0404,0.20209 -0.0202,0.18187 -0.0202,0.18188 0.0202,0.20208 0.0202,0.18188 0.0404,0.20208 0.0606,0.18187 0.0606,0.18188 0.0808,0.16166 0.10102,0.16167 0.12126,0.16167 0.12126,0.14146 0.14144,0.14145 0.14148,0.12125 0.16166,0.10105 0.16166,0.0808 0.18187,0.0808 0.18188,0.0808 0.18187,0.0404 0.18188,0.0404 h 0.20208 0.18188 0.18187 l 0.20209,-0.0404 0.18188,-0.0404 0.18187,-0.0808 0.16166,-0.0808 0.18188,-0.0808 0.14147,-0.10105 0.16166,-0.12125 0.14145,-0.14145 0.12125,-0.14146 0.10105,-0.16167 0.10104,-0.16167 0.10105,-0.16166 0.0606,-0.18188 0.0606,-0.18187 0.0404,-0.20208 0.0202,-0.18188 z"
       id="path23585" />
    <path
       style="fill:none;stroke:#ffffff;stroke-width:0.222292px;stroke-linecap:butt;stroke-linejoin:miter;stroke-miterlimit:10;stroke-dasharray:none;stroke-opacity:1"
       d="M 107.42977,165.465 V 149.29834 H 198.1854 V 165.465 Z"
       id="path23587" />
    <text
       xml:space="preserve"
       style="font-style:normal;font-variant:normal;font-weight:400;font-size:10.3518px;line-height:125%;font-family:Arial;text-align:start;letter-spacing:0px;word-spacing:0px;text-anchor:start;fill:#000000;fill-opacity:1;stroke:none;stroke-width:0.264583"
       x="109.71333"
       y="160.29167"
       id="text23593"><tspan
         sodipodi:role="line"
         x="109.71333"
         y="160.29167"
         id="tspan23591"
         style="stroke-width:0.264583"><tspan
           dx="0"
           dy="0"
           style="font-style:normal;font-variant:normal;font-weight:400;font-size:10.3518px;font-family:Arial;fill:#000000;stroke-width:0.264583"
           id="tspan23589">Data points</tspan></tspan></text>
    <path
       style="fill:none;stroke:#000000;stroke-width:1.29333px;stroke-linecap:butt;stroke-linejoin:round;stroke-miterlimit:10;stroke-dasharray:none;stroke-opacity:1"
       d="M 90.131453,175.81167 H 103.91354"
       id="path23595" />
    <path
       style="fill:none;stroke:#ffffff;stroke-width:0.222292px;stroke-linecap:butt;stroke-linejoin:miter;stroke-miterlimit:10;stroke-dasharray:none;stroke-opacity:1"
       d="m 107.42977,200.70834 v -16.16667 h 90.75563 v 16.16667 z"
       id="path23597" />
    <text
       xml:space="preserve"
       style="font-style:normal;font-variant:normal;font-weight:400;font-size:10.3518px;line-height:125%;font-family:Arial;text-align:start;letter-spacing:0px;word-spacing:0px;text-anchor:start;fill:#000000;fill-opacity:1;stroke:none;stroke-width:0.264583"
       x="109.71333"
       y="195.535"
       id="text23611"><tspan
         sodipodi:role="line"
         x="109.71333"
         y="195.535"
         id="tspan23609"
         style="stroke-width:0.264583"><tspan
           dx="0"
           dy="0"
           style="font-style:normal;font-variant:normal;font-weight:400;font-size:10.3518px;font-family:Arial;fill:#000000;stroke-width:0.264583"
           id="tspan23599">k</tspan><tspan
           dx="0"
           dy="5.1733332"
           style="font-style:normal;font-variant:normal;font-weight:400;font-size:8.40052px;font-family:Arial;fill:#000000;stroke-width:0.264583"
           id="tspan23601">P</tspan><tspan
           dx="0"
           dy="0"
           style="font-style:normal;font-variant:normal;font-weight:400;font-size:8.40052px;font-family:Arial;fill:#000000;stroke-width:0.264583"
           id="tspan23603">1</tspan><tspan
           dx="0"
           dy="0"
           style="font-style:normal;font-variant:normal;font-weight:400;font-size:8.40052px;font-family:Arial;fill:#000000;stroke-width:0.264583"
           id="tspan23605">0</tspan><tspan
           dx="0"
           dy="-5.1733332"
           style="font-style:normal;font-variant:normal;font-weight:400;font-size:10.3518px;font-family:Arial;fill:#000000;stroke-width:0.264583"
           id="tspan23607">=0.245</tspan></tspan></text>
    <path
       style="fill:none;stroke:#ffffff;stroke-width:0.222292px;stroke-linecap:butt;stroke-linejoin:miter;stroke-miterlimit:10;stroke-dasharray:none;stroke-opacity:1"
       d="M 106.7831,219.46167 V 203.295 h 90.75563 v 16.16667 z"
       id="path23613" />
    <text
       xml:space="preserve"
       style="font-style:normal;font-variant:normal;font-weight:400;font-size:10.3518px;line-height:125%;font-family:Arial;text-align:start;letter-spacing:0px;word-spacing:0px;text-anchor:start;fill:#000000;fill-opacity:1;stroke:none;stroke-width:0.264583"
       x="109.06666"
       y="214.28835"
       id="text23627"><tspan
         sodipodi:role="line"
         x="109.06666"
         y="214.28835"
         id="tspan23625"
         style="stroke-width:0.264583"><tspan
           dx="0"
           dy="0"
           style="font-style:normal;font-variant:normal;font-weight:400;font-size:10.3518px;font-family:Arial;fill:#000000;stroke-width:0.264583"
           id="tspan23615">k</tspan><tspan
           dx="0"
           dy="5.1733332"
           style="font-style:normal;font-variant:normal;font-weight:400;font-size:8.40052px;font-family:Arial;fill:#000000;stroke-width:0.264583"
           id="tspan23617">P</tspan><tspan
           dx="0"
           dy="0"
           style="font-style:normal;font-variant:normal;font-weight:400;font-size:8.40052px;font-family:Arial;fill:#000000;stroke-width:0.264583"
           id="tspan23619">1</tspan><tspan
           dx="0"
           dy="0"
           style="font-style:normal;font-variant:normal;font-weight:400;font-size:8.40052px;font-family:Arial;fill:#000000;stroke-width:0.264583"
           id="tspan23621">1</tspan><tspan
           dx="0"
           dy="-5.1733332"
           style="font-style:normal;font-variant:normal;font-weight:400;font-size:10.3518px;font-family:Arial;fill:#000000;stroke-width:0.264583"
           id="tspan23623">=0.105</tspan></tspan></text>
    <path
       style="fill:none;stroke:#ffffff;stroke-width:0.222292px;stroke-linecap:butt;stroke-linejoin:miter;stroke-miterlimit:10;stroke-dasharray:none;stroke-opacity:1"
       d="m 106.45978,236.59834 v -16.16667 h 90.75563 v 16.16667 z"
       id="path23629" />
    <text
       xml:space="preserve"
       style="font-style:normal;font-variant:normal;font-weight:400;font-size:10.3518px;line-height:125%;font-family:Arial;text-align:start;letter-spacing:0px;word-spacing:0px;text-anchor:start;fill:#000000;fill-opacity:1;stroke:none;stroke-width:0.264583"
       x="108.74332"
       y="231.425"
       id="text23643"><tspan
         sodipodi:role="line"
         x="108.74332"
         y="231.425"
         id="tspan23641"
         style="stroke-width:0.264583"><tspan
           dx="0"
           dy="0"
           style="font-style:normal;font-variant:normal;font-weight:400;font-size:10.3518px;font-family:Arial;fill:#000000;stroke-width:0.264583"
           id="tspan23631">k</tspan><tspan
           dx="0"
           dy="5.1733332"
           style="font-style:normal;font-variant:normal;font-weight:400;font-size:8.40052px;font-family:Arial;fill:#000000;stroke-width:0.264583"
           id="tspan23633">P</tspan><tspan
           dx="0"
           dy="0"
           style="font-style:normal;font-variant:normal;font-weight:400;font-size:8.40052px;font-family:Arial;fill:#000000;stroke-width:0.264583"
           id="tspan23635">1</tspan><tspan
           dx="0"
           dy="0"
           style="font-style:normal;font-variant:normal;font-weight:400;font-size:8.40052px;font-family:Arial;fill:#000000;stroke-width:0.264583"
           id="tspan23637">2</tspan><tspan
           dx="0"
           dy="-5.1733332"
           style="font-style:normal;font-variant:normal;font-weight:400;font-size:10.3518px;font-family:Arial;fill:#000000;stroke-width:0.264583"
           id="tspan23639">=-0.009</tspan></tspan></text>
    <path
       style="fill:none;stroke:#ffffff;stroke-width:0.222292px;stroke-linecap:butt;stroke-linejoin:miter;stroke-miterlimit:10;stroke-dasharray:none;stroke-opacity:1"
       d="m 107.42977,183.24834 v -16.16667 h 90.75563 v 16.16667 z"
       id="path23645" />
    <text
       xml:space="preserve"
       style="font-style:normal;font-variant:normal;font-weight:400;font-size:10.3518px;line-height:125%;font-family:Arial;text-align:start;letter-spacing:0px;word-spacing:0px;text-anchor:start;fill:#000000;fill-opacity:1;stroke:none;stroke-width:0.264583"
       x="109.71333"
       y="178.07501"
       id="text23655"><tspan
         sodipodi:role="line"
         x="109.71333"
         y="178.07501"
         id="tspan23653"
         style="stroke-width:0.264583"><tspan
           dx="0"
           dy="0"
           style="font-style:normal;font-variant:normal;font-weight:400;font-size:10.3518px;font-family:Arial;fill:#000000;stroke-width:0.264583"
           id="tspan23647">P</tspan><tspan
           dx="0"
           dy="5.1733332"
           style="font-style:normal;font-variant:normal;font-weight:400;font-size:8.40052px;font-family:Arial;fill:#000000;stroke-width:0.264583"
           id="tspan23649">1</tspan><tspan
           dx="0"
           dy="-5.1733332"
           style="font-style:normal;font-variant:normal;font-weight:400;font-size:10.3518px;font-family:Arial;fill:#000000;stroke-width:0.264583"
           id="tspan23651"> Model</tspan></tspan></text>
    <path
       style="fill:none;stroke:#ffffff;stroke-width:0.222292px;stroke-linecap:butt;stroke-linejoin:miter;stroke-miterlimit:10;stroke-dasharray:none;stroke-opacity:1"
       d="m 213.24062,185.18834 v -16.16667 h 90.75562 v 16.16667 z"
       id="path23657" />
    <text
       xml:space="preserve"
       style="font-style:normal;font-variant:normal;font-weight:400;font-size:10.3518px;line-height:125%;font-family:Arial;text-align:start;letter-spacing:0px;word-spacing:0px;text-anchor:start;fill:#000000;fill-opacity:1;stroke:none;stroke-width:0.264583"
       x="215.44333"
       y="180.01501"
       id="text23667"><tspan
         sodipodi:role="line"
         x="215.44333"
         y="180.01501"
         id="tspan23665"
         style="stroke-width:0.264583"><tspan
           dx="0"
           dy="0"
           style="font-style:normal;font-variant:normal;font-weight:400;font-size:10.3518px;font-family:Arial;fill:#000000;stroke-width:0.264583"
           id="tspan23659">P</tspan><tspan
           dx="0"
           dy="5.1733332"
           style="font-style:normal;font-variant:normal;font-weight:400;font-size:8.40052px;font-family:Arial;fill:#000000;stroke-width:0.264583"
           id="tspan23661">2</tspan><tspan
           dx="0"
           dy="-5.1733332"
           style="font-style:normal;font-variant:normal;font-weight:400;font-size:10.3518px;font-family:Arial;fill:#000000;stroke-width:0.264583"
           id="tspan23663"> Model</tspan></tspan></text>
    <path
       style="fill:none;stroke:#ffffff;stroke-width:0.222292px;stroke-linecap:butt;stroke-linejoin:miter;stroke-miterlimit:10;stroke-dasharray:none;stroke-opacity:1"
       d="M 297.24664,113.40834 V 97.241667 H 358.195 v 16.166673 z"
       id="path23669" />
    <text
       xml:space="preserve"
       style="font-style:normal;font-variant:normal;font-weight:400;font-size:15.5277px;line-height:125%;font-family:Arial;text-align:start;letter-spacing:0px;word-spacing:0px;text-anchor:start;fill:#000000;fill-opacity:1;stroke:none;stroke-width:0.264583"
       x="299.50998"
       y="113.085"
       id="text23677"><tspan
         sodipodi:role="line"
         x="299.50998"
         y="113.085"
         id="tspan23675"
         style="stroke-width:0.264583"><tspan
           dx="0"
           dy="0"
           style="font-style:normal;font-variant:normal;font-weight:400;font-size:15.5277px;font-family:Arial;fill:#000000;stroke-width:0.264583"
           id="tspan23671">P</tspan><tspan
           dx="0"
           dy="7.7600002"
           style="font-style:normal;font-variant:normal;font-weight:400;font-size:12.2866px;font-family:Arial;fill:#000000;stroke-width:0.264583"
           id="tspan23673">2</tspan></tspan></text>
    <path
       style="fill:none;stroke:#ffffff;stroke-width:0.222292px;stroke-linecap:butt;stroke-linejoin:miter;stroke-miterlimit:10;stroke-dasharray:none;stroke-opacity:1"
       d="M 272.67334,53.268333 V 37.101667 h 60.94833 v 16.166666 z"
       id="path23679" />
    <text
       xml:space="preserve"
       style="font-style:normal;font-variant:normal;font-weight:400;font-size:15.5277px;line-height:125%;font-family:Arial;text-align:start;letter-spacing:0px;word-spacing:0px;text-anchor:start;fill:#000000;fill-opacity:1;stroke:none;stroke-width:0.264583"
       x="274.93665"
       y="52.945"
       id="text23687"><tspan
         sodipodi:role="line"
         x="274.93665"
         y="52.945"
         id="tspan23685"
         style="stroke-width:0.264583"><tspan
           dx="0"
           dy="0"
           style="font-style:normal;font-variant:normal;font-weight:400;font-size:15.5277px;font-family:Arial;fill:#000000;stroke-width:0.264583"
           id="tspan23681">P</tspan><tspan
           dx="0"
           dy="7.7600002"
           style="font-style:normal;font-variant:normal;font-weight:400;font-size:12.2866px;font-family:Arial;fill:#000000;stroke-width:0.264583"
           id="tspan23683">1</tspan></tspan></text>
  </g>
</svg>
