<?xml version="1.0" encoding="UTF-8" standalone="no"?>
<svg
   xmlns:dc="http://purl.org/dc/elements/1.1/"
   xmlns:cc="http://creativecommons.org/ns#"
   xmlns:rdf="http://www.w3.org/1999/02/22-rdf-syntax-ns#"
   xmlns:svg="http://www.w3.org/2000/svg"
   xmlns="http://www.w3.org/2000/svg"
   xmlns:sodipodi="http://sodipodi.sourceforge.net/DTD/sodipodi-0.dtd"
   xmlns:inkscape="http://www.inkscape.org/namespaces/inkscape"
   width="620.79999mm"
   height="311.37mm"
   viewBox="0 0 620.79999 311.37"
   version="1.1"
   id="svg1170"
   inkscape:version="1.0.2-2 (e86c870879, 2021-01-15)"
   sodipodi:docname="Figure10.11.svg">
  <defs
     id="defs1164">
    <pattern
       id="EMFhbasepattern"
       patternUnits="userSpaceOnUse"
       width="6"
       height="6"
       x="0"
       y="0" />
  </defs>
  <sodipodi:namedview
     id="base"
     pagecolor="#ffffff"
     bordercolor="#666666"
     borderopacity="1.0"
     inkscape:pageopacity="0.0"
     inkscape:pageshadow="2"
     inkscape:zoom="0.35"
     inkscape:cx="498.87964"
     inkscape:cy="1239.8443"
     inkscape:document-units="mm"
     inkscape:current-layer="layer1"
     inkscape:document-rotation="0"
     showgrid="false"
     fit-margin-top="0"
     fit-margin-left="0"
     fit-margin-right="0"
     fit-margin-bottom="0"
     inkscape:window-width="1258"
     inkscape:window-height="1040"
     inkscape:window-x="234"
     inkscape:window-y="0"
     inkscape:window-maximized="0" />
  <metadata
     id="metadata1167">
    <rdf:RDF>
      <cc:Work
         rdf:about="">
        <dc:format>image/svg+xml</dc:format>
        <dc:type
           rdf:resource="http://purl.org/dc/dcmitype/StillImage" />
        <dc:title></dc:title>
      </cc:Work>
    </rdf:RDF>
  </metadata>
  <g
     inkscape:label="Capa 1"
     inkscape:groupmode="layer"
     id="layer1"
     transform="translate(26.161905,179.87548)">
    <path
       style="fill:#ffffff;fill-opacity:1;fill-rule:evenodd;stroke:none;stroke-width:0.264583"
       d="m -26.161905,-179.87548 v 311.37 H 594.6381 v -311.37 z"
       id="path3367" />
    <path
       style="fill:#ffffff;fill-opacity:1;fill-rule:evenodd;stroke:none;stroke-width:0.264583"
       d="M 54.671428,-156.59548 V 97.221194 H 535.79143 V -156.59548 Z"
       id="path3369" />
    <path
       style="fill:none;stroke:#000000;stroke-width:0.222292px;stroke-linecap:butt;stroke-linejoin:round;stroke-miterlimit:4;stroke-dasharray:none;stroke-opacity:1"
       d="M 54.671428,97.221194 H 535.79143"
       id="path3371" />
    <path
       style="fill:none;stroke:#000000;stroke-width:0.222292px;stroke-linecap:butt;stroke-linejoin:round;stroke-miterlimit:4;stroke-dasharray:none;stroke-opacity:1"
       d="M 54.671428,-156.59548 H 535.79143"
       id="path3373" />
    <path
       style="fill:none;stroke:#000000;stroke-width:0.222292px;stroke-linecap:butt;stroke-linejoin:round;stroke-miterlimit:4;stroke-dasharray:none;stroke-opacity:1"
       d="m 54.671428,97.221194 v -4.8096"
       id="path3375" />
    <path
       style="fill:none;stroke:#000000;stroke-width:0.222292px;stroke-linecap:butt;stroke-linejoin:round;stroke-miterlimit:4;stroke-dasharray:none;stroke-opacity:1"
       d="m 114.81143,97.221194 v -4.8096"
       id="path3377" />
    <path
       style="fill:none;stroke:#000000;stroke-width:0.222292px;stroke-linecap:butt;stroke-linejoin:round;stroke-miterlimit:4;stroke-dasharray:none;stroke-opacity:1"
       d="m 174.95143,97.221194 v -4.8096"
       id="path3379" />
    <path
       style="fill:none;stroke:#000000;stroke-width:0.222292px;stroke-linecap:butt;stroke-linejoin:round;stroke-miterlimit:4;stroke-dasharray:none;stroke-opacity:1"
       d="m 235.09143,97.221194 v -4.8096"
       id="path3381" />
    <path
       style="fill:none;stroke:#000000;stroke-width:0.222292px;stroke-linecap:butt;stroke-linejoin:round;stroke-miterlimit:4;stroke-dasharray:none;stroke-opacity:1"
       d="m 295.23144,97.221194 v -4.8096"
       id="path3383" />
    <path
       style="fill:none;stroke:#000000;stroke-width:0.222292px;stroke-linecap:butt;stroke-linejoin:round;stroke-miterlimit:4;stroke-dasharray:none;stroke-opacity:1"
       d="m 355.37142,97.221194 v -4.8096"
       id="path3385" />
    <path
       style="fill:none;stroke:#000000;stroke-width:0.222292px;stroke-linecap:butt;stroke-linejoin:round;stroke-miterlimit:4;stroke-dasharray:none;stroke-opacity:1"
       d="m 415.51142,97.221194 v -4.8096"
       id="path3387" />
    <path
       style="fill:none;stroke:#000000;stroke-width:0.222292px;stroke-linecap:butt;stroke-linejoin:round;stroke-miterlimit:4;stroke-dasharray:none;stroke-opacity:1"
       d="m 475.65143,97.221194 v -4.8096"
       id="path3389" />
    <path
       style="fill:none;stroke:#000000;stroke-width:0.222292px;stroke-linecap:butt;stroke-linejoin:round;stroke-miterlimit:4;stroke-dasharray:none;stroke-opacity:1"
       d="m 535.79143,97.221194 v -4.8096"
       id="path3391" />
    <path
       style="fill:none;stroke:#000000;stroke-width:0.222292px;stroke-linecap:butt;stroke-linejoin:round;stroke-miterlimit:4;stroke-dasharray:none;stroke-opacity:1"
       d="m 54.671428,-156.59548 v 4.82979"
       id="path3393" />
    <path
       style="fill:none;stroke:#000000;stroke-width:0.222292px;stroke-linecap:butt;stroke-linejoin:round;stroke-miterlimit:4;stroke-dasharray:none;stroke-opacity:1"
       d="m 114.81143,-156.59548 v 4.82979"
       id="path3395" />
    <path
       style="fill:none;stroke:#000000;stroke-width:0.222292px;stroke-linecap:butt;stroke-linejoin:round;stroke-miterlimit:4;stroke-dasharray:none;stroke-opacity:1"
       d="m 174.95143,-156.59548 v 4.82979"
       id="path3397" />
    <path
       style="fill:none;stroke:#000000;stroke-width:0.222292px;stroke-linecap:butt;stroke-linejoin:round;stroke-miterlimit:4;stroke-dasharray:none;stroke-opacity:1"
       d="m 235.09143,-156.59548 v 4.82979"
       id="path3399" />
    <path
       style="fill:none;stroke:#000000;stroke-width:0.222292px;stroke-linecap:butt;stroke-linejoin:round;stroke-miterlimit:4;stroke-dasharray:none;stroke-opacity:1"
       d="m 295.23144,-156.59548 v 4.82979"
       id="path3401" />
    <path
       style="fill:none;stroke:#000000;stroke-width:0.222292px;stroke-linecap:butt;stroke-linejoin:round;stroke-miterlimit:4;stroke-dasharray:none;stroke-opacity:1"
       d="m 355.37142,-156.59548 v 4.82979"
       id="path3403" />
    <path
       style="fill:none;stroke:#000000;stroke-width:0.222292px;stroke-linecap:butt;stroke-linejoin:round;stroke-miterlimit:4;stroke-dasharray:none;stroke-opacity:1"
       d="m 415.51142,-156.59548 v 4.82979"
       id="path3405" />
    <path
       style="fill:none;stroke:#000000;stroke-width:0.222292px;stroke-linecap:butt;stroke-linejoin:round;stroke-miterlimit:4;stroke-dasharray:none;stroke-opacity:1"
       d="m 475.65143,-156.59548 v 4.82979"
       id="path3407" />
    <path
       style="fill:none;stroke:#000000;stroke-width:0.222292px;stroke-linecap:butt;stroke-linejoin:round;stroke-miterlimit:4;stroke-dasharray:none;stroke-opacity:1"
       d="m 535.79143,-156.59548 v 4.82979"
       id="path3409" />
    <text
       xml:space="preserve"
       style="font-style:normal;font-variant:normal;font-weight:400;font-size:11.9559px;line-height:125%;font-family:Arial;text-align:start;letter-spacing:0px;word-spacing:0px;text-anchor:start;fill:#000000;fill-opacity:1;stroke:none;stroke-width:0.264583"
       x="51.438095"
       y="111.77119"
       id="text3415"><tspan
         sodipodi:role="line"
         x="51.438095"
         y="111.77119"
         id="tspan3413"
         style="stroke-width:0.264583"><tspan
           dx="0"
           dy="0"
           style="font-style:normal;font-variant:normal;font-weight:400;font-size:11.9559px;font-family:Arial;fill:#000000;stroke-width:0.264583"
           id="tspan3411">0</tspan></tspan></text>
    <text
       xml:space="preserve"
       style="font-style:normal;font-variant:normal;font-weight:400;font-size:11.9559px;line-height:125%;font-family:Arial;text-align:start;letter-spacing:0px;word-spacing:0px;text-anchor:start;fill:#000000;fill-opacity:1;stroke:none;stroke-width:0.264583"
       x="106.40476"
       y="111.77119"
       id="text3421"><tspan
         sodipodi:role="line"
         x="106.40476"
         y="111.77119"
         id="tspan3419"
         style="stroke-width:0.264583"><tspan
           dx="0"
           dy="0"
           style="font-style:normal;font-variant:normal;font-weight:400;font-size:11.9559px;font-family:Arial;fill:#000000;stroke-width:0.264583"
           id="tspan3417">0.5</tspan></tspan></text>
    <text
       xml:space="preserve"
       style="font-style:normal;font-variant:normal;font-weight:400;font-size:11.9559px;line-height:125%;font-family:Arial;text-align:start;letter-spacing:0px;word-spacing:0px;text-anchor:start;fill:#000000;fill-opacity:1;stroke:none;stroke-width:0.264583"
       x="171.71808"
       y="111.77119"
       id="text3427"><tspan
         sodipodi:role="line"
         x="171.71808"
         y="111.77119"
         id="tspan3425"
         style="stroke-width:0.264583"><tspan
           dx="0"
           dy="0"
           style="font-style:normal;font-variant:normal;font-weight:400;font-size:11.9559px;font-family:Arial;fill:#000000;stroke-width:0.264583"
           id="tspan3423">1</tspan></tspan></text>
    <text
       xml:space="preserve"
       style="font-style:normal;font-variant:normal;font-weight:400;font-size:11.9559px;line-height:125%;font-family:Arial;text-align:start;letter-spacing:0px;word-spacing:0px;text-anchor:start;fill:#000000;fill-opacity:1;stroke:none;stroke-width:0.264583"
       x="226.68475"
       y="111.77119"
       id="text3433"><tspan
         sodipodi:role="line"
         x="226.68475"
         y="111.77119"
         id="tspan3431"
         style="stroke-width:0.264583"><tspan
           dx="0"
           dy="0"
           style="font-style:normal;font-variant:normal;font-weight:400;font-size:11.9559px;font-family:Arial;fill:#000000;stroke-width:0.264583"
           id="tspan3429">1.5</tspan></tspan></text>
    <text
       xml:space="preserve"
       style="font-style:normal;font-variant:normal;font-weight:400;font-size:11.9559px;line-height:125%;font-family:Arial;text-align:start;letter-spacing:0px;word-spacing:0px;text-anchor:start;fill:#000000;fill-opacity:1;stroke:none;stroke-width:0.264583"
       x="291.99811"
       y="111.77119"
       id="text3439"><tspan
         sodipodi:role="line"
         x="291.99811"
         y="111.77119"
         id="tspan3437"
         style="stroke-width:0.264583"><tspan
           dx="0"
           dy="0"
           style="font-style:normal;font-variant:normal;font-weight:400;font-size:11.9559px;font-family:Arial;fill:#000000;stroke-width:0.264583"
           id="tspan3435">2</tspan></tspan></text>
    <text
       xml:space="preserve"
       style="font-style:normal;font-variant:normal;font-weight:400;font-size:11.9559px;line-height:125%;font-family:Arial;text-align:start;letter-spacing:0px;word-spacing:0px;text-anchor:start;fill:#000000;fill-opacity:1;stroke:none;stroke-width:0.264583"
       x="346.96478"
       y="111.77119"
       id="text3445"><tspan
         sodipodi:role="line"
         x="346.96478"
         y="111.77119"
         id="tspan3443"
         style="stroke-width:0.264583"><tspan
           dx="0"
           dy="0"
           style="font-style:normal;font-variant:normal;font-weight:400;font-size:11.9559px;font-family:Arial;fill:#000000;stroke-width:0.264583"
           id="tspan3441">2.5</tspan></tspan></text>
    <text
       xml:space="preserve"
       style="font-style:normal;font-variant:normal;font-weight:400;font-size:11.9559px;line-height:125%;font-family:Arial;text-align:start;letter-spacing:0px;word-spacing:0px;text-anchor:start;fill:#000000;fill-opacity:1;stroke:none;stroke-width:0.264583"
       x="412.27811"
       y="111.77119"
       id="text3451"><tspan
         sodipodi:role="line"
         x="412.27811"
         y="111.77119"
         id="tspan3449"
         style="stroke-width:0.264583"><tspan
           dx="0"
           dy="0"
           style="font-style:normal;font-variant:normal;font-weight:400;font-size:11.9559px;font-family:Arial;fill:#000000;stroke-width:0.264583"
           id="tspan3447">3</tspan></tspan></text>
    <text
       xml:space="preserve"
       style="font-style:normal;font-variant:normal;font-weight:400;font-size:11.9559px;line-height:125%;font-family:Arial;text-align:start;letter-spacing:0px;word-spacing:0px;text-anchor:start;fill:#000000;fill-opacity:1;stroke:none;stroke-width:0.264583"
       x="467.24475"
       y="111.77119"
       id="text3457"><tspan
         sodipodi:role="line"
         x="467.24475"
         y="111.77119"
         id="tspan3455"
         style="stroke-width:0.264583"><tspan
           dx="0"
           dy="0"
           style="font-style:normal;font-variant:normal;font-weight:400;font-size:11.9559px;font-family:Arial;fill:#000000;stroke-width:0.264583"
           id="tspan3453">3.5</tspan></tspan></text>
    <text
       xml:space="preserve"
       style="font-style:normal;font-variant:normal;font-weight:400;font-size:11.9559px;line-height:125%;font-family:Arial;text-align:start;letter-spacing:0px;word-spacing:0px;text-anchor:start;fill:#000000;fill-opacity:1;stroke:none;stroke-width:0.264583"
       x="532.55804"
       y="111.77119"
       id="text3463"><tspan
         sodipodi:role="line"
         x="532.55804"
         y="111.77119"
         id="tspan3461"
         style="stroke-width:0.264583"><tspan
           dx="0"
           dy="0"
           style="font-style:normal;font-variant:normal;font-weight:400;font-size:11.9559px;font-family:Arial;fill:#000000;stroke-width:0.264583"
           id="tspan3459">4</tspan></tspan></text>
    <text
       xml:space="preserve"
       style="font-style:normal;font-variant:normal;font-weight:400;font-size:13.2622px;line-height:125%;font-family:Arial;text-align:start;letter-spacing:0px;word-spacing:0px;text-anchor:start;fill:#000000;fill-opacity:1;stroke:none;stroke-width:0.264583"
       x="174.6281"
       y="127.61452"
       id="text3469"><tspan
         sodipodi:role="line"
         x="174.6281"
         y="127.61452"
         id="tspan3467"
         style="stroke-width:0.264583"><tspan
           dx="0"
           dy="0"
           style="font-style:normal;font-variant:normal;font-weight:400;font-size:13.2622px;font-family:Arial;fill:#000000;stroke-width:0.264583"
           id="tspan3465">Load consumption/PV system production</tspan></tspan></text>
    <path
       style="fill:none;stroke:#000000;stroke-width:0.222292px;stroke-linecap:butt;stroke-linejoin:round;stroke-miterlimit:4;stroke-dasharray:none;stroke-opacity:1"
       d="M 54.671428,97.221194 V -156.59548"
       id="path3471" />
    <path
       style="fill:none;stroke:#000000;stroke-width:0.222292px;stroke-linecap:butt;stroke-linejoin:round;stroke-miterlimit:4;stroke-dasharray:none;stroke-opacity:1"
       d="M 535.79143,97.221194 V -156.59548"
       id="path3473" />
    <path
       style="fill:none;stroke:#000000;stroke-width:0.222292px;stroke-linecap:butt;stroke-linejoin:round;stroke-miterlimit:4;stroke-dasharray:none;stroke-opacity:1"
       d="M 54.671428,97.221194 H 59.50122"
       id="path3475" />
    <path
       style="fill:none;stroke:#000000;stroke-width:0.222292px;stroke-linecap:butt;stroke-linejoin:round;stroke-miterlimit:4;stroke-dasharray:none;stroke-opacity:1"
       d="M 54.671428,46.457854 H 59.50122"
       id="path3477" />
    <path
       style="fill:none;stroke:#000000;stroke-width:0.222292px;stroke-linecap:butt;stroke-linejoin:round;stroke-miterlimit:4;stroke-dasharray:none;stroke-opacity:1"
       d="M 54.671428,-4.3054762 H 59.50122"
       id="path3479" />
    <path
       style="fill:none;stroke:#000000;stroke-width:0.222292px;stroke-linecap:butt;stroke-linejoin:round;stroke-miterlimit:4;stroke-dasharray:none;stroke-opacity:1"
       d="M 54.671428,-55.068806 H 59.50122"
       id="path3481" />
    <path
       style="fill:none;stroke:#000000;stroke-width:0.222292px;stroke-linecap:butt;stroke-linejoin:round;stroke-miterlimit:4;stroke-dasharray:none;stroke-opacity:1"
       d="M 54.671428,-105.83214 H 59.50122"
       id="path3483" />
    <path
       style="fill:none;stroke:#000000;stroke-width:0.222292px;stroke-linecap:butt;stroke-linejoin:round;stroke-miterlimit:4;stroke-dasharray:none;stroke-opacity:1"
       d="M 54.671428,-156.59548 H 59.50122"
       id="path3485" />
    <path
       style="fill:none;stroke:#000000;stroke-width:0.222292px;stroke-linecap:butt;stroke-linejoin:round;stroke-miterlimit:4;stroke-dasharray:none;stroke-opacity:1"
       d="m 535.79143,97.221194 h -4.80957"
       id="path3487" />
    <path
       style="fill:none;stroke:#000000;stroke-width:0.222292px;stroke-linecap:butt;stroke-linejoin:round;stroke-miterlimit:4;stroke-dasharray:none;stroke-opacity:1"
       d="m 535.79143,46.457854 h -4.80957"
       id="path3489" />
    <path
       style="fill:none;stroke:#000000;stroke-width:0.222292px;stroke-linecap:butt;stroke-linejoin:round;stroke-miterlimit:4;stroke-dasharray:none;stroke-opacity:1"
       d="m 535.79143,-4.3054762 h -4.80957"
       id="path3491" />
    <path
       style="fill:none;stroke:#000000;stroke-width:0.222292px;stroke-linecap:butt;stroke-linejoin:round;stroke-miterlimit:4;stroke-dasharray:none;stroke-opacity:1"
       d="m 535.79143,-55.068806 h -4.80957"
       id="path3493" />
    <path
       style="fill:none;stroke:#000000;stroke-width:0.222292px;stroke-linecap:butt;stroke-linejoin:round;stroke-miterlimit:4;stroke-dasharray:none;stroke-opacity:1"
       d="m 535.79143,-105.83214 h -4.80957"
       id="path3495" />
    <path
       style="fill:none;stroke:#000000;stroke-width:0.222292px;stroke-linecap:butt;stroke-linejoin:round;stroke-miterlimit:4;stroke-dasharray:none;stroke-opacity:1"
       d="m 535.79143,-156.59548 h -4.80957"
       id="path3497" />
    <text
       xml:space="preserve"
       style="font-style:normal;font-variant:normal;font-weight:400;font-size:11.9559px;line-height:125%;font-family:Arial;text-align:start;letter-spacing:0px;word-spacing:0px;text-anchor:start;fill:#000000;fill-opacity:1;stroke:none;stroke-width:0.264583"
       x="44.648094"
       y="101.42451"
       id="text3503"><tspan
         sodipodi:role="line"
         x="44.648094"
         y="101.42451"
         id="tspan3501"
         style="stroke-width:0.264583"><tspan
           dx="0"
           dy="0"
           style="font-style:normal;font-variant:normal;font-weight:400;font-size:11.9559px;font-family:Arial;fill:#000000;stroke-width:0.264583"
           id="tspan3499">0</tspan></tspan></text>
    <text
       xml:space="preserve"
       style="font-style:normal;font-variant:normal;font-weight:400;font-size:11.9559px;line-height:125%;font-family:Arial;text-align:start;letter-spacing:0px;word-spacing:0px;text-anchor:start;fill:#000000;fill-opacity:1;stroke:none;stroke-width:0.264583"
       x="37.858093"
       y="50.66119"
       id="text3509"><tspan
         sodipodi:role="line"
         x="37.858093"
         y="50.66119"
         id="tspan3507"
         style="stroke-width:0.264583"><tspan
           dx="0"
           dy="0"
           style="font-style:normal;font-variant:normal;font-weight:400;font-size:11.9559px;font-family:Arial;fill:#000000;stroke-width:0.264583"
           id="tspan3505">20</tspan></tspan></text>
    <text
       xml:space="preserve"
       style="font-style:normal;font-variant:normal;font-weight:400;font-size:11.9559px;line-height:125%;font-family:Arial;text-align:start;letter-spacing:0px;word-spacing:0px;text-anchor:start;fill:#000000;fill-opacity:1;stroke:none;stroke-width:0.264583"
       x="37.858093"
       y="-0.1021455"
       id="text3515"><tspan
         sodipodi:role="line"
         x="37.858093"
         y="-0.1021455"
         id="tspan3513"
         style="stroke-width:0.264583"><tspan
           dx="0"
           dy="0"
           style="font-style:normal;font-variant:normal;font-weight:400;font-size:11.9559px;font-family:Arial;fill:#000000;stroke-width:0.264583"
           id="tspan3511">40</tspan></tspan></text>
    <text
       xml:space="preserve"
       style="font-style:normal;font-variant:normal;font-weight:400;font-size:11.9559px;line-height:125%;font-family:Arial;text-align:start;letter-spacing:0px;word-spacing:0px;text-anchor:start;fill:#000000;fill-opacity:1;stroke:none;stroke-width:0.264583"
       x="37.858093"
       y="-50.865467"
       id="text3521"><tspan
         sodipodi:role="line"
         x="37.858093"
         y="-50.865467"
         id="tspan3519"
         style="stroke-width:0.264583"><tspan
           dx="0"
           dy="0"
           style="font-style:normal;font-variant:normal;font-weight:400;font-size:11.9559px;font-family:Arial;fill:#000000;stroke-width:0.264583"
           id="tspan3517">60</tspan></tspan></text>
    <text
       xml:space="preserve"
       style="font-style:normal;font-variant:normal;font-weight:400;font-size:11.9559px;line-height:125%;font-family:Arial;text-align:start;letter-spacing:0px;word-spacing:0px;text-anchor:start;fill:#000000;fill-opacity:1;stroke:none;stroke-width:0.264583"
       x="37.858093"
       y="-101.62881"
       id="text3527"><tspan
         sodipodi:role="line"
         x="37.858093"
         y="-101.62881"
         id="tspan3525"
         style="stroke-width:0.264583"><tspan
           dx="0"
           dy="0"
           style="font-style:normal;font-variant:normal;font-weight:400;font-size:11.9559px;font-family:Arial;fill:#000000;stroke-width:0.264583"
           id="tspan3523">80</tspan></tspan></text>
    <text
       xml:space="preserve"
       style="font-style:normal;font-variant:normal;font-weight:400;font-size:11.9559px;line-height:125%;font-family:Arial;text-align:start;letter-spacing:0px;word-spacing:0px;text-anchor:start;fill:#000000;fill-opacity:1;stroke:none;stroke-width:0.264583"
       x="31.068094"
       y="-152.39214"
       id="text3533"><tspan
         sodipodi:role="line"
         x="31.068094"
         y="-152.39214"
         id="tspan3531"
         style="stroke-width:0.264583"><tspan
           dx="0"
           dy="0"
           style="font-style:normal;font-variant:normal;font-weight:400;font-size:11.9559px;font-family:Arial;fill:#000000;stroke-width:0.264583"
           id="tspan3529">100</tspan></tspan></text>
    <text
       xml:space="preserve"
       style="font-style:normal;font-variant:normal;font-weight:400;font-size:13.2622px;line-height:125%;font-family:Arial;text-align:start;letter-spacing:0px;word-spacing:0px;text-anchor:start;fill:#000000;fill-opacity:1;stroke:none;stroke-width:0.264583"
       transform="rotate(-90)"
       x="-32.87785"
       y="26.864763"
       id="text3577"><tspan
         sodipodi:role="line"
         x="-32.87785"
         y="26.864763"
         id="tspan3575"
         style="stroke-width:0.264583"><tspan
           dx="0"
           dy="0"
           style="font-style:normal;font-variant:normal;font-weight:400;font-size:13.2622px;font-family:Arial;fill:#000000;stroke-width:0.264583"
           id="tspan3535">S</tspan><tspan
           dx="0"
           dy="0"
           style="font-style:normal;font-variant:normal;font-weight:400;font-size:13.2622px;font-family:Arial;fill:#000000;stroke-width:0.264583"
           id="tspan3537">e</tspan><tspan
           dx="0"
           dy="0"
           style="font-style:normal;font-variant:normal;font-weight:400;font-size:13.2622px;font-family:Arial;fill:#000000;stroke-width:0.264583"
           id="tspan3539">l</tspan><tspan
           dx="0"
           dy="0"
           style="font-style:normal;font-variant:normal;font-weight:400;font-size:13.2622px;font-family:Arial;fill:#000000;stroke-width:0.264583"
           id="tspan3541">f</tspan><tspan
           dx="0"
           dy="0"
           style="font-style:normal;font-variant:normal;font-weight:400;font-size:13.2622px;font-family:Arial;fill:#000000;stroke-width:0.264583"
           id="tspan3543">-</tspan><tspan
           dx="0"
           dy="0"
           style="font-style:normal;font-variant:normal;font-weight:400;font-size:13.2622px;font-family:Arial;fill:#000000;stroke-width:0.264583"
           id="tspan3545">c</tspan><tspan
           dx="0"
           dy="0"
           style="font-style:normal;font-variant:normal;font-weight:400;font-size:13.2622px;font-family:Arial;fill:#000000;stroke-width:0.264583"
           id="tspan3547">o</tspan><tspan
           dx="0"
           dy="0"
           style="font-style:normal;font-variant:normal;font-weight:400;font-size:13.2622px;font-family:Arial;fill:#000000;stroke-width:0.264583"
           id="tspan3549">n</tspan><tspan
           dx="0"
           dy="0"
           style="font-style:normal;font-variant:normal;font-weight:400;font-size:13.2622px;font-family:Arial;fill:#000000;stroke-width:0.264583"
           id="tspan3551">s</tspan><tspan
           dx="0"
           dy="0"
           style="font-style:normal;font-variant:normal;font-weight:400;font-size:13.2622px;font-family:Arial;fill:#000000;stroke-width:0.264583"
           id="tspan3553">u</tspan><tspan
           dx="0"
           dy="0"
           style="font-style:normal;font-variant:normal;font-weight:400;font-size:13.2622px;font-family:Arial;fill:#000000;stroke-width:0.264583"
           id="tspan3555">m</tspan><tspan
           dx="0"
           dy="0"
           style="font-style:normal;font-variant:normal;font-weight:400;font-size:13.2622px;font-family:Arial;fill:#000000;stroke-width:0.264583"
           id="tspan3557">p</tspan><tspan
           dx="0"
           dy="0"
           style="font-style:normal;font-variant:normal;font-weight:400;font-size:13.2622px;font-family:Arial;fill:#000000;stroke-width:0.264583"
           id="tspan3559">t</tspan><tspan
           dx="0"
           dy="0"
           style="font-style:normal;font-variant:normal;font-weight:400;font-size:13.2622px;font-family:Arial;fill:#000000;stroke-width:0.264583"
           id="tspan3561">i</tspan><tspan
           dx="0"
           dy="0"
           style="font-style:normal;font-variant:normal;font-weight:400;font-size:13.2622px;font-family:Arial;fill:#000000;stroke-width:0.264583"
           id="tspan3563">o</tspan><tspan
           dx="0"
           dy="0"
           style="font-style:normal;font-variant:normal;font-weight:400;font-size:13.2622px;font-family:Arial;fill:#000000;stroke-width:0.264583"
           id="tspan3565">n</tspan><tspan
           dx="0"
           dy="0"
           style="font-style:normal;font-variant:normal;font-weight:400;font-size:13.2622px;font-family:Arial;fill:#000000;stroke-width:0.264583"
           id="tspan3567"> </tspan><tspan
           dx="0"
           dy="0"
           style="font-style:normal;font-variant:normal;font-weight:400;font-size:13.2622px;font-family:Arial;fill:#000000;stroke-width:0.264583"
           id="tspan3569">[</tspan><tspan
           dx="0"
           dy="0"
           style="font-style:normal;font-variant:normal;font-weight:400;font-size:13.2622px;font-family:Arial;fill:#000000;stroke-width:0.264583"
           id="tspan3571">%</tspan><tspan
           dx="0"
           dy="0"
           style="font-style:normal;font-variant:normal;font-weight:400;font-size:13.2622px;font-family:Arial;fill:#000000;stroke-width:0.264583"
           id="tspan3573">]</tspan></tspan></text>
    <path
       style="fill:none;stroke:#000000;stroke-width:1.71771px;stroke-linecap:butt;stroke-linejoin:round;stroke-miterlimit:4;stroke-dasharray:none;stroke-opacity:1"
       d="m 54.671428,97.221194 5.072293,-5.19353 5.07229,-5.0723 5.072292,-4.93084 5.072292,-4.89042 5.07229,-4.82979 5.07229,-4.78937 5.07229,-4.72875 5.05209,-4.70855 5.072295,-4.64791 5.07229,-4.6075 5.07229,-4.56709 5.0723,-4.50645 5.07229,-4.46605 5.07229,-4.42562 5.07229,-4.38521 5.05208,-4.34479 5.0723,-4.28417 5.07229,-4.26396 5.07229,-4.2033302 5.07229,-4.16291 5.07229,-4.1225 5.07229,-4.08209 5.0723,-4.04166 5.05208,-3.9810498 5.07229,-3.96083 5.07229,-3.92042 5.07229,-3.85979 5.0723,-3.81937 5.07229,-3.79917 5.07229,-3.73854 5.05208,-3.67792 5.07229,-3.67791 5.07229,-3.59709 5.0723,-3.57687 5.07229,-3.51625 5.07229,-3.49604 5.07228,-3.43542 5.0723,-3.395 5.05209,-3.35458 5.0723,-3.29396 5.07227,-3.27375 5.0723,-3.19292 5.0723,-3.17271 5.07228,-3.132291 5.0723,-3.071665 5.0723,-3.031252 5.05208,-2.970625 5.07228,-2.930207 5.0723,-2.889793 5.0723,-2.829165 5.07227,-2.788756 5.0723,-2.72812 5.07228,-2.6675 5.0723,-2.62708 5.05209,-2.56646 5.0723,-2.52604 5.07227,-2.44521 5.0723,-2.40479 5.0723,-2.34417 5.07228,-2.28354 5.0723,-2.22292 5.05208,-2.14208 5.0723,-2.10167 5.07228,-2.00062 5.0723,-1.94 5.0723,-1.87938 5.07227,-1.77833 5.0723,-1.6975 5.0723,-1.61667 5.05206,-1.51562 5.07231,-1.4348 5.0723,-1.33374 5.07227,-1.27313 5.0723,-1.17208 5.0723,-1.09125 5.07228,-1.01042 5.0723,-0.92958 5.05208,-0.82854 5.0723,-0.7275 5.07228,-0.64667 5.0723,-0.52542 5.0723,-0.44458 5.07227,-0.34354 5.0723,-0.26271 5.0723,-0.18188 5.05206,-0.14145 5.0723,-0.10105 5.07231,-0.0606 5.07227,-0.0606 5.0723,-0.0404 5.0723,-0.0202 5.07227,-0.0202 5.05209,-0.0202 h 5.0723 4.6277"
       id="path3579" />
    <path
       style="fill:#000000;fill-opacity:1;fill-rule:nonzero;stroke:none;stroke-width:0.264583"
       d="m 59.844762,-9.3575562 h 2.586665 l 0.02021,-0.8487498 -2.586667,-0.0202 z m 5.173332,0.0202 h 2.586667 l 0.02021,-0.8689498 h -2.586667 z m 5.173335,0 2.586667,0.0202 0.02021,-0.8689498 h -2.586664 z m 5.173336,0.0202 h 2.58666 l 0.0202,-0.8487498 -2.58667,-0.0202 z m 5.17333,0.0202 h 2.58667 l 0.0202,-0.8689598 h -2.58667 z m 5.17333,0.0202 h 2.58667 l 0.0202,-0.8689598 h -2.58667 z m 5.17334,0 2.58666,0.0202 0.0202,-0.8689598 h -2.58667 z m 5.17333,0.0202 h 2.58667 l 0.0202,-0.8487498 -2.58666,-0.0202 z m 5.173335,0.0202 h 2.58667 l 0.0202,-0.8689598 h -2.58667 z m 5.17334,0 2.58666,0.0202 0.0202,-0.8689498 h -2.58666 z m 5.17333,0.0202 h 2.58667 l 0.0202,-0.8487398 -2.58666,-0.0202 z m 5.17333,0.0202 h 2.58667 l 0.0202,-0.8487498 -2.58667,-0.0202 z m 5.17334,0.0202 h 2.58666 l 0.0202,-0.8689598 h -2.58666 z m 5.17333,0 2.58667,0.0202 0.0202,-0.8689598 h -2.58667 z m 5.17333,0.0202 h 2.58667 l 0.0202,-0.8487498 -2.58667,-0.0202 z m 5.17334,0.0202 h 2.58666 l 0.0202,-0.8689598 h -2.58667 z m 5.17333,0 2.58667,0.0202 0.0202,-0.86896 h -2.58667 z m 5.17333,0.0202 h 2.58667 l 0.0202,-0.84875 -2.58667,-0.0202 z m 5.17334,0.0202 h 2.58666 l 0.0202,-0.84876 -2.58667,-0.0202 z m 5.17333,0.0202 h 2.58667 l 0.0202,-0.86896 h -2.58667 z m 5.17333,0 2.58667,0.0202 0.0202,-0.86896 h -2.58667 z m 5.17334,0.0202 h 2.58666 l 0.0202,-0.84875 -2.58666,-0.0202 z m 5.17333,0.0202 h 0.64667 l 0.0202,-0.86896 h -0.64667 z m -118.986672,-0.34354 2.586667,0.0202 0.02021,-0.8689598 h -2.586667 z"
       id="path3581" />
    <path
       style="fill:#000000;fill-opacity:1;fill-rule:nonzero;stroke:none;stroke-width:0.264583"
       d="m 174.52706,-4.3054762 v 2.58667 h 0.86896 v -2.58667 z m 0,5.17333001 V 3.4545238 h 0.86896 V 0.86785381 Z m 0,5.17333999 v 2.58666 h 0.86896 v -2.58666 z m 0,5.1733302 v 2.58667 h 0.86896 v -2.58667 z m 0,5.17333 v 2.58667 h 0.86896 v -2.58667 z m 0,5.17334 v 2.58666 h 0.86896 v -2.58666 z m 0,5.17333 v 2.58667 h 0.86896 v -2.58667 z m 0,5.17333 v 2.58667 h 0.86896 v -2.58667 z m 0,5.17334 v 2.58666 h 0.86896 v -2.58666 z m 0,5.17333 v 2.58667 h 0.86896 v -2.58667 z m 0,5.17333 v 2.58667 h 0.86896 v -2.58667 z m 0,5.17334 v 2.58666 h 0.86896 v -2.58666 z m 0,5.17333 v 2.58667 h 0.86896 v -2.58667 z m 0,5.17333 v 2.58667 h 0.86896 v -2.58667 z m 0,5.17334 v 2.58666 h 0.86896 v -2.58666 z m 0,5.17333 v 2.58667 h 0.86896 v -2.58667 z m 0,5.17333 v 2.58667 h 0.86896 v -2.58667 z m 0,5.17334 v 2.58667 h 0.86896 v -2.58667 z m 0,5.17334 v 2.58665 h 0.86896 v -2.58665 z m 0,5.17332 v 2.58667 h 0.86896 v -2.58667 z m 0,-103.4666602 v 2.58666 h 0.86896 v -2.58666 z"
       id="path3583" />
    <path
       style="fill:#000000;fill-opacity:1;fill-rule:nonzero;stroke:none;stroke-width:0.264583"
       d="m 176.5681,-9.2767262 v -0.20208 -0.18188 l -0.0202,-0.18187 -0.0404,-0.2020898 -0.0606,-0.18187 -0.0606,-0.18188 -0.0808,-0.16166 -0.0808,-0.16167 -0.12125,-0.16167 -0.12125,-0.14145 -0.12125,-0.14146 -0.14146,-0.12125 -0.14146,-0.10105 -0.16166,-0.10104 -0.16167,-0.0606 -0.18188,-0.0808 -0.16166,-0.0404 -0.18188,-0.0404 h -0.18187 -0.18188 -0.16167 l -0.18187,0.0404 -0.18187,0.0404 -0.16167,0.0808 -0.16167,0.0606 -0.16166,0.10104 -0.14146,0.10105 -0.14146,0.12125 -0.14146,0.14146 -0.12125,0.14145 -0.10104,0.16167 -0.10104,0.16167 -0.0808,0.16166 -0.0606,0.18188 -0.0404,0.18187 -0.0404,0.2020898 -0.0202,0.18187 -0.0202,0.18188 0.0202,0.20208 0.0202,0.18188 0.0404,0.20208 0.0404,0.18187 0.0606,0.18188 0.0808,0.16167 0.10104,0.16166 0.10104,0.16167 0.12125,0.14146 0.14146,0.14145 0.14146,0.12125 0.14146,0.10105 0.16166,0.0808 0.16167,0.0808 0.16167,0.0808 0.18187,0.0404 0.18187,0.0404 h 0.16167 0.18188 0.18187 l 0.18188,-0.0404 0.16166,-0.0404 0.18188,-0.0808 0.16167,-0.0808 0.16166,-0.0808 0.14146,-0.10105 0.14146,-0.12125 0.12125,-0.14145 0.12125,-0.14146 0.12125,-0.16167 0.0808,-0.16166 0.0808,-0.16167 0.0606,-0.18188 0.0606,-0.18187 0.0404,-0.20208 z"
       id="path3585" />
    <path
       style="fill:none;stroke:#000000;stroke-width:0.222292px;stroke-linecap:butt;stroke-linejoin:round;stroke-miterlimit:4;stroke-dasharray:none;stroke-opacity:1"
       d="m 176.5681,-9.4788062 v -0.18188 l -0.0202,-0.18187 -0.0404,-0.2020898 -0.0606,-0.18187 -0.0606,-0.18188 -0.0808,-0.16166 -0.0808,-0.16167 -0.12125,-0.16167 -0.12125,-0.14145 -0.12125,-0.14146 -0.14146,-0.12125 -0.14146,-0.10105 -0.16166,-0.10104 -0.16167,-0.0606 -0.18188,-0.0808 -0.16166,-0.0404 -0.18188,-0.0404 h -0.18187 -0.18188 -0.16167 l -0.18187,0.0404 -0.18187,0.0404 -0.16167,0.0808 -0.16167,0.0606 -0.16166,0.10104 -0.14146,0.10105 -0.14146,0.12125 -0.14146,0.14146 -0.12125,0.14145 -0.10104,0.16167 -0.10104,0.16167 -0.0808,0.16166 -0.0606,0.18188 -0.0404,0.18187 -0.0404,0.2020898 -0.0202,0.18187 -0.0202,0.18188 0.0202,0.20208 0.0202,0.18188 0.0404,0.20208 0.0404,0.18187 0.0606,0.18188 0.0808,0.16167 0.10104,0.16166 0.10104,0.16167 0.12125,0.14146 0.14146,0.14145 0.14146,0.12125 0.14146,0.10105 0.16166,0.0808 0.16167,0.0808 0.16167,0.0808 0.18187,0.0404 0.18187,0.0404 h 0.16167 0.18188 0.18187 l 0.18188,-0.0404 0.16166,-0.0404 0.18188,-0.0808 0.16167,-0.0808 0.16166,-0.0808 0.14146,-0.10105 0.14146,-0.12125 0.12125,-0.14145 0.12125,-0.14146 0.12125,-0.16167 0.0808,-0.16166 0.0808,-0.16167 0.0606,-0.18188 0.0606,-0.18187 0.0404,-0.20208 0.0202,-0.18188 z"
       id="path3587" />
  </g>
</svg>
